G04 #@! TF.GenerationSoftware,KiCad,Pcbnew,(2017-06-12 revision 19d5cc754)-master*
G04 #@! TF.CreationDate,2018-05-15T00:46:58+02:00*
G04 #@! TF.ProjectId,RFID_BOARD_EM4095,524649445F424F4152445F454D343039,rev?*
G04 #@! TF.FileFunction,Copper,L2,Bot,Signal*
G04 #@! TF.FilePolarity,Positive*
%FSLAX46Y46*%
G04 Gerber Fmt 4.6, Leading zero omitted, Abs format (unit mm)*
G04 Created by KiCad (PCBNEW (2017-06-12 revision 19d5cc754)-master) date 2018 May 15, Tuesday 00:46:58*
%MOMM*%
%LPD*%
G01*
G04 APERTURE LIST*
%ADD10C,0.100000*%
%ADD11C,0.300000*%
%ADD12R,1.000000X0.300000*%
%ADD13R,0.300000X1.000000*%
%ADD14C,1.300000*%
%ADD15R,1.300000X1.300000*%
%ADD16O,1.506220X3.014980*%
%ADD17R,1.350000X1.350000*%
%ADD18C,1.350000*%
%ADD19C,1.000000*%
%ADD20C,0.800000*%
%ADD21C,1.000000*%
%ADD22C,0.500000*%
%ADD23C,0.254000*%
G04 APERTURE END LIST*
D10*
D11*
X157500000Y-72500000D02*
X166600000Y-72500000D01*
X148400000Y-90050000D02*
X148400000Y-90700000D01*
X148400000Y-90050000D02*
G75*
G03X147750000Y-89400000I-650000J0D01*
G01*
X166600000Y-72500000D02*
G75*
G03X167250000Y-71850000I0J650000D01*
G01*
X175050000Y-53650000D02*
G75*
G03X166600000Y-45200000I-8450000J0D01*
G01*
X178300000Y-53650000D02*
G75*
G03X166600000Y-41950000I-11700000J0D01*
G01*
X181550000Y-53650000D02*
G75*
G03X166600000Y-38700000I-14950000J0D01*
G01*
X175700000Y-73150000D02*
X175700000Y-53650000D01*
X172450000Y-73150000D02*
X172450000Y-53650000D01*
X167900000Y-53650000D02*
G75*
G03X166600000Y-52350000I-1300000J0D01*
G01*
X178950000Y-73150000D02*
X178950000Y-53650000D01*
X179600000Y-73150000D02*
X179600000Y-53650000D01*
X182850000Y-53650000D02*
G75*
G03X166600000Y-37400000I-16250000J0D01*
G01*
X178300000Y-73150000D02*
X178300000Y-53650000D01*
X171150000Y-53650000D02*
G75*
G03X166600000Y-49100000I-4550000J0D01*
G01*
X171150000Y-73150000D02*
X171150000Y-53650000D01*
X172450000Y-53650000D02*
G75*
G03X166600000Y-47800000I-5850000J0D01*
G01*
X175050000Y-73150000D02*
X175050000Y-53650000D01*
X177000000Y-53650000D02*
G75*
G03X166600000Y-43250000I-10400000J0D01*
G01*
X167250000Y-53650000D02*
G75*
G03X166600000Y-53000000I-650000J0D01*
G01*
X167250000Y-71850000D02*
X167250000Y-53650000D01*
X170500000Y-53650000D02*
G75*
G03X166600000Y-49750000I-3900000J0D01*
G01*
X177650000Y-53650000D02*
G75*
G03X166600000Y-42600000I-11050000J0D01*
G01*
X168550000Y-73150000D02*
X168550000Y-53650000D01*
X169200000Y-53650000D02*
G75*
G03X166600000Y-51050000I-2600000J0D01*
G01*
X169850000Y-53650000D02*
G75*
G03X166600000Y-50400000I-3250000J0D01*
G01*
X173100000Y-73150000D02*
X173100000Y-53650000D01*
X177650000Y-73150000D02*
X177650000Y-53650000D01*
X168550000Y-53650000D02*
G75*
G03X166600000Y-51700000I-1950000J0D01*
G01*
X169850000Y-73150000D02*
X169850000Y-53650000D01*
X182850000Y-73150000D02*
X182850000Y-53650000D01*
X171800000Y-73150000D02*
X171800000Y-53650000D01*
X169200000Y-73150000D02*
X169200000Y-53650000D01*
X173750000Y-53650000D02*
G75*
G03X166600000Y-46500000I-7150000J0D01*
G01*
X181550000Y-73150000D02*
X181550000Y-53650000D01*
X174400000Y-73150000D02*
X174400000Y-53650000D01*
X173750000Y-73150000D02*
X173750000Y-53650000D01*
X179600000Y-53650000D02*
G75*
G03X166600000Y-40650000I-13000000J0D01*
G01*
X170500000Y-73150000D02*
X170500000Y-53650000D01*
X180900000Y-53650000D02*
G75*
G03X166600000Y-39350000I-14300000J0D01*
G01*
X176350000Y-53650000D02*
G75*
G03X166600000Y-43900000I-9750000J0D01*
G01*
X180900000Y-73150000D02*
X180900000Y-53650000D01*
X175700000Y-53650000D02*
G75*
G03X166600000Y-44550000I-9100000J0D01*
G01*
X182200000Y-73150000D02*
X182200000Y-53650000D01*
X178950000Y-53650000D02*
G75*
G03X166600000Y-41300000I-12350000J0D01*
G01*
X167900000Y-73150000D02*
X167900000Y-53650000D01*
X176350000Y-73150000D02*
X176350000Y-53650000D01*
X174400000Y-53650000D02*
G75*
G03X166600000Y-45850000I-7800000J0D01*
G01*
X180250000Y-53650000D02*
G75*
G03X166600000Y-40000000I-13650000J0D01*
G01*
X171800000Y-53650000D02*
G75*
G03X166600000Y-48450000I-5200000J0D01*
G01*
X182200000Y-53650000D02*
G75*
G03X166600000Y-38050000I-15600000J0D01*
G01*
X177000000Y-73150000D02*
X177000000Y-53650000D01*
X173100000Y-53650000D02*
G75*
G03X166600000Y-47150000I-6500000J0D01*
G01*
X180250000Y-73150000D02*
X180250000Y-53650000D01*
X167250000Y-81600000D02*
G75*
G03X175700000Y-73150000I0J8450000D01*
G01*
X167250000Y-84850000D02*
G75*
G03X178950000Y-73150000I0J11700000D01*
G01*
X167250000Y-88100000D02*
G75*
G03X182200000Y-73150000I0J14950000D01*
G01*
X147750000Y-82250000D02*
X167250000Y-82250000D01*
X147750000Y-80950000D02*
X167250000Y-80950000D01*
X147750000Y-80300000D02*
X167250000Y-80300000D01*
X167250000Y-86150000D02*
G75*
G03X180250000Y-73150000I0J13000000D01*
G01*
X147750000Y-77050000D02*
X167250000Y-77050000D01*
X167250000Y-87450000D02*
G75*
G03X181550000Y-73150000I0J14300000D01*
G01*
X167250000Y-82900000D02*
G75*
G03X177000000Y-73150000I0J9750000D01*
G01*
X147750000Y-87450000D02*
X167250000Y-87450000D01*
X167250000Y-82250000D02*
G75*
G03X176350000Y-73150000I0J9100000D01*
G01*
X147750000Y-88750000D02*
X167250000Y-88750000D01*
X167250000Y-85500000D02*
G75*
G03X179600000Y-73150000I0J12350000D01*
G01*
X147750000Y-74450000D02*
X167250000Y-74450000D01*
X147750000Y-82900000D02*
X167250000Y-82900000D01*
X167250000Y-80950000D02*
G75*
G03X175050000Y-73150000I0J7800000D01*
G01*
X167250000Y-86800000D02*
G75*
G03X180900000Y-73150000I0J13650000D01*
G01*
X167250000Y-78350000D02*
G75*
G03X172450000Y-73150000I0J5200000D01*
G01*
X167250000Y-88750000D02*
G75*
G03X182850000Y-73150000I0J15600000D01*
G01*
X147750000Y-83550000D02*
X167250000Y-83550000D01*
X167250000Y-79650000D02*
G75*
G03X173750000Y-73150000I0J6500000D01*
G01*
X147750000Y-86800000D02*
X167250000Y-86800000D01*
X167250000Y-75750000D02*
G75*
G03X169850000Y-73150000I0J2600000D01*
G01*
X167250000Y-76400000D02*
G75*
G03X170500000Y-73150000I0J3250000D01*
G01*
X147750000Y-79650000D02*
X167250000Y-79650000D01*
X147750000Y-84200000D02*
X167250000Y-84200000D01*
X167250000Y-75100000D02*
G75*
G03X169200000Y-73150000I0J1950000D01*
G01*
X147750000Y-76400000D02*
X167250000Y-76400000D01*
X147750000Y-78350000D02*
X167250000Y-78350000D01*
X147750000Y-75750000D02*
X167250000Y-75750000D01*
X167250000Y-79000000D02*
G75*
G03X173100000Y-73150000I0J5850000D01*
G01*
X147850000Y-81550000D02*
X167250000Y-81600000D01*
X167250000Y-83550000D02*
G75*
G03X177650000Y-73150000I0J10400000D01*
G01*
X167250000Y-73800000D02*
G75*
G03X167900000Y-73150000I0J650000D01*
G01*
X147750000Y-73800000D02*
X167250000Y-73800000D01*
X167250000Y-77050000D02*
G75*
G03X171150000Y-73150000I0J3900000D01*
G01*
X167250000Y-84200000D02*
G75*
G03X178300000Y-73150000I0J11050000D01*
G01*
X147750000Y-75100000D02*
X167250000Y-75100000D01*
X147750000Y-79000000D02*
X167250000Y-79000000D01*
X167250000Y-74450000D02*
G75*
G03X168550000Y-73150000I0J1300000D01*
G01*
X147750000Y-85500000D02*
X167250000Y-85500000D01*
X147750000Y-86150000D02*
X167250000Y-86150000D01*
X147750000Y-84850000D02*
X167250000Y-84850000D01*
X167250000Y-77700000D02*
G75*
G03X171800000Y-73150000I0J4550000D01*
G01*
X147750000Y-77700000D02*
X167250000Y-77700000D01*
X167250000Y-80300000D02*
G75*
G03X174400000Y-73150000I0J7150000D01*
G01*
X147750000Y-88100000D02*
X167250000Y-88100000D01*
X147750000Y-38050000D02*
G75*
G03X132150000Y-53650000I0J-15600000D01*
G01*
X166600000Y-44550000D02*
X147750000Y-44550000D01*
X147750000Y-43250000D02*
G75*
G03X137350000Y-53650000I0J-10400000D01*
G01*
X166600000Y-49100000D02*
X147750000Y-49100000D01*
X166600000Y-45850000D02*
X147750000Y-45850000D01*
X166600000Y-46500000D02*
X147750000Y-46500000D01*
X147750000Y-51050000D02*
G75*
G03X145150000Y-53650000I0J-2600000D01*
G01*
X166600000Y-48450000D02*
X147750000Y-48450000D01*
X147750000Y-43900000D02*
G75*
G03X138000000Y-53650000I0J-9750000D01*
G01*
X147750000Y-42600000D02*
G75*
G03X136700000Y-53650000I0J-11050000D01*
G01*
X166600000Y-41300000D02*
X147750000Y-41300000D01*
X147750000Y-37400000D02*
G75*
G03X131500000Y-53650000I0J-16250000D01*
G01*
X166600000Y-47150000D02*
X147750000Y-47150000D01*
X166600000Y-37400000D02*
X147750000Y-37400000D01*
X166600000Y-53000000D02*
X147750000Y-53000000D01*
X166600000Y-43900000D02*
X147750000Y-43900000D01*
X147750000Y-40000000D02*
G75*
G03X134100000Y-53650000I0J-13650000D01*
G01*
X166600000Y-40650000D02*
X147750000Y-40650000D01*
X147750000Y-41950000D02*
G75*
G03X136050000Y-53650000I0J-11700000D01*
G01*
X147750000Y-45850000D02*
G75*
G03X139950000Y-53650000I0J-7800000D01*
G01*
X166600000Y-47800000D02*
X147750000Y-47800000D01*
X147750000Y-44550000D02*
G75*
G03X138650000Y-53650000I0J-9100000D01*
G01*
X166600000Y-38050000D02*
X147750000Y-38050000D01*
X147750000Y-48450000D02*
G75*
G03X142550000Y-53650000I0J-5200000D01*
G01*
X147750000Y-47800000D02*
G75*
G03X141900000Y-53650000I0J-5850000D01*
G01*
X166600000Y-42600000D02*
X147750000Y-42600000D01*
X166600000Y-43250000D02*
X147750000Y-43250000D01*
X147750000Y-49100000D02*
G75*
G03X143200000Y-53650000I0J-4550000D01*
G01*
X166600000Y-51700000D02*
X147750000Y-51700000D01*
X147750000Y-53000000D02*
G75*
G03X147100000Y-53650000I0J-650000D01*
G01*
X147750000Y-52350000D02*
G75*
G03X146450000Y-53650000I0J-1300000D01*
G01*
X147750000Y-45200000D02*
G75*
G03X139300000Y-53650000I0J-8450000D01*
G01*
X166600000Y-45200000D02*
X147750000Y-45200000D01*
X147750000Y-50400000D02*
G75*
G03X144500000Y-53650000I0J-3250000D01*
G01*
X147750000Y-51700000D02*
G75*
G03X145800000Y-53650000I0J-1950000D01*
G01*
X147750000Y-47150000D02*
G75*
G03X141250000Y-53650000I0J-6500000D01*
G01*
X166600000Y-51050000D02*
X147750000Y-51050000D01*
X147750000Y-39350000D02*
G75*
G03X133450000Y-53650000I0J-14300000D01*
G01*
X166600000Y-49750000D02*
X147750000Y-49750000D01*
X147750000Y-41300000D02*
G75*
G03X135400000Y-53650000I0J-12350000D01*
G01*
X147750000Y-49750000D02*
G75*
G03X143850000Y-53650000I0J-3900000D01*
G01*
X166600000Y-50400000D02*
X147750000Y-50400000D01*
X166600000Y-39350000D02*
X147750000Y-39350000D01*
X166600000Y-38700000D02*
X147750000Y-38700000D01*
X166600000Y-41950000D02*
X147750000Y-41950000D01*
X147757554Y-38700000D02*
G75*
G03X132807554Y-53650000I0J-14950000D01*
G01*
X166600000Y-40000000D02*
X147750000Y-40000000D01*
X147750000Y-46500000D02*
G75*
G03X140600000Y-53650000I0J-7150000D01*
G01*
X166600000Y-52350000D02*
X147750000Y-52350000D01*
X147750000Y-40650000D02*
G75*
G03X134750000Y-53650000I0J-13000000D01*
G01*
X131500000Y-73150000D02*
G75*
G03X147750000Y-89400000I16250000J0D01*
G01*
X132150000Y-73150000D02*
G75*
G03X147750000Y-88750000I15600000J0D01*
G01*
X132800000Y-73150000D02*
G75*
G03X147750000Y-88100000I14950000J0D01*
G01*
X133450000Y-73150000D02*
G75*
G03X147750000Y-87450000I14300000J0D01*
G01*
X134100000Y-73150000D02*
G75*
G03X147750000Y-86800000I13650000J0D01*
G01*
X134750000Y-73150000D02*
G75*
G03X147750000Y-86150000I13000000J0D01*
G01*
X135400000Y-73150000D02*
G75*
G03X147750000Y-85500000I12350000J0D01*
G01*
X136050000Y-73150000D02*
G75*
G03X147750000Y-84850000I11700000J0D01*
G01*
X136700000Y-73150000D02*
G75*
G03X147750000Y-84200000I11050000J0D01*
G01*
X137350000Y-73150000D02*
G75*
G03X147750000Y-83550000I10400000J0D01*
G01*
X138000000Y-73150000D02*
G75*
G03X147750000Y-82900000I9750000J0D01*
G01*
X138650000Y-73150000D02*
G75*
G03X147750000Y-82250000I9100000J0D01*
G01*
X139300000Y-73150000D02*
G75*
G03X147750000Y-81600000I8450000J0D01*
G01*
X139950000Y-73150000D02*
G75*
G03X147750000Y-80950000I7800000J0D01*
G01*
X140600000Y-73150000D02*
G75*
G03X147750000Y-80300000I7150000J0D01*
G01*
X141250000Y-73150000D02*
G75*
G03X147750000Y-79650000I6500000J0D01*
G01*
X141900000Y-73150000D02*
G75*
G03X147750000Y-79000000I5850000J0D01*
G01*
X142550000Y-73150000D02*
G75*
G03X147750000Y-78350000I5200000J0D01*
G01*
X143200000Y-73150000D02*
G75*
G03X147750000Y-77700000I4550000J0D01*
G01*
X143850000Y-73150000D02*
G75*
G03X147750000Y-77050000I3900000J0D01*
G01*
X144500000Y-73150000D02*
G75*
G03X147750000Y-76400000I3250000J0D01*
G01*
X145150000Y-73150000D02*
G75*
G03X147750000Y-75750000I2600000J0D01*
G01*
X145800000Y-73150000D02*
G75*
G03X147750000Y-75100000I1950000J0D01*
G01*
X146450000Y-73150000D02*
G75*
G03X147750000Y-74450000I1300000J0D01*
G01*
X147100000Y-73150000D02*
G75*
G03X147750000Y-73800000I650000J0D01*
G01*
X147100000Y-53650000D02*
X147100000Y-73150000D01*
X145150000Y-53650000D02*
X145150000Y-73150000D01*
X142550000Y-53650000D02*
X142550000Y-73150000D01*
X146450000Y-53650000D02*
X146450000Y-73150000D01*
X145800000Y-53650000D02*
X145800000Y-73150000D01*
X143850000Y-53650000D02*
X143850000Y-73150000D01*
X143200000Y-53650000D02*
X143200000Y-73150000D01*
X144500000Y-53650000D02*
X144500000Y-73150000D01*
X141900000Y-53650000D02*
X141900000Y-73150000D01*
X137350000Y-53650000D02*
X137350000Y-73150000D01*
X136700000Y-53650000D02*
X136700000Y-73150000D01*
X141250000Y-53650000D02*
X141250000Y-73150000D01*
X140600000Y-53650000D02*
X140600000Y-73150000D01*
X138650000Y-53650000D02*
X138650000Y-73150000D01*
X139300000Y-53650000D02*
X139300000Y-73150000D01*
X139950000Y-53650000D02*
X139950000Y-73150000D01*
X138000000Y-53650000D02*
X138000000Y-73150000D01*
X134750000Y-53650000D02*
X134750000Y-73150000D01*
X133450000Y-53650000D02*
X133450000Y-73150000D01*
X136050000Y-53650000D02*
X136050000Y-73150000D01*
X135400000Y-53650000D02*
X135400000Y-73150000D01*
X134100000Y-53650000D02*
X134100000Y-73150000D01*
X132800000Y-53650000D02*
X132800000Y-73150000D01*
X132150000Y-53650000D02*
X132150000Y-73150000D01*
X131500000Y-53650000D02*
X131500000Y-73150000D01*
D12*
X157500000Y-72500000D03*
D13*
X148400000Y-90700000D03*
D14*
X155000000Y-94000000D03*
D15*
X155000000Y-99000000D03*
D16*
X151150000Y-121500000D03*
X153690000Y-121500000D03*
X156230000Y-121500000D03*
X158770000Y-121500000D03*
X161310000Y-121500000D03*
X163850000Y-121500000D03*
D15*
X160000000Y-99000000D03*
D14*
X160000000Y-94000000D03*
D17*
X150000000Y-91500000D03*
D18*
X150000000Y-93500000D03*
X165050000Y-94000000D03*
D17*
X165050000Y-92000000D03*
D19*
X157000000Y-102500000D03*
X164000000Y-105500000D03*
D20*
X147500000Y-109100000D03*
X164900000Y-106700000D03*
X154500000Y-118800000D03*
X157500000Y-72500000D03*
X158300000Y-116100000D03*
D21*
X164000000Y-105500000D02*
X163500000Y-105000000D01*
D22*
X150000000Y-91500000D02*
X149200000Y-91500000D01*
X149200000Y-91500000D02*
X148400000Y-90700000D01*
D11*
X148400000Y-90700000D02*
X148400000Y-91050000D01*
X148400000Y-91050000D02*
X149350000Y-92000000D01*
D22*
X158300000Y-116100000D02*
X156230000Y-118170000D01*
X156230000Y-118170000D02*
X156230000Y-121500000D01*
D23*
G36*
X169290000Y-125790000D02*
X145710000Y-125790000D01*
X145710000Y-120703646D01*
X149761890Y-120703646D01*
X149761890Y-122296354D01*
X149867554Y-122827561D01*
X150168458Y-123277896D01*
X150618793Y-123578800D01*
X151150000Y-123684464D01*
X151681207Y-123578800D01*
X152131542Y-123277896D01*
X152420000Y-122846188D01*
X152708458Y-123277896D01*
X153158793Y-123578800D01*
X153690000Y-123684464D01*
X154221207Y-123578800D01*
X154671542Y-123277896D01*
X154960000Y-122846188D01*
X155248458Y-123277896D01*
X155698793Y-123578800D01*
X156230000Y-123684464D01*
X156761207Y-123578800D01*
X157211542Y-123277896D01*
X157500000Y-122846188D01*
X157788458Y-123277896D01*
X158238793Y-123578800D01*
X158770000Y-123684464D01*
X159301207Y-123578800D01*
X159751542Y-123277896D01*
X160040000Y-122846188D01*
X160328458Y-123277896D01*
X160778793Y-123578800D01*
X161310000Y-123684464D01*
X161841207Y-123578800D01*
X162291542Y-123277896D01*
X162592446Y-122827561D01*
X162593016Y-122824694D01*
X162616154Y-122902919D01*
X162958260Y-123325724D01*
X163436125Y-123585427D01*
X163508326Y-123599783D01*
X163723000Y-123477162D01*
X163723000Y-121627000D01*
X163977000Y-121627000D01*
X163977000Y-123477162D01*
X164191674Y-123599783D01*
X164263875Y-123585427D01*
X164741740Y-123325724D01*
X165083846Y-122902919D01*
X165238110Y-122381380D01*
X165238110Y-121627000D01*
X163977000Y-121627000D01*
X163723000Y-121627000D01*
X163703000Y-121627000D01*
X163703000Y-121373000D01*
X163723000Y-121373000D01*
X163723000Y-119522838D01*
X163977000Y-119522838D01*
X163977000Y-121373000D01*
X165238110Y-121373000D01*
X165238110Y-120618620D01*
X165083846Y-120097081D01*
X164741740Y-119674276D01*
X164263875Y-119414573D01*
X164191674Y-119400217D01*
X163977000Y-119522838D01*
X163723000Y-119522838D01*
X163508326Y-119400217D01*
X163436125Y-119414573D01*
X162958260Y-119674276D01*
X162616154Y-120097081D01*
X162593016Y-120175306D01*
X162592446Y-120172439D01*
X162291542Y-119722104D01*
X161841207Y-119421200D01*
X161310000Y-119315536D01*
X160778793Y-119421200D01*
X160328458Y-119722104D01*
X160040000Y-120153812D01*
X159751542Y-119722104D01*
X159301207Y-119421200D01*
X158770000Y-119315536D01*
X158238793Y-119421200D01*
X157788458Y-119722104D01*
X157500000Y-120153812D01*
X157211542Y-119722104D01*
X157115000Y-119657597D01*
X157115000Y-118536580D01*
X158524448Y-117127131D01*
X158885515Y-116977942D01*
X159176919Y-116687046D01*
X159334820Y-116306777D01*
X159335179Y-115895029D01*
X159177942Y-115514485D01*
X158887046Y-115223081D01*
X158506777Y-115065180D01*
X158095029Y-115064821D01*
X157714485Y-115222058D01*
X157423081Y-115512954D01*
X157272268Y-115876153D01*
X155604210Y-117544210D01*
X155412367Y-117831325D01*
X155412367Y-117831326D01*
X155344999Y-118170000D01*
X155345000Y-118170005D01*
X155345000Y-119657597D01*
X155248458Y-119722104D01*
X154960000Y-120153812D01*
X154671542Y-119722104D01*
X154221207Y-119421200D01*
X153690000Y-119315536D01*
X153158793Y-119421200D01*
X152708458Y-119722104D01*
X152420000Y-120153812D01*
X152131542Y-119722104D01*
X151681207Y-119421200D01*
X151150000Y-119315536D01*
X150618793Y-119421200D01*
X150168458Y-119722104D01*
X149867554Y-120172439D01*
X149761890Y-120703646D01*
X145710000Y-120703646D01*
X145710000Y-98350000D01*
X153702560Y-98350000D01*
X153702560Y-99650000D01*
X153751843Y-99897765D01*
X153892191Y-100107809D01*
X154102235Y-100248157D01*
X154350000Y-100297440D01*
X155650000Y-100297440D01*
X155897765Y-100248157D01*
X156107809Y-100107809D01*
X156248157Y-99897765D01*
X156297440Y-99650000D01*
X156297440Y-98350000D01*
X158702560Y-98350000D01*
X158702560Y-99650000D01*
X158751843Y-99897765D01*
X158892191Y-100107809D01*
X159102235Y-100248157D01*
X159350000Y-100297440D01*
X160650000Y-100297440D01*
X160897765Y-100248157D01*
X161107809Y-100107809D01*
X161248157Y-99897765D01*
X161297440Y-99650000D01*
X161297440Y-98350000D01*
X161248157Y-98102235D01*
X161107809Y-97892191D01*
X160897765Y-97751843D01*
X160650000Y-97702560D01*
X159350000Y-97702560D01*
X159102235Y-97751843D01*
X158892191Y-97892191D01*
X158751843Y-98102235D01*
X158702560Y-98350000D01*
X156297440Y-98350000D01*
X156248157Y-98102235D01*
X156107809Y-97892191D01*
X155897765Y-97751843D01*
X155650000Y-97702560D01*
X154350000Y-97702560D01*
X154102235Y-97751843D01*
X153892191Y-97892191D01*
X153751843Y-98102235D01*
X153702560Y-98350000D01*
X145710000Y-98350000D01*
X145710000Y-96627000D01*
X169290000Y-96627000D01*
X169290000Y-125790000D01*
X169290000Y-125790000D01*
G37*
X169290000Y-125790000D02*
X145710000Y-125790000D01*
X145710000Y-120703646D01*
X149761890Y-120703646D01*
X149761890Y-122296354D01*
X149867554Y-122827561D01*
X150168458Y-123277896D01*
X150618793Y-123578800D01*
X151150000Y-123684464D01*
X151681207Y-123578800D01*
X152131542Y-123277896D01*
X152420000Y-122846188D01*
X152708458Y-123277896D01*
X153158793Y-123578800D01*
X153690000Y-123684464D01*
X154221207Y-123578800D01*
X154671542Y-123277896D01*
X154960000Y-122846188D01*
X155248458Y-123277896D01*
X155698793Y-123578800D01*
X156230000Y-123684464D01*
X156761207Y-123578800D01*
X157211542Y-123277896D01*
X157500000Y-122846188D01*
X157788458Y-123277896D01*
X158238793Y-123578800D01*
X158770000Y-123684464D01*
X159301207Y-123578800D01*
X159751542Y-123277896D01*
X160040000Y-122846188D01*
X160328458Y-123277896D01*
X160778793Y-123578800D01*
X161310000Y-123684464D01*
X161841207Y-123578800D01*
X162291542Y-123277896D01*
X162592446Y-122827561D01*
X162593016Y-122824694D01*
X162616154Y-122902919D01*
X162958260Y-123325724D01*
X163436125Y-123585427D01*
X163508326Y-123599783D01*
X163723000Y-123477162D01*
X163723000Y-121627000D01*
X163977000Y-121627000D01*
X163977000Y-123477162D01*
X164191674Y-123599783D01*
X164263875Y-123585427D01*
X164741740Y-123325724D01*
X165083846Y-122902919D01*
X165238110Y-122381380D01*
X165238110Y-121627000D01*
X163977000Y-121627000D01*
X163723000Y-121627000D01*
X163703000Y-121627000D01*
X163703000Y-121373000D01*
X163723000Y-121373000D01*
X163723000Y-119522838D01*
X163977000Y-119522838D01*
X163977000Y-121373000D01*
X165238110Y-121373000D01*
X165238110Y-120618620D01*
X165083846Y-120097081D01*
X164741740Y-119674276D01*
X164263875Y-119414573D01*
X164191674Y-119400217D01*
X163977000Y-119522838D01*
X163723000Y-119522838D01*
X163508326Y-119400217D01*
X163436125Y-119414573D01*
X162958260Y-119674276D01*
X162616154Y-120097081D01*
X162593016Y-120175306D01*
X162592446Y-120172439D01*
X162291542Y-119722104D01*
X161841207Y-119421200D01*
X161310000Y-119315536D01*
X160778793Y-119421200D01*
X160328458Y-119722104D01*
X160040000Y-120153812D01*
X159751542Y-119722104D01*
X159301207Y-119421200D01*
X158770000Y-119315536D01*
X158238793Y-119421200D01*
X157788458Y-119722104D01*
X157500000Y-120153812D01*
X157211542Y-119722104D01*
X157115000Y-119657597D01*
X157115000Y-118536580D01*
X158524448Y-117127131D01*
X158885515Y-116977942D01*
X159176919Y-116687046D01*
X159334820Y-116306777D01*
X159335179Y-115895029D01*
X159177942Y-115514485D01*
X158887046Y-115223081D01*
X158506777Y-115065180D01*
X158095029Y-115064821D01*
X157714485Y-115222058D01*
X157423081Y-115512954D01*
X157272268Y-115876153D01*
X155604210Y-117544210D01*
X155412367Y-117831325D01*
X155412367Y-117831326D01*
X155344999Y-118170000D01*
X155345000Y-118170005D01*
X155345000Y-119657597D01*
X155248458Y-119722104D01*
X154960000Y-120153812D01*
X154671542Y-119722104D01*
X154221207Y-119421200D01*
X153690000Y-119315536D01*
X153158793Y-119421200D01*
X152708458Y-119722104D01*
X152420000Y-120153812D01*
X152131542Y-119722104D01*
X151681207Y-119421200D01*
X151150000Y-119315536D01*
X150618793Y-119421200D01*
X150168458Y-119722104D01*
X149867554Y-120172439D01*
X149761890Y-120703646D01*
X145710000Y-120703646D01*
X145710000Y-98350000D01*
X153702560Y-98350000D01*
X153702560Y-99650000D01*
X153751843Y-99897765D01*
X153892191Y-100107809D01*
X154102235Y-100248157D01*
X154350000Y-100297440D01*
X155650000Y-100297440D01*
X155897765Y-100248157D01*
X156107809Y-100107809D01*
X156248157Y-99897765D01*
X156297440Y-99650000D01*
X156297440Y-98350000D01*
X158702560Y-98350000D01*
X158702560Y-99650000D01*
X158751843Y-99897765D01*
X158892191Y-100107809D01*
X159102235Y-100248157D01*
X159350000Y-100297440D01*
X160650000Y-100297440D01*
X160897765Y-100248157D01*
X161107809Y-100107809D01*
X161248157Y-99897765D01*
X161297440Y-99650000D01*
X161297440Y-98350000D01*
X161248157Y-98102235D01*
X161107809Y-97892191D01*
X160897765Y-97751843D01*
X160650000Y-97702560D01*
X159350000Y-97702560D01*
X159102235Y-97751843D01*
X158892191Y-97892191D01*
X158751843Y-98102235D01*
X158702560Y-98350000D01*
X156297440Y-98350000D01*
X156248157Y-98102235D01*
X156107809Y-97892191D01*
X155897765Y-97751843D01*
X155650000Y-97702560D01*
X154350000Y-97702560D01*
X154102235Y-97751843D01*
X153892191Y-97892191D01*
X153751843Y-98102235D01*
X153702560Y-98350000D01*
X145710000Y-98350000D01*
X145710000Y-96627000D01*
X169290000Y-96627000D01*
X169290000Y-125790000D01*
M02*
