M48
METRIC,TZ
T1C0.400
T2C0.600
T3C0.800
T4C0.998
T5C3.200
%
G90
G05
T1
X147500Y-109100
X154500Y-118800
X157500Y-72500
X158300Y-116100
X164900Y-106700
T2
X157000Y-102500
X164000Y-105500
T3
X160000Y-94000
X160000Y-99000
X155000Y-94000
X155000Y-99000
X150000Y-91500
X150000Y-93500
X165050Y-92000
X165050Y-94000
T4
X151150Y-121500
X153690Y-121500
X156230Y-121500
X158770Y-121500
X161310Y-121500
X163850Y-121500
T5
X164000Y-31000
X151000Y-31000
T0
M30
