G04 #@! TF.GenerationSoftware,KiCad,Pcbnew,(2017-06-12 revision 19d5cc754)-master*
G04 #@! TF.CreationDate,2018-05-15T00:46:58+02:00*
G04 #@! TF.ProjectId,RFID_BOARD_EM4095,524649445F424F4152445F454D343039,rev?*
G04 #@! TF.FileFunction,Soldermask,Top*
G04 #@! TF.FilePolarity,Negative*
%FSLAX46Y46*%
G04 Gerber Fmt 4.6, Leading zero omitted, Abs format (unit mm)*
G04 Created by KiCad (PCBNEW (2017-06-12 revision 19d5cc754)-master) date 2018 May 15, Tuesday 00:46:58*
%MOMM*%
%LPD*%
G01*
G04 APERTURE LIST*
%ADD10C,0.100000*%
%ADD11R,1.150000X1.200000*%
%ADD12C,3.600000*%
%ADD13R,0.700000X1.400000*%
%ADD14R,1.400000X0.700000*%
%ADD15C,1.700000*%
%ADD16R,1.700000X1.700000*%
%ADD17O,1.906220X3.414980*%
%ADD18R,1.750000X1.750000*%
%ADD19C,1.750000*%
%ADD20R,1.200000X1.150000*%
%ADD21R,1.000000X1.900000*%
G04 APERTURE END LIST*
D10*
D11*
X147400000Y-97350000D03*
X147400000Y-95850000D03*
D12*
X164000000Y-31000000D03*
X151000000Y-31000000D03*
D13*
X166000000Y-90700000D03*
D14*
X156900000Y-72500000D03*
D11*
X147500000Y-105750000D03*
X147500000Y-107250000D03*
X165000000Y-108250000D03*
X165000000Y-109750000D03*
X162500000Y-115750000D03*
X162500000Y-117250000D03*
X155000000Y-117250000D03*
X155000000Y-115750000D03*
D15*
X155000000Y-94000000D03*
D16*
X155000000Y-99000000D03*
D17*
X151150000Y-121500000D03*
X153690000Y-121500000D03*
X156230000Y-121500000D03*
X158770000Y-121500000D03*
X161310000Y-121500000D03*
X163850000Y-121500000D03*
D11*
X150000000Y-95750000D03*
X150000000Y-97250000D03*
D16*
X160000000Y-99000000D03*
D15*
X160000000Y-94000000D03*
D18*
X150000000Y-91500000D03*
D19*
X150000000Y-93500000D03*
X165050000Y-94000000D03*
D18*
X165050000Y-92000000D03*
D20*
X153250000Y-116500000D03*
X151750000Y-116500000D03*
D11*
X150000000Y-105750000D03*
X150000000Y-107250000D03*
X150000000Y-102250000D03*
X150000000Y-100750000D03*
X147500000Y-102250000D03*
X147500000Y-100750000D03*
D21*
X161945000Y-105700000D03*
X160675000Y-105700000D03*
X159405000Y-105700000D03*
X158135000Y-105700000D03*
X156865000Y-105700000D03*
X155595000Y-105700000D03*
X154325000Y-105700000D03*
X153055000Y-105700000D03*
X153055000Y-111100000D03*
X154325000Y-111100000D03*
X155595000Y-111100000D03*
X156865000Y-111100000D03*
X158135000Y-111100000D03*
X159405000Y-111100000D03*
X160675000Y-111100000D03*
X161945000Y-111100000D03*
M02*
