G04 #@! TF.GenerationSoftware,KiCad,Pcbnew,(2017-06-12 revision 19d5cc754)-master*
G04 #@! TF.CreationDate,2018-05-15T00:46:58+02:00*
G04 #@! TF.ProjectId,RFID_BOARD_EM4095,524649445F424F4152445F454D343039,rev?*
G04 #@! TF.FileFunction,Copper,L1,Top,Signal*
G04 #@! TF.FilePolarity,Positive*
%FSLAX46Y46*%
G04 Gerber Fmt 4.6, Leading zero omitted, Abs format (unit mm)*
G04 Created by KiCad (PCBNEW (2017-06-12 revision 19d5cc754)-master) date 2018 May 15, Tuesday 00:46:58*
%MOMM*%
%LPD*%
G01*
G04 APERTURE LIST*
%ADD10C,0.100000*%
%ADD11C,0.300000*%
%ADD12R,0.750000X0.800000*%
%ADD13R,0.300000X1.000000*%
%ADD14R,1.000000X0.300000*%
%ADD15C,1.300000*%
%ADD16R,1.300000X1.300000*%
%ADD17O,1.506220X3.014980*%
%ADD18R,1.350000X1.350000*%
%ADD19C,1.350000*%
%ADD20R,0.800000X0.750000*%
%ADD21R,0.600000X1.500000*%
%ADD22C,1.000000*%
%ADD23C,0.800000*%
%ADD24C,1.000000*%
%ADD25C,0.500000*%
%ADD26C,0.250000*%
%ADD27C,0.600000*%
G04 APERTURE END LIST*
D10*
D11*
X182900000Y-53650000D02*
X182900000Y-73150000D01*
X182250000Y-53650000D02*
X182250000Y-73150000D01*
X181600000Y-53650000D02*
X181600000Y-73150000D01*
X180300000Y-53650000D02*
X180300000Y-73150000D01*
X179000000Y-53650000D02*
X179000000Y-73150000D01*
X178350000Y-53650000D02*
X178350000Y-73150000D01*
X180950000Y-53650000D02*
X180950000Y-73150000D01*
X179650000Y-53650000D02*
X179650000Y-73150000D01*
X176400000Y-53650000D02*
X176400000Y-73150000D01*
X174450000Y-53650000D02*
X174450000Y-73150000D01*
X175100000Y-53650000D02*
X175100000Y-73150000D01*
X175750000Y-53650000D02*
X175750000Y-73150000D01*
X173800000Y-53650000D02*
X173800000Y-73150000D01*
X173150000Y-53650000D02*
X173150000Y-73150000D01*
X177700000Y-53650000D02*
X177700000Y-73150000D01*
X177050000Y-53650000D02*
X177050000Y-73150000D01*
X172500000Y-53650000D02*
X172500000Y-73150000D01*
X169900000Y-53650000D02*
X169900000Y-73150000D01*
X171200000Y-53650000D02*
X171200000Y-73150000D01*
X170550000Y-53650000D02*
X170550000Y-73150000D01*
X168600000Y-53650000D02*
X168600000Y-73150000D01*
X167950000Y-53650000D02*
X167950000Y-73150000D01*
X171850000Y-53650000D02*
X171850000Y-73150000D01*
X169250000Y-53650000D02*
X169250000Y-73150000D01*
X167300000Y-53650000D02*
X167300000Y-73150000D01*
X167300000Y-73150000D02*
G75*
G02X166650000Y-73800000I-650000J0D01*
G01*
X167950000Y-73150000D02*
G75*
G02X166650000Y-74450000I-1300000J0D01*
G01*
X168600000Y-73150000D02*
G75*
G02X166650000Y-75100000I-1950000J0D01*
G01*
X169250000Y-73150000D02*
G75*
G02X166650000Y-75750000I-2600000J0D01*
G01*
X169900000Y-73150000D02*
G75*
G02X166650000Y-76400000I-3250000J0D01*
G01*
X170550000Y-73150000D02*
G75*
G02X166650000Y-77050000I-3900000J0D01*
G01*
X171200000Y-73150000D02*
G75*
G02X166650000Y-77700000I-4550000J0D01*
G01*
X171850000Y-73150000D02*
G75*
G02X166650000Y-78350000I-5200000J0D01*
G01*
X172500000Y-73150000D02*
G75*
G02X166650000Y-79000000I-5850000J0D01*
G01*
X173150000Y-73150000D02*
G75*
G02X166650000Y-79650000I-6500000J0D01*
G01*
X173800000Y-73150000D02*
G75*
G02X166650000Y-80300000I-7150000J0D01*
G01*
X174450000Y-73150000D02*
G75*
G02X166650000Y-80950000I-7800000J0D01*
G01*
X175100000Y-73150000D02*
G75*
G02X166650000Y-81600000I-8450000J0D01*
G01*
X175750000Y-73150000D02*
G75*
G02X166650000Y-82250000I-9100000J0D01*
G01*
X176400000Y-73150000D02*
G75*
G02X166650000Y-82900000I-9750000J0D01*
G01*
X177050000Y-73150000D02*
G75*
G02X166650000Y-83550000I-10400000J0D01*
G01*
X177700000Y-73150000D02*
G75*
G02X166650000Y-84200000I-11050000J0D01*
G01*
X178350000Y-73150000D02*
G75*
G02X166650000Y-84850000I-11700000J0D01*
G01*
X179000000Y-73150000D02*
G75*
G02X166650000Y-85500000I-12350000J0D01*
G01*
X179650000Y-73150000D02*
G75*
G02X166650000Y-86150000I-13000000J0D01*
G01*
X180300000Y-73150000D02*
G75*
G02X166650000Y-86800000I-13650000J0D01*
G01*
X180950000Y-73150000D02*
G75*
G02X166650000Y-87450000I-14300000J0D01*
G01*
X181600000Y-73150000D02*
G75*
G02X166650000Y-88100000I-14950000J0D01*
G01*
X182250000Y-73150000D02*
G75*
G02X166650000Y-88750000I-15600000J0D01*
G01*
X182900000Y-73150000D02*
G75*
G02X166650000Y-89400000I-16250000J0D01*
G01*
X166650000Y-40650000D02*
G75*
G02X179650000Y-53650000I0J-13000000D01*
G01*
X147800000Y-52350000D02*
X166650000Y-52350000D01*
X166650000Y-46500000D02*
G75*
G02X173800000Y-53650000I0J-7150000D01*
G01*
X147800000Y-40000000D02*
X166650000Y-40000000D01*
X166642446Y-38700000D02*
G75*
G02X181592446Y-53650000I0J-14950000D01*
G01*
X147800000Y-41950000D02*
X166650000Y-41950000D01*
X147800000Y-38700000D02*
X166650000Y-38700000D01*
X147800000Y-39350000D02*
X166650000Y-39350000D01*
X147800000Y-50400000D02*
X166650000Y-50400000D01*
X166650000Y-49750000D02*
G75*
G02X170550000Y-53650000I0J-3900000D01*
G01*
X166650000Y-41300000D02*
G75*
G02X179000000Y-53650000I0J-12350000D01*
G01*
X147800000Y-49750000D02*
X166650000Y-49750000D01*
X166650000Y-39350000D02*
G75*
G02X180950000Y-53650000I0J-14300000D01*
G01*
X147800000Y-51050000D02*
X166650000Y-51050000D01*
X166650000Y-47150000D02*
G75*
G02X173150000Y-53650000I0J-6500000D01*
G01*
X166650000Y-51700000D02*
G75*
G02X168600000Y-53650000I0J-1950000D01*
G01*
X166650000Y-50400000D02*
G75*
G02X169900000Y-53650000I0J-3250000D01*
G01*
X147800000Y-45200000D02*
X166650000Y-45200000D01*
X166650000Y-45200000D02*
G75*
G02X175100000Y-53650000I0J-8450000D01*
G01*
X166650000Y-52350000D02*
G75*
G02X167950000Y-53650000I0J-1300000D01*
G01*
X166650000Y-53000000D02*
G75*
G02X167300000Y-53650000I0J-650000D01*
G01*
X147800000Y-51700000D02*
X166650000Y-51700000D01*
X166650000Y-49100000D02*
G75*
G02X171200000Y-53650000I0J-4550000D01*
G01*
X147800000Y-43250000D02*
X166650000Y-43250000D01*
X147800000Y-42600000D02*
X166650000Y-42600000D01*
X166650000Y-47800000D02*
G75*
G02X172500000Y-53650000I0J-5850000D01*
G01*
X166650000Y-48450000D02*
G75*
G02X171850000Y-53650000I0J-5200000D01*
G01*
X147800000Y-38050000D02*
X166650000Y-38050000D01*
X166650000Y-44550000D02*
G75*
G02X175750000Y-53650000I0J-9100000D01*
G01*
X147800000Y-47800000D02*
X166650000Y-47800000D01*
X166650000Y-45850000D02*
G75*
G02X174450000Y-53650000I0J-7800000D01*
G01*
X166650000Y-41950000D02*
G75*
G02X178350000Y-53650000I0J-11700000D01*
G01*
X147800000Y-40650000D02*
X166650000Y-40650000D01*
X166650000Y-40000000D02*
G75*
G02X180300000Y-53650000I0J-13650000D01*
G01*
X147800000Y-43900000D02*
X166650000Y-43900000D01*
X147800000Y-53000000D02*
X166650000Y-53000000D01*
X147800000Y-37400000D02*
X166650000Y-37400000D01*
X147800000Y-47150000D02*
X166650000Y-47150000D01*
X166650000Y-37400000D02*
G75*
G02X182900000Y-53650000I0J-16250000D01*
G01*
X147800000Y-41300000D02*
X166650000Y-41300000D01*
X166650000Y-42600000D02*
G75*
G02X177700000Y-53650000I0J-11050000D01*
G01*
X166650000Y-43900000D02*
G75*
G02X176400000Y-53650000I0J-9750000D01*
G01*
X147800000Y-48450000D02*
X166650000Y-48450000D01*
X166650000Y-51050000D02*
G75*
G02X169250000Y-53650000I0J-2600000D01*
G01*
X147800000Y-46500000D02*
X166650000Y-46500000D01*
X147800000Y-45850000D02*
X166650000Y-45850000D01*
X147800000Y-49100000D02*
X166650000Y-49100000D01*
X166650000Y-43250000D02*
G75*
G02X177050000Y-53650000I0J-10400000D01*
G01*
X147800000Y-44550000D02*
X166650000Y-44550000D01*
X166650000Y-38050000D02*
G75*
G02X182250000Y-53650000I0J-15600000D01*
G01*
X166650000Y-88100000D02*
X147150000Y-88100000D01*
X147150000Y-80300000D02*
G75*
G02X140000000Y-73150000I0J7150000D01*
G01*
X166650000Y-77700000D02*
X147150000Y-77700000D01*
X147150000Y-77700000D02*
G75*
G02X142600000Y-73150000I0J4550000D01*
G01*
X166650000Y-84850000D02*
X147150000Y-84850000D01*
X166650000Y-86150000D02*
X147150000Y-86150000D01*
X166650000Y-85500000D02*
X147150000Y-85500000D01*
X147150000Y-74450000D02*
G75*
G02X145850000Y-73150000I0J1300000D01*
G01*
X166650000Y-79000000D02*
X147150000Y-79000000D01*
X166650000Y-75100000D02*
X147150000Y-75100000D01*
X147150000Y-84200000D02*
G75*
G02X136100000Y-73150000I0J11050000D01*
G01*
X147150000Y-77050000D02*
G75*
G02X143250000Y-73150000I0J3900000D01*
G01*
X166650000Y-73800000D02*
X147150000Y-73800000D01*
X147150000Y-73800000D02*
G75*
G02X146500000Y-73150000I0J650000D01*
G01*
X147150000Y-83550000D02*
G75*
G02X136750000Y-73150000I0J10400000D01*
G01*
X166550000Y-81550000D02*
X147150000Y-81600000D01*
X147150000Y-79000000D02*
G75*
G02X141300000Y-73150000I0J5850000D01*
G01*
X166650000Y-75750000D02*
X147150000Y-75750000D01*
X166650000Y-78350000D02*
X147150000Y-78350000D01*
X166650000Y-76400000D02*
X147150000Y-76400000D01*
X147150000Y-75100000D02*
G75*
G02X145200000Y-73150000I0J1950000D01*
G01*
X166650000Y-84200000D02*
X147150000Y-84200000D01*
X166650000Y-79650000D02*
X147150000Y-79650000D01*
X147150000Y-76400000D02*
G75*
G02X143900000Y-73150000I0J3250000D01*
G01*
X147150000Y-75750000D02*
G75*
G02X144550000Y-73150000I0J2600000D01*
G01*
X166650000Y-86800000D02*
X147150000Y-86800000D01*
X147150000Y-79650000D02*
G75*
G02X140650000Y-73150000I0J6500000D01*
G01*
X166650000Y-83550000D02*
X147150000Y-83550000D01*
X147150000Y-88750000D02*
G75*
G02X131550000Y-73150000I0J15600000D01*
G01*
X147150000Y-78350000D02*
G75*
G02X141950000Y-73150000I0J5200000D01*
G01*
X147150000Y-86800000D02*
G75*
G02X133500000Y-73150000I0J13650000D01*
G01*
X147150000Y-80950000D02*
G75*
G02X139350000Y-73150000I0J7800000D01*
G01*
X166650000Y-82900000D02*
X147150000Y-82900000D01*
X166650000Y-74450000D02*
X147150000Y-74450000D01*
X147150000Y-85500000D02*
G75*
G02X134800000Y-73150000I0J12350000D01*
G01*
X166650000Y-88750000D02*
X147150000Y-88750000D01*
X147150000Y-82250000D02*
G75*
G02X138050000Y-73150000I0J9100000D01*
G01*
X166650000Y-87450000D02*
X147150000Y-87450000D01*
X147150000Y-82900000D02*
G75*
G02X137400000Y-73150000I0J9750000D01*
G01*
X147150000Y-87450000D02*
G75*
G02X132850000Y-73150000I0J14300000D01*
G01*
X166650000Y-77050000D02*
X147150000Y-77050000D01*
X147150000Y-86150000D02*
G75*
G02X134150000Y-73150000I0J13000000D01*
G01*
X166650000Y-80300000D02*
X147150000Y-80300000D01*
X166650000Y-80950000D02*
X147150000Y-80950000D01*
X166650000Y-82250000D02*
X147150000Y-82250000D01*
X147150000Y-88100000D02*
G75*
G02X132200000Y-73150000I0J14950000D01*
G01*
X147150000Y-84850000D02*
G75*
G02X135450000Y-73150000I0J11700000D01*
G01*
X147150000Y-81600000D02*
G75*
G02X138700000Y-73150000I0J8450000D01*
G01*
X134150000Y-73150000D02*
X134150000Y-53650000D01*
X141300000Y-53650000D02*
G75*
G02X147800000Y-47150000I6500000J0D01*
G01*
X137400000Y-73150000D02*
X137400000Y-53650000D01*
X132200000Y-53650000D02*
G75*
G02X147800000Y-38050000I15600000J0D01*
G01*
X142600000Y-53650000D02*
G75*
G02X147800000Y-48450000I5200000J0D01*
G01*
X134150000Y-53650000D02*
G75*
G02X147800000Y-40000000I13650000J0D01*
G01*
X140000000Y-53650000D02*
G75*
G02X147800000Y-45850000I7800000J0D01*
G01*
X138050000Y-73150000D02*
X138050000Y-53650000D01*
X146500000Y-73150000D02*
X146500000Y-53650000D01*
X135450000Y-53650000D02*
G75*
G02X147800000Y-41300000I12350000J0D01*
G01*
X132200000Y-73150000D02*
X132200000Y-53650000D01*
X138700000Y-53650000D02*
G75*
G02X147800000Y-44550000I9100000J0D01*
G01*
X133500000Y-73150000D02*
X133500000Y-53650000D01*
X138050000Y-53650000D02*
G75*
G02X147800000Y-43900000I9750000J0D01*
G01*
X133500000Y-53650000D02*
G75*
G02X147800000Y-39350000I14300000J0D01*
G01*
X143900000Y-73150000D02*
X143900000Y-53650000D01*
X134800000Y-53650000D02*
G75*
G02X147800000Y-40650000I13000000J0D01*
G01*
X140650000Y-73150000D02*
X140650000Y-53650000D01*
X140000000Y-73150000D02*
X140000000Y-53650000D01*
X132850000Y-73150000D02*
X132850000Y-53650000D01*
X140650000Y-53650000D02*
G75*
G02X147800000Y-46500000I7150000J0D01*
G01*
X145200000Y-73150000D02*
X145200000Y-53650000D01*
X142600000Y-73150000D02*
X142600000Y-53650000D01*
X131550000Y-73150000D02*
X131550000Y-53650000D01*
X144550000Y-73150000D02*
X144550000Y-53650000D01*
X145850000Y-53650000D02*
G75*
G02X147800000Y-51700000I1950000J0D01*
G01*
X136750000Y-73150000D02*
X136750000Y-53650000D01*
X141300000Y-73150000D02*
X141300000Y-53650000D01*
X144550000Y-53650000D02*
G75*
G02X147800000Y-50400000I3250000J0D01*
G01*
X145200000Y-53650000D02*
G75*
G02X147800000Y-51050000I2600000J0D01*
G01*
X145850000Y-73150000D02*
X145850000Y-53650000D01*
X136750000Y-53650000D02*
G75*
G02X147800000Y-42600000I11050000J0D01*
G01*
X143900000Y-53650000D02*
G75*
G02X147800000Y-49750000I3900000J0D01*
G01*
X147150000Y-71850000D02*
X147150000Y-53650000D01*
X147150000Y-53650000D02*
G75*
G02X147800000Y-53000000I650000J0D01*
G01*
X137400000Y-53650000D02*
G75*
G02X147800000Y-43250000I10400000J0D01*
G01*
X139350000Y-73150000D02*
X139350000Y-53650000D01*
X141950000Y-53650000D02*
G75*
G02X147800000Y-47800000I5850000J0D01*
G01*
X143250000Y-73150000D02*
X143250000Y-53650000D01*
X143250000Y-53650000D02*
G75*
G02X147800000Y-49100000I4550000J0D01*
G01*
X136100000Y-73150000D02*
X136100000Y-53650000D01*
X131550000Y-53650000D02*
G75*
G02X147800000Y-37400000I16250000J0D01*
G01*
X134800000Y-73150000D02*
X134800000Y-53650000D01*
X135450000Y-73150000D02*
X135450000Y-53650000D01*
X146500000Y-53650000D02*
G75*
G02X147800000Y-52350000I1300000J0D01*
G01*
X141950000Y-73150000D02*
X141950000Y-53650000D01*
X138700000Y-73150000D02*
X138700000Y-53650000D01*
X132850000Y-53650000D02*
G75*
G02X147800000Y-38700000I14950000J0D01*
G01*
X136100000Y-53650000D02*
G75*
G02X147800000Y-41950000I11700000J0D01*
G01*
X139350000Y-53650000D02*
G75*
G02X147800000Y-45200000I8450000J0D01*
G01*
X147800000Y-72500000D02*
G75*
G02X147150000Y-71850000I0J650000D01*
G01*
X166000000Y-90050000D02*
G75*
G02X166650000Y-89400000I650000J0D01*
G01*
X166000000Y-90050000D02*
X166000000Y-90700000D01*
X156900000Y-72500000D02*
X147800000Y-72500000D01*
D12*
X147400000Y-97350000D03*
X147400000Y-95850000D03*
D13*
X166000000Y-90700000D03*
D14*
X156900000Y-72500000D03*
D12*
X147500000Y-105750000D03*
X147500000Y-107250000D03*
X165000000Y-108250000D03*
X165000000Y-109750000D03*
X162500000Y-115750000D03*
X162500000Y-117250000D03*
X155000000Y-117250000D03*
X155000000Y-115750000D03*
D15*
X155000000Y-94000000D03*
D16*
X155000000Y-99000000D03*
D17*
X151150000Y-121500000D03*
X153690000Y-121500000D03*
X156230000Y-121500000D03*
X158770000Y-121500000D03*
X161310000Y-121500000D03*
X163850000Y-121500000D03*
D12*
X150000000Y-95750000D03*
X150000000Y-97250000D03*
D16*
X160000000Y-99000000D03*
D15*
X160000000Y-94000000D03*
D18*
X150000000Y-91500000D03*
D19*
X150000000Y-93500000D03*
X165050000Y-94000000D03*
D18*
X165050000Y-92000000D03*
D20*
X153250000Y-116500000D03*
X151750000Y-116500000D03*
D12*
X150000000Y-105750000D03*
X150000000Y-107250000D03*
X150000000Y-102250000D03*
X150000000Y-100750000D03*
X147500000Y-102250000D03*
X147500000Y-100750000D03*
D21*
X161945000Y-105700000D03*
X160675000Y-105700000D03*
X159405000Y-105700000D03*
X158135000Y-105700000D03*
X156865000Y-105700000D03*
X155595000Y-105700000D03*
X154325000Y-105700000D03*
X153055000Y-105700000D03*
X153055000Y-111100000D03*
X154325000Y-111100000D03*
X155595000Y-111100000D03*
X156865000Y-111100000D03*
X158135000Y-111100000D03*
X159405000Y-111100000D03*
X160675000Y-111100000D03*
X161945000Y-111100000D03*
D22*
X157000000Y-102500000D03*
X164000000Y-105500000D03*
D23*
X147500000Y-109100000D03*
X164900000Y-106700000D03*
X154500000Y-118800000D03*
X157500000Y-72500000D03*
X158300000Y-116100000D03*
D24*
X156865000Y-103135000D02*
X157000000Y-103000000D01*
X157000000Y-103000000D02*
X157000000Y-102500000D01*
X156865000Y-105700000D02*
X156865000Y-103135000D01*
X161945000Y-105700000D02*
X163800000Y-105700000D01*
X163800000Y-105700000D02*
X164000000Y-105500000D01*
D25*
X147500000Y-107250000D02*
X147500000Y-109100000D01*
D26*
X165000000Y-108250000D02*
X165000000Y-106800000D01*
X165000000Y-106800000D02*
X164900000Y-106700000D01*
X156865000Y-103335000D02*
X156900000Y-103300000D01*
D25*
X155000000Y-117250000D02*
X155000000Y-118300000D01*
X155000000Y-118300000D02*
X154500000Y-118800000D01*
X163850000Y-121500000D02*
X162500000Y-120150000D01*
X162500000Y-120150000D02*
X162500000Y-117250000D01*
X147500000Y-107250000D02*
X150000000Y-107250000D01*
D24*
X152800000Y-108100000D02*
X154100000Y-108100000D01*
X154100000Y-108100000D02*
X158200000Y-108100000D01*
D25*
X154325000Y-105700000D02*
X154325000Y-107875000D01*
X154325000Y-107875000D02*
X154100000Y-108100000D01*
X158135000Y-105700000D02*
X158135000Y-106150000D01*
X158135000Y-106150000D02*
X158200000Y-106215000D01*
X158200000Y-106215000D02*
X158200000Y-108100000D01*
D24*
X150100000Y-110800000D02*
X152800000Y-108100000D01*
X150100000Y-119695620D02*
X150100000Y-110800000D01*
X151150000Y-121500000D02*
X151150000Y-120745620D01*
X151150000Y-120745620D02*
X150100000Y-119695620D01*
D26*
X156900000Y-72500000D02*
X157500000Y-72500000D01*
D25*
X153055000Y-111100000D02*
X152255000Y-111100000D01*
X152255000Y-111100000D02*
X151750000Y-111605000D01*
X151750000Y-111605000D02*
X151750000Y-115625000D01*
X151750000Y-115625000D02*
X151750000Y-116500000D01*
X165050000Y-92000000D02*
X165050000Y-91650000D01*
X165050000Y-91650000D02*
X166000000Y-90700000D01*
X153250000Y-116500000D02*
X153250000Y-115625000D01*
X153250000Y-115625000D02*
X154325000Y-114550000D01*
X154325000Y-114550000D02*
X154325000Y-112350000D01*
X154325000Y-112350000D02*
X154325000Y-111100000D01*
X150000000Y-105750000D02*
X153005000Y-105750000D01*
X153005000Y-105750000D02*
X153055000Y-105700000D01*
X147500000Y-105750000D02*
X150000000Y-105750000D01*
X147500000Y-102250000D02*
X147500000Y-105750000D01*
X147500000Y-102250000D02*
X150000000Y-102250000D01*
X147500000Y-100750000D02*
X150000000Y-100750000D01*
X146000000Y-100600000D02*
X146150000Y-100750000D01*
X146150000Y-100750000D02*
X147500000Y-100750000D01*
X146000000Y-96375000D02*
X146000000Y-100600000D01*
X147400000Y-95850000D02*
X146525000Y-95850000D01*
X146525000Y-95850000D02*
X146000000Y-96375000D01*
X147400000Y-95850000D02*
X149900000Y-95850000D01*
X149900000Y-95850000D02*
X150000000Y-95750000D01*
X155000000Y-94000000D02*
X150500000Y-94000000D01*
X150500000Y-94000000D02*
X150000000Y-93500000D01*
X160000000Y-94000000D02*
X155000000Y-94000000D01*
X150000000Y-95750000D02*
X150000000Y-93500000D01*
X161945000Y-111100000D02*
X163650000Y-111100000D01*
X163650000Y-111100000D02*
X165000000Y-109750000D01*
X160675000Y-111100000D02*
X160675000Y-114800000D01*
X160675000Y-114800000D02*
X161625000Y-115750000D01*
X161625000Y-115750000D02*
X162500000Y-115750000D01*
X155000000Y-115750000D02*
X155595000Y-115155000D01*
X155595000Y-115155000D02*
X155595000Y-111100000D01*
X165000000Y-124500000D02*
X155935620Y-124500000D01*
X155935620Y-124500000D02*
X153690000Y-122254380D01*
X153690000Y-122254380D02*
X153690000Y-121500000D01*
X165800000Y-123700000D02*
X165000000Y-124500000D01*
X165800000Y-122005848D02*
X165800000Y-123700000D01*
X165900000Y-120000000D02*
X165900000Y-121905848D01*
X165900000Y-121905848D02*
X165800000Y-122005848D01*
X164500000Y-118600000D02*
X165900000Y-120000000D01*
X164500000Y-113200000D02*
X164500000Y-118600000D01*
X166500000Y-111200000D02*
X164500000Y-113200000D01*
X166500000Y-106200000D02*
X166500000Y-111200000D01*
X163900000Y-103600000D02*
X166500000Y-106200000D01*
X161525000Y-103600000D02*
X163900000Y-103600000D01*
X160675000Y-105700000D02*
X160675000Y-104450000D01*
X160675000Y-104450000D02*
X161525000Y-103600000D01*
X158135000Y-111100000D02*
X158135000Y-115935000D01*
X158135000Y-115935000D02*
X158300000Y-116100000D01*
X156865000Y-116765000D02*
X158770000Y-118670000D01*
X158770000Y-118670000D02*
X158770000Y-121500000D01*
X156865000Y-111100000D02*
X156865000Y-116765000D01*
X159405000Y-115905000D02*
X161310000Y-117810000D01*
X161310000Y-117810000D02*
X161310000Y-121500000D01*
X159405000Y-111100000D02*
X159405000Y-115905000D01*
D27*
X159405000Y-104595000D02*
X165050000Y-98950000D01*
X165050000Y-98950000D02*
X165050000Y-94000000D01*
X159405000Y-105825000D02*
X159405000Y-104595000D01*
D25*
X150000000Y-97250000D02*
X147500000Y-97250000D01*
X147500000Y-97250000D02*
X147400000Y-97350000D01*
X155000000Y-99000000D02*
X151725000Y-99000000D01*
X150000000Y-97275000D02*
X150000000Y-97250000D01*
X151725000Y-99000000D02*
X150000000Y-97275000D01*
X160000000Y-99000000D02*
X155000000Y-99000000D01*
X155595000Y-105700000D02*
X155595000Y-99595000D01*
X155595000Y-99595000D02*
X155000000Y-99000000D01*
M02*
