G04 #@! TF.GenerationSoftware,KiCad,Pcbnew,(2017-06-12 revision 19d5cc754)-master*
G04 #@! TF.CreationDate,2018-06-07T02:45:10+02:00*
G04 #@! TF.ProjectId,nestbox,6E657374626F782E6B696361645F7063,rev?*
G04 #@! TF.FileFunction,Copper,L1,Top,Signal*
G04 #@! TF.FilePolarity,Positive*
%FSLAX46Y46*%
G04 Gerber Fmt 4.6, Leading zero omitted, Abs format (unit mm)*
G04 Created by KiCad (PCBNEW (2017-06-12 revision 19d5cc754)-master) date 2018 June 07, Thursday 02:45:10*
%MOMM*%
%LPD*%
G01*
G04 APERTURE LIST*
%ADD10C,0.100000*%
%ADD11C,1.440000*%
%ADD12C,5.400000*%
%ADD13R,1.500000X0.400000*%
%ADD14R,1.200000X0.750000*%
%ADD15R,0.750000X1.200000*%
%ADD16C,1.100000*%
%ADD17R,0.900000X1.200000*%
%ADD18R,1.200000X0.900000*%
%ADD19R,0.590000X1.210000*%
%ADD20R,1.700000X1.700000*%
%ADD21O,1.700000X1.700000*%
%ADD22C,0.600000*%
%ADD23C,0.250000*%
G04 APERTURE END LIST*
D10*
D11*
X142811500Y-109283500D03*
X140271500Y-106743500D03*
X145351500Y-106743500D03*
D12*
X166500000Y-100000000D03*
D13*
X171771000Y-99350000D03*
X171771000Y-100000000D03*
X171771000Y-100650000D03*
X174431000Y-100650000D03*
X174431000Y-100000000D03*
X174431000Y-99350000D03*
D14*
X160271500Y-93853000D03*
X158371500Y-93853000D03*
D15*
X162687000Y-93855500D03*
X162687000Y-95755500D03*
D14*
X174051000Y-102870000D03*
X172151000Y-102870000D03*
X144587000Y-98996500D03*
X142687000Y-98996500D03*
D16*
X156826950Y-98203950D03*
X160419050Y-98203950D03*
X160419050Y-101796050D03*
D17*
X156845000Y-102763500D03*
X156845000Y-100563500D03*
D18*
X160421500Y-95758000D03*
X158221500Y-95758000D03*
X171810500Y-95885000D03*
X174010500Y-95885000D03*
X172001000Y-106810000D03*
X174201000Y-106810000D03*
X174201000Y-104840000D03*
X172001000Y-104840000D03*
X144610000Y-95631000D03*
X142410000Y-95631000D03*
D19*
X165483500Y-107363500D03*
X166433500Y-107363500D03*
X167383500Y-107363500D03*
X167383500Y-104853500D03*
X165483500Y-104853500D03*
D12*
X150000000Y-100000000D03*
D20*
X144907000Y-92837000D03*
D21*
X142367000Y-92837000D03*
X139827000Y-92837000D03*
D22*
X166433500Y-109283500D03*
X167386000Y-109283500D03*
X142748000Y-100393500D03*
X175323500Y-95885000D03*
X170053000Y-100012500D03*
X174180500Y-108331000D03*
X156718000Y-93916500D03*
X175768000Y-104838500D03*
X168783000Y-104902000D03*
X163322000Y-103632000D03*
X176022000Y-101727000D03*
X139319000Y-95631000D03*
X150812500Y-104838500D03*
D23*
X171810500Y-95885000D02*
X171810500Y-99310500D01*
X171810500Y-99310500D02*
X171771000Y-99350000D01*
X162687000Y-93855500D02*
X169781000Y-93855500D01*
X169781000Y-93855500D02*
X171810500Y-95885000D01*
X166433500Y-107363500D02*
X166433500Y-109283500D01*
X167383500Y-107363500D02*
X167383500Y-109281000D01*
X167383500Y-109281000D02*
X167386000Y-109283500D01*
X142687000Y-98996500D02*
X142687000Y-100332500D01*
X142687000Y-100332500D02*
X142748000Y-100393500D01*
X174010500Y-95885000D02*
X175323500Y-95885000D01*
X171771000Y-100000000D02*
X170065500Y-100000000D01*
X170065500Y-100000000D02*
X170053000Y-100012500D01*
X174201000Y-106810000D02*
X174201000Y-108310500D01*
X174201000Y-108310500D02*
X174180500Y-108331000D01*
X158371500Y-93853000D02*
X156781500Y-93853000D01*
X156781500Y-93853000D02*
X156718000Y-93916500D01*
X158221500Y-95758000D02*
X158221500Y-94003000D01*
X158221500Y-94003000D02*
X158371500Y-93853000D01*
X172001000Y-104840000D02*
X172001000Y-106810000D01*
X172151000Y-102870000D02*
X172151000Y-104690000D01*
X172151000Y-104690000D02*
X172001000Y-104840000D01*
X171771000Y-100650000D02*
X171771000Y-102490000D01*
X171771000Y-102490000D02*
X172001000Y-102720000D01*
X167383500Y-104853500D02*
X168734500Y-104853500D01*
X175766500Y-104840000D02*
X174201000Y-104840000D01*
X175768000Y-104838500D02*
X175766500Y-104840000D01*
X168734500Y-104853500D02*
X168783000Y-104902000D01*
X174431000Y-100650000D02*
X174431000Y-102490000D01*
X174431000Y-102490000D02*
X174201000Y-102720000D01*
X174201000Y-102720000D02*
X174201000Y-104840000D01*
X145351500Y-106743500D02*
X145351500Y-101663500D01*
X145351500Y-101663500D02*
X145351500Y-101727000D01*
X145351500Y-101727000D02*
X145351500Y-101663500D01*
X144587000Y-98996500D02*
X144587000Y-100899000D01*
X147320000Y-103632000D02*
X157162500Y-103632000D01*
X144587000Y-100899000D02*
X145351500Y-101663500D01*
X145351500Y-101663500D02*
X147320000Y-103632000D01*
X174431000Y-99350000D02*
X175677000Y-99350000D01*
X176149000Y-99822000D02*
X176149000Y-100393500D01*
X175677000Y-99350000D02*
X176149000Y-99822000D01*
X156845000Y-102763500D02*
X156845000Y-103314500D01*
X156845000Y-103314500D02*
X157162500Y-103632000D01*
X175755500Y-100000000D02*
X174431000Y-100000000D01*
X176149000Y-100393500D02*
X176085500Y-100330000D01*
X176085500Y-100330000D02*
X175755500Y-100000000D01*
X176149000Y-101600000D02*
X176149000Y-100393500D01*
X157162500Y-103632000D02*
X163322000Y-103632000D01*
X176022000Y-101727000D02*
X176149000Y-101600000D01*
X144610000Y-95631000D02*
X144610000Y-93134000D01*
X144610000Y-93134000D02*
X144907000Y-92837000D01*
X144587000Y-98996500D02*
X144587000Y-95654000D01*
X144587000Y-95654000D02*
X144610000Y-95631000D01*
X160421500Y-95758000D02*
X162684500Y-95758000D01*
X162684500Y-95758000D02*
X162687000Y-95755500D01*
X160419050Y-98203950D02*
X160419050Y-95760450D01*
X160419050Y-95760450D02*
X160271500Y-95612900D01*
X160271500Y-95612900D02*
X160271500Y-93853000D01*
X156845000Y-100563500D02*
X156845000Y-98222000D01*
X156845000Y-98222000D02*
X156826950Y-98203950D01*
X142811500Y-109283500D02*
X163563500Y-109283500D01*
X163563500Y-109283500D02*
X165483500Y-107363500D01*
X165483500Y-104853500D02*
X150827500Y-104853500D01*
X139319000Y-95631000D02*
X142410000Y-95631000D01*
X150827500Y-104853500D02*
X150812500Y-104838500D01*
X142367000Y-92837000D02*
X142367000Y-95588000D01*
X142367000Y-95588000D02*
X142410000Y-95631000D01*
M02*
