M48
;DRILL file {KiCad 4.0.7} date 06/05/18 13:55:40
;FORMAT={-:-/ absolute / inch / decimal}
FMAT,2
INCH,TZ
T1C0.016
T2C0.028
T3C0.031
T4C0.039
T5C0.106
%
G90
G05
M72
T1
X5.485Y-3.765
X5.62Y-3.9525
X5.9375Y-4.1275
X6.17Y-3.6975
X6.43Y-4.08
X6.5525Y-4.3025
X6.59Y-4.3025
X6.645Y-4.13
X6.695Y-3.9375
X6.8575Y-4.265
X6.9025Y-3.775
X6.92Y-4.1275
X6.93Y-4.005
T2
X6.1743Y-3.8663
X6.3157Y-3.8663
X6.3157Y-4.0077
T3
X5.5225Y-4.2025
X5.6225Y-4.3025
X5.7225Y-4.2025
T4
X5.505Y-3.655
X5.605Y-3.655
X5.705Y-3.655
T5
X5.9055Y-3.937
X6.5551Y-3.937
T0
M30
