G04 #@! TF.FileFunction,Soldermask,Top*
%FSLAX46Y46*%
G04 Gerber Fmt 4.6, Leading zero omitted, Abs format (unit mm)*
G04 Created by KiCad (PCBNEW 4.0.7) date 06/05/18 13:55:36*
%MOMM*%
%LPD*%
G01*
G04 APERTURE LIST*
%ADD10C,0.100000*%
%ADD11C,1.440000*%
%ADD12C,5.400000*%
%ADD13R,1.500000X0.400000*%
%ADD14R,1.200000X0.750000*%
%ADD15R,0.750000X1.200000*%
%ADD16C,1.100000*%
%ADD17R,0.900000X1.200000*%
%ADD18R,1.200000X0.900000*%
%ADD19R,0.590000X1.210000*%
%ADD20R,1.700000X1.700000*%
%ADD21O,1.700000X1.700000*%
G04 APERTURE END LIST*
D10*
D11*
X142811500Y-109283500D03*
X140271500Y-106743500D03*
X145351500Y-106743500D03*
D12*
X166500000Y-100000000D03*
D13*
X171771000Y-99350000D03*
X171771000Y-100000000D03*
X171771000Y-100650000D03*
X174431000Y-100650000D03*
X174431000Y-100000000D03*
X174431000Y-99350000D03*
D14*
X160271500Y-93853000D03*
X158371500Y-93853000D03*
D15*
X162687000Y-93855500D03*
X162687000Y-95755500D03*
D14*
X174051000Y-102870000D03*
X172151000Y-102870000D03*
X144587000Y-98996500D03*
X142687000Y-98996500D03*
D16*
X156826950Y-98203950D03*
X160419050Y-98203950D03*
X160419050Y-101796050D03*
D17*
X156845000Y-102763500D03*
X156845000Y-100563500D03*
D18*
X160421500Y-95758000D03*
X158221500Y-95758000D03*
X171810500Y-95885000D03*
X174010500Y-95885000D03*
X172001000Y-106810000D03*
X174201000Y-106810000D03*
X174201000Y-104840000D03*
X172001000Y-104840000D03*
X144610000Y-95631000D03*
X142410000Y-95631000D03*
D19*
X165483500Y-107363500D03*
X166433500Y-107363500D03*
X167383500Y-107363500D03*
X167383500Y-104853500D03*
X165483500Y-104853500D03*
D12*
X150000000Y-100000000D03*
D20*
X144907000Y-92837000D03*
D21*
X142367000Y-92837000D03*
X139827000Y-92837000D03*
M02*
