G04 #@! TF.FileFunction,Legend,Bot*
%FSLAX46Y46*%
G04 Gerber Fmt 4.6, Leading zero omitted, Abs format (unit mm)*
G04 Created by KiCad (PCBNEW 4.0.7) date 06/05/18 13:55:36*
%MOMM*%
%LPD*%
G01*
G04 APERTURE LIST*
%ADD10C,0.100000*%
%ADD11C,0.150000*%
%ADD12C,0.200000*%
%ADD13C,0.254000*%
G04 APERTURE END LIST*
D10*
D11*
X146211500Y-103113500D02*
X139411500Y-103113500D01*
X139411500Y-103113500D02*
X139411500Y-110303500D01*
X139411500Y-110303500D02*
X146211500Y-110303500D01*
X146211500Y-110303500D02*
X146211500Y-103113500D01*
D12*
X153959000Y-100500000D02*
X153123000Y-100500000D01*
X153123000Y-100500000D02*
X153123000Y-99500000D01*
X153123000Y-99500000D02*
X153974000Y-99500000D01*
D13*
X163223000Y-100000000D02*
G75*
G03X163223000Y-100000000I-4600000J0D01*
G01*
X155027000Y-96653000D02*
G75*
G03X155027000Y-96653000I-59000J0D01*
G01*
D11*
X143152738Y-111767881D02*
X143486072Y-111291690D01*
X143724167Y-111767881D02*
X143724167Y-110767881D01*
X143343214Y-110767881D01*
X143247976Y-110815500D01*
X143200357Y-110863119D01*
X143152738Y-110958357D01*
X143152738Y-111101214D01*
X143200357Y-111196452D01*
X143247976Y-111244071D01*
X143343214Y-111291690D01*
X143724167Y-111291690D01*
X142867024Y-110767881D02*
X142533691Y-111767881D01*
X142200357Y-110767881D01*
X141343214Y-111767881D02*
X141914643Y-111767881D01*
X141628929Y-111767881D02*
X141628929Y-110767881D01*
X141724167Y-110910738D01*
X141819405Y-111005976D01*
X141914643Y-111053595D01*
D13*
X160497762Y-106289524D02*
X160497762Y-105019524D01*
X160013953Y-105019524D01*
X159893000Y-105080000D01*
X159832524Y-105140476D01*
X159772048Y-105261429D01*
X159772048Y-105442857D01*
X159832524Y-105563810D01*
X159893000Y-105624286D01*
X160013953Y-105684762D01*
X160497762Y-105684762D01*
X159227762Y-106289524D02*
X159227762Y-105019524D01*
X157897286Y-106289524D02*
X158320619Y-105684762D01*
X158623000Y-106289524D02*
X158623000Y-105019524D01*
X158139191Y-105019524D01*
X158018238Y-105080000D01*
X157957762Y-105140476D01*
X157897286Y-105261429D01*
X157897286Y-105442857D01*
X157957762Y-105563810D01*
X158018238Y-105624286D01*
X158139191Y-105684762D01*
X158623000Y-105684762D01*
X156687762Y-106289524D02*
X157413476Y-106289524D01*
X157050619Y-106289524D02*
X157050619Y-105019524D01*
X157171571Y-105200952D01*
X157292524Y-105321905D01*
X157413476Y-105382381D01*
M02*
