M48
METRIC,TZ
T1C0.400
T2C0.700
T3C0.800
T4C1.000
T5C2.700
%
G90
G05
T1
X139319Y-95631
X142748Y-100393
X150813Y-104839
X156718Y-93917
X163322Y-103632
X166434Y-109283
X167386Y-109283
X168783Y-104902
X170053Y-100012
X174181Y-108331
X175324Y-95885
X175768Y-104839
X176022Y-101727
T2
X156827Y-98204
X160419Y-98204
X160419Y-101796
T3
X140272Y-106743
X142812Y-109283
X145351Y-106743
T4
X139827Y-92837
X142367Y-92837
X144907Y-92837
T5
X166500Y-100000
X150000Y-100000
T0
M30
