G04 #@! TF.GenerationSoftware,KiCad,Pcbnew,(2017-06-12 revision 19d5cc754)-master*
G04 #@! TF.CreationDate,2018-06-07T02:45:10+02:00*
G04 #@! TF.ProjectId,nestbox,6E657374626F782E6B696361645F7063,rev?*
G04 #@! TF.FileFunction,Legend,Bot*
G04 #@! TF.FilePolarity,Positive*
%FSLAX46Y46*%
G04 Gerber Fmt 4.6, Leading zero omitted, Abs format (unit mm)*
G04 Created by KiCad (PCBNEW (2017-06-12 revision 19d5cc754)-master) date 2018 June 07, Thursday 02:45:10*
%MOMM*%
%LPD*%
G01*
G04 APERTURE LIST*
%ADD10C,0.100000*%
%ADD11C,0.150000*%
%ADD12C,0.200000*%
%ADD13C,0.254000*%
G04 APERTURE END LIST*
D10*
D11*
X146211500Y-103113500D02*
X139411500Y-103113500D01*
X139411500Y-103113500D02*
X139411500Y-110303500D01*
X139411500Y-110303500D02*
X146211500Y-110303500D01*
X146211500Y-110303500D02*
X146211500Y-103113500D01*
D12*
X153959000Y-100500000D02*
X153123000Y-100500000D01*
X153123000Y-100500000D02*
X153123000Y-99500000D01*
X153123000Y-99500000D02*
X153974000Y-99500000D01*
D13*
X163223000Y-100000000D02*
G75*
G03X163223000Y-100000000I-4600000J0D01*
G01*
X155027000Y-96653000D02*
G75*
G03X155027000Y-96653000I-59000J0D01*
G01*
D11*
X143152738Y-111767880D02*
X143486071Y-111291690D01*
X143724166Y-111767880D02*
X143724166Y-110767880D01*
X143343214Y-110767880D01*
X143247976Y-110815500D01*
X143200357Y-110863119D01*
X143152738Y-110958357D01*
X143152738Y-111101214D01*
X143200357Y-111196452D01*
X143247976Y-111244071D01*
X143343214Y-111291690D01*
X143724166Y-111291690D01*
X142867023Y-110767880D02*
X142533690Y-111767880D01*
X142200357Y-110767880D01*
X141343214Y-111767880D02*
X141914642Y-111767880D01*
X141628928Y-111767880D02*
X141628928Y-110767880D01*
X141724166Y-110910738D01*
X141819404Y-111005976D01*
X141914642Y-111053595D01*
D13*
X160497761Y-106289523D02*
X160497761Y-105019523D01*
X160013952Y-105019523D01*
X159893000Y-105080000D01*
X159832523Y-105140476D01*
X159772047Y-105261428D01*
X159772047Y-105442857D01*
X159832523Y-105563809D01*
X159893000Y-105624285D01*
X160013952Y-105684761D01*
X160497761Y-105684761D01*
X159227761Y-106289523D02*
X159227761Y-105019523D01*
X157897285Y-106289523D02*
X158320619Y-105684761D01*
X158623000Y-106289523D02*
X158623000Y-105019523D01*
X158139190Y-105019523D01*
X158018238Y-105080000D01*
X157957761Y-105140476D01*
X157897285Y-105261428D01*
X157897285Y-105442857D01*
X157957761Y-105563809D01*
X158018238Y-105624285D01*
X158139190Y-105684761D01*
X158623000Y-105684761D01*
X156687761Y-106289523D02*
X157413476Y-106289523D01*
X157050619Y-106289523D02*
X157050619Y-105019523D01*
X157171571Y-105200952D01*
X157292523Y-105321904D01*
X157413476Y-105382380D01*
M02*
