%TF.GenerationSoftware,KiCad,Pcbnew,4.0.7*%
%TF.CreationDate,2018-06-20T04:11:10+02:00*%
%TF.ProjectId,RFID_BOARD_EM4095,524649445F424F4152445F454D343039,rev?*%
%TF.FileFunction,Soldermask,Top*%
%FSLAX46Y46*%
G04 Gerber Fmt 4.6, Leading zero omitted, Abs format (unit mm)*
G04 Created by KiCad (PCBNEW 4.0.7) date 2018 June 20, Wednesday 04:11:10*
%MOMM*%
%LPD*%
G01*
G04 APERTURE LIST*
%ADD10C,0.100000*%
%ADD11C,3.600000*%
%ADD12C,2.540000*%
%ADD13R,1.150000X1.200000*%
%ADD14R,1.200000X1.150000*%
%ADD15R,1.000000X1.900000*%
%ADD16R,1.650000X1.400000*%
%ADD17R,1.400000X1.650000*%
%ADD18R,2.701240X2.899360*%
%ADD19R,2.100000X2.100000*%
%ADD20O,2.100000X2.100000*%
%ADD21R,0.900000X1.300000*%
%ADD22R,1.300000X0.900000*%
%ADD23R,1.900000X1.900000*%
G04 APERTURE END LIST*
D10*
D11*
X157000000Y-94500000D03*
D12*
X146750000Y-98500000D03*
X167000000Y-98500000D03*
D13*
X166000000Y-119250000D03*
X166000000Y-117750000D03*
X164000000Y-117750000D03*
X164000000Y-119250000D03*
X158000000Y-119250000D03*
X158000000Y-117750000D03*
D14*
X156250000Y-119500000D03*
X154750000Y-119500000D03*
D15*
X164445000Y-109700000D03*
X163175000Y-109700000D03*
X161905000Y-109700000D03*
X160635000Y-109700000D03*
X159365000Y-109700000D03*
X158095000Y-109700000D03*
X156825000Y-109700000D03*
X155555000Y-109700000D03*
X155555000Y-115100000D03*
X156825000Y-115100000D03*
X158095000Y-115100000D03*
X159365000Y-115100000D03*
X160635000Y-115100000D03*
X161905000Y-115100000D03*
X163175000Y-115100000D03*
X164445000Y-115100000D03*
D14*
X151250000Y-114500000D03*
X152750000Y-114500000D03*
X154750000Y-117500000D03*
X156250000Y-117500000D03*
X151000000Y-119500000D03*
X152500000Y-119500000D03*
D16*
X153000000Y-105500000D03*
X153000000Y-103500000D03*
D13*
X153000000Y-109250000D03*
X153000000Y-107750000D03*
D17*
X155500000Y-103500000D03*
X157500000Y-103500000D03*
X157500000Y-105500000D03*
X155500000Y-105500000D03*
D16*
X147500000Y-118500000D03*
X147500000Y-116500000D03*
X147500000Y-122500000D03*
X147500000Y-120500000D03*
D18*
X149000000Y-108648840D03*
X149000000Y-104351160D03*
D19*
X152460000Y-123500000D03*
D20*
X155000000Y-123500000D03*
X157540000Y-123500000D03*
X160080000Y-123500000D03*
X162620000Y-123500000D03*
D21*
X147750000Y-112500000D03*
X149250000Y-112500000D03*
X149250000Y-114500000D03*
X147750000Y-114500000D03*
D22*
X160000000Y-119250000D03*
X160000000Y-117750000D03*
D14*
X157250000Y-101500000D03*
X155750000Y-101500000D03*
X161250000Y-107000000D03*
X159750000Y-107000000D03*
D23*
X162500000Y-99500000D03*
X152500000Y-99500000D03*
D12*
X147000000Y-124500000D03*
D11*
X157000000Y-128500000D03*
D17*
X161500000Y-105300000D03*
X159500000Y-105300000D03*
X151000000Y-112500000D03*
X153000000Y-112500000D03*
M02*
