%TF.GenerationSoftware,KiCad,Pcbnew,4.0.7*%
%TF.CreationDate,2018-06-20T04:11:10+02:00*%
%TF.ProjectId,RFID_BOARD_EM4095,524649445F424F4152445F454D343039,rev?*%
%TF.FileFunction,Legend,Bot*%
%FSLAX46Y46*%
G04 Gerber Fmt 4.6, Leading zero omitted, Abs format (unit mm)*
G04 Created by KiCad (PCBNEW 4.0.7) date 2018 June 20, Wednesday 04:11:10*
%MOMM*%
%LPD*%
G01*
G04 APERTURE LIST*
%ADD10C,0.100000*%
%ADD11C,0.250000*%
%ADD12C,0.300000*%
%ADD13C,0.010000*%
G04 APERTURE END LIST*
D10*
D11*
X166528571Y-100042857D02*
X166928571Y-99471429D01*
X167214286Y-100042857D02*
X167214286Y-98842857D01*
X166757143Y-98842857D01*
X166642857Y-98900000D01*
X166585714Y-98957143D01*
X166528571Y-99071429D01*
X166528571Y-99242857D01*
X166585714Y-99357143D01*
X166642857Y-99414286D01*
X166757143Y-99471429D01*
X167214286Y-99471429D01*
X165614286Y-99414286D02*
X166014286Y-99414286D01*
X166014286Y-100042857D02*
X166014286Y-98842857D01*
X165442857Y-98842857D01*
X164985715Y-100042857D02*
X164985715Y-98842857D01*
X164414286Y-100042857D02*
X164414286Y-98842857D01*
X164128571Y-98842857D01*
X163957143Y-98900000D01*
X163842857Y-99014286D01*
X163785714Y-99128571D01*
X163728571Y-99357143D01*
X163728571Y-99528571D01*
X163785714Y-99757143D01*
X163842857Y-99871429D01*
X163957143Y-99985714D01*
X164128571Y-100042857D01*
X164414286Y-100042857D01*
X161614285Y-100042857D02*
X162014285Y-99471429D01*
X162300000Y-100042857D02*
X162300000Y-98842857D01*
X161842857Y-98842857D01*
X161728571Y-98900000D01*
X161671428Y-98957143D01*
X161614285Y-99071429D01*
X161614285Y-99242857D01*
X161671428Y-99357143D01*
X161728571Y-99414286D01*
X161842857Y-99471429D01*
X162300000Y-99471429D01*
X160642857Y-99985714D02*
X160757143Y-100042857D01*
X160985714Y-100042857D01*
X161100000Y-99985714D01*
X161157143Y-99871429D01*
X161157143Y-99414286D01*
X161100000Y-99300000D01*
X160985714Y-99242857D01*
X160757143Y-99242857D01*
X160642857Y-99300000D01*
X160585714Y-99414286D01*
X160585714Y-99528571D01*
X161157143Y-99642857D01*
X159557143Y-100042857D02*
X159557143Y-99414286D01*
X159614286Y-99300000D01*
X159728572Y-99242857D01*
X159957143Y-99242857D01*
X160071429Y-99300000D01*
X159557143Y-99985714D02*
X159671429Y-100042857D01*
X159957143Y-100042857D01*
X160071429Y-99985714D01*
X160128572Y-99871429D01*
X160128572Y-99757143D01*
X160071429Y-99642857D01*
X159957143Y-99585714D01*
X159671429Y-99585714D01*
X159557143Y-99528571D01*
X158471429Y-100042857D02*
X158471429Y-98842857D01*
X158471429Y-99985714D02*
X158585715Y-100042857D01*
X158814286Y-100042857D01*
X158928572Y-99985714D01*
X158985715Y-99928571D01*
X159042858Y-99814286D01*
X159042858Y-99471429D01*
X158985715Y-99357143D01*
X158928572Y-99300000D01*
X158814286Y-99242857D01*
X158585715Y-99242857D01*
X158471429Y-99300000D01*
X157442858Y-99985714D02*
X157557144Y-100042857D01*
X157785715Y-100042857D01*
X157900001Y-99985714D01*
X157957144Y-99871429D01*
X157957144Y-99414286D01*
X157900001Y-99300000D01*
X157785715Y-99242857D01*
X157557144Y-99242857D01*
X157442858Y-99300000D01*
X157385715Y-99414286D01*
X157385715Y-99528571D01*
X157957144Y-99642857D01*
X156871430Y-100042857D02*
X156871430Y-99242857D01*
X156871430Y-99471429D02*
X156814287Y-99357143D01*
X156757144Y-99300000D01*
X156642858Y-99242857D01*
X156528573Y-99242857D01*
X154871430Y-100500000D02*
X154928572Y-100442857D01*
X155042858Y-100271429D01*
X155100001Y-100157143D01*
X155157144Y-99985714D01*
X155214287Y-99700000D01*
X155214287Y-99471429D01*
X155157144Y-99185714D01*
X155100001Y-99014286D01*
X155042858Y-98900000D01*
X154928572Y-98728571D01*
X154871430Y-98671429D01*
X154414287Y-99414286D02*
X154014287Y-99414286D01*
X153842858Y-100042857D02*
X154414287Y-100042857D01*
X154414287Y-98842857D01*
X153842858Y-98842857D01*
X153328573Y-100042857D02*
X153328573Y-98842857D01*
X152928573Y-99700000D01*
X152528573Y-98842857D01*
X152528573Y-100042857D01*
X151442858Y-99242857D02*
X151442858Y-100042857D01*
X151728572Y-98785714D02*
X152014287Y-99642857D01*
X151271429Y-99642857D01*
X150585715Y-98842857D02*
X150471430Y-98842857D01*
X150357144Y-98900000D01*
X150300001Y-98957143D01*
X150242858Y-99071429D01*
X150185715Y-99300000D01*
X150185715Y-99585714D01*
X150242858Y-99814286D01*
X150300001Y-99928571D01*
X150357144Y-99985714D01*
X150471430Y-100042857D01*
X150585715Y-100042857D01*
X150700001Y-99985714D01*
X150757144Y-99928571D01*
X150814287Y-99814286D01*
X150871430Y-99585714D01*
X150871430Y-99300000D01*
X150814287Y-99071429D01*
X150757144Y-98957143D01*
X150700001Y-98900000D01*
X150585715Y-98842857D01*
X149614287Y-100042857D02*
X149385715Y-100042857D01*
X149271430Y-99985714D01*
X149214287Y-99928571D01*
X149100001Y-99757143D01*
X149042858Y-99528571D01*
X149042858Y-99071429D01*
X149100001Y-98957143D01*
X149157144Y-98900000D01*
X149271430Y-98842857D01*
X149500001Y-98842857D01*
X149614287Y-98900000D01*
X149671430Y-98957143D01*
X149728573Y-99071429D01*
X149728573Y-99357143D01*
X149671430Y-99471429D01*
X149614287Y-99528571D01*
X149500001Y-99585714D01*
X149271430Y-99585714D01*
X149157144Y-99528571D01*
X149100001Y-99471429D01*
X149042858Y-99357143D01*
X147957144Y-98842857D02*
X148528573Y-98842857D01*
X148585716Y-99414286D01*
X148528573Y-99357143D01*
X148414287Y-99300000D01*
X148128573Y-99300000D01*
X148014287Y-99357143D01*
X147957144Y-99414286D01*
X147900001Y-99528571D01*
X147900001Y-99814286D01*
X147957144Y-99928571D01*
X148014287Y-99985714D01*
X148128573Y-100042857D01*
X148414287Y-100042857D01*
X148528573Y-99985714D01*
X148585716Y-99928571D01*
X147500001Y-100500000D02*
X147442859Y-100442857D01*
X147328573Y-100271429D01*
X147271430Y-100157143D01*
X147214287Y-99985714D01*
X147157144Y-99700000D01*
X147157144Y-99471429D01*
X147214287Y-99185714D01*
X147271430Y-99014286D01*
X147328573Y-98900000D01*
X147442859Y-98728571D01*
X147500001Y-98671429D01*
X167914285Y-108817857D02*
X167685714Y-108817857D01*
X167571428Y-108875000D01*
X167457142Y-108989286D01*
X167400000Y-109217857D01*
X167400000Y-109617857D01*
X167457142Y-109846429D01*
X167571428Y-109960714D01*
X167685714Y-110017857D01*
X167914285Y-110017857D01*
X168028571Y-109960714D01*
X168142857Y-109846429D01*
X168200000Y-109617857D01*
X168200000Y-109217857D01*
X168142857Y-108989286D01*
X168028571Y-108875000D01*
X167914285Y-108817857D01*
X166371428Y-109960714D02*
X166485714Y-110017857D01*
X166714285Y-110017857D01*
X166828571Y-109960714D01*
X166885714Y-109903571D01*
X166942857Y-109789286D01*
X166942857Y-109446429D01*
X166885714Y-109332143D01*
X166828571Y-109275000D01*
X166714285Y-109217857D01*
X166485714Y-109217857D01*
X166371428Y-109275000D01*
X166028571Y-109217857D02*
X165571428Y-109217857D01*
X165857143Y-108817857D02*
X165857143Y-109846429D01*
X165800000Y-109960714D01*
X165685714Y-110017857D01*
X165571428Y-110017857D01*
X164657143Y-110017857D02*
X164657143Y-109389286D01*
X164714286Y-109275000D01*
X164828572Y-109217857D01*
X165057143Y-109217857D01*
X165171429Y-109275000D01*
X164657143Y-109960714D02*
X164771429Y-110017857D01*
X165057143Y-110017857D01*
X165171429Y-109960714D01*
X165228572Y-109846429D01*
X165228572Y-109732143D01*
X165171429Y-109617857D01*
X165057143Y-109560714D01*
X164771429Y-109560714D01*
X164657143Y-109503571D01*
X164085715Y-109217857D02*
X164085715Y-110017857D01*
X164085715Y-109332143D02*
X164028572Y-109275000D01*
X163914286Y-109217857D01*
X163742858Y-109217857D01*
X163628572Y-109275000D01*
X163571429Y-109389286D01*
X163571429Y-110017857D01*
X163000001Y-110017857D02*
X163000001Y-109217857D01*
X163000001Y-108817857D02*
X163057144Y-108875000D01*
X163000001Y-108932143D01*
X162942858Y-108875000D01*
X163000001Y-108817857D01*
X163000001Y-108932143D01*
X162485715Y-109960714D02*
X162371429Y-110017857D01*
X162142857Y-110017857D01*
X162028572Y-109960714D01*
X161971429Y-109846429D01*
X161971429Y-109789286D01*
X162028572Y-109675000D01*
X162142857Y-109617857D01*
X162314286Y-109617857D01*
X162428572Y-109560714D01*
X162485715Y-109446429D01*
X162485715Y-109389286D01*
X162428572Y-109275000D01*
X162314286Y-109217857D01*
X162142857Y-109217857D01*
X162028572Y-109275000D01*
X160542857Y-110017857D02*
X160542857Y-108817857D01*
X159857142Y-110017857D01*
X159857142Y-108817857D01*
X158828571Y-109960714D02*
X158942857Y-110017857D01*
X159171428Y-110017857D01*
X159285714Y-109960714D01*
X159342857Y-109846429D01*
X159342857Y-109389286D01*
X159285714Y-109275000D01*
X159171428Y-109217857D01*
X158942857Y-109217857D01*
X158828571Y-109275000D01*
X158771428Y-109389286D01*
X158771428Y-109503571D01*
X159342857Y-109617857D01*
X158314286Y-109960714D02*
X158200000Y-110017857D01*
X157971428Y-110017857D01*
X157857143Y-109960714D01*
X157800000Y-109846429D01*
X157800000Y-109789286D01*
X157857143Y-109675000D01*
X157971428Y-109617857D01*
X158142857Y-109617857D01*
X158257143Y-109560714D01*
X158314286Y-109446429D01*
X158314286Y-109389286D01*
X158257143Y-109275000D01*
X158142857Y-109217857D01*
X157971428Y-109217857D01*
X157857143Y-109275000D01*
X157457142Y-109217857D02*
X156999999Y-109217857D01*
X157285714Y-108817857D02*
X157285714Y-109846429D01*
X157228571Y-109960714D01*
X157114285Y-110017857D01*
X156999999Y-110017857D01*
X156600000Y-110017857D02*
X156600000Y-108817857D01*
X156600000Y-109275000D02*
X156485714Y-109217857D01*
X156257143Y-109217857D01*
X156142857Y-109275000D01*
X156085714Y-109332143D01*
X156028571Y-109446429D01*
X156028571Y-109789286D01*
X156085714Y-109903571D01*
X156142857Y-109960714D01*
X156257143Y-110017857D01*
X156485714Y-110017857D01*
X156600000Y-109960714D01*
X155342857Y-110017857D02*
X155457143Y-109960714D01*
X155514286Y-109903571D01*
X155571429Y-109789286D01*
X155571429Y-109446429D01*
X155514286Y-109332143D01*
X155457143Y-109275000D01*
X155342857Y-109217857D01*
X155171429Y-109217857D01*
X155057143Y-109275000D01*
X155000000Y-109332143D01*
X154942857Y-109446429D01*
X154942857Y-109789286D01*
X155000000Y-109903571D01*
X155057143Y-109960714D01*
X155171429Y-110017857D01*
X155342857Y-110017857D01*
X154542857Y-110017857D02*
X153914286Y-109217857D01*
X154542857Y-109217857D02*
X153914286Y-110017857D01*
X152542857Y-110017857D02*
X152542857Y-108817857D01*
X152085714Y-108817857D01*
X151971428Y-108875000D01*
X151914285Y-108932143D01*
X151857142Y-109046429D01*
X151857142Y-109217857D01*
X151914285Y-109332143D01*
X151971428Y-109389286D01*
X152085714Y-109446429D01*
X152542857Y-109446429D01*
X151342857Y-110017857D02*
X151342857Y-109217857D01*
X151342857Y-109446429D02*
X151285714Y-109332143D01*
X151228571Y-109275000D01*
X151114285Y-109217857D01*
X151000000Y-109217857D01*
X150428571Y-110017857D02*
X150542857Y-109960714D01*
X150600000Y-109903571D01*
X150657143Y-109789286D01*
X150657143Y-109446429D01*
X150600000Y-109332143D01*
X150542857Y-109275000D01*
X150428571Y-109217857D01*
X150257143Y-109217857D01*
X150142857Y-109275000D01*
X150085714Y-109332143D01*
X150028571Y-109446429D01*
X150028571Y-109789286D01*
X150085714Y-109903571D01*
X150142857Y-109960714D01*
X150257143Y-110017857D01*
X150428571Y-110017857D01*
X149514286Y-109217857D02*
X149514286Y-110246429D01*
X149571429Y-110360714D01*
X149685714Y-110417857D01*
X149742857Y-110417857D01*
X149514286Y-108817857D02*
X149571429Y-108875000D01*
X149514286Y-108932143D01*
X149457143Y-108875000D01*
X149514286Y-108817857D01*
X149514286Y-108932143D01*
X148485714Y-109960714D02*
X148600000Y-110017857D01*
X148828571Y-110017857D01*
X148942857Y-109960714D01*
X149000000Y-109846429D01*
X149000000Y-109389286D01*
X148942857Y-109275000D01*
X148828571Y-109217857D01*
X148600000Y-109217857D01*
X148485714Y-109275000D01*
X148428571Y-109389286D01*
X148428571Y-109503571D01*
X149000000Y-109617857D01*
X147400000Y-109960714D02*
X147514286Y-110017857D01*
X147742857Y-110017857D01*
X147857143Y-109960714D01*
X147914286Y-109903571D01*
X147971429Y-109789286D01*
X147971429Y-109446429D01*
X147914286Y-109332143D01*
X147857143Y-109275000D01*
X147742857Y-109217857D01*
X147514286Y-109217857D01*
X147400000Y-109275000D01*
X147057143Y-109217857D02*
X146600000Y-109217857D01*
X146885715Y-108817857D02*
X146885715Y-109846429D01*
X146828572Y-109960714D01*
X146714286Y-110017857D01*
X146600000Y-110017857D01*
X166485713Y-112067857D02*
X166485713Y-111267857D01*
X166485713Y-110867857D02*
X166542856Y-110925000D01*
X166485713Y-110982143D01*
X166428570Y-110925000D01*
X166485713Y-110867857D01*
X166485713Y-110982143D01*
X165914284Y-111267857D02*
X165914284Y-112067857D01*
X165914284Y-111382143D02*
X165857141Y-111325000D01*
X165742855Y-111267857D01*
X165571427Y-111267857D01*
X165457141Y-111325000D01*
X165399998Y-111439286D01*
X165399998Y-112067857D01*
X163399998Y-112010714D02*
X163514284Y-112067857D01*
X163742855Y-112067857D01*
X163857141Y-112010714D01*
X163914284Y-111953571D01*
X163971427Y-111839286D01*
X163971427Y-111496429D01*
X163914284Y-111382143D01*
X163857141Y-111325000D01*
X163742855Y-111267857D01*
X163514284Y-111267857D01*
X163399998Y-111325000D01*
X162714284Y-112067857D02*
X162828570Y-112010714D01*
X162885713Y-111953571D01*
X162942856Y-111839286D01*
X162942856Y-111496429D01*
X162885713Y-111382143D01*
X162828570Y-111325000D01*
X162714284Y-111267857D01*
X162542856Y-111267857D01*
X162428570Y-111325000D01*
X162371427Y-111382143D01*
X162314284Y-111496429D01*
X162314284Y-111839286D01*
X162371427Y-111953571D01*
X162428570Y-112010714D01*
X162542856Y-112067857D01*
X162714284Y-112067857D01*
X161628570Y-112067857D02*
X161742856Y-112010714D01*
X161799999Y-111896429D01*
X161799999Y-110867857D01*
X160999999Y-112067857D02*
X161114285Y-112010714D01*
X161171428Y-111896429D01*
X161171428Y-110867857D01*
X160028571Y-112067857D02*
X160028571Y-111439286D01*
X160085714Y-111325000D01*
X160200000Y-111267857D01*
X160428571Y-111267857D01*
X160542857Y-111325000D01*
X160028571Y-112010714D02*
X160142857Y-112067857D01*
X160428571Y-112067857D01*
X160542857Y-112010714D01*
X160600000Y-111896429D01*
X160600000Y-111782143D01*
X160542857Y-111667857D01*
X160428571Y-111610714D01*
X160142857Y-111610714D01*
X160028571Y-111553571D01*
X159457143Y-112067857D02*
X159457143Y-110867857D01*
X159457143Y-111325000D02*
X159342857Y-111267857D01*
X159114286Y-111267857D01*
X159000000Y-111325000D01*
X158942857Y-111382143D01*
X158885714Y-111496429D01*
X158885714Y-111839286D01*
X158942857Y-111953571D01*
X159000000Y-112010714D01*
X159114286Y-112067857D01*
X159342857Y-112067857D01*
X159457143Y-112010714D01*
X158200000Y-112067857D02*
X158314286Y-112010714D01*
X158371429Y-111953571D01*
X158428572Y-111839286D01*
X158428572Y-111496429D01*
X158371429Y-111382143D01*
X158314286Y-111325000D01*
X158200000Y-111267857D01*
X158028572Y-111267857D01*
X157914286Y-111325000D01*
X157857143Y-111382143D01*
X157800000Y-111496429D01*
X157800000Y-111839286D01*
X157857143Y-111953571D01*
X157914286Y-112010714D01*
X158028572Y-112067857D01*
X158200000Y-112067857D01*
X157285715Y-112067857D02*
X157285715Y-111267857D01*
X157285715Y-111496429D02*
X157228572Y-111382143D01*
X157171429Y-111325000D01*
X157057143Y-111267857D01*
X156942858Y-111267857D01*
X156028572Y-112067857D02*
X156028572Y-111439286D01*
X156085715Y-111325000D01*
X156200001Y-111267857D01*
X156428572Y-111267857D01*
X156542858Y-111325000D01*
X156028572Y-112010714D02*
X156142858Y-112067857D01*
X156428572Y-112067857D01*
X156542858Y-112010714D01*
X156600001Y-111896429D01*
X156600001Y-111782143D01*
X156542858Y-111667857D01*
X156428572Y-111610714D01*
X156142858Y-111610714D01*
X156028572Y-111553571D01*
X155628572Y-111267857D02*
X155171429Y-111267857D01*
X155457144Y-110867857D02*
X155457144Y-111896429D01*
X155400001Y-112010714D01*
X155285715Y-112067857D01*
X155171429Y-112067857D01*
X154771430Y-112067857D02*
X154771430Y-111267857D01*
X154771430Y-110867857D02*
X154828573Y-110925000D01*
X154771430Y-110982143D01*
X154714287Y-110925000D01*
X154771430Y-110867857D01*
X154771430Y-110982143D01*
X154028572Y-112067857D02*
X154142858Y-112010714D01*
X154200001Y-111953571D01*
X154257144Y-111839286D01*
X154257144Y-111496429D01*
X154200001Y-111382143D01*
X154142858Y-111325000D01*
X154028572Y-111267857D01*
X153857144Y-111267857D01*
X153742858Y-111325000D01*
X153685715Y-111382143D01*
X153628572Y-111496429D01*
X153628572Y-111839286D01*
X153685715Y-111953571D01*
X153742858Y-112010714D01*
X153857144Y-112067857D01*
X154028572Y-112067857D01*
X153114287Y-111267857D02*
X153114287Y-112067857D01*
X153114287Y-111382143D02*
X153057144Y-111325000D01*
X152942858Y-111267857D01*
X152771430Y-111267857D01*
X152657144Y-111325000D01*
X152600001Y-111439286D01*
X152600001Y-112067857D01*
X151228572Y-111267857D02*
X151000001Y-112067857D01*
X150771430Y-111496429D01*
X150542858Y-112067857D01*
X150314287Y-111267857D01*
X149857144Y-112067857D02*
X149857144Y-111267857D01*
X149857144Y-110867857D02*
X149914287Y-110925000D01*
X149857144Y-110982143D01*
X149800001Y-110925000D01*
X149857144Y-110867857D01*
X149857144Y-110982143D01*
X149457143Y-111267857D02*
X149000000Y-111267857D01*
X149285715Y-110867857D02*
X149285715Y-111896429D01*
X149228572Y-112010714D01*
X149114286Y-112067857D01*
X149000000Y-112067857D01*
X148600001Y-112067857D02*
X148600001Y-110867857D01*
X148085715Y-112067857D02*
X148085715Y-111439286D01*
X148142858Y-111325000D01*
X148257144Y-111267857D01*
X148428572Y-111267857D01*
X148542858Y-111325000D01*
X148600001Y-111382143D01*
X147514287Y-111953571D02*
X147457144Y-112010714D01*
X147514287Y-112067857D01*
X147571430Y-112010714D01*
X147514287Y-111953571D01*
X147514287Y-112067857D01*
X147514287Y-111325000D02*
X147457144Y-111382143D01*
X147514287Y-111439286D01*
X147571430Y-111382143D01*
X147514287Y-111325000D01*
X147514287Y-111439286D01*
D12*
X162249999Y-120750000D02*
X162392856Y-120678571D01*
X162607142Y-120678571D01*
X162821427Y-120750000D01*
X162964285Y-120892857D01*
X163035713Y-121035714D01*
X163107142Y-121321429D01*
X163107142Y-121535714D01*
X163035713Y-121821429D01*
X162964285Y-121964286D01*
X162821427Y-122107143D01*
X162607142Y-122178571D01*
X162464285Y-122178571D01*
X162249999Y-122107143D01*
X162178570Y-122035714D01*
X162178570Y-121535714D01*
X162464285Y-121535714D01*
X160464285Y-122107143D02*
X160249999Y-122178571D01*
X159892856Y-122178571D01*
X159749999Y-122107143D01*
X159678570Y-122035714D01*
X159607142Y-121892857D01*
X159607142Y-121750000D01*
X159678570Y-121607143D01*
X159749999Y-121535714D01*
X159892856Y-121464286D01*
X160178570Y-121392857D01*
X160321428Y-121321429D01*
X160392856Y-121250000D01*
X160464285Y-121107143D01*
X160464285Y-120964286D01*
X160392856Y-120821429D01*
X160321428Y-120750000D01*
X160178570Y-120678571D01*
X159821428Y-120678571D01*
X159607142Y-120750000D01*
X156964285Y-122035714D02*
X157035714Y-122107143D01*
X157250000Y-122178571D01*
X157392857Y-122178571D01*
X157607142Y-122107143D01*
X157750000Y-121964286D01*
X157821428Y-121821429D01*
X157892857Y-121535714D01*
X157892857Y-121321429D01*
X157821428Y-121035714D01*
X157750000Y-120892857D01*
X157607142Y-120750000D01*
X157392857Y-120678571D01*
X157250000Y-120678571D01*
X157035714Y-120750000D01*
X156964285Y-120821429D01*
X155178571Y-122178571D02*
X155178571Y-120678571D01*
X154821428Y-120678571D01*
X154607143Y-120750000D01*
X154464285Y-120892857D01*
X154392857Y-121035714D01*
X154321428Y-121321429D01*
X154321428Y-121535714D01*
X154392857Y-121821429D01*
X154464285Y-121964286D01*
X154607143Y-122107143D01*
X154821428Y-122178571D01*
X155178571Y-122178571D01*
X152750000Y-120678571D02*
X152250000Y-122178571D01*
X151750000Y-120678571D01*
D13*
G36*
X164451600Y-113508216D02*
X164159078Y-113532339D01*
X163884474Y-113580653D01*
X163620627Y-113654592D01*
X163496028Y-113699479D01*
X163207417Y-113828560D01*
X162936251Y-113985458D01*
X162684338Y-114168287D01*
X162453489Y-114375159D01*
X162245513Y-114604190D01*
X162062218Y-114853491D01*
X161905415Y-115121176D01*
X161776912Y-115405359D01*
X161726717Y-115544356D01*
X161682236Y-115682772D01*
X161647767Y-115803644D01*
X161622082Y-115915030D01*
X161603953Y-116024987D01*
X161592150Y-116141573D01*
X161585445Y-116272845D01*
X161582609Y-116426861D01*
X161582294Y-116491533D01*
X161582369Y-116623859D01*
X161583565Y-116728975D01*
X161586315Y-116813532D01*
X161591054Y-116884179D01*
X161598217Y-116947568D01*
X161608239Y-117010347D01*
X161620283Y-117072918D01*
X161700315Y-117385777D01*
X161809733Y-117683200D01*
X161947068Y-117963715D01*
X162110854Y-118225850D01*
X162299623Y-118468134D01*
X162511906Y-118689094D01*
X162746235Y-118887259D01*
X163001144Y-119061156D01*
X163275164Y-119209315D01*
X163566826Y-119330263D01*
X163874665Y-119422528D01*
X163989358Y-119448478D01*
X164072002Y-119461491D01*
X164180500Y-119472555D01*
X164306884Y-119481412D01*
X164443183Y-119487804D01*
X164581428Y-119491472D01*
X164713650Y-119492157D01*
X164831877Y-119489601D01*
X164928142Y-119483544D01*
X164959600Y-119479964D01*
X165269802Y-119421057D01*
X165568977Y-119331083D01*
X165855136Y-119211614D01*
X166126292Y-119064222D01*
X166380456Y-118890478D01*
X166615639Y-118691954D01*
X166829855Y-118470222D01*
X167021113Y-118226854D01*
X167187427Y-117963420D01*
X167326808Y-117681494D01*
X167370654Y-117574105D01*
X167463906Y-117286566D01*
X167479837Y-117211199D01*
X166771467Y-117211199D01*
X166754708Y-117397124D01*
X166704936Y-117578749D01*
X166622910Y-117754315D01*
X166509388Y-117922068D01*
X166420210Y-118024882D01*
X166354946Y-118090759D01*
X166287204Y-118154196D01*
X166226016Y-118206979D01*
X166188850Y-118235328D01*
X166097081Y-118298532D01*
X165964374Y-118165233D01*
X165842560Y-118055904D01*
X165721789Y-117975506D01*
X165595321Y-117920010D01*
X165516824Y-117897673D01*
X165383435Y-117877038D01*
X165254531Y-117877392D01*
X165137345Y-117897918D01*
X165039110Y-117937799D01*
X165012700Y-117954628D01*
X164962951Y-118006015D01*
X164921877Y-118077062D01*
X164896555Y-118153601D01*
X164891867Y-118196550D01*
X164905154Y-118288074D01*
X164940854Y-118379428D01*
X164992721Y-118454945D01*
X164996418Y-118458844D01*
X165075160Y-118518418D01*
X165179870Y-118564388D01*
X165304928Y-118595363D01*
X165444714Y-118609956D01*
X165593608Y-118606777D01*
X165594600Y-118606695D01*
X165655950Y-118602594D01*
X165700443Y-118601593D01*
X165720811Y-118603781D01*
X165721054Y-118605162D01*
X165698517Y-118618804D01*
X165650786Y-118641214D01*
X165584542Y-118669714D01*
X165506464Y-118701626D01*
X165423234Y-118734272D01*
X165341531Y-118764974D01*
X165268034Y-118791052D01*
X165213600Y-118808604D01*
X165031943Y-118857430D01*
X164866442Y-118889695D01*
X164706397Y-118906279D01*
X164541104Y-118908067D01*
X164359863Y-118895939D01*
X164271155Y-118886284D01*
X164053857Y-118849104D01*
X163839356Y-118790894D01*
X163631551Y-118713932D01*
X163434338Y-118620501D01*
X163251612Y-118512880D01*
X163087272Y-118393351D01*
X162945213Y-118264194D01*
X162829333Y-118127689D01*
X162747709Y-117994619D01*
X162717492Y-117932274D01*
X162698332Y-117884123D01*
X162687719Y-117838653D01*
X162683138Y-117784350D01*
X162682078Y-117709699D01*
X162682067Y-117693799D01*
X162683079Y-117611748D01*
X162687391Y-117552853D01*
X162696913Y-117506433D01*
X162713554Y-117461805D01*
X162729710Y-117427445D01*
X162799726Y-117321486D01*
X162893106Y-117239144D01*
X163007645Y-117181827D01*
X163141142Y-117150939D01*
X163166993Y-117148297D01*
X163224719Y-117142546D01*
X163266316Y-117136664D01*
X163283162Y-117131882D01*
X163283200Y-117131703D01*
X163274768Y-117108421D01*
X163253528Y-117067728D01*
X163225567Y-117020322D01*
X163196970Y-116976899D01*
X163188735Y-116965666D01*
X163116649Y-116896512D01*
X163017270Y-116839704D01*
X162895572Y-116797297D01*
X162756529Y-116771348D01*
X162707467Y-116766731D01*
X162685411Y-116763675D01*
X162681565Y-116757536D01*
X162699213Y-116746369D01*
X162741639Y-116728229D01*
X162812126Y-116701170D01*
X162828501Y-116695032D01*
X162909321Y-116663834D01*
X162964459Y-116639373D01*
X163000415Y-116617827D01*
X163023685Y-116595377D01*
X163039201Y-116571152D01*
X163097260Y-116493360D01*
X163174704Y-116431739D01*
X163253345Y-116397224D01*
X163293697Y-116388996D01*
X163341365Y-116385394D01*
X163402449Y-116386601D01*
X163483049Y-116392798D01*
X163589262Y-116404168D01*
X163624650Y-116408331D01*
X163681147Y-116413500D01*
X163716615Y-116410131D01*
X163743411Y-116395363D01*
X163764350Y-116375989D01*
X163796838Y-116330820D01*
X163807909Y-116274730D01*
X163808134Y-116262281D01*
X163806675Y-116232189D01*
X163799688Y-116205782D01*
X163783255Y-116177478D01*
X163753458Y-116141699D01*
X163706380Y-116092862D01*
X163650081Y-116037144D01*
X163584169Y-115971538D01*
X163537868Y-115921975D01*
X163506116Y-115881299D01*
X163483851Y-115842354D01*
X163466010Y-115797985D01*
X163453046Y-115758612D01*
X163425688Y-115631254D01*
X163427272Y-115509756D01*
X163458744Y-115391004D01*
X163521051Y-115271887D01*
X163615140Y-115149294D01*
X163650199Y-115110850D01*
X163805445Y-114969743D01*
X163988098Y-114845517D01*
X164195454Y-114739546D01*
X164424812Y-114653208D01*
X164673468Y-114587877D01*
X164680200Y-114586464D01*
X164931558Y-114543987D01*
X165182202Y-114522490D01*
X165438515Y-114522026D01*
X165706878Y-114542649D01*
X165993674Y-114584412D01*
X166068733Y-114598111D01*
X166305800Y-114642978D01*
X166162097Y-114673991D01*
X165957303Y-114727496D01*
X165784185Y-114792828D01*
X165642652Y-114870072D01*
X165532615Y-114959313D01*
X165453982Y-115060640D01*
X165406664Y-115174138D01*
X165390569Y-115299892D01*
X165398774Y-115401313D01*
X165433764Y-115530457D01*
X165498296Y-115669821D01*
X165590787Y-115816273D01*
X165645397Y-115889118D01*
X165712804Y-115977325D01*
X165762066Y-116049489D01*
X165798099Y-116114371D01*
X165825821Y-116180730D01*
X165848148Y-116250406D01*
X165876597Y-116407748D01*
X165873876Y-116573040D01*
X165840399Y-116742004D01*
X165786353Y-116889166D01*
X165761267Y-116946868D01*
X165749521Y-116981979D01*
X165749904Y-117002490D01*
X165761204Y-117016391D01*
X165766449Y-117020399D01*
X165800141Y-117032154D01*
X165858365Y-117039711D01*
X165918935Y-117041866D01*
X166063181Y-117026334D01*
X166194601Y-116981439D01*
X166309724Y-116909735D01*
X166405080Y-116813774D01*
X166477200Y-116696109D01*
X166510790Y-116606417D01*
X166537684Y-116513904D01*
X166579986Y-116576157D01*
X166652204Y-116705152D01*
X166710375Y-116854524D01*
X166750934Y-117012449D01*
X166770315Y-117167099D01*
X166771467Y-117211199D01*
X167479837Y-117211199D01*
X167527200Y-116987141D01*
X167560197Y-116680369D01*
X167562559Y-116370787D01*
X167533945Y-116062932D01*
X167498381Y-115865000D01*
X167416540Y-115562893D01*
X167305448Y-115275553D01*
X167166995Y-115004444D01*
X167003074Y-114751030D01*
X166815577Y-114516773D01*
X166606396Y-114303138D01*
X166377423Y-114111587D01*
X166130550Y-113943586D01*
X165867670Y-113800596D01*
X165590674Y-113684082D01*
X165301454Y-113595508D01*
X165001902Y-113536336D01*
X164693911Y-113508031D01*
X164451600Y-113508216D01*
X164451600Y-113508216D01*
G37*
X164451600Y-113508216D02*
X164159078Y-113532339D01*
X163884474Y-113580653D01*
X163620627Y-113654592D01*
X163496028Y-113699479D01*
X163207417Y-113828560D01*
X162936251Y-113985458D01*
X162684338Y-114168287D01*
X162453489Y-114375159D01*
X162245513Y-114604190D01*
X162062218Y-114853491D01*
X161905415Y-115121176D01*
X161776912Y-115405359D01*
X161726717Y-115544356D01*
X161682236Y-115682772D01*
X161647767Y-115803644D01*
X161622082Y-115915030D01*
X161603953Y-116024987D01*
X161592150Y-116141573D01*
X161585445Y-116272845D01*
X161582609Y-116426861D01*
X161582294Y-116491533D01*
X161582369Y-116623859D01*
X161583565Y-116728975D01*
X161586315Y-116813532D01*
X161591054Y-116884179D01*
X161598217Y-116947568D01*
X161608239Y-117010347D01*
X161620283Y-117072918D01*
X161700315Y-117385777D01*
X161809733Y-117683200D01*
X161947068Y-117963715D01*
X162110854Y-118225850D01*
X162299623Y-118468134D01*
X162511906Y-118689094D01*
X162746235Y-118887259D01*
X163001144Y-119061156D01*
X163275164Y-119209315D01*
X163566826Y-119330263D01*
X163874665Y-119422528D01*
X163989358Y-119448478D01*
X164072002Y-119461491D01*
X164180500Y-119472555D01*
X164306884Y-119481412D01*
X164443183Y-119487804D01*
X164581428Y-119491472D01*
X164713650Y-119492157D01*
X164831877Y-119489601D01*
X164928142Y-119483544D01*
X164959600Y-119479964D01*
X165269802Y-119421057D01*
X165568977Y-119331083D01*
X165855136Y-119211614D01*
X166126292Y-119064222D01*
X166380456Y-118890478D01*
X166615639Y-118691954D01*
X166829855Y-118470222D01*
X167021113Y-118226854D01*
X167187427Y-117963420D01*
X167326808Y-117681494D01*
X167370654Y-117574105D01*
X167463906Y-117286566D01*
X167479837Y-117211199D01*
X166771467Y-117211199D01*
X166754708Y-117397124D01*
X166704936Y-117578749D01*
X166622910Y-117754315D01*
X166509388Y-117922068D01*
X166420210Y-118024882D01*
X166354946Y-118090759D01*
X166287204Y-118154196D01*
X166226016Y-118206979D01*
X166188850Y-118235328D01*
X166097081Y-118298532D01*
X165964374Y-118165233D01*
X165842560Y-118055904D01*
X165721789Y-117975506D01*
X165595321Y-117920010D01*
X165516824Y-117897673D01*
X165383435Y-117877038D01*
X165254531Y-117877392D01*
X165137345Y-117897918D01*
X165039110Y-117937799D01*
X165012700Y-117954628D01*
X164962951Y-118006015D01*
X164921877Y-118077062D01*
X164896555Y-118153601D01*
X164891867Y-118196550D01*
X164905154Y-118288074D01*
X164940854Y-118379428D01*
X164992721Y-118454945D01*
X164996418Y-118458844D01*
X165075160Y-118518418D01*
X165179870Y-118564388D01*
X165304928Y-118595363D01*
X165444714Y-118609956D01*
X165593608Y-118606777D01*
X165594600Y-118606695D01*
X165655950Y-118602594D01*
X165700443Y-118601593D01*
X165720811Y-118603781D01*
X165721054Y-118605162D01*
X165698517Y-118618804D01*
X165650786Y-118641214D01*
X165584542Y-118669714D01*
X165506464Y-118701626D01*
X165423234Y-118734272D01*
X165341531Y-118764974D01*
X165268034Y-118791052D01*
X165213600Y-118808604D01*
X165031943Y-118857430D01*
X164866442Y-118889695D01*
X164706397Y-118906279D01*
X164541104Y-118908067D01*
X164359863Y-118895939D01*
X164271155Y-118886284D01*
X164053857Y-118849104D01*
X163839356Y-118790894D01*
X163631551Y-118713932D01*
X163434338Y-118620501D01*
X163251612Y-118512880D01*
X163087272Y-118393351D01*
X162945213Y-118264194D01*
X162829333Y-118127689D01*
X162747709Y-117994619D01*
X162717492Y-117932274D01*
X162698332Y-117884123D01*
X162687719Y-117838653D01*
X162683138Y-117784350D01*
X162682078Y-117709699D01*
X162682067Y-117693799D01*
X162683079Y-117611748D01*
X162687391Y-117552853D01*
X162696913Y-117506433D01*
X162713554Y-117461805D01*
X162729710Y-117427445D01*
X162799726Y-117321486D01*
X162893106Y-117239144D01*
X163007645Y-117181827D01*
X163141142Y-117150939D01*
X163166993Y-117148297D01*
X163224719Y-117142546D01*
X163266316Y-117136664D01*
X163283162Y-117131882D01*
X163283200Y-117131703D01*
X163274768Y-117108421D01*
X163253528Y-117067728D01*
X163225567Y-117020322D01*
X163196970Y-116976899D01*
X163188735Y-116965666D01*
X163116649Y-116896512D01*
X163017270Y-116839704D01*
X162895572Y-116797297D01*
X162756529Y-116771348D01*
X162707467Y-116766731D01*
X162685411Y-116763675D01*
X162681565Y-116757536D01*
X162699213Y-116746369D01*
X162741639Y-116728229D01*
X162812126Y-116701170D01*
X162828501Y-116695032D01*
X162909321Y-116663834D01*
X162964459Y-116639373D01*
X163000415Y-116617827D01*
X163023685Y-116595377D01*
X163039201Y-116571152D01*
X163097260Y-116493360D01*
X163174704Y-116431739D01*
X163253345Y-116397224D01*
X163293697Y-116388996D01*
X163341365Y-116385394D01*
X163402449Y-116386601D01*
X163483049Y-116392798D01*
X163589262Y-116404168D01*
X163624650Y-116408331D01*
X163681147Y-116413500D01*
X163716615Y-116410131D01*
X163743411Y-116395363D01*
X163764350Y-116375989D01*
X163796838Y-116330820D01*
X163807909Y-116274730D01*
X163808134Y-116262281D01*
X163806675Y-116232189D01*
X163799688Y-116205782D01*
X163783255Y-116177478D01*
X163753458Y-116141699D01*
X163706380Y-116092862D01*
X163650081Y-116037144D01*
X163584169Y-115971538D01*
X163537868Y-115921975D01*
X163506116Y-115881299D01*
X163483851Y-115842354D01*
X163466010Y-115797985D01*
X163453046Y-115758612D01*
X163425688Y-115631254D01*
X163427272Y-115509756D01*
X163458744Y-115391004D01*
X163521051Y-115271887D01*
X163615140Y-115149294D01*
X163650199Y-115110850D01*
X163805445Y-114969743D01*
X163988098Y-114845517D01*
X164195454Y-114739546D01*
X164424812Y-114653208D01*
X164673468Y-114587877D01*
X164680200Y-114586464D01*
X164931558Y-114543987D01*
X165182202Y-114522490D01*
X165438515Y-114522026D01*
X165706878Y-114542649D01*
X165993674Y-114584412D01*
X166068733Y-114598111D01*
X166305800Y-114642978D01*
X166162097Y-114673991D01*
X165957303Y-114727496D01*
X165784185Y-114792828D01*
X165642652Y-114870072D01*
X165532615Y-114959313D01*
X165453982Y-115060640D01*
X165406664Y-115174138D01*
X165390569Y-115299892D01*
X165398774Y-115401313D01*
X165433764Y-115530457D01*
X165498296Y-115669821D01*
X165590787Y-115816273D01*
X165645397Y-115889118D01*
X165712804Y-115977325D01*
X165762066Y-116049489D01*
X165798099Y-116114371D01*
X165825821Y-116180730D01*
X165848148Y-116250406D01*
X165876597Y-116407748D01*
X165873876Y-116573040D01*
X165840399Y-116742004D01*
X165786353Y-116889166D01*
X165761267Y-116946868D01*
X165749521Y-116981979D01*
X165749904Y-117002490D01*
X165761204Y-117016391D01*
X165766449Y-117020399D01*
X165800141Y-117032154D01*
X165858365Y-117039711D01*
X165918935Y-117041866D01*
X166063181Y-117026334D01*
X166194601Y-116981439D01*
X166309724Y-116909735D01*
X166405080Y-116813774D01*
X166477200Y-116696109D01*
X166510790Y-116606417D01*
X166537684Y-116513904D01*
X166579986Y-116576157D01*
X166652204Y-116705152D01*
X166710375Y-116854524D01*
X166750934Y-117012449D01*
X166770315Y-117167099D01*
X166771467Y-117211199D01*
X167479837Y-117211199D01*
X167527200Y-116987141D01*
X167560197Y-116680369D01*
X167562559Y-116370787D01*
X167533945Y-116062932D01*
X167498381Y-115865000D01*
X167416540Y-115562893D01*
X167305448Y-115275553D01*
X167166995Y-115004444D01*
X167003074Y-114751030D01*
X166815577Y-114516773D01*
X166606396Y-114303138D01*
X166377423Y-114111587D01*
X166130550Y-113943586D01*
X165867670Y-113800596D01*
X165590674Y-113684082D01*
X165301454Y-113595508D01*
X165001902Y-113536336D01*
X164693911Y-113508031D01*
X164451600Y-113508216D01*
G36*
X157820986Y-116931690D02*
X157743189Y-116962397D01*
X157687361Y-117018530D01*
X157677205Y-117035772D01*
X157652867Y-117081635D01*
X157635933Y-116931799D01*
X157432733Y-116931799D01*
X157433487Y-117431333D01*
X157434197Y-117594288D01*
X157436188Y-117727378D01*
X157440066Y-117834598D01*
X157446433Y-117919943D01*
X157455896Y-117987406D01*
X157469057Y-118040983D01*
X157486521Y-118084668D01*
X157508893Y-118122457D01*
X157536777Y-118158344D01*
X157544890Y-118167726D01*
X157615775Y-118224551D01*
X157710366Y-118264468D01*
X157822227Y-118286012D01*
X157944923Y-118287717D01*
X158027270Y-118277523D01*
X158109119Y-118261201D01*
X158162265Y-118243570D01*
X158191608Y-118219077D01*
X158202044Y-118182163D01*
X158198471Y-118127273D01*
X158192709Y-118089825D01*
X158182590Y-118028650D01*
X158095529Y-118062375D01*
X158006239Y-118087181D01*
X157913617Y-118096469D01*
X157829046Y-118089959D01*
X157769266Y-118070383D01*
X157719100Y-118025669D01*
X157682880Y-117955872D01*
X157663644Y-117867971D01*
X157661333Y-117822449D01*
X157661333Y-117740117D01*
X157724833Y-117803329D01*
X157800127Y-117857213D01*
X157883272Y-117881110D01*
X157968967Y-117876241D01*
X158051910Y-117843827D01*
X158126800Y-117785089D01*
X158188335Y-117701248D01*
X158191243Y-117695903D01*
X158207246Y-117662141D01*
X158217960Y-117626717D01*
X158224407Y-117581936D01*
X158227607Y-117520101D01*
X158228582Y-117433519D01*
X158228600Y-117414399D01*
X158228397Y-117383641D01*
X157999104Y-117383641D01*
X157996449Y-117474551D01*
X157986483Y-117552726D01*
X157981873Y-117572132D01*
X157961556Y-117623520D01*
X157935146Y-117665197D01*
X157931167Y-117669499D01*
X157882971Y-117696001D01*
X157822440Y-117700252D01*
X157762731Y-117682296D01*
X157741938Y-117668839D01*
X157706188Y-117622315D01*
X157680018Y-117551675D01*
X157664663Y-117465626D01*
X157661363Y-117372875D01*
X157671354Y-117282130D01*
X157681248Y-117241794D01*
X157710464Y-117181724D01*
X157754879Y-117131433D01*
X157805459Y-117099507D01*
X157838149Y-117092666D01*
X157891476Y-117108003D01*
X157940430Y-117148344D01*
X157975721Y-117205187D01*
X157982389Y-117224670D01*
X157994425Y-117295260D01*
X157999104Y-117383641D01*
X158228397Y-117383641D01*
X158227997Y-117323168D01*
X158225370Y-117257321D01*
X158219490Y-117208388D01*
X158209131Y-117167895D01*
X158193063Y-117127371D01*
X158184207Y-117108067D01*
X158134406Y-117023651D01*
X158074654Y-116968197D01*
X157998056Y-116936941D01*
X157921155Y-116926228D01*
X157820986Y-116931690D01*
X157820986Y-116931690D01*
G37*
X157820986Y-116931690D02*
X157743189Y-116962397D01*
X157687361Y-117018530D01*
X157677205Y-117035772D01*
X157652867Y-117081635D01*
X157635933Y-116931799D01*
X157432733Y-116931799D01*
X157433487Y-117431333D01*
X157434197Y-117594288D01*
X157436188Y-117727378D01*
X157440066Y-117834598D01*
X157446433Y-117919943D01*
X157455896Y-117987406D01*
X157469057Y-118040983D01*
X157486521Y-118084668D01*
X157508893Y-118122457D01*
X157536777Y-118158344D01*
X157544890Y-118167726D01*
X157615775Y-118224551D01*
X157710366Y-118264468D01*
X157822227Y-118286012D01*
X157944923Y-118287717D01*
X158027270Y-118277523D01*
X158109119Y-118261201D01*
X158162265Y-118243570D01*
X158191608Y-118219077D01*
X158202044Y-118182163D01*
X158198471Y-118127273D01*
X158192709Y-118089825D01*
X158182590Y-118028650D01*
X158095529Y-118062375D01*
X158006239Y-118087181D01*
X157913617Y-118096469D01*
X157829046Y-118089959D01*
X157769266Y-118070383D01*
X157719100Y-118025669D01*
X157682880Y-117955872D01*
X157663644Y-117867971D01*
X157661333Y-117822449D01*
X157661333Y-117740117D01*
X157724833Y-117803329D01*
X157800127Y-117857213D01*
X157883272Y-117881110D01*
X157968967Y-117876241D01*
X158051910Y-117843827D01*
X158126800Y-117785089D01*
X158188335Y-117701248D01*
X158191243Y-117695903D01*
X158207246Y-117662141D01*
X158217960Y-117626717D01*
X158224407Y-117581936D01*
X158227607Y-117520101D01*
X158228582Y-117433519D01*
X158228600Y-117414399D01*
X158228397Y-117383641D01*
X157999104Y-117383641D01*
X157996449Y-117474551D01*
X157986483Y-117552726D01*
X157981873Y-117572132D01*
X157961556Y-117623520D01*
X157935146Y-117665197D01*
X157931167Y-117669499D01*
X157882971Y-117696001D01*
X157822440Y-117700252D01*
X157762731Y-117682296D01*
X157741938Y-117668839D01*
X157706188Y-117622315D01*
X157680018Y-117551675D01*
X157664663Y-117465626D01*
X157661363Y-117372875D01*
X157671354Y-117282130D01*
X157681248Y-117241794D01*
X157710464Y-117181724D01*
X157754879Y-117131433D01*
X157805459Y-117099507D01*
X157838149Y-117092666D01*
X157891476Y-117108003D01*
X157940430Y-117148344D01*
X157975721Y-117205187D01*
X157982389Y-117224670D01*
X157994425Y-117295260D01*
X157999104Y-117383641D01*
X158228397Y-117383641D01*
X158227997Y-117323168D01*
X158225370Y-117257321D01*
X158219490Y-117208388D01*
X158209131Y-117167895D01*
X158193063Y-117127371D01*
X158184207Y-117108067D01*
X158134406Y-117023651D01*
X158074654Y-116968197D01*
X157998056Y-116936941D01*
X157921155Y-116926228D01*
X157820986Y-116931690D01*
G36*
X158835828Y-116926859D02*
X158754385Y-116941677D01*
X158731823Y-116949631D01*
X158640595Y-117005376D01*
X158569063Y-117086455D01*
X158518564Y-117189745D01*
X158490439Y-117312118D01*
X158486026Y-117450451D01*
X158491357Y-117510850D01*
X158517957Y-117629185D01*
X158565165Y-117729500D01*
X158629994Y-117807923D01*
X158709459Y-117860583D01*
X158776699Y-117880815D01*
X158849298Y-117891879D01*
X158899971Y-117896917D01*
X158940050Y-117896301D01*
X158980866Y-117890404D01*
X158993540Y-117887943D01*
X159102614Y-117852770D01*
X159188459Y-117794844D01*
X159251992Y-117712953D01*
X159294131Y-117605883D01*
X159315796Y-117472420D01*
X159316643Y-117460990D01*
X159315988Y-117414399D01*
X159073290Y-117414399D01*
X159068872Y-117518915D01*
X159054921Y-117596328D01*
X159028187Y-117652813D01*
X158985416Y-117694549D01*
X158923356Y-117727710D01*
X158904227Y-117735470D01*
X158888996Y-117731033D01*
X158854477Y-117719384D01*
X158852559Y-117718716D01*
X158798734Y-117684276D01*
X158760839Y-117623127D01*
X158738072Y-117533629D01*
X158731728Y-117472075D01*
X158730505Y-117338234D01*
X158745765Y-117233102D01*
X158777387Y-117156959D01*
X158825251Y-117110088D01*
X158889234Y-117092767D01*
X158895204Y-117092666D01*
X158961620Y-117102945D01*
X159011335Y-117135341D01*
X159045645Y-117192195D01*
X159065846Y-117275848D01*
X159073233Y-117388639D01*
X159073290Y-117414399D01*
X159315988Y-117414399D01*
X159314681Y-117321544D01*
X159289766Y-117197799D01*
X159243405Y-117093170D01*
X159177108Y-117011073D01*
X159093398Y-116955384D01*
X159019875Y-116933944D01*
X158929171Y-116924358D01*
X158835828Y-116926859D01*
X158835828Y-116926859D01*
G37*
X158835828Y-116926859D02*
X158754385Y-116941677D01*
X158731823Y-116949631D01*
X158640595Y-117005376D01*
X158569063Y-117086455D01*
X158518564Y-117189745D01*
X158490439Y-117312118D01*
X158486026Y-117450451D01*
X158491357Y-117510850D01*
X158517957Y-117629185D01*
X158565165Y-117729500D01*
X158629994Y-117807923D01*
X158709459Y-117860583D01*
X158776699Y-117880815D01*
X158849298Y-117891879D01*
X158899971Y-117896917D01*
X158940050Y-117896301D01*
X158980866Y-117890404D01*
X158993540Y-117887943D01*
X159102614Y-117852770D01*
X159188459Y-117794844D01*
X159251992Y-117712953D01*
X159294131Y-117605883D01*
X159315796Y-117472420D01*
X159316643Y-117460990D01*
X159315988Y-117414399D01*
X159073290Y-117414399D01*
X159068872Y-117518915D01*
X159054921Y-117596328D01*
X159028187Y-117652813D01*
X158985416Y-117694549D01*
X158923356Y-117727710D01*
X158904227Y-117735470D01*
X158888996Y-117731033D01*
X158854477Y-117719384D01*
X158852559Y-117718716D01*
X158798734Y-117684276D01*
X158760839Y-117623127D01*
X158738072Y-117533629D01*
X158731728Y-117472075D01*
X158730505Y-117338234D01*
X158745765Y-117233102D01*
X158777387Y-117156959D01*
X158825251Y-117110088D01*
X158889234Y-117092767D01*
X158895204Y-117092666D01*
X158961620Y-117102945D01*
X159011335Y-117135341D01*
X159045645Y-117192195D01*
X159065846Y-117275848D01*
X159073233Y-117388639D01*
X159073290Y-117414399D01*
X159315988Y-117414399D01*
X159314681Y-117321544D01*
X159289766Y-117197799D01*
X159243405Y-117093170D01*
X159177108Y-117011073D01*
X159093398Y-116955384D01*
X159019875Y-116933944D01*
X158929171Y-116924358D01*
X158835828Y-116926859D01*
G36*
X156663330Y-116936569D02*
X156572324Y-116974206D01*
X156501717Y-117033137D01*
X156484094Y-117056618D01*
X156448966Y-117126506D01*
X156419154Y-117215866D01*
X156398625Y-117310332D01*
X156391333Y-117392557D01*
X156391333Y-117465199D01*
X156933200Y-117465199D01*
X156933200Y-117516840D01*
X156918936Y-117590881D01*
X156880541Y-117654822D01*
X156832154Y-117693513D01*
X156769041Y-117712719D01*
X156689020Y-117718901D01*
X156606326Y-117712335D01*
X156535197Y-117693298D01*
X156522574Y-117687495D01*
X156481904Y-117669769D01*
X156455153Y-117663662D01*
X156451260Y-117664917D01*
X156445862Y-117685877D01*
X156442587Y-117728601D01*
X156442133Y-117753834D01*
X156444447Y-117803997D01*
X156454958Y-117831805D01*
X156479024Y-117848647D01*
X156488700Y-117852858D01*
X156523493Y-117863608D01*
X156576467Y-117876223D01*
X156636562Y-117888534D01*
X156692714Y-117898371D01*
X156733863Y-117903565D01*
X156746933Y-117903513D01*
X156767359Y-117899423D01*
X156808436Y-117891271D01*
X156826073Y-117887781D01*
X156918984Y-117860036D01*
X156995693Y-117813394D01*
X157056328Y-117755122D01*
X157107668Y-117684665D01*
X157140498Y-117604037D01*
X157157077Y-117505643D01*
X157160124Y-117405933D01*
X157146937Y-117268792D01*
X156933200Y-117268792D01*
X156933200Y-117312799D01*
X156623996Y-117312799D01*
X156632999Y-117232925D01*
X156651926Y-117165150D01*
X156688159Y-117111895D01*
X156735391Y-117080723D01*
X156764014Y-117075733D01*
X156827903Y-117091345D01*
X156881668Y-117133306D01*
X156918901Y-117194303D01*
X156933192Y-117267021D01*
X156933200Y-117268792D01*
X157146937Y-117268792D01*
X157146385Y-117263062D01*
X157108685Y-117143905D01*
X157046896Y-117048112D01*
X157016257Y-117017027D01*
X156953749Y-116966820D01*
X156895669Y-116938023D01*
X156828101Y-116925382D01*
X156768111Y-116923333D01*
X156663330Y-116936569D01*
X156663330Y-116936569D01*
G37*
X156663330Y-116936569D02*
X156572324Y-116974206D01*
X156501717Y-117033137D01*
X156484094Y-117056618D01*
X156448966Y-117126506D01*
X156419154Y-117215866D01*
X156398625Y-117310332D01*
X156391333Y-117392557D01*
X156391333Y-117465199D01*
X156933200Y-117465199D01*
X156933200Y-117516840D01*
X156918936Y-117590881D01*
X156880541Y-117654822D01*
X156832154Y-117693513D01*
X156769041Y-117712719D01*
X156689020Y-117718901D01*
X156606326Y-117712335D01*
X156535197Y-117693298D01*
X156522574Y-117687495D01*
X156481904Y-117669769D01*
X156455153Y-117663662D01*
X156451260Y-117664917D01*
X156445862Y-117685877D01*
X156442587Y-117728601D01*
X156442133Y-117753834D01*
X156444447Y-117803997D01*
X156454958Y-117831805D01*
X156479024Y-117848647D01*
X156488700Y-117852858D01*
X156523493Y-117863608D01*
X156576467Y-117876223D01*
X156636562Y-117888534D01*
X156692714Y-117898371D01*
X156733863Y-117903565D01*
X156746933Y-117903513D01*
X156767359Y-117899423D01*
X156808436Y-117891271D01*
X156826073Y-117887781D01*
X156918984Y-117860036D01*
X156995693Y-117813394D01*
X157056328Y-117755122D01*
X157107668Y-117684665D01*
X157140498Y-117604037D01*
X157157077Y-117505643D01*
X157160124Y-117405933D01*
X157146937Y-117268792D01*
X156933200Y-117268792D01*
X156933200Y-117312799D01*
X156623996Y-117312799D01*
X156632999Y-117232925D01*
X156651926Y-117165150D01*
X156688159Y-117111895D01*
X156735391Y-117080723D01*
X156764014Y-117075733D01*
X156827903Y-117091345D01*
X156881668Y-117133306D01*
X156918901Y-117194303D01*
X156933192Y-117267021D01*
X156933200Y-117268792D01*
X157146937Y-117268792D01*
X157146385Y-117263062D01*
X157108685Y-117143905D01*
X157046896Y-117048112D01*
X157016257Y-117017027D01*
X156953749Y-116966820D01*
X156895669Y-116938023D01*
X156828101Y-116925382D01*
X156768111Y-116923333D01*
X156663330Y-116936569D01*
G36*
X153659615Y-116928647D02*
X153581175Y-116946276D01*
X153520417Y-116978751D01*
X153475285Y-117022136D01*
X153449207Y-117059891D01*
X153429058Y-117106547D01*
X153414181Y-117166515D01*
X153403920Y-117244209D01*
X153397619Y-117344038D01*
X153394621Y-117470416D01*
X153394134Y-117567633D01*
X153394134Y-117888533D01*
X153493922Y-117888533D01*
X153557034Y-117885485D01*
X153593502Y-117872913D01*
X153610267Y-117845671D01*
X153614267Y-117799313D01*
X153615943Y-117777671D01*
X153625766Y-117776799D01*
X153650931Y-117797901D01*
X153660834Y-117807096D01*
X153747400Y-117867230D01*
X153842397Y-117895170D01*
X153943165Y-117890171D01*
X153950854Y-117888454D01*
X154038479Y-117852987D01*
X154101926Y-117794251D01*
X154140322Y-117713548D01*
X154152794Y-117612182D01*
X154152210Y-117593922D01*
X153936000Y-117593922D01*
X153930905Y-117647247D01*
X153911412Y-117682835D01*
X153891383Y-117701037D01*
X153830357Y-117730101D01*
X153762164Y-117733738D01*
X153714929Y-117718698D01*
X153673010Y-117678134D01*
X153641234Y-117608788D01*
X153621417Y-117514706D01*
X153620721Y-117508991D01*
X153615813Y-117459435D01*
X153619070Y-117429308D01*
X153636210Y-117415596D01*
X153672954Y-117415286D01*
X153735021Y-117425363D01*
X153767708Y-117431530D01*
X153850382Y-117455819D01*
X153903805Y-117493334D01*
X153930981Y-117546973D01*
X153936000Y-117593922D01*
X154152210Y-117593922D01*
X154152025Y-117588149D01*
X154135630Y-117493986D01*
X154096929Y-117420029D01*
X154033978Y-117364828D01*
X153944835Y-117326934D01*
X153827557Y-117304897D01*
X153765591Y-117299797D01*
X153611410Y-117291006D01*
X153622676Y-117229936D01*
X153640429Y-117176931D01*
X153667961Y-117132341D01*
X153669390Y-117130766D01*
X153716348Y-117102738D01*
X153783480Y-117091147D01*
X153861364Y-117095964D01*
X153940579Y-117117159D01*
X153973496Y-117131700D01*
X154050598Y-117170734D01*
X154060523Y-117086927D01*
X154064788Y-117035987D01*
X154064590Y-116999615D01*
X154062472Y-116990211D01*
X154034929Y-116970681D01*
X153982076Y-116952321D01*
X153912463Y-116937041D01*
X153834637Y-116926751D01*
X153763106Y-116923333D01*
X153659615Y-116928647D01*
X153659615Y-116928647D01*
G37*
X153659615Y-116928647D02*
X153581175Y-116946276D01*
X153520417Y-116978751D01*
X153475285Y-117022136D01*
X153449207Y-117059891D01*
X153429058Y-117106547D01*
X153414181Y-117166515D01*
X153403920Y-117244209D01*
X153397619Y-117344038D01*
X153394621Y-117470416D01*
X153394134Y-117567633D01*
X153394134Y-117888533D01*
X153493922Y-117888533D01*
X153557034Y-117885485D01*
X153593502Y-117872913D01*
X153610267Y-117845671D01*
X153614267Y-117799313D01*
X153615943Y-117777671D01*
X153625766Y-117776799D01*
X153650931Y-117797901D01*
X153660834Y-117807096D01*
X153747400Y-117867230D01*
X153842397Y-117895170D01*
X153943165Y-117890171D01*
X153950854Y-117888454D01*
X154038479Y-117852987D01*
X154101926Y-117794251D01*
X154140322Y-117713548D01*
X154152794Y-117612182D01*
X154152210Y-117593922D01*
X153936000Y-117593922D01*
X153930905Y-117647247D01*
X153911412Y-117682835D01*
X153891383Y-117701037D01*
X153830357Y-117730101D01*
X153762164Y-117733738D01*
X153714929Y-117718698D01*
X153673010Y-117678134D01*
X153641234Y-117608788D01*
X153621417Y-117514706D01*
X153620721Y-117508991D01*
X153615813Y-117459435D01*
X153619070Y-117429308D01*
X153636210Y-117415596D01*
X153672954Y-117415286D01*
X153735021Y-117425363D01*
X153767708Y-117431530D01*
X153850382Y-117455819D01*
X153903805Y-117493334D01*
X153930981Y-117546973D01*
X153936000Y-117593922D01*
X154152210Y-117593922D01*
X154152025Y-117588149D01*
X154135630Y-117493986D01*
X154096929Y-117420029D01*
X154033978Y-117364828D01*
X153944835Y-117326934D01*
X153827557Y-117304897D01*
X153765591Y-117299797D01*
X153611410Y-117291006D01*
X153622676Y-117229936D01*
X153640429Y-117176931D01*
X153667961Y-117132341D01*
X153669390Y-117130766D01*
X153716348Y-117102738D01*
X153783480Y-117091147D01*
X153861364Y-117095964D01*
X153940579Y-117117159D01*
X153973496Y-117131700D01*
X154050598Y-117170734D01*
X154060523Y-117086927D01*
X154064788Y-117035987D01*
X154064590Y-116999615D01*
X154062472Y-116990211D01*
X154034929Y-116970681D01*
X153982076Y-116952321D01*
X153912463Y-116937041D01*
X153834637Y-116926751D01*
X153763106Y-116923333D01*
X153659615Y-116928647D01*
G36*
X152046078Y-116685001D02*
X152041583Y-116725996D01*
X152039517Y-116784286D01*
X152039467Y-116795448D01*
X152039467Y-116921563D01*
X151861667Y-116931799D01*
X151861667Y-117101133D01*
X152039467Y-117111369D01*
X152039467Y-117397755D01*
X152039275Y-117502559D01*
X152038300Y-117578582D01*
X152035939Y-117630907D01*
X152031590Y-117664619D01*
X152024652Y-117684803D01*
X152014523Y-117696543D01*
X152003278Y-117703509D01*
X151961277Y-117714442D01*
X151910675Y-117713721D01*
X151910144Y-117713636D01*
X151853200Y-117704395D01*
X151853200Y-117778935D01*
X151858226Y-117833851D01*
X151874922Y-117863547D01*
X151882834Y-117868775D01*
X151947879Y-117888908D01*
X152027997Y-117894617D01*
X152100236Y-117886217D01*
X152166526Y-117859083D01*
X152218769Y-117819273D01*
X152268067Y-117767859D01*
X152273306Y-117438729D01*
X152278546Y-117109599D01*
X152428934Y-117109599D01*
X152428934Y-116923333D01*
X152278224Y-116923333D01*
X152273145Y-116828218D01*
X152268067Y-116733103D01*
X152166467Y-116701467D01*
X152111460Y-116684890D01*
X152069776Y-116673344D01*
X152052167Y-116669582D01*
X152046078Y-116685001D01*
X152046078Y-116685001D01*
G37*
X152046078Y-116685001D02*
X152041583Y-116725996D01*
X152039517Y-116784286D01*
X152039467Y-116795448D01*
X152039467Y-116921563D01*
X151861667Y-116931799D01*
X151861667Y-117101133D01*
X152039467Y-117111369D01*
X152039467Y-117397755D01*
X152039275Y-117502559D01*
X152038300Y-117578582D01*
X152035939Y-117630907D01*
X152031590Y-117664619D01*
X152024652Y-117684803D01*
X152014523Y-117696543D01*
X152003278Y-117703509D01*
X151961277Y-117714442D01*
X151910675Y-117713721D01*
X151910144Y-117713636D01*
X151853200Y-117704395D01*
X151853200Y-117778935D01*
X151858226Y-117833851D01*
X151874922Y-117863547D01*
X151882834Y-117868775D01*
X151947879Y-117888908D01*
X152027997Y-117894617D01*
X152100236Y-117886217D01*
X152166526Y-117859083D01*
X152218769Y-117819273D01*
X152268067Y-117767859D01*
X152273306Y-117438729D01*
X152278546Y-117109599D01*
X152428934Y-117109599D01*
X152428934Y-116923333D01*
X152278224Y-116923333D01*
X152273145Y-116828218D01*
X152268067Y-116733103D01*
X152166467Y-116701467D01*
X152111460Y-116684890D01*
X152069776Y-116673344D01*
X152052167Y-116669582D01*
X152046078Y-116685001D01*
G36*
X151154967Y-116931633D02*
X151119392Y-116939345D01*
X151043672Y-116981399D01*
X150979742Y-117050727D01*
X150930532Y-117141915D01*
X150898975Y-117249549D01*
X150888000Y-117366673D01*
X150888000Y-117465199D01*
X151158934Y-117465199D01*
X151260260Y-117465404D01*
X151332590Y-117466418D01*
X151380796Y-117468846D01*
X151409749Y-117473289D01*
X151424317Y-117480350D01*
X151429373Y-117490632D01*
X151429867Y-117498723D01*
X151418663Y-117558934D01*
X151390064Y-117621748D01*
X151351589Y-117672820D01*
X151329393Y-117690441D01*
X151268537Y-117711531D01*
X151189420Y-117718759D01*
X151104595Y-117712307D01*
X151026619Y-117692360D01*
X151010767Y-117685789D01*
X150938800Y-117653122D01*
X150938800Y-117718642D01*
X150936409Y-117768004D01*
X150930522Y-117805102D01*
X150929190Y-117809207D01*
X150936734Y-117830651D01*
X150971165Y-117851148D01*
X151025505Y-117869248D01*
X151092779Y-117883497D01*
X151166010Y-117892445D01*
X151238221Y-117894639D01*
X151302435Y-117888628D01*
X151306809Y-117887791D01*
X151423622Y-117850543D01*
X151515896Y-117790278D01*
X151583770Y-117706784D01*
X151627381Y-117599850D01*
X151646870Y-117469266D01*
X151646592Y-117370153D01*
X151633077Y-117273620D01*
X151430671Y-117273620D01*
X151421388Y-117296776D01*
X151388079Y-117308368D01*
X151327091Y-117312376D01*
X151266836Y-117312799D01*
X151103805Y-117312799D01*
X151115292Y-117240833D01*
X151138647Y-117157459D01*
X151177485Y-117103916D01*
X151220792Y-117082036D01*
X151287101Y-117079677D01*
X151342744Y-117109017D01*
X151388572Y-117170526D01*
X151391767Y-117176706D01*
X151419580Y-117234923D01*
X151430671Y-117273620D01*
X151633077Y-117273620D01*
X151627492Y-117233733D01*
X151586410Y-117120509D01*
X151524438Y-117031829D01*
X151442668Y-116969042D01*
X151342193Y-116933495D01*
X151287260Y-116926481D01*
X151219068Y-116925925D01*
X151154967Y-116931633D01*
X151154967Y-116931633D01*
G37*
X151154967Y-116931633D02*
X151119392Y-116939345D01*
X151043672Y-116981399D01*
X150979742Y-117050727D01*
X150930532Y-117141915D01*
X150898975Y-117249549D01*
X150888000Y-117366673D01*
X150888000Y-117465199D01*
X151158934Y-117465199D01*
X151260260Y-117465404D01*
X151332590Y-117466418D01*
X151380796Y-117468846D01*
X151409749Y-117473289D01*
X151424317Y-117480350D01*
X151429373Y-117490632D01*
X151429867Y-117498723D01*
X151418663Y-117558934D01*
X151390064Y-117621748D01*
X151351589Y-117672820D01*
X151329393Y-117690441D01*
X151268537Y-117711531D01*
X151189420Y-117718759D01*
X151104595Y-117712307D01*
X151026619Y-117692360D01*
X151010767Y-117685789D01*
X150938800Y-117653122D01*
X150938800Y-117718642D01*
X150936409Y-117768004D01*
X150930522Y-117805102D01*
X150929190Y-117809207D01*
X150936734Y-117830651D01*
X150971165Y-117851148D01*
X151025505Y-117869248D01*
X151092779Y-117883497D01*
X151166010Y-117892445D01*
X151238221Y-117894639D01*
X151302435Y-117888628D01*
X151306809Y-117887791D01*
X151423622Y-117850543D01*
X151515896Y-117790278D01*
X151583770Y-117706784D01*
X151627381Y-117599850D01*
X151646870Y-117469266D01*
X151646592Y-117370153D01*
X151633077Y-117273620D01*
X151430671Y-117273620D01*
X151421388Y-117296776D01*
X151388079Y-117308368D01*
X151327091Y-117312376D01*
X151266836Y-117312799D01*
X151103805Y-117312799D01*
X151115292Y-117240833D01*
X151138647Y-117157459D01*
X151177485Y-117103916D01*
X151220792Y-117082036D01*
X151287101Y-117079677D01*
X151342744Y-117109017D01*
X151388572Y-117170526D01*
X151391767Y-117176706D01*
X151419580Y-117234923D01*
X151430671Y-117273620D01*
X151633077Y-117273620D01*
X151627492Y-117233733D01*
X151586410Y-117120509D01*
X151524438Y-117031829D01*
X151442668Y-116969042D01*
X151342193Y-116933495D01*
X151287260Y-116926481D01*
X151219068Y-116925925D01*
X151154967Y-116931633D01*
G36*
X149573206Y-116924409D02*
X149504266Y-116931805D01*
X149451155Y-116945292D01*
X149421986Y-116964344D01*
X149419920Y-116968282D01*
X149416799Y-116998557D01*
X149419656Y-117046605D01*
X149422080Y-117065251D01*
X149433142Y-117139020D01*
X149504404Y-117114388D01*
X149595870Y-117097440D01*
X149679049Y-117110402D01*
X149748956Y-117151559D01*
X149798736Y-117215592D01*
X149819654Y-117279023D01*
X149829435Y-117360557D01*
X149828214Y-117447446D01*
X149816123Y-117526942D01*
X149794885Y-117583675D01*
X149734572Y-117657676D01*
X149659968Y-117702717D01*
X149575572Y-117717222D01*
X149485879Y-117699614D01*
X149475673Y-117695562D01*
X149419100Y-117671924D01*
X149408992Y-117757269D01*
X149404655Y-117808691D01*
X149404755Y-117845627D01*
X149406931Y-117855633D01*
X149420911Y-117864233D01*
X149455096Y-117873236D01*
X149514005Y-117883585D01*
X149601067Y-117896072D01*
X149644009Y-117896741D01*
X149700919Y-117891557D01*
X149721243Y-117888473D01*
X149816407Y-117862887D01*
X149894330Y-117818293D01*
X149961217Y-117755171D01*
X150018843Y-117668158D01*
X150057012Y-117560716D01*
X150074459Y-117440983D01*
X150069922Y-117317095D01*
X150046043Y-117208911D01*
X150006093Y-117124980D01*
X149945828Y-117047143D01*
X149873740Y-116984317D01*
X149798321Y-116945421D01*
X149793836Y-116944031D01*
X149726105Y-116929996D01*
X149649857Y-116923631D01*
X149573206Y-116924409D01*
X149573206Y-116924409D01*
G37*
X149573206Y-116924409D02*
X149504266Y-116931805D01*
X149451155Y-116945292D01*
X149421986Y-116964344D01*
X149419920Y-116968282D01*
X149416799Y-116998557D01*
X149419656Y-117046605D01*
X149422080Y-117065251D01*
X149433142Y-117139020D01*
X149504404Y-117114388D01*
X149595870Y-117097440D01*
X149679049Y-117110402D01*
X149748956Y-117151559D01*
X149798736Y-117215592D01*
X149819654Y-117279023D01*
X149829435Y-117360557D01*
X149828214Y-117447446D01*
X149816123Y-117526942D01*
X149794885Y-117583675D01*
X149734572Y-117657676D01*
X149659968Y-117702717D01*
X149575572Y-117717222D01*
X149485879Y-117699614D01*
X149475673Y-117695562D01*
X149419100Y-117671924D01*
X149408992Y-117757269D01*
X149404655Y-117808691D01*
X149404755Y-117845627D01*
X149406931Y-117855633D01*
X149420911Y-117864233D01*
X149455096Y-117873236D01*
X149514005Y-117883585D01*
X149601067Y-117896072D01*
X149644009Y-117896741D01*
X149700919Y-117891557D01*
X149721243Y-117888473D01*
X149816407Y-117862887D01*
X149894330Y-117818293D01*
X149961217Y-117755171D01*
X150018843Y-117668158D01*
X150057012Y-117560716D01*
X150074459Y-117440983D01*
X150069922Y-117317095D01*
X150046043Y-117208911D01*
X150006093Y-117124980D01*
X149945828Y-117047143D01*
X149873740Y-116984317D01*
X149798321Y-116945421D01*
X149793836Y-116944031D01*
X149726105Y-116929996D01*
X149649857Y-116923631D01*
X149573206Y-116924409D01*
G36*
X160092444Y-117012233D02*
X160079218Y-117060084D01*
X160059622Y-117132425D01*
X160035877Y-117220987D01*
X160010207Y-117317500D01*
X159998231Y-117362796D01*
X159974429Y-117451877D01*
X159953316Y-117528799D01*
X159936495Y-117587881D01*
X159925570Y-117623440D01*
X159922439Y-117631205D01*
X159914671Y-117620741D01*
X159902716Y-117586509D01*
X159896520Y-117564275D01*
X159884639Y-117519199D01*
X159866396Y-117450680D01*
X159844262Y-117367970D01*
X159820707Y-117280320D01*
X159820334Y-117278933D01*
X159796834Y-117191497D01*
X159774774Y-117109065D01*
X159756600Y-117040807D01*
X159744761Y-116995892D01*
X159744607Y-116995299D01*
X159725895Y-116923333D01*
X159616481Y-116923333D01*
X159560616Y-116925456D01*
X159521186Y-116931009D01*
X159507067Y-116938379D01*
X159511634Y-116957805D01*
X159525420Y-117006759D01*
X159548553Y-117085671D01*
X159581161Y-117194968D01*
X159623372Y-117335079D01*
X159675316Y-117506430D01*
X159737118Y-117709452D01*
X159776265Y-117837733D01*
X159784869Y-117858800D01*
X159799896Y-117871794D01*
X159828893Y-117879091D01*
X159879405Y-117883071D01*
X159926178Y-117884962D01*
X159995179Y-117886523D01*
X160037533Y-117884322D01*
X160060366Y-117877121D01*
X160070805Y-117863679D01*
X160072205Y-117859562D01*
X160079440Y-117835566D01*
X160094890Y-117784481D01*
X160116943Y-117711629D01*
X160143987Y-117622330D01*
X160174408Y-117521905D01*
X160206595Y-117415676D01*
X160238935Y-117308962D01*
X160269815Y-117207086D01*
X160297625Y-117115367D01*
X160320750Y-117039128D01*
X160337579Y-116983688D01*
X160346499Y-116954369D01*
X160346929Y-116952966D01*
X160348066Y-116937445D01*
X160335257Y-116928497D01*
X160302012Y-116924376D01*
X160241837Y-116923336D01*
X160236814Y-116923333D01*
X160117613Y-116923333D01*
X160092444Y-117012233D01*
X160092444Y-117012233D01*
G37*
X160092444Y-117012233D02*
X160079218Y-117060084D01*
X160059622Y-117132425D01*
X160035877Y-117220987D01*
X160010207Y-117317500D01*
X159998231Y-117362796D01*
X159974429Y-117451877D01*
X159953316Y-117528799D01*
X159936495Y-117587881D01*
X159925570Y-117623440D01*
X159922439Y-117631205D01*
X159914671Y-117620741D01*
X159902716Y-117586509D01*
X159896520Y-117564275D01*
X159884639Y-117519199D01*
X159866396Y-117450680D01*
X159844262Y-117367970D01*
X159820707Y-117280320D01*
X159820334Y-117278933D01*
X159796834Y-117191497D01*
X159774774Y-117109065D01*
X159756600Y-117040807D01*
X159744761Y-116995892D01*
X159744607Y-116995299D01*
X159725895Y-116923333D01*
X159616481Y-116923333D01*
X159560616Y-116925456D01*
X159521186Y-116931009D01*
X159507067Y-116938379D01*
X159511634Y-116957805D01*
X159525420Y-117006759D01*
X159548553Y-117085671D01*
X159581161Y-117194968D01*
X159623372Y-117335079D01*
X159675316Y-117506430D01*
X159737118Y-117709452D01*
X159776265Y-117837733D01*
X159784869Y-117858800D01*
X159799896Y-117871794D01*
X159828893Y-117879091D01*
X159879405Y-117883071D01*
X159926178Y-117884962D01*
X159995179Y-117886523D01*
X160037533Y-117884322D01*
X160060366Y-117877121D01*
X160070805Y-117863679D01*
X160072205Y-117859562D01*
X160079440Y-117835566D01*
X160094890Y-117784481D01*
X160116943Y-117711629D01*
X160143987Y-117622330D01*
X160174408Y-117521905D01*
X160206595Y-117415676D01*
X160238935Y-117308962D01*
X160269815Y-117207086D01*
X160297625Y-117115367D01*
X160320750Y-117039128D01*
X160337579Y-116983688D01*
X160346499Y-116954369D01*
X160346929Y-116952966D01*
X160348066Y-116937445D01*
X160335257Y-116928497D01*
X160302012Y-116924376D01*
X160241837Y-116923336D01*
X160236814Y-116923333D01*
X160117613Y-116923333D01*
X160092444Y-117012233D01*
G36*
X155883333Y-117888533D02*
X156103467Y-117888533D01*
X156103467Y-116500000D01*
X155883333Y-116500000D01*
X155883333Y-117888533D01*
X155883333Y-117888533D01*
G37*
X155883333Y-117888533D02*
X156103467Y-117888533D01*
X156103467Y-116500000D01*
X155883333Y-116500000D01*
X155883333Y-117888533D01*
G36*
X154350823Y-116926607D02*
X154330502Y-116940059D01*
X154325405Y-116969275D01*
X154333421Y-117019353D01*
X154352439Y-117095390D01*
X154361478Y-117129740D01*
X154386287Y-117223823D01*
X154413818Y-117327804D01*
X154442574Y-117436071D01*
X154471058Y-117543015D01*
X154497771Y-117643023D01*
X154521215Y-117730486D01*
X154539894Y-117799791D01*
X154552308Y-117845329D01*
X154556124Y-117858900D01*
X154566083Y-117874544D01*
X154589389Y-117883612D01*
X154633317Y-117887723D01*
X154689158Y-117888533D01*
X154813499Y-117888533D01*
X154847230Y-117740366D01*
X154865201Y-117661393D01*
X154887517Y-117563273D01*
X154911023Y-117459885D01*
X154928035Y-117385031D01*
X154946471Y-117307647D01*
X154963054Y-117244923D01*
X154976102Y-117202753D01*
X154983932Y-117187029D01*
X154984483Y-117187237D01*
X154990836Y-117205875D01*
X155003197Y-117252543D01*
X155020331Y-117322190D01*
X155041003Y-117409764D01*
X155063979Y-117510212D01*
X155070295Y-117538339D01*
X155146733Y-117880066D01*
X155268060Y-117885012D01*
X155328871Y-117885463D01*
X155375377Y-117882018D01*
X155398245Y-117875413D01*
X155398809Y-117874713D01*
X155406260Y-117853589D01*
X155420759Y-117804908D01*
X155440905Y-117733912D01*
X155465297Y-117645840D01*
X155492537Y-117545932D01*
X155521224Y-117439429D01*
X155549958Y-117331571D01*
X155577338Y-117227599D01*
X155601965Y-117132751D01*
X155622438Y-117052269D01*
X155637357Y-116991393D01*
X155645323Y-116955363D01*
X155646267Y-116948550D01*
X155640835Y-116934287D01*
X155619979Y-116926991D01*
X155576862Y-116925361D01*
X155532058Y-116926792D01*
X155417850Y-116931799D01*
X155364277Y-117185799D01*
X155343688Y-117283689D01*
X155323826Y-117378606D01*
X155306569Y-117461544D01*
X155293795Y-117523498D01*
X155290740Y-117538509D01*
X155279131Y-117589401D01*
X155269052Y-117622317D01*
X155263524Y-117629968D01*
X155257846Y-117611899D01*
X155246395Y-117565970D01*
X155230401Y-117497456D01*
X155211095Y-117411629D01*
X155189706Y-117313766D01*
X155189137Y-117311125D01*
X155167375Y-117210349D01*
X155147534Y-117118893D01*
X155130922Y-117042748D01*
X155118846Y-116987907D01*
X155112701Y-116960730D01*
X155105894Y-116941248D01*
X155092077Y-116930093D01*
X155063718Y-116925444D01*
X155013284Y-116925479D01*
X154972668Y-116926863D01*
X154841933Y-116931799D01*
X154766009Y-117292460D01*
X154743692Y-117396562D01*
X154723455Y-117487349D01*
X154706358Y-117560352D01*
X154693463Y-117611105D01*
X154685830Y-117635141D01*
X154684402Y-117636070D01*
X154679388Y-117615004D01*
X154668655Y-117565972D01*
X154653313Y-117494183D01*
X154634471Y-117404842D01*
X154613240Y-117303155D01*
X154607481Y-117275410D01*
X154536245Y-116931799D01*
X154445574Y-116926604D01*
X154388477Y-116923821D01*
X154350823Y-116926607D01*
X154350823Y-116926607D01*
G37*
X154350823Y-116926607D02*
X154330502Y-116940059D01*
X154325405Y-116969275D01*
X154333421Y-117019353D01*
X154352439Y-117095390D01*
X154361478Y-117129740D01*
X154386287Y-117223823D01*
X154413818Y-117327804D01*
X154442574Y-117436071D01*
X154471058Y-117543015D01*
X154497771Y-117643023D01*
X154521215Y-117730486D01*
X154539894Y-117799791D01*
X154552308Y-117845329D01*
X154556124Y-117858900D01*
X154566083Y-117874544D01*
X154589389Y-117883612D01*
X154633317Y-117887723D01*
X154689158Y-117888533D01*
X154813499Y-117888533D01*
X154847230Y-117740366D01*
X154865201Y-117661393D01*
X154887517Y-117563273D01*
X154911023Y-117459885D01*
X154928035Y-117385031D01*
X154946471Y-117307647D01*
X154963054Y-117244923D01*
X154976102Y-117202753D01*
X154983932Y-117187029D01*
X154984483Y-117187237D01*
X154990836Y-117205875D01*
X155003197Y-117252543D01*
X155020331Y-117322190D01*
X155041003Y-117409764D01*
X155063979Y-117510212D01*
X155070295Y-117538339D01*
X155146733Y-117880066D01*
X155268060Y-117885012D01*
X155328871Y-117885463D01*
X155375377Y-117882018D01*
X155398245Y-117875413D01*
X155398809Y-117874713D01*
X155406260Y-117853589D01*
X155420759Y-117804908D01*
X155440905Y-117733912D01*
X155465297Y-117645840D01*
X155492537Y-117545932D01*
X155521224Y-117439429D01*
X155549958Y-117331571D01*
X155577338Y-117227599D01*
X155601965Y-117132751D01*
X155622438Y-117052269D01*
X155637357Y-116991393D01*
X155645323Y-116955363D01*
X155646267Y-116948550D01*
X155640835Y-116934287D01*
X155619979Y-116926991D01*
X155576862Y-116925361D01*
X155532058Y-116926792D01*
X155417850Y-116931799D01*
X155364277Y-117185799D01*
X155343688Y-117283689D01*
X155323826Y-117378606D01*
X155306569Y-117461544D01*
X155293795Y-117523498D01*
X155290740Y-117538509D01*
X155279131Y-117589401D01*
X155269052Y-117622317D01*
X155263524Y-117629968D01*
X155257846Y-117611899D01*
X155246395Y-117565970D01*
X155230401Y-117497456D01*
X155211095Y-117411629D01*
X155189706Y-117313766D01*
X155189137Y-117311125D01*
X155167375Y-117210349D01*
X155147534Y-117118893D01*
X155130922Y-117042748D01*
X155118846Y-116987907D01*
X155112701Y-116960730D01*
X155105894Y-116941248D01*
X155092077Y-116930093D01*
X155063718Y-116925444D01*
X155013284Y-116925479D01*
X154972668Y-116926863D01*
X154841933Y-116931799D01*
X154766009Y-117292460D01*
X154743692Y-117396562D01*
X154723455Y-117487349D01*
X154706358Y-117560352D01*
X154693463Y-117611105D01*
X154685830Y-117635141D01*
X154684402Y-117636070D01*
X154679388Y-117615004D01*
X154668655Y-117565972D01*
X154653313Y-117494183D01*
X154634471Y-117404842D01*
X154613240Y-117303155D01*
X154607481Y-117275410D01*
X154536245Y-116931799D01*
X154445574Y-116926604D01*
X154388477Y-116923821D01*
X154350823Y-116926607D01*
G36*
X152598267Y-117033722D02*
X152598894Y-117092761D01*
X152602612Y-117124864D01*
X152612178Y-117136960D01*
X152630349Y-117135976D01*
X152638195Y-117134090D01*
X152692257Y-117135106D01*
X152752824Y-117157292D01*
X152806410Y-117194480D01*
X152829783Y-117221706D01*
X152841109Y-117243145D01*
X152849615Y-117271550D01*
X152855840Y-117312141D01*
X152860321Y-117370136D01*
X152863597Y-117450756D01*
X152866205Y-117559219D01*
X152866582Y-117578720D01*
X152872430Y-117888533D01*
X153089334Y-117888533D01*
X153092626Y-117465199D01*
X153093576Y-117345692D01*
X153094495Y-117234753D01*
X153095337Y-117137739D01*
X153096054Y-117060001D01*
X153096599Y-117006893D01*
X153096859Y-116986833D01*
X153097800Y-116931799D01*
X152894600Y-116931799D01*
X152889542Y-117000714D01*
X152884485Y-117069628D01*
X152811337Y-116996480D01*
X152765434Y-116954092D01*
X152728852Y-116931951D01*
X152689643Y-116923948D01*
X152668228Y-116923333D01*
X152598267Y-116923333D01*
X152598267Y-117033722D01*
X152598267Y-117033722D01*
G37*
X152598267Y-117033722D02*
X152598894Y-117092761D01*
X152602612Y-117124864D01*
X152612178Y-117136960D01*
X152630349Y-117135976D01*
X152638195Y-117134090D01*
X152692257Y-117135106D01*
X152752824Y-117157292D01*
X152806410Y-117194480D01*
X152829783Y-117221706D01*
X152841109Y-117243145D01*
X152849615Y-117271550D01*
X152855840Y-117312141D01*
X152860321Y-117370136D01*
X152863597Y-117450756D01*
X152866205Y-117559219D01*
X152866582Y-117578720D01*
X152872430Y-117888533D01*
X153089334Y-117888533D01*
X153092626Y-117465199D01*
X153093576Y-117345692D01*
X153094495Y-117234753D01*
X153095337Y-117137739D01*
X153096054Y-117060001D01*
X153096599Y-117006893D01*
X153096859Y-116986833D01*
X153097800Y-116931799D01*
X152894600Y-116931799D01*
X152889542Y-117000714D01*
X152884485Y-117069628D01*
X152811337Y-116996480D01*
X152765434Y-116954092D01*
X152728852Y-116931951D01*
X152689643Y-116923948D01*
X152668228Y-116923333D01*
X152598267Y-116923333D01*
X152598267Y-117033722D01*
G36*
X150366542Y-117756509D02*
X150371533Y-117880066D01*
X150477586Y-117885113D01*
X150541180Y-117885864D01*
X150577543Y-117879900D01*
X150592801Y-117866284D01*
X150596951Y-117837145D01*
X150598124Y-117786753D01*
X150596815Y-117742703D01*
X150591667Y-117642999D01*
X150361551Y-117632951D01*
X150366542Y-117756509D01*
X150366542Y-117756509D01*
G37*
X150366542Y-117756509D02*
X150371533Y-117880066D01*
X150477586Y-117885113D01*
X150541180Y-117885864D01*
X150577543Y-117879900D01*
X150592801Y-117866284D01*
X150596951Y-117837145D01*
X150598124Y-117786753D01*
X150596815Y-117742703D01*
X150591667Y-117642999D01*
X150361551Y-117632951D01*
X150366542Y-117756509D01*
G36*
X148940667Y-116774701D02*
X148940447Y-116876252D01*
X148939483Y-116948003D01*
X148937324Y-116994015D01*
X148933516Y-117018355D01*
X148927605Y-117025084D01*
X148919139Y-117018268D01*
X148914239Y-117011671D01*
X148862254Y-116964527D01*
X148790072Y-116934149D01*
X148707728Y-116922044D01*
X148625261Y-116929721D01*
X148554449Y-116957613D01*
X148518555Y-116982653D01*
X148490442Y-117011717D01*
X148469179Y-117049052D01*
X148453835Y-117098905D01*
X148443480Y-117165523D01*
X148437183Y-117253155D01*
X148434014Y-117366046D01*
X148433042Y-117508445D01*
X148433039Y-117511766D01*
X148432667Y-117888533D01*
X148649790Y-117888533D01*
X148655616Y-117545633D01*
X148658892Y-117407705D01*
X148663550Y-117301903D01*
X148669714Y-117226505D01*
X148677507Y-117179795D01*
X148683010Y-117164833D01*
X148721950Y-117126516D01*
X148775017Y-117111347D01*
X148831959Y-117118964D01*
X148882523Y-117149009D01*
X148902353Y-117172545D01*
X148913070Y-117193514D01*
X148921341Y-117222799D01*
X148927665Y-117265300D01*
X148932539Y-117325917D01*
X148936463Y-117409552D01*
X148939935Y-117521105D01*
X148940667Y-117549043D01*
X148949133Y-117880066D01*
X149177733Y-117890080D01*
X149177733Y-116500000D01*
X148940667Y-116500000D01*
X148940667Y-116774701D01*
X148940667Y-116774701D01*
G37*
X148940667Y-116774701D02*
X148940447Y-116876252D01*
X148939483Y-116948003D01*
X148937324Y-116994015D01*
X148933516Y-117018355D01*
X148927605Y-117025084D01*
X148919139Y-117018268D01*
X148914239Y-117011671D01*
X148862254Y-116964527D01*
X148790072Y-116934149D01*
X148707728Y-116922044D01*
X148625261Y-116929721D01*
X148554449Y-116957613D01*
X148518555Y-116982653D01*
X148490442Y-117011717D01*
X148469179Y-117049052D01*
X148453835Y-117098905D01*
X148443480Y-117165523D01*
X148437183Y-117253155D01*
X148434014Y-117366046D01*
X148433042Y-117508445D01*
X148433039Y-117511766D01*
X148432667Y-117888533D01*
X148649790Y-117888533D01*
X148655616Y-117545633D01*
X148658892Y-117407705D01*
X148663550Y-117301903D01*
X148669714Y-117226505D01*
X148677507Y-117179795D01*
X148683010Y-117164833D01*
X148721950Y-117126516D01*
X148775017Y-117111347D01*
X148831959Y-117118964D01*
X148882523Y-117149009D01*
X148902353Y-117172545D01*
X148913070Y-117193514D01*
X148921341Y-117222799D01*
X148927665Y-117265300D01*
X148932539Y-117325917D01*
X148936463Y-117409552D01*
X148939935Y-117521105D01*
X148940667Y-117549043D01*
X148949133Y-117880066D01*
X149177733Y-117890080D01*
X149177733Y-116500000D01*
X148940667Y-116500000D01*
X148940667Y-116774701D01*
G36*
X163203641Y-116514986D02*
X163173141Y-116544713D01*
X163164667Y-116578522D01*
X163177962Y-116629042D01*
X163211370Y-116660626D01*
X163255175Y-116670376D01*
X163299659Y-116655392D01*
X163327091Y-116627000D01*
X163345007Y-116593858D01*
X163342109Y-116567799D01*
X163327091Y-116542333D01*
X163291121Y-116511455D01*
X163246469Y-116503120D01*
X163203641Y-116514986D01*
X163203641Y-116514986D01*
G37*
X163203641Y-116514986D02*
X163173141Y-116544713D01*
X163164667Y-116578522D01*
X163177962Y-116629042D01*
X163211370Y-116660626D01*
X163255175Y-116670376D01*
X163299659Y-116655392D01*
X163327091Y-116627000D01*
X163345007Y-116593858D01*
X163342109Y-116567799D01*
X163327091Y-116542333D01*
X163291121Y-116511455D01*
X163246469Y-116503120D01*
X163203641Y-116514986D01*
G36*
X160721779Y-107103541D02*
X160710846Y-107121643D01*
X160686616Y-107148804D01*
X160646136Y-107121643D01*
X160553790Y-107079601D01*
X160439166Y-107087480D01*
X160329192Y-107141856D01*
X160302494Y-107165351D01*
X160230019Y-107282177D01*
X160211085Y-107417557D01*
X160245977Y-107546294D01*
X160297411Y-107614247D01*
X160392895Y-107669358D01*
X160510299Y-107692891D01*
X160619475Y-107682045D01*
X160677886Y-107649601D01*
X160704589Y-107638237D01*
X160717963Y-107679790D01*
X160721429Y-107776601D01*
X160727980Y-107886838D01*
X160750432Y-107938611D01*
X160775858Y-107947143D01*
X160799324Y-107936226D01*
X160815111Y-107896073D01*
X160824607Y-107815581D01*
X160829199Y-107683649D01*
X160830286Y-107511715D01*
X160829264Y-107386750D01*
X160707293Y-107386750D01*
X160691142Y-107484518D01*
X160628183Y-107560669D01*
X160604289Y-107573868D01*
X160496992Y-107589345D01*
X160404748Y-107537205D01*
X160351627Y-107456534D01*
X160339353Y-107354648D01*
X160380978Y-107260056D01*
X160461107Y-107197303D01*
X160521858Y-107185143D01*
X160617957Y-107214924D01*
X160681334Y-107289506D01*
X160707293Y-107386750D01*
X160829264Y-107386750D01*
X160828735Y-107322085D01*
X160823247Y-107194400D01*
X160812576Y-107118081D01*
X160795471Y-107082552D01*
X160778881Y-107076286D01*
X160721779Y-107103541D01*
X160721779Y-107103541D01*
G37*
X160721779Y-107103541D02*
X160710846Y-107121643D01*
X160686616Y-107148804D01*
X160646136Y-107121643D01*
X160553790Y-107079601D01*
X160439166Y-107087480D01*
X160329192Y-107141856D01*
X160302494Y-107165351D01*
X160230019Y-107282177D01*
X160211085Y-107417557D01*
X160245977Y-107546294D01*
X160297411Y-107614247D01*
X160392895Y-107669358D01*
X160510299Y-107692891D01*
X160619475Y-107682045D01*
X160677886Y-107649601D01*
X160704589Y-107638237D01*
X160717963Y-107679790D01*
X160721429Y-107776601D01*
X160727980Y-107886838D01*
X160750432Y-107938611D01*
X160775858Y-107947143D01*
X160799324Y-107936226D01*
X160815111Y-107896073D01*
X160824607Y-107815581D01*
X160829199Y-107683649D01*
X160830286Y-107511715D01*
X160829264Y-107386750D01*
X160707293Y-107386750D01*
X160691142Y-107484518D01*
X160628183Y-107560669D01*
X160604289Y-107573868D01*
X160496992Y-107589345D01*
X160404748Y-107537205D01*
X160351627Y-107456534D01*
X160339353Y-107354648D01*
X160380978Y-107260056D01*
X160461107Y-107197303D01*
X160521858Y-107185143D01*
X160617957Y-107214924D01*
X160681334Y-107289506D01*
X160707293Y-107386750D01*
X160829264Y-107386750D01*
X160828735Y-107322085D01*
X160823247Y-107194400D01*
X160812576Y-107118081D01*
X160795471Y-107082552D01*
X160778881Y-107076286D01*
X160721779Y-107103541D01*
G36*
X161150819Y-107106792D02*
X161049208Y-107186627D01*
X160986336Y-107298266D01*
X160969515Y-107424184D01*
X161006056Y-107546855D01*
X161059411Y-107614247D01*
X161174750Y-107679195D01*
X161311279Y-107694881D01*
X161441151Y-107661617D01*
X161513390Y-107609162D01*
X161583558Y-107489227D01*
X161593084Y-107375363D01*
X161477928Y-107375363D01*
X161460092Y-107468872D01*
X161390242Y-107543462D01*
X161312327Y-107591489D01*
X161244178Y-107590423D01*
X161207944Y-107576161D01*
X161132292Y-107514937D01*
X161097559Y-107450801D01*
X161098243Y-107342693D01*
X161146687Y-107257107D01*
X161225107Y-107204031D01*
X161315719Y-107193456D01*
X161400738Y-107235369D01*
X161426943Y-107265789D01*
X161477928Y-107375363D01*
X161593084Y-107375363D01*
X161594452Y-107359012D01*
X161553653Y-107236117D01*
X161468742Y-107138140D01*
X161347298Y-107082683D01*
X161283858Y-107076286D01*
X161150819Y-107106792D01*
X161150819Y-107106792D01*
G37*
X161150819Y-107106792D02*
X161049208Y-107186627D01*
X160986336Y-107298266D01*
X160969515Y-107424184D01*
X161006056Y-107546855D01*
X161059411Y-107614247D01*
X161174750Y-107679195D01*
X161311279Y-107694881D01*
X161441151Y-107661617D01*
X161513390Y-107609162D01*
X161583558Y-107489227D01*
X161593084Y-107375363D01*
X161477928Y-107375363D01*
X161460092Y-107468872D01*
X161390242Y-107543462D01*
X161312327Y-107591489D01*
X161244178Y-107590423D01*
X161207944Y-107576161D01*
X161132292Y-107514937D01*
X161097559Y-107450801D01*
X161098243Y-107342693D01*
X161146687Y-107257107D01*
X161225107Y-107204031D01*
X161315719Y-107193456D01*
X161400738Y-107235369D01*
X161426943Y-107265789D01*
X161477928Y-107375363D01*
X161593084Y-107375363D01*
X161594452Y-107359012D01*
X161553653Y-107236117D01*
X161468742Y-107138140D01*
X161347298Y-107082683D01*
X161283858Y-107076286D01*
X161150819Y-107106792D01*
G36*
X159696431Y-107106793D02*
X159596815Y-107184109D01*
X159534345Y-107286923D01*
X159524001Y-107346780D01*
X159527939Y-107396420D01*
X159550693Y-107424068D01*
X159608668Y-107436148D01*
X159718268Y-107439085D01*
X159759858Y-107439143D01*
X159903239Y-107445323D01*
X159977286Y-107465258D01*
X159984291Y-107501047D01*
X159926549Y-107554785D01*
X159903514Y-107570454D01*
X159820337Y-107609619D01*
X159742530Y-107598780D01*
X159719366Y-107588972D01*
X159633510Y-107564288D01*
X159583765Y-107576610D01*
X159584046Y-107619803D01*
X159599253Y-107641945D01*
X159666298Y-107676291D01*
X159784571Y-107692481D01*
X159817893Y-107693143D01*
X159931948Y-107686939D01*
X160000912Y-107661145D01*
X160051727Y-107604990D01*
X160056564Y-107597722D01*
X160100850Y-107492566D01*
X160119086Y-107375306D01*
X160100013Y-107301258D01*
X159995715Y-107301258D01*
X159963270Y-107318573D01*
X159881184Y-107328957D01*
X159832429Y-107330286D01*
X159735031Y-107324518D01*
X159676622Y-107309925D01*
X159669143Y-107301258D01*
X159700269Y-107241019D01*
X159773530Y-107196051D01*
X159832429Y-107185143D01*
X159917140Y-107207277D01*
X159980376Y-107259374D01*
X159995715Y-107301258D01*
X160100013Y-107301258D01*
X160086072Y-107247140D01*
X159999401Y-107144167D01*
X159877629Y-107084373D01*
X159810613Y-107076286D01*
X159696431Y-107106793D01*
X159696431Y-107106793D01*
G37*
X159696431Y-107106793D02*
X159596815Y-107184109D01*
X159534345Y-107286923D01*
X159524001Y-107346780D01*
X159527939Y-107396420D01*
X159550693Y-107424068D01*
X159608668Y-107436148D01*
X159718268Y-107439085D01*
X159759858Y-107439143D01*
X159903239Y-107445323D01*
X159977286Y-107465258D01*
X159984291Y-107501047D01*
X159926549Y-107554785D01*
X159903514Y-107570454D01*
X159820337Y-107609619D01*
X159742530Y-107598780D01*
X159719366Y-107588972D01*
X159633510Y-107564288D01*
X159583765Y-107576610D01*
X159584046Y-107619803D01*
X159599253Y-107641945D01*
X159666298Y-107676291D01*
X159784571Y-107692481D01*
X159817893Y-107693143D01*
X159931948Y-107686939D01*
X160000912Y-107661145D01*
X160051727Y-107604990D01*
X160056564Y-107597722D01*
X160100850Y-107492566D01*
X160119086Y-107375306D01*
X160100013Y-107301258D01*
X159995715Y-107301258D01*
X159963270Y-107318573D01*
X159881184Y-107328957D01*
X159832429Y-107330286D01*
X159735031Y-107324518D01*
X159676622Y-107309925D01*
X159669143Y-107301258D01*
X159700269Y-107241019D01*
X159773530Y-107196051D01*
X159832429Y-107185143D01*
X159917140Y-107207277D01*
X159980376Y-107259374D01*
X159995715Y-107301258D01*
X160100013Y-107301258D01*
X160086072Y-107247140D01*
X159999401Y-107144167D01*
X159877629Y-107084373D01*
X159810613Y-107076286D01*
X159696431Y-107106793D01*
G36*
X159308548Y-107100862D02*
X159298591Y-107117516D01*
X159267831Y-107137639D01*
X159206618Y-107109890D01*
X159102928Y-107081763D01*
X158998737Y-107108472D01*
X158921396Y-107179930D01*
X158903248Y-107221755D01*
X158887815Y-107311109D01*
X158877006Y-107436085D01*
X158874475Y-107502643D01*
X158875657Y-107614551D01*
X158888956Y-107671687D01*
X158920732Y-107691625D01*
X158943429Y-107693143D01*
X158985614Y-107684349D01*
X159007446Y-107646431D01*
X159015310Y-107562091D01*
X159016001Y-107496540D01*
X159021965Y-107338313D01*
X159042298Y-107241068D01*
X159080655Y-107194010D01*
X159121483Y-107185143D01*
X159199726Y-107207552D01*
X159247301Y-107280122D01*
X159268208Y-107410866D01*
X159270001Y-107482686D01*
X159272833Y-107601806D01*
X159285200Y-107665282D01*
X159312905Y-107689948D01*
X159342572Y-107693143D01*
X159377858Y-107687404D01*
X159399412Y-107660725D01*
X159410572Y-107598916D01*
X159414677Y-107487788D01*
X159415143Y-107384715D01*
X159412526Y-107228571D01*
X159403365Y-107133059D01*
X159385694Y-107086387D01*
X159363739Y-107076286D01*
X159308548Y-107100862D01*
X159308548Y-107100862D01*
G37*
X159308548Y-107100862D02*
X159298591Y-107117516D01*
X159267831Y-107137639D01*
X159206618Y-107109890D01*
X159102928Y-107081763D01*
X158998737Y-107108472D01*
X158921396Y-107179930D01*
X158903248Y-107221755D01*
X158887815Y-107311109D01*
X158877006Y-107436085D01*
X158874475Y-107502643D01*
X158875657Y-107614551D01*
X158888956Y-107671687D01*
X158920732Y-107691625D01*
X158943429Y-107693143D01*
X158985614Y-107684349D01*
X159007446Y-107646431D01*
X159015310Y-107562091D01*
X159016001Y-107496540D01*
X159021965Y-107338313D01*
X159042298Y-107241068D01*
X159080655Y-107194010D01*
X159121483Y-107185143D01*
X159199726Y-107207552D01*
X159247301Y-107280122D01*
X159268208Y-107410866D01*
X159270001Y-107482686D01*
X159272833Y-107601806D01*
X159285200Y-107665282D01*
X159312905Y-107689948D01*
X159342572Y-107693143D01*
X159377858Y-107687404D01*
X159399412Y-107660725D01*
X159410572Y-107598916D01*
X159414677Y-107487788D01*
X159415143Y-107384715D01*
X159412526Y-107228571D01*
X159403365Y-107133059D01*
X159385694Y-107086387D01*
X159363739Y-107076286D01*
X159308548Y-107100862D01*
G36*
X158390075Y-107089454D02*
X158373420Y-107137386D01*
X158365092Y-107232726D01*
X158362858Y-107384715D01*
X158365181Y-107538913D01*
X158373640Y-107633287D01*
X158390465Y-107680482D01*
X158417286Y-107693143D01*
X158444498Y-107679976D01*
X158461152Y-107632043D01*
X158469480Y-107536703D01*
X158471715Y-107384715D01*
X158469391Y-107230517D01*
X158460932Y-107136142D01*
X158444108Y-107088948D01*
X158417286Y-107076286D01*
X158390075Y-107089454D01*
X158390075Y-107089454D01*
G37*
X158390075Y-107089454D02*
X158373420Y-107137386D01*
X158365092Y-107232726D01*
X158362858Y-107384715D01*
X158365181Y-107538913D01*
X158373640Y-107633287D01*
X158390465Y-107680482D01*
X158417286Y-107693143D01*
X158444498Y-107679976D01*
X158461152Y-107632043D01*
X158469480Y-107536703D01*
X158471715Y-107384715D01*
X158469391Y-107230517D01*
X158460932Y-107136142D01*
X158444108Y-107088948D01*
X158417286Y-107076286D01*
X158390075Y-107089454D01*
G36*
X158074834Y-107100862D02*
X158064876Y-107117516D01*
X158034977Y-107138477D01*
X157976615Y-107112207D01*
X157870426Y-107082238D01*
X157764078Y-107107528D01*
X157685393Y-107179445D01*
X157672146Y-107206662D01*
X157651956Y-107296125D01*
X157639309Y-107422118D01*
X157637143Y-107495934D01*
X157640370Y-107610433D01*
X157654288Y-107669769D01*
X157685256Y-107691222D01*
X157709715Y-107693143D01*
X157748915Y-107685826D01*
X157770809Y-107653207D01*
X157780299Y-107579283D01*
X157782286Y-107456147D01*
X157786431Y-107319915D01*
X157801231Y-107240367D01*
X157830238Y-107201967D01*
X157841647Y-107196373D01*
X157926376Y-107189158D01*
X157985030Y-107244669D01*
X158019337Y-107365431D01*
X158028946Y-107470130D01*
X158037904Y-107594215D01*
X158053442Y-107661881D01*
X158081472Y-107689276D01*
X158110589Y-107693143D01*
X158145068Y-107686988D01*
X158166132Y-107659092D01*
X158177030Y-107595312D01*
X158181010Y-107481504D01*
X158181429Y-107384715D01*
X158178812Y-107228571D01*
X158169651Y-107133059D01*
X158151979Y-107086387D01*
X158130024Y-107076286D01*
X158074834Y-107100862D01*
X158074834Y-107100862D01*
G37*
X158074834Y-107100862D02*
X158064876Y-107117516D01*
X158034977Y-107138477D01*
X157976615Y-107112207D01*
X157870426Y-107082238D01*
X157764078Y-107107528D01*
X157685393Y-107179445D01*
X157672146Y-107206662D01*
X157651956Y-107296125D01*
X157639309Y-107422118D01*
X157637143Y-107495934D01*
X157640370Y-107610433D01*
X157654288Y-107669769D01*
X157685256Y-107691222D01*
X157709715Y-107693143D01*
X157748915Y-107685826D01*
X157770809Y-107653207D01*
X157780299Y-107579283D01*
X157782286Y-107456147D01*
X157786431Y-107319915D01*
X157801231Y-107240367D01*
X157830238Y-107201967D01*
X157841647Y-107196373D01*
X157926376Y-107189158D01*
X157985030Y-107244669D01*
X158019337Y-107365431D01*
X158028946Y-107470130D01*
X158037904Y-107594215D01*
X158053442Y-107661881D01*
X158081472Y-107689276D01*
X158110589Y-107693143D01*
X158145068Y-107686988D01*
X158166132Y-107659092D01*
X158177030Y-107595312D01*
X158181010Y-107481504D01*
X158181429Y-107384715D01*
X158178812Y-107228571D01*
X158169651Y-107133059D01*
X158151979Y-107086387D01*
X158130024Y-107076286D01*
X158074834Y-107100862D01*
G36*
X157117208Y-107090997D02*
X157034139Y-107129534D01*
X157003284Y-107183500D01*
X157007122Y-107203175D01*
X157041484Y-107237185D01*
X157094099Y-107220765D01*
X157215228Y-107186746D01*
X157317429Y-107220771D01*
X157369311Y-107277344D01*
X157405153Y-107383552D01*
X157384581Y-107481899D01*
X157321417Y-107556316D01*
X157229481Y-107590730D01*
X157122593Y-107569071D01*
X157119707Y-107567599D01*
X157048549Y-107538328D01*
X157014653Y-107550884D01*
X157007528Y-107565196D01*
X157012930Y-107630604D01*
X157081359Y-107674655D01*
X157205269Y-107692899D01*
X157224481Y-107693143D01*
X157338672Y-107682006D01*
X157415105Y-107639500D01*
X157453081Y-107597536D01*
X157515897Y-107470365D01*
X157522309Y-107337732D01*
X157479419Y-107216793D01*
X157394332Y-107124703D01*
X157274149Y-107078617D01*
X157237264Y-107076286D01*
X157117208Y-107090997D01*
X157117208Y-107090997D01*
G37*
X157117208Y-107090997D02*
X157034139Y-107129534D01*
X157003284Y-107183500D01*
X157007122Y-107203175D01*
X157041484Y-107237185D01*
X157094099Y-107220765D01*
X157215228Y-107186746D01*
X157317429Y-107220771D01*
X157369311Y-107277344D01*
X157405153Y-107383552D01*
X157384581Y-107481899D01*
X157321417Y-107556316D01*
X157229481Y-107590730D01*
X157122593Y-107569071D01*
X157119707Y-107567599D01*
X157048549Y-107538328D01*
X157014653Y-107550884D01*
X157007528Y-107565196D01*
X157012930Y-107630604D01*
X157081359Y-107674655D01*
X157205269Y-107692899D01*
X157224481Y-107693143D01*
X157338672Y-107682006D01*
X157415105Y-107639500D01*
X157453081Y-107597536D01*
X157515897Y-107470365D01*
X157522309Y-107337732D01*
X157479419Y-107216793D01*
X157394332Y-107124703D01*
X157274149Y-107078617D01*
X157237264Y-107076286D01*
X157117208Y-107090997D01*
G36*
X156404247Y-107082091D02*
X156382667Y-107109024D01*
X156371573Y-107171358D01*
X156367564Y-107283370D01*
X156367143Y-107380814D01*
X156367143Y-107685343D01*
X156584571Y-107688403D01*
X156710584Y-107686546D01*
X156786350Y-107672034D01*
X156833949Y-107638151D01*
X156858628Y-107605038D01*
X156892836Y-107516328D01*
X156908225Y-107399233D01*
X156906010Y-107275747D01*
X156887407Y-107167864D01*
X156853630Y-107097578D01*
X156829786Y-107083050D01*
X156795395Y-107085419D01*
X156776125Y-107118815D01*
X156767823Y-107197925D01*
X156766286Y-107307680D01*
X156754422Y-107472433D01*
X156717925Y-107570394D01*
X156655442Y-107603509D01*
X156576723Y-107579933D01*
X156540071Y-107545085D01*
X156520118Y-107478592D01*
X156512696Y-107363049D01*
X156512286Y-107310867D01*
X156510000Y-107183643D01*
X156499827Y-107112859D01*
X156476794Y-107082439D01*
X156439715Y-107076286D01*
X156404247Y-107082091D01*
X156404247Y-107082091D01*
G37*
X156404247Y-107082091D02*
X156382667Y-107109024D01*
X156371573Y-107171358D01*
X156367564Y-107283370D01*
X156367143Y-107380814D01*
X156367143Y-107685343D01*
X156584571Y-107688403D01*
X156710584Y-107686546D01*
X156786350Y-107672034D01*
X156833949Y-107638151D01*
X156858628Y-107605038D01*
X156892836Y-107516328D01*
X156908225Y-107399233D01*
X156906010Y-107275747D01*
X156887407Y-107167864D01*
X156853630Y-107097578D01*
X156829786Y-107083050D01*
X156795395Y-107085419D01*
X156776125Y-107118815D01*
X156767823Y-107197925D01*
X156766286Y-107307680D01*
X156754422Y-107472433D01*
X156717925Y-107570394D01*
X156655442Y-107603509D01*
X156576723Y-107579933D01*
X156540071Y-107545085D01*
X156520118Y-107478592D01*
X156512696Y-107363049D01*
X156512286Y-107310867D01*
X156510000Y-107183643D01*
X156499827Y-107112859D01*
X156476794Y-107082439D01*
X156439715Y-107076286D01*
X156404247Y-107082091D01*
G36*
X156103732Y-106833199D02*
X156082350Y-106878318D01*
X156076866Y-106976218D01*
X156076858Y-106982420D01*
X156076858Y-107142554D01*
X155974400Y-107103880D01*
X155831383Y-107081503D01*
X155709144Y-107124119D01*
X155620416Y-107226980D01*
X155581379Y-107372261D01*
X155602143Y-107519518D01*
X155665627Y-107627262D01*
X155745225Y-107673120D01*
X155856099Y-107692510D01*
X155964966Y-107683410D01*
X156033315Y-107649601D01*
X156069270Y-107624356D01*
X156076858Y-107649601D01*
X156107175Y-107684947D01*
X156149429Y-107693143D01*
X156180064Y-107688871D01*
X156200608Y-107668038D01*
X156213066Y-107618616D01*
X156219443Y-107528581D01*
X156221544Y-107398192D01*
X156076858Y-107398192D01*
X156051671Y-107511297D01*
X155975929Y-107572353D01*
X155895429Y-107584286D01*
X155806940Y-107568445D01*
X155757543Y-107540743D01*
X155720071Y-107459483D01*
X155720194Y-107353672D01*
X155756266Y-107259803D01*
X155771021Y-107242164D01*
X155862636Y-107190893D01*
X155956070Y-107199797D01*
X156032751Y-107259402D01*
X156074111Y-107360235D01*
X156076858Y-107398192D01*
X156221544Y-107398192D01*
X156221743Y-107385905D01*
X156222001Y-107257715D01*
X156221288Y-107073908D01*
X156217816Y-106950643D01*
X156209579Y-106875893D01*
X156194573Y-106837632D01*
X156170794Y-106823834D01*
X156149429Y-106822286D01*
X156103732Y-106833199D01*
X156103732Y-106833199D01*
G37*
X156103732Y-106833199D02*
X156082350Y-106878318D01*
X156076866Y-106976218D01*
X156076858Y-106982420D01*
X156076858Y-107142554D01*
X155974400Y-107103880D01*
X155831383Y-107081503D01*
X155709144Y-107124119D01*
X155620416Y-107226980D01*
X155581379Y-107372261D01*
X155602143Y-107519518D01*
X155665627Y-107627262D01*
X155745225Y-107673120D01*
X155856099Y-107692510D01*
X155964966Y-107683410D01*
X156033315Y-107649601D01*
X156069270Y-107624356D01*
X156076858Y-107649601D01*
X156107175Y-107684947D01*
X156149429Y-107693143D01*
X156180064Y-107688871D01*
X156200608Y-107668038D01*
X156213066Y-107618616D01*
X156219443Y-107528581D01*
X156221544Y-107398192D01*
X156076858Y-107398192D01*
X156051671Y-107511297D01*
X155975929Y-107572353D01*
X155895429Y-107584286D01*
X155806940Y-107568445D01*
X155757543Y-107540743D01*
X155720071Y-107459483D01*
X155720194Y-107353672D01*
X155756266Y-107259803D01*
X155771021Y-107242164D01*
X155862636Y-107190893D01*
X155956070Y-107199797D01*
X156032751Y-107259402D01*
X156074111Y-107360235D01*
X156076858Y-107398192D01*
X156221544Y-107398192D01*
X156221743Y-107385905D01*
X156222001Y-107257715D01*
X156221288Y-107073908D01*
X156217816Y-106950643D01*
X156209579Y-106875893D01*
X156194573Y-106837632D01*
X156170794Y-106823834D01*
X156149429Y-106822286D01*
X156103732Y-106833199D01*
G36*
X155147085Y-107097902D02*
X155064027Y-107145775D01*
X155060858Y-107148858D01*
X155017923Y-107209387D01*
X154995501Y-107295610D01*
X154988364Y-107429276D01*
X154988286Y-107450791D01*
X154988286Y-107680153D01*
X155199420Y-107685972D01*
X155328505Y-107682069D01*
X155422548Y-107664920D01*
X155453420Y-107648924D01*
X155485338Y-107582743D01*
X155496286Y-107503560D01*
X155495069Y-107499968D01*
X155380022Y-107499968D01*
X155366705Y-107546505D01*
X155354402Y-107562217D01*
X155294280Y-107612804D01*
X155225408Y-107609756D01*
X155167329Y-107583010D01*
X155110423Y-107522864D01*
X155097143Y-107474152D01*
X155125154Y-107419391D01*
X155194854Y-107402211D01*
X155284745Y-107424500D01*
X155333767Y-107453360D01*
X155380022Y-107499968D01*
X155495069Y-107499968D01*
X155464604Y-107410085D01*
X155370967Y-107351945D01*
X155217494Y-107330393D01*
X155203638Y-107330286D01*
X155119032Y-107317315D01*
X155102120Y-107279735D01*
X155151879Y-107221174D01*
X155233411Y-107192803D01*
X155333308Y-107196307D01*
X155424063Y-107202313D01*
X155458758Y-107178903D01*
X155460001Y-107168601D01*
X155429288Y-107113805D01*
X155352025Y-107083021D01*
X155250521Y-107077352D01*
X155147085Y-107097902D01*
X155147085Y-107097902D01*
G37*
X155147085Y-107097902D02*
X155064027Y-107145775D01*
X155060858Y-107148858D01*
X155017923Y-107209387D01*
X154995501Y-107295610D01*
X154988364Y-107429276D01*
X154988286Y-107450791D01*
X154988286Y-107680153D01*
X155199420Y-107685972D01*
X155328505Y-107682069D01*
X155422548Y-107664920D01*
X155453420Y-107648924D01*
X155485338Y-107582743D01*
X155496286Y-107503560D01*
X155495069Y-107499968D01*
X155380022Y-107499968D01*
X155366705Y-107546505D01*
X155354402Y-107562217D01*
X155294280Y-107612804D01*
X155225408Y-107609756D01*
X155167329Y-107583010D01*
X155110423Y-107522864D01*
X155097143Y-107474152D01*
X155125154Y-107419391D01*
X155194854Y-107402211D01*
X155284745Y-107424500D01*
X155333767Y-107453360D01*
X155380022Y-107499968D01*
X155495069Y-107499968D01*
X155464604Y-107410085D01*
X155370967Y-107351945D01*
X155217494Y-107330393D01*
X155203638Y-107330286D01*
X155119032Y-107317315D01*
X155102120Y-107279735D01*
X155151879Y-107221174D01*
X155233411Y-107192803D01*
X155333308Y-107196307D01*
X155424063Y-107202313D01*
X155458758Y-107178903D01*
X155460001Y-107168601D01*
X155429288Y-107113805D01*
X155352025Y-107083021D01*
X155250521Y-107077352D01*
X155147085Y-107097902D01*
G36*
X154708653Y-106926401D02*
X154698001Y-106985572D01*
X154680992Y-107056707D01*
X154625429Y-107076286D01*
X154566327Y-107098975D01*
X154552858Y-107130715D01*
X154583109Y-107175041D01*
X154625429Y-107185143D01*
X154672607Y-107197093D01*
X154693667Y-107245582D01*
X154698001Y-107332672D01*
X154687067Y-107454526D01*
X154658807Y-107549594D01*
X154620029Y-107601348D01*
X154587323Y-107601304D01*
X154557773Y-107610585D01*
X154552858Y-107636573D01*
X154581767Y-107678374D01*
X154648743Y-107694122D01*
X154724160Y-107683923D01*
X154778392Y-107647883D01*
X154784833Y-107635747D01*
X154797329Y-107568237D01*
X154805310Y-107457982D01*
X154806858Y-107381747D01*
X154811879Y-107262404D01*
X154829466Y-107201436D01*
X154861286Y-107185143D01*
X154909565Y-107164947D01*
X154915715Y-107147719D01*
X154886718Y-107103532D01*
X154861286Y-107089408D01*
X154818992Y-107040845D01*
X154806858Y-106981690D01*
X154787222Y-106911646D01*
X154752429Y-106894858D01*
X154708653Y-106926401D01*
X154708653Y-106926401D01*
G37*
X154708653Y-106926401D02*
X154698001Y-106985572D01*
X154680992Y-107056707D01*
X154625429Y-107076286D01*
X154566327Y-107098975D01*
X154552858Y-107130715D01*
X154583109Y-107175041D01*
X154625429Y-107185143D01*
X154672607Y-107197093D01*
X154693667Y-107245582D01*
X154698001Y-107332672D01*
X154687067Y-107454526D01*
X154658807Y-107549594D01*
X154620029Y-107601348D01*
X154587323Y-107601304D01*
X154557773Y-107610585D01*
X154552858Y-107636573D01*
X154581767Y-107678374D01*
X154648743Y-107694122D01*
X154724160Y-107683923D01*
X154778392Y-107647883D01*
X154784833Y-107635747D01*
X154797329Y-107568237D01*
X154805310Y-107457982D01*
X154806858Y-107381747D01*
X154811879Y-107262404D01*
X154829466Y-107201436D01*
X154861286Y-107185143D01*
X154909565Y-107164947D01*
X154915715Y-107147719D01*
X154886718Y-107103532D01*
X154861286Y-107089408D01*
X154818992Y-107040845D01*
X154806858Y-106981690D01*
X154787222Y-106911646D01*
X154752429Y-106894858D01*
X154708653Y-106926401D01*
G36*
X154038819Y-107106792D02*
X153937208Y-107186627D01*
X153874336Y-107298266D01*
X153857515Y-107424184D01*
X153894056Y-107546855D01*
X153947411Y-107614247D01*
X154062750Y-107679195D01*
X154199279Y-107694881D01*
X154329151Y-107661617D01*
X154401390Y-107609162D01*
X154471558Y-107489227D01*
X154481783Y-107367005D01*
X154357112Y-107367005D01*
X154349704Y-107464398D01*
X154297581Y-107546474D01*
X154254289Y-107574716D01*
X154150301Y-107587137D01*
X154050447Y-107533382D01*
X153992430Y-107462947D01*
X153978207Y-107380907D01*
X154014402Y-107292061D01*
X154085852Y-107220683D01*
X154161659Y-107192024D01*
X154258028Y-107209909D01*
X154324866Y-107275206D01*
X154357112Y-107367005D01*
X154481783Y-107367005D01*
X154482452Y-107359012D01*
X154441653Y-107236117D01*
X154356742Y-107138140D01*
X154235298Y-107082683D01*
X154171858Y-107076286D01*
X154038819Y-107106792D01*
X154038819Y-107106792D01*
G37*
X154038819Y-107106792D02*
X153937208Y-107186627D01*
X153874336Y-107298266D01*
X153857515Y-107424184D01*
X153894056Y-107546855D01*
X153947411Y-107614247D01*
X154062750Y-107679195D01*
X154199279Y-107694881D01*
X154329151Y-107661617D01*
X154401390Y-107609162D01*
X154471558Y-107489227D01*
X154481783Y-107367005D01*
X154357112Y-107367005D01*
X154349704Y-107464398D01*
X154297581Y-107546474D01*
X154254289Y-107574716D01*
X154150301Y-107587137D01*
X154050447Y-107533382D01*
X153992430Y-107462947D01*
X153978207Y-107380907D01*
X154014402Y-107292061D01*
X154085852Y-107220683D01*
X154161659Y-107192024D01*
X154258028Y-107209909D01*
X154324866Y-107275206D01*
X154357112Y-107367005D01*
X154481783Y-107367005D01*
X154482452Y-107359012D01*
X154441653Y-107236117D01*
X154356742Y-107138140D01*
X154235298Y-107082683D01*
X154171858Y-107076286D01*
X154038819Y-107106792D01*
G36*
X153615634Y-107099700D02*
X153609429Y-107119829D01*
X153598719Y-107145074D01*
X153565886Y-107119829D01*
X153494281Y-107079114D01*
X153427914Y-107085350D01*
X153392733Y-107134381D01*
X153391715Y-107147719D01*
X153410005Y-107199897D01*
X153441465Y-107200061D01*
X153513317Y-107204287D01*
X153568738Y-107270420D01*
X153602140Y-107388607D01*
X153609429Y-107496164D01*
X153614433Y-107615635D01*
X153631963Y-107676730D01*
X153663858Y-107693143D01*
X153691069Y-107679976D01*
X153707723Y-107632043D01*
X153716052Y-107536703D01*
X153718286Y-107384715D01*
X153715962Y-107230517D01*
X153707504Y-107136142D01*
X153690679Y-107088948D01*
X153663858Y-107076286D01*
X153615634Y-107099700D01*
X153615634Y-107099700D01*
G37*
X153615634Y-107099700D02*
X153609429Y-107119829D01*
X153598719Y-107145074D01*
X153565886Y-107119829D01*
X153494281Y-107079114D01*
X153427914Y-107085350D01*
X153392733Y-107134381D01*
X153391715Y-107147719D01*
X153410005Y-107199897D01*
X153441465Y-107200061D01*
X153513317Y-107204287D01*
X153568738Y-107270420D01*
X153602140Y-107388607D01*
X153609429Y-107496164D01*
X153614433Y-107615635D01*
X153631963Y-107676730D01*
X153663858Y-107693143D01*
X153691069Y-107679976D01*
X153707723Y-107632043D01*
X153716052Y-107536703D01*
X153718286Y-107384715D01*
X153715962Y-107230517D01*
X153707504Y-107136142D01*
X153690679Y-107088948D01*
X153663858Y-107076286D01*
X153615634Y-107099700D01*
G36*
X158363302Y-106845331D02*
X158333500Y-106886534D01*
X158335633Y-106903948D01*
X158380560Y-106950574D01*
X158446724Y-106958719D01*
X158490570Y-106929991D01*
X158492177Y-106871228D01*
X158478249Y-106850592D01*
X158422242Y-106829351D01*
X158363302Y-106845331D01*
X158363302Y-106845331D01*
G37*
X158363302Y-106845331D02*
X158333500Y-106886534D01*
X158335633Y-106903948D01*
X158380560Y-106950574D01*
X158446724Y-106958719D01*
X158490570Y-106929991D01*
X158492177Y-106871228D01*
X158478249Y-106850592D01*
X158422242Y-106829351D01*
X158363302Y-106845331D01*
G36*
X163953389Y-101162098D02*
X163879970Y-101227020D01*
X163791260Y-101355635D01*
X163769888Y-101486404D01*
X163813483Y-101606223D01*
X163919674Y-101701987D01*
X163970473Y-101727097D01*
X164076886Y-101758244D01*
X164163623Y-101745544D01*
X164182225Y-101737729D01*
X164241294Y-101719939D01*
X164301402Y-101731039D01*
X164384305Y-101777796D01*
X164445128Y-101819490D01*
X164589382Y-101922807D01*
X164700442Y-102007426D01*
X164805773Y-102094484D01*
X164833842Y-102118598D01*
X164903894Y-102175563D01*
X165008508Y-102256686D01*
X165112000Y-102334665D01*
X165307867Y-102483138D01*
X165542058Y-102666374D01*
X165774215Y-102851683D01*
X165820880Y-102924291D01*
X165837715Y-103012423D01*
X165850881Y-103114449D01*
X165878003Y-103186640D01*
X165885047Y-103214883D01*
X165875448Y-103259291D01*
X165845234Y-103326829D01*
X165790434Y-103424463D01*
X165707075Y-103559159D01*
X165591185Y-103737882D01*
X165438792Y-103967600D01*
X165397217Y-104029790D01*
X165255548Y-104240422D01*
X165126426Y-104430372D01*
X165015498Y-104591497D01*
X164928408Y-104715658D01*
X164870801Y-104794712D01*
X164848929Y-104820524D01*
X164824032Y-104862297D01*
X164821715Y-104884024D01*
X164806169Y-104930743D01*
X164794500Y-104935970D01*
X164763947Y-104965230D01*
X164709555Y-105041574D01*
X164642879Y-105148730D01*
X164640286Y-105153143D01*
X164573374Y-105261140D01*
X164518311Y-105338936D01*
X164486653Y-105370261D01*
X164486072Y-105370316D01*
X164461502Y-105400169D01*
X164458858Y-105422262D01*
X164442601Y-105476516D01*
X164431643Y-105485762D01*
X164399420Y-105520218D01*
X164340960Y-105599017D01*
X164268846Y-105705187D01*
X164267987Y-105706501D01*
X164184930Y-105824036D01*
X164120168Y-105888935D01*
X164059937Y-105913668D01*
X164037728Y-105915143D01*
X163938323Y-105933875D01*
X163841419Y-105975688D01*
X163753851Y-106064616D01*
X163710839Y-106185914D01*
X163715343Y-106314259D01*
X163770328Y-106424329D01*
X163786945Y-106441286D01*
X163875430Y-106505816D01*
X163968502Y-106549666D01*
X164047010Y-106566951D01*
X164091803Y-106551790D01*
X164096001Y-106536233D01*
X164126093Y-106501994D01*
X164165463Y-106486014D01*
X164251657Y-106429181D01*
X164305315Y-106324451D01*
X164318801Y-106192096D01*
X164305905Y-106113262D01*
X164289210Y-106037133D01*
X164291057Y-105974715D01*
X164317955Y-105905579D01*
X164376412Y-105809300D01*
X164426841Y-105733715D01*
X164505291Y-105620739D01*
X164569924Y-105533836D01*
X164609039Y-105488587D01*
X164613072Y-105485762D01*
X164637969Y-105443990D01*
X164640286Y-105422262D01*
X164655832Y-105375544D01*
X164667501Y-105370316D01*
X164698054Y-105341056D01*
X164752446Y-105264713D01*
X164819122Y-105157557D01*
X164821715Y-105153143D01*
X164888627Y-105045147D01*
X164943690Y-104967350D01*
X164975348Y-104936026D01*
X164975929Y-104935970D01*
X165000499Y-104906117D01*
X165003143Y-104884024D01*
X165019400Y-104829771D01*
X165030358Y-104820524D01*
X165057585Y-104787978D01*
X165118437Y-104703737D01*
X165206708Y-104576769D01*
X165316192Y-104416043D01*
X165440683Y-104230527D01*
X165490707Y-104155286D01*
X165652867Y-103911445D01*
X165780865Y-103721602D01*
X165880268Y-103579024D01*
X165956640Y-103476980D01*
X166015550Y-103408736D01*
X166062562Y-103367560D01*
X166103245Y-103346719D01*
X166143163Y-103339481D01*
X166165718Y-103338858D01*
X166300588Y-103306437D01*
X166400866Y-103219337D01*
X166451385Y-103092802D01*
X166454572Y-103048530D01*
X166424258Y-102901366D01*
X166339819Y-102796142D01*
X166211005Y-102740357D01*
X166053851Y-102740410D01*
X165994980Y-102747236D01*
X165939648Y-102742143D01*
X165877489Y-102719256D01*
X165798138Y-102672703D01*
X165691227Y-102596612D01*
X165546393Y-102485108D01*
X165402286Y-102371250D01*
X165316583Y-102303956D01*
X165190098Y-102205523D01*
X165039650Y-102088955D01*
X164882057Y-101967258D01*
X164734139Y-101853436D01*
X164612713Y-101760495D01*
X164594914Y-101746945D01*
X164484959Y-101659597D01*
X164422112Y-101595024D01*
X164393519Y-101535124D01*
X164386324Y-101461792D01*
X164386286Y-101453140D01*
X164355618Y-101303724D01*
X164267778Y-101196573D01*
X164129015Y-101139074D01*
X164119128Y-101137352D01*
X164026121Y-101132165D01*
X163953389Y-101162098D01*
X163953389Y-101162098D01*
G37*
X163953389Y-101162098D02*
X163879970Y-101227020D01*
X163791260Y-101355635D01*
X163769888Y-101486404D01*
X163813483Y-101606223D01*
X163919674Y-101701987D01*
X163970473Y-101727097D01*
X164076886Y-101758244D01*
X164163623Y-101745544D01*
X164182225Y-101737729D01*
X164241294Y-101719939D01*
X164301402Y-101731039D01*
X164384305Y-101777796D01*
X164445128Y-101819490D01*
X164589382Y-101922807D01*
X164700442Y-102007426D01*
X164805773Y-102094484D01*
X164833842Y-102118598D01*
X164903894Y-102175563D01*
X165008508Y-102256686D01*
X165112000Y-102334665D01*
X165307867Y-102483138D01*
X165542058Y-102666374D01*
X165774215Y-102851683D01*
X165820880Y-102924291D01*
X165837715Y-103012423D01*
X165850881Y-103114449D01*
X165878003Y-103186640D01*
X165885047Y-103214883D01*
X165875448Y-103259291D01*
X165845234Y-103326829D01*
X165790434Y-103424463D01*
X165707075Y-103559159D01*
X165591185Y-103737882D01*
X165438792Y-103967600D01*
X165397217Y-104029790D01*
X165255548Y-104240422D01*
X165126426Y-104430372D01*
X165015498Y-104591497D01*
X164928408Y-104715658D01*
X164870801Y-104794712D01*
X164848929Y-104820524D01*
X164824032Y-104862297D01*
X164821715Y-104884024D01*
X164806169Y-104930743D01*
X164794500Y-104935970D01*
X164763947Y-104965230D01*
X164709555Y-105041574D01*
X164642879Y-105148730D01*
X164640286Y-105153143D01*
X164573374Y-105261140D01*
X164518311Y-105338936D01*
X164486653Y-105370261D01*
X164486072Y-105370316D01*
X164461502Y-105400169D01*
X164458858Y-105422262D01*
X164442601Y-105476516D01*
X164431643Y-105485762D01*
X164399420Y-105520218D01*
X164340960Y-105599017D01*
X164268846Y-105705187D01*
X164267987Y-105706501D01*
X164184930Y-105824036D01*
X164120168Y-105888935D01*
X164059937Y-105913668D01*
X164037728Y-105915143D01*
X163938323Y-105933875D01*
X163841419Y-105975688D01*
X163753851Y-106064616D01*
X163710839Y-106185914D01*
X163715343Y-106314259D01*
X163770328Y-106424329D01*
X163786945Y-106441286D01*
X163875430Y-106505816D01*
X163968502Y-106549666D01*
X164047010Y-106566951D01*
X164091803Y-106551790D01*
X164096001Y-106536233D01*
X164126093Y-106501994D01*
X164165463Y-106486014D01*
X164251657Y-106429181D01*
X164305315Y-106324451D01*
X164318801Y-106192096D01*
X164305905Y-106113262D01*
X164289210Y-106037133D01*
X164291057Y-105974715D01*
X164317955Y-105905579D01*
X164376412Y-105809300D01*
X164426841Y-105733715D01*
X164505291Y-105620739D01*
X164569924Y-105533836D01*
X164609039Y-105488587D01*
X164613072Y-105485762D01*
X164637969Y-105443990D01*
X164640286Y-105422262D01*
X164655832Y-105375544D01*
X164667501Y-105370316D01*
X164698054Y-105341056D01*
X164752446Y-105264713D01*
X164819122Y-105157557D01*
X164821715Y-105153143D01*
X164888627Y-105045147D01*
X164943690Y-104967350D01*
X164975348Y-104936026D01*
X164975929Y-104935970D01*
X165000499Y-104906117D01*
X165003143Y-104884024D01*
X165019400Y-104829771D01*
X165030358Y-104820524D01*
X165057585Y-104787978D01*
X165118437Y-104703737D01*
X165206708Y-104576769D01*
X165316192Y-104416043D01*
X165440683Y-104230527D01*
X165490707Y-104155286D01*
X165652867Y-103911445D01*
X165780865Y-103721602D01*
X165880268Y-103579024D01*
X165956640Y-103476980D01*
X166015550Y-103408736D01*
X166062562Y-103367560D01*
X166103245Y-103346719D01*
X166143163Y-103339481D01*
X166165718Y-103338858D01*
X166300588Y-103306437D01*
X166400866Y-103219337D01*
X166451385Y-103092802D01*
X166454572Y-103048530D01*
X166424258Y-102901366D01*
X166339819Y-102796142D01*
X166211005Y-102740357D01*
X166053851Y-102740410D01*
X165994980Y-102747236D01*
X165939648Y-102742143D01*
X165877489Y-102719256D01*
X165798138Y-102672703D01*
X165691227Y-102596612D01*
X165546393Y-102485108D01*
X165402286Y-102371250D01*
X165316583Y-102303956D01*
X165190098Y-102205523D01*
X165039650Y-102088955D01*
X164882057Y-101967258D01*
X164734139Y-101853436D01*
X164612713Y-101760495D01*
X164594914Y-101746945D01*
X164484959Y-101659597D01*
X164422112Y-101595024D01*
X164393519Y-101535124D01*
X164386324Y-101461792D01*
X164386286Y-101453140D01*
X164355618Y-101303724D01*
X164267778Y-101196573D01*
X164129015Y-101139074D01*
X164119128Y-101137352D01*
X164026121Y-101132165D01*
X163953389Y-101162098D01*
G36*
X166311291Y-105545325D02*
X166237465Y-105580784D01*
X166178760Y-105643514D01*
X166105332Y-105775350D01*
X166103809Y-105898813D01*
X166174265Y-106015873D01*
X166193486Y-106035355D01*
X166318153Y-106112509D01*
X166457424Y-106132739D01*
X166588380Y-106094572D01*
X166632194Y-106063588D01*
X166713540Y-105950175D01*
X166735132Y-105817048D01*
X166695185Y-105687031D01*
X166664965Y-105644881D01*
X166584095Y-105573553D01*
X166484986Y-105543493D01*
X166421541Y-105539263D01*
X166311291Y-105545325D01*
X166311291Y-105545325D01*
G37*
X166311291Y-105545325D02*
X166237465Y-105580784D01*
X166178760Y-105643514D01*
X166105332Y-105775350D01*
X166103809Y-105898813D01*
X166174265Y-106015873D01*
X166193486Y-106035355D01*
X166318153Y-106112509D01*
X166457424Y-106132739D01*
X166588380Y-106094572D01*
X166632194Y-106063588D01*
X166713540Y-105950175D01*
X166735132Y-105817048D01*
X166695185Y-105687031D01*
X166664965Y-105644881D01*
X166584095Y-105573553D01*
X166484986Y-105543493D01*
X166421541Y-105539263D01*
X166311291Y-105545325D01*
G36*
X161688795Y-102530867D02*
X161564911Y-102542461D01*
X161463525Y-102567745D01*
X161359674Y-102611240D01*
X161333996Y-102623712D01*
X161141782Y-102751288D01*
X161002103Y-102920715D01*
X160912603Y-103136540D01*
X160870926Y-103403310D01*
X160867118Y-103524796D01*
X160888374Y-103811052D01*
X160955461Y-104045147D01*
X161071498Y-104233591D01*
X161239603Y-104382893D01*
X161294802Y-104417618D01*
X161383411Y-104464800D01*
X161468777Y-104495256D01*
X161571921Y-104513311D01*
X161713866Y-104523290D01*
X161827645Y-104527236D01*
X162028918Y-104528649D01*
X162174128Y-104518602D01*
X162279096Y-104495602D01*
X162316394Y-104481091D01*
X162529533Y-104355414D01*
X162686929Y-104191795D01*
X162754676Y-104080290D01*
X162796084Y-103991091D01*
X162822477Y-103904429D01*
X162837101Y-103800072D01*
X162843203Y-103657786D01*
X162844143Y-103522812D01*
X162843463Y-103468156D01*
X162388918Y-103468156D01*
X162382505Y-103667813D01*
X162339044Y-103853279D01*
X162258314Y-104005602D01*
X162200815Y-104066018D01*
X162132935Y-104105901D01*
X162036767Y-104127400D01*
X161892025Y-104134664D01*
X161864429Y-104134782D01*
X161722732Y-104128559D01*
X161610563Y-104111957D01*
X161553274Y-104090632D01*
X161445949Y-103964409D01*
X161376159Y-103788814D01*
X161347238Y-103578484D01*
X161362520Y-103348055D01*
X161372198Y-103295863D01*
X161422004Y-103127887D01*
X161497034Y-103016269D01*
X161609843Y-102951532D01*
X161772982Y-102924196D01*
X161867924Y-102921572D01*
X162048691Y-102930755D01*
X162162367Y-102958044D01*
X162188076Y-102973573D01*
X162291482Y-103102083D01*
X162358503Y-103273261D01*
X162388918Y-103468156D01*
X162843463Y-103468156D01*
X162841850Y-103338666D01*
X162833103Y-103208090D01*
X162815101Y-103112171D01*
X162785042Y-103032001D01*
X162765824Y-102994143D01*
X162640159Y-102806441D01*
X162489134Y-102671541D01*
X162302172Y-102584006D01*
X162068698Y-102538398D01*
X161860139Y-102528444D01*
X161688795Y-102530867D01*
X161688795Y-102530867D01*
G37*
X161688795Y-102530867D02*
X161564911Y-102542461D01*
X161463525Y-102567745D01*
X161359674Y-102611240D01*
X161333996Y-102623712D01*
X161141782Y-102751288D01*
X161002103Y-102920715D01*
X160912603Y-103136540D01*
X160870926Y-103403310D01*
X160867118Y-103524796D01*
X160888374Y-103811052D01*
X160955461Y-104045147D01*
X161071498Y-104233591D01*
X161239603Y-104382893D01*
X161294802Y-104417618D01*
X161383411Y-104464800D01*
X161468777Y-104495256D01*
X161571921Y-104513311D01*
X161713866Y-104523290D01*
X161827645Y-104527236D01*
X162028918Y-104528649D01*
X162174128Y-104518602D01*
X162279096Y-104495602D01*
X162316394Y-104481091D01*
X162529533Y-104355414D01*
X162686929Y-104191795D01*
X162754676Y-104080290D01*
X162796084Y-103991091D01*
X162822477Y-103904429D01*
X162837101Y-103800072D01*
X162843203Y-103657786D01*
X162844143Y-103522812D01*
X162843463Y-103468156D01*
X162388918Y-103468156D01*
X162382505Y-103667813D01*
X162339044Y-103853279D01*
X162258314Y-104005602D01*
X162200815Y-104066018D01*
X162132935Y-104105901D01*
X162036767Y-104127400D01*
X161892025Y-104134664D01*
X161864429Y-104134782D01*
X161722732Y-104128559D01*
X161610563Y-104111957D01*
X161553274Y-104090632D01*
X161445949Y-103964409D01*
X161376159Y-103788814D01*
X161347238Y-103578484D01*
X161362520Y-103348055D01*
X161372198Y-103295863D01*
X161422004Y-103127887D01*
X161497034Y-103016269D01*
X161609843Y-102951532D01*
X161772982Y-102924196D01*
X161867924Y-102921572D01*
X162048691Y-102930755D01*
X162162367Y-102958044D01*
X162188076Y-102973573D01*
X162291482Y-103102083D01*
X162358503Y-103273261D01*
X162388918Y-103468156D01*
X162843463Y-103468156D01*
X162841850Y-103338666D01*
X162833103Y-103208090D01*
X162815101Y-103112171D01*
X162785042Y-103032001D01*
X162765824Y-102994143D01*
X162640159Y-102806441D01*
X162489134Y-102671541D01*
X162302172Y-102584006D01*
X162068698Y-102538398D01*
X161860139Y-102528444D01*
X161688795Y-102530867D01*
G36*
X159310848Y-102520843D02*
X159288143Y-102523283D01*
X159085759Y-102556450D01*
X158945663Y-102602997D01*
X158857777Y-102670880D01*
X158812019Y-102768059D01*
X158798311Y-102902490D01*
X158798286Y-102910021D01*
X158804554Y-102985785D01*
X158837145Y-103007167D01*
X158898072Y-102996713D01*
X159190311Y-102936122D01*
X159425723Y-102910113D01*
X159611410Y-102918928D01*
X159754478Y-102962809D01*
X159849190Y-103029105D01*
X159938693Y-103158320D01*
X159990327Y-103325290D01*
X160005698Y-103512207D01*
X159986409Y-103701262D01*
X159934064Y-103874646D01*
X159850267Y-104014551D01*
X159753172Y-104095099D01*
X159673491Y-104116469D01*
X159544716Y-104130071D01*
X159389563Y-104135837D01*
X159230748Y-104133695D01*
X159090988Y-104123576D01*
X158992999Y-104105411D01*
X158973434Y-104097496D01*
X158897032Y-104078358D01*
X158847637Y-104120299D01*
X158822780Y-104226676D01*
X158818740Y-104307847D01*
X158816429Y-104479545D01*
X158961572Y-104505824D01*
X159120160Y-104524583D01*
X159312342Y-104532617D01*
X159515887Y-104530556D01*
X159708563Y-104519028D01*
X159868140Y-104498663D01*
X159953329Y-104477758D01*
X160155481Y-104373737D01*
X160312037Y-104216541D01*
X160399285Y-104069449D01*
X160437511Y-103978798D01*
X160461480Y-103885566D01*
X160474108Y-103769468D01*
X160478311Y-103610221D01*
X160478238Y-103520286D01*
X160465423Y-103256975D01*
X160426465Y-103050242D01*
X160355720Y-102887049D01*
X160247542Y-102754357D01*
X160096875Y-102639501D01*
X159990944Y-102595111D01*
X159835954Y-102557684D01*
X159655326Y-102530587D01*
X159472484Y-102517185D01*
X159310848Y-102520843D01*
X159310848Y-102520843D01*
G37*
X159310848Y-102520843D02*
X159288143Y-102523283D01*
X159085759Y-102556450D01*
X158945663Y-102602997D01*
X158857777Y-102670880D01*
X158812019Y-102768059D01*
X158798311Y-102902490D01*
X158798286Y-102910021D01*
X158804554Y-102985785D01*
X158837145Y-103007167D01*
X158898072Y-102996713D01*
X159190311Y-102936122D01*
X159425723Y-102910113D01*
X159611410Y-102918928D01*
X159754478Y-102962809D01*
X159849190Y-103029105D01*
X159938693Y-103158320D01*
X159990327Y-103325290D01*
X160005698Y-103512207D01*
X159986409Y-103701262D01*
X159934064Y-103874646D01*
X159850267Y-104014551D01*
X159753172Y-104095099D01*
X159673491Y-104116469D01*
X159544716Y-104130071D01*
X159389563Y-104135837D01*
X159230748Y-104133695D01*
X159090988Y-104123576D01*
X158992999Y-104105411D01*
X158973434Y-104097496D01*
X158897032Y-104078358D01*
X158847637Y-104120299D01*
X158822780Y-104226676D01*
X158818740Y-104307847D01*
X158816429Y-104479545D01*
X158961572Y-104505824D01*
X159120160Y-104524583D01*
X159312342Y-104532617D01*
X159515887Y-104530556D01*
X159708563Y-104519028D01*
X159868140Y-104498663D01*
X159953329Y-104477758D01*
X160155481Y-104373737D01*
X160312037Y-104216541D01*
X160399285Y-104069449D01*
X160437511Y-103978798D01*
X160461480Y-103885566D01*
X160474108Y-103769468D01*
X160478311Y-103610221D01*
X160478238Y-103520286D01*
X160465423Y-103256975D01*
X160426465Y-103050242D01*
X160355720Y-102887049D01*
X160247542Y-102754357D01*
X160096875Y-102639501D01*
X159990944Y-102595111D01*
X159835954Y-102557684D01*
X159655326Y-102530587D01*
X159472484Y-102517185D01*
X159310848Y-102520843D01*
G36*
X157739907Y-101788081D02*
X157679961Y-101809696D01*
X157671547Y-101823929D01*
X157669945Y-101878793D01*
X157667261Y-101986888D01*
X157663968Y-102128891D01*
X157662476Y-102195858D01*
X157655286Y-102522429D01*
X157445039Y-102533359D01*
X157323514Y-102543235D01*
X157254143Y-102562483D01*
X157216512Y-102599617D01*
X157200110Y-102635507D01*
X157173371Y-102744101D01*
X157165429Y-102831562D01*
X157168344Y-102887184D01*
X157187826Y-102919388D01*
X157239981Y-102935774D01*
X157340914Y-102943942D01*
X157410358Y-102947128D01*
X157655286Y-102957858D01*
X157654635Y-103411429D01*
X157649894Y-103638522D01*
X157637101Y-103826239D01*
X157617354Y-103961117D01*
X157606464Y-104001072D01*
X157575331Y-104079997D01*
X157538334Y-104120371D01*
X157472682Y-104135112D01*
X157366419Y-104137143D01*
X157243501Y-104145207D01*
X157172187Y-104179370D01*
X157138812Y-104254589D01*
X157129714Y-104385820D01*
X157129639Y-104396333D01*
X157138835Y-104461376D01*
X157175571Y-104502872D01*
X157252353Y-104525713D01*
X157381684Y-104534790D01*
X157485897Y-104535675D01*
X157650631Y-104527115D01*
X157768918Y-104498987D01*
X157843606Y-104460921D01*
X157929059Y-104383158D01*
X158012446Y-104271456D01*
X158043177Y-104216603D01*
X158076299Y-104142166D01*
X158100062Y-104065224D01*
X158116413Y-103971145D01*
X158127303Y-103845298D01*
X158134678Y-103673052D01*
X158139295Y-103494856D01*
X158151589Y-102943284D01*
X158337666Y-102932428D01*
X158447578Y-102923239D01*
X158506756Y-102902501D01*
X158536965Y-102855513D01*
X158555868Y-102785053D01*
X158576310Y-102660629D01*
X158558191Y-102586659D01*
X158490895Y-102550784D01*
X158363807Y-102540646D01*
X158345854Y-102540572D01*
X158145143Y-102540572D01*
X158145143Y-102181947D01*
X158144192Y-102017714D01*
X158139315Y-101911898D01*
X158127476Y-101850349D01*
X158105639Y-101818918D01*
X158070768Y-101803454D01*
X158063500Y-101801442D01*
X157954011Y-101782673D01*
X157838702Y-101778647D01*
X157739907Y-101788081D01*
X157739907Y-101788081D01*
G37*
X157739907Y-101788081D02*
X157679961Y-101809696D01*
X157671547Y-101823929D01*
X157669945Y-101878793D01*
X157667261Y-101986888D01*
X157663968Y-102128891D01*
X157662476Y-102195858D01*
X157655286Y-102522429D01*
X157445039Y-102533359D01*
X157323514Y-102543235D01*
X157254143Y-102562483D01*
X157216512Y-102599617D01*
X157200110Y-102635507D01*
X157173371Y-102744101D01*
X157165429Y-102831562D01*
X157168344Y-102887184D01*
X157187826Y-102919388D01*
X157239981Y-102935774D01*
X157340914Y-102943942D01*
X157410358Y-102947128D01*
X157655286Y-102957858D01*
X157654635Y-103411429D01*
X157649894Y-103638522D01*
X157637101Y-103826239D01*
X157617354Y-103961117D01*
X157606464Y-104001072D01*
X157575331Y-104079997D01*
X157538334Y-104120371D01*
X157472682Y-104135112D01*
X157366419Y-104137143D01*
X157243501Y-104145207D01*
X157172187Y-104179370D01*
X157138812Y-104254589D01*
X157129714Y-104385820D01*
X157129639Y-104396333D01*
X157138835Y-104461376D01*
X157175571Y-104502872D01*
X157252353Y-104525713D01*
X157381684Y-104534790D01*
X157485897Y-104535675D01*
X157650631Y-104527115D01*
X157768918Y-104498987D01*
X157843606Y-104460921D01*
X157929059Y-104383158D01*
X158012446Y-104271456D01*
X158043177Y-104216603D01*
X158076299Y-104142166D01*
X158100062Y-104065224D01*
X158116413Y-103971145D01*
X158127303Y-103845298D01*
X158134678Y-103673052D01*
X158139295Y-103494856D01*
X158151589Y-102943284D01*
X158337666Y-102932428D01*
X158447578Y-102923239D01*
X158506756Y-102902501D01*
X158536965Y-102855513D01*
X158555868Y-102785053D01*
X158576310Y-102660629D01*
X158558191Y-102586659D01*
X158490895Y-102550784D01*
X158363807Y-102540646D01*
X158345854Y-102540572D01*
X158145143Y-102540572D01*
X158145143Y-102181947D01*
X158144192Y-102017714D01*
X158139315Y-101911898D01*
X158127476Y-101850349D01*
X158105639Y-101818918D01*
X158070768Y-101803454D01*
X158063500Y-101801442D01*
X157954011Y-101782673D01*
X157838702Y-101778647D01*
X157739907Y-101788081D01*
G36*
X155830046Y-102529736D02*
X155621901Y-102555096D01*
X155459101Y-102604436D01*
X155311880Y-102685794D01*
X155209106Y-102782753D01*
X155123423Y-102921457D01*
X155119662Y-102928841D01*
X155098792Y-102981951D01*
X155083324Y-103054208D01*
X155072528Y-103156089D01*
X155065673Y-103298073D01*
X155062029Y-103490637D01*
X155060866Y-103744260D01*
X155060858Y-103772484D01*
X155060858Y-104500000D01*
X155276769Y-104500000D01*
X155413299Y-104493747D01*
X155492595Y-104472750D01*
X155524931Y-104442372D01*
X155552121Y-104410246D01*
X155594225Y-104410916D01*
X155672275Y-104446579D01*
X155698553Y-104460515D01*
X155807589Y-104506061D01*
X155933023Y-104527943D01*
X156094463Y-104531345D01*
X156235684Y-104526600D01*
X156357794Y-104518987D01*
X156431948Y-104510507D01*
X156537264Y-104461787D01*
X156650045Y-104365725D01*
X156751557Y-104242659D01*
X156823070Y-104112926D01*
X156837375Y-104070344D01*
X156856142Y-103970529D01*
X156349996Y-103970529D01*
X156332680Y-104041636D01*
X156308806Y-104091839D01*
X156272909Y-104120448D01*
X156206707Y-104133501D01*
X156091914Y-104137036D01*
X156043493Y-104137143D01*
X155899406Y-104133168D01*
X155805117Y-104117658D01*
X155738112Y-104085235D01*
X155701722Y-104055500D01*
X155639125Y-103978813D01*
X155586931Y-103883019D01*
X155555399Y-103792143D01*
X155554786Y-103730206D01*
X155559725Y-103722942D01*
X155610455Y-103708738D01*
X155712519Y-103701894D01*
X155845134Y-103701658D01*
X155987517Y-103707278D01*
X156118885Y-103718001D01*
X156218456Y-103733076D01*
X156262077Y-103748365D01*
X156334433Y-103845486D01*
X156349996Y-103970529D01*
X156856142Y-103970529D01*
X156860325Y-103948283D01*
X156850584Y-103839584D01*
X156823799Y-103748721D01*
X156742846Y-103583173D01*
X156623169Y-103459148D01*
X156457964Y-103373322D01*
X156240428Y-103322371D01*
X155963757Y-103302971D01*
X155910564Y-103302572D01*
X155725306Y-103300051D01*
X155604961Y-103288481D01*
X155541934Y-103261851D01*
X155528630Y-103214152D01*
X155557456Y-103139373D01*
X155603548Y-103059612D01*
X155681681Y-102975344D01*
X155796366Y-102925627D01*
X155953982Y-102910127D01*
X156160908Y-102928508D01*
X156423524Y-102980436D01*
X156544289Y-103010189D01*
X156641681Y-103032356D01*
X156704300Y-103041170D01*
X156714772Y-103039610D01*
X156716707Y-103000313D01*
X156708927Y-102912771D01*
X156700800Y-102850206D01*
X156683577Y-102749520D01*
X156656124Y-102689372D01*
X156599933Y-102649291D01*
X156496493Y-102608811D01*
X156475889Y-102601485D01*
X156281405Y-102552860D01*
X156058002Y-102528967D01*
X155830046Y-102529736D01*
X155830046Y-102529736D01*
G37*
X155830046Y-102529736D02*
X155621901Y-102555096D01*
X155459101Y-102604436D01*
X155311880Y-102685794D01*
X155209106Y-102782753D01*
X155123423Y-102921457D01*
X155119662Y-102928841D01*
X155098792Y-102981951D01*
X155083324Y-103054208D01*
X155072528Y-103156089D01*
X155065673Y-103298073D01*
X155062029Y-103490637D01*
X155060866Y-103744260D01*
X155060858Y-103772484D01*
X155060858Y-104500000D01*
X155276769Y-104500000D01*
X155413299Y-104493747D01*
X155492595Y-104472750D01*
X155524931Y-104442372D01*
X155552121Y-104410246D01*
X155594225Y-104410916D01*
X155672275Y-104446579D01*
X155698553Y-104460515D01*
X155807589Y-104506061D01*
X155933023Y-104527943D01*
X156094463Y-104531345D01*
X156235684Y-104526600D01*
X156357794Y-104518987D01*
X156431948Y-104510507D01*
X156537264Y-104461787D01*
X156650045Y-104365725D01*
X156751557Y-104242659D01*
X156823070Y-104112926D01*
X156837375Y-104070344D01*
X156856142Y-103970529D01*
X156349996Y-103970529D01*
X156332680Y-104041636D01*
X156308806Y-104091839D01*
X156272909Y-104120448D01*
X156206707Y-104133501D01*
X156091914Y-104137036D01*
X156043493Y-104137143D01*
X155899406Y-104133168D01*
X155805117Y-104117658D01*
X155738112Y-104085235D01*
X155701722Y-104055500D01*
X155639125Y-103978813D01*
X155586931Y-103883019D01*
X155555399Y-103792143D01*
X155554786Y-103730206D01*
X155559725Y-103722942D01*
X155610455Y-103708738D01*
X155712519Y-103701894D01*
X155845134Y-103701658D01*
X155987517Y-103707278D01*
X156118885Y-103718001D01*
X156218456Y-103733076D01*
X156262077Y-103748365D01*
X156334433Y-103845486D01*
X156349996Y-103970529D01*
X156856142Y-103970529D01*
X156860325Y-103948283D01*
X156850584Y-103839584D01*
X156823799Y-103748721D01*
X156742846Y-103583173D01*
X156623169Y-103459148D01*
X156457964Y-103373322D01*
X156240428Y-103322371D01*
X155963757Y-103302971D01*
X155910564Y-103302572D01*
X155725306Y-103300051D01*
X155604961Y-103288481D01*
X155541934Y-103261851D01*
X155528630Y-103214152D01*
X155557456Y-103139373D01*
X155603548Y-103059612D01*
X155681681Y-102975344D01*
X155796366Y-102925627D01*
X155953982Y-102910127D01*
X156160908Y-102928508D01*
X156423524Y-102980436D01*
X156544289Y-103010189D01*
X156641681Y-103032356D01*
X156704300Y-103041170D01*
X156714772Y-103039610D01*
X156716707Y-103000313D01*
X156708927Y-102912771D01*
X156700800Y-102850206D01*
X156683577Y-102749520D01*
X156656124Y-102689372D01*
X156599933Y-102649291D01*
X156496493Y-102608811D01*
X156475889Y-102601485D01*
X156281405Y-102552860D01*
X156058002Y-102528967D01*
X155830046Y-102529736D01*
G36*
X150215539Y-102529836D02*
X150052306Y-102538551D01*
X149924892Y-102550571D01*
X149906138Y-102553259D01*
X149807736Y-102572016D01*
X149754274Y-102602184D01*
X149725062Y-102664779D01*
X149703959Y-102758602D01*
X149688318Y-102865071D01*
X149690177Y-102934099D01*
X149699157Y-102948624D01*
X149747535Y-102949910D01*
X149849618Y-102944279D01*
X149986990Y-102932884D01*
X150051604Y-102926572D01*
X150214536Y-102914264D01*
X150365994Y-102910289D01*
X150479757Y-102915119D01*
X150503055Y-102918438D01*
X150590750Y-102942415D01*
X150627281Y-102983511D01*
X150634001Y-103050688D01*
X150622438Y-103112176D01*
X150581335Y-103165995D01*
X150501065Y-103217985D01*
X150372003Y-103273987D01*
X150184523Y-103339845D01*
X150126000Y-103358986D01*
X150014891Y-103397549D01*
X149934874Y-103430145D01*
X149908286Y-103445569D01*
X149867504Y-103478769D01*
X149793932Y-103528744D01*
X149790824Y-103530726D01*
X149690660Y-103627302D01*
X149606491Y-103765842D01*
X149554486Y-103915738D01*
X149545429Y-103995343D01*
X149576722Y-104139764D01*
X149661130Y-104287719D01*
X149784444Y-104415642D01*
X149810875Y-104435579D01*
X149873075Y-104473563D01*
X149943303Y-104498436D01*
X150039059Y-104513336D01*
X150177844Y-104521403D01*
X150307245Y-104524615D01*
X150473495Y-104526007D01*
X150618308Y-104524170D01*
X150722659Y-104519514D01*
X150761001Y-104514898D01*
X150843793Y-104493318D01*
X150952512Y-104462134D01*
X150969643Y-104456989D01*
X151050650Y-104428554D01*
X151090744Y-104392014D01*
X151104305Y-104324054D01*
X151105715Y-104236381D01*
X151105715Y-104056949D01*
X150951501Y-104080561D01*
X150845662Y-104093172D01*
X150693426Y-104106870D01*
X150520887Y-104119418D01*
X150445033Y-104124010D01*
X150092780Y-104143848D01*
X150067634Y-104043659D01*
X150065018Y-103963030D01*
X150106829Y-103894550D01*
X150200786Y-103832295D01*
X150354608Y-103770339D01*
X150472737Y-103732675D01*
X150600188Y-103690899D01*
X150695245Y-103653086D01*
X150741058Y-103626125D01*
X150742858Y-103622200D01*
X150771729Y-103594107D01*
X150788215Y-103591650D01*
X150848322Y-103569054D01*
X150908889Y-103527456D01*
X151029507Y-103394674D01*
X151093879Y-103237017D01*
X151110751Y-103073897D01*
X151092116Y-102880071D01*
X151027983Y-102732115D01*
X150913819Y-102626614D01*
X150745091Y-102560150D01*
X150517266Y-102529306D01*
X150384050Y-102526156D01*
X150215539Y-102529836D01*
X150215539Y-102529836D01*
G37*
X150215539Y-102529836D02*
X150052306Y-102538551D01*
X149924892Y-102550571D01*
X149906138Y-102553259D01*
X149807736Y-102572016D01*
X149754274Y-102602184D01*
X149725062Y-102664779D01*
X149703959Y-102758602D01*
X149688318Y-102865071D01*
X149690177Y-102934099D01*
X149699157Y-102948624D01*
X149747535Y-102949910D01*
X149849618Y-102944279D01*
X149986990Y-102932884D01*
X150051604Y-102926572D01*
X150214536Y-102914264D01*
X150365994Y-102910289D01*
X150479757Y-102915119D01*
X150503055Y-102918438D01*
X150590750Y-102942415D01*
X150627281Y-102983511D01*
X150634001Y-103050688D01*
X150622438Y-103112176D01*
X150581335Y-103165995D01*
X150501065Y-103217985D01*
X150372003Y-103273987D01*
X150184523Y-103339845D01*
X150126000Y-103358986D01*
X150014891Y-103397549D01*
X149934874Y-103430145D01*
X149908286Y-103445569D01*
X149867504Y-103478769D01*
X149793932Y-103528744D01*
X149790824Y-103530726D01*
X149690660Y-103627302D01*
X149606491Y-103765842D01*
X149554486Y-103915738D01*
X149545429Y-103995343D01*
X149576722Y-104139764D01*
X149661130Y-104287719D01*
X149784444Y-104415642D01*
X149810875Y-104435579D01*
X149873075Y-104473563D01*
X149943303Y-104498436D01*
X150039059Y-104513336D01*
X150177844Y-104521403D01*
X150307245Y-104524615D01*
X150473495Y-104526007D01*
X150618308Y-104524170D01*
X150722659Y-104519514D01*
X150761001Y-104514898D01*
X150843793Y-104493318D01*
X150952512Y-104462134D01*
X150969643Y-104456989D01*
X151050650Y-104428554D01*
X151090744Y-104392014D01*
X151104305Y-104324054D01*
X151105715Y-104236381D01*
X151105715Y-104056949D01*
X150951501Y-104080561D01*
X150845662Y-104093172D01*
X150693426Y-104106870D01*
X150520887Y-104119418D01*
X150445033Y-104124010D01*
X150092780Y-104143848D01*
X150067634Y-104043659D01*
X150065018Y-103963030D01*
X150106829Y-103894550D01*
X150200786Y-103832295D01*
X150354608Y-103770339D01*
X150472737Y-103732675D01*
X150600188Y-103690899D01*
X150695245Y-103653086D01*
X150741058Y-103626125D01*
X150742858Y-103622200D01*
X150771729Y-103594107D01*
X150788215Y-103591650D01*
X150848322Y-103569054D01*
X150908889Y-103527456D01*
X151029507Y-103394674D01*
X151093879Y-103237017D01*
X151110751Y-103073897D01*
X151092116Y-102880071D01*
X151027983Y-102732115D01*
X150913819Y-102626614D01*
X150745091Y-102560150D01*
X150517266Y-102529306D01*
X150384050Y-102526156D01*
X150215539Y-102529836D01*
G36*
X153213208Y-102541928D02*
X153040182Y-102584506D01*
X152911197Y-102661365D01*
X152813827Y-102778233D01*
X152783929Y-102831577D01*
X152756453Y-102889316D01*
X152735932Y-102947576D01*
X152721357Y-103017659D01*
X152711719Y-103110867D01*
X152706009Y-103238500D01*
X152703216Y-103411860D01*
X152702332Y-103642249D01*
X152702286Y-103745689D01*
X152702286Y-104500000D01*
X153174001Y-104500000D01*
X153174001Y-103095455D01*
X153267425Y-102994648D01*
X153325094Y-102938967D01*
X153381516Y-102911345D01*
X153461571Y-102905372D01*
X153581139Y-102913816D01*
X153725020Y-102934427D01*
X153822559Y-102970683D01*
X153895928Y-103028195D01*
X153928998Y-103063155D01*
X153953591Y-103099792D01*
X153971317Y-103149146D01*
X153983781Y-103222261D01*
X153992590Y-103330178D01*
X153999352Y-103483939D01*
X154005674Y-103694587D01*
X154008572Y-103802228D01*
X154026715Y-104481858D01*
X154271643Y-104492587D01*
X154516572Y-104503316D01*
X154516572Y-102540572D01*
X154298858Y-102540572D01*
X154183913Y-102544695D01*
X154104802Y-102555412D01*
X154080588Y-102567786D01*
X154062732Y-102619376D01*
X154047993Y-102645598D01*
X154016810Y-102670887D01*
X153964484Y-102659425D01*
X153878281Y-102611109D01*
X153794419Y-102566712D01*
X153706041Y-102541055D01*
X153589720Y-102529664D01*
X153442696Y-102527905D01*
X153213208Y-102541928D01*
X153213208Y-102541928D01*
G37*
X153213208Y-102541928D02*
X153040182Y-102584506D01*
X152911197Y-102661365D01*
X152813827Y-102778233D01*
X152783929Y-102831577D01*
X152756453Y-102889316D01*
X152735932Y-102947576D01*
X152721357Y-103017659D01*
X152711719Y-103110867D01*
X152706009Y-103238500D01*
X152703216Y-103411860D01*
X152702332Y-103642249D01*
X152702286Y-103745689D01*
X152702286Y-104500000D01*
X153174001Y-104500000D01*
X153174001Y-103095455D01*
X153267425Y-102994648D01*
X153325094Y-102938967D01*
X153381516Y-102911345D01*
X153461571Y-102905372D01*
X153581139Y-102913816D01*
X153725020Y-102934427D01*
X153822559Y-102970683D01*
X153895928Y-103028195D01*
X153928998Y-103063155D01*
X153953591Y-103099792D01*
X153971317Y-103149146D01*
X153983781Y-103222261D01*
X153992590Y-103330178D01*
X153999352Y-103483939D01*
X154005674Y-103694587D01*
X154008572Y-103802228D01*
X154026715Y-104481858D01*
X154271643Y-104492587D01*
X154516572Y-104503316D01*
X154516572Y-102540572D01*
X154298858Y-102540572D01*
X154183913Y-102544695D01*
X154104802Y-102555412D01*
X154080588Y-102567786D01*
X154062732Y-102619376D01*
X154047993Y-102645598D01*
X154016810Y-102670887D01*
X153964484Y-102659425D01*
X153878281Y-102611109D01*
X153794419Y-102566712D01*
X153706041Y-102541055D01*
X153589720Y-102529664D01*
X153442696Y-102527905D01*
X153213208Y-102541928D01*
G36*
X151642587Y-103454460D02*
X151638642Y-103707707D01*
X151633824Y-103938538D01*
X151628449Y-104136520D01*
X151622833Y-104291221D01*
X151617293Y-104392208D01*
X151613091Y-104427429D01*
X151616831Y-104457806D01*
X151660610Y-104476812D01*
X151757240Y-104488195D01*
X151835502Y-104492473D01*
X152075433Y-104503088D01*
X152098174Y-104365473D01*
X152105954Y-104283259D01*
X152112073Y-104149015D01*
X152116558Y-103974897D01*
X152119434Y-103773060D01*
X152120726Y-103555660D01*
X152120459Y-103334852D01*
X152118660Y-103122793D01*
X152115352Y-102931639D01*
X152110562Y-102773544D01*
X152104314Y-102660665D01*
X152096635Y-102605158D01*
X152094501Y-102601673D01*
X152046004Y-102589002D01*
X151949254Y-102572756D01*
X151860926Y-102560920D01*
X151654565Y-102535920D01*
X151642587Y-103454460D01*
X151642587Y-103454460D01*
G37*
X151642587Y-103454460D02*
X151638642Y-103707707D01*
X151633824Y-103938538D01*
X151628449Y-104136520D01*
X151622833Y-104291221D01*
X151617293Y-104392208D01*
X151613091Y-104427429D01*
X151616831Y-104457806D01*
X151660610Y-104476812D01*
X151757240Y-104488195D01*
X151835502Y-104492473D01*
X152075433Y-104503088D01*
X152098174Y-104365473D01*
X152105954Y-104283259D01*
X152112073Y-104149015D01*
X152116558Y-103974897D01*
X152119434Y-103773060D01*
X152120726Y-103555660D01*
X152120459Y-103334852D01*
X152118660Y-103122793D01*
X152115352Y-102931639D01*
X152110562Y-102773544D01*
X152104314Y-102660665D01*
X152096635Y-102605158D01*
X152094501Y-102601673D01*
X152046004Y-102589002D01*
X151949254Y-102572756D01*
X151860926Y-102560920D01*
X151654565Y-102535920D01*
X151642587Y-103454460D01*
G36*
X151748368Y-101750720D02*
X151660479Y-101817120D01*
X151608155Y-101913679D01*
X151605497Y-102031431D01*
X151633718Y-102108742D01*
X151689125Y-102179675D01*
X151767501Y-102243565D01*
X151843052Y-102281961D01*
X151879148Y-102284272D01*
X151913640Y-102270767D01*
X151973280Y-102247017D01*
X152087095Y-102169915D01*
X152147510Y-102061955D01*
X152149711Y-101941531D01*
X152088888Y-101827037D01*
X152084425Y-101822139D01*
X151974441Y-101744263D01*
X151857723Y-101723446D01*
X151748368Y-101750720D01*
X151748368Y-101750720D01*
G37*
X151748368Y-101750720D02*
X151660479Y-101817120D01*
X151608155Y-101913679D01*
X151605497Y-102031431D01*
X151633718Y-102108742D01*
X151689125Y-102179675D01*
X151767501Y-102243565D01*
X151843052Y-102281961D01*
X151879148Y-102284272D01*
X151913640Y-102270767D01*
X151973280Y-102247017D01*
X152087095Y-102169915D01*
X152147510Y-102061955D01*
X152149711Y-101941531D01*
X152088888Y-101827037D01*
X152084425Y-101822139D01*
X151974441Y-101744263D01*
X151857723Y-101723446D01*
X151748368Y-101750720D01*
M02*
