%TF.GenerationSoftware,KiCad,Pcbnew,4.0.7*%
%TF.CreationDate,2018-06-13T14:15:53+02:00*%
%TF.ProjectId,RFID_BOARD_EM4095,524649445F424F4152445F454D343039,rev?*%
%TF.FileFunction,Copper,L1,Top,Signal*%
%FSLAX46Y46*%
G04 Gerber Fmt 4.6, Leading zero omitted, Abs format (unit mm)*
G04 Created by KiCad (PCBNEW 4.0.7) date 2018 June 13, Wednesday 14:15:53*
%MOMM*%
%LPD*%
G01*
G04 APERTURE LIST*
%ADD10C,0.100000*%
%ADD11C,1.000000*%
%ADD12R,0.750000X0.800000*%
%ADD13R,0.800000X0.750000*%
%ADD14R,0.600000X1.500000*%
%ADD15R,1.250000X1.000000*%
%ADD16R,1.000000X1.250000*%
%ADD17R,2.301240X2.499360*%
%ADD18R,1.700000X1.700000*%
%ADD19O,1.700000X1.700000*%
%ADD20R,0.500000X0.900000*%
%ADD21R,0.900000X0.500000*%
%ADD22R,1.500000X1.500000*%
%ADD23C,0.800000*%
%ADD24C,0.400000*%
%ADD25C,1.000000*%
%ADD26C,0.600000*%
%ADD27C,0.250000*%
%ADD28C,0.500000*%
G04 APERTURE END LIST*
D10*
D11*
X146750000Y-98500000D03*
X167000000Y-98500000D03*
D12*
X166000000Y-119250000D03*
X166000000Y-117750000D03*
X164000000Y-117750000D03*
X164000000Y-119250000D03*
X158000000Y-119250000D03*
X158000000Y-117750000D03*
D13*
X156250000Y-119500000D03*
X154750000Y-119500000D03*
D14*
X164445000Y-109700000D03*
X163175000Y-109700000D03*
X161905000Y-109700000D03*
X160635000Y-109700000D03*
X159365000Y-109700000D03*
X158095000Y-109700000D03*
X156825000Y-109700000D03*
X155555000Y-109700000D03*
X155555000Y-115100000D03*
X156825000Y-115100000D03*
X158095000Y-115100000D03*
X159365000Y-115100000D03*
X160635000Y-115100000D03*
X161905000Y-115100000D03*
X163175000Y-115100000D03*
X164445000Y-115100000D03*
D13*
X151250000Y-114500000D03*
X152750000Y-114500000D03*
X154750000Y-117500000D03*
X156250000Y-117500000D03*
X151000000Y-119500000D03*
X152500000Y-119500000D03*
D15*
X153000000Y-105500000D03*
X153000000Y-103500000D03*
D12*
X153000000Y-109250000D03*
X153000000Y-107750000D03*
D16*
X155500000Y-103500000D03*
X157500000Y-103500000D03*
X157500000Y-105500000D03*
X155500000Y-105500000D03*
D15*
X147500000Y-118500000D03*
X147500000Y-116500000D03*
X147500000Y-122500000D03*
X147500000Y-120500000D03*
D17*
X149000000Y-108648840D03*
X149000000Y-104351160D03*
D18*
X152460000Y-123500000D03*
D19*
X155000000Y-123500000D03*
X157540000Y-123500000D03*
X160080000Y-123500000D03*
X162620000Y-123500000D03*
D20*
X147750000Y-112500000D03*
X149250000Y-112500000D03*
X149250000Y-114500000D03*
X147750000Y-114500000D03*
D21*
X160000000Y-119250000D03*
X160000000Y-117750000D03*
D13*
X157250000Y-101500000D03*
X155750000Y-101500000D03*
X161250000Y-107000000D03*
X159750000Y-107000000D03*
X161250000Y-105500000D03*
X159750000Y-105500000D03*
X151250000Y-112500000D03*
X152750000Y-112500000D03*
D22*
X162500000Y-99500000D03*
X152500000Y-99500000D03*
D11*
X147000000Y-124500000D03*
D23*
X160000000Y-104500000D03*
D11*
X162500000Y-112500000D03*
D23*
X149500000Y-121999992D03*
X166000000Y-120500000D03*
X164000000Y-120500000D03*
X150000000Y-114500000D03*
X160000000Y-120500000D03*
X158000000Y-120500000D03*
X150499984Y-116000000D03*
X151000000Y-111000000D03*
X153000000Y-110500000D03*
X159500000Y-108000000D03*
X152500000Y-118000000D03*
X161000000Y-104500000D03*
D24*
X159750000Y-105500000D02*
X159750000Y-107000000D01*
X159750000Y-107000000D02*
X159750000Y-107750000D01*
X159750000Y-107750000D02*
X159500000Y-108000000D01*
X159365000Y-109700000D02*
X159365000Y-108135000D01*
X159750000Y-104750000D02*
X160000000Y-104500000D01*
X159750000Y-105500000D02*
X159750000Y-104750000D01*
D25*
X163207106Y-112500000D02*
X162500000Y-112500000D01*
X163395000Y-112500000D02*
X163207106Y-112500000D01*
X164445000Y-111450000D02*
X163395000Y-112500000D01*
X164445000Y-109700000D02*
X164445000Y-111450000D01*
D24*
X149100001Y-122399991D02*
X149500000Y-121999992D01*
X148999992Y-122500000D02*
X149100001Y-122399991D01*
X147500000Y-122500000D02*
X148999992Y-122500000D01*
X166000000Y-119250000D02*
X166000000Y-120500000D01*
X164000000Y-119250000D02*
X164000000Y-120500000D01*
X149250000Y-114500000D02*
X150000000Y-114500000D01*
X160000000Y-119250000D02*
X160000000Y-120500000D01*
X158000000Y-119250000D02*
X158000000Y-120500000D01*
D25*
X151065685Y-116000000D02*
X150499984Y-116000000D01*
X151125000Y-116000000D02*
X151065685Y-116000000D01*
X151250000Y-115875000D02*
X151125000Y-116000000D01*
X151250000Y-114500000D02*
X151250000Y-115875000D01*
X151250000Y-115815685D02*
X151065685Y-116000000D01*
X151250000Y-115750000D02*
X151250000Y-115815685D01*
X151000000Y-111000000D02*
X151000000Y-112250000D01*
X151000000Y-112250000D02*
X151250000Y-112500000D01*
D26*
X153000000Y-109250000D02*
X153000000Y-110500000D01*
D25*
X151250000Y-112500000D02*
X151250000Y-114500000D01*
D27*
X159365000Y-108135000D02*
X159500000Y-108000000D01*
D24*
X160635000Y-109700000D02*
X160635000Y-107615000D01*
X160635000Y-107615000D02*
X161250000Y-107000000D01*
X161250000Y-105500000D02*
X161250000Y-107000000D01*
D25*
X152000000Y-123040000D02*
X152460000Y-123500000D01*
X152750000Y-114500000D02*
X152750000Y-117750000D01*
X152750000Y-117750000D02*
X152500000Y-118000000D01*
X156825000Y-109700000D02*
X156825000Y-111450000D01*
X156825000Y-111450000D02*
X155775000Y-112500000D01*
X155775000Y-112500000D02*
X152750000Y-112500000D01*
D24*
X161250000Y-105500000D02*
X161250000Y-104750000D01*
X161250000Y-104750000D02*
X161000000Y-104500000D01*
D25*
X152750000Y-113000000D02*
X152750000Y-114500000D01*
X152750000Y-113000000D02*
X152750000Y-112500000D01*
X152750000Y-113000000D02*
X152750000Y-112750000D01*
D28*
X160635000Y-109700000D02*
X160635000Y-110150000D01*
X160635000Y-110150000D02*
X160700000Y-110215000D01*
X153190000Y-124254380D02*
X153190000Y-123500000D01*
D26*
X153000000Y-103500000D02*
X149851160Y-103500000D01*
X149851160Y-103500000D02*
X149000000Y-104351160D01*
X155750000Y-101500000D02*
X155000000Y-101500000D01*
X155000000Y-101500000D02*
X153000000Y-103500000D01*
X152500000Y-99500000D02*
X153750000Y-99500000D01*
X153750000Y-99500000D02*
X155750000Y-101500000D01*
D24*
X163175000Y-115100000D02*
X163175000Y-116175000D01*
X163175000Y-116175000D02*
X164000000Y-117000000D01*
X164000000Y-117000000D02*
X164000000Y-117750000D01*
X158000000Y-117750000D02*
X158000000Y-115195000D01*
X158000000Y-115195000D02*
X158095000Y-115100000D01*
X156250000Y-117500000D02*
X156825000Y-116925000D01*
X156825000Y-116925000D02*
X156825000Y-115100000D01*
X156250000Y-119500000D02*
X156250000Y-117500000D01*
X163815996Y-125500000D02*
X159540000Y-125500000D01*
X159540000Y-125500000D02*
X157540000Y-123500000D01*
X163175000Y-109250000D02*
X163175000Y-109700000D01*
X164425000Y-108000000D02*
X163175000Y-109250000D01*
X163815996Y-125500000D02*
X168000000Y-121315996D01*
X168000000Y-121315996D02*
X168000000Y-110000000D01*
X168000000Y-110000000D02*
X166000000Y-108000000D01*
X166000000Y-108000000D02*
X164425000Y-108000000D01*
X160635000Y-115100000D02*
X160635000Y-116635000D01*
X160635000Y-116635000D02*
X161500000Y-117500000D01*
X161500000Y-117500000D02*
X161500000Y-120500000D01*
X161500000Y-120500000D02*
X160500000Y-121500000D01*
X160500000Y-121500000D02*
X157000000Y-121500000D01*
X157000000Y-121500000D02*
X155000000Y-123500000D01*
X161905000Y-115100000D02*
X161905000Y-116405000D01*
X162500000Y-121080000D02*
X160080000Y-123500000D01*
X161905000Y-116405000D02*
X162500000Y-117000000D01*
X162500000Y-117000000D02*
X162500000Y-121080000D01*
D26*
X153000000Y-106500000D02*
X153000000Y-107750000D01*
X153000000Y-106695000D02*
X155555000Y-109250000D01*
X153000000Y-105500000D02*
X153000000Y-106500000D01*
X153000000Y-106500000D02*
X153000000Y-106695000D01*
X155555000Y-109250000D02*
X155555000Y-109700000D01*
D28*
X155505000Y-109750000D02*
X155555000Y-109700000D01*
D24*
X147500000Y-118500000D02*
X147500000Y-120500000D01*
X147500000Y-116500000D02*
X147975000Y-116500000D01*
X147975000Y-116500000D02*
X150975000Y-119500000D01*
X150975000Y-119500000D02*
X151000000Y-119500000D01*
X147750000Y-114500000D02*
X147750000Y-116250000D01*
X147750000Y-116250000D02*
X147500000Y-116500000D01*
X147750000Y-112500000D02*
X147750000Y-114500000D01*
X166000000Y-117750000D02*
X166000000Y-117500000D01*
X166000000Y-117500000D02*
X164445000Y-115945000D01*
X164445000Y-115945000D02*
X164445000Y-115100000D01*
X154750000Y-117500000D02*
X154750000Y-115905000D01*
X154750000Y-115905000D02*
X155555000Y-115100000D01*
X152500000Y-119500000D02*
X154750000Y-119500000D01*
D26*
X157250000Y-101500000D02*
X157250000Y-103250000D01*
X157250000Y-103250000D02*
X157500000Y-103500000D01*
X157750000Y-103250000D02*
X157500000Y-103500000D01*
X155500000Y-103500000D02*
X155500000Y-105500000D01*
X157500000Y-105500000D02*
X158095000Y-106095000D01*
X158095000Y-106095000D02*
X158095000Y-109700000D01*
D24*
X149250000Y-112500000D02*
X149250000Y-108898840D01*
X149250000Y-108898840D02*
X149000000Y-108648840D01*
X160000000Y-117750000D02*
X159365000Y-117115000D01*
X159365000Y-117115000D02*
X159365000Y-115100000D01*
D26*
X161905000Y-109700000D02*
X161905000Y-108105035D01*
X161905000Y-108105035D02*
X163000000Y-107010035D01*
X163000000Y-99500000D02*
X162500000Y-99500000D01*
X163000000Y-107010035D02*
X163000000Y-99500000D01*
M02*
