M48
;DRILL file {KiCad 4.0.7} date 2018 June 13, Wednesday 14:15:55
;FORMAT={-:-/ absolute / metric / decimal}
FMAT,2
METRIC,TZ
T1C0.400
T2C0.600
T3C1.000
T4C3.200
%
G90
G05
M71
T1
X149.5Y-122.
X150.Y-114.5
X150.5Y-116.
X151.Y-111.
X152.5Y-118.
X153.Y-110.5
X158.Y-120.5
X159.5Y-108.
X160.Y-104.5
X160.Y-120.5
X161.Y-104.5
X164.Y-120.5
X166.Y-120.5
T2
X162.5Y-112.5
T3
X152.46Y-123.5
X155.Y-123.5
X157.54Y-123.5
X160.08Y-123.5
X162.62Y-123.5
T4
X157.Y-94.5
X157.Y-128.5
T0
M30
