G04 #@! TF.FileFunction,Soldermask,Bot*
%FSLAX46Y46*%
G04 Gerber Fmt 4.6, Leading zero omitted, Abs format (unit mm)*
G04 Created by KiCad (PCBNEW 4.0.7) date 2018 November 22, Thursday 00:19:32*
%MOMM*%
%LPD*%
G01*
G04 APERTURE LIST*
%ADD10C,0.050000*%
%ADD11C,2.900000*%
%ADD12R,1.289000X1.162000*%
%ADD13C,2.800000*%
%ADD14R,2.800000X2.800000*%
%ADD15R,2.100000X2.100000*%
%ADD16O,2.100000X2.100000*%
%ADD17R,1.950000X1.700000*%
%ADD18O,2.398980X2.398980*%
%ADD19R,2.398980X2.398980*%
%ADD20C,1.004800*%
%ADD21C,1.009600*%
%ADD22R,2.127200X2.432000*%
%ADD23O,2.127200X2.432000*%
%ADD24R,1.750000X1.750000*%
G04 APERTURE END LIST*
D10*
D11*
X17940000Y7500000D03*
X61500000Y7500000D03*
D12*
X80990000Y44417000D03*
X80990000Y42893000D03*
X78990000Y44417000D03*
X78990000Y42893000D03*
D13*
X74440000Y12855000D03*
D14*
X74440000Y16355000D03*
D15*
X69350000Y2830000D03*
D16*
X66810000Y2830000D03*
D15*
X56650000Y2830000D03*
D16*
X59190000Y2830000D03*
D17*
X75510000Y26005000D03*
X83460000Y26005000D03*
X75510000Y30505000D03*
X83460000Y30505000D03*
D15*
X61730000Y2830000D03*
D16*
X64270000Y2830000D03*
D11*
X18000000Y52000000D03*
D18*
X28710000Y45260000D03*
D19*
X36330000Y45260000D03*
D18*
X33790000Y45260000D03*
X31250000Y45260000D03*
X26170000Y45260000D03*
X16230000Y17380000D03*
D19*
X16230000Y25000000D03*
D18*
X16230000Y22460000D03*
X16230000Y19920000D03*
X16190000Y36180000D03*
D19*
X16190000Y43800000D03*
D18*
X16190000Y41260000D03*
X16190000Y38720000D03*
X16190000Y33640000D03*
D15*
X25360000Y58000000D03*
D16*
X27900000Y58000000D03*
X30440000Y58000000D03*
X32980000Y58000000D03*
X35520000Y58000000D03*
X38060000Y58000000D03*
D20*
X79000000Y22500000D03*
D21*
X77500000Y22500000D03*
D22*
X41170000Y2750000D03*
D23*
X43710000Y2750000D03*
X46250000Y2750000D03*
X48790000Y2750000D03*
D24*
X22750000Y58000000D03*
M02*
