M48
;DRILL file {KiCad 4.0.7} date 2018 November 22, Thursday 00:20:15
;FORMAT={-:-/ absolute / metric / decimal}
FMAT,2
METRIC,TZ
T1C0.300
T2C0.400
T3C0.600
T4C0.800
T5C1.000
T6C1.016
T7C1.097
T8C1.200
T9C2.500
%
G90
G05
M71
T1
X15.21Y46.005
X17.21Y46.005
X21.295Y24.69
X21.295Y17.44
X26.645Y16.19
X27.27Y26.19
X27.295Y20.94
X27.795Y11.46
X28.295Y26.69
X28.32Y22.14
X28.795Y26.19
X28.795Y11.46
X29.295Y25.69
X30.44Y41.205
X31.44Y41.205
X31.795Y11.19
X32.795Y11.19
X39.5Y44.75
X43.047Y22.529
X43.822Y22.33
X44.Y25.
X44.897Y23.723
X45.5Y23.
X45.549Y21.799
X46.Y30.
X46.566Y29.434
X46.75Y39.25
X46.9Y34.997
X47.5Y29.25
X47.75Y22.75
X48.Y25.25
X48.25Y38.
X48.75Y29.5
X48.94Y34.955
X49.75Y29.5
X49.948Y28.725
X50.24Y31.155
X50.45Y17.721
X50.966Y18.395
X51.19Y19.205
X51.191Y17.157
X51.76Y23.805
X51.94Y45.455
X53.69Y45.505
X54.706Y30.155
X54.74Y25.855
X56.25Y20.
X56.25Y20.
X59.44Y14.955
X59.865Y16.206
X60.665Y16.18
X61.44Y22.455
X61.44Y20.455
X61.44Y19.455
X61.75Y30.
X61.861Y17.805
X62.14Y44.155
X62.44Y27.455
X62.71Y17.705
X62.87Y45.005
X65.44Y15.955
X65.44Y14.955
X65.75Y31.25
X66.94Y14.205
X66.94Y11.705
X67.44Y44.055
X67.44Y42.955
X67.74Y49.555
X67.75Y50.5
X67.75Y48.5
X67.84Y18.855
X67.94Y21.955
X67.94Y20.955
X67.94Y14.955
X67.94Y11.955
X68.19Y38.655
X68.25Y47.75
X68.5Y23.25
X68.54Y44.055
X68.54Y42.955
X68.75Y50.5
X68.75Y49.5
X68.75Y48.5
X68.75Y25.75
X68.89Y37.955
X69.79Y38.655
X69.79Y37.755
X70.Y29.5
X70.65Y18.755
X70.89Y37.755
X70.93Y47.646
X71.79Y37.755
X71.94Y47.505
X72.94Y20.455
X72.94Y19.455
X72.94Y18.455
X73.94Y50.655
X73.94Y20.455
X73.94Y19.455
X73.94Y18.455
X74.Y25.25
X74.94Y43.455
X74.94Y20.455
X74.94Y19.455
X74.94Y18.455
X75.24Y49.155
X75.24Y48.255
X75.24Y47.555
X75.5Y31.75
X75.725Y42.49
X75.94Y22.455
X75.94Y21.455
X75.94Y20.455
X75.94Y19.455
X75.94Y18.455
X76.24Y48.255
X76.24Y47.555
X76.69Y42.455
X76.725Y41.49
X76.94Y19.455
X76.94Y18.455
X76.94Y17.455
X76.94Y16.455
X76.94Y15.455
X77.25Y47.5
X77.44Y26.455
X77.44Y25.455
X77.5Y22.5
X77.69Y42.455
X77.69Y41.455
X77.84Y24.555
X77.94Y19.455
X77.94Y18.455
X77.94Y17.455
X77.94Y16.455
X77.94Y15.455
X78.44Y26.455
X78.44Y25.455
X78.99Y45.355
X79.Y22.5
X80.44Y23.255
X80.44Y22.455
X80.44Y21.455
X80.75Y45.5
X81.24Y31.255
X82.19Y42.955
X82.44Y22.455
X82.5Y33.45
X82.59Y42.155
X83.34Y12.055
X83.39Y45.555
X83.39Y38.555
T2
X36.25Y6.
X36.5Y12.25
X38.25Y14.75
X40.75Y15.
X41.25Y22.25
X42.75Y24.25
X44.5Y15.5
X45.25Y20.25
X50.Y17.
X57.Y14.75
T3
X9.445Y36.71
X24.995Y40.19
X24.995Y38.19
X30.5Y53.25
X31.75Y2.
X33.Y8.
X34.25Y2.
X35.661Y48.133
X42.25Y7.5
X44.5Y10.75
X44.5Y8.75
X49.75Y5.25
X58.75Y12.25
X61.75Y12.25
X62.94Y36.955
X62.94Y34.955
X66.Y44.75
X67.75Y28.5
T4
X22.75Y58.
T5
X25.36Y58.
X27.9Y58.
X30.44Y58.
X32.98Y58.
X35.52Y58.
X38.06Y58.
X56.65Y2.83
X59.19Y2.83
X61.73Y2.83
X64.27Y2.83
X66.81Y2.83
X69.35Y2.83
T6
X41.17Y2.75
X43.71Y2.75
X46.25Y2.75
X48.79Y2.75
T7
X16.19Y43.8
X16.19Y41.26
X16.19Y38.72
X16.19Y36.18
X16.19Y33.64
X16.23Y25.
X16.23Y22.46
X16.23Y19.92
X16.23Y17.38
X26.17Y45.26
X28.71Y45.26
X31.25Y45.26
X33.79Y45.26
X36.33Y45.26
T8
X74.44Y16.355
X74.44Y12.855
T9
X17.94Y7.5
X18.Y52.
X61.5Y7.5
T0
M30
