M48
;DRILL file {KiCad 4.0.7} date 05/13/18 14:57:34
;FORMAT={-:-/ absolute / inch / decimal}
FMAT,2
INCH,TZ
T1C0.016
T2C0.028
T3C0.031
T4C0.039
%
G90
G05
M72
T1
X4.7293Y-4.5856
X4.8947Y-4.5768
X5.2589Y-4.2037
X5.2894Y-4.3268
X5.3455Y-4.6407
X5.5335Y-4.3287
X5.5522Y-4.1654
X5.6781Y-4.2087
X5.7146Y-4.2087
X5.9961Y-3.8278
T2
X4.7293Y-4.1293
X4.7293Y-4.2707
X4.8707Y-4.2707
T3
X5.6506Y-3.8671
X5.6506Y-4.0671
X5.7506Y-3.9671
T4
X5.9951Y-4.1644
X5.9951Y-4.2644
X5.9951Y-4.3644
X5.9951Y-4.4644
T0
M30
