%TF.GenerationSoftware,KiCad,Pcbnew,4.0.7*%
%TF.CreationDate,2018-05-13T17:46:32+02:00*%
%TF.ProjectId,nestbox,6E657374626F782E6B696361645F7063,rev?*%
%TF.FileFunction,Legend,Top*%
%FSLAX46Y46*%
G04 Gerber Fmt 4.6, Leading zero omitted, Abs format (unit mm)*
G04 Created by KiCad (PCBNEW 4.0.7) date 05/13/18 17:46:32*
%MOMM*%
%LPD*%
G01*
G04 APERTURE LIST*
%ADD10C,0.150000*%
%ADD11C,0.200000*%
%ADD12C,0.254000*%
%ADD13C,0.120000*%
%ADD14C,0.050000*%
G04 APERTURE END LIST*
D10*
X155780000Y-96710000D02*
G75*
G03X155780000Y-96710000I-2500000J0D01*
G01*
X155640000Y-117920000D02*
G75*
G03X155640000Y-117920000I-2500000J0D01*
G01*
X119180000Y-118160000D02*
G75*
G03X119180000Y-118160000I-2500000J0D01*
G01*
X119390000Y-96620000D02*
G75*
G03X119390000Y-96620000I-2500000J0D01*
G01*
X154650000Y-112902928D02*
X154614286Y-112974357D01*
X154614286Y-113081500D01*
X154650000Y-113188643D01*
X154721429Y-113260071D01*
X154792857Y-113295786D01*
X154935714Y-113331500D01*
X155042857Y-113331500D01*
X155185714Y-113295786D01*
X155257143Y-113260071D01*
X155328571Y-113188643D01*
X155364286Y-113081500D01*
X155364286Y-113010071D01*
X155328571Y-112902928D01*
X155292857Y-112867214D01*
X155042857Y-112867214D01*
X155042857Y-113010071D01*
X155364286Y-112545786D02*
X154614286Y-112545786D01*
X155364286Y-112117214D01*
X154614286Y-112117214D01*
X155364286Y-111760072D02*
X154614286Y-111760072D01*
X154614286Y-111581500D01*
X154650000Y-111474357D01*
X154721429Y-111402929D01*
X154792857Y-111367214D01*
X154935714Y-111331500D01*
X155042857Y-111331500D01*
X155185714Y-111367214D01*
X155257143Y-111402929D01*
X155328571Y-111474357D01*
X155364286Y-111581500D01*
X155364286Y-111760072D01*
X154614286Y-110541499D02*
X154614286Y-110398642D01*
X154650000Y-110327214D01*
X154721429Y-110255785D01*
X154864286Y-110220071D01*
X155114286Y-110220071D01*
X155257143Y-110255785D01*
X155328571Y-110327214D01*
X155364286Y-110398642D01*
X155364286Y-110541499D01*
X155328571Y-110612928D01*
X155257143Y-110684357D01*
X155114286Y-110720071D01*
X154864286Y-110720071D01*
X154721429Y-110684357D01*
X154650000Y-110612928D01*
X154614286Y-110541499D01*
X154614286Y-109898643D02*
X155221429Y-109898643D01*
X155292857Y-109862928D01*
X155328571Y-109827214D01*
X155364286Y-109755785D01*
X155364286Y-109612928D01*
X155328571Y-109541500D01*
X155292857Y-109505785D01*
X155221429Y-109470071D01*
X154614286Y-109470071D01*
X154614286Y-109220071D02*
X154614286Y-108791500D01*
X155364286Y-109005786D02*
X154614286Y-109005786D01*
X155328571Y-107840786D02*
X155364286Y-107733643D01*
X155364286Y-107555072D01*
X155328571Y-107483643D01*
X155292857Y-107447929D01*
X155221429Y-107412214D01*
X155150000Y-107412214D01*
X155078571Y-107447929D01*
X155042857Y-107483643D01*
X155007143Y-107555072D01*
X154971429Y-107697929D01*
X154935714Y-107769357D01*
X154900000Y-107805072D01*
X154828571Y-107840786D01*
X154757143Y-107840786D01*
X154685714Y-107805072D01*
X154650000Y-107769357D01*
X154614286Y-107697929D01*
X154614286Y-107519357D01*
X154650000Y-107412214D01*
X155364286Y-107090786D02*
X154614286Y-107090786D01*
X154614286Y-106912214D01*
X154650000Y-106805071D01*
X154721429Y-106733643D01*
X154792857Y-106697928D01*
X154935714Y-106662214D01*
X155042857Y-106662214D01*
X155185714Y-106697928D01*
X155257143Y-106733643D01*
X155328571Y-106805071D01*
X155364286Y-106912214D01*
X155364286Y-107090786D01*
X154614286Y-105604356D02*
X155364286Y-105354356D01*
X154614286Y-105104356D01*
X155328571Y-104532928D02*
X155364286Y-104604357D01*
X155364286Y-104747214D01*
X155328571Y-104818642D01*
X155292857Y-104854357D01*
X155221429Y-104890071D01*
X155007143Y-104890071D01*
X154935714Y-104854357D01*
X154900000Y-104818642D01*
X154864286Y-104747214D01*
X154864286Y-104604357D01*
X154900000Y-104532928D01*
X155328571Y-103890071D02*
X155364286Y-103961500D01*
X155364286Y-104104357D01*
X155328571Y-104175785D01*
X155292857Y-104211500D01*
X155221429Y-104247214D01*
X155007143Y-104247214D01*
X154935714Y-104211500D01*
X154900000Y-104175785D01*
X154864286Y-104104357D01*
X154864286Y-103961500D01*
X154900000Y-103890071D01*
X155150000Y-121050000D02*
X156500000Y-121050000D01*
X156500000Y-93600000D02*
X156500000Y-121050000D01*
X113775000Y-93600000D02*
X156525000Y-93600000D01*
X113775000Y-121050000D02*
X113775000Y-93600000D01*
X155175000Y-121050000D02*
X113775000Y-121050000D01*
D11*
X124515500Y-102016000D02*
X124515500Y-101180000D01*
X124515500Y-101180000D02*
X123515500Y-101180000D01*
X123515500Y-101180000D02*
X123515500Y-102031000D01*
D12*
X128615500Y-106680000D02*
G75*
G03X128615500Y-106680000I-4600000J0D01*
G01*
X120727500Y-103025000D02*
G75*
G03X120727500Y-103025000I-59000J0D01*
G01*
D10*
X136544000Y-108630000D02*
X137306000Y-108630000D01*
X137306000Y-108630000D02*
X137306000Y-111170000D01*
X137306000Y-111170000D02*
X136544000Y-111170000D01*
X136544000Y-111170000D02*
X136544000Y-108630000D01*
X135824992Y-108274400D02*
G75*
G03X135824992Y-108274400I-68392J0D01*
G01*
X146724800Y-108305000D02*
G75*
G03X146724800Y-108305000I-50800J0D01*
G01*
X146420000Y-109194000D02*
X146420000Y-109956000D01*
X146420000Y-109956000D02*
X143880000Y-109956000D01*
X143880000Y-109956000D02*
X143880000Y-109194000D01*
X143880000Y-109194000D02*
X146420000Y-109194000D01*
X146420000Y-109194000D02*
X146420000Y-109575000D01*
D13*
X126901500Y-113378500D02*
X126901500Y-114078500D01*
X125701500Y-114078500D02*
X125701500Y-113378500D01*
X131477500Y-113376000D02*
X130777500Y-113376000D01*
X130777500Y-112176000D02*
X131477500Y-112176000D01*
X140200000Y-118900000D02*
X139500000Y-118900000D01*
X139500000Y-117700000D02*
X140200000Y-117700000D01*
X151387500Y-113661500D02*
X154047500Y-113661500D01*
X151387500Y-105981500D02*
X151387500Y-113661500D01*
X154047500Y-105981500D02*
X154047500Y-113661500D01*
X151387500Y-105981500D02*
X154047500Y-105981500D01*
X151387500Y-104711500D02*
X151387500Y-103381500D01*
X151387500Y-103381500D02*
X152717500Y-103381500D01*
X136450000Y-104245000D02*
X137450000Y-104245000D01*
X137450000Y-105605000D02*
X136450000Y-105605000D01*
X121557500Y-114419000D02*
X121557500Y-113419000D01*
X122917500Y-113419000D02*
X122917500Y-114419000D01*
X132730000Y-107375000D02*
X132730000Y-108375000D01*
X131370000Y-108375000D02*
X131370000Y-107375000D01*
X135120000Y-115650000D02*
X135120000Y-114650000D01*
X136480000Y-114650000D02*
X136480000Y-115650000D01*
X139500000Y-113370000D02*
X140500000Y-113370000D01*
X140500000Y-114730000D02*
X139500000Y-114730000D01*
X147085000Y-96073000D02*
G75*
G03X147085000Y-96073000I-1155000J0D01*
G01*
X142310000Y-104393000D02*
X142310000Y-94743000D01*
X147261000Y-104393000D02*
X147261000Y-94743000D01*
X142310000Y-104393000D02*
X147261000Y-104393000D01*
X142310000Y-94743000D02*
X147261000Y-94743000D01*
X145196000Y-95197000D02*
X146806000Y-96808000D01*
X145055000Y-95337000D02*
X146665000Y-96949000D01*
X148400000Y-101850000D02*
X148400000Y-101150000D01*
X149600000Y-101150000D02*
X149600000Y-101850000D01*
D12*
X118875024Y-108554762D02*
X117605024Y-108554762D01*
X117605024Y-108070953D01*
X117665500Y-107950000D01*
X117725976Y-107889524D01*
X117846929Y-107829048D01*
X118028357Y-107829048D01*
X118149310Y-107889524D01*
X118209786Y-107950000D01*
X118270262Y-108070953D01*
X118270262Y-108554762D01*
X118875024Y-107284762D02*
X117605024Y-107284762D01*
X118875024Y-105954286D02*
X118270262Y-106377619D01*
X118875024Y-106680000D02*
X117605024Y-106680000D01*
X117605024Y-106196191D01*
X117665500Y-106075238D01*
X117725976Y-106014762D01*
X117846929Y-105954286D01*
X118028357Y-105954286D01*
X118149310Y-106014762D01*
X118209786Y-106075238D01*
X118270262Y-106196191D01*
X118270262Y-106680000D01*
X118875024Y-104744762D02*
X118875024Y-105470476D01*
X118875024Y-105107619D02*
X117605024Y-105107619D01*
X117786452Y-105228571D01*
X117907405Y-105349524D01*
X117967881Y-105470476D01*
D10*
X136389286Y-112057000D02*
X136746429Y-112057000D01*
X136317858Y-112271286D02*
X136567858Y-111521286D01*
X136817858Y-112271286D01*
X137460715Y-112271286D02*
X137032143Y-112271286D01*
X137246429Y-112271286D02*
X137246429Y-111521286D01*
X137175000Y-111628429D01*
X137103572Y-111699857D01*
X137032143Y-111735571D01*
D14*
D10*
X144578571Y-111864286D02*
X144578571Y-112471429D01*
X144614286Y-112542857D01*
X144650000Y-112578571D01*
X144721429Y-112614286D01*
X144864286Y-112614286D01*
X144935714Y-112578571D01*
X144971429Y-112542857D01*
X145007143Y-112471429D01*
X145007143Y-111864286D01*
X145757143Y-112614286D02*
X145328571Y-112614286D01*
X145542857Y-112614286D02*
X145542857Y-111864286D01*
X145471428Y-111971429D01*
X145400000Y-112042857D01*
X145328571Y-112078571D01*
D14*
D10*
X127969357Y-113853500D02*
X128005071Y-113889214D01*
X128040786Y-113996357D01*
X128040786Y-114067786D01*
X128005071Y-114174929D01*
X127933643Y-114246357D01*
X127862214Y-114282072D01*
X127719357Y-114317786D01*
X127612214Y-114317786D01*
X127469357Y-114282072D01*
X127397929Y-114246357D01*
X127326500Y-114174929D01*
X127290786Y-114067786D01*
X127290786Y-113996357D01*
X127326500Y-113889214D01*
X127362214Y-113853500D01*
X128040786Y-113139214D02*
X128040786Y-113567786D01*
X128040786Y-113353500D02*
X127290786Y-113353500D01*
X127397929Y-113424929D01*
X127469357Y-113496357D01*
X127505071Y-113567786D01*
X125240786Y-113853499D02*
X125240786Y-114282071D01*
X125240786Y-114067785D02*
X124490786Y-114067785D01*
X124597929Y-114139214D01*
X124669357Y-114210642D01*
X124705071Y-114282071D01*
X124740786Y-113532071D02*
X125240786Y-113532071D01*
X124812214Y-113532071D02*
X124776500Y-113496356D01*
X124740786Y-113424928D01*
X124740786Y-113317785D01*
X124776500Y-113246356D01*
X124847929Y-113210642D01*
X125240786Y-113210642D01*
X131002500Y-114443857D02*
X130966786Y-114479571D01*
X130859643Y-114515286D01*
X130788214Y-114515286D01*
X130681071Y-114479571D01*
X130609643Y-114408143D01*
X130573928Y-114336714D01*
X130538214Y-114193857D01*
X130538214Y-114086714D01*
X130573928Y-113943857D01*
X130609643Y-113872429D01*
X130681071Y-113801000D01*
X130788214Y-113765286D01*
X130859643Y-113765286D01*
X130966786Y-113801000D01*
X131002500Y-113836714D01*
X131288214Y-113836714D02*
X131323928Y-113801000D01*
X131395357Y-113765286D01*
X131573928Y-113765286D01*
X131645357Y-113801000D01*
X131681071Y-113836714D01*
X131716786Y-113908143D01*
X131716786Y-113979571D01*
X131681071Y-114086714D01*
X131252500Y-114515286D01*
X131716786Y-114515286D01*
X130288215Y-111715286D02*
X129859643Y-111715286D01*
X130073929Y-111715286D02*
X130073929Y-110965286D01*
X130002500Y-111072429D01*
X129931072Y-111143857D01*
X129859643Y-111179571D01*
X130752501Y-110965286D02*
X130823929Y-110965286D01*
X130895358Y-111001000D01*
X130931072Y-111036714D01*
X130966786Y-111108143D01*
X131002501Y-111251000D01*
X131002501Y-111429571D01*
X130966786Y-111572429D01*
X130931072Y-111643857D01*
X130895358Y-111679571D01*
X130823929Y-111715286D01*
X130752501Y-111715286D01*
X130681072Y-111679571D01*
X130645358Y-111643857D01*
X130609643Y-111572429D01*
X130573929Y-111429571D01*
X130573929Y-111251000D01*
X130609643Y-111108143D01*
X130645358Y-111036714D01*
X130681072Y-111001000D01*
X130752501Y-110965286D01*
X131466787Y-110965286D02*
X131538215Y-110965286D01*
X131609644Y-111001000D01*
X131645358Y-111036714D01*
X131681072Y-111108143D01*
X131716787Y-111251000D01*
X131716787Y-111429571D01*
X131681072Y-111572429D01*
X131645358Y-111643857D01*
X131609644Y-111679571D01*
X131538215Y-111715286D01*
X131466787Y-111715286D01*
X131395358Y-111679571D01*
X131359644Y-111643857D01*
X131323929Y-111572429D01*
X131288215Y-111429571D01*
X131288215Y-111251000D01*
X131323929Y-111108143D01*
X131359644Y-111036714D01*
X131395358Y-111001000D01*
X131466787Y-110965286D01*
X132038215Y-111215286D02*
X132038215Y-111715286D01*
X132038215Y-111286714D02*
X132073930Y-111251000D01*
X132145358Y-111215286D01*
X132252501Y-111215286D01*
X132323930Y-111251000D01*
X132359644Y-111322429D01*
X132359644Y-111715286D01*
X139725000Y-119967857D02*
X139689286Y-120003571D01*
X139582143Y-120039286D01*
X139510714Y-120039286D01*
X139403571Y-120003571D01*
X139332143Y-119932143D01*
X139296428Y-119860714D01*
X139260714Y-119717857D01*
X139260714Y-119610714D01*
X139296428Y-119467857D01*
X139332143Y-119396429D01*
X139403571Y-119325000D01*
X139510714Y-119289286D01*
X139582143Y-119289286D01*
X139689286Y-119325000D01*
X139725000Y-119360714D01*
X139975000Y-119289286D02*
X140439286Y-119289286D01*
X140189286Y-119575000D01*
X140296428Y-119575000D01*
X140367857Y-119610714D01*
X140403571Y-119646429D01*
X140439286Y-119717857D01*
X140439286Y-119896429D01*
X140403571Y-119967857D01*
X140367857Y-120003571D01*
X140296428Y-120039286D01*
X140082143Y-120039286D01*
X140010714Y-120003571D01*
X139975000Y-119967857D01*
X139367858Y-117239286D02*
X138939286Y-117239286D01*
X139153572Y-117239286D02*
X139153572Y-116489286D01*
X139082143Y-116596429D01*
X139010715Y-116667857D01*
X138939286Y-116703571D01*
X139832144Y-116489286D02*
X139903572Y-116489286D01*
X139975001Y-116525000D01*
X140010715Y-116560714D01*
X140046429Y-116632143D01*
X140082144Y-116775000D01*
X140082144Y-116953571D01*
X140046429Y-117096429D01*
X140010715Y-117167857D01*
X139975001Y-117203571D01*
X139903572Y-117239286D01*
X139832144Y-117239286D01*
X139760715Y-117203571D01*
X139725001Y-117167857D01*
X139689286Y-117096429D01*
X139653572Y-116953571D01*
X139653572Y-116775000D01*
X139689286Y-116632143D01*
X139725001Y-116560714D01*
X139760715Y-116525000D01*
X139832144Y-116489286D01*
X140403572Y-116739286D02*
X140403572Y-117239286D01*
X140403572Y-116810714D02*
X140439287Y-116775000D01*
X140510715Y-116739286D01*
X140617858Y-116739286D01*
X140689287Y-116775000D01*
X140725001Y-116846429D01*
X140725001Y-117239286D01*
X151979405Y-102888881D02*
X151979405Y-101888881D01*
X152360358Y-101888881D01*
X152455596Y-101936500D01*
X152503215Y-101984119D01*
X152550834Y-102079357D01*
X152550834Y-102222214D01*
X152503215Y-102317452D01*
X152455596Y-102365071D01*
X152360358Y-102412690D01*
X151979405Y-102412690D01*
X153503215Y-102888881D02*
X152931786Y-102888881D01*
X153217500Y-102888881D02*
X153217500Y-101888881D01*
X153122262Y-102031738D01*
X153027024Y-102126976D01*
X152931786Y-102174595D01*
X136825000Y-106664286D02*
X136575000Y-106307143D01*
X136396428Y-106664286D02*
X136396428Y-105914286D01*
X136682143Y-105914286D01*
X136753571Y-105950000D01*
X136789286Y-105985714D01*
X136825000Y-106057143D01*
X136825000Y-106164286D01*
X136789286Y-106235714D01*
X136753571Y-106271429D01*
X136682143Y-106307143D01*
X136396428Y-106307143D01*
X137539286Y-106664286D02*
X137110714Y-106664286D01*
X137325000Y-106664286D02*
X137325000Y-105914286D01*
X137253571Y-106021429D01*
X137182143Y-106092857D01*
X137110714Y-106128571D01*
X135860714Y-103114286D02*
X136325000Y-103114286D01*
X136075000Y-103400000D01*
X136182142Y-103400000D01*
X136253571Y-103435714D01*
X136289285Y-103471429D01*
X136325000Y-103542857D01*
X136325000Y-103721429D01*
X136289285Y-103792857D01*
X136253571Y-103828571D01*
X136182142Y-103864286D01*
X135967857Y-103864286D01*
X135896428Y-103828571D01*
X135860714Y-103792857D01*
X136646428Y-103792857D02*
X136682143Y-103828571D01*
X136646428Y-103864286D01*
X136610714Y-103828571D01*
X136646428Y-103792857D01*
X136646428Y-103864286D01*
X136932143Y-103114286D02*
X137396429Y-103114286D01*
X137146429Y-103400000D01*
X137253571Y-103400000D01*
X137325000Y-103435714D01*
X137360714Y-103471429D01*
X137396429Y-103542857D01*
X137396429Y-103721429D01*
X137360714Y-103792857D01*
X137325000Y-103828571D01*
X137253571Y-103864286D01*
X137039286Y-103864286D01*
X136967857Y-103828571D01*
X136932143Y-103792857D01*
X137717857Y-103864286D02*
X137717857Y-103114286D01*
X137789286Y-103578571D02*
X138003572Y-103864286D01*
X138003572Y-103364286D02*
X137717857Y-103650000D01*
X123976786Y-114044000D02*
X123619643Y-114294000D01*
X123976786Y-114472572D02*
X123226786Y-114472572D01*
X123226786Y-114186857D01*
X123262500Y-114115429D01*
X123298214Y-114079714D01*
X123369643Y-114044000D01*
X123476786Y-114044000D01*
X123548214Y-114079714D01*
X123583929Y-114115429D01*
X123619643Y-114186857D01*
X123619643Y-114472572D01*
X123298214Y-113758286D02*
X123262500Y-113722572D01*
X123226786Y-113651143D01*
X123226786Y-113472572D01*
X123262500Y-113401143D01*
X123298214Y-113365429D01*
X123369643Y-113329714D01*
X123441071Y-113329714D01*
X123548214Y-113365429D01*
X123976786Y-113794000D01*
X123976786Y-113329714D01*
X120676786Y-114436857D02*
X121176786Y-114436857D01*
X120391071Y-114615428D02*
X120926786Y-114794000D01*
X120926786Y-114329714D01*
X120426786Y-114115428D02*
X120426786Y-113615428D01*
X121176786Y-113936857D01*
X121176786Y-113329714D02*
X120426786Y-113329714D01*
X120891071Y-113258285D02*
X121176786Y-113043999D01*
X120676786Y-113043999D02*
X120962500Y-113329714D01*
X133789286Y-108000000D02*
X133432143Y-108250000D01*
X133789286Y-108428572D02*
X133039286Y-108428572D01*
X133039286Y-108142857D01*
X133075000Y-108071429D01*
X133110714Y-108035714D01*
X133182143Y-108000000D01*
X133289286Y-108000000D01*
X133360714Y-108035714D01*
X133396429Y-108071429D01*
X133432143Y-108142857D01*
X133432143Y-108428572D01*
X133039286Y-107750000D02*
X133039286Y-107285714D01*
X133325000Y-107535714D01*
X133325000Y-107428572D01*
X133360714Y-107357143D01*
X133396429Y-107321429D01*
X133467857Y-107285714D01*
X133646429Y-107285714D01*
X133717857Y-107321429D01*
X133753571Y-107357143D01*
X133789286Y-107428572D01*
X133789286Y-107642857D01*
X133753571Y-107714286D01*
X133717857Y-107750000D01*
X130989286Y-108446428D02*
X130989286Y-108875000D01*
X130989286Y-108660714D02*
X130239286Y-108660714D01*
X130346429Y-108732143D01*
X130417857Y-108803571D01*
X130453571Y-108875000D01*
X130239286Y-107767857D02*
X130239286Y-108125000D01*
X130596429Y-108160714D01*
X130560714Y-108125000D01*
X130525000Y-108053571D01*
X130525000Y-107875000D01*
X130560714Y-107803571D01*
X130596429Y-107767857D01*
X130667857Y-107732142D01*
X130846429Y-107732142D01*
X130917857Y-107767857D01*
X130953571Y-107803571D01*
X130989286Y-107875000D01*
X130989286Y-108053571D01*
X130953571Y-108125000D01*
X130917857Y-108160714D01*
X130989286Y-107410714D02*
X130239286Y-107410714D01*
X130775000Y-107160714D01*
X130239286Y-106910714D01*
X130989286Y-106910714D01*
X137539286Y-115275000D02*
X137182143Y-115525000D01*
X137539286Y-115703572D02*
X136789286Y-115703572D01*
X136789286Y-115417857D01*
X136825000Y-115346429D01*
X136860714Y-115310714D01*
X136932143Y-115275000D01*
X137039286Y-115275000D01*
X137110714Y-115310714D01*
X137146429Y-115346429D01*
X137182143Y-115417857D01*
X137182143Y-115703572D01*
X137039286Y-114632143D02*
X137539286Y-114632143D01*
X136753571Y-114810714D02*
X137289286Y-114989286D01*
X137289286Y-114525000D01*
X133989286Y-115810715D02*
X133989286Y-116167858D01*
X134346429Y-116203572D01*
X134310714Y-116167858D01*
X134275000Y-116096429D01*
X134275000Y-115917858D01*
X134310714Y-115846429D01*
X134346429Y-115810715D01*
X134417857Y-115775000D01*
X134596429Y-115775000D01*
X134667857Y-115810715D01*
X134703571Y-115846429D01*
X134739286Y-115917858D01*
X134739286Y-116096429D01*
X134703571Y-116167858D01*
X134667857Y-116203572D01*
X134667857Y-115453572D02*
X134703571Y-115417857D01*
X134739286Y-115453572D01*
X134703571Y-115489286D01*
X134667857Y-115453572D01*
X134739286Y-115453572D01*
X133989286Y-114775000D02*
X133989286Y-114917857D01*
X134025000Y-114989286D01*
X134060714Y-115025000D01*
X134167857Y-115096429D01*
X134310714Y-115132143D01*
X134596429Y-115132143D01*
X134667857Y-115096429D01*
X134703571Y-115060714D01*
X134739286Y-114989286D01*
X134739286Y-114846429D01*
X134703571Y-114775000D01*
X134667857Y-114739286D01*
X134596429Y-114703571D01*
X134417857Y-114703571D01*
X134346429Y-114739286D01*
X134310714Y-114775000D01*
X134275000Y-114846429D01*
X134275000Y-114989286D01*
X134310714Y-115060714D01*
X134346429Y-115096429D01*
X134417857Y-115132143D01*
X134739286Y-114382143D02*
X133989286Y-114382143D01*
X134453571Y-114310714D02*
X134739286Y-114096428D01*
X134239286Y-114096428D02*
X134525000Y-114382143D01*
X139875000Y-115789286D02*
X139625000Y-115432143D01*
X139446428Y-115789286D02*
X139446428Y-115039286D01*
X139732143Y-115039286D01*
X139803571Y-115075000D01*
X139839286Y-115110714D01*
X139875000Y-115182143D01*
X139875000Y-115289286D01*
X139839286Y-115360714D01*
X139803571Y-115396429D01*
X139732143Y-115432143D01*
X139446428Y-115432143D01*
X140553571Y-115039286D02*
X140196428Y-115039286D01*
X140160714Y-115396429D01*
X140196428Y-115360714D01*
X140267857Y-115325000D01*
X140446428Y-115325000D01*
X140517857Y-115360714D01*
X140553571Y-115396429D01*
X140589286Y-115467857D01*
X140589286Y-115646429D01*
X140553571Y-115717857D01*
X140517857Y-115753571D01*
X140446428Y-115789286D01*
X140267857Y-115789286D01*
X140196428Y-115753571D01*
X140160714Y-115717857D01*
X138821428Y-112310714D02*
X138857142Y-112275000D01*
X138928571Y-112239286D01*
X139107142Y-112239286D01*
X139178571Y-112275000D01*
X139214285Y-112310714D01*
X139250000Y-112382143D01*
X139250000Y-112453571D01*
X139214285Y-112560714D01*
X138785714Y-112989286D01*
X139250000Y-112989286D01*
X139571428Y-112917857D02*
X139607143Y-112953571D01*
X139571428Y-112989286D01*
X139535714Y-112953571D01*
X139571428Y-112917857D01*
X139571428Y-112989286D01*
X139892857Y-112310714D02*
X139928571Y-112275000D01*
X140000000Y-112239286D01*
X140178571Y-112239286D01*
X140250000Y-112275000D01*
X140285714Y-112310714D01*
X140321429Y-112382143D01*
X140321429Y-112453571D01*
X140285714Y-112560714D01*
X139857143Y-112989286D01*
X140321429Y-112989286D01*
X140642857Y-112989286D02*
X140642857Y-112239286D01*
X140892857Y-112775000D01*
X141142857Y-112239286D01*
X141142857Y-112989286D01*
X141572381Y-100163238D02*
X141096190Y-100496572D01*
X141572381Y-100734667D02*
X140572381Y-100734667D01*
X140572381Y-100353714D01*
X140620000Y-100258476D01*
X140667619Y-100210857D01*
X140762857Y-100163238D01*
X140905714Y-100163238D01*
X141000952Y-100210857D01*
X141048571Y-100258476D01*
X141096190Y-100353714D01*
X141096190Y-100734667D01*
X140572381Y-99877524D02*
X141572381Y-99544191D01*
X140572381Y-99210857D01*
X141572381Y-98353714D02*
X141572381Y-98925143D01*
X141572381Y-98639429D02*
X140572381Y-98639429D01*
X140715238Y-98734667D01*
X140810476Y-98829905D01*
X140858095Y-98925143D01*
X150667857Y-101625000D02*
X150703571Y-101660714D01*
X150739286Y-101767857D01*
X150739286Y-101839286D01*
X150703571Y-101946429D01*
X150632143Y-102017857D01*
X150560714Y-102053572D01*
X150417857Y-102089286D01*
X150310714Y-102089286D01*
X150167857Y-102053572D01*
X150096429Y-102017857D01*
X150025000Y-101946429D01*
X149989286Y-101839286D01*
X149989286Y-101767857D01*
X150025000Y-101660714D01*
X150060714Y-101625000D01*
X150239286Y-100982143D02*
X150739286Y-100982143D01*
X149953571Y-101160714D02*
X150489286Y-101339286D01*
X150489286Y-100875000D01*
X147939286Y-101982142D02*
X147939286Y-102410714D01*
X147939286Y-102196428D02*
X147189286Y-102196428D01*
X147296429Y-102267857D01*
X147367857Y-102339285D01*
X147403571Y-102410714D01*
X147189286Y-101517856D02*
X147189286Y-101446428D01*
X147225000Y-101374999D01*
X147260714Y-101339285D01*
X147332143Y-101303571D01*
X147475000Y-101267856D01*
X147653571Y-101267856D01*
X147796429Y-101303571D01*
X147867857Y-101339285D01*
X147903571Y-101374999D01*
X147939286Y-101446428D01*
X147939286Y-101517856D01*
X147903571Y-101589285D01*
X147867857Y-101624999D01*
X147796429Y-101660714D01*
X147653571Y-101696428D01*
X147475000Y-101696428D01*
X147332143Y-101660714D01*
X147260714Y-101624999D01*
X147225000Y-101589285D01*
X147189286Y-101517856D01*
X147439286Y-100946428D02*
X147939286Y-100946428D01*
X147510714Y-100946428D02*
X147475000Y-100910713D01*
X147439286Y-100839285D01*
X147439286Y-100732142D01*
X147475000Y-100660713D01*
X147546429Y-100624999D01*
X147939286Y-100624999D01*
M02*
