%TF.GenerationSoftware,KiCad,Pcbnew,4.0.7*%
%TF.CreationDate,2018-05-13T17:06:32+02:00*%
%TF.ProjectId,nestbox,6E657374626F782E6B696361645F7063,rev?*%
%TF.FileFunction,Soldermask,Top*%
%FSLAX46Y46*%
G04 Gerber Fmt 4.6, Leading zero omitted, Abs format (unit mm)*
G04 Created by KiCad (PCBNEW 4.0.7) date 05/13/18 17:06:32*
%MOMM*%
%LPD*%
G01*
G04 APERTURE LIST*
%ADD10C,0.150000*%
%ADD11C,1.500000*%
%ADD12R,1.390600X1.009600*%
%ADD13R,0.990000X1.610000*%
%ADD14R,1.150000X1.600000*%
%ADD15R,1.600000X1.150000*%
%ADD16R,2.100000X2.100000*%
%ADD17O,2.100000X2.100000*%
%ADD18R,1.600000X1.300000*%
%ADD19R,1.300000X1.600000*%
%ADD20C,1.840000*%
G04 APERTURE END LIST*
D10*
X155780000Y-96710000D02*
G75*
G03X155780000Y-96710000I-2500000J0D01*
G01*
X155640000Y-117920000D02*
G75*
G03X155640000Y-117920000I-2500000J0D01*
G01*
X119180000Y-118160000D02*
G75*
G03X119180000Y-118160000I-2500000J0D01*
G01*
X119390000Y-96620000D02*
G75*
G03X119390000Y-96620000I-2500000J0D01*
G01*
X155150000Y-121050000D02*
X156500000Y-121050000D01*
X156500000Y-93600000D02*
X156500000Y-121050000D01*
X113775000Y-93600000D02*
X156525000Y-93600000D01*
X113775000Y-121050000D02*
X113775000Y-93600000D01*
X155175000Y-121050000D02*
X113775000Y-121050000D01*
D11*
X120123950Y-104883950D03*
X120123950Y-108476050D03*
X123716050Y-108476050D03*
D12*
X135764220Y-108960200D03*
X135764220Y-109900000D03*
X135764220Y-110839800D03*
X138085780Y-110839800D03*
X138085780Y-109900000D03*
X138085780Y-108960200D03*
D13*
X146100000Y-108320000D03*
X145150000Y-108320000D03*
X144200000Y-108320000D03*
X144200000Y-110830000D03*
X146100000Y-110830000D03*
D14*
X124325000Y-112500000D03*
X124325000Y-114400000D03*
D15*
X132050000Y-112500000D03*
X130150000Y-112500000D03*
X140800000Y-118300000D03*
X138900000Y-118300000D03*
D16*
X152275000Y-105775000D03*
D17*
X152275000Y-108315000D03*
X152275000Y-110855000D03*
X152275000Y-113395000D03*
D18*
X138050000Y-104925000D03*
X135850000Y-104925000D03*
D19*
X120125000Y-112500000D03*
X120125000Y-114700000D03*
X132050000Y-108975000D03*
X132050000Y-106775000D03*
X135800000Y-114050000D03*
X135800000Y-116250000D03*
D18*
X141100000Y-114050000D03*
X138900000Y-114050000D03*
D20*
X143525000Y-98225000D03*
X146065000Y-100765000D03*
X143525000Y-103305000D03*
D14*
X149000000Y-102450000D03*
X149000000Y-100550000D03*
M02*
