%TF.GenerationSoftware,KiCad,Pcbnew,4.0.7*%
%TF.CreationDate,2018-05-12T14:18:48+02:00*%
%TF.ProjectId,nestbox,6E657374626F782E6B696361645F7063,rev?*%
%TF.FileFunction,Legend,Top*%
%FSLAX46Y46*%
G04 Gerber Fmt 4.6, Leading zero omitted, Abs format (unit mm)*
G04 Created by KiCad (PCBNEW 4.0.7) date 05/12/18 14:18:48*
%MOMM*%
%LPD*%
G01*
G04 APERTURE LIST*
%ADD10C,0.150000*%
%ADD11C,0.200000*%
%ADD12C,0.120000*%
%ADD13C,0.127000*%
%ADD14C,0.254000*%
%ADD15C,0.050000*%
G04 APERTURE END LIST*
D10*
X155150000Y-121050000D02*
X156500000Y-121050000D01*
X156500000Y-93600000D02*
X156500000Y-121050000D01*
X113775000Y-93600000D02*
X156525000Y-93600000D01*
X113775000Y-121050000D02*
X113775000Y-93600000D01*
X155175000Y-121050000D02*
X113775000Y-121050000D01*
D11*
X146200000Y-107205000D02*
G75*
G03X146200000Y-107205000I-100000J0D01*
G01*
D12*
X146680000Y-108700000D02*
X146680000Y-110450000D01*
X143620000Y-108700000D02*
X143620000Y-110450000D01*
D13*
X136163000Y-108376000D02*
X136163000Y-111424000D01*
X136163000Y-111424000D02*
X137687000Y-111424000D01*
X137687000Y-111424000D02*
X137687000Y-108376000D01*
X137687000Y-108376000D02*
X136163000Y-108376000D01*
X135909000Y-108376000D02*
X135909000Y-108122000D01*
X135909000Y-108122000D02*
X136163000Y-108122000D01*
D12*
X124925000Y-113100000D02*
X124925000Y-113800000D01*
X123725000Y-113800000D02*
X123725000Y-113100000D01*
X131450000Y-113100000D02*
X130750000Y-113100000D01*
X130750000Y-111900000D02*
X131450000Y-111900000D01*
X140200000Y-118900000D02*
X139500000Y-118900000D01*
X139500000Y-117700000D02*
X140200000Y-117700000D01*
X150945000Y-114725000D02*
X153605000Y-114725000D01*
X150945000Y-107045000D02*
X150945000Y-114725000D01*
X153605000Y-107045000D02*
X153605000Y-114725000D01*
X150945000Y-107045000D02*
X153605000Y-107045000D01*
X150945000Y-105775000D02*
X150945000Y-104445000D01*
X150945000Y-104445000D02*
X152275000Y-104445000D01*
D11*
X122420000Y-102016000D02*
X122420000Y-101180000D01*
X122420000Y-101180000D02*
X121420000Y-101180000D01*
X121420000Y-101180000D02*
X121420000Y-102031000D01*
D14*
X126520000Y-106680000D02*
G75*
G03X126520000Y-106680000I-4600000J0D01*
G01*
X118632000Y-103025000D02*
G75*
G03X118632000Y-103025000I-59000J0D01*
G01*
D12*
X136450000Y-104245000D02*
X137450000Y-104245000D01*
X137450000Y-105605000D02*
X136450000Y-105605000D01*
X119445000Y-114100000D02*
X119445000Y-113100000D01*
X120805000Y-113100000D02*
X120805000Y-114100000D01*
X132730000Y-107375000D02*
X132730000Y-108375000D01*
X131370000Y-108375000D02*
X131370000Y-107375000D01*
X135120000Y-115650000D02*
X135120000Y-114650000D01*
X136480000Y-114650000D02*
X136480000Y-115650000D01*
X139500000Y-113370000D02*
X140500000Y-113370000D01*
X140500000Y-114730000D02*
X139500000Y-114730000D01*
X147100000Y-97270000D02*
G75*
G03X147100000Y-97270000I-1155000J0D01*
G01*
X142325000Y-105590000D02*
X142325000Y-95940000D01*
X147276000Y-105590000D02*
X147276000Y-95940000D01*
X142325000Y-105590000D02*
X147276000Y-105590000D01*
X142325000Y-95940000D02*
X147276000Y-95940000D01*
X145211000Y-96394000D02*
X146821000Y-98005000D01*
X145070000Y-96534000D02*
X146680000Y-98146000D01*
D10*
X144388095Y-111752381D02*
X144388095Y-112561905D01*
X144435714Y-112657143D01*
X144483333Y-112704762D01*
X144578571Y-112752381D01*
X144769048Y-112752381D01*
X144864286Y-112704762D01*
X144911905Y-112657143D01*
X144959524Y-112561905D01*
X144959524Y-111752381D01*
X145959524Y-112752381D02*
X145388095Y-112752381D01*
X145673809Y-112752381D02*
X145673809Y-111752381D01*
X145578571Y-111895238D01*
X145483333Y-111990476D01*
X145388095Y-112038095D01*
D15*
D10*
X136210714Y-107616667D02*
X136686905Y-107616667D01*
X136115476Y-107902381D02*
X136448809Y-106902381D01*
X136782143Y-107902381D01*
X137639286Y-107902381D02*
X137067857Y-107902381D01*
X137353571Y-107902381D02*
X137353571Y-106902381D01*
X137258333Y-107045238D01*
X137163095Y-107140476D01*
X137067857Y-107188095D01*
D15*
D10*
X126132143Y-113616666D02*
X126179762Y-113664285D01*
X126227381Y-113807142D01*
X126227381Y-113902380D01*
X126179762Y-114045238D01*
X126084524Y-114140476D01*
X125989286Y-114188095D01*
X125798810Y-114235714D01*
X125655952Y-114235714D01*
X125465476Y-114188095D01*
X125370238Y-114140476D01*
X125275000Y-114045238D01*
X125227381Y-113902380D01*
X125227381Y-113807142D01*
X125275000Y-113664285D01*
X125322619Y-113616666D01*
X126227381Y-112664285D02*
X126227381Y-113235714D01*
X126227381Y-112950000D02*
X125227381Y-112950000D01*
X125370238Y-113045238D01*
X125465476Y-113140476D01*
X125513095Y-113235714D01*
X130933334Y-114307143D02*
X130885715Y-114354762D01*
X130742858Y-114402381D01*
X130647620Y-114402381D01*
X130504762Y-114354762D01*
X130409524Y-114259524D01*
X130361905Y-114164286D01*
X130314286Y-113973810D01*
X130314286Y-113830952D01*
X130361905Y-113640476D01*
X130409524Y-113545238D01*
X130504762Y-113450000D01*
X130647620Y-113402381D01*
X130742858Y-113402381D01*
X130885715Y-113450000D01*
X130933334Y-113497619D01*
X131314286Y-113497619D02*
X131361905Y-113450000D01*
X131457143Y-113402381D01*
X131695239Y-113402381D01*
X131790477Y-113450000D01*
X131838096Y-113497619D01*
X131885715Y-113592857D01*
X131885715Y-113688095D01*
X131838096Y-113830952D01*
X131266667Y-114402381D01*
X131885715Y-114402381D01*
X139683334Y-120107143D02*
X139635715Y-120154762D01*
X139492858Y-120202381D01*
X139397620Y-120202381D01*
X139254762Y-120154762D01*
X139159524Y-120059524D01*
X139111905Y-119964286D01*
X139064286Y-119773810D01*
X139064286Y-119630952D01*
X139111905Y-119440476D01*
X139159524Y-119345238D01*
X139254762Y-119250000D01*
X139397620Y-119202381D01*
X139492858Y-119202381D01*
X139635715Y-119250000D01*
X139683334Y-119297619D01*
X140016667Y-119202381D02*
X140635715Y-119202381D01*
X140302381Y-119583333D01*
X140445239Y-119583333D01*
X140540477Y-119630952D01*
X140588096Y-119678571D01*
X140635715Y-119773810D01*
X140635715Y-120011905D01*
X140588096Y-120107143D01*
X140540477Y-120154762D01*
X140445239Y-120202381D01*
X140159524Y-120202381D01*
X140064286Y-120154762D01*
X140016667Y-120107143D01*
X151536905Y-103897381D02*
X151536905Y-102897381D01*
X151917858Y-102897381D01*
X152013096Y-102945000D01*
X152060715Y-102992619D01*
X152108334Y-103087857D01*
X152108334Y-103230714D01*
X152060715Y-103325952D01*
X152013096Y-103373571D01*
X151917858Y-103421190D01*
X151536905Y-103421190D01*
X153060715Y-103897381D02*
X152489286Y-103897381D01*
X152775000Y-103897381D02*
X152775000Y-102897381D01*
X152679762Y-103040238D01*
X152584524Y-103135476D01*
X152489286Y-103183095D01*
D14*
X116779524Y-108554762D02*
X115509524Y-108554762D01*
X115509524Y-108070953D01*
X115570000Y-107950000D01*
X115630476Y-107889524D01*
X115751429Y-107829048D01*
X115932857Y-107829048D01*
X116053810Y-107889524D01*
X116114286Y-107950000D01*
X116174762Y-108070953D01*
X116174762Y-108554762D01*
X116779524Y-107284762D02*
X115509524Y-107284762D01*
X116779524Y-105954286D02*
X116174762Y-106377619D01*
X116779524Y-106680000D02*
X115509524Y-106680000D01*
X115509524Y-106196191D01*
X115570000Y-106075238D01*
X115630476Y-106014762D01*
X115751429Y-105954286D01*
X115932857Y-105954286D01*
X116053810Y-106014762D01*
X116114286Y-106075238D01*
X116174762Y-106196191D01*
X116174762Y-106680000D01*
X116779524Y-104744762D02*
X116779524Y-105470476D01*
X116779524Y-105107619D02*
X115509524Y-105107619D01*
X115690952Y-105228571D01*
X115811905Y-105349524D01*
X115872381Y-105470476D01*
D10*
X136783334Y-103927381D02*
X136450000Y-103451190D01*
X136211905Y-103927381D02*
X136211905Y-102927381D01*
X136592858Y-102927381D01*
X136688096Y-102975000D01*
X136735715Y-103022619D01*
X136783334Y-103117857D01*
X136783334Y-103260714D01*
X136735715Y-103355952D01*
X136688096Y-103403571D01*
X136592858Y-103451190D01*
X136211905Y-103451190D01*
X137735715Y-103927381D02*
X137164286Y-103927381D01*
X137450000Y-103927381D02*
X137450000Y-102927381D01*
X137354762Y-103070238D01*
X137259524Y-103165476D01*
X137164286Y-103213095D01*
X122027381Y-113766666D02*
X121551190Y-114100000D01*
X122027381Y-114338095D02*
X121027381Y-114338095D01*
X121027381Y-113957142D01*
X121075000Y-113861904D01*
X121122619Y-113814285D01*
X121217857Y-113766666D01*
X121360714Y-113766666D01*
X121455952Y-113814285D01*
X121503571Y-113861904D01*
X121551190Y-113957142D01*
X121551190Y-114338095D01*
X121122619Y-113385714D02*
X121075000Y-113338095D01*
X121027381Y-113242857D01*
X121027381Y-113004761D01*
X121075000Y-112909523D01*
X121122619Y-112861904D01*
X121217857Y-112814285D01*
X121313095Y-112814285D01*
X121455952Y-112861904D01*
X122027381Y-113433333D01*
X122027381Y-112814285D01*
X131052381Y-108041666D02*
X130576190Y-108375000D01*
X131052381Y-108613095D02*
X130052381Y-108613095D01*
X130052381Y-108232142D01*
X130100000Y-108136904D01*
X130147619Y-108089285D01*
X130242857Y-108041666D01*
X130385714Y-108041666D01*
X130480952Y-108089285D01*
X130528571Y-108136904D01*
X130576190Y-108232142D01*
X130576190Y-108613095D01*
X130052381Y-107708333D02*
X130052381Y-107089285D01*
X130433333Y-107422619D01*
X130433333Y-107279761D01*
X130480952Y-107184523D01*
X130528571Y-107136904D01*
X130623810Y-107089285D01*
X130861905Y-107089285D01*
X130957143Y-107136904D01*
X131004762Y-107184523D01*
X131052381Y-107279761D01*
X131052381Y-107565476D01*
X131004762Y-107660714D01*
X130957143Y-107708333D01*
X134802381Y-115316666D02*
X134326190Y-115650000D01*
X134802381Y-115888095D02*
X133802381Y-115888095D01*
X133802381Y-115507142D01*
X133850000Y-115411904D01*
X133897619Y-115364285D01*
X133992857Y-115316666D01*
X134135714Y-115316666D01*
X134230952Y-115364285D01*
X134278571Y-115411904D01*
X134326190Y-115507142D01*
X134326190Y-115888095D01*
X134135714Y-114459523D02*
X134802381Y-114459523D01*
X133754762Y-114697619D02*
X134469048Y-114935714D01*
X134469048Y-114316666D01*
X139833334Y-115952381D02*
X139500000Y-115476190D01*
X139261905Y-115952381D02*
X139261905Y-114952381D01*
X139642858Y-114952381D01*
X139738096Y-115000000D01*
X139785715Y-115047619D01*
X139833334Y-115142857D01*
X139833334Y-115285714D01*
X139785715Y-115380952D01*
X139738096Y-115428571D01*
X139642858Y-115476190D01*
X139261905Y-115476190D01*
X140738096Y-114952381D02*
X140261905Y-114952381D01*
X140214286Y-115428571D01*
X140261905Y-115380952D01*
X140357143Y-115333333D01*
X140595239Y-115333333D01*
X140690477Y-115380952D01*
X140738096Y-115428571D01*
X140785715Y-115523810D01*
X140785715Y-115761905D01*
X140738096Y-115857143D01*
X140690477Y-115904762D01*
X140595239Y-115952381D01*
X140357143Y-115952381D01*
X140261905Y-115904762D01*
X140214286Y-115857143D01*
X141587381Y-101360238D02*
X141111190Y-101693572D01*
X141587381Y-101931667D02*
X140587381Y-101931667D01*
X140587381Y-101550714D01*
X140635000Y-101455476D01*
X140682619Y-101407857D01*
X140777857Y-101360238D01*
X140920714Y-101360238D01*
X141015952Y-101407857D01*
X141063571Y-101455476D01*
X141111190Y-101550714D01*
X141111190Y-101931667D01*
X140587381Y-101074524D02*
X141587381Y-100741191D01*
X140587381Y-100407857D01*
X141587381Y-99550714D02*
X141587381Y-100122143D01*
X141587381Y-99836429D02*
X140587381Y-99836429D01*
X140730238Y-99931667D01*
X140825476Y-100026905D01*
X140873095Y-100122143D01*
M02*
