%TF.GenerationSoftware,KiCad,Pcbnew,4.0.7*%
%TF.CreationDate,2018-05-13T22:07:06+02:00*%
%TF.ProjectId,nestbox,6E657374626F782E6B696361645F7063,rev?*%
%TF.FileFunction,Copper,L1,Top,Signal*%
%FSLAX46Y46*%
G04 Gerber Fmt 4.6, Leading zero omitted, Abs format (unit mm)*
G04 Created by KiCad (PCBNEW 4.0.7) date 05/13/18 22:07:06*
%MOMM*%
%LPD*%
G01*
G04 APERTURE LIST*
%ADD10C,0.150000*%
%ADD11C,1.100000*%
%ADD12R,0.990600X0.609600*%
%ADD13R,0.590000X1.210000*%
%ADD14R,0.750000X1.200000*%
%ADD15R,1.200000X0.750000*%
%ADD16R,1.700000X1.700000*%
%ADD17O,1.700000X1.700000*%
%ADD18R,1.200000X0.900000*%
%ADD19R,0.900000X1.200000*%
%ADD20C,1.440000*%
%ADD21C,0.700000*%
%ADD22C,0.500000*%
G04 APERTURE END LIST*
D10*
X155150000Y-121050000D02*
X156500000Y-121050000D01*
X156500000Y-93600000D02*
X156500000Y-121050000D01*
X113775000Y-93600000D02*
X156525000Y-93600000D01*
X113775000Y-121050000D02*
X113775000Y-93600000D01*
X155175000Y-121050000D02*
X113775000Y-121050000D01*
D11*
X122219450Y-104883950D03*
X122219450Y-108476050D03*
X125811550Y-108476050D03*
D12*
X135764220Y-108960200D03*
X135764220Y-109900000D03*
X135764220Y-110839800D03*
X138085780Y-110839800D03*
X138085780Y-109900000D03*
X138085780Y-108960200D03*
D13*
X146100000Y-108320000D03*
X145150000Y-108320000D03*
X144200000Y-108320000D03*
X144200000Y-110830000D03*
X146100000Y-110830000D03*
D14*
X130175000Y-116017000D03*
X130175000Y-117917000D03*
D15*
X132077500Y-112776000D03*
X130177500Y-112776000D03*
X140800000Y-118300000D03*
X138900000Y-118300000D03*
D16*
X152717500Y-104711500D03*
D17*
X152717500Y-107251500D03*
X152717500Y-109791500D03*
X152717500Y-112331500D03*
D18*
X138050000Y-104925000D03*
X135850000Y-104925000D03*
D19*
X126301500Y-112755500D03*
X126301500Y-114955500D03*
X132050000Y-108975000D03*
X132050000Y-106775000D03*
X135800000Y-114050000D03*
X135800000Y-116250000D03*
D18*
X141100000Y-114050000D03*
X138900000Y-114050000D03*
D20*
X143510000Y-97028000D03*
X146050000Y-99568000D03*
X143510000Y-102108000D03*
D14*
X149000000Y-102450000D03*
X149000000Y-100550000D03*
D21*
X130175000Y-119443500D03*
X126301500Y-117157500D03*
X145161000Y-105727500D03*
X144208500Y-105727500D03*
X149000000Y-98500000D03*
X133575000Y-106775000D03*
X134350000Y-109900000D03*
X135775000Y-117875000D03*
X140843000Y-109855000D03*
X140144500Y-108902500D03*
D22*
X132050000Y-108975000D02*
X132050000Y-112748500D01*
X132050000Y-112748500D02*
X132077500Y-112776000D01*
X135764220Y-108960200D02*
X132064800Y-108960200D01*
X132064800Y-108960200D02*
X132050000Y-108975000D01*
X130175000Y-117917000D02*
X130175000Y-119443500D01*
X126301500Y-114955500D02*
X126301500Y-117157500D01*
X145150000Y-108320000D02*
X145150000Y-105738500D01*
X145150000Y-105738500D02*
X145161000Y-105727500D01*
X144200000Y-108320000D02*
X144200000Y-105736000D01*
X144200000Y-105736000D02*
X144208500Y-105727500D01*
X149000000Y-100550000D02*
X149000000Y-98500000D01*
X132050000Y-106775000D02*
X133575000Y-106775000D01*
X135764220Y-109900000D02*
X134350000Y-109900000D01*
X144200000Y-108320000D02*
X144155000Y-108275000D01*
X135800000Y-116250000D02*
X135800000Y-117850000D01*
X135800000Y-117850000D02*
X135775000Y-117875000D01*
X135800000Y-114050000D02*
X135800000Y-110875580D01*
X135800000Y-110875580D02*
X135764220Y-110839800D01*
X138900000Y-114050000D02*
X135800000Y-114050000D01*
X138900000Y-118300000D02*
X138900000Y-114050000D01*
X141100000Y-114050000D02*
X141100000Y-118000000D01*
X141100000Y-118000000D02*
X140800000Y-118300000D01*
X141100000Y-114050000D02*
X141100000Y-111125000D01*
X141100000Y-111125000D02*
X140805000Y-110830000D01*
X144200000Y-110830000D02*
X140805000Y-110830000D01*
X140805000Y-110830000D02*
X138095580Y-110830000D01*
X138095580Y-110830000D02*
X138085780Y-110839800D01*
X140798000Y-109900000D02*
X138085780Y-109900000D01*
X140843000Y-109855000D02*
X140798000Y-109900000D01*
X140086800Y-108960200D02*
X138085780Y-108960200D01*
X140144500Y-108902500D02*
X140086800Y-108960200D01*
X143510000Y-97028000D02*
X139763500Y-97028000D01*
X138050000Y-98741500D02*
X138050000Y-104925000D01*
X139763500Y-97028000D02*
X138050000Y-98741500D01*
X152717500Y-104711500D02*
X149796500Y-104711500D01*
X149000000Y-103915000D02*
X149000000Y-102450000D01*
X149796500Y-104711500D02*
X149000000Y-103915000D01*
X138050000Y-104925000D02*
X138050000Y-108924420D01*
X138050000Y-108924420D02*
X138085780Y-108960200D01*
X126301500Y-112755500D02*
X124376000Y-112755500D01*
X122219450Y-110598950D02*
X122219450Y-108476050D01*
X124376000Y-112755500D02*
X122219450Y-110598950D01*
X130177500Y-112776000D02*
X126322000Y-112776000D01*
X126322000Y-112776000D02*
X126301500Y-112755500D01*
X130177500Y-112776000D02*
X130177500Y-116014500D01*
X130177500Y-116014500D02*
X130175000Y-116017000D01*
X152717500Y-109791500D02*
X150304500Y-109791500D01*
X149266000Y-110830000D02*
X146100000Y-110830000D01*
X150304500Y-109791500D02*
X149266000Y-110830000D01*
X135850000Y-104925000D02*
X122260500Y-104925000D01*
X122260500Y-104925000D02*
X122219450Y-104883950D01*
X135808950Y-104883950D02*
X135850000Y-104925000D01*
X146050000Y-99568000D02*
X146050000Y-108270000D01*
X146050000Y-108270000D02*
X146100000Y-108320000D01*
X146065000Y-108285000D02*
X146100000Y-108320000D01*
M02*
