%TF.GenerationSoftware,KiCad,Pcbnew,4.0.7*%
%TF.CreationDate,2018-05-13T14:57:25+02:00*%
%TF.ProjectId,nestbox,6E657374626F782E6B696361645F7063,rev?*%
%TF.FileFunction,Copper,L2,Bot,Signal*%
%FSLAX46Y46*%
G04 Gerber Fmt 4.6, Leading zero omitted, Abs format (unit mm)*
G04 Created by KiCad (PCBNEW 4.0.7) date 05/13/18 14:57:25*
%MOMM*%
%LPD*%
G01*
G04 APERTURE LIST*
%ADD10C,0.150000*%
%ADD11C,1.100000*%
%ADD12R,1.700000X1.700000*%
%ADD13O,1.700000X1.700000*%
%ADD14C,1.440000*%
%ADD15C,0.700000*%
%ADD16C,0.500000*%
%ADD17C,0.254000*%
G04 APERTURE END LIST*
D10*
X155150000Y-121050000D02*
X156500000Y-121050000D01*
X156500000Y-93600000D02*
X156500000Y-121050000D01*
X113775000Y-93600000D02*
X156525000Y-93600000D01*
X113775000Y-121050000D02*
X113775000Y-93600000D01*
X155175000Y-121050000D02*
X113775000Y-121050000D01*
D11*
X120123950Y-104883950D03*
X120123950Y-108476050D03*
X123716050Y-108476050D03*
D12*
X152275000Y-105775000D03*
D13*
X152275000Y-108315000D03*
X152275000Y-110855000D03*
X152275000Y-113395000D03*
D14*
X143525000Y-98225000D03*
X146065000Y-100765000D03*
X143525000Y-103305000D03*
D15*
X120125000Y-116475000D03*
X133575000Y-106775000D03*
X134350000Y-109900000D03*
X152300000Y-97225000D03*
X145150000Y-106900000D03*
X144225000Y-106900000D03*
X124325000Y-116250000D03*
X135775000Y-117875000D03*
X140550000Y-109950000D03*
X141025000Y-105800000D03*
D16*
X152275000Y-108315000D02*
X150060000Y-108315000D01*
X148425000Y-109950000D02*
X140550000Y-109950000D01*
X150060000Y-108315000D02*
X148425000Y-109950000D01*
X152275000Y-105775000D02*
X141050000Y-105775000D01*
X141050000Y-105775000D02*
X141025000Y-105800000D01*
D17*
G36*
X155790000Y-120340000D02*
X114485000Y-120340000D01*
X114485000Y-113751890D01*
X150833524Y-113751890D01*
X151003355Y-114161924D01*
X151393642Y-114590183D01*
X151918108Y-114836486D01*
X152148000Y-114715819D01*
X152148000Y-113522000D01*
X152402000Y-113522000D01*
X152402000Y-114715819D01*
X152631892Y-114836486D01*
X153156358Y-114590183D01*
X153546645Y-114161924D01*
X153716476Y-113751890D01*
X153595155Y-113522000D01*
X152402000Y-113522000D01*
X152148000Y-113522000D01*
X150954845Y-113522000D01*
X150833524Y-113751890D01*
X114485000Y-113751890D01*
X114485000Y-110145069D01*
X139564830Y-110145069D01*
X139714471Y-110507229D01*
X139991314Y-110784555D01*
X140353212Y-110934828D01*
X140745069Y-110935170D01*
X140987500Y-110835000D01*
X148424995Y-110835000D01*
X148425000Y-110835001D01*
X148707484Y-110778810D01*
X148763675Y-110767633D01*
X149050790Y-110575790D01*
X150426579Y-109200000D01*
X151085568Y-109200000D01*
X151195853Y-109365054D01*
X151525026Y-109585000D01*
X151195853Y-109804946D01*
X150873946Y-110286715D01*
X150760907Y-110855000D01*
X150873946Y-111423285D01*
X151195853Y-111905054D01*
X151536553Y-112132702D01*
X151393642Y-112199817D01*
X151003355Y-112628076D01*
X150833524Y-113038110D01*
X150954845Y-113268000D01*
X152148000Y-113268000D01*
X152148000Y-113248000D01*
X152402000Y-113248000D01*
X152402000Y-113268000D01*
X153595155Y-113268000D01*
X153716476Y-113038110D01*
X153546645Y-112628076D01*
X153156358Y-112199817D01*
X153013447Y-112132702D01*
X153354147Y-111905054D01*
X153676054Y-111423285D01*
X153789093Y-110855000D01*
X153676054Y-110286715D01*
X153354147Y-109804946D01*
X153024974Y-109585000D01*
X153354147Y-109365054D01*
X153676054Y-108883285D01*
X153789093Y-108315000D01*
X153676054Y-107746715D01*
X153354147Y-107264946D01*
X153312548Y-107237150D01*
X153360317Y-107228162D01*
X153576441Y-107089090D01*
X153721431Y-106876890D01*
X153772440Y-106625000D01*
X153772440Y-104925000D01*
X153728162Y-104689683D01*
X153589090Y-104473559D01*
X153376890Y-104328569D01*
X153125000Y-104277560D01*
X151425000Y-104277560D01*
X151189683Y-104321838D01*
X150973559Y-104460910D01*
X150828569Y-104673110D01*
X150784648Y-104890000D01*
X141401994Y-104890000D01*
X141221788Y-104815172D01*
X140829931Y-104814830D01*
X140467771Y-104964471D01*
X140190445Y-105241314D01*
X140040172Y-105603212D01*
X140039830Y-105995069D01*
X140189471Y-106357229D01*
X140466314Y-106634555D01*
X140828212Y-106784828D01*
X141220069Y-106785170D01*
X141523004Y-106660000D01*
X150784146Y-106660000D01*
X150821838Y-106860317D01*
X150960910Y-107076441D01*
X151173110Y-107221431D01*
X151240541Y-107235086D01*
X151195853Y-107264946D01*
X151085568Y-107430000D01*
X150060005Y-107430000D01*
X150060000Y-107429999D01*
X149721325Y-107497367D01*
X149434210Y-107689210D01*
X149434208Y-107689213D01*
X148058420Y-109065000D01*
X140987201Y-109065000D01*
X140746788Y-108965172D01*
X140354931Y-108964830D01*
X139992771Y-109114471D01*
X139715445Y-109391314D01*
X139565172Y-109753212D01*
X139564830Y-110145069D01*
X114485000Y-110145069D01*
X114485000Y-108710727D01*
X118938744Y-108710727D01*
X119118770Y-109146422D01*
X119451825Y-109480059D01*
X119887205Y-109660844D01*
X120358627Y-109661256D01*
X120794322Y-109481230D01*
X120973381Y-109302483D01*
X123069222Y-109302483D01*
X123112558Y-109522751D01*
X123559051Y-109674022D01*
X124029446Y-109642913D01*
X124319542Y-109522751D01*
X124362878Y-109302483D01*
X123716050Y-108655655D01*
X123069222Y-109302483D01*
X120973381Y-109302483D01*
X121127959Y-109148175D01*
X121308744Y-108712795D01*
X121309088Y-108319051D01*
X122518078Y-108319051D01*
X122549187Y-108789446D01*
X122669349Y-109079542D01*
X122889617Y-109122878D01*
X123536445Y-108476050D01*
X123895655Y-108476050D01*
X124542483Y-109122878D01*
X124762751Y-109079542D01*
X124914022Y-108633049D01*
X124882913Y-108162654D01*
X124762751Y-107872558D01*
X124542483Y-107829222D01*
X123895655Y-108476050D01*
X123536445Y-108476050D01*
X122889617Y-107829222D01*
X122669349Y-107872558D01*
X122518078Y-108319051D01*
X121309088Y-108319051D01*
X121309156Y-108241373D01*
X121129130Y-107805678D01*
X120973342Y-107649617D01*
X123069222Y-107649617D01*
X123716050Y-108296445D01*
X124362878Y-107649617D01*
X124319542Y-107429349D01*
X123873049Y-107278078D01*
X123402654Y-107309187D01*
X123112558Y-107429349D01*
X123069222Y-107649617D01*
X120973342Y-107649617D01*
X120796075Y-107472041D01*
X120360695Y-107291256D01*
X119889273Y-107290844D01*
X119453578Y-107470870D01*
X119119941Y-107803925D01*
X118939156Y-108239305D01*
X118938744Y-108710727D01*
X114485000Y-108710727D01*
X114485000Y-105118627D01*
X118938744Y-105118627D01*
X119118770Y-105554322D01*
X119451825Y-105887959D01*
X119887205Y-106068744D01*
X120358627Y-106069156D01*
X120794322Y-105889130D01*
X121127959Y-105556075D01*
X121308744Y-105120695D01*
X121309156Y-104649273D01*
X121146152Y-104254774D01*
X142754831Y-104254774D01*
X142819131Y-104492611D01*
X143327342Y-104672333D01*
X143865644Y-104643892D01*
X144230869Y-104492611D01*
X144295169Y-104254774D01*
X143525000Y-103484605D01*
X142754831Y-104254774D01*
X121146152Y-104254774D01*
X121129130Y-104213578D01*
X120796075Y-103879941D01*
X120360695Y-103699156D01*
X119889273Y-103698744D01*
X119453578Y-103878770D01*
X119119941Y-104211825D01*
X118939156Y-104647205D01*
X118938744Y-105118627D01*
X114485000Y-105118627D01*
X114485000Y-103107342D01*
X142157667Y-103107342D01*
X142186108Y-103645644D01*
X142337389Y-104010869D01*
X142575226Y-104075169D01*
X143345395Y-103305000D01*
X143704605Y-103305000D01*
X144474774Y-104075169D01*
X144712611Y-104010869D01*
X144892333Y-103502658D01*
X144863892Y-102964356D01*
X144712611Y-102599131D01*
X144474774Y-102534831D01*
X143704605Y-103305000D01*
X143345395Y-103305000D01*
X142575226Y-102534831D01*
X142337389Y-102599131D01*
X142157667Y-103107342D01*
X114485000Y-103107342D01*
X114485000Y-102355226D01*
X142754831Y-102355226D01*
X143525000Y-103125395D01*
X144295169Y-102355226D01*
X144230869Y-102117389D01*
X143722658Y-101937667D01*
X143184356Y-101966108D01*
X142819131Y-102117389D01*
X142754831Y-102355226D01*
X114485000Y-102355226D01*
X114485000Y-101033344D01*
X144709765Y-101033344D01*
X144915617Y-101531543D01*
X145296452Y-101913043D01*
X145794291Y-102119764D01*
X146333344Y-102120235D01*
X146831543Y-101914383D01*
X147213043Y-101533548D01*
X147419764Y-101035709D01*
X147420235Y-100496656D01*
X147214383Y-99998457D01*
X146833548Y-99616957D01*
X146335709Y-99410236D01*
X145796656Y-99409765D01*
X145298457Y-99615617D01*
X144916957Y-99996452D01*
X144710236Y-100494291D01*
X144709765Y-101033344D01*
X114485000Y-101033344D01*
X114485000Y-98493344D01*
X142169765Y-98493344D01*
X142375617Y-98991543D01*
X142756452Y-99373043D01*
X143254291Y-99579764D01*
X143793344Y-99580235D01*
X144291543Y-99374383D01*
X144673043Y-98993548D01*
X144879764Y-98495709D01*
X144880235Y-97956656D01*
X144674383Y-97458457D01*
X144293548Y-97076957D01*
X143795709Y-96870236D01*
X143256656Y-96869765D01*
X142758457Y-97075617D01*
X142376957Y-97456452D01*
X142170236Y-97954291D01*
X142169765Y-98493344D01*
X114485000Y-98493344D01*
X114485000Y-94310000D01*
X155790000Y-94310000D01*
X155790000Y-120340000D01*
X155790000Y-120340000D01*
G37*
X155790000Y-120340000D02*
X114485000Y-120340000D01*
X114485000Y-113751890D01*
X150833524Y-113751890D01*
X151003355Y-114161924D01*
X151393642Y-114590183D01*
X151918108Y-114836486D01*
X152148000Y-114715819D01*
X152148000Y-113522000D01*
X152402000Y-113522000D01*
X152402000Y-114715819D01*
X152631892Y-114836486D01*
X153156358Y-114590183D01*
X153546645Y-114161924D01*
X153716476Y-113751890D01*
X153595155Y-113522000D01*
X152402000Y-113522000D01*
X152148000Y-113522000D01*
X150954845Y-113522000D01*
X150833524Y-113751890D01*
X114485000Y-113751890D01*
X114485000Y-110145069D01*
X139564830Y-110145069D01*
X139714471Y-110507229D01*
X139991314Y-110784555D01*
X140353212Y-110934828D01*
X140745069Y-110935170D01*
X140987500Y-110835000D01*
X148424995Y-110835000D01*
X148425000Y-110835001D01*
X148707484Y-110778810D01*
X148763675Y-110767633D01*
X149050790Y-110575790D01*
X150426579Y-109200000D01*
X151085568Y-109200000D01*
X151195853Y-109365054D01*
X151525026Y-109585000D01*
X151195853Y-109804946D01*
X150873946Y-110286715D01*
X150760907Y-110855000D01*
X150873946Y-111423285D01*
X151195853Y-111905054D01*
X151536553Y-112132702D01*
X151393642Y-112199817D01*
X151003355Y-112628076D01*
X150833524Y-113038110D01*
X150954845Y-113268000D01*
X152148000Y-113268000D01*
X152148000Y-113248000D01*
X152402000Y-113248000D01*
X152402000Y-113268000D01*
X153595155Y-113268000D01*
X153716476Y-113038110D01*
X153546645Y-112628076D01*
X153156358Y-112199817D01*
X153013447Y-112132702D01*
X153354147Y-111905054D01*
X153676054Y-111423285D01*
X153789093Y-110855000D01*
X153676054Y-110286715D01*
X153354147Y-109804946D01*
X153024974Y-109585000D01*
X153354147Y-109365054D01*
X153676054Y-108883285D01*
X153789093Y-108315000D01*
X153676054Y-107746715D01*
X153354147Y-107264946D01*
X153312548Y-107237150D01*
X153360317Y-107228162D01*
X153576441Y-107089090D01*
X153721431Y-106876890D01*
X153772440Y-106625000D01*
X153772440Y-104925000D01*
X153728162Y-104689683D01*
X153589090Y-104473559D01*
X153376890Y-104328569D01*
X153125000Y-104277560D01*
X151425000Y-104277560D01*
X151189683Y-104321838D01*
X150973559Y-104460910D01*
X150828569Y-104673110D01*
X150784648Y-104890000D01*
X141401994Y-104890000D01*
X141221788Y-104815172D01*
X140829931Y-104814830D01*
X140467771Y-104964471D01*
X140190445Y-105241314D01*
X140040172Y-105603212D01*
X140039830Y-105995069D01*
X140189471Y-106357229D01*
X140466314Y-106634555D01*
X140828212Y-106784828D01*
X141220069Y-106785170D01*
X141523004Y-106660000D01*
X150784146Y-106660000D01*
X150821838Y-106860317D01*
X150960910Y-107076441D01*
X151173110Y-107221431D01*
X151240541Y-107235086D01*
X151195853Y-107264946D01*
X151085568Y-107430000D01*
X150060005Y-107430000D01*
X150060000Y-107429999D01*
X149721325Y-107497367D01*
X149434210Y-107689210D01*
X149434208Y-107689213D01*
X148058420Y-109065000D01*
X140987201Y-109065000D01*
X140746788Y-108965172D01*
X140354931Y-108964830D01*
X139992771Y-109114471D01*
X139715445Y-109391314D01*
X139565172Y-109753212D01*
X139564830Y-110145069D01*
X114485000Y-110145069D01*
X114485000Y-108710727D01*
X118938744Y-108710727D01*
X119118770Y-109146422D01*
X119451825Y-109480059D01*
X119887205Y-109660844D01*
X120358627Y-109661256D01*
X120794322Y-109481230D01*
X120973381Y-109302483D01*
X123069222Y-109302483D01*
X123112558Y-109522751D01*
X123559051Y-109674022D01*
X124029446Y-109642913D01*
X124319542Y-109522751D01*
X124362878Y-109302483D01*
X123716050Y-108655655D01*
X123069222Y-109302483D01*
X120973381Y-109302483D01*
X121127959Y-109148175D01*
X121308744Y-108712795D01*
X121309088Y-108319051D01*
X122518078Y-108319051D01*
X122549187Y-108789446D01*
X122669349Y-109079542D01*
X122889617Y-109122878D01*
X123536445Y-108476050D01*
X123895655Y-108476050D01*
X124542483Y-109122878D01*
X124762751Y-109079542D01*
X124914022Y-108633049D01*
X124882913Y-108162654D01*
X124762751Y-107872558D01*
X124542483Y-107829222D01*
X123895655Y-108476050D01*
X123536445Y-108476050D01*
X122889617Y-107829222D01*
X122669349Y-107872558D01*
X122518078Y-108319051D01*
X121309088Y-108319051D01*
X121309156Y-108241373D01*
X121129130Y-107805678D01*
X120973342Y-107649617D01*
X123069222Y-107649617D01*
X123716050Y-108296445D01*
X124362878Y-107649617D01*
X124319542Y-107429349D01*
X123873049Y-107278078D01*
X123402654Y-107309187D01*
X123112558Y-107429349D01*
X123069222Y-107649617D01*
X120973342Y-107649617D01*
X120796075Y-107472041D01*
X120360695Y-107291256D01*
X119889273Y-107290844D01*
X119453578Y-107470870D01*
X119119941Y-107803925D01*
X118939156Y-108239305D01*
X118938744Y-108710727D01*
X114485000Y-108710727D01*
X114485000Y-105118627D01*
X118938744Y-105118627D01*
X119118770Y-105554322D01*
X119451825Y-105887959D01*
X119887205Y-106068744D01*
X120358627Y-106069156D01*
X120794322Y-105889130D01*
X121127959Y-105556075D01*
X121308744Y-105120695D01*
X121309156Y-104649273D01*
X121146152Y-104254774D01*
X142754831Y-104254774D01*
X142819131Y-104492611D01*
X143327342Y-104672333D01*
X143865644Y-104643892D01*
X144230869Y-104492611D01*
X144295169Y-104254774D01*
X143525000Y-103484605D01*
X142754831Y-104254774D01*
X121146152Y-104254774D01*
X121129130Y-104213578D01*
X120796075Y-103879941D01*
X120360695Y-103699156D01*
X119889273Y-103698744D01*
X119453578Y-103878770D01*
X119119941Y-104211825D01*
X118939156Y-104647205D01*
X118938744Y-105118627D01*
X114485000Y-105118627D01*
X114485000Y-103107342D01*
X142157667Y-103107342D01*
X142186108Y-103645644D01*
X142337389Y-104010869D01*
X142575226Y-104075169D01*
X143345395Y-103305000D01*
X143704605Y-103305000D01*
X144474774Y-104075169D01*
X144712611Y-104010869D01*
X144892333Y-103502658D01*
X144863892Y-102964356D01*
X144712611Y-102599131D01*
X144474774Y-102534831D01*
X143704605Y-103305000D01*
X143345395Y-103305000D01*
X142575226Y-102534831D01*
X142337389Y-102599131D01*
X142157667Y-103107342D01*
X114485000Y-103107342D01*
X114485000Y-102355226D01*
X142754831Y-102355226D01*
X143525000Y-103125395D01*
X144295169Y-102355226D01*
X144230869Y-102117389D01*
X143722658Y-101937667D01*
X143184356Y-101966108D01*
X142819131Y-102117389D01*
X142754831Y-102355226D01*
X114485000Y-102355226D01*
X114485000Y-101033344D01*
X144709765Y-101033344D01*
X144915617Y-101531543D01*
X145296452Y-101913043D01*
X145794291Y-102119764D01*
X146333344Y-102120235D01*
X146831543Y-101914383D01*
X147213043Y-101533548D01*
X147419764Y-101035709D01*
X147420235Y-100496656D01*
X147214383Y-99998457D01*
X146833548Y-99616957D01*
X146335709Y-99410236D01*
X145796656Y-99409765D01*
X145298457Y-99615617D01*
X144916957Y-99996452D01*
X144710236Y-100494291D01*
X144709765Y-101033344D01*
X114485000Y-101033344D01*
X114485000Y-98493344D01*
X142169765Y-98493344D01*
X142375617Y-98991543D01*
X142756452Y-99373043D01*
X143254291Y-99579764D01*
X143793344Y-99580235D01*
X144291543Y-99374383D01*
X144673043Y-98993548D01*
X144879764Y-98495709D01*
X144880235Y-97956656D01*
X144674383Y-97458457D01*
X144293548Y-97076957D01*
X143795709Y-96870236D01*
X143256656Y-96869765D01*
X142758457Y-97075617D01*
X142376957Y-97456452D01*
X142170236Y-97954291D01*
X142169765Y-98493344D01*
X114485000Y-98493344D01*
X114485000Y-94310000D01*
X155790000Y-94310000D01*
X155790000Y-120340000D01*
M02*
