M48
;DRILL file {KiCad 4.0.7} date 05/13/18 17:46:35
;FORMAT={-:-/ absolute / inch / decimal}
FMAT,2
INCH,TZ
T1C0.016
T2C0.028
T3C0.031
T4C0.039
%
G90
G05
M72
T1
X4.8125Y-4.6075
X4.9725Y-4.6075
X5.2589Y-4.2037
X5.2894Y-4.3268
X5.3455Y-4.6407
X5.5175Y-4.2875
X5.545Y-4.325
X5.6775Y-4.1625
X5.715Y-4.1625
X5.8661Y-3.878
T2
X4.8118Y-4.1293
X4.8118Y-4.2707
X4.9532Y-4.2707
T3
X5.65Y-3.82
X5.65Y-4.02
X5.75Y-3.92
T4
X6.0125Y-4.1225
X6.0125Y-4.2225
X6.0125Y-4.3225
X6.0125Y-4.4225
T0
M30
