%TF.GenerationSoftware,KiCad,Pcbnew,4.0.7*%
%TF.CreationDate,2018-05-12T14:18:48+02:00*%
%TF.ProjectId,nestbox,6E657374626F782E6B696361645F7063,rev?*%
%TF.FileFunction,Copper,L1,Top,Signal*%
%FSLAX46Y46*%
G04 Gerber Fmt 4.6, Leading zero omitted, Abs format (unit mm)*
G04 Created by KiCad (PCBNEW 4.0.7) date 05/12/18 14:18:48*
%MOMM*%
%LPD*%
G01*
G04 APERTURE LIST*
%ADD10C,0.150000*%
%ADD11R,0.590000X1.210000*%
%ADD12R,0.990600X0.609600*%
%ADD13R,0.750000X1.200000*%
%ADD14R,1.200000X0.750000*%
%ADD15R,1.700000X1.700000*%
%ADD16O,1.700000X1.700000*%
%ADD17C,1.100000*%
%ADD18R,1.200000X0.900000*%
%ADD19R,0.900000X1.200000*%
%ADD20C,1.440000*%
%ADD21C,0.600000*%
%ADD22C,0.500000*%
G04 APERTURE END LIST*
D10*
X155150000Y-121050000D02*
X156500000Y-121050000D01*
X156500000Y-93600000D02*
X156500000Y-121050000D01*
X113775000Y-93600000D02*
X156525000Y-93600000D01*
X113775000Y-121050000D02*
X113775000Y-93600000D01*
X155175000Y-121050000D02*
X113775000Y-121050000D01*
D11*
X146100000Y-108320000D03*
X145150000Y-108320000D03*
X144200000Y-108320000D03*
X144200000Y-110830000D03*
X146100000Y-110830000D03*
D12*
X135764220Y-108960200D03*
X135764220Y-109900000D03*
X135764220Y-110839800D03*
X138085780Y-110839800D03*
X138085780Y-109900000D03*
X138085780Y-108960200D03*
D13*
X124325000Y-112500000D03*
X124325000Y-114400000D03*
D14*
X132050000Y-112500000D03*
X130150000Y-112500000D03*
X140800000Y-118300000D03*
X138900000Y-118300000D03*
D15*
X152275000Y-105775000D03*
D16*
X152275000Y-108315000D03*
X152275000Y-110855000D03*
X152275000Y-113395000D03*
D17*
X120123950Y-104883950D03*
X120123950Y-108476050D03*
X123716050Y-108476050D03*
D18*
X138050000Y-104925000D03*
X135850000Y-104925000D03*
D19*
X120125000Y-112500000D03*
X120125000Y-114700000D03*
X132050000Y-108975000D03*
X132050000Y-106775000D03*
X135800000Y-114050000D03*
X135800000Y-116250000D03*
D18*
X141100000Y-114050000D03*
X138900000Y-114050000D03*
D20*
X143525000Y-98225000D03*
X146065000Y-100765000D03*
X143525000Y-103305000D03*
D21*
X145150000Y-106900000D03*
X144225000Y-106900000D03*
X130600000Y-106675000D03*
X134375000Y-109850000D03*
X120050000Y-116000000D03*
X124325000Y-115725000D03*
X135775000Y-117875000D03*
X140550000Y-109950000D03*
X141025000Y-105800000D03*
D22*
X132050000Y-112500000D02*
X132050000Y-108975000D01*
X145150000Y-108320000D02*
X145150000Y-106900000D01*
X144200000Y-108320000D02*
X144200000Y-106925000D01*
X144200000Y-106925000D02*
X144225000Y-106900000D01*
X144200000Y-108320000D02*
X144155000Y-108275000D01*
X132050000Y-106775000D02*
X130700000Y-106775000D01*
X130700000Y-106775000D02*
X130600000Y-106675000D01*
X135764220Y-109900000D02*
X134425000Y-109900000D01*
X134425000Y-109900000D02*
X134375000Y-109850000D01*
X120125000Y-114700000D02*
X120125000Y-115925000D01*
X120125000Y-115925000D02*
X120050000Y-116000000D01*
X124325000Y-114400000D02*
X124325000Y-115725000D01*
X135800000Y-116250000D02*
X135800000Y-117850000D01*
X135800000Y-117850000D02*
X135775000Y-117875000D01*
X135800000Y-114050000D02*
X135800000Y-110875580D01*
X135800000Y-110875580D02*
X135764220Y-110839800D01*
X138900000Y-114050000D02*
X135800000Y-114050000D01*
X138900000Y-118300000D02*
X138900000Y-114050000D01*
X141100000Y-114050000D02*
X141100000Y-118000000D01*
X141100000Y-118000000D02*
X140800000Y-118300000D01*
X141100000Y-114050000D02*
X141100000Y-111125000D01*
X141100000Y-111125000D02*
X140805000Y-110830000D01*
X144200000Y-110830000D02*
X140805000Y-110830000D01*
X140805000Y-110830000D02*
X138095580Y-110830000D01*
X138095580Y-110830000D02*
X138085780Y-110839800D01*
X140500000Y-109900000D02*
X138085780Y-109900000D01*
X140550000Y-109950000D02*
X140500000Y-109900000D01*
X143525000Y-98225000D02*
X139750000Y-98225000D01*
X138050000Y-99925000D02*
X138050000Y-104925000D01*
X139750000Y-98225000D02*
X138050000Y-99925000D01*
X140150000Y-104925000D02*
X138050000Y-104925000D01*
X141025000Y-105800000D02*
X140150000Y-104925000D01*
X138050000Y-104925000D02*
X138050000Y-108924420D01*
X138050000Y-108924420D02*
X138085780Y-108960200D01*
X124325000Y-112500000D02*
X130150000Y-112500000D01*
X120125000Y-112500000D02*
X124325000Y-112500000D01*
X120123950Y-108476050D02*
X120123950Y-112498950D01*
X120123950Y-112498950D02*
X120125000Y-112500000D01*
X146100000Y-110830000D02*
X152250000Y-110830000D01*
X152250000Y-110830000D02*
X152275000Y-110855000D01*
X120123950Y-104883950D02*
X135808950Y-104883950D01*
X135808950Y-104883950D02*
X135850000Y-104925000D01*
X146065000Y-100765000D02*
X146065000Y-108285000D01*
X146065000Y-108285000D02*
X146100000Y-108320000D01*
M02*
