M48
METRIC,TZ
T1C0.300
T2C0.600
T3C1.000
T4C1.016
T5C1.097
T6C1.200
T7C2.500
%
G90
G05
T1
X34190Y-161045
X35690Y-169045
X35690Y-172045
X35690Y-164244
X36190Y-163545
X36690Y-166545
X43190Y-175045
X43190Y-177045
X44190Y-175045
X44190Y-177045
X49108Y-150276
X49190Y-140045
X49561Y-148845
X49690Y-173045
X49690Y-174045
X49960Y-169045
X49960Y-170045
X49998Y-150358
X51390Y-149845
X51690Y-140045
X52590Y-147545
X53251Y-184596
X53990Y-147245
X54490Y-184345
X54940Y-168295
X55940Y-162545
X56940Y-154545
X58190Y-183545
X58253Y-184492
X59440Y-168545
X59690Y-162045
X59690Y-164295
X59690Y-173045
X59690Y-175545
X60640Y-169570
X62190Y-151545
X62440Y-150545
X62440Y-154545
X62690Y-146295
X63190Y-162545
X63690Y-146295
X64190Y-170545
X64690Y-170045
X64690Y-168520
X65190Y-169545
X67690Y-147795
X68790Y-131445
X73690Y-183045
X74210Y-184995
X74210Y-185995
X74390Y-180045
X75482Y-163886
X75690Y-180045
X76338Y-164994
X76590Y-167445
X76790Y-163712
X77590Y-164645
X77640Y-165446
X78090Y-183195
X78090Y-163459
X78409Y-157732
X78690Y-180445
X78964Y-175070
X79209Y-157712
X79490Y-162745
X79666Y-164269
X79690Y-152545
X79790Y-174445
X80190Y-157845
X80190Y-183145
X80490Y-173945
X81113Y-158671
X81190Y-152545
X81290Y-183145
X81470Y-157545
X82038Y-175551
X82190Y-158745
X82290Y-183145
X82490Y-156345
X82690Y-169795
X82867Y-175362
X82890Y-184545
X83190Y-170545
X83216Y-169105
X83440Y-168295
X83466Y-174759
X84190Y-142045
X84190Y-185345
X85190Y-185345
X85940Y-141995
X86290Y-185345
X86956Y-157345
X86990Y-161645
X87190Y-186745
X88500Y-167500
X88500Y-167500
X91690Y-172545
X92115Y-171294
X92915Y-171320
X93690Y-165045
X93690Y-167045
X93690Y-168045
X94111Y-169695
X94390Y-143345
X94690Y-157045
X94690Y-160045
X94960Y-169795
X95118Y-142451
X97690Y-171545
X97690Y-172545
X99190Y-173295
X99190Y-175795
X100090Y-168645
X100090Y-169545
X100190Y-145845
X100190Y-165545
X100190Y-166545
X100190Y-172545
X100190Y-175545
X100690Y-140445
X100690Y-141545
X100890Y-146545
X101190Y-133545
X101190Y-134545
X101690Y-135545
X101690Y-161745
X101790Y-140445
X101790Y-141545
X101790Y-145845
X101790Y-146745
X102190Y-133545
X102190Y-134545
X102390Y-169545
X102890Y-146745
X102890Y-168745
X103190Y-137045
X103790Y-146745
X103990Y-161845
X104190Y-137045
X105190Y-137045
X105190Y-167045
X105190Y-168045
X105190Y-169045
X105210Y-155125
X106190Y-167045
X106190Y-168045
X106190Y-169045
X106210Y-162495
X107190Y-133845
X107190Y-167045
X107190Y-168045
X107190Y-169045
X107690Y-142045
X108190Y-141045
X108190Y-165045
X108190Y-166045
X108190Y-167045
X108190Y-168045
X108190Y-169045
X108490Y-135345
X108490Y-136245
X108490Y-136945
X108690Y-142045
X108690Y-143045
X109190Y-168045
X109190Y-169045
X109190Y-170045
X109190Y-171045
X109190Y-172045
X109490Y-136245
X109490Y-136945
X109690Y-142045
X109690Y-143045
X109690Y-159045
X109690Y-160045
X109690Y-161045
X109690Y-162045
X109750Y-165000
X110090Y-162945
X110190Y-168045
X110190Y-169045
X110190Y-170045
X110190Y-171045
X110190Y-172045
X110390Y-136945
X110690Y-159045
X110690Y-160045
X110690Y-161045
X110690Y-162045
X110990Y-139145
X111250Y-165000
X112690Y-164245
X112690Y-165045
X112690Y-166045
X112890Y-139045
X112990Y-154245
X114190Y-141545
X114590Y-142345
X114690Y-165045
X114710Y-154995
X115390Y-138945
X115390Y-145945
X115590Y-175445
T2
X43710Y-135495
X45190Y-151045
X46710Y-170995
X47190Y-151045
X48190Y-131545
X52290Y-167420
X67290Y-168445
X67710Y-171995
X68528Y-139085
X69412Y-139969
X95190Y-150545
X95190Y-152545
X96640Y-137695
X96745Y-138941
X96790Y-141445
X102690Y-153795
T3
X41150Y-129545
X43690Y-129545
X46230Y-129545
X57610Y-129500
X60150Y-129500
X62690Y-129500
X65230Y-129500
X67770Y-129500
X70310Y-129500
X88900Y-184670
X91440Y-184670
X93980Y-184670
X96520Y-184670
X99060Y-184670
X101600Y-184670
X104140Y-184670
T4
X40690Y-164005
X40690Y-166545
X40690Y-169085
X102750Y-157210
X102750Y-159750
T5
X40640Y-142240
X40640Y-157480
X43180Y-142240
X43180Y-157480
X45720Y-142240
X45720Y-157480
X48260Y-142240
X48260Y-157480
X50800Y-142240
X55880Y-157480
X58420Y-142240
X58420Y-157480
X60960Y-142240
X60960Y-157480
X63500Y-142240
X63500Y-157480
X66040Y-142240
X68580Y-142240
T6
X106690Y-171145
X106690Y-174645
T7
X48690Y-180000
X48750Y-135000
X93750Y-180000
T0
M30
