G04 #@! TF.FileFunction,Profile,NP*
%FSLAX46Y46*%
G04 Gerber Fmt 4.6, Leading zero omitted, Abs format (unit mm)*
G04 Created by KiCad (PCBNEW 4.0.7) date 2018 June 07, Thursday 02:32:14*
%MOMM*%
%LPD*%
G01*
G04 APERTURE LIST*
%ADD10C,0.050000*%
%ADD11C,0.200000*%
%ADD12C,0.150000*%
G04 APERTURE END LIST*
D10*
D11*
X107876666Y-179995000D02*
G75*
G03X107876666Y-179995000I-1666666J0D01*
G01*
X103710000Y-179995000D02*
X108710000Y-179995000D01*
X106210000Y-177495000D02*
X106210000Y-182495000D01*
X40376666Y-134995000D02*
G75*
G03X40376666Y-134995000I-1666666J0D01*
G01*
X36210000Y-134995000D02*
X41210000Y-134995000D01*
X38710000Y-132495000D02*
X38710000Y-137495000D01*
X40376666Y-184995000D02*
G75*
G03X40376666Y-184995000I-1666666J0D01*
G01*
X36210000Y-184995000D02*
X41210000Y-184995000D01*
X38710000Y-182495000D02*
X38710000Y-187495000D01*
X35000000Y-135000000D02*
X32500000Y-137500000D01*
X35000000Y-180000000D02*
X35000000Y-185000000D01*
X32500000Y-177500000D02*
X35000000Y-180000000D01*
X115000000Y-177500000D02*
G75*
G03X117500000Y-175000000I0J2500000D01*
G01*
X105000000Y-187500000D02*
G75*
G03X107500000Y-185000000I0J2500000D01*
G01*
X117500000Y-140000000D02*
G75*
G03X115000000Y-137500000I-2500000J0D01*
G01*
X107500000Y-130000000D02*
G75*
G03X105000000Y-127500000I-2500000J0D01*
G01*
X32500000Y-177500000D02*
X32500000Y-137500000D01*
X37500000Y-127500000D02*
G75*
G03X35000000Y-130000000I0J-2500000D01*
G01*
X35000000Y-185000000D02*
G75*
G03X37500000Y-187500000I2500000J0D01*
G01*
D12*
X115000000Y-177500000D02*
G75*
G03X107500000Y-185000000I0J-7500000D01*
G01*
X107500000Y-130000000D02*
G75*
G03X115000000Y-137500000I7500000J0D01*
G01*
X35000000Y-130000000D02*
X35000000Y-135000000D01*
X105000000Y-127500000D02*
X37500000Y-127500000D01*
X117500000Y-175000000D02*
X117500000Y-140000000D01*
X37500000Y-187500000D02*
X105000000Y-187500000D01*
M02*
