G04 #@! TF.FileFunction,Copper,L1,Top,Signal*
%FSLAX46Y46*%
G04 Gerber Fmt 4.6, Leading zero omitted, Abs format (unit mm)*
G04 Created by KiCad (PCBNEW 4.0.7) date 2018 June 07, Thursday 02:32:14*
%MOMM*%
%LPD*%
G01*
G04 APERTURE LIST*
%ADD10C,0.050000*%
%ADD11C,1.000000*%
%ADD12R,0.900000X0.500000*%
%ADD13R,0.750000X0.800000*%
%ADD14R,0.800000X0.750000*%
%ADD15C,2.400000*%
%ADD16R,2.400000X2.400000*%
%ADD17R,2.032000X2.032000*%
%ADD18O,2.032000X2.032000*%
%ADD19R,1.700000X1.700000*%
%ADD20O,1.700000X1.700000*%
%ADD21R,0.889000X0.889000*%
%ADD22R,0.500000X0.900000*%
%ADD23R,0.550000X1.000000*%
%ADD24O,0.280000X0.850000*%
%ADD25O,0.850000X0.280000*%
%ADD26R,5.100000X5.100000*%
%ADD27R,1.500000X0.450000*%
%ADD28R,1.249680X0.998220*%
%ADD29R,2.032000X1.727200*%
%ADD30O,2.032000X1.727200*%
%ADD31R,2.450000X5.900000*%
%ADD32R,0.800000X2.900000*%
%ADD33R,0.381000X1.397000*%
%ADD34O,1.998980X1.998980*%
%ADD35R,1.998980X1.998980*%
%ADD36R,0.650000X1.220000*%
%ADD37R,2.500000X1.100000*%
%ADD38R,1.270000X0.965200*%
%ADD39R,0.500000X0.750000*%
%ADD40R,0.800000X1.000000*%
%ADD41R,0.700000X1.200000*%
%ADD42R,4.500000X4.290000*%
%ADD43R,1.550000X1.600000*%
%ADD44R,1.550000X1.200000*%
%ADD45R,2.000000X0.900000*%
%ADD46R,0.250000X0.600000*%
%ADD47C,0.604800*%
%ADD48C,0.609600*%
%ADD49R,1.220000X0.650000*%
%ADD50C,0.600000*%
%ADD51C,0.400000*%
%ADD52C,0.200000*%
%ADD53C,0.800000*%
%ADD54C,0.300000*%
%ADD55C,1.000000*%
%ADD56C,0.250000*%
%ADD57C,1.500000*%
%ADD58C,0.600000*%
%ADD59C,0.280000*%
%ADD60C,0.350000*%
%ADD61C,0.500000*%
%ADD62C,2.000000*%
%ADD63C,0.254000*%
G04 APERTURE END LIST*
D10*
D11*
X106210000Y-179995000D03*
X38710000Y-134995000D03*
D12*
X79690000Y-182295000D03*
X79690000Y-180795000D03*
D13*
X113690000Y-163795000D03*
X113690000Y-165295000D03*
D14*
X37440000Y-162545000D03*
X35940000Y-162545000D03*
D13*
X103500000Y-143795000D03*
X103500000Y-145295000D03*
D14*
X37440000Y-170545000D03*
X35940000Y-170545000D03*
D13*
X106690000Y-163795000D03*
X106690000Y-165295000D03*
X99500000Y-143250000D03*
X99500000Y-144750000D03*
X101500000Y-143250000D03*
X101500000Y-144750000D03*
X95000000Y-162750000D03*
X95000000Y-161250000D03*
D14*
X97500000Y-165000000D03*
X99000000Y-165000000D03*
X97500000Y-167000000D03*
X99000000Y-167000000D03*
X96250000Y-173045000D03*
X94750000Y-173045000D03*
X96250000Y-171295000D03*
X94750000Y-171295000D03*
D13*
X81690000Y-184295000D03*
X81690000Y-185795000D03*
X79690000Y-184295000D03*
X79690000Y-185795000D03*
D14*
X111500000Y-153250000D03*
X113000000Y-153250000D03*
X60440000Y-154940000D03*
X58940000Y-154940000D03*
D13*
X63500000Y-159905000D03*
X63500000Y-161405000D03*
X55880000Y-159905000D03*
X55880000Y-161405000D03*
D14*
X58940000Y-165100000D03*
X60440000Y-165100000D03*
X58940000Y-176545000D03*
X60440000Y-176545000D03*
X52440000Y-174545000D03*
X50940000Y-174545000D03*
X50940000Y-172545000D03*
X52440000Y-172545000D03*
X50940000Y-170545000D03*
X52440000Y-170545000D03*
X50940000Y-168545000D03*
X52440000Y-168545000D03*
D15*
X106690000Y-174645000D03*
D16*
X106690000Y-171145000D03*
D17*
X102750000Y-159750000D03*
D18*
X102750000Y-157210000D03*
D19*
X46230000Y-129545000D03*
D20*
X43690000Y-129545000D03*
X41150000Y-129545000D03*
D21*
X97500000Y-163000000D03*
X99024000Y-163000000D03*
D19*
X101600000Y-184670000D03*
D20*
X99060000Y-184670000D03*
D19*
X88900000Y-184670000D03*
D20*
X91440000Y-184670000D03*
D12*
X103890000Y-168695000D03*
X103890000Y-167195000D03*
X103890000Y-171795000D03*
X103890000Y-170295000D03*
X113000000Y-146250000D03*
X113000000Y-147750000D03*
X111000000Y-143250000D03*
X111000000Y-144750000D03*
X111000000Y-147750000D03*
X111000000Y-146250000D03*
X88690000Y-182295000D03*
X88690000Y-180795000D03*
X81690000Y-182295000D03*
X81690000Y-180795000D03*
X77690000Y-182295000D03*
X77690000Y-180795000D03*
X115490000Y-141595000D03*
X115490000Y-140095000D03*
X115490000Y-143295000D03*
X115490000Y-144795000D03*
D22*
X105000000Y-153250000D03*
X106500000Y-153250000D03*
X108250000Y-153250000D03*
X109750000Y-153250000D03*
X71940000Y-137545000D03*
X73440000Y-137545000D03*
D12*
X102210000Y-179745000D03*
X102210000Y-181245000D03*
X68580000Y-159905000D03*
X68580000Y-161405000D03*
X50800000Y-159905000D03*
X50800000Y-161405000D03*
X58420000Y-161405000D03*
X58420000Y-159905000D03*
X60960000Y-161405000D03*
X60960000Y-159905000D03*
X66040000Y-161405000D03*
X66040000Y-159905000D03*
X53340000Y-161405000D03*
X53340000Y-159905000D03*
X53340000Y-165215000D03*
X53340000Y-163715000D03*
X66040000Y-165215000D03*
X66040000Y-163715000D03*
D22*
X47190000Y-172545000D03*
X48690000Y-172545000D03*
D12*
X64690000Y-180295000D03*
X64690000Y-178795000D03*
X56690000Y-180295000D03*
X56690000Y-178795000D03*
X54408571Y-180295000D03*
X54408571Y-178795000D03*
X40500000Y-139250000D03*
X40500000Y-137750000D03*
X48000000Y-146250000D03*
X48000000Y-144750000D03*
X45500000Y-144750000D03*
X45500000Y-146250000D03*
X48000000Y-149750000D03*
X48000000Y-148250000D03*
X45500000Y-148250000D03*
X45500000Y-149750000D03*
D23*
X37640000Y-165245000D03*
X36690000Y-165245000D03*
X35740000Y-165245000D03*
X35740000Y-167845000D03*
X37640000Y-167845000D03*
D24*
X91250000Y-164025000D03*
X90750000Y-164025000D03*
X90250000Y-164025000D03*
X89750000Y-164025000D03*
X89250000Y-164025000D03*
X88750000Y-164025000D03*
X88250000Y-164025000D03*
X87750000Y-164025000D03*
X87250000Y-164025000D03*
X86750000Y-164025000D03*
X86250000Y-164025000D03*
X85750000Y-164025000D03*
D25*
X85025000Y-164750000D03*
X85025000Y-165250000D03*
X85025000Y-165750000D03*
X85025000Y-166250000D03*
X85025000Y-166750000D03*
X85025000Y-167250000D03*
X85025000Y-167750000D03*
X85025000Y-168250000D03*
X85025000Y-168750000D03*
X85025000Y-169250000D03*
X85025000Y-169750000D03*
X85025000Y-170250000D03*
D24*
X85750000Y-170975000D03*
X86250000Y-170975000D03*
X86750000Y-170975000D03*
X87250000Y-170975000D03*
X87750000Y-170975000D03*
X88250000Y-170975000D03*
X88750000Y-170975000D03*
X89250000Y-170975000D03*
X89750000Y-170975000D03*
X90250000Y-170975000D03*
X90750000Y-170975000D03*
X91250000Y-170975000D03*
D25*
X91975000Y-170250000D03*
X91975000Y-169750000D03*
X91975000Y-169250000D03*
X91975000Y-168750000D03*
X91975000Y-168250000D03*
X91975000Y-167750000D03*
X91975000Y-167250000D03*
X91975000Y-166750000D03*
X91975000Y-166250000D03*
X91975000Y-165750000D03*
X91975000Y-165250000D03*
X91975000Y-164750000D03*
D26*
X88500000Y-167500000D03*
D27*
X62640000Y-171820000D03*
X62640000Y-171170000D03*
X62640000Y-170520000D03*
X62640000Y-169870000D03*
X62640000Y-169220000D03*
X62640000Y-168570000D03*
X62640000Y-167920000D03*
X62640000Y-167270000D03*
X56740000Y-167270000D03*
X56740000Y-167920000D03*
X56740000Y-168570000D03*
X56740000Y-169220000D03*
X56740000Y-169870000D03*
X56740000Y-170520000D03*
X56740000Y-171170000D03*
X56740000Y-171820000D03*
D28*
X95000000Y-165250700D03*
X95000000Y-166749300D03*
D29*
X40690000Y-169085000D03*
D30*
X40690000Y-166545000D03*
X40690000Y-164005000D03*
D19*
X93980000Y-184670000D03*
D20*
X96520000Y-184670000D03*
D13*
X107000000Y-147750000D03*
X107000000Y-146250000D03*
D14*
X108750000Y-144000000D03*
X107250000Y-144000000D03*
D13*
X113000000Y-144750000D03*
X113000000Y-143250000D03*
D31*
X113065000Y-158545000D03*
X107515000Y-158545000D03*
D32*
X105600000Y-131250000D03*
X103400000Y-131250000D03*
D12*
X109000000Y-147750000D03*
X109000000Y-146250000D03*
D33*
X107222500Y-135333000D03*
X106587500Y-135333000D03*
X105952500Y-135333000D03*
X105317500Y-135333000D03*
X104682500Y-135333000D03*
X104047500Y-135333000D03*
X103412500Y-135333000D03*
X102777500Y-135333000D03*
X102777500Y-140667000D03*
X103412500Y-140667000D03*
X104047500Y-140667000D03*
X104682500Y-140667000D03*
X105317500Y-140667000D03*
X105952500Y-140667000D03*
X106587500Y-140667000D03*
X107222500Y-140667000D03*
D19*
X104140000Y-184670000D03*
D12*
X56000000Y-151650000D03*
X56000000Y-153150000D03*
X58500000Y-151650000D03*
X58500000Y-153150000D03*
X61000000Y-151650000D03*
X61000000Y-153150000D03*
X63500000Y-151650000D03*
X63500000Y-153150000D03*
D34*
X40640000Y-157480000D03*
D35*
X48260000Y-157480000D03*
D34*
X45720000Y-157480000D03*
X43180000Y-157480000D03*
X60960000Y-142240000D03*
D35*
X68580000Y-142240000D03*
D34*
X66040000Y-142240000D03*
X63500000Y-142240000D03*
X58420000Y-142240000D03*
X55880000Y-157480000D03*
D35*
X63500000Y-157480000D03*
D34*
X60960000Y-157480000D03*
X58420000Y-157480000D03*
X43180000Y-142240000D03*
D35*
X50800000Y-142240000D03*
D34*
X48260000Y-142240000D03*
X45720000Y-142240000D03*
X40640000Y-142240000D03*
D19*
X57610000Y-129500000D03*
D20*
X60150000Y-129500000D03*
X62690000Y-129500000D03*
X65230000Y-129500000D03*
X67770000Y-129500000D03*
X70310000Y-129500000D03*
D22*
X71940000Y-141545000D03*
X73440000Y-141545000D03*
D12*
X93090000Y-156595000D03*
X93090000Y-155095000D03*
X88990000Y-156605000D03*
X88990000Y-155105000D03*
X91085000Y-156605000D03*
X91085000Y-155105000D03*
D36*
X70340000Y-168385000D03*
X68440000Y-168385000D03*
X69390000Y-171005000D03*
X46040000Y-164505000D03*
X47940000Y-164505000D03*
X46990000Y-161885000D03*
D37*
X76990000Y-137545000D03*
X76990000Y-141545000D03*
X76990000Y-151545000D03*
X92390000Y-151545000D03*
X92390000Y-149545000D03*
X92390000Y-147545000D03*
X92390000Y-145545000D03*
X92390000Y-139545000D03*
X92390000Y-137545000D03*
D36*
X70340000Y-173465000D03*
X68440000Y-173465000D03*
X69390000Y-176085000D03*
X46040000Y-169585000D03*
X47940000Y-169585000D03*
X46990000Y-166965000D03*
D38*
X80940000Y-156065000D03*
X80940000Y-154795000D03*
D39*
X58740000Y-163195000D03*
X60640000Y-163195000D03*
D40*
X59690000Y-163195000D03*
D39*
X58740000Y-174545000D03*
X60640000Y-174545000D03*
D40*
X59690000Y-174545000D03*
D41*
X111780000Y-173845000D03*
X113050000Y-173845000D03*
X114330000Y-173845000D03*
X115600000Y-173845000D03*
X115600000Y-168045000D03*
X114330000Y-168045000D03*
X113050000Y-168045000D03*
X111780000Y-168045000D03*
D42*
X113690000Y-170445000D03*
D43*
X112600000Y-169695000D03*
X114780000Y-169695000D03*
D44*
X112600000Y-171695000D03*
X114780000Y-171695000D03*
D45*
X110500000Y-165000000D03*
D46*
X110750000Y-164000000D03*
D47*
X111250000Y-165000000D03*
D48*
X109750000Y-165000000D03*
D46*
X111750000Y-164000000D03*
X111250000Y-164000000D03*
X110250000Y-164000000D03*
X109750000Y-164000000D03*
X109250000Y-164000000D03*
X109250000Y-166000000D03*
X109750000Y-166000000D03*
X110250000Y-166000000D03*
X110750000Y-166000000D03*
X111250000Y-166000000D03*
X111750000Y-166000000D03*
D11*
X38710000Y-184995000D03*
D49*
X75710000Y-184095000D03*
X75710000Y-185995000D03*
X78330000Y-185045000D03*
D36*
X98160000Y-153685000D03*
X96260000Y-153685000D03*
X97210000Y-156305000D03*
X44660000Y-136685000D03*
X42760000Y-136685000D03*
X43710000Y-139305000D03*
D11*
X46710000Y-170995000D03*
X43710000Y-135495000D03*
X67710000Y-171995000D03*
D50*
X49960010Y-170045000D03*
X49960010Y-169045000D03*
D11*
X47190000Y-151045000D03*
X45190000Y-151045000D03*
D50*
X103190000Y-137045000D03*
X108690000Y-143045000D03*
X109690000Y-143045000D03*
X109690000Y-142045000D03*
X108190000Y-141045000D03*
X108690000Y-142045000D03*
X107690000Y-142045000D03*
X102190000Y-134545000D03*
X101690000Y-135545000D03*
X102190000Y-133545000D03*
X101190000Y-134545000D03*
X101190000Y-133545000D03*
X105190000Y-137045000D03*
X104190000Y-137045000D03*
X110190000Y-172045000D03*
X109190000Y-172045000D03*
X109190000Y-171045000D03*
X110190000Y-171045000D03*
X110190000Y-170045000D03*
X109190000Y-170045000D03*
X105190000Y-169045000D03*
X106190000Y-169045000D03*
X107190000Y-169045000D03*
X108190000Y-169045000D03*
X109190000Y-169045000D03*
X110190000Y-169045000D03*
X110190000Y-168045000D03*
X109190000Y-168045000D03*
X108190000Y-168045000D03*
X107190000Y-168045000D03*
X106190000Y-168045000D03*
X105190000Y-168045000D03*
X105190000Y-167045000D03*
X106190000Y-167045000D03*
X107190000Y-167045000D03*
X108190000Y-167045000D03*
X108190000Y-166045000D03*
X108190000Y-165045000D03*
X88500000Y-167500000D03*
X93690000Y-168045000D03*
X93690000Y-167045000D03*
X93690000Y-165045000D03*
X88500000Y-167500000D03*
X91690000Y-172545000D03*
X97690000Y-172545000D03*
X97690000Y-171545000D03*
X100190000Y-166545000D03*
X100190000Y-165545000D03*
X94690000Y-160045000D03*
X94690000Y-157045000D03*
D11*
X95190000Y-152545000D03*
X95190000Y-150545000D03*
D50*
X62190000Y-151545000D03*
X59690000Y-162045000D03*
X59690000Y-175545000D03*
X59690000Y-173045000D03*
X65190000Y-169545000D03*
X64190000Y-170545000D03*
X64690000Y-170045000D03*
X36690000Y-166545000D03*
X36190000Y-163545000D03*
X35690000Y-169045000D03*
X35690000Y-172045000D03*
X49690000Y-173045000D03*
X49690000Y-174045000D03*
X82890000Y-184545000D03*
X109690000Y-162045000D03*
X110690000Y-159045000D03*
X109690000Y-159045000D03*
X109690000Y-160045000D03*
X110690000Y-160045000D03*
X110690000Y-161045000D03*
X109690000Y-161045000D03*
X112690000Y-164245000D03*
X114690000Y-165045000D03*
X112690000Y-166045000D03*
X112690000Y-165045000D03*
X101790000Y-145845000D03*
X103790000Y-146745000D03*
X102890000Y-146745000D03*
X101790000Y-146745000D03*
X100890000Y-146545000D03*
X100190000Y-145845000D03*
X100690000Y-141545000D03*
X100690000Y-140445000D03*
X101790000Y-140445000D03*
X101790000Y-141545000D03*
X110390000Y-136945000D03*
X109490000Y-136245000D03*
X109490000Y-136945000D03*
X108490000Y-136945000D03*
X108490000Y-136245000D03*
X108490000Y-135345000D03*
X107190000Y-133845000D03*
X115390000Y-138945000D03*
X115390000Y-145945000D03*
X115590000Y-175445000D03*
X112990000Y-154245000D03*
X63190000Y-162545000D03*
X55940000Y-162545000D03*
X59690000Y-164295000D03*
X110690000Y-162045000D03*
D11*
X96790000Y-141445000D03*
X102690000Y-153795000D03*
X67290000Y-168445000D03*
X52290000Y-167419998D03*
D50*
X81290000Y-183145000D03*
X64690022Y-168519990D03*
X59440000Y-168545000D03*
X60640000Y-169569998D03*
X54940000Y-168295000D03*
X82290000Y-183145000D03*
X80190000Y-183145000D03*
X78090000Y-183194998D03*
X112890000Y-139045000D03*
X80190000Y-157844996D03*
X76789990Y-163711802D03*
X114190000Y-141545000D03*
X110990000Y-139145000D03*
X81470423Y-157544922D03*
X77590000Y-164645000D03*
X114590000Y-142345000D03*
D11*
X96744760Y-138940638D03*
X69411930Y-139969026D03*
X48190000Y-131545000D03*
D50*
X53989999Y-147244981D03*
X51390000Y-149845000D03*
X49998026Y-150358121D03*
X52590000Y-147544994D03*
X62440000Y-150545000D03*
X67690000Y-147795000D03*
D11*
X96640032Y-137695021D03*
X68528038Y-139085134D03*
D50*
X92115078Y-171294186D03*
X83190000Y-170545000D03*
X92914662Y-171320338D03*
X82690000Y-169795000D03*
X49190000Y-140045000D03*
X51690000Y-140045000D03*
X100090000Y-168645000D03*
X102890000Y-168745000D03*
X105210000Y-155125000D03*
X114710000Y-154994958D03*
X82190000Y-158745000D03*
X77640000Y-165446456D03*
X87190000Y-186745000D03*
X86290000Y-185345000D03*
X75690000Y-180045000D03*
X78690000Y-180445000D03*
X106210000Y-162495000D03*
X100090000Y-169545000D03*
X101690000Y-161745000D03*
X103990000Y-161844998D03*
X102390012Y-169545000D03*
X110090000Y-162945000D03*
X82490000Y-156345000D03*
X79490000Y-162745000D03*
X35690012Y-164243850D03*
X34190000Y-161045010D03*
X49560571Y-148845012D03*
X49108030Y-150276056D03*
X78964215Y-175070010D03*
X82038193Y-175550889D03*
X86990000Y-161644994D03*
X86955674Y-157344989D03*
X78090010Y-163458784D03*
X81112665Y-158670879D03*
X79209233Y-157711523D03*
X76338439Y-164994137D03*
X78409495Y-157732445D03*
X75482042Y-163886375D03*
X100190000Y-172545000D03*
X100190000Y-175545000D03*
X83215888Y-169104868D03*
X94960484Y-169795021D03*
X83440000Y-168295000D03*
X94111236Y-169695023D03*
X99190000Y-175795000D03*
X99190000Y-173295000D03*
X56940000Y-154545000D03*
X62440000Y-154544992D03*
X63690000Y-146295000D03*
X62690000Y-146295000D03*
X68790000Y-131445000D03*
X94390000Y-143345008D03*
X84190000Y-142045000D03*
X95117602Y-142451107D03*
X85940000Y-141994990D03*
X83466116Y-174759375D03*
X80489998Y-173944998D03*
X79790000Y-174445000D03*
X82867041Y-175362391D03*
X74210000Y-184995000D03*
X58190000Y-183545000D03*
X84190000Y-185345000D03*
X53250782Y-184595748D03*
X43190000Y-177045000D03*
X43190000Y-175045000D03*
X58252868Y-184491766D03*
X74210000Y-185995000D03*
X54490000Y-184345002D03*
X44190000Y-177045000D03*
X44190000Y-175045000D03*
X85190000Y-185345000D03*
X81190000Y-152545000D03*
X79690000Y-152545000D03*
X74389996Y-180045000D03*
X73690000Y-183045006D03*
X76589998Y-167445000D03*
X79665728Y-164269272D03*
D51*
X47940000Y-169585000D02*
X47940000Y-169765000D01*
X47940000Y-169765000D02*
X46710000Y-170995000D01*
X42760000Y-136685000D02*
X42760000Y-136445000D01*
X42760000Y-136445000D02*
X43710000Y-135495000D01*
X68440000Y-173465000D02*
X68440000Y-172725000D01*
X68440000Y-172725000D02*
X67710000Y-171995000D01*
X49960010Y-170365010D02*
X49960010Y-170045000D01*
X50940000Y-170545000D02*
X50140000Y-170545000D01*
X50940000Y-168545000D02*
X50140000Y-168545000D01*
X49960010Y-168724990D02*
X49960010Y-169045000D01*
X50140000Y-168545000D02*
X49960010Y-168724990D01*
X50140000Y-170545000D02*
X49960010Y-170365010D01*
X111000000Y-143250000D02*
X109895000Y-143250000D01*
X109895000Y-143250000D02*
X109690000Y-143045000D01*
X48000000Y-149750000D02*
X48000000Y-150235000D01*
X48000000Y-150235000D02*
X47190000Y-151045000D01*
X45500000Y-149750000D02*
X45500000Y-150735000D01*
X45500000Y-150735000D02*
X45190000Y-151045000D01*
D52*
X102777500Y-136632500D02*
X103190000Y-137045000D01*
X108690000Y-143045000D02*
X108690000Y-142045000D01*
X109690000Y-142045000D02*
X109690000Y-143045000D01*
X107222500Y-140667000D02*
X107812000Y-140667000D01*
X107812000Y-140667000D02*
X108190000Y-141045000D01*
X108690000Y-142045000D02*
X108690000Y-141545000D01*
X107222500Y-140667000D02*
X107222500Y-141577500D01*
X107222500Y-141577500D02*
X107690000Y-142045000D01*
X101690000Y-135545000D02*
X101690000Y-135045000D01*
X101690000Y-135045000D02*
X102190000Y-134545000D01*
X101190000Y-134545000D02*
X102190000Y-133545000D01*
X101790000Y-133345000D02*
X101390000Y-133345000D01*
X101390000Y-133345000D02*
X101190000Y-133545000D01*
D51*
X102890001Y-136745001D02*
X103190000Y-137045000D01*
X102777500Y-136632500D02*
X102890001Y-136745001D01*
X102777500Y-135333000D02*
X102777500Y-136632500D01*
X103090000Y-137045000D02*
X103190000Y-137045000D01*
X105490000Y-137045000D02*
X105190000Y-137045000D01*
X105190000Y-137045000D02*
X104190000Y-137045000D01*
D52*
X104090000Y-136945000D02*
X104190000Y-137045000D01*
D51*
X104190000Y-137045000D02*
X103690000Y-137045000D01*
D52*
X103390000Y-136945000D02*
X104090000Y-136945000D01*
X105190000Y-166045000D02*
X105190000Y-167045000D01*
X105940000Y-165295000D02*
X105190000Y-166045000D01*
D51*
X106690000Y-165295000D02*
X105940000Y-165295000D01*
D52*
X109190000Y-171045000D02*
X109190000Y-172045000D01*
X110190000Y-170045000D02*
X110190000Y-171045000D01*
X105190000Y-169045000D02*
X108190000Y-169045000D01*
X108190000Y-169045000D02*
X109190000Y-170045000D01*
X107190000Y-169045000D02*
X106190000Y-169045000D01*
X109190000Y-169045000D02*
X108190000Y-169045000D01*
X109190000Y-168045000D02*
X110190000Y-168045000D01*
X107190000Y-168045000D02*
X108190000Y-168045000D01*
X105190000Y-168045000D02*
X106190000Y-168045000D01*
X106190000Y-167045000D02*
X105190000Y-167045000D01*
X107190000Y-167045000D02*
X106190000Y-167045000D01*
X108190000Y-166045000D02*
X108190000Y-167045000D01*
X108614264Y-165045000D02*
X108190000Y-165045000D01*
X108690000Y-165045000D02*
X108614264Y-165045000D01*
X108735000Y-165000000D02*
X108690000Y-165045000D01*
D51*
X110500000Y-165000000D02*
X108735000Y-165000000D01*
D52*
X90696011Y-165538989D02*
X89190000Y-167045000D01*
X88500000Y-167500000D02*
X88500000Y-168735000D01*
X88196011Y-165538989D02*
X86690000Y-167045000D01*
X91975000Y-168250000D02*
X93485000Y-168250000D01*
X93485000Y-168250000D02*
X93690000Y-168045000D01*
X91975000Y-166750000D02*
X93395000Y-166750000D01*
X93395000Y-166750000D02*
X93690000Y-167045000D01*
X91975000Y-165250000D02*
X93485000Y-165250000D01*
X93485000Y-165250000D02*
X93690000Y-165045000D01*
X91250000Y-172105000D02*
X91690000Y-172545000D01*
X91250000Y-170975000D02*
X91250000Y-172105000D01*
D51*
X96250000Y-173045000D02*
X97190000Y-173045000D01*
X97190000Y-173045000D02*
X97690000Y-172545000D01*
X96250000Y-171295000D02*
X97440000Y-171295000D01*
X97440000Y-171295000D02*
X97690000Y-171545000D01*
X99000000Y-167000000D02*
X99735000Y-167000000D01*
X99735000Y-167000000D02*
X100190000Y-166545000D01*
X99000000Y-165000000D02*
X99645000Y-165000000D01*
X99645000Y-165000000D02*
X100190000Y-165545000D01*
X95000000Y-161250000D02*
X95000000Y-160355000D01*
X95000000Y-160355000D02*
X94690000Y-160045000D01*
X93090000Y-156595000D02*
X94240000Y-156595000D01*
X94240000Y-156595000D02*
X94690000Y-157045000D01*
D53*
X95190000Y-152545000D02*
X94190000Y-151545000D01*
X91690000Y-151545000D02*
X94190000Y-151545000D01*
X94190000Y-151545000D02*
X95190000Y-150545000D01*
D51*
X63500000Y-151650000D02*
X62295000Y-151650000D01*
X62295000Y-151650000D02*
X62190000Y-151545000D01*
X59690000Y-163195000D02*
X59690000Y-162045000D01*
D54*
X59690000Y-174545000D02*
X59690000Y-175545000D01*
X59690000Y-174545000D02*
X59690000Y-173045000D01*
X62640000Y-169220000D02*
X64865000Y-169220000D01*
X64865000Y-169220000D02*
X65190000Y-169545000D01*
X62640000Y-170520000D02*
X64165000Y-170520000D01*
X64165000Y-170520000D02*
X64190000Y-170545000D01*
D51*
X62640000Y-169870000D02*
X64515000Y-169870000D01*
X64515000Y-169870000D02*
X64690000Y-170045000D01*
X36690000Y-165245000D02*
X36690000Y-166545000D01*
X36690000Y-164045000D02*
X36190000Y-163545000D01*
X36690000Y-165245000D02*
X36690000Y-164045000D01*
X35940000Y-162545000D02*
X35940000Y-163295000D01*
X35940000Y-163295000D02*
X36190000Y-163545000D01*
X35690000Y-169045000D02*
X35690000Y-170295000D01*
X35690000Y-170295000D02*
X35940000Y-170545000D01*
X35940000Y-170545000D02*
X35940000Y-171795000D01*
X35940000Y-171795000D02*
X35690000Y-172045000D01*
X50940000Y-172545000D02*
X50190000Y-172545000D01*
X50190000Y-172545000D02*
X49690000Y-173045000D01*
X50940000Y-174545000D02*
X50190000Y-174545000D01*
X50190000Y-174545000D02*
X49690000Y-174045000D01*
X81690000Y-185795000D02*
X82140000Y-185795000D01*
X82140000Y-185795000D02*
X82890000Y-185045000D01*
X82890000Y-185045000D02*
X82890000Y-184545000D01*
X79690000Y-185795000D02*
X81690000Y-185795000D01*
X110690000Y-159045000D02*
X110690000Y-161045000D01*
X110690000Y-161045000D02*
X109690000Y-162045000D01*
X109690000Y-160045000D02*
X109690000Y-159045000D01*
X110690000Y-161045000D02*
X110690000Y-160045000D01*
X110690000Y-162045000D02*
X109690000Y-161045000D01*
X112690000Y-166045000D02*
X112690000Y-164245000D01*
X112690000Y-164245000D02*
X112690000Y-164045000D01*
X112690000Y-165045000D02*
X112690000Y-164245000D01*
X113690000Y-165295000D02*
X114440000Y-165295000D01*
X114440000Y-165295000D02*
X114690000Y-165045000D01*
X111250000Y-165000000D02*
X112645000Y-165000000D01*
X112645000Y-165000000D02*
X112690000Y-165045000D01*
X113690000Y-165295000D02*
X112940000Y-165295000D01*
X112940000Y-165295000D02*
X112690000Y-165045000D01*
X103890000Y-171795000D02*
X106040000Y-171795000D01*
X106040000Y-171795000D02*
X106690000Y-171145000D01*
D54*
X100490000Y-145085000D02*
X100489999Y-145545001D01*
X100489999Y-145545001D02*
X100190000Y-145845000D01*
X101500000Y-144750000D02*
X100825000Y-144750000D01*
X100825000Y-144750000D02*
X100490000Y-145085000D01*
X102890000Y-146745000D02*
X103790000Y-146745000D01*
X100890000Y-146545000D02*
X101590000Y-146545000D01*
X101590000Y-146545000D02*
X101790000Y-146745000D01*
X99500000Y-144750000D02*
X99500000Y-145155000D01*
X99500000Y-145155000D02*
X100190000Y-145845000D01*
X101790000Y-140445000D02*
X100690000Y-140445000D01*
X102777500Y-140667000D02*
X102668000Y-140667000D01*
X102668000Y-140667000D02*
X101790000Y-141545000D01*
D51*
X109490000Y-136945000D02*
X109490000Y-136245000D01*
X108490000Y-136245000D02*
X108490000Y-136945000D01*
X107190000Y-133845000D02*
X107190000Y-134045000D01*
X107190000Y-134045000D02*
X108490000Y-135345000D01*
X102777500Y-135333000D02*
X102278000Y-135333000D01*
X102278000Y-135333000D02*
X101690000Y-134745000D01*
D54*
X103412500Y-135333000D02*
X103412500Y-136145000D01*
X103412500Y-136145000D02*
X103412500Y-136622500D01*
D51*
X103690000Y-137045000D02*
X103090000Y-137045000D01*
X105861379Y-136616371D02*
X105861379Y-136673621D01*
X105861379Y-136673621D02*
X105490000Y-137045000D01*
X103689999Y-136944999D02*
X103390000Y-136645000D01*
X103690000Y-137045000D02*
X103689999Y-136944999D01*
X105090000Y-136645000D02*
X105790000Y-136645000D01*
X105790000Y-136645000D02*
X105890000Y-136545000D01*
X103390000Y-136645000D02*
X105190000Y-136645000D01*
X105190000Y-136645000D02*
X105290000Y-136545000D01*
X101590000Y-133745000D02*
X101590000Y-134645000D01*
X101590000Y-134645000D02*
X101690000Y-134745000D01*
X101490000Y-134745000D02*
X101490000Y-133345000D01*
X102190000Y-134045000D02*
X101490000Y-134045000D01*
D54*
X103412500Y-136622500D02*
X103390000Y-136645000D01*
X105317500Y-135333000D02*
X105317500Y-136517500D01*
X105317500Y-136517500D02*
X105290000Y-136545000D01*
X105952500Y-135333000D02*
X105952500Y-136482500D01*
X105952500Y-136482500D02*
X105890000Y-136545000D01*
X107222500Y-135333000D02*
X107222500Y-133877500D01*
X107222500Y-133877500D02*
X107190000Y-133845000D01*
D51*
X102777500Y-135333000D02*
X102777500Y-134632500D01*
X102777500Y-134632500D02*
X102190000Y-134045000D01*
X115490000Y-140095000D02*
X115490000Y-139045000D01*
X115490000Y-139045000D02*
X115390000Y-138945000D01*
X115490000Y-144795000D02*
X115490000Y-145845000D01*
X115490000Y-145845000D02*
X115390000Y-145945000D01*
X115600000Y-173845000D02*
X115600000Y-175435000D01*
X115600000Y-175435000D02*
X115590000Y-175445000D01*
X113000000Y-153250000D02*
X113000000Y-154235000D01*
X113000000Y-154235000D02*
X112990000Y-154245000D01*
X63500000Y-161405000D02*
X63500000Y-162235000D01*
X63500000Y-162235000D02*
X63190000Y-162545000D01*
X55880000Y-161405000D02*
X55880000Y-162485000D01*
X55880000Y-162485000D02*
X55940000Y-162545000D01*
X59690000Y-163195000D02*
X59690000Y-164295000D01*
D52*
X110750000Y-162105000D02*
X110690000Y-162045000D01*
X110750000Y-164000000D02*
X110750000Y-162105000D01*
X110750000Y-164000000D02*
X110750000Y-164249999D01*
X110750000Y-164249999D02*
X110690000Y-164249999D01*
D51*
X77090000Y-186784169D02*
X77920831Y-186784169D01*
X77920831Y-186784169D02*
X78210000Y-186495000D01*
X78210000Y-186495000D02*
X78210000Y-186235000D01*
X78210000Y-186235000D02*
X78330000Y-186115000D01*
X78330000Y-186115000D02*
X78330000Y-185045000D01*
X97590000Y-156395000D02*
X97300000Y-156395000D01*
X97300000Y-156395000D02*
X97210000Y-156305000D01*
X102210000Y-179745000D02*
X102210000Y-174019000D01*
X102210000Y-174019000D02*
X101240002Y-173049002D01*
D55*
X94750000Y-173045000D02*
X94750000Y-171295000D01*
X96250000Y-174545000D02*
X94875000Y-174545000D01*
X94875000Y-174545000D02*
X94750000Y-174420000D01*
X94750000Y-174420000D02*
X94750000Y-173045000D01*
D51*
X93980000Y-185920000D02*
X93980000Y-184670000D01*
X86900002Y-185845000D02*
X87025003Y-185970001D01*
X87025003Y-185970001D02*
X93929999Y-185970001D01*
X93929999Y-185970001D02*
X93980000Y-185920000D01*
D55*
X93980000Y-184670000D02*
X97690000Y-180960000D01*
X97690000Y-180960000D02*
X97690000Y-174545000D01*
X97690000Y-174545000D02*
X96250000Y-174545000D01*
D51*
X86900002Y-185845000D02*
X86690000Y-186055002D01*
X87290000Y-185455002D02*
X86900002Y-185845000D01*
X86690000Y-186055002D02*
X86865001Y-185880001D01*
X86865001Y-185880001D02*
X87025001Y-185880001D01*
X87025001Y-185880001D02*
X87115001Y-185970001D01*
X52440000Y-177500000D02*
X50985000Y-176045000D01*
X50985000Y-176045000D02*
X36690000Y-176045000D01*
X34690000Y-162045000D02*
X35440000Y-161295000D01*
X35440000Y-161295000D02*
X36165000Y-161295000D01*
X36690000Y-176045000D02*
X34690000Y-174045000D01*
X34690000Y-174045000D02*
X34690000Y-162045000D01*
X37415000Y-162545000D02*
X37440000Y-162545000D01*
X36165000Y-161295000D02*
X37415000Y-162545000D01*
D55*
X100468500Y-163000000D02*
X101240002Y-163771502D01*
X101240002Y-163771502D02*
X101240002Y-173049002D01*
X99024000Y-163000000D02*
X100468500Y-163000000D01*
X37440000Y-162545000D02*
X37465000Y-162545000D01*
X37465000Y-162545000D02*
X37690000Y-162770000D01*
X37690000Y-162770000D02*
X37690000Y-164119998D01*
X37690000Y-164119998D02*
X37715001Y-164144999D01*
X37715001Y-164144999D02*
X37715001Y-165169999D01*
D51*
X52440000Y-177500000D02*
X52440000Y-180095000D01*
X52440000Y-180095000D02*
X59129169Y-186784169D01*
X59129169Y-186784169D02*
X77090000Y-186784169D01*
X86690000Y-186055002D02*
X86000002Y-186745000D01*
X87290000Y-182045000D02*
X87290000Y-185455002D01*
X86000002Y-186745000D02*
X77129169Y-186745000D01*
X77129169Y-186745000D02*
X77090000Y-186784169D01*
X105000000Y-153250000D02*
X103235000Y-153250000D01*
X103235000Y-153250000D02*
X102690000Y-153795000D01*
X88690000Y-180795000D02*
X88490000Y-180795000D01*
X88490000Y-180795000D02*
X87290000Y-181995000D01*
D55*
X96790000Y-142152106D02*
X96790000Y-141445000D01*
X96790000Y-145739998D02*
X96790000Y-142152106D01*
X102750000Y-151699998D02*
X96790000Y-145739998D01*
X102750000Y-152945000D02*
X102750000Y-151699998D01*
D51*
X48260000Y-157480000D02*
X48260000Y-156080510D01*
X48260000Y-156080510D02*
X52690510Y-151650000D01*
X52690510Y-151650000D02*
X55150000Y-151650000D01*
X55150000Y-151650000D02*
X56000000Y-151650000D01*
D55*
X102240000Y-154245000D02*
X102690000Y-153795000D01*
X102750000Y-152945000D02*
X102750000Y-153735000D01*
D51*
X103055000Y-153250000D02*
X102750000Y-152945000D01*
X94750000Y-171295000D02*
X94440000Y-171295000D01*
X94440000Y-171295000D02*
X93690000Y-170545000D01*
X93690000Y-170545000D02*
X92270000Y-170545000D01*
X92270000Y-170545000D02*
X92065010Y-170340010D01*
D55*
X102750000Y-153735000D02*
X102690000Y-153795000D01*
X99744004Y-174545000D02*
X96250000Y-174545000D01*
X101240002Y-173049002D02*
X99744004Y-174545000D01*
X40842400Y-164005000D02*
X44552400Y-160295000D01*
X44552400Y-160295000D02*
X47444490Y-160295000D01*
D51*
X52440000Y-174545000D02*
X52440000Y-177500000D01*
D52*
X52440000Y-172545000D02*
X52465000Y-172545000D01*
X55790000Y-169870000D02*
X56740000Y-169870000D01*
X52465000Y-172545000D02*
X55140000Y-169870000D01*
X55140000Y-169870000D02*
X55790000Y-169870000D01*
X52440000Y-174545000D02*
X52440000Y-172545000D01*
X37440000Y-162545000D02*
X37440000Y-161970000D01*
X52440000Y-175545000D02*
X52440000Y-174545000D01*
D55*
X68580000Y-141685000D02*
X68580000Y-142240000D01*
X47444490Y-160295000D02*
X48260000Y-159479490D01*
X48260000Y-159479490D02*
X48260000Y-157480000D01*
X40690000Y-164005000D02*
X40842400Y-164005000D01*
X40690000Y-164005000D02*
X40690000Y-163295000D01*
X40690000Y-163295000D02*
X39940000Y-162545000D01*
X39940000Y-162545000D02*
X37440000Y-162545000D01*
X102750000Y-157210000D02*
X101313160Y-157210000D01*
X101313160Y-157210000D02*
X99024000Y-159499160D01*
X99024000Y-159499160D02*
X99024000Y-163000000D01*
X97590000Y-156395000D02*
X98940000Y-156395000D01*
X98940000Y-156395000D02*
X101090000Y-154245000D01*
X101090000Y-154245000D02*
X102240000Y-154245000D01*
D51*
X69390000Y-171005000D02*
X67290000Y-168905000D01*
X67290000Y-168905000D02*
X67290000Y-168445000D01*
X49210000Y-168025000D02*
X48740000Y-168495000D01*
X48740000Y-168495000D02*
X46210000Y-168495000D01*
X46210000Y-168495000D02*
X45710000Y-167995000D01*
X45710000Y-167995000D02*
X45710000Y-166499998D01*
X45710000Y-166499998D02*
X46990000Y-165219998D01*
X46990000Y-165219998D02*
X46990000Y-162895000D01*
X46990000Y-162895000D02*
X46990000Y-161885000D01*
X49210000Y-168025000D02*
X48710000Y-168525000D01*
X49815002Y-167419998D02*
X49210000Y-168025000D01*
X52290000Y-167419998D02*
X49815002Y-167419998D01*
X46990000Y-161885000D02*
X46320000Y-161885000D01*
X46320000Y-161885000D02*
X41660000Y-166545000D01*
X41660000Y-166545000D02*
X40690000Y-166545000D01*
X48710000Y-168525000D02*
X48710000Y-168609998D01*
X48715001Y-168614999D02*
X48715001Y-170555001D01*
X48190000Y-171345000D02*
X47190000Y-172345000D01*
X48710000Y-170775000D02*
X48190000Y-171295000D01*
X48190000Y-171295000D02*
X48190000Y-171345000D01*
X48710000Y-170560002D02*
X48710000Y-170775000D01*
X48710000Y-168609998D02*
X48715001Y-168614999D01*
X48715001Y-170555001D02*
X48710000Y-170560002D01*
X47190000Y-172345000D02*
X47190000Y-172545000D01*
X40690000Y-166545000D02*
X41690000Y-166545000D01*
D55*
X108140012Y-163594988D02*
X108140012Y-162594988D01*
X108140012Y-162594988D02*
X108440000Y-162295000D01*
X107515000Y-158545000D02*
X107515000Y-162969976D01*
X107515000Y-162969976D02*
X108140012Y-163594988D01*
X108140012Y-163594988D02*
X108940000Y-162795000D01*
X106740011Y-163744989D02*
X106890012Y-163594988D01*
X106890012Y-163594988D02*
X108140012Y-163594988D01*
X104409996Y-163745000D02*
X102750000Y-162085004D01*
X106640000Y-163745000D02*
X104409996Y-163745000D01*
X102750000Y-161766000D02*
X102750000Y-159750000D01*
X102750000Y-162085004D02*
X102750000Y-161766000D01*
D56*
X109750000Y-163520014D02*
X109024986Y-162795000D01*
X109024986Y-162795000D02*
X108940000Y-162795000D01*
X109750000Y-164000000D02*
X109750000Y-163520014D01*
D55*
X107915000Y-158545000D02*
X107915000Y-161770000D01*
X107915000Y-161770000D02*
X108440000Y-162295000D01*
X108440000Y-162295000D02*
X108940000Y-162795000D01*
D52*
X107795000Y-160650000D02*
X107795000Y-158665000D01*
X107795000Y-158665000D02*
X107915000Y-158545000D01*
D51*
X95000000Y-162750000D02*
X94225000Y-162750000D01*
X94225000Y-162750000D02*
X92315010Y-164659990D01*
X97500000Y-163000000D02*
X95250000Y-163000000D01*
X95250000Y-163000000D02*
X95000000Y-162750000D01*
D52*
X95000000Y-165250700D02*
X97249300Y-165250700D01*
X97249300Y-165250700D02*
X97500000Y-165000000D01*
X91975000Y-165750000D02*
X94500700Y-165750000D01*
X94500700Y-165750000D02*
X95000000Y-165250700D01*
X95000000Y-166749300D02*
X97249300Y-166749300D01*
X97249300Y-166749300D02*
X97500000Y-167000000D01*
X91975000Y-166250000D02*
X94500700Y-166250000D01*
X94500700Y-166250000D02*
X95000000Y-166749300D01*
D51*
X75710000Y-185995000D02*
X77710000Y-183995000D01*
X77710000Y-183995000D02*
X79390000Y-183995000D01*
X79390000Y-183995000D02*
X79690000Y-184295000D01*
X81690000Y-184295000D02*
X81690000Y-183545000D01*
X81690000Y-183545000D02*
X81290000Y-183145000D01*
X79690000Y-184295000D02*
X81690000Y-184295000D01*
D52*
X109750000Y-153250000D02*
X111500000Y-153250000D01*
D51*
X63500000Y-156855000D02*
X63500000Y-157480000D01*
X60440000Y-154940000D02*
X61585000Y-154940000D01*
X61585000Y-154940000D02*
X63500000Y-156855000D01*
X63500000Y-153150000D02*
X63500000Y-157480000D01*
X63500000Y-157480000D02*
X63500000Y-159905000D01*
X66040000Y-159905000D02*
X68580000Y-159905000D01*
X66040000Y-159905000D02*
X63500000Y-159905000D01*
X55880000Y-157480000D02*
X55880000Y-156855000D01*
X55880000Y-156855000D02*
X57795000Y-154940000D01*
X57795000Y-154940000D02*
X58940000Y-154940000D01*
X56000000Y-153150000D02*
X56000000Y-157360000D01*
X56000000Y-157360000D02*
X55880000Y-157480000D01*
X55880000Y-157480000D02*
X55880000Y-159905000D01*
X53340000Y-159905000D02*
X50800000Y-159905000D01*
X55880000Y-159905000D02*
X53340000Y-159905000D01*
D56*
X58740000Y-163195000D02*
X58740000Y-161725000D01*
X58740000Y-161725000D02*
X58420000Y-161405000D01*
X58940000Y-165100000D02*
X58740000Y-164900000D01*
X58740000Y-164900000D02*
X58740000Y-163195000D01*
X58940000Y-167295000D02*
X58315000Y-167920000D01*
X58315000Y-167920000D02*
X56740000Y-167920000D01*
X58940000Y-165100000D02*
X58940000Y-167295000D01*
X60640000Y-163195000D02*
X60640000Y-161725000D01*
X60640000Y-161725000D02*
X60960000Y-161405000D01*
X60440000Y-165100000D02*
X60640000Y-164900000D01*
X60640000Y-164900000D02*
X60640000Y-163195000D01*
X60440000Y-167295000D02*
X61065000Y-167920000D01*
X61065000Y-167920000D02*
X62640000Y-167920000D01*
X60440000Y-165100000D02*
X60440000Y-167295000D01*
X66040000Y-163715000D02*
X66240000Y-163715000D01*
X66240000Y-163715000D02*
X67090000Y-164565000D01*
X67090000Y-164565000D02*
X67090000Y-165695748D01*
X67090000Y-165695748D02*
X64690022Y-168095726D01*
X64690022Y-168095726D02*
X64690022Y-168519990D01*
X59015736Y-168545000D02*
X59440000Y-168545000D01*
X57525000Y-168545000D02*
X59015736Y-168545000D01*
X57500000Y-168570000D02*
X57525000Y-168545000D01*
X57965000Y-168570000D02*
X57500000Y-168570000D01*
X57500000Y-168570000D02*
X56740000Y-168570000D01*
X66040000Y-163715000D02*
X66040000Y-161405000D01*
X58940000Y-176545000D02*
X58740000Y-176345000D01*
X58740000Y-176345000D02*
X58740000Y-174545000D01*
X58740000Y-169345000D02*
X57965000Y-168570000D01*
X58740000Y-174545000D02*
X58740000Y-169345000D01*
X52514999Y-166369999D02*
X54440000Y-168295000D01*
X54440000Y-168295000D02*
X54940000Y-168295000D01*
X53340000Y-163715000D02*
X53140000Y-163715000D01*
X53140000Y-163715000D02*
X52514999Y-164340001D01*
X52514999Y-164340001D02*
X52514999Y-166369999D01*
X53340000Y-163715000D02*
X53340000Y-161405000D01*
X60440000Y-176545000D02*
X60640000Y-176345000D01*
X60640000Y-176345000D02*
X60640000Y-174545000D01*
X60640000Y-174545000D02*
X60640000Y-169569998D01*
X60640000Y-169569998D02*
X61640000Y-168570000D01*
X61640000Y-168570000D02*
X62640000Y-168570000D01*
X56740000Y-169220000D02*
X55604998Y-169220000D01*
D51*
X53915000Y-169220000D02*
X55604998Y-169220000D01*
X53240000Y-168545000D02*
X53915000Y-169220000D01*
X52440000Y-168545000D02*
X53240000Y-168545000D01*
X52440000Y-170545000D02*
X52440000Y-168545000D01*
X49490000Y-171545000D02*
X51415000Y-171545000D01*
X51415000Y-171545000D02*
X52415000Y-170545000D01*
X52415000Y-170545000D02*
X52440000Y-170545000D01*
X48690000Y-172545000D02*
X48690000Y-172345000D01*
X48690000Y-172345000D02*
X49490000Y-171545000D01*
D52*
X81690000Y-182295000D02*
X81890000Y-182295000D01*
X81690000Y-182445000D02*
X81690000Y-182545000D01*
X81690000Y-182545000D02*
X81990001Y-182845001D01*
X81990001Y-182845001D02*
X82290000Y-183145000D01*
X79690000Y-182295000D02*
X79690000Y-182645000D01*
X79690000Y-182645000D02*
X80190000Y-183145000D01*
X77690000Y-182295000D02*
X77690000Y-182794998D01*
X77690000Y-182794998D02*
X78090000Y-183194998D01*
X111940013Y-138095013D02*
X112590001Y-138745001D01*
X112590001Y-138745001D02*
X112890000Y-139045000D01*
X94455689Y-141045011D02*
X94790011Y-140710689D01*
X83490001Y-156533001D02*
X83490001Y-150513599D01*
X99689989Y-136044989D02*
X101740013Y-138095013D01*
X94790011Y-137110688D02*
X95855711Y-136044989D01*
X92958589Y-141045011D02*
X94455689Y-141045011D01*
X83490001Y-150513599D02*
X92958589Y-141045011D01*
X95855711Y-136044989D02*
X99689989Y-136044989D01*
X81758425Y-156944920D02*
X81858506Y-157045001D01*
X81090076Y-156944920D02*
X81758425Y-156944920D01*
X80190000Y-157844996D02*
X81090076Y-156944920D01*
X81858506Y-157045001D02*
X82978001Y-157045001D01*
X101740013Y-138095013D02*
X111940013Y-138095013D01*
X82978001Y-157045001D02*
X83490001Y-156533001D01*
X94790011Y-140710689D02*
X94790011Y-137110688D01*
X77878003Y-164044999D02*
X77123187Y-164044999D01*
X77089989Y-164011801D02*
X76789990Y-163711802D01*
X77123187Y-164044999D02*
X77089989Y-164011801D01*
X78889988Y-165198690D02*
X78889988Y-165056984D01*
X85025000Y-166250000D02*
X79941298Y-166250000D01*
X78889988Y-165056984D02*
X77878003Y-164044999D01*
X79941298Y-166250000D02*
X78889988Y-165198690D01*
X114190000Y-141545000D02*
X115440000Y-141545000D01*
X115440000Y-141545000D02*
X115490000Y-141595000D01*
X81894687Y-157544922D02*
X81470423Y-157544922D01*
X83043780Y-157544922D02*
X81894687Y-157544922D01*
X95190022Y-137276377D02*
X95190022Y-140876378D01*
X84090012Y-150479288D02*
X84090012Y-156498690D01*
X93124278Y-141445022D02*
X84090012Y-150479288D01*
X95190022Y-140876378D02*
X94621378Y-141445022D01*
X96021400Y-136445000D02*
X95190022Y-137276377D01*
X110990000Y-139145000D02*
X110340024Y-138495024D01*
X84090012Y-156498690D02*
X83043780Y-157544922D01*
X101140024Y-138495024D02*
X99090000Y-136445000D01*
X94621378Y-141445022D02*
X93124278Y-141445022D01*
X110340024Y-138495024D02*
X101140024Y-138495024D01*
X99090000Y-136445000D02*
X96021400Y-136445000D01*
X79875598Y-166750000D02*
X77770598Y-164645000D01*
X77770598Y-164645000D02*
X77590000Y-164645000D01*
X85025000Y-166750000D02*
X79875598Y-166750000D01*
X114590000Y-142345000D02*
X114590000Y-142395000D01*
X114590000Y-142395000D02*
X115490000Y-143295000D01*
X111750000Y-164000000D02*
X111750000Y-163485000D01*
X111750000Y-163485000D02*
X111875001Y-163359999D01*
X111750000Y-164000000D02*
X111875001Y-164000000D01*
X111250000Y-167105000D02*
X111690000Y-167105000D01*
X111690000Y-167105000D02*
X111750000Y-167105000D01*
D51*
X111250000Y-167045000D02*
X111630000Y-167045000D01*
X111630000Y-167045000D02*
X111690000Y-167105000D01*
D52*
X111250000Y-166500000D02*
X111250000Y-167045000D01*
X111250000Y-167045000D02*
X111250000Y-167105000D01*
D51*
X110750000Y-167105000D02*
X111190000Y-167105000D01*
X111190000Y-167105000D02*
X111250000Y-167045000D01*
X110250000Y-167105000D02*
X110750000Y-167105000D01*
X109750000Y-167105000D02*
X110250000Y-167105000D01*
D52*
X115890000Y-165045000D02*
X116190000Y-165045000D01*
X115890000Y-165945000D02*
X116090000Y-165745000D01*
X115890000Y-165045000D02*
X115890000Y-165945000D01*
D57*
X116190000Y-165045000D02*
X116190000Y-152545000D01*
D52*
X116090000Y-165745000D02*
X116190000Y-165645000D01*
D57*
X116190000Y-152545000D02*
X113990002Y-150345002D01*
X113990002Y-150345002D02*
X106490002Y-150345002D01*
X106490002Y-150345002D02*
X105190000Y-149045000D01*
X105190000Y-149045000D02*
X105190000Y-148000000D01*
D55*
X113690000Y-163795000D02*
X115340000Y-163795000D01*
X115340000Y-163795000D02*
X115890000Y-164345000D01*
X115890000Y-164345000D02*
X115890000Y-165045000D01*
D58*
X113590000Y-167185000D02*
X113590000Y-166645000D01*
X112730000Y-168045000D02*
X113590000Y-167185000D01*
X111780000Y-168045000D02*
X112730000Y-168045000D01*
X112990000Y-167245000D02*
X113190000Y-167045000D01*
X113190000Y-167045000D02*
X113590000Y-166645000D01*
X113790000Y-166445000D02*
X113190000Y-167045000D01*
X115390000Y-166445000D02*
X113790000Y-166445000D01*
X113590000Y-166645000D02*
X114690000Y-166645000D01*
X114330000Y-166845000D02*
X114530000Y-166645000D01*
X114690000Y-166645000D02*
X115190000Y-166645000D01*
X114330000Y-168045000D02*
X114330000Y-166845000D01*
X114530000Y-166645000D02*
X114690000Y-166645000D01*
X114330000Y-168045000D02*
X114330000Y-169245000D01*
X114330000Y-169245000D02*
X114780000Y-169695000D01*
D52*
X111750000Y-166845000D02*
X111750000Y-167105000D01*
X111750000Y-166500000D02*
X111750000Y-166845000D01*
D58*
X111750000Y-166845000D02*
X111750000Y-168015000D01*
X111750000Y-168015000D02*
X111780000Y-168045000D01*
X115600000Y-168045000D02*
X115600000Y-166655000D01*
X115600000Y-166655000D02*
X115390000Y-166445000D01*
D57*
X115390000Y-166445000D02*
X115890000Y-165945000D01*
D58*
X115190000Y-166645000D02*
X115390000Y-166445000D01*
X112990000Y-167735000D02*
X112990000Y-167245000D01*
X113050000Y-168045000D02*
X113050000Y-167795000D01*
X113050000Y-167795000D02*
X112990000Y-167735000D01*
D52*
X111750000Y-167105000D02*
X111790000Y-167145000D01*
D58*
X48190000Y-131545000D02*
X53490000Y-131545000D01*
X68911931Y-140469025D02*
X69411930Y-139969026D01*
X53490000Y-131545000D02*
X62414025Y-140469025D01*
X62414025Y-140469025D02*
X68911931Y-140469025D01*
X97244759Y-139440637D02*
X96744760Y-138940638D01*
X98190000Y-140385878D02*
X97244759Y-139440637D01*
X98190000Y-145295000D02*
X98190000Y-140385878D01*
X100895000Y-148000000D02*
X98190000Y-145295000D01*
X105190000Y-148000000D02*
X100895000Y-148000000D01*
D52*
X109750000Y-167105000D02*
X110750000Y-167105000D01*
X110750000Y-167105000D02*
X111250000Y-167105000D01*
X110750000Y-166000000D02*
X110750000Y-166500000D01*
X110750000Y-166500000D02*
X110750000Y-167105000D01*
X111250000Y-166000000D02*
X111250000Y-166500000D01*
X111750000Y-166000000D02*
X111750000Y-166500000D01*
X110250000Y-166000000D02*
X110250000Y-167105000D01*
X109750000Y-166000000D02*
X109750000Y-167105000D01*
D51*
X113690000Y-163795000D02*
X113690000Y-163545000D01*
X113690000Y-163545000D02*
X113190000Y-163045000D01*
X111875001Y-163359999D02*
X111875001Y-164000000D01*
X112190000Y-163045000D02*
X111875001Y-163359999D01*
X113190000Y-163045000D02*
X112190000Y-163045000D01*
D57*
X105190000Y-148000000D02*
X105190000Y-143774998D01*
X105190000Y-143774998D02*
X104665002Y-143250000D01*
D51*
X104682500Y-142052500D02*
X104682500Y-142552500D01*
X104682500Y-142552500D02*
X104665002Y-142569998D01*
D59*
X105190000Y-143045000D02*
X104395000Y-143045000D01*
X104395000Y-143045000D02*
X104190000Y-143250000D01*
D51*
X104665002Y-142069998D02*
X105190000Y-142594996D01*
X105190000Y-142594996D02*
X105190000Y-143045000D01*
X105190000Y-143045000D02*
X104690000Y-143545000D01*
X104690000Y-143545000D02*
X104190000Y-143545000D01*
D59*
X105190000Y-141545000D02*
X105190000Y-143045000D01*
D57*
X103989999Y-143844999D02*
X103690000Y-143545000D01*
X104715001Y-143844999D02*
X103989999Y-143844999D01*
X104915002Y-144045000D02*
X104715001Y-143844999D01*
X105190000Y-144045000D02*
X104915002Y-144045000D01*
D51*
X105190000Y-142045000D02*
X104665002Y-142569998D01*
X104665002Y-142569998D02*
X104665002Y-143250000D01*
X105190000Y-142545000D02*
X105190000Y-141545000D01*
X105190000Y-141545000D02*
X104738001Y-141093001D01*
D59*
X104682500Y-141645500D02*
X104682500Y-142545000D01*
D57*
X104690000Y-143045000D02*
X104485000Y-143250000D01*
D51*
X104665002Y-142069998D02*
X105190000Y-141545000D01*
X104682500Y-141645500D02*
X104847000Y-141645500D01*
X104847000Y-141645500D02*
X105190000Y-141302500D01*
X104682500Y-141645500D02*
X104682500Y-142052500D01*
X104682500Y-142052500D02*
X104665002Y-142069998D01*
D59*
X105190000Y-141302500D02*
X105190000Y-141545000D01*
X105317500Y-140667000D02*
X105317500Y-141175000D01*
X105317500Y-141175000D02*
X105190000Y-141302500D01*
X104682500Y-140667000D02*
X104682500Y-141645500D01*
D52*
X63121381Y-147244981D02*
X54414263Y-147244981D01*
X85761429Y-161419329D02*
X80975467Y-161419329D01*
X80901114Y-161344976D02*
X77221376Y-161344976D01*
X80975467Y-161419329D02*
X80901114Y-161344976D01*
X87250000Y-164025000D02*
X87250000Y-162907900D01*
X87250000Y-162907900D02*
X85761429Y-161419329D01*
X54414263Y-147244981D02*
X53989999Y-147244981D01*
X77221376Y-161344976D02*
X63121381Y-147244981D01*
X51090001Y-150144999D02*
X51390000Y-149845000D01*
X45720000Y-155515000D02*
X51090001Y-150144999D01*
X45720000Y-157480000D02*
X45720000Y-155515000D01*
X80809778Y-161819340D02*
X80735425Y-161744987D01*
X63055693Y-147844993D02*
X52889999Y-147844993D01*
X80735425Y-161744987D02*
X76955687Y-161744987D01*
X85595740Y-161819340D02*
X80809778Y-161819340D01*
X86750000Y-164025000D02*
X86750000Y-162973600D01*
X86750000Y-162973600D02*
X85595740Y-161819340D01*
X52889999Y-147844993D02*
X52590000Y-147544994D01*
X76955687Y-161744987D02*
X63055693Y-147844993D01*
X49998026Y-150661974D02*
X49998026Y-150358121D01*
X43180000Y-157480000D02*
X49998026Y-150661974D01*
X66040000Y-147033004D02*
X66040000Y-143653492D01*
X66040000Y-143653492D02*
X66040000Y-142240000D01*
X81638222Y-159819286D02*
X81563868Y-159744932D01*
X90750000Y-161956060D02*
X88613226Y-159819286D01*
X90750000Y-164025000D02*
X90750000Y-161956060D01*
X88613226Y-159819286D02*
X81638222Y-159819286D01*
X81563868Y-159744932D02*
X78751928Y-159744932D01*
X78751928Y-159744932D02*
X66040000Y-147033004D01*
D56*
X91250000Y-164025000D02*
X91250000Y-161855004D01*
X67989999Y-148094999D02*
X67690000Y-147795000D01*
X79071967Y-159319921D02*
X67989999Y-148237953D01*
X67989999Y-148237953D02*
X67989999Y-148094999D01*
X91250000Y-161855004D02*
X88789272Y-159394276D01*
X88789272Y-159394276D02*
X81814268Y-159394276D01*
X81814268Y-159394276D02*
X81739913Y-159319921D01*
X81739913Y-159319921D02*
X79071967Y-159319921D01*
X61000000Y-151650000D02*
X60300000Y-151650000D01*
X60300000Y-151650000D02*
X58500000Y-151650000D01*
X62440000Y-150545000D02*
X62105000Y-150545000D01*
X62105000Y-150545000D02*
X61000000Y-151650000D01*
D58*
X50800000Y-140640510D02*
X50800000Y-142240000D01*
X43690000Y-133286998D02*
X50800000Y-140396998D01*
X43690000Y-129545000D02*
X43690000Y-133286998D01*
X50800000Y-140396998D02*
X50800000Y-140640510D01*
X43690000Y-129545000D02*
X43690000Y-133545000D01*
X43690000Y-133545000D02*
X40500000Y-136735000D01*
X40500000Y-136735000D02*
X40500000Y-137750000D01*
D52*
X62890004Y-148245004D02*
X48654996Y-148245004D01*
X80644089Y-162219351D02*
X80569736Y-162144998D01*
X85430051Y-162219351D02*
X80644089Y-162219351D01*
X86250000Y-164025000D02*
X86250000Y-163039300D01*
X48654996Y-148245004D02*
X48650000Y-148250000D01*
X80569736Y-162144998D02*
X76789998Y-162144998D01*
X86250000Y-163039300D02*
X85430051Y-162219351D01*
X76789998Y-162144998D02*
X62890004Y-148245004D01*
X48650000Y-148250000D02*
X48000000Y-148250000D01*
X48000000Y-146250000D02*
X48000000Y-148250000D01*
X76501988Y-164311804D02*
X76593869Y-164311804D01*
X76189988Y-163999804D02*
X76501988Y-164311804D01*
X79039998Y-167694998D02*
X84344998Y-167694998D01*
X84344998Y-167694998D02*
X84400000Y-167750000D01*
X84400000Y-167750000D02*
X85025000Y-167750000D01*
X76593869Y-164311804D02*
X76989998Y-164707933D01*
X76989998Y-164707933D02*
X76989998Y-165644998D01*
X76989998Y-165644998D02*
X79039998Y-167694998D01*
X47033013Y-149133013D02*
X48960570Y-149133013D01*
X76189988Y-163091310D02*
X76189988Y-163999804D01*
X62175909Y-149077231D02*
X76189988Y-163091310D01*
X48960570Y-149133013D02*
X49272570Y-149445013D01*
X50216354Y-149077231D02*
X62175909Y-149077231D01*
X45500000Y-148250000D02*
X46150000Y-148250000D01*
X46150000Y-148250000D02*
X47033013Y-149133013D01*
X49272570Y-149445013D02*
X49848572Y-149445013D01*
X49848572Y-149445013D02*
X50216354Y-149077231D01*
X45500000Y-146250000D02*
X45500000Y-146700000D01*
X45500000Y-146700000D02*
X45500000Y-148250000D01*
X40500000Y-139250000D02*
X42860000Y-139250000D01*
X42860000Y-139250000D02*
X43050000Y-139440000D01*
X43050000Y-139495000D02*
X43050000Y-142110000D01*
X43710000Y-139305000D02*
X43185000Y-139305000D01*
X43185000Y-139305000D02*
X43050000Y-139440000D01*
X43050000Y-139440000D02*
X43050000Y-139495000D01*
X43050000Y-142110000D02*
X43180000Y-142240000D01*
X107490000Y-139145000D02*
X104671000Y-139145000D01*
X109239999Y-140894999D02*
X107490000Y-139145000D01*
X112050001Y-140894999D02*
X109239999Y-140894999D01*
X114190000Y-143034998D02*
X112050001Y-140894999D01*
X114190000Y-146760000D02*
X114190000Y-143034998D01*
X113200000Y-147750000D02*
X114190000Y-146760000D01*
X113000000Y-147750000D02*
X113200000Y-147750000D01*
X104047500Y-139768500D02*
X104047500Y-140667000D01*
X104671000Y-139145000D02*
X104047500Y-139768500D01*
D58*
X97347138Y-137695021D02*
X96640032Y-137695021D01*
X99500000Y-139847883D02*
X97347138Y-137695021D01*
X99500000Y-143250000D02*
X99500000Y-139847883D01*
X53190000Y-129545000D02*
X62730134Y-139085134D01*
X62730134Y-139085134D02*
X67820932Y-139085134D01*
X67820932Y-139085134D02*
X68528038Y-139085134D01*
X46230000Y-129545000D02*
X53190000Y-129545000D01*
D52*
X99500000Y-143275000D02*
X99500000Y-143250000D01*
D58*
X101500000Y-143250000D02*
X101985000Y-143250000D01*
X101985000Y-143250000D02*
X103190000Y-142045000D01*
X103190000Y-142045000D02*
X103690000Y-142045000D01*
X99500000Y-143250000D02*
X101500000Y-143250000D01*
D54*
X111000000Y-147750000D02*
X113000000Y-147750000D01*
X104047500Y-141687500D02*
X103690000Y-142045000D01*
X104047500Y-140667000D02*
X104047500Y-141687500D01*
D52*
X88690000Y-182295000D02*
X88890000Y-182295000D01*
X88890000Y-182295000D02*
X90290000Y-180895000D01*
X92115078Y-171718450D02*
X92115078Y-171294186D01*
X92340002Y-171943374D02*
X92115078Y-171718450D01*
X92340002Y-176644998D02*
X92340002Y-171943374D01*
X90290000Y-178695000D02*
X92340002Y-176644998D01*
X90290000Y-180895000D02*
X90290000Y-178695000D01*
X83985000Y-169750000D02*
X83190000Y-170545000D01*
X85025000Y-169750000D02*
X83985000Y-169750000D01*
X92189994Y-171295006D02*
X92115898Y-171295006D01*
X92115898Y-171295006D02*
X92115078Y-171294186D01*
X88900000Y-185420000D02*
X88900000Y-182505000D01*
X88900000Y-182505000D02*
X88690000Y-182295000D01*
X91440000Y-185420000D02*
X90690000Y-184670000D01*
X90690000Y-184670000D02*
X90690000Y-178860700D01*
X90690000Y-178860700D02*
X92914662Y-176636038D01*
X92914662Y-176636038D02*
X92914662Y-171744602D01*
X92914662Y-171744602D02*
X92914662Y-171320338D01*
X83374300Y-169795000D02*
X83114264Y-169795000D01*
X83919300Y-169250000D02*
X83374300Y-169795000D01*
X85025000Y-169250000D02*
X83919300Y-169250000D01*
X83114264Y-169795000D02*
X82690000Y-169795000D01*
X44660000Y-136685000D02*
X44660000Y-138710000D01*
X44660000Y-138710000D02*
X44950000Y-139000000D01*
X57190000Y-145545000D02*
X63986296Y-145545000D01*
X51690000Y-140045000D02*
X57190000Y-145545000D01*
X63986296Y-145545000D02*
X78586239Y-160144943D01*
X49190000Y-140045000D02*
X45945000Y-140045000D01*
X45945000Y-140045000D02*
X44950000Y-139050000D01*
X44950000Y-139000000D02*
X44950000Y-139050000D01*
X81472534Y-160219296D02*
X88447536Y-160219296D01*
X90250000Y-162021760D02*
X90250000Y-163400000D01*
X78586239Y-160144943D02*
X81398179Y-160144943D01*
X88447536Y-160219296D02*
X90250000Y-162021760D01*
X81398179Y-160144943D02*
X81472534Y-160219296D01*
X90250000Y-163400000D02*
X90250000Y-164025000D01*
X99665736Y-168645000D02*
X100090000Y-168645000D01*
X99615734Y-168695002D02*
X99665736Y-168645000D01*
X93676409Y-168695002D02*
X99615734Y-168695002D01*
X93121411Y-169250000D02*
X93676409Y-168695002D01*
X91975000Y-169250000D02*
X93121411Y-169250000D01*
X103890000Y-168695000D02*
X102940000Y-168695000D01*
X103890000Y-168695000D02*
X103890000Y-170295000D01*
X102940000Y-168695000D02*
X102890000Y-168745000D01*
X107690000Y-164545000D02*
X105690000Y-164545000D01*
X105690000Y-164545000D02*
X103890000Y-166345000D01*
X109250000Y-164000000D02*
X108925000Y-164000000D01*
X108530001Y-164394999D02*
X107840001Y-164394999D01*
X108925000Y-164000000D02*
X108530001Y-164394999D01*
X107840001Y-164394999D02*
X107690000Y-164545000D01*
X103890000Y-167195000D02*
X103890000Y-166345000D01*
X81690000Y-180795000D02*
X81040000Y-180795000D01*
X81040000Y-180795000D02*
X79990000Y-179745000D01*
X79990000Y-179745000D02*
X77561238Y-179745000D01*
X75361253Y-181944985D02*
X57589985Y-181944985D01*
X77561238Y-179745000D02*
X75361253Y-181944985D01*
X57589985Y-181944985D02*
X56690000Y-181045000D01*
X56690000Y-181045000D02*
X56690000Y-180295000D01*
X85914989Y-179020011D02*
X84140000Y-180795000D01*
X84140000Y-180795000D02*
X81690000Y-180795000D01*
X85914989Y-179020011D02*
X88790013Y-176144987D01*
X88790013Y-171640013D02*
X88750000Y-171600000D01*
X88750000Y-171600000D02*
X88750000Y-170975000D01*
X88790013Y-176144987D02*
X88790013Y-171640013D01*
X54408571Y-180295000D02*
X54408571Y-180363571D01*
X75590004Y-182344996D02*
X76390000Y-181545000D01*
X54408571Y-180363571D02*
X56389996Y-182344996D01*
X56389996Y-182344996D02*
X75590004Y-182344996D01*
X76390000Y-181545000D02*
X78690000Y-181545000D01*
X78690000Y-181545000D02*
X84190000Y-181545000D01*
X77690000Y-180795000D02*
X77890000Y-180795000D01*
X77890000Y-180795000D02*
X78640000Y-181545000D01*
X78640000Y-181545000D02*
X78690000Y-181545000D01*
X89250000Y-171600000D02*
X89250000Y-170975000D01*
X84190000Y-181545000D02*
X89250000Y-176485000D01*
X89250000Y-176485000D02*
X89250000Y-171600000D01*
X105290000Y-155045000D02*
X105210000Y-155125000D01*
X105210000Y-155125000D02*
X104990001Y-155344999D01*
X114710000Y-154570694D02*
X114710000Y-154994958D01*
X114710000Y-153265000D02*
X114710000Y-154570694D01*
X113590000Y-152145000D02*
X114710000Y-153265000D01*
X109155000Y-152145000D02*
X113590000Y-152145000D01*
X108250000Y-153250000D02*
X108250000Y-153050000D01*
X108250000Y-153050000D02*
X109155000Y-152145000D01*
X104990001Y-155344999D02*
X101890001Y-155344999D01*
X101890001Y-155344999D02*
X98490000Y-158745000D01*
X98490000Y-158745000D02*
X82614264Y-158745000D01*
X82614264Y-158745000D02*
X82190000Y-158745000D01*
X77939999Y-165746455D02*
X77640000Y-165446456D01*
X79443544Y-167250000D02*
X77939999Y-165746455D01*
X85025000Y-167250000D02*
X79443544Y-167250000D01*
X108250000Y-153250000D02*
X106500000Y-153250000D01*
X106500000Y-153250000D02*
X106500000Y-153835000D01*
X106500000Y-153835000D02*
X105589999Y-154745001D01*
X105589999Y-154745001D02*
X105290000Y-155045000D01*
X104140000Y-184670000D02*
X104140000Y-183495000D01*
X104010000Y-183495000D02*
X104140000Y-183495000D01*
X102210000Y-181245000D02*
X102210000Y-181695000D01*
X102210000Y-181695000D02*
X104010000Y-183495000D01*
X87190000Y-186745000D02*
X103865000Y-186745000D01*
X103865000Y-186745000D02*
X104140000Y-186470000D01*
X104140000Y-186470000D02*
X104140000Y-184670000D01*
X85990001Y-185644999D02*
X86290000Y-185345000D01*
X83539998Y-185657002D02*
X83877998Y-185995002D01*
X83877998Y-185995002D02*
X85639998Y-185995002D01*
X83539998Y-184857006D02*
X83539998Y-185657002D01*
X83540002Y-184857002D02*
X83539998Y-184857006D01*
X83540002Y-182994999D02*
X83540002Y-184857002D01*
X89750000Y-176785001D02*
X83540002Y-182994999D01*
X89750000Y-170975000D02*
X89750000Y-176785001D01*
X85639998Y-185995002D02*
X85990001Y-185644999D01*
D56*
X56740000Y-167270000D02*
X54895000Y-167270000D01*
X54895000Y-167270000D02*
X53340000Y-165715000D01*
X53340000Y-165715000D02*
X53340000Y-165215000D01*
X62640000Y-167270000D02*
X64485000Y-167270000D01*
X64485000Y-167270000D02*
X66040000Y-165715000D01*
X66040000Y-165715000D02*
X66040000Y-165215000D01*
D52*
X74967743Y-180994963D02*
X76090000Y-179872706D01*
X76090000Y-179872706D02*
X82917695Y-173045011D01*
X75690000Y-180045000D02*
X75862294Y-179872706D01*
X75862294Y-179872706D02*
X76090000Y-179872706D01*
X64690000Y-180295000D02*
X65340000Y-180295000D01*
X86250000Y-171600000D02*
X86250000Y-170975000D01*
X65340000Y-180295000D02*
X66039963Y-180994963D01*
X66039963Y-180994963D02*
X74967743Y-180994963D01*
X82917695Y-173045011D02*
X85589989Y-173045011D01*
X85589989Y-173045011D02*
X86250000Y-172385000D01*
X86250000Y-172385000D02*
X86250000Y-171600000D01*
X79040000Y-180795000D02*
X78690000Y-180445000D01*
X79690000Y-180795000D02*
X79040000Y-180795000D01*
D56*
X62640000Y-171820000D02*
X63165000Y-171820000D01*
X63165000Y-171820000D02*
X64690000Y-173345000D01*
X64690000Y-173345000D02*
X64690000Y-178295000D01*
X64690000Y-178295000D02*
X64690000Y-178795000D01*
X56690000Y-178795000D02*
X56690000Y-171870000D01*
X56690000Y-171870000D02*
X56740000Y-171820000D01*
X54408571Y-172076429D02*
X55315000Y-171170000D01*
X55315000Y-171170000D02*
X56740000Y-171170000D01*
X54408571Y-178795000D02*
X54408571Y-172076429D01*
D52*
X103990000Y-161844998D02*
X104640002Y-162495000D01*
X105785736Y-162495000D02*
X106210000Y-162495000D01*
X104640002Y-162495000D02*
X105785736Y-162495000D01*
X99790001Y-169245001D02*
X100090000Y-169545000D01*
X99640013Y-169095013D02*
X99790001Y-169245001D01*
X91975000Y-169750000D02*
X93187111Y-169750000D01*
X93187111Y-169750000D02*
X93842098Y-169095013D01*
X93842098Y-169095013D02*
X99640013Y-169095013D01*
X101690000Y-162169264D02*
X101690000Y-161745000D01*
X101690000Y-162245000D02*
X101690000Y-162169264D01*
X102090013Y-162645013D02*
X101690000Y-162245000D01*
X102090013Y-169245001D02*
X102090013Y-162645013D01*
X102390012Y-169545000D02*
X102090013Y-169245001D01*
X110250000Y-164000000D02*
X110250000Y-163105000D01*
X110250000Y-163105000D02*
X110090000Y-162945000D01*
X92792900Y-140645000D02*
X82490000Y-150947900D01*
X82490000Y-155920736D02*
X82490000Y-156345000D01*
X82490000Y-150947900D02*
X82490000Y-155920736D01*
X94390000Y-140545000D02*
X94290000Y-140645000D01*
X94390000Y-136944999D02*
X94390000Y-140545000D01*
X95690022Y-135644978D02*
X94390000Y-136944999D01*
X100327974Y-135644978D02*
X95690022Y-135644978D01*
X102377998Y-137695002D02*
X100327974Y-135644978D01*
X106587500Y-135333000D02*
X106587500Y-136809504D01*
X105702002Y-137695002D02*
X102377998Y-137695002D01*
X106587500Y-136809504D02*
X105702002Y-137695002D01*
X94290000Y-140645000D02*
X92792900Y-140645000D01*
X85750000Y-164025000D02*
X85750000Y-163105000D01*
X85750000Y-163105000D02*
X85290000Y-162645000D01*
X85290000Y-162645000D02*
X79590000Y-162645000D01*
X79590000Y-162645000D02*
X79490000Y-162745000D01*
X49108030Y-150276056D02*
X49108030Y-150700320D01*
X49108030Y-150700320D02*
X44263350Y-155545000D01*
X44263350Y-155545000D02*
X39690010Y-155545000D01*
X39690010Y-155545000D02*
X34489999Y-160745011D01*
X34489999Y-160745011D02*
X34190000Y-161045010D01*
X35740000Y-165245000D02*
X35740000Y-164293838D01*
X35740000Y-164293838D02*
X35690012Y-164243850D01*
X79189999Y-163644999D02*
X78403783Y-162858783D01*
X85025000Y-164750000D02*
X80995000Y-164750000D01*
X80995000Y-164750000D02*
X79889999Y-163644999D01*
X79889999Y-163644999D02*
X79189999Y-163644999D01*
X78403783Y-162858783D02*
X76603783Y-162858783D01*
X49760570Y-148645013D02*
X49560571Y-148845012D01*
X76603783Y-162858783D02*
X62390013Y-148645013D01*
X62390013Y-148645013D02*
X49760570Y-148645013D01*
X86750000Y-170975000D02*
X86750000Y-172735000D01*
D56*
X86750000Y-172735000D02*
X85883564Y-173601436D01*
X85883564Y-173601436D02*
X83033036Y-173601436D01*
X55740000Y-170520000D02*
X56740000Y-170520000D01*
X53440000Y-179295000D02*
X53440000Y-172295000D01*
X53440000Y-172295000D02*
X55215000Y-170520000D01*
X53690000Y-179545000D02*
X53440000Y-179295000D01*
X59239976Y-181469974D02*
X57315002Y-179545000D01*
X75164498Y-181469974D02*
X59239976Y-181469974D01*
X83033036Y-173601436D02*
X75164498Y-181469974D01*
X57315002Y-179545000D02*
X53690000Y-179545000D01*
X55215000Y-170520000D02*
X55740000Y-170520000D01*
D52*
X62640000Y-171170000D02*
X63852996Y-171170000D01*
X63852996Y-171170000D02*
X65710000Y-173027004D01*
X68710000Y-177495000D02*
X76710000Y-177495000D01*
X65710000Y-173027004D02*
X65710000Y-174495000D01*
X65710000Y-174495000D02*
X68710000Y-177495000D01*
X76710000Y-177495000D02*
X78964215Y-175240785D01*
X78710000Y-175495000D02*
X78964215Y-175240785D01*
X78964215Y-175240785D02*
X78964215Y-175070010D01*
X82038193Y-175268045D02*
X82038193Y-175550889D01*
X83229791Y-174076447D02*
X82038193Y-175268045D01*
X86080319Y-174076447D02*
X83229791Y-174076447D01*
X87250000Y-170975000D02*
X87250000Y-172906766D01*
X87250000Y-172906766D02*
X86080319Y-174076447D01*
D51*
X37440000Y-170545000D02*
X40493600Y-170545000D01*
X40493600Y-170545000D02*
X40690000Y-170348600D01*
X40690000Y-170348600D02*
X40690000Y-169085000D01*
X37640000Y-167845000D02*
X37640000Y-170345000D01*
X37640000Y-170345000D02*
X37440000Y-170545000D01*
D54*
X109000000Y-147750000D02*
X107000000Y-147750000D01*
X107250000Y-144000000D02*
X107250000Y-146000000D01*
X107250000Y-146000000D02*
X107000000Y-146250000D01*
X105952500Y-140667000D02*
X105952500Y-142727500D01*
X105952500Y-142727500D02*
X107225000Y-144000000D01*
X107225000Y-144000000D02*
X107250000Y-144000000D01*
X108608998Y-144000000D02*
X108750000Y-144000000D01*
X106587500Y-141978502D02*
X108608998Y-144000000D01*
X106587500Y-140667000D02*
X106587500Y-141978502D01*
D52*
X111000000Y-144750000D02*
X111200000Y-144750000D01*
X111200000Y-144750000D02*
X112700000Y-143250000D01*
X112700000Y-143250000D02*
X113000000Y-143250000D01*
D54*
X111000000Y-146250000D02*
X111000000Y-144750000D01*
X109000000Y-146250000D02*
X111000000Y-146250000D01*
X108750000Y-144000000D02*
X108750000Y-146000000D01*
X108750000Y-146000000D02*
X109000000Y-146250000D01*
D52*
X113000000Y-144750000D02*
X113000000Y-146250000D01*
D55*
X105600000Y-131250000D02*
X105600000Y-133700000D01*
X105600000Y-133700000D02*
X105505000Y-133795000D01*
X105505000Y-133795000D02*
X105172000Y-133795000D01*
D60*
X104682500Y-135333000D02*
X104682500Y-134284500D01*
X104682500Y-134284500D02*
X105172000Y-133795000D01*
D55*
X103400000Y-131250000D02*
X103400000Y-133700000D01*
X103400000Y-133700000D02*
X103495000Y-133795000D01*
X103495000Y-133795000D02*
X103558000Y-133795000D01*
D60*
X104047500Y-135333000D02*
X104047500Y-134284500D01*
X104047500Y-134284500D02*
X103558000Y-133795000D01*
D52*
X77690000Y-137545000D02*
X73440000Y-137545000D01*
X87289999Y-161944993D02*
X86990000Y-161644994D01*
X87750000Y-162404994D02*
X87289999Y-161944993D01*
X87750000Y-164025000D02*
X87750000Y-162404994D01*
X100190000Y-139045000D02*
X97990011Y-136845011D01*
X97990011Y-136845011D02*
X96187089Y-136845011D01*
X96187089Y-136845011D02*
X95590033Y-137442066D01*
X95590033Y-141042067D02*
X94787067Y-141845033D01*
X94787067Y-141845033D02*
X93289967Y-141845033D01*
X93289967Y-141845033D02*
X86955674Y-148179326D01*
X95590033Y-137442066D02*
X95590033Y-141042067D01*
X86955674Y-148179326D02*
X86955674Y-156920725D01*
X86955674Y-156920725D02*
X86955674Y-157344989D01*
D54*
X102789000Y-139045000D02*
X100190000Y-139045000D01*
X103412500Y-140667000D02*
X103412500Y-139668500D01*
X103412500Y-139668500D02*
X102789000Y-139045000D01*
D52*
X81112665Y-158670879D02*
X81638546Y-158144998D01*
X81638546Y-158144998D02*
X94890001Y-158144998D01*
X94890001Y-158144998D02*
X96210000Y-156824999D01*
X96210000Y-156824999D02*
X96210000Y-155495000D01*
X96210000Y-155495000D02*
X98020000Y-153685000D01*
X98020000Y-153685000D02*
X98160000Y-153685000D01*
X78390009Y-163881557D02*
X78390009Y-163758783D01*
X80258452Y-165750000D02*
X78390009Y-163881557D01*
X78390009Y-163758783D02*
X78090010Y-163458784D01*
X85025000Y-165750000D02*
X80258452Y-165750000D01*
X81843706Y-171145002D02*
X76338439Y-165639735D01*
X83504998Y-171145002D02*
X81843706Y-171145002D01*
X84400000Y-170250000D02*
X83504998Y-171145002D01*
X85025000Y-170250000D02*
X84400000Y-170250000D01*
X76338439Y-165639735D02*
X76338439Y-165418401D01*
X76338439Y-165418401D02*
X76338439Y-164994137D01*
X80787600Y-156065000D02*
X79209233Y-157643367D01*
X79209233Y-157643367D02*
X79209233Y-157711523D01*
X80940000Y-156065000D02*
X80787600Y-156065000D01*
X85750000Y-170975000D02*
X85410000Y-170975000D01*
X75710000Y-164095000D02*
X75501375Y-163886375D01*
X85410000Y-170975000D02*
X84785000Y-171600000D01*
X75501375Y-163886375D02*
X75482042Y-163886375D01*
X84785000Y-171600000D02*
X81733004Y-171600000D01*
X81733004Y-171600000D02*
X75710000Y-165576996D01*
X75710000Y-165576996D02*
X75710000Y-164095000D01*
X80440000Y-153250000D02*
X78409495Y-155280505D01*
X78409495Y-157308181D02*
X78409495Y-157732445D01*
X78409495Y-155280505D02*
X78409495Y-157308181D01*
X60150000Y-129500000D02*
X70539989Y-139889989D01*
X70539989Y-139889989D02*
X70539989Y-149144989D01*
X70539989Y-149144989D02*
X74645000Y-153250000D01*
X74645000Y-153250000D02*
X80440000Y-153250000D01*
X80440000Y-153250000D02*
X80440000Y-148795000D01*
X80440000Y-148795000D02*
X91690000Y-137545000D01*
X100190000Y-175545000D02*
X100190000Y-182295000D01*
X101600000Y-183705000D02*
X101600000Y-185420000D01*
X100190000Y-182295000D02*
X101600000Y-183705000D01*
X83484107Y-169104868D02*
X83215888Y-169104868D01*
X85025000Y-168750000D02*
X83838975Y-168750000D01*
X83838975Y-168750000D02*
X83484107Y-169104868D01*
X98440021Y-169795021D02*
X95384748Y-169795021D01*
X100190000Y-172545000D02*
X100190000Y-171545000D01*
X100190000Y-171545000D02*
X98440021Y-169795021D01*
X95384748Y-169795021D02*
X94960484Y-169795021D01*
X83485000Y-168250000D02*
X83440000Y-168295000D01*
X85025000Y-168250000D02*
X83485000Y-168250000D01*
X94111236Y-170119287D02*
X94111236Y-169695023D01*
X99190000Y-171295000D02*
X98290022Y-170395022D01*
X98290022Y-170395022D02*
X94386971Y-170395022D01*
X94386971Y-170395022D02*
X94111236Y-170119287D01*
X99190000Y-172870736D02*
X99190000Y-173295000D01*
X99190000Y-171295000D02*
X99190000Y-172870736D01*
X99190000Y-185290000D02*
X99190000Y-175795000D01*
X99190000Y-171295000D02*
X99190000Y-173295000D01*
X99060000Y-185420000D02*
X99190000Y-185290000D01*
D54*
X111350010Y-162884990D02*
X111350010Y-163056756D01*
X111350010Y-163056756D02*
X111250000Y-163156766D01*
D61*
X111750000Y-162295000D02*
X111750000Y-162485000D01*
X111750000Y-162485000D02*
X111350010Y-162884990D01*
D56*
X111250000Y-164000000D02*
X111250000Y-163156766D01*
D55*
X113775000Y-160270000D02*
X111750000Y-162295000D01*
X113465000Y-158545000D02*
X113465000Y-160270000D01*
D52*
X113465000Y-159770000D02*
X113465000Y-158545000D01*
D56*
X58500000Y-153150000D02*
X58335000Y-153150000D01*
X58335000Y-153150000D02*
X56940000Y-154545000D01*
X58420000Y-157480000D02*
X58420000Y-159905000D01*
X61000000Y-153150000D02*
X61200000Y-153150000D01*
X61295000Y-153150000D02*
X61295000Y-153399992D01*
X61295000Y-153399992D02*
X62140001Y-154244993D01*
X62140001Y-154244993D02*
X62440000Y-154544992D01*
X61200000Y-153150000D02*
X62440000Y-154390000D01*
X62440000Y-154390000D02*
X62440000Y-154544992D01*
X60960000Y-157480000D02*
X60960000Y-159905000D01*
D52*
X89750000Y-164025000D02*
X89750000Y-162289300D01*
X77939954Y-160544954D02*
X63989999Y-146594999D01*
X63989999Y-146594999D02*
X63690000Y-146295000D01*
X89750000Y-162289300D02*
X88080007Y-160619307D01*
X81232492Y-160544954D02*
X77939954Y-160544954D01*
X81306845Y-160619307D02*
X81232492Y-160544954D01*
X88080007Y-160619307D02*
X81306845Y-160619307D01*
X89250000Y-162916998D02*
X87352320Y-161019318D01*
X87352320Y-161019318D02*
X81141156Y-161019318D01*
X89250000Y-164025000D02*
X89250000Y-162916998D01*
X81066803Y-160944965D02*
X77387065Y-160944965D01*
X81141156Y-161019318D02*
X81066803Y-160944965D01*
X77387065Y-160944965D02*
X63037099Y-146594999D01*
X62989999Y-146594999D02*
X62690000Y-146295000D01*
X63037099Y-146594999D02*
X62989999Y-146594999D01*
X68790000Y-131445000D02*
X68890000Y-131545000D01*
X68890000Y-131545000D02*
X69190000Y-131545000D01*
X78490000Y-136345000D02*
X83940000Y-141795000D01*
X69190000Y-131545000D02*
X73990000Y-136345000D01*
X73990000Y-136345000D02*
X78490000Y-136345000D01*
X83940000Y-141795000D02*
X84190000Y-142045000D01*
X88990000Y-147245000D02*
X90690000Y-145545000D01*
X90690000Y-145545000D02*
X91690000Y-145545000D01*
X88990000Y-155105000D02*
X88990000Y-147245000D01*
X94090001Y-143645007D02*
X94390000Y-143345008D01*
X91690000Y-145545000D02*
X92190008Y-145545000D01*
X92190008Y-145545000D02*
X94090001Y-143645007D01*
D51*
X95117602Y-142451107D02*
X95240002Y-142573507D01*
X95240002Y-142573507D02*
X95240002Y-146040002D01*
X96345000Y-153360000D02*
X96210000Y-153495000D01*
X94090000Y-155845000D02*
X92045000Y-155845000D01*
X92045000Y-155845000D02*
X91285000Y-156605000D01*
X95240002Y-146040002D02*
X96345000Y-147145000D01*
X96345000Y-147145000D02*
X96345000Y-153360000D01*
X96210000Y-153495000D02*
X96210000Y-153725000D01*
X96210000Y-153725000D02*
X94090000Y-155845000D01*
X91285000Y-156605000D02*
X91085000Y-156605000D01*
X91085000Y-156605000D02*
X88990000Y-156605000D01*
X85640001Y-142294989D02*
X85940000Y-141994990D01*
X77690000Y-151545000D02*
X77690000Y-150244990D01*
X77690000Y-150244990D02*
X85640001Y-142294989D01*
X65230000Y-129500000D02*
X65230000Y-130335000D01*
X65230000Y-130335000D02*
X71940000Y-137045000D01*
X71940000Y-137045000D02*
X71940000Y-137545000D01*
X71940000Y-137545000D02*
X71940000Y-141545000D01*
X77690000Y-151545000D02*
X71940000Y-145795000D01*
X71940000Y-145795000D02*
X71940000Y-141545000D01*
D52*
X67770000Y-129500000D02*
X67770000Y-131625000D01*
X67770000Y-131625000D02*
X72690000Y-136545000D01*
X72690000Y-136545000D02*
X72690000Y-140145000D01*
X72690000Y-140145000D02*
X73440000Y-140895000D01*
X73440000Y-140895000D02*
X73440000Y-141545000D01*
X77690000Y-141545000D02*
X73440000Y-141545000D01*
X93090000Y-155095000D02*
X92890000Y-155095000D01*
X92890000Y-155095000D02*
X90090000Y-152295000D01*
X90090000Y-152295000D02*
X90090000Y-150045000D01*
X90090000Y-150045000D02*
X90590000Y-149545000D01*
X90590000Y-149545000D02*
X91690000Y-149545000D01*
X91085000Y-155105000D02*
X91085000Y-154655000D01*
X91085000Y-154655000D02*
X89590000Y-153160000D01*
X89590000Y-153160000D02*
X89590000Y-148345000D01*
X89590000Y-148345000D02*
X90390000Y-147545000D01*
X90390000Y-147545000D02*
X91690000Y-147545000D01*
D56*
X80189999Y-173644999D02*
X75859999Y-173644999D01*
X75859999Y-173644999D02*
X70600000Y-168385000D01*
X70600000Y-168385000D02*
X70340000Y-168385000D01*
D52*
X83890380Y-174759375D02*
X83466116Y-174759375D01*
X87750000Y-173109264D02*
X86099889Y-174759375D01*
X87750000Y-170975000D02*
X87750000Y-173109264D01*
X86099889Y-174759375D02*
X83890380Y-174759375D01*
X80189999Y-173644999D02*
X80489998Y-173944998D01*
D56*
X79090000Y-174445000D02*
X71895000Y-174445000D01*
X71895000Y-174445000D02*
X70915000Y-173465000D01*
X70915000Y-173465000D02*
X70340000Y-173465000D01*
D52*
X79090000Y-174445000D02*
X79790000Y-174445000D01*
X83167040Y-175662390D02*
X82867041Y-175362391D01*
X85872610Y-175662390D02*
X83167040Y-175662390D01*
X88250000Y-173285000D02*
X85872610Y-175662390D01*
X88250000Y-170975000D02*
X88250000Y-173285000D01*
D56*
X58190000Y-183545000D02*
X59640000Y-184995000D01*
X59640000Y-184995000D02*
X74210000Y-184995000D01*
X43190000Y-167210000D02*
X43190000Y-167495000D01*
X43190000Y-167495000D02*
X43190000Y-175045000D01*
X43190000Y-166780000D02*
X43190000Y-167495000D01*
X46040000Y-164505000D02*
X45465000Y-164505000D01*
X45465000Y-164505000D02*
X43190000Y-166780000D01*
X84190000Y-184920736D02*
X84190000Y-185345000D01*
X84190000Y-183244004D02*
X84190000Y-184920736D01*
X86714002Y-180720002D02*
X84190000Y-183244004D01*
X86714002Y-180720002D02*
X86714002Y-180720998D01*
X90250000Y-177184004D02*
X90250000Y-171488334D01*
X86714002Y-180720002D02*
X90250000Y-177184004D01*
D52*
X90250000Y-170975000D02*
X90250000Y-171488334D01*
D56*
X52826518Y-184595748D02*
X53250782Y-184595748D01*
X43190000Y-180452122D02*
X47333626Y-184595748D01*
X43190000Y-177045000D02*
X43190000Y-180452122D01*
X47333626Y-184595748D02*
X52826518Y-184595748D01*
X44190000Y-177045000D02*
X44190000Y-180745000D01*
X44190000Y-180745000D02*
X47365738Y-183920738D01*
X47365738Y-183920738D02*
X54135738Y-183920738D01*
X54135738Y-183920738D02*
X54490000Y-184275000D01*
X54490000Y-184275000D02*
X54490000Y-184345002D01*
X58552867Y-184791765D02*
X58252868Y-184491766D01*
X59756102Y-185995000D02*
X58552867Y-184791765D01*
X74210000Y-185995000D02*
X59756102Y-185995000D01*
X44190000Y-172495000D02*
X44190000Y-175045000D01*
X46040000Y-169585000D02*
X46040000Y-169870000D01*
X46040000Y-169870000D02*
X44190000Y-171720000D01*
X44190000Y-171720000D02*
X44190000Y-172495000D01*
X85190000Y-184920736D02*
X85190000Y-185345000D01*
X85190000Y-182979237D02*
X85190000Y-184920736D01*
X90750010Y-177419227D02*
X85190000Y-182979237D01*
X90750010Y-171488344D02*
X90750010Y-177419227D01*
D52*
X90750000Y-171488334D02*
X90750010Y-171488344D01*
X90750000Y-170975000D02*
X90750000Y-171488334D01*
X80940000Y-154795000D02*
X80940000Y-152795000D01*
X80940000Y-152795000D02*
X81190000Y-152545000D01*
X62690000Y-129500000D02*
X70940000Y-137750000D01*
X70940000Y-137750000D02*
X70940000Y-148795000D01*
X70940000Y-148795000D02*
X74940000Y-152795000D01*
X74940000Y-152795000D02*
X79440000Y-152795000D01*
X79440000Y-152795000D02*
X79690000Y-152545000D01*
X81489999Y-152245001D02*
X81489999Y-152000000D01*
X81489999Y-152000000D02*
X81489999Y-149745001D01*
X91690000Y-139545000D02*
X82235000Y-149000000D01*
X82235000Y-149000000D02*
X82000000Y-149235000D01*
X81190000Y-152545000D02*
X81489999Y-152245001D01*
X81489999Y-149745001D02*
X82235000Y-149000000D01*
X48260000Y-142240000D02*
X48260000Y-144490000D01*
X48260000Y-144490000D02*
X48000000Y-144750000D01*
X45720000Y-142240000D02*
X45720000Y-144530000D01*
X45720000Y-144530000D02*
X45500000Y-144750000D01*
X73690000Y-183045006D02*
X74739994Y-184095000D01*
X74739994Y-184095000D02*
X75710000Y-184095000D01*
X81140003Y-174257003D02*
X75952006Y-179445000D01*
X81140003Y-171995005D02*
X81140003Y-174257003D01*
X76589998Y-167445000D02*
X81140003Y-171995005D01*
X74989996Y-179445000D02*
X74689995Y-179745001D01*
X74689995Y-179745001D02*
X74389996Y-180045000D01*
X75952006Y-179445000D02*
X74989996Y-179445000D01*
X85025000Y-165250000D02*
X80646456Y-165250000D01*
X80646456Y-165250000D02*
X79965727Y-164569271D01*
X79965727Y-164569271D02*
X79665728Y-164269272D01*
D62*
X106690000Y-174645000D02*
X111890000Y-174645000D01*
X111890000Y-174645000D02*
X113790000Y-174645000D01*
D52*
X111780000Y-173845000D02*
X111780000Y-174535000D01*
X111780000Y-174535000D02*
X111890000Y-174645000D01*
X113050000Y-173845000D02*
X113050000Y-174095000D01*
X113050000Y-174095000D02*
X113600000Y-174645000D01*
X113600000Y-174645000D02*
X113790000Y-174645000D01*
X114330000Y-173845000D02*
X114330000Y-174105000D01*
X114330000Y-174105000D02*
X113790000Y-174645000D01*
D62*
X113689999Y-175844999D02*
X113790000Y-175744998D01*
X113790000Y-175744998D02*
X113790000Y-174645000D01*
X106690000Y-174645000D02*
X107889999Y-175844999D01*
X107889999Y-175844999D02*
X113689999Y-175844999D01*
D51*
X69390000Y-176085000D02*
X69390000Y-172759998D01*
X69390000Y-172759998D02*
X70710000Y-171439998D01*
X70710000Y-171439998D02*
X70710000Y-170579998D01*
X70710000Y-170579998D02*
X69525002Y-169395000D01*
X68440000Y-168670000D02*
X68440000Y-168385000D01*
X69525002Y-169395000D02*
X69165000Y-169395000D01*
X69165000Y-169395000D02*
X68440000Y-168670000D01*
X68580000Y-161405000D02*
X68580000Y-168245000D01*
X68580000Y-168245000D02*
X68440000Y-168385000D01*
X46990000Y-166965000D02*
X47240000Y-166965000D01*
X47240000Y-166965000D02*
X48210000Y-165995000D01*
X48210000Y-165995000D02*
X48210000Y-164775000D01*
X48210000Y-164775000D02*
X47940000Y-164505000D01*
X47940000Y-164505000D02*
X47940000Y-164065000D01*
X47940000Y-164065000D02*
X50600000Y-161405000D01*
X50600000Y-161405000D02*
X50800000Y-161405000D01*
D63*
G36*
X100648750Y-144623000D02*
X101373000Y-144623000D01*
X101373000Y-144603000D01*
X101627000Y-144603000D01*
X101627000Y-144623000D01*
X101647000Y-144623000D01*
X101647000Y-144877000D01*
X101627000Y-144877000D01*
X101627000Y-145626250D01*
X101785750Y-145785000D01*
X102001310Y-145785000D01*
X102234699Y-145688327D01*
X102413327Y-145509698D01*
X102490000Y-145324593D01*
X102490000Y-145422002D01*
X102648748Y-145422002D01*
X102490000Y-145580750D01*
X102490000Y-145821309D01*
X102586673Y-146054698D01*
X102765301Y-146233327D01*
X102998690Y-146330000D01*
X103214250Y-146330000D01*
X103373000Y-146171250D01*
X103373000Y-145422000D01*
X103353000Y-145422000D01*
X103353000Y-145168000D01*
X103373000Y-145168000D01*
X103373000Y-145148000D01*
X103577758Y-145148000D01*
X103627000Y-145157795D01*
X103627000Y-145168000D01*
X103647000Y-145168000D01*
X103647000Y-145422000D01*
X103627000Y-145422000D01*
X103627000Y-146171250D01*
X103785750Y-146330000D01*
X103805000Y-146330000D01*
X103805000Y-146918000D01*
X101135290Y-146918000D01*
X100002003Y-145784713D01*
X100234699Y-145688327D01*
X100413327Y-145509698D01*
X100500000Y-145300451D01*
X100586673Y-145509698D01*
X100765301Y-145688327D01*
X100998690Y-145785000D01*
X101214250Y-145785000D01*
X101373000Y-145626250D01*
X101373000Y-144877000D01*
X100648750Y-144877000D01*
X100500000Y-145025750D01*
X100351250Y-144877000D01*
X99627000Y-144877000D01*
X99627000Y-144897000D01*
X99373000Y-144897000D01*
X99373000Y-144877000D01*
X99353000Y-144877000D01*
X99353000Y-144623000D01*
X99373000Y-144623000D01*
X99373000Y-144603000D01*
X99627000Y-144603000D01*
X99627000Y-144623000D01*
X100351250Y-144623000D01*
X100500000Y-144474250D01*
X100648750Y-144623000D01*
X100648750Y-144623000D01*
G37*
X100648750Y-144623000D02*
X101373000Y-144623000D01*
X101373000Y-144603000D01*
X101627000Y-144603000D01*
X101627000Y-144623000D01*
X101647000Y-144623000D01*
X101647000Y-144877000D01*
X101627000Y-144877000D01*
X101627000Y-145626250D01*
X101785750Y-145785000D01*
X102001310Y-145785000D01*
X102234699Y-145688327D01*
X102413327Y-145509698D01*
X102490000Y-145324593D01*
X102490000Y-145422002D01*
X102648748Y-145422002D01*
X102490000Y-145580750D01*
X102490000Y-145821309D01*
X102586673Y-146054698D01*
X102765301Y-146233327D01*
X102998690Y-146330000D01*
X103214250Y-146330000D01*
X103373000Y-146171250D01*
X103373000Y-145422000D01*
X103353000Y-145422000D01*
X103353000Y-145168000D01*
X103373000Y-145168000D01*
X103373000Y-145148000D01*
X103577758Y-145148000D01*
X103627000Y-145157795D01*
X103627000Y-145168000D01*
X103647000Y-145168000D01*
X103647000Y-145422000D01*
X103627000Y-145422000D01*
X103627000Y-146171250D01*
X103785750Y-146330000D01*
X103805000Y-146330000D01*
X103805000Y-146918000D01*
X101135290Y-146918000D01*
X100002003Y-145784713D01*
X100234699Y-145688327D01*
X100413327Y-145509698D01*
X100500000Y-145300451D01*
X100586673Y-145509698D01*
X100765301Y-145688327D01*
X100998690Y-145785000D01*
X101214250Y-145785000D01*
X101373000Y-145626250D01*
X101373000Y-144877000D01*
X100648750Y-144877000D01*
X100500000Y-145025750D01*
X100351250Y-144877000D01*
X99627000Y-144877000D01*
X99627000Y-144897000D01*
X99373000Y-144897000D01*
X99373000Y-144877000D01*
X99353000Y-144877000D01*
X99353000Y-144623000D01*
X99373000Y-144623000D01*
X99373000Y-144603000D01*
X99627000Y-144603000D01*
X99627000Y-144623000D01*
X100351250Y-144623000D01*
X100500000Y-144474250D01*
X100648750Y-144623000D01*
G36*
X108720275Y-141414722D02*
X108958727Y-141574050D01*
X109239999Y-141629999D01*
X110563000Y-141629999D01*
X110563000Y-142365000D01*
X110423690Y-142365000D01*
X110190301Y-142461673D01*
X110011673Y-142640302D01*
X109915000Y-142873691D01*
X109915000Y-142966250D01*
X110073750Y-143125000D01*
X110563000Y-143125000D01*
X110563000Y-143375000D01*
X110073750Y-143375000D01*
X109915000Y-143533750D01*
X109915000Y-143626309D01*
X110011673Y-143859698D01*
X110069975Y-143918000D01*
X109797440Y-143918000D01*
X109797440Y-143625000D01*
X109753162Y-143389683D01*
X109614090Y-143173559D01*
X109401890Y-143028569D01*
X109150000Y-142977560D01*
X108696716Y-142977560D01*
X107666834Y-141947678D01*
X107772699Y-141903827D01*
X107951327Y-141725198D01*
X108048000Y-141491809D01*
X108048000Y-140952750D01*
X107889252Y-140794002D01*
X108048000Y-140794002D01*
X108048000Y-140742447D01*
X108720275Y-141414722D01*
X108720275Y-141414722D01*
G37*
X108720275Y-141414722D02*
X108958727Y-141574050D01*
X109239999Y-141629999D01*
X110563000Y-141629999D01*
X110563000Y-142365000D01*
X110423690Y-142365000D01*
X110190301Y-142461673D01*
X110011673Y-142640302D01*
X109915000Y-142873691D01*
X109915000Y-142966250D01*
X110073750Y-143125000D01*
X110563000Y-143125000D01*
X110563000Y-143375000D01*
X110073750Y-143375000D01*
X109915000Y-143533750D01*
X109915000Y-143626309D01*
X110011673Y-143859698D01*
X110069975Y-143918000D01*
X109797440Y-143918000D01*
X109797440Y-143625000D01*
X109753162Y-143389683D01*
X109614090Y-143173559D01*
X109401890Y-143028569D01*
X109150000Y-142977560D01*
X108696716Y-142977560D01*
X107666834Y-141947678D01*
X107772699Y-141903827D01*
X107951327Y-141725198D01*
X108048000Y-141491809D01*
X108048000Y-140952750D01*
X107889252Y-140794002D01*
X108048000Y-140794002D01*
X108048000Y-140742447D01*
X108720275Y-141414722D01*
G36*
X101952000Y-139842191D02*
X101952000Y-140381250D01*
X102110750Y-140540000D01*
X102574560Y-140540000D01*
X102574560Y-140794000D01*
X102110750Y-140794000D01*
X101952000Y-140952750D01*
X101952000Y-141491809D01*
X102048673Y-141725198D01*
X102118092Y-141794618D01*
X101710150Y-142202560D01*
X101125000Y-142202560D01*
X100889683Y-142246838D01*
X100783756Y-142315000D01*
X100435000Y-142315000D01*
X100435000Y-139847883D01*
X100431443Y-139830000D01*
X101957050Y-139830000D01*
X101952000Y-139842191D01*
X101952000Y-139842191D01*
G37*
X101952000Y-139842191D02*
X101952000Y-140381250D01*
X102110750Y-140540000D01*
X102574560Y-140540000D01*
X102574560Y-140794000D01*
X102110750Y-140794000D01*
X101952000Y-140952750D01*
X101952000Y-141491809D01*
X102048673Y-141725198D01*
X102118092Y-141794618D01*
X101710150Y-142202560D01*
X101125000Y-142202560D01*
X100889683Y-142246838D01*
X100783756Y-142315000D01*
X100435000Y-142315000D01*
X100435000Y-139847883D01*
X100431443Y-139830000D01*
X101957050Y-139830000D01*
X101952000Y-139842191D01*
G36*
X107480561Y-133264581D02*
X109106355Y-135697755D01*
X109302244Y-135893644D01*
X110563000Y-136736054D01*
X110563000Y-137360013D01*
X107076438Y-137360013D01*
X107107223Y-137329228D01*
X107266551Y-137090776D01*
X107277869Y-137033876D01*
X107322500Y-136809504D01*
X107322500Y-136666500D01*
X107349502Y-136666500D01*
X107349502Y-136539502D01*
X107476500Y-136666500D01*
X107539310Y-136666500D01*
X107772699Y-136569827D01*
X107951327Y-136391198D01*
X108048000Y-136157809D01*
X108048000Y-135618750D01*
X107889250Y-135460000D01*
X107425440Y-135460000D01*
X107425440Y-135206000D01*
X107889250Y-135206000D01*
X108048000Y-135047250D01*
X108048000Y-134508191D01*
X107951327Y-134274802D01*
X107772699Y-134096173D01*
X107539310Y-133999500D01*
X107476500Y-133999500D01*
X107317750Y-134158250D01*
X107317750Y-134300638D01*
X107242090Y-134183059D01*
X107029890Y-134038069D01*
X107001274Y-134032274D01*
X106968500Y-133999500D01*
X106905690Y-133999500D01*
X106883933Y-134008512D01*
X106778000Y-133987060D01*
X106677900Y-133987060D01*
X106735000Y-133700000D01*
X106735000Y-133172000D01*
X107442213Y-133172000D01*
X107480561Y-133264581D01*
X107480561Y-133264581D01*
G37*
X107480561Y-133264581D02*
X109106355Y-135697755D01*
X109302244Y-135893644D01*
X110563000Y-136736054D01*
X110563000Y-137360013D01*
X107076438Y-137360013D01*
X107107223Y-137329228D01*
X107266551Y-137090776D01*
X107277869Y-137033876D01*
X107322500Y-136809504D01*
X107322500Y-136666500D01*
X107349502Y-136666500D01*
X107349502Y-136539502D01*
X107476500Y-136666500D01*
X107539310Y-136666500D01*
X107772699Y-136569827D01*
X107951327Y-136391198D01*
X108048000Y-136157809D01*
X108048000Y-135618750D01*
X107889250Y-135460000D01*
X107425440Y-135460000D01*
X107425440Y-135206000D01*
X107889250Y-135206000D01*
X108048000Y-135047250D01*
X108048000Y-134508191D01*
X107951327Y-134274802D01*
X107772699Y-134096173D01*
X107539310Y-133999500D01*
X107476500Y-133999500D01*
X107317750Y-134158250D01*
X107317750Y-134300638D01*
X107242090Y-134183059D01*
X107029890Y-134038069D01*
X107001274Y-134032274D01*
X106968500Y-133999500D01*
X106905690Y-133999500D01*
X106883933Y-134008512D01*
X106778000Y-133987060D01*
X106677900Y-133987060D01*
X106735000Y-133700000D01*
X106735000Y-133172000D01*
X107442213Y-133172000D01*
X107480561Y-133264581D01*
G36*
X102683673Y-136391198D02*
X102862301Y-136569827D01*
X102986111Y-136621111D01*
X103031500Y-136666500D01*
X103094310Y-136666500D01*
X103095000Y-136666214D01*
X103095690Y-136666500D01*
X103158500Y-136666500D01*
X103203889Y-136621111D01*
X103327699Y-136569827D01*
X103405786Y-136491739D01*
X103605110Y-136627931D01*
X103633726Y-136633726D01*
X103666500Y-136666500D01*
X103729310Y-136666500D01*
X103751067Y-136657488D01*
X103857000Y-136678940D01*
X104238000Y-136678940D01*
X104369662Y-136654166D01*
X104492000Y-136678940D01*
X104873000Y-136678940D01*
X104981455Y-136658533D01*
X105000690Y-136666500D01*
X105063500Y-136666500D01*
X105092330Y-136637670D01*
X105108317Y-136634662D01*
X105324441Y-136495590D01*
X105325912Y-136493437D01*
X105402301Y-136569827D01*
X105526111Y-136621111D01*
X105571500Y-136666500D01*
X105634310Y-136666500D01*
X105635000Y-136666214D01*
X105635690Y-136666500D01*
X105691057Y-136666500D01*
X105397556Y-136960002D01*
X102682445Y-136960002D01*
X102338210Y-136615767D01*
X102460690Y-136666500D01*
X102523500Y-136666500D01*
X102682250Y-136507750D01*
X102682250Y-136387763D01*
X102683673Y-136391198D01*
X102683673Y-136391198D01*
G37*
X102683673Y-136391198D02*
X102862301Y-136569827D01*
X102986111Y-136621111D01*
X103031500Y-136666500D01*
X103094310Y-136666500D01*
X103095000Y-136666214D01*
X103095690Y-136666500D01*
X103158500Y-136666500D01*
X103203889Y-136621111D01*
X103327699Y-136569827D01*
X103405786Y-136491739D01*
X103605110Y-136627931D01*
X103633726Y-136633726D01*
X103666500Y-136666500D01*
X103729310Y-136666500D01*
X103751067Y-136657488D01*
X103857000Y-136678940D01*
X104238000Y-136678940D01*
X104369662Y-136654166D01*
X104492000Y-136678940D01*
X104873000Y-136678940D01*
X104981455Y-136658533D01*
X105000690Y-136666500D01*
X105063500Y-136666500D01*
X105092330Y-136637670D01*
X105108317Y-136634662D01*
X105324441Y-136495590D01*
X105325912Y-136493437D01*
X105402301Y-136569827D01*
X105526111Y-136621111D01*
X105571500Y-136666500D01*
X105634310Y-136666500D01*
X105635000Y-136666214D01*
X105635690Y-136666500D01*
X105691057Y-136666500D01*
X105397556Y-136960002D01*
X102682445Y-136960002D01*
X102338210Y-136615767D01*
X102460690Y-136666500D01*
X102523500Y-136666500D01*
X102682250Y-136507750D01*
X102682250Y-136387763D01*
X102683673Y-136391198D01*
G36*
X102265000Y-133700000D02*
X102334936Y-134051589D01*
X102227301Y-134096173D01*
X102048673Y-134274802D01*
X101952000Y-134508191D01*
X101952000Y-135047250D01*
X102110750Y-135206000D01*
X102682250Y-135206000D01*
X102682250Y-135186000D01*
X102725750Y-135186000D01*
X102745750Y-135206000D01*
X102924500Y-135206000D01*
X102924500Y-135460000D01*
X102745750Y-135460000D01*
X102682250Y-135523500D01*
X102682250Y-135460000D01*
X102110750Y-135460000D01*
X101952000Y-135618750D01*
X101952000Y-136157809D01*
X102002734Y-136280291D01*
X100847697Y-135125255D01*
X100817000Y-135104744D01*
X100817000Y-133172000D01*
X102265000Y-133172000D01*
X102265000Y-133700000D01*
X102265000Y-133700000D01*
G37*
X102265000Y-133700000D02*
X102334936Y-134051589D01*
X102227301Y-134096173D01*
X102048673Y-134274802D01*
X101952000Y-134508191D01*
X101952000Y-135047250D01*
X102110750Y-135206000D01*
X102682250Y-135206000D01*
X102682250Y-135186000D01*
X102725750Y-135186000D01*
X102745750Y-135206000D01*
X102924500Y-135206000D01*
X102924500Y-135460000D01*
X102745750Y-135460000D01*
X102682250Y-135523500D01*
X102682250Y-135460000D01*
X102110750Y-135460000D01*
X101952000Y-135618750D01*
X101952000Y-136157809D01*
X102002734Y-136280291D01*
X100847697Y-135125255D01*
X100817000Y-135104744D01*
X100817000Y-133172000D01*
X102265000Y-133172000D01*
X102265000Y-133700000D01*
G36*
X108830775Y-165263084D02*
X108750340Y-165314842D01*
X108630010Y-165490951D01*
X108587676Y-165700000D01*
X108587676Y-166300000D01*
X108624423Y-166495294D01*
X108739842Y-166674660D01*
X108915951Y-166794990D01*
X109078132Y-166827833D01*
X109023000Y-167105000D01*
X109078340Y-167383211D01*
X109235933Y-167619067D01*
X109471789Y-167776660D01*
X109750000Y-167832000D01*
X110892676Y-167832000D01*
X110892676Y-168645000D01*
X110902676Y-168698146D01*
X110902676Y-171918000D01*
X108525000Y-171918000D01*
X108525000Y-171430750D01*
X108366250Y-171272000D01*
X106817000Y-171272000D01*
X106817000Y-171292000D01*
X106563000Y-171292000D01*
X106563000Y-171272000D01*
X105013750Y-171272000D01*
X104943385Y-171342365D01*
X104878327Y-171185302D01*
X104699699Y-171006673D01*
X104636460Y-170980478D01*
X104714660Y-170930158D01*
X104834990Y-170754049D01*
X104855000Y-170655238D01*
X104855000Y-170859250D01*
X105013750Y-171018000D01*
X106563000Y-171018000D01*
X106563000Y-169468750D01*
X106817000Y-169468750D01*
X106817000Y-171018000D01*
X108366250Y-171018000D01*
X108525000Y-170859250D01*
X108525000Y-169818691D01*
X108428327Y-169585302D01*
X108249699Y-169406673D01*
X108016310Y-169310000D01*
X106975750Y-169310000D01*
X106817000Y-169468750D01*
X106563000Y-169468750D01*
X106404250Y-169310000D01*
X105363690Y-169310000D01*
X105130301Y-169406673D01*
X104951673Y-169585302D01*
X104855000Y-169818691D01*
X104855000Y-169926358D01*
X104840577Y-169849706D01*
X104725158Y-169670340D01*
X104549049Y-169550010D01*
X104517000Y-169543520D01*
X104517000Y-169449019D01*
X104535294Y-169445577D01*
X104714660Y-169330158D01*
X104834990Y-169154049D01*
X104877324Y-168945000D01*
X104877324Y-168445000D01*
X104840577Y-168249706D01*
X104725158Y-168070340D01*
X104549049Y-167950010D01*
X104531077Y-167946371D01*
X104535294Y-167945577D01*
X104714660Y-167830158D01*
X104834990Y-167654049D01*
X104877324Y-167445000D01*
X104877324Y-166945000D01*
X104840577Y-166749706D01*
X104725158Y-166570340D01*
X104621915Y-166499797D01*
X105699710Y-165422002D01*
X105838748Y-165422002D01*
X105680000Y-165580750D01*
X105680000Y-165821309D01*
X105776673Y-166054698D01*
X105955301Y-166233327D01*
X106188690Y-166330000D01*
X106404250Y-166330000D01*
X106563000Y-166171250D01*
X106563000Y-165422000D01*
X106817000Y-165422000D01*
X106817000Y-166171250D01*
X106975750Y-166330000D01*
X107191310Y-166330000D01*
X107424699Y-166233327D01*
X107603327Y-166054698D01*
X107700000Y-165821309D01*
X107700000Y-165580750D01*
X107541250Y-165422000D01*
X106817000Y-165422000D01*
X106563000Y-165422000D01*
X106543000Y-165422000D01*
X106543000Y-165172000D01*
X107690000Y-165172000D01*
X107929943Y-165124272D01*
X108083006Y-165021999D01*
X108530001Y-165021999D01*
X108769944Y-164974271D01*
X108801655Y-164953083D01*
X108830775Y-165263084D01*
X108830775Y-165263084D01*
G37*
X108830775Y-165263084D02*
X108750340Y-165314842D01*
X108630010Y-165490951D01*
X108587676Y-165700000D01*
X108587676Y-166300000D01*
X108624423Y-166495294D01*
X108739842Y-166674660D01*
X108915951Y-166794990D01*
X109078132Y-166827833D01*
X109023000Y-167105000D01*
X109078340Y-167383211D01*
X109235933Y-167619067D01*
X109471789Y-167776660D01*
X109750000Y-167832000D01*
X110892676Y-167832000D01*
X110892676Y-168645000D01*
X110902676Y-168698146D01*
X110902676Y-171918000D01*
X108525000Y-171918000D01*
X108525000Y-171430750D01*
X108366250Y-171272000D01*
X106817000Y-171272000D01*
X106817000Y-171292000D01*
X106563000Y-171292000D01*
X106563000Y-171272000D01*
X105013750Y-171272000D01*
X104943385Y-171342365D01*
X104878327Y-171185302D01*
X104699699Y-171006673D01*
X104636460Y-170980478D01*
X104714660Y-170930158D01*
X104834990Y-170754049D01*
X104855000Y-170655238D01*
X104855000Y-170859250D01*
X105013750Y-171018000D01*
X106563000Y-171018000D01*
X106563000Y-169468750D01*
X106817000Y-169468750D01*
X106817000Y-171018000D01*
X108366250Y-171018000D01*
X108525000Y-170859250D01*
X108525000Y-169818691D01*
X108428327Y-169585302D01*
X108249699Y-169406673D01*
X108016310Y-169310000D01*
X106975750Y-169310000D01*
X106817000Y-169468750D01*
X106563000Y-169468750D01*
X106404250Y-169310000D01*
X105363690Y-169310000D01*
X105130301Y-169406673D01*
X104951673Y-169585302D01*
X104855000Y-169818691D01*
X104855000Y-169926358D01*
X104840577Y-169849706D01*
X104725158Y-169670340D01*
X104549049Y-169550010D01*
X104517000Y-169543520D01*
X104517000Y-169449019D01*
X104535294Y-169445577D01*
X104714660Y-169330158D01*
X104834990Y-169154049D01*
X104877324Y-168945000D01*
X104877324Y-168445000D01*
X104840577Y-168249706D01*
X104725158Y-168070340D01*
X104549049Y-167950010D01*
X104531077Y-167946371D01*
X104535294Y-167945577D01*
X104714660Y-167830158D01*
X104834990Y-167654049D01*
X104877324Y-167445000D01*
X104877324Y-166945000D01*
X104840577Y-166749706D01*
X104725158Y-166570340D01*
X104621915Y-166499797D01*
X105699710Y-165422002D01*
X105838748Y-165422002D01*
X105680000Y-165580750D01*
X105680000Y-165821309D01*
X105776673Y-166054698D01*
X105955301Y-166233327D01*
X106188690Y-166330000D01*
X106404250Y-166330000D01*
X106563000Y-166171250D01*
X106563000Y-165422000D01*
X106817000Y-165422000D01*
X106817000Y-166171250D01*
X106975750Y-166330000D01*
X107191310Y-166330000D01*
X107424699Y-166233327D01*
X107603327Y-166054698D01*
X107700000Y-165821309D01*
X107700000Y-165580750D01*
X107541250Y-165422000D01*
X106817000Y-165422000D01*
X106563000Y-165422000D01*
X106543000Y-165422000D01*
X106543000Y-165172000D01*
X107690000Y-165172000D01*
X107929943Y-165124272D01*
X108083006Y-165021999D01*
X108530001Y-165021999D01*
X108769944Y-164974271D01*
X108801655Y-164953083D01*
X108830775Y-165263084D01*
G36*
X104017000Y-171670000D02*
X104037000Y-171670000D01*
X104037000Y-171918000D01*
X103817000Y-171918000D01*
X103817000Y-171648000D01*
X104017000Y-171648000D01*
X104017000Y-171670000D01*
X104017000Y-171670000D01*
G37*
X104017000Y-171670000D02*
X104037000Y-171670000D01*
X104037000Y-171918000D01*
X103817000Y-171918000D01*
X103817000Y-171648000D01*
X104017000Y-171648000D01*
X104017000Y-171670000D01*
G36*
X112663000Y-163795000D02*
X112741176Y-164188016D01*
X112790155Y-164261318D01*
X112814423Y-164390294D01*
X112856418Y-164455556D01*
X112776673Y-164535302D01*
X112680000Y-164768691D01*
X112680000Y-165009250D01*
X112838750Y-165168000D01*
X113563000Y-165168000D01*
X113563000Y-165148000D01*
X113817000Y-165148000D01*
X113817000Y-165168000D01*
X114541250Y-165168000D01*
X114700000Y-165009250D01*
X114700000Y-164822000D01*
X114863000Y-164822000D01*
X114863000Y-165045000D01*
X114883083Y-165145966D01*
X114574150Y-165454900D01*
X114541250Y-165422000D01*
X113817000Y-165422000D01*
X113817000Y-165442000D01*
X113563000Y-165442000D01*
X113563000Y-165422000D01*
X112838750Y-165422000D01*
X112680000Y-165580750D01*
X112680000Y-165821309D01*
X112776673Y-166054698D01*
X112893710Y-166171735D01*
X112805223Y-166260223D01*
X112605226Y-166460220D01*
X112605223Y-166460222D01*
X112517843Y-166547602D01*
X112514048Y-166528521D01*
X112400469Y-166358539D01*
X112412324Y-166300000D01*
X112412324Y-165700000D01*
X112375577Y-165504706D01*
X112260158Y-165325340D01*
X112153165Y-165252235D01*
X112200764Y-165097649D01*
X112166895Y-164738416D01*
X112249660Y-164685158D01*
X112347654Y-164541739D01*
X112389068Y-164514067D01*
X112546661Y-164278211D01*
X112602001Y-164000000D01*
X112602001Y-163772000D01*
X112667575Y-163772000D01*
X112663000Y-163795000D01*
X112663000Y-163795000D01*
G37*
X112663000Y-163795000D02*
X112741176Y-164188016D01*
X112790155Y-164261318D01*
X112814423Y-164390294D01*
X112856418Y-164455556D01*
X112776673Y-164535302D01*
X112680000Y-164768691D01*
X112680000Y-165009250D01*
X112838750Y-165168000D01*
X113563000Y-165168000D01*
X113563000Y-165148000D01*
X113817000Y-165148000D01*
X113817000Y-165168000D01*
X114541250Y-165168000D01*
X114700000Y-165009250D01*
X114700000Y-164822000D01*
X114863000Y-164822000D01*
X114863000Y-165045000D01*
X114883083Y-165145966D01*
X114574150Y-165454900D01*
X114541250Y-165422000D01*
X113817000Y-165422000D01*
X113817000Y-165442000D01*
X113563000Y-165442000D01*
X113563000Y-165422000D01*
X112838750Y-165422000D01*
X112680000Y-165580750D01*
X112680000Y-165821309D01*
X112776673Y-166054698D01*
X112893710Y-166171735D01*
X112805223Y-166260223D01*
X112605226Y-166460220D01*
X112605223Y-166460222D01*
X112517843Y-166547602D01*
X112514048Y-166528521D01*
X112400469Y-166358539D01*
X112412324Y-166300000D01*
X112412324Y-165700000D01*
X112375577Y-165504706D01*
X112260158Y-165325340D01*
X112153165Y-165252235D01*
X112200764Y-165097649D01*
X112166895Y-164738416D01*
X112249660Y-164685158D01*
X112347654Y-164541739D01*
X112389068Y-164514067D01*
X112546661Y-164278211D01*
X112602001Y-164000000D01*
X112602001Y-163772000D01*
X112667575Y-163772000D01*
X112663000Y-163795000D01*
G36*
X111302676Y-161289926D02*
X111023801Y-161568801D01*
X110801176Y-161901984D01*
X110723000Y-162295000D01*
X110747017Y-162415743D01*
X110740274Y-162425834D01*
X110559070Y-162244312D01*
X110255222Y-162118144D01*
X109926221Y-162117857D01*
X109748142Y-162191438D01*
X109666199Y-162068801D01*
X109246182Y-161648784D01*
X109277324Y-161495000D01*
X109277324Y-158172000D01*
X111302676Y-158172000D01*
X111302676Y-161289926D01*
X111302676Y-161289926D01*
G37*
X111302676Y-161289926D02*
X111023801Y-161568801D01*
X110801176Y-161901984D01*
X110723000Y-162295000D01*
X110747017Y-162415743D01*
X110740274Y-162425834D01*
X110559070Y-162244312D01*
X110255222Y-162118144D01*
X109926221Y-162117857D01*
X109748142Y-162191438D01*
X109666199Y-162068801D01*
X109246182Y-161648784D01*
X109277324Y-161495000D01*
X109277324Y-158172000D01*
X111302676Y-158172000D01*
X111302676Y-161289926D01*
M02*
