G04 #@! TF.FileFunction,Legend,Top*
%FSLAX46Y46*%
G04 Gerber Fmt 4.6, Leading zero omitted, Abs format (unit mm)*
G04 Created by KiCad (PCBNEW 4.0.7) date 2018 June 07, Thursday 02:32:14*
%MOMM*%
%LPD*%
G01*
G04 APERTURE LIST*
%ADD10C,0.050000*%
%ADD11C,0.250000*%
%ADD12C,0.300000*%
%ADD13C,0.150000*%
%ADD14C,0.120000*%
%ADD15C,0.127000*%
%ADD16C,0.200000*%
%ADD17C,0.066040*%
%ADD18C,0.152400*%
%ADD19C,0.101600*%
%ADD20C,0.121920*%
%ADD21C,0.182880*%
G04 APERTURE END LIST*
D10*
D11*
X44007619Y-162697380D02*
X44007619Y-163316428D01*
X43626667Y-162983094D01*
X43626667Y-163125952D01*
X43579048Y-163221190D01*
X43531429Y-163268809D01*
X43436190Y-163316428D01*
X43198095Y-163316428D01*
X43102857Y-163268809D01*
X43055238Y-163221190D01*
X43007619Y-163125952D01*
X43007619Y-162840237D01*
X43055238Y-162744999D01*
X43102857Y-162697380D01*
X44007619Y-163602142D02*
X43007619Y-163935475D01*
X44007619Y-164268809D01*
X44007619Y-164506904D02*
X44007619Y-165125952D01*
X43626667Y-164792618D01*
X43626667Y-164935476D01*
X43579048Y-165030714D01*
X43531429Y-165078333D01*
X43436190Y-165125952D01*
X43198095Y-165125952D01*
X43102857Y-165078333D01*
X43055238Y-165030714D01*
X43007619Y-164935476D01*
X43007619Y-164649761D01*
X43055238Y-164554523D01*
X43102857Y-164506904D01*
X44007619Y-166173571D02*
X43007619Y-166506904D01*
X44007619Y-166840238D01*
X43293333Y-167125952D02*
X43293333Y-167602143D01*
X43007619Y-167030714D02*
X44007619Y-167364047D01*
X43007619Y-167697381D01*
X43007619Y-168792619D02*
X43674286Y-168792619D01*
X43483810Y-168792619D02*
X43579048Y-168840238D01*
X43626667Y-168887857D01*
X43674286Y-168983095D01*
X43674286Y-169078334D01*
X43055238Y-169792620D02*
X43007619Y-169697382D01*
X43007619Y-169506905D01*
X43055238Y-169411667D01*
X43150476Y-169364048D01*
X43531429Y-169364048D01*
X43626667Y-169411667D01*
X43674286Y-169506905D01*
X43674286Y-169697382D01*
X43626667Y-169792620D01*
X43531429Y-169840239D01*
X43436190Y-169840239D01*
X43340952Y-169364048D01*
X43674286Y-170697382D02*
X42864762Y-170697382D01*
X42769524Y-170649763D01*
X42721905Y-170602144D01*
X42674286Y-170506905D01*
X42674286Y-170364048D01*
X42721905Y-170268810D01*
X43055238Y-170697382D02*
X43007619Y-170602144D01*
X43007619Y-170411667D01*
X43055238Y-170316429D01*
X43102857Y-170268810D01*
X43198095Y-170221191D01*
X43483810Y-170221191D01*
X43579048Y-170268810D01*
X43626667Y-170316429D01*
X43674286Y-170411667D01*
X43674286Y-170602144D01*
X43626667Y-170697382D01*
X100757619Y-155649762D02*
X99757619Y-155983095D01*
X100757619Y-156316429D01*
X99852857Y-157221191D02*
X99805238Y-157173572D01*
X99757619Y-157030715D01*
X99757619Y-156935477D01*
X99805238Y-156792619D01*
X99900476Y-156697381D01*
X99995714Y-156649762D01*
X100186190Y-156602143D01*
X100329048Y-156602143D01*
X100519524Y-156649762D01*
X100614762Y-156697381D01*
X100710000Y-156792619D01*
X100757619Y-156935477D01*
X100757619Y-157030715D01*
X100710000Y-157173572D01*
X100662381Y-157221191D01*
X99852857Y-158221191D02*
X99805238Y-158173572D01*
X99757619Y-158030715D01*
X99757619Y-157935477D01*
X99805238Y-157792619D01*
X99900476Y-157697381D01*
X99995714Y-157649762D01*
X100186190Y-157602143D01*
X100329048Y-157602143D01*
X100519524Y-157649762D01*
X100614762Y-157697381D01*
X100710000Y-157792619D01*
X100757619Y-157935477D01*
X100757619Y-158030715D01*
X100710000Y-158173572D01*
X100662381Y-158221191D01*
X100757619Y-159316429D02*
X100757619Y-159935477D01*
X100376667Y-159602143D01*
X100376667Y-159745001D01*
X100329048Y-159840239D01*
X100281429Y-159887858D01*
X100186190Y-159935477D01*
X99948095Y-159935477D01*
X99852857Y-159887858D01*
X99805238Y-159840239D01*
X99757619Y-159745001D01*
X99757619Y-159459286D01*
X99805238Y-159364048D01*
X99852857Y-159316429D01*
X100757619Y-160221191D02*
X99757619Y-160554524D01*
X100757619Y-160887858D01*
X100757619Y-161125953D02*
X100757619Y-161745001D01*
X100376667Y-161411667D01*
X100376667Y-161554525D01*
X100329048Y-161649763D01*
X100281429Y-161697382D01*
X100186190Y-161745001D01*
X99948095Y-161745001D01*
X99852857Y-161697382D01*
X99805238Y-161649763D01*
X99757619Y-161554525D01*
X99757619Y-161268810D01*
X99805238Y-161173572D01*
X99852857Y-161125953D01*
X39912380Y-132197381D02*
X39912380Y-131197381D01*
X39912380Y-131578333D02*
X40007618Y-131530714D01*
X40198095Y-131530714D01*
X40293333Y-131578333D01*
X40340952Y-131625952D01*
X40388571Y-131721190D01*
X40388571Y-132006905D01*
X40340952Y-132102143D01*
X40293333Y-132149762D01*
X40198095Y-132197381D01*
X40007618Y-132197381D01*
X39912380Y-132149762D01*
X41245714Y-132197381D02*
X41245714Y-131673571D01*
X41198095Y-131578333D01*
X41102857Y-131530714D01*
X40912380Y-131530714D01*
X40817142Y-131578333D01*
X41245714Y-132149762D02*
X41150476Y-132197381D01*
X40912380Y-132197381D01*
X40817142Y-132149762D01*
X40769523Y-132054524D01*
X40769523Y-131959286D01*
X40817142Y-131864048D01*
X40912380Y-131816429D01*
X41150476Y-131816429D01*
X41245714Y-131768810D01*
X41579047Y-131530714D02*
X41959999Y-131530714D01*
X41721904Y-131197381D02*
X41721904Y-132054524D01*
X41769523Y-132149762D01*
X41864761Y-132197381D01*
X41959999Y-132197381D01*
X42912381Y-131197381D02*
X43245714Y-132197381D01*
X43579048Y-131197381D01*
X44483810Y-132197381D02*
X44150476Y-131721190D01*
X43912381Y-132197381D02*
X43912381Y-131197381D01*
X44293334Y-131197381D01*
X44388572Y-131245000D01*
X44436191Y-131292619D01*
X44483810Y-131387857D01*
X44483810Y-131530714D01*
X44436191Y-131625952D01*
X44388572Y-131673571D01*
X44293334Y-131721190D01*
X43912381Y-131721190D01*
X46150477Y-131197381D02*
X45674286Y-131197381D01*
X45626667Y-131673571D01*
X45674286Y-131625952D01*
X45769524Y-131578333D01*
X46007620Y-131578333D01*
X46102858Y-131625952D01*
X46150477Y-131673571D01*
X46198096Y-131768810D01*
X46198096Y-132006905D01*
X46150477Y-132102143D01*
X46102858Y-132149762D01*
X46007620Y-132197381D01*
X45769524Y-132197381D01*
X45674286Y-132149762D01*
X45626667Y-132102143D01*
X46483810Y-131197381D02*
X46817143Y-132197381D01*
X47150477Y-131197381D01*
X56805236Y-132447381D02*
X56805236Y-131447381D01*
X56805236Y-132399762D02*
X56709998Y-132447381D01*
X56519521Y-132447381D01*
X56424283Y-132399762D01*
X56376664Y-132352143D01*
X56329045Y-132256905D01*
X56329045Y-131971190D01*
X56376664Y-131875952D01*
X56424283Y-131828333D01*
X56519521Y-131780714D01*
X56709998Y-131780714D01*
X56805236Y-131828333D01*
X57138569Y-131780714D02*
X57519521Y-131780714D01*
X57281426Y-131447381D02*
X57281426Y-132304524D01*
X57329045Y-132399762D01*
X57424283Y-132447381D01*
X57519521Y-132447381D01*
X57852855Y-132447381D02*
X57852855Y-131780714D01*
X57852855Y-131971190D02*
X57900474Y-131875952D01*
X57948093Y-131828333D01*
X58043331Y-131780714D01*
X58138570Y-131780714D01*
X59090951Y-131780714D02*
X59471903Y-131780714D01*
X59233808Y-131447381D02*
X59233808Y-132304524D01*
X59281427Y-132399762D01*
X59376665Y-132447381D01*
X59471903Y-132447381D01*
X59709999Y-132447381D02*
X60233809Y-131780714D01*
X59709999Y-131780714D02*
X60233809Y-132447381D01*
X61376666Y-132447381D02*
X61376666Y-131780714D01*
X61376666Y-131971190D02*
X61424285Y-131875952D01*
X61471904Y-131828333D01*
X61567142Y-131780714D01*
X61662381Y-131780714D01*
X61900476Y-132447381D02*
X62424286Y-131780714D01*
X61900476Y-131780714D02*
X62424286Y-132447381D01*
X63471905Y-131780714D02*
X63710000Y-132447381D01*
X63948096Y-131780714D01*
X64757620Y-132399762D02*
X64662382Y-132447381D01*
X64471905Y-132447381D01*
X64376667Y-132399762D01*
X64329048Y-132352143D01*
X64281429Y-132256905D01*
X64281429Y-131971190D01*
X64329048Y-131875952D01*
X64376667Y-131828333D01*
X64471905Y-131780714D01*
X64662382Y-131780714D01*
X64757620Y-131828333D01*
X65614763Y-132399762D02*
X65519525Y-132447381D01*
X65329048Y-132447381D01*
X65233810Y-132399762D01*
X65186191Y-132352143D01*
X65138572Y-132256905D01*
X65138572Y-131971190D01*
X65186191Y-131875952D01*
X65233810Y-131828333D01*
X65329048Y-131780714D01*
X65519525Y-131780714D01*
X65614763Y-131828333D01*
X67233811Y-132399762D02*
X67138573Y-132447381D01*
X66948096Y-132447381D01*
X66852858Y-132399762D01*
X66805239Y-132352143D01*
X66757620Y-132256905D01*
X66757620Y-131971190D01*
X66805239Y-131875952D01*
X66852858Y-131828333D01*
X66948096Y-131780714D01*
X67138573Y-131780714D01*
X67233811Y-131828333D01*
X67519525Y-131780714D02*
X67900477Y-131780714D01*
X67662382Y-131447381D02*
X67662382Y-132304524D01*
X67710001Y-132399762D01*
X67805239Y-132447381D01*
X67900477Y-132447381D01*
X68186192Y-132399762D02*
X68281430Y-132447381D01*
X68471906Y-132447381D01*
X68567145Y-132399762D01*
X68614764Y-132304524D01*
X68614764Y-132256905D01*
X68567145Y-132161667D01*
X68471906Y-132114048D01*
X68329049Y-132114048D01*
X68233811Y-132066429D01*
X68186192Y-131971190D01*
X68186192Y-131923571D01*
X68233811Y-131828333D01*
X68329049Y-131780714D01*
X68471906Y-131780714D01*
X68567145Y-131828333D01*
X70233812Y-131780714D02*
X70233812Y-132590238D01*
X70186193Y-132685476D01*
X70138574Y-132733095D01*
X70043335Y-132780714D01*
X69900478Y-132780714D01*
X69805240Y-132733095D01*
X70233812Y-132399762D02*
X70138574Y-132447381D01*
X69948097Y-132447381D01*
X69852859Y-132399762D01*
X69805240Y-132352143D01*
X69757621Y-132256905D01*
X69757621Y-131971190D01*
X69805240Y-131875952D01*
X69852859Y-131828333D01*
X69948097Y-131780714D01*
X70138574Y-131780714D01*
X70233812Y-131828333D01*
X70710002Y-131780714D02*
X70710002Y-132447381D01*
X70710002Y-131875952D02*
X70757621Y-131828333D01*
X70852859Y-131780714D01*
X70995717Y-131780714D01*
X71090955Y-131828333D01*
X71138574Y-131923571D01*
X71138574Y-132447381D01*
X72043336Y-132447381D02*
X72043336Y-131447381D01*
X72043336Y-132399762D02*
X71948098Y-132447381D01*
X71757621Y-132447381D01*
X71662383Y-132399762D01*
X71614764Y-132352143D01*
X71567145Y-132256905D01*
X71567145Y-131971190D01*
X71614764Y-131875952D01*
X71662383Y-131828333D01*
X71757621Y-131780714D01*
X71948098Y-131780714D01*
X72043336Y-131828333D01*
X88019521Y-186947381D02*
X88019521Y-186280714D01*
X88019521Y-186471190D02*
X88067140Y-186375952D01*
X88114759Y-186328333D01*
X88209997Y-186280714D01*
X88305236Y-186280714D01*
X88590950Y-186899762D02*
X88686188Y-186947381D01*
X88876664Y-186947381D01*
X88971903Y-186899762D01*
X89019522Y-186804524D01*
X89019522Y-186756905D01*
X88971903Y-186661667D01*
X88876664Y-186614048D01*
X88733807Y-186614048D01*
X88638569Y-186566429D01*
X88590950Y-186471190D01*
X88590950Y-186423571D01*
X88638569Y-186328333D01*
X88733807Y-186280714D01*
X88876664Y-186280714D01*
X88971903Y-186328333D01*
X89305236Y-186280714D02*
X89686188Y-186280714D01*
X89448093Y-185947381D02*
X89448093Y-186804524D01*
X89495712Y-186899762D01*
X89590950Y-186947381D01*
X89686188Y-186947381D01*
X90638570Y-186280714D02*
X91019522Y-186280714D01*
X90781427Y-185947381D02*
X90781427Y-186804524D01*
X90829046Y-186899762D01*
X90924284Y-186947381D01*
X91019522Y-186947381D01*
X91305237Y-186899762D02*
X91400475Y-186947381D01*
X91590951Y-186947381D01*
X91686190Y-186899762D01*
X91733809Y-186804524D01*
X91733809Y-186756905D01*
X91686190Y-186661667D01*
X91590951Y-186614048D01*
X91448094Y-186614048D01*
X91352856Y-186566429D01*
X91305237Y-186471190D01*
X91305237Y-186423571D01*
X91352856Y-186328333D01*
X91448094Y-186280714D01*
X91590951Y-186280714D01*
X91686190Y-186328333D01*
X92019523Y-186280714D02*
X92400475Y-186280714D01*
X92162380Y-185947381D02*
X92162380Y-186804524D01*
X92209999Y-186899762D01*
X92305237Y-186947381D01*
X92400475Y-186947381D01*
X93400476Y-185947381D02*
X94019524Y-185947381D01*
X93686190Y-186328333D01*
X93829048Y-186328333D01*
X93924286Y-186375952D01*
X93971905Y-186423571D01*
X94019524Y-186518810D01*
X94019524Y-186756905D01*
X93971905Y-186852143D01*
X93924286Y-186899762D01*
X93829048Y-186947381D01*
X93543333Y-186947381D01*
X93448095Y-186899762D01*
X93400476Y-186852143D01*
X94305238Y-185947381D02*
X94638571Y-186947381D01*
X94971905Y-185947381D01*
X96590953Y-185995000D02*
X96495715Y-185947381D01*
X96352858Y-185947381D01*
X96210000Y-185995000D01*
X96114762Y-186090238D01*
X96067143Y-186185476D01*
X96019524Y-186375952D01*
X96019524Y-186518810D01*
X96067143Y-186709286D01*
X96114762Y-186804524D01*
X96210000Y-186899762D01*
X96352858Y-186947381D01*
X96448096Y-186947381D01*
X96590953Y-186899762D01*
X96638572Y-186852143D01*
X96638572Y-186518810D01*
X96448096Y-186518810D01*
X98448096Y-186280714D02*
X98829048Y-186280714D01*
X98590953Y-185947381D02*
X98590953Y-186804524D01*
X98638572Y-186899762D01*
X98733810Y-186947381D01*
X98829048Y-186947381D01*
X99067144Y-186947381D02*
X99590954Y-186280714D01*
X99067144Y-186280714D02*
X99590954Y-186947381D01*
X100733811Y-186947381D02*
X100733811Y-186280714D01*
X100733811Y-186471190D02*
X100781430Y-186375952D01*
X100829049Y-186328333D01*
X100924287Y-186280714D01*
X101019526Y-186280714D01*
X101257621Y-186947381D02*
X101781431Y-186280714D01*
X101257621Y-186280714D02*
X101781431Y-186947381D01*
X103067145Y-186947381D02*
X102971907Y-186899762D01*
X102924288Y-186804524D01*
X102924288Y-185947381D01*
X103590955Y-186947381D02*
X103495717Y-186899762D01*
X103448098Y-186852143D01*
X103400479Y-186756905D01*
X103400479Y-186471190D01*
X103448098Y-186375952D01*
X103495717Y-186328333D01*
X103590955Y-186280714D01*
X103733813Y-186280714D01*
X103829051Y-186328333D01*
X103876670Y-186375952D01*
X103924289Y-186471190D01*
X103924289Y-186756905D01*
X103876670Y-186852143D01*
X103829051Y-186899762D01*
X103733813Y-186947381D01*
X103590955Y-186947381D01*
X104352860Y-186947381D02*
X104352860Y-186280714D01*
X104352860Y-186471190D02*
X104400479Y-186375952D01*
X104448098Y-186328333D01*
X104543336Y-186280714D01*
X104638575Y-186280714D01*
X105400480Y-186947381D02*
X105400480Y-186423571D01*
X105352861Y-186328333D01*
X105257623Y-186280714D01*
X105067146Y-186280714D01*
X104971908Y-186328333D01*
X105400480Y-186899762D02*
X105305242Y-186947381D01*
X105067146Y-186947381D01*
X104971908Y-186899762D01*
X104924289Y-186804524D01*
X104924289Y-186709286D01*
X104971908Y-186614048D01*
X105067146Y-186566429D01*
X105305242Y-186566429D01*
X105400480Y-186518810D01*
D12*
X76210000Y-136030714D02*
X76281428Y-136102143D01*
X76210000Y-136173571D01*
X76138571Y-136102143D01*
X76210000Y-136030714D01*
X76210000Y-136173571D01*
X110890000Y-175080714D02*
X110961428Y-175152143D01*
X110890000Y-175223571D01*
X110818571Y-175152143D01*
X110890000Y-175080714D01*
X110890000Y-175223571D01*
X63210000Y-173030714D02*
X63281428Y-173102143D01*
X63210000Y-173173571D01*
X63138571Y-173102143D01*
X63210000Y-173030714D01*
X63210000Y-173173571D01*
X108210000Y-136030714D02*
X108281428Y-136102143D01*
X108210000Y-136173571D01*
X108138571Y-136102143D01*
X108210000Y-136030714D01*
X108210000Y-136173571D01*
X112710000Y-163530714D02*
X112781428Y-163602143D01*
X112710000Y-163673571D01*
X112638571Y-163602143D01*
X112710000Y-163530714D01*
X112710000Y-163673571D01*
D13*
X80365000Y-181045000D02*
X80365000Y-182045000D01*
X79015000Y-182045000D02*
X79015000Y-181045000D01*
X114290000Y-164195000D02*
X114290000Y-164895000D01*
X113090000Y-164895000D02*
X113090000Y-164195000D01*
X37040000Y-163145000D02*
X36340000Y-163145000D01*
X36340000Y-161945000D02*
X37040000Y-161945000D01*
X104100000Y-144195000D02*
X104100000Y-144895000D01*
X102900000Y-144895000D02*
X102900000Y-144195000D01*
X37040000Y-171145000D02*
X36340000Y-171145000D01*
X36340000Y-169945000D02*
X37040000Y-169945000D01*
X107290000Y-164195000D02*
X107290000Y-164895000D01*
X106090000Y-164895000D02*
X106090000Y-164195000D01*
X100100000Y-143650000D02*
X100100000Y-144350000D01*
X98900000Y-144350000D02*
X98900000Y-143650000D01*
X102100000Y-143650000D02*
X102100000Y-144350000D01*
X100900000Y-144350000D02*
X100900000Y-143650000D01*
X94400000Y-162350000D02*
X94400000Y-161650000D01*
X95600000Y-161650000D02*
X95600000Y-162350000D01*
X97900000Y-164400000D02*
X98600000Y-164400000D01*
X98600000Y-165600000D02*
X97900000Y-165600000D01*
X97900000Y-166400000D02*
X98600000Y-166400000D01*
X98600000Y-167600000D02*
X97900000Y-167600000D01*
X95850000Y-173645000D02*
X95150000Y-173645000D01*
X95150000Y-172445000D02*
X95850000Y-172445000D01*
X95850000Y-171895000D02*
X95150000Y-171895000D01*
X95150000Y-170695000D02*
X95850000Y-170695000D01*
X82290000Y-184695000D02*
X82290000Y-185395000D01*
X81090000Y-185395000D02*
X81090000Y-184695000D01*
X80290000Y-184695000D02*
X80290000Y-185395000D01*
X79090000Y-185395000D02*
X79090000Y-184695000D01*
X111900000Y-152650000D02*
X112600000Y-152650000D01*
X112600000Y-153850000D02*
X111900000Y-153850000D01*
X60040000Y-155540000D02*
X59340000Y-155540000D01*
X59340000Y-154340000D02*
X60040000Y-154340000D01*
X64100000Y-160305000D02*
X64100000Y-161005000D01*
X62900000Y-161005000D02*
X62900000Y-160305000D01*
X56480000Y-160305000D02*
X56480000Y-161005000D01*
X55280000Y-161005000D02*
X55280000Y-160305000D01*
X59340000Y-164500000D02*
X60040000Y-164500000D01*
X60040000Y-165700000D02*
X59340000Y-165700000D01*
X59340000Y-175945000D02*
X60040000Y-175945000D01*
X60040000Y-177145000D02*
X59340000Y-177145000D01*
X52040000Y-175145000D02*
X51340000Y-175145000D01*
X51340000Y-173945000D02*
X52040000Y-173945000D01*
X51340000Y-171945000D02*
X52040000Y-171945000D01*
X52040000Y-173145000D02*
X51340000Y-173145000D01*
X51340000Y-169945000D02*
X52040000Y-169945000D01*
X52040000Y-171145000D02*
X51340000Y-171145000D01*
X51340000Y-167945000D02*
X52040000Y-167945000D01*
X52040000Y-169145000D02*
X51340000Y-169145000D01*
X101480000Y-158480000D02*
X101480000Y-155940000D01*
X101200000Y-161300000D02*
X101200000Y-159750000D01*
X101480000Y-158480000D02*
X104020000Y-158480000D01*
X104300000Y-159750000D02*
X104300000Y-161300000D01*
X104300000Y-161300000D02*
X101200000Y-161300000D01*
X104020000Y-158480000D02*
X104020000Y-155940000D01*
X104020000Y-155940000D02*
X101480000Y-155940000D01*
D14*
X39820000Y-128215000D02*
X39820000Y-130875000D01*
X44960000Y-128215000D02*
X39820000Y-128215000D01*
X44960000Y-130875000D02*
X39820000Y-130875000D01*
X44960000Y-128215000D02*
X44960000Y-130875000D01*
X46230000Y-128215000D02*
X47560000Y-128215000D01*
X47560000Y-128215000D02*
X47560000Y-129545000D01*
D15*
X96865000Y-162365000D02*
X99659000Y-162365000D01*
X99659000Y-162365000D02*
X99659000Y-163635000D01*
X99659000Y-163635000D02*
X96865000Y-163635000D01*
X96865000Y-163635000D02*
X96865000Y-162365000D01*
D14*
X100330000Y-183340000D02*
X97730000Y-183340000D01*
X97730000Y-183340000D02*
X97730000Y-186000000D01*
X97730000Y-186000000D02*
X100330000Y-186000000D01*
X100330000Y-186000000D02*
X100330000Y-183340000D01*
X101600000Y-183340000D02*
X102930000Y-183340000D01*
X102930000Y-183340000D02*
X102930000Y-184670000D01*
X90170000Y-186000000D02*
X92770000Y-186000000D01*
X92770000Y-186000000D02*
X92770000Y-183340000D01*
X92770000Y-183340000D02*
X90170000Y-183340000D01*
X90170000Y-183340000D02*
X90170000Y-186000000D01*
X88900000Y-186000000D02*
X87570000Y-186000000D01*
X87570000Y-186000000D02*
X87570000Y-184670000D01*
D13*
X104565000Y-167445000D02*
X104565000Y-168445000D01*
X103215000Y-168445000D02*
X103215000Y-167445000D01*
X104565000Y-170545000D02*
X104565000Y-171545000D01*
X103215000Y-171545000D02*
X103215000Y-170545000D01*
X112325000Y-147500000D02*
X112325000Y-146500000D01*
X113675000Y-146500000D02*
X113675000Y-147500000D01*
X110325000Y-144500000D02*
X110325000Y-143500000D01*
X111675000Y-143500000D02*
X111675000Y-144500000D01*
X111675000Y-146500000D02*
X111675000Y-147500000D01*
X110325000Y-147500000D02*
X110325000Y-146500000D01*
X89365000Y-181045000D02*
X89365000Y-182045000D01*
X88015000Y-182045000D02*
X88015000Y-181045000D01*
X82365000Y-181045000D02*
X82365000Y-182045000D01*
X81015000Y-182045000D02*
X81015000Y-181045000D01*
X78365000Y-181045000D02*
X78365000Y-182045000D01*
X77015000Y-182045000D02*
X77015000Y-181045000D01*
X116165000Y-140345000D02*
X116165000Y-141345000D01*
X114815000Y-141345000D02*
X114815000Y-140345000D01*
X114815000Y-144545000D02*
X114815000Y-143545000D01*
X116165000Y-143545000D02*
X116165000Y-144545000D01*
X106250000Y-153925000D02*
X105250000Y-153925000D01*
X105250000Y-152575000D02*
X106250000Y-152575000D01*
X109500000Y-153925000D02*
X108500000Y-153925000D01*
X108500000Y-152575000D02*
X109500000Y-152575000D01*
X73190000Y-138220000D02*
X72190000Y-138220000D01*
X72190000Y-136870000D02*
X73190000Y-136870000D01*
X101535000Y-180995000D02*
X101535000Y-179995000D01*
X102885000Y-179995000D02*
X102885000Y-180995000D01*
X67905000Y-161155000D02*
X67905000Y-160155000D01*
X69255000Y-160155000D02*
X69255000Y-161155000D01*
X50125000Y-161155000D02*
X50125000Y-160155000D01*
X51475000Y-160155000D02*
X51475000Y-161155000D01*
X59095000Y-160155000D02*
X59095000Y-161155000D01*
X57745000Y-161155000D02*
X57745000Y-160155000D01*
X61635000Y-160155000D02*
X61635000Y-161155000D01*
X60285000Y-161155000D02*
X60285000Y-160155000D01*
X66715000Y-160155000D02*
X66715000Y-161155000D01*
X65365000Y-161155000D02*
X65365000Y-160155000D01*
X54015000Y-160155000D02*
X54015000Y-161155000D01*
X52665000Y-161155000D02*
X52665000Y-160155000D01*
X54015000Y-163965000D02*
X54015000Y-164965000D01*
X52665000Y-164965000D02*
X52665000Y-163965000D01*
X66715000Y-163965000D02*
X66715000Y-164965000D01*
X65365000Y-164965000D02*
X65365000Y-163965000D01*
X48440000Y-173220000D02*
X47440000Y-173220000D01*
X47440000Y-171870000D02*
X48440000Y-171870000D01*
X65365000Y-179045000D02*
X65365000Y-180045000D01*
X64015000Y-180045000D02*
X64015000Y-179045000D01*
X57365000Y-179045000D02*
X57365000Y-180045000D01*
X56015000Y-180045000D02*
X56015000Y-179045000D01*
X55083571Y-179045000D02*
X55083571Y-180045000D01*
X53733571Y-180045000D02*
X53733571Y-179045000D01*
X41175000Y-138000000D02*
X41175000Y-139000000D01*
X39825000Y-139000000D02*
X39825000Y-138000000D01*
X48675000Y-145000000D02*
X48675000Y-146000000D01*
X47325000Y-146000000D02*
X47325000Y-145000000D01*
X44825000Y-146000000D02*
X44825000Y-145000000D01*
X46175000Y-145000000D02*
X46175000Y-146000000D01*
X48675000Y-148500000D02*
X48675000Y-149500000D01*
X47325000Y-149500000D02*
X47325000Y-148500000D01*
X44825000Y-149500000D02*
X44825000Y-148500000D01*
X46175000Y-148500000D02*
X46175000Y-149500000D01*
D15*
X38140000Y-167345000D02*
X38140000Y-165745000D01*
X38140000Y-165745000D02*
X35240000Y-165745000D01*
X35240000Y-165745000D02*
X35240000Y-167345000D01*
X35240000Y-167345000D02*
X38140000Y-167345000D01*
X37960000Y-166164000D02*
G75*
G03X37960000Y-166164000I-254000J0D01*
G01*
X84925000Y-163925000D02*
X92075000Y-163925000D01*
X92075000Y-163925000D02*
X92075000Y-171075000D01*
X92075000Y-171075000D02*
X84925000Y-171075000D01*
X84925000Y-171075000D02*
X84925000Y-163925000D01*
D16*
X92350000Y-163750000D02*
G75*
G03X92350000Y-163750000I-100000J0D01*
G01*
D13*
X61890000Y-166820000D02*
X57490000Y-166820000D01*
X63465000Y-172345000D02*
X57490000Y-172345000D01*
D17*
X94400560Y-165001780D02*
X94400560Y-166998220D01*
X94400560Y-166998220D02*
X95599440Y-166998220D01*
X95599440Y-165001780D02*
X95599440Y-166998220D01*
X94400560Y-165001780D02*
X95599440Y-165001780D01*
D15*
X95599440Y-165801880D02*
X95599440Y-166198120D01*
X95599440Y-165801880D02*
X95599440Y-166198120D01*
X94400560Y-165801880D02*
X94400560Y-166198120D01*
D13*
X41960000Y-167815000D02*
X41960000Y-162735000D01*
X41960000Y-162735000D02*
X39420000Y-162735000D01*
X39420000Y-162735000D02*
X39420000Y-167815000D01*
X39140000Y-170635000D02*
X39140000Y-169085000D01*
X39420000Y-167815000D02*
X41960000Y-167815000D01*
X42240000Y-169085000D02*
X42240000Y-170635000D01*
X42240000Y-170635000D02*
X39140000Y-170635000D01*
D14*
X95250000Y-186000000D02*
X97850000Y-186000000D01*
X97850000Y-186000000D02*
X97850000Y-183340000D01*
X97850000Y-183340000D02*
X95250000Y-183340000D01*
X95250000Y-183340000D02*
X95250000Y-186000000D01*
X93980000Y-186000000D02*
X92650000Y-186000000D01*
X92650000Y-186000000D02*
X92650000Y-184670000D01*
D13*
X106400000Y-147350000D02*
X106400000Y-146650000D01*
X107600000Y-146650000D02*
X107600000Y-147350000D01*
X108350000Y-144600000D02*
X107650000Y-144600000D01*
X107650000Y-143400000D02*
X108350000Y-143400000D01*
X112400000Y-144350000D02*
X112400000Y-143650000D01*
X113600000Y-143650000D02*
X113600000Y-144350000D01*
X114290000Y-161645000D02*
X106290000Y-161645000D01*
X114290000Y-155445000D02*
X106290000Y-155445000D01*
X106000000Y-132850000D02*
X103000000Y-132850000D01*
X106000000Y-129650000D02*
X103000000Y-129650000D01*
X109675000Y-146500000D02*
X109675000Y-147500000D01*
X108325000Y-147500000D02*
X108325000Y-146500000D01*
D17*
X107463800Y-136044200D02*
X102536200Y-136044200D01*
X102536200Y-136044200D02*
X102536200Y-139955800D01*
X107463800Y-139955800D02*
X102536200Y-139955800D01*
X107463800Y-136044200D02*
X107463800Y-139955800D01*
D15*
X102536200Y-139955800D02*
X102536200Y-136044200D01*
X106826260Y-136044200D02*
X107463800Y-136681740D01*
X107463800Y-136681740D02*
X107463800Y-139955800D01*
D10*
X108136526Y-136222000D02*
G75*
G03X108136526Y-136222000I-215526J0D01*
G01*
D14*
X102810000Y-186000000D02*
X105470000Y-186000000D01*
X102810000Y-185940000D02*
X102810000Y-186000000D01*
X105470000Y-185940000D02*
X105470000Y-186000000D01*
X102810000Y-185940000D02*
X105470000Y-185940000D01*
X102810000Y-184670000D02*
X102810000Y-183340000D01*
X102810000Y-183340000D02*
X104140000Y-183340000D01*
D13*
X55325000Y-152900000D02*
X55325000Y-151900000D01*
X56675000Y-151900000D02*
X56675000Y-152900000D01*
X57825000Y-152900000D02*
X57825000Y-151900000D01*
X59175000Y-151900000D02*
X59175000Y-152900000D01*
X60325000Y-152900000D02*
X60325000Y-151900000D01*
X61675000Y-151900000D02*
X61675000Y-152900000D01*
X62825000Y-152900000D02*
X62825000Y-151900000D01*
X64175000Y-151900000D02*
X64175000Y-152900000D01*
D14*
X71640000Y-130830000D02*
X71640000Y-128170000D01*
X58880000Y-130830000D02*
X71640000Y-130830000D01*
X58880000Y-128170000D02*
X71640000Y-128170000D01*
X58880000Y-130830000D02*
X58880000Y-128170000D01*
X57610000Y-130830000D02*
X56280000Y-130830000D01*
X56280000Y-130830000D02*
X56280000Y-129500000D01*
D13*
X73190000Y-142220000D02*
X72190000Y-142220000D01*
X72190000Y-140870000D02*
X73190000Y-140870000D01*
X93765000Y-155345000D02*
X93765000Y-156345000D01*
X92415000Y-156345000D02*
X92415000Y-155345000D01*
X89665000Y-155355000D02*
X89665000Y-156355000D01*
X88315000Y-156355000D02*
X88315000Y-155355000D01*
X91760000Y-155355000D02*
X91760000Y-156355000D01*
X90410000Y-156355000D02*
X90410000Y-155355000D01*
D14*
X68890000Y-170645000D02*
X67840000Y-170645000D01*
X67840000Y-170645000D02*
X67840000Y-168795000D01*
X70890000Y-170645000D02*
X69890000Y-170645000D01*
X70900000Y-170625000D02*
X70900000Y-168195000D01*
X47490000Y-162245000D02*
X48540000Y-162245000D01*
X48540000Y-162245000D02*
X48540000Y-164095000D01*
X45490000Y-162245000D02*
X46490000Y-162245000D01*
X45480000Y-162265000D02*
X45480000Y-164695000D01*
D18*
X76674000Y-152404000D02*
X76674000Y-153166000D01*
X76674000Y-153166000D02*
X92676000Y-153166000D01*
X92676000Y-153166000D02*
X92676000Y-152404000D01*
D14*
X68890000Y-175725000D02*
X67840000Y-175725000D01*
X67840000Y-175725000D02*
X67840000Y-173875000D01*
X70890000Y-175725000D02*
X69890000Y-175725000D01*
X70900000Y-175705000D02*
X70900000Y-173275000D01*
X47490000Y-167325000D02*
X48540000Y-167325000D01*
X48540000Y-167325000D02*
X48540000Y-169175000D01*
X45490000Y-167325000D02*
X46490000Y-167325000D01*
X45480000Y-167345000D02*
X45480000Y-169775000D01*
D13*
X81829000Y-156700000D02*
X81829000Y-154160000D01*
X80051000Y-154160000D02*
X80051000Y-156700000D01*
X80051000Y-154160000D02*
X81829000Y-154160000D01*
X81829000Y-156700000D02*
X80051000Y-156700000D01*
D14*
X110890000Y-174545000D02*
X111290000Y-174545000D01*
X110890000Y-167945000D02*
X110890000Y-174545000D01*
X116490000Y-168345000D02*
X116490000Y-173545000D01*
D15*
X112250000Y-166250000D02*
X112250000Y-164000000D01*
X112250000Y-164000000D02*
X112250000Y-163750000D01*
X112250000Y-163750000D02*
X112020000Y-163750000D01*
X108980000Y-163750000D02*
X108750000Y-163750000D01*
X108730000Y-163750000D02*
X108730000Y-166250000D01*
X108730000Y-166250000D02*
X108960000Y-166250000D01*
X112020000Y-166250000D02*
X112250000Y-166250000D01*
X112250000Y-164000000D02*
X112000000Y-164000000D01*
X112000000Y-163750000D02*
X112000000Y-164000000D01*
X112250000Y-163900000D02*
X112000000Y-163900000D01*
X112250000Y-163800000D02*
X112000000Y-163800000D01*
D14*
X77970000Y-185545000D02*
X77970000Y-186595000D01*
X77970000Y-186595000D02*
X76120000Y-186595000D01*
X77970000Y-183545000D02*
X77970000Y-184545000D01*
X77950000Y-183535000D02*
X75520000Y-183535000D01*
X96710000Y-155945000D02*
X95660000Y-155945000D01*
X95660000Y-155945000D02*
X95660000Y-154095000D01*
X98710000Y-155945000D02*
X97710000Y-155945000D01*
X98720000Y-155925000D02*
X98720000Y-153495000D01*
X43210000Y-138945000D02*
X42160000Y-138945000D01*
X42160000Y-138945000D02*
X42160000Y-137095000D01*
X45210000Y-138945000D02*
X44210000Y-138945000D01*
X45220000Y-138925000D02*
X45220000Y-136495000D01*
D13*
X105138572Y-177423571D02*
X104805238Y-177423571D01*
X104805238Y-177947381D02*
X104805238Y-176947381D01*
X105281429Y-176947381D01*
X105662381Y-177947381D02*
X105662381Y-176947381D01*
X106138571Y-177947381D02*
X106138571Y-176947381D01*
X106376666Y-176947381D01*
X106519524Y-176995000D01*
X106614762Y-177090238D01*
X106662381Y-177185476D01*
X106710000Y-177375952D01*
X106710000Y-177518810D01*
X106662381Y-177709286D01*
X106614762Y-177804524D01*
X106519524Y-177899762D01*
X106376666Y-177947381D01*
X106138571Y-177947381D01*
X107043333Y-176947381D02*
X107662381Y-176947381D01*
X107329047Y-177328333D01*
X107471905Y-177328333D01*
X107567143Y-177375952D01*
X107614762Y-177423571D01*
X107662381Y-177518810D01*
X107662381Y-177756905D01*
X107614762Y-177852143D01*
X107567143Y-177899762D01*
X107471905Y-177947381D01*
X107186190Y-177947381D01*
X107090952Y-177899762D01*
X107043333Y-177852143D01*
X36238571Y-136066428D02*
X36238571Y-136399762D01*
X36762381Y-136399762D02*
X35762381Y-136399762D01*
X35762381Y-135923571D01*
X36762381Y-135542619D02*
X35762381Y-135542619D01*
X36762381Y-135066429D02*
X35762381Y-135066429D01*
X35762381Y-134828334D01*
X35810000Y-134685476D01*
X35905238Y-134590238D01*
X36000476Y-134542619D01*
X36190952Y-134495000D01*
X36333810Y-134495000D01*
X36524286Y-134542619D01*
X36619524Y-134590238D01*
X36714762Y-134685476D01*
X36762381Y-134828334D01*
X36762381Y-135066429D01*
X35857619Y-134114048D02*
X35810000Y-134066429D01*
X35762381Y-133971191D01*
X35762381Y-133733095D01*
X35810000Y-133637857D01*
X35857619Y-133590238D01*
X35952857Y-133542619D01*
X36048095Y-133542619D01*
X36190952Y-133590238D01*
X36762381Y-134161667D01*
X36762381Y-133542619D01*
X80142381Y-178664047D02*
X79666190Y-178997381D01*
X80142381Y-179235476D02*
X79142381Y-179235476D01*
X79142381Y-178854523D01*
X79190000Y-178759285D01*
X79237619Y-178711666D01*
X79332857Y-178664047D01*
X79475714Y-178664047D01*
X79570952Y-178711666D01*
X79618571Y-178759285D01*
X79666190Y-178854523D01*
X79666190Y-179235476D01*
X79142381Y-178330714D02*
X79142381Y-177711666D01*
X79523333Y-178045000D01*
X79523333Y-177902142D01*
X79570952Y-177806904D01*
X79618571Y-177759285D01*
X79713810Y-177711666D01*
X79951905Y-177711666D01*
X80047143Y-177759285D01*
X80094762Y-177806904D01*
X80142381Y-177902142D01*
X80142381Y-178187857D01*
X80094762Y-178283095D01*
X80047143Y-178330714D01*
X79142381Y-177092619D02*
X79142381Y-176997380D01*
X79190000Y-176902142D01*
X79237619Y-176854523D01*
X79332857Y-176806904D01*
X79523333Y-176759285D01*
X79761429Y-176759285D01*
X79951905Y-176806904D01*
X80047143Y-176854523D01*
X80094762Y-176902142D01*
X80142381Y-176997380D01*
X80142381Y-177092619D01*
X80094762Y-177187857D01*
X80047143Y-177235476D01*
X79951905Y-177283095D01*
X79761429Y-177330714D01*
X79523333Y-177330714D01*
X79332857Y-177283095D01*
X79237619Y-177235476D01*
X79190000Y-177187857D01*
X79142381Y-177092619D01*
X79475714Y-175902142D02*
X80142381Y-175902142D01*
X79094762Y-176140238D02*
X79809048Y-176378333D01*
X79809048Y-175759285D01*
X115947143Y-165664047D02*
X115994762Y-165711666D01*
X116042381Y-165854523D01*
X116042381Y-165949761D01*
X115994762Y-166092619D01*
X115899524Y-166187857D01*
X115804286Y-166235476D01*
X115613810Y-166283095D01*
X115470952Y-166283095D01*
X115280476Y-166235476D01*
X115185238Y-166187857D01*
X115090000Y-166092619D01*
X115042381Y-165949761D01*
X115042381Y-165854523D01*
X115090000Y-165711666D01*
X115137619Y-165664047D01*
X115137619Y-165283095D02*
X115090000Y-165235476D01*
X115042381Y-165140238D01*
X115042381Y-164902142D01*
X115090000Y-164806904D01*
X115137619Y-164759285D01*
X115232857Y-164711666D01*
X115328095Y-164711666D01*
X115470952Y-164759285D01*
X116042381Y-165330714D01*
X116042381Y-164711666D01*
X115042381Y-164092619D02*
X115042381Y-163997380D01*
X115090000Y-163902142D01*
X115137619Y-163854523D01*
X115232857Y-163806904D01*
X115423333Y-163759285D01*
X115661429Y-163759285D01*
X115851905Y-163806904D01*
X115947143Y-163854523D01*
X115994762Y-163902142D01*
X116042381Y-163997380D01*
X116042381Y-164092619D01*
X115994762Y-164187857D01*
X115947143Y-164235476D01*
X115851905Y-164283095D01*
X115661429Y-164330714D01*
X115423333Y-164330714D01*
X115232857Y-164283095D01*
X115137619Y-164235476D01*
X115090000Y-164187857D01*
X115042381Y-164092619D01*
X116042381Y-162806904D02*
X116042381Y-163378333D01*
X116042381Y-163092619D02*
X115042381Y-163092619D01*
X115185238Y-163187857D01*
X115280476Y-163283095D01*
X115328095Y-163378333D01*
X35570953Y-161402143D02*
X35523334Y-161449762D01*
X35380477Y-161497381D01*
X35285239Y-161497381D01*
X35142381Y-161449762D01*
X35047143Y-161354524D01*
X34999524Y-161259286D01*
X34951905Y-161068810D01*
X34951905Y-160925952D01*
X34999524Y-160735476D01*
X35047143Y-160640238D01*
X35142381Y-160545000D01*
X35285239Y-160497381D01*
X35380477Y-160497381D01*
X35523334Y-160545000D01*
X35570953Y-160592619D01*
X35951905Y-160592619D02*
X35999524Y-160545000D01*
X36094762Y-160497381D01*
X36332858Y-160497381D01*
X36428096Y-160545000D01*
X36475715Y-160592619D01*
X36523334Y-160687857D01*
X36523334Y-160783095D01*
X36475715Y-160925952D01*
X35904286Y-161497381D01*
X36523334Y-161497381D01*
X37142381Y-160497381D02*
X37237620Y-160497381D01*
X37332858Y-160545000D01*
X37380477Y-160592619D01*
X37428096Y-160687857D01*
X37475715Y-160878333D01*
X37475715Y-161116429D01*
X37428096Y-161306905D01*
X37380477Y-161402143D01*
X37332858Y-161449762D01*
X37237620Y-161497381D01*
X37142381Y-161497381D01*
X37047143Y-161449762D01*
X36999524Y-161402143D01*
X36951905Y-161306905D01*
X36904286Y-161116429D01*
X36904286Y-160878333D01*
X36951905Y-160687857D01*
X36999524Y-160592619D01*
X37047143Y-160545000D01*
X37142381Y-160497381D01*
X37856667Y-160592619D02*
X37904286Y-160545000D01*
X37999524Y-160497381D01*
X38237620Y-160497381D01*
X38332858Y-160545000D01*
X38380477Y-160592619D01*
X38428096Y-160687857D01*
X38428096Y-160783095D01*
X38380477Y-160925952D01*
X37809048Y-161497381D01*
X38428096Y-161497381D01*
X104047143Y-149164047D02*
X104094762Y-149211666D01*
X104142381Y-149354523D01*
X104142381Y-149449761D01*
X104094762Y-149592619D01*
X103999524Y-149687857D01*
X103904286Y-149735476D01*
X103713810Y-149783095D01*
X103570952Y-149783095D01*
X103380476Y-149735476D01*
X103285238Y-149687857D01*
X103190000Y-149592619D01*
X103142381Y-149449761D01*
X103142381Y-149354523D01*
X103190000Y-149211666D01*
X103237619Y-149164047D01*
X103237619Y-148783095D02*
X103190000Y-148735476D01*
X103142381Y-148640238D01*
X103142381Y-148402142D01*
X103190000Y-148306904D01*
X103237619Y-148259285D01*
X103332857Y-148211666D01*
X103428095Y-148211666D01*
X103570952Y-148259285D01*
X104142381Y-148830714D01*
X104142381Y-148211666D01*
X103142381Y-147592619D02*
X103142381Y-147497380D01*
X103190000Y-147402142D01*
X103237619Y-147354523D01*
X103332857Y-147306904D01*
X103523333Y-147259285D01*
X103761429Y-147259285D01*
X103951905Y-147306904D01*
X104047143Y-147354523D01*
X104094762Y-147402142D01*
X104142381Y-147497380D01*
X104142381Y-147592619D01*
X104094762Y-147687857D01*
X104047143Y-147735476D01*
X103951905Y-147783095D01*
X103761429Y-147830714D01*
X103523333Y-147830714D01*
X103332857Y-147783095D01*
X103237619Y-147735476D01*
X103190000Y-147687857D01*
X103142381Y-147592619D01*
X103142381Y-146925952D02*
X103142381Y-146306904D01*
X103523333Y-146640238D01*
X103523333Y-146497380D01*
X103570952Y-146402142D01*
X103618571Y-146354523D01*
X103713810Y-146306904D01*
X103951905Y-146306904D01*
X104047143Y-146354523D01*
X104094762Y-146402142D01*
X104142381Y-146497380D01*
X104142381Y-146783095D01*
X104094762Y-146878333D01*
X104047143Y-146925952D01*
X35570953Y-172402143D02*
X35523334Y-172449762D01*
X35380477Y-172497381D01*
X35285239Y-172497381D01*
X35142381Y-172449762D01*
X35047143Y-172354524D01*
X34999524Y-172259286D01*
X34951905Y-172068810D01*
X34951905Y-171925952D01*
X34999524Y-171735476D01*
X35047143Y-171640238D01*
X35142381Y-171545000D01*
X35285239Y-171497381D01*
X35380477Y-171497381D01*
X35523334Y-171545000D01*
X35570953Y-171592619D01*
X35951905Y-171592619D02*
X35999524Y-171545000D01*
X36094762Y-171497381D01*
X36332858Y-171497381D01*
X36428096Y-171545000D01*
X36475715Y-171592619D01*
X36523334Y-171687857D01*
X36523334Y-171783095D01*
X36475715Y-171925952D01*
X35904286Y-172497381D01*
X36523334Y-172497381D01*
X37142381Y-171497381D02*
X37237620Y-171497381D01*
X37332858Y-171545000D01*
X37380477Y-171592619D01*
X37428096Y-171687857D01*
X37475715Y-171878333D01*
X37475715Y-172116429D01*
X37428096Y-172306905D01*
X37380477Y-172402143D01*
X37332858Y-172449762D01*
X37237620Y-172497381D01*
X37142381Y-172497381D01*
X37047143Y-172449762D01*
X36999524Y-172402143D01*
X36951905Y-172306905D01*
X36904286Y-172116429D01*
X36904286Y-171878333D01*
X36951905Y-171687857D01*
X36999524Y-171592619D01*
X37047143Y-171545000D01*
X37142381Y-171497381D01*
X38332858Y-171830714D02*
X38332858Y-172497381D01*
X38094762Y-171449762D02*
X37856667Y-172164048D01*
X38475715Y-172164048D01*
X105547143Y-165664047D02*
X105594762Y-165711666D01*
X105642381Y-165854523D01*
X105642381Y-165949761D01*
X105594762Y-166092619D01*
X105499524Y-166187857D01*
X105404286Y-166235476D01*
X105213810Y-166283095D01*
X105070952Y-166283095D01*
X104880476Y-166235476D01*
X104785238Y-166187857D01*
X104690000Y-166092619D01*
X104642381Y-165949761D01*
X104642381Y-165854523D01*
X104690000Y-165711666D01*
X104737619Y-165664047D01*
X104737619Y-165283095D02*
X104690000Y-165235476D01*
X104642381Y-165140238D01*
X104642381Y-164902142D01*
X104690000Y-164806904D01*
X104737619Y-164759285D01*
X104832857Y-164711666D01*
X104928095Y-164711666D01*
X105070952Y-164759285D01*
X105642381Y-165330714D01*
X105642381Y-164711666D01*
X104642381Y-164092619D02*
X104642381Y-163997380D01*
X104690000Y-163902142D01*
X104737619Y-163854523D01*
X104832857Y-163806904D01*
X105023333Y-163759285D01*
X105261429Y-163759285D01*
X105451905Y-163806904D01*
X105547143Y-163854523D01*
X105594762Y-163902142D01*
X105642381Y-163997380D01*
X105642381Y-164092619D01*
X105594762Y-164187857D01*
X105547143Y-164235476D01*
X105451905Y-164283095D01*
X105261429Y-164330714D01*
X105023333Y-164330714D01*
X104832857Y-164283095D01*
X104737619Y-164235476D01*
X104690000Y-164187857D01*
X104642381Y-164092619D01*
X104642381Y-162854523D02*
X104642381Y-163330714D01*
X105118571Y-163378333D01*
X105070952Y-163330714D01*
X105023333Y-163235476D01*
X105023333Y-162997380D01*
X105070952Y-162902142D01*
X105118571Y-162854523D01*
X105213810Y-162806904D01*
X105451905Y-162806904D01*
X105547143Y-162854523D01*
X105594762Y-162902142D01*
X105642381Y-162997380D01*
X105642381Y-163235476D01*
X105594762Y-163330714D01*
X105547143Y-163378333D01*
X99547143Y-148664047D02*
X99594762Y-148711666D01*
X99642381Y-148854523D01*
X99642381Y-148949761D01*
X99594762Y-149092619D01*
X99499524Y-149187857D01*
X99404286Y-149235476D01*
X99213810Y-149283095D01*
X99070952Y-149283095D01*
X98880476Y-149235476D01*
X98785238Y-149187857D01*
X98690000Y-149092619D01*
X98642381Y-148949761D01*
X98642381Y-148854523D01*
X98690000Y-148711666D01*
X98737619Y-148664047D01*
X98737619Y-148283095D02*
X98690000Y-148235476D01*
X98642381Y-148140238D01*
X98642381Y-147902142D01*
X98690000Y-147806904D01*
X98737619Y-147759285D01*
X98832857Y-147711666D01*
X98928095Y-147711666D01*
X99070952Y-147759285D01*
X99642381Y-148330714D01*
X99642381Y-147711666D01*
X98642381Y-147092619D02*
X98642381Y-146997380D01*
X98690000Y-146902142D01*
X98737619Y-146854523D01*
X98832857Y-146806904D01*
X99023333Y-146759285D01*
X99261429Y-146759285D01*
X99451905Y-146806904D01*
X99547143Y-146854523D01*
X99594762Y-146902142D01*
X99642381Y-146997380D01*
X99642381Y-147092619D01*
X99594762Y-147187857D01*
X99547143Y-147235476D01*
X99451905Y-147283095D01*
X99261429Y-147330714D01*
X99023333Y-147330714D01*
X98832857Y-147283095D01*
X98737619Y-147235476D01*
X98690000Y-147187857D01*
X98642381Y-147092619D01*
X98642381Y-145902142D02*
X98642381Y-146092619D01*
X98690000Y-146187857D01*
X98737619Y-146235476D01*
X98880476Y-146330714D01*
X99070952Y-146378333D01*
X99451905Y-146378333D01*
X99547143Y-146330714D01*
X99594762Y-146283095D01*
X99642381Y-146187857D01*
X99642381Y-145997380D01*
X99594762Y-145902142D01*
X99547143Y-145854523D01*
X99451905Y-145806904D01*
X99213810Y-145806904D01*
X99118571Y-145854523D01*
X99070952Y-145902142D01*
X99023333Y-145997380D01*
X99023333Y-146187857D01*
X99070952Y-146283095D01*
X99118571Y-146330714D01*
X99213810Y-146378333D01*
X102047143Y-148664047D02*
X102094762Y-148711666D01*
X102142381Y-148854523D01*
X102142381Y-148949761D01*
X102094762Y-149092619D01*
X101999524Y-149187857D01*
X101904286Y-149235476D01*
X101713810Y-149283095D01*
X101570952Y-149283095D01*
X101380476Y-149235476D01*
X101285238Y-149187857D01*
X101190000Y-149092619D01*
X101142381Y-148949761D01*
X101142381Y-148854523D01*
X101190000Y-148711666D01*
X101237619Y-148664047D01*
X101237619Y-148283095D02*
X101190000Y-148235476D01*
X101142381Y-148140238D01*
X101142381Y-147902142D01*
X101190000Y-147806904D01*
X101237619Y-147759285D01*
X101332857Y-147711666D01*
X101428095Y-147711666D01*
X101570952Y-147759285D01*
X102142381Y-148330714D01*
X102142381Y-147711666D01*
X101142381Y-147092619D02*
X101142381Y-146997380D01*
X101190000Y-146902142D01*
X101237619Y-146854523D01*
X101332857Y-146806904D01*
X101523333Y-146759285D01*
X101761429Y-146759285D01*
X101951905Y-146806904D01*
X102047143Y-146854523D01*
X102094762Y-146902142D01*
X102142381Y-146997380D01*
X102142381Y-147092619D01*
X102094762Y-147187857D01*
X102047143Y-147235476D01*
X101951905Y-147283095D01*
X101761429Y-147330714D01*
X101523333Y-147330714D01*
X101332857Y-147283095D01*
X101237619Y-147235476D01*
X101190000Y-147187857D01*
X101142381Y-147092619D01*
X101142381Y-146425952D02*
X101142381Y-145759285D01*
X102142381Y-146187857D01*
X95090953Y-160352143D02*
X95043334Y-160399762D01*
X94900477Y-160447381D01*
X94805239Y-160447381D01*
X94662381Y-160399762D01*
X94567143Y-160304524D01*
X94519524Y-160209286D01*
X94471905Y-160018810D01*
X94471905Y-159875952D01*
X94519524Y-159685476D01*
X94567143Y-159590238D01*
X94662381Y-159495000D01*
X94805239Y-159447381D01*
X94900477Y-159447381D01*
X95043334Y-159495000D01*
X95090953Y-159542619D01*
X95424286Y-159447381D02*
X96043334Y-159447381D01*
X95710000Y-159828333D01*
X95852858Y-159828333D01*
X95948096Y-159875952D01*
X95995715Y-159923571D01*
X96043334Y-160018810D01*
X96043334Y-160256905D01*
X95995715Y-160352143D01*
X95948096Y-160399762D01*
X95852858Y-160447381D01*
X95567143Y-160447381D01*
X95471905Y-160399762D01*
X95424286Y-160352143D01*
X96662381Y-159447381D02*
X96757620Y-159447381D01*
X96852858Y-159495000D01*
X96900477Y-159542619D01*
X96948096Y-159637857D01*
X96995715Y-159828333D01*
X96995715Y-160066429D01*
X96948096Y-160256905D01*
X96900477Y-160352143D01*
X96852858Y-160399762D01*
X96757620Y-160447381D01*
X96662381Y-160447381D01*
X96567143Y-160399762D01*
X96519524Y-160352143D01*
X96471905Y-160256905D01*
X96424286Y-160066429D01*
X96424286Y-159828333D01*
X96471905Y-159637857D01*
X96519524Y-159542619D01*
X96567143Y-159495000D01*
X96662381Y-159447381D01*
X97948096Y-160447381D02*
X97376667Y-160447381D01*
X97662381Y-160447381D02*
X97662381Y-159447381D01*
X97567143Y-159590238D01*
X97471905Y-159685476D01*
X97376667Y-159733095D01*
X100570953Y-165402143D02*
X100523334Y-165449762D01*
X100380477Y-165497381D01*
X100285239Y-165497381D01*
X100142381Y-165449762D01*
X100047143Y-165354524D01*
X99999524Y-165259286D01*
X99951905Y-165068810D01*
X99951905Y-164925952D01*
X99999524Y-164735476D01*
X100047143Y-164640238D01*
X100142381Y-164545000D01*
X100285239Y-164497381D01*
X100380477Y-164497381D01*
X100523334Y-164545000D01*
X100570953Y-164592619D01*
X100904286Y-164497381D02*
X101523334Y-164497381D01*
X101190000Y-164878333D01*
X101332858Y-164878333D01*
X101428096Y-164925952D01*
X101475715Y-164973571D01*
X101523334Y-165068810D01*
X101523334Y-165306905D01*
X101475715Y-165402143D01*
X101428096Y-165449762D01*
X101332858Y-165497381D01*
X101047143Y-165497381D01*
X100951905Y-165449762D01*
X100904286Y-165402143D01*
X102142381Y-164497381D02*
X102237620Y-164497381D01*
X102332858Y-164545000D01*
X102380477Y-164592619D01*
X102428096Y-164687857D01*
X102475715Y-164878333D01*
X102475715Y-165116429D01*
X102428096Y-165306905D01*
X102380477Y-165402143D01*
X102332858Y-165449762D01*
X102237620Y-165497381D01*
X102142381Y-165497381D01*
X102047143Y-165449762D01*
X101999524Y-165402143D01*
X101951905Y-165306905D01*
X101904286Y-165116429D01*
X101904286Y-164878333D01*
X101951905Y-164687857D01*
X101999524Y-164592619D01*
X102047143Y-164545000D01*
X102142381Y-164497381D01*
X102856667Y-164592619D02*
X102904286Y-164545000D01*
X102999524Y-164497381D01*
X103237620Y-164497381D01*
X103332858Y-164545000D01*
X103380477Y-164592619D01*
X103428096Y-164687857D01*
X103428096Y-164783095D01*
X103380477Y-164925952D01*
X102809048Y-165497381D01*
X103428096Y-165497381D01*
X97130953Y-168902143D02*
X97083334Y-168949762D01*
X96940477Y-168997381D01*
X96845239Y-168997381D01*
X96702381Y-168949762D01*
X96607143Y-168854524D01*
X96559524Y-168759286D01*
X96511905Y-168568810D01*
X96511905Y-168425952D01*
X96559524Y-168235476D01*
X96607143Y-168140238D01*
X96702381Y-168045000D01*
X96845239Y-167997381D01*
X96940477Y-167997381D01*
X97083334Y-168045000D01*
X97130953Y-168092619D01*
X97464286Y-167997381D02*
X98083334Y-167997381D01*
X97750000Y-168378333D01*
X97892858Y-168378333D01*
X97988096Y-168425952D01*
X98035715Y-168473571D01*
X98083334Y-168568810D01*
X98083334Y-168806905D01*
X98035715Y-168902143D01*
X97988096Y-168949762D01*
X97892858Y-168997381D01*
X97607143Y-168997381D01*
X97511905Y-168949762D01*
X97464286Y-168902143D01*
X98702381Y-167997381D02*
X98797620Y-167997381D01*
X98892858Y-168045000D01*
X98940477Y-168092619D01*
X98988096Y-168187857D01*
X99035715Y-168378333D01*
X99035715Y-168616429D01*
X98988096Y-168806905D01*
X98940477Y-168902143D01*
X98892858Y-168949762D01*
X98797620Y-168997381D01*
X98702381Y-168997381D01*
X98607143Y-168949762D01*
X98559524Y-168902143D01*
X98511905Y-168806905D01*
X98464286Y-168616429D01*
X98464286Y-168378333D01*
X98511905Y-168187857D01*
X98559524Y-168092619D01*
X98607143Y-168045000D01*
X98702381Y-167997381D01*
X99369048Y-167997381D02*
X99988096Y-167997381D01*
X99654762Y-168378333D01*
X99797620Y-168378333D01*
X99892858Y-168425952D01*
X99940477Y-168473571D01*
X99988096Y-168568810D01*
X99988096Y-168806905D01*
X99940477Y-168902143D01*
X99892858Y-168949762D01*
X99797620Y-168997381D01*
X99511905Y-168997381D01*
X99416667Y-168949762D01*
X99369048Y-168902143D01*
X98070953Y-173402143D02*
X98023334Y-173449762D01*
X97880477Y-173497381D01*
X97785239Y-173497381D01*
X97642381Y-173449762D01*
X97547143Y-173354524D01*
X97499524Y-173259286D01*
X97451905Y-173068810D01*
X97451905Y-172925952D01*
X97499524Y-172735476D01*
X97547143Y-172640238D01*
X97642381Y-172545000D01*
X97785239Y-172497381D01*
X97880477Y-172497381D01*
X98023334Y-172545000D01*
X98070953Y-172592619D01*
X98404286Y-172497381D02*
X99023334Y-172497381D01*
X98690000Y-172878333D01*
X98832858Y-172878333D01*
X98928096Y-172925952D01*
X98975715Y-172973571D01*
X99023334Y-173068810D01*
X99023334Y-173306905D01*
X98975715Y-173402143D01*
X98928096Y-173449762D01*
X98832858Y-173497381D01*
X98547143Y-173497381D01*
X98451905Y-173449762D01*
X98404286Y-173402143D01*
X99642381Y-172497381D02*
X99737620Y-172497381D01*
X99832858Y-172545000D01*
X99880477Y-172592619D01*
X99928096Y-172687857D01*
X99975715Y-172878333D01*
X99975715Y-173116429D01*
X99928096Y-173306905D01*
X99880477Y-173402143D01*
X99832858Y-173449762D01*
X99737620Y-173497381D01*
X99642381Y-173497381D01*
X99547143Y-173449762D01*
X99499524Y-173402143D01*
X99451905Y-173306905D01*
X99404286Y-173116429D01*
X99404286Y-172878333D01*
X99451905Y-172687857D01*
X99499524Y-172592619D01*
X99547143Y-172545000D01*
X99642381Y-172497381D01*
X100832858Y-172830714D02*
X100832858Y-173497381D01*
X100594762Y-172449762D02*
X100356667Y-173164048D01*
X100975715Y-173164048D01*
X98070953Y-171902143D02*
X98023334Y-171949762D01*
X97880477Y-171997381D01*
X97785239Y-171997381D01*
X97642381Y-171949762D01*
X97547143Y-171854524D01*
X97499524Y-171759286D01*
X97451905Y-171568810D01*
X97451905Y-171425952D01*
X97499524Y-171235476D01*
X97547143Y-171140238D01*
X97642381Y-171045000D01*
X97785239Y-170997381D01*
X97880477Y-170997381D01*
X98023334Y-171045000D01*
X98070953Y-171092619D01*
X98404286Y-170997381D02*
X99023334Y-170997381D01*
X98690000Y-171378333D01*
X98832858Y-171378333D01*
X98928096Y-171425952D01*
X98975715Y-171473571D01*
X99023334Y-171568810D01*
X99023334Y-171806905D01*
X98975715Y-171902143D01*
X98928096Y-171949762D01*
X98832858Y-171997381D01*
X98547143Y-171997381D01*
X98451905Y-171949762D01*
X98404286Y-171902143D01*
X99642381Y-170997381D02*
X99737620Y-170997381D01*
X99832858Y-171045000D01*
X99880477Y-171092619D01*
X99928096Y-171187857D01*
X99975715Y-171378333D01*
X99975715Y-171616429D01*
X99928096Y-171806905D01*
X99880477Y-171902143D01*
X99832858Y-171949762D01*
X99737620Y-171997381D01*
X99642381Y-171997381D01*
X99547143Y-171949762D01*
X99499524Y-171902143D01*
X99451905Y-171806905D01*
X99404286Y-171616429D01*
X99404286Y-171378333D01*
X99451905Y-171187857D01*
X99499524Y-171092619D01*
X99547143Y-171045000D01*
X99642381Y-170997381D01*
X100880477Y-170997381D02*
X100404286Y-170997381D01*
X100356667Y-171473571D01*
X100404286Y-171425952D01*
X100499524Y-171378333D01*
X100737620Y-171378333D01*
X100832858Y-171425952D01*
X100880477Y-171473571D01*
X100928096Y-171568810D01*
X100928096Y-171806905D01*
X100880477Y-171902143D01*
X100832858Y-171949762D01*
X100737620Y-171997381D01*
X100499524Y-171997381D01*
X100404286Y-171949762D01*
X100356667Y-171902143D01*
X86047143Y-186164047D02*
X86094762Y-186211666D01*
X86142381Y-186354523D01*
X86142381Y-186449761D01*
X86094762Y-186592619D01*
X85999524Y-186687857D01*
X85904286Y-186735476D01*
X85713810Y-186783095D01*
X85570952Y-186783095D01*
X85380476Y-186735476D01*
X85285238Y-186687857D01*
X85190000Y-186592619D01*
X85142381Y-186449761D01*
X85142381Y-186354523D01*
X85190000Y-186211666D01*
X85237619Y-186164047D01*
X85142381Y-185830714D02*
X85142381Y-185211666D01*
X85523333Y-185545000D01*
X85523333Y-185402142D01*
X85570952Y-185306904D01*
X85618571Y-185259285D01*
X85713810Y-185211666D01*
X85951905Y-185211666D01*
X86047143Y-185259285D01*
X86094762Y-185306904D01*
X86142381Y-185402142D01*
X86142381Y-185687857D01*
X86094762Y-185783095D01*
X86047143Y-185830714D01*
X85142381Y-184592619D02*
X85142381Y-184497380D01*
X85190000Y-184402142D01*
X85237619Y-184354523D01*
X85332857Y-184306904D01*
X85523333Y-184259285D01*
X85761429Y-184259285D01*
X85951905Y-184306904D01*
X86047143Y-184354523D01*
X86094762Y-184402142D01*
X86142381Y-184497380D01*
X86142381Y-184592619D01*
X86094762Y-184687857D01*
X86047143Y-184735476D01*
X85951905Y-184783095D01*
X85761429Y-184830714D01*
X85523333Y-184830714D01*
X85332857Y-184783095D01*
X85237619Y-184735476D01*
X85190000Y-184687857D01*
X85142381Y-184592619D01*
X85142381Y-183402142D02*
X85142381Y-183592619D01*
X85190000Y-183687857D01*
X85237619Y-183735476D01*
X85380476Y-183830714D01*
X85570952Y-183878333D01*
X85951905Y-183878333D01*
X86047143Y-183830714D01*
X86094762Y-183783095D01*
X86142381Y-183687857D01*
X86142381Y-183497380D01*
X86094762Y-183402142D01*
X86047143Y-183354523D01*
X85951905Y-183306904D01*
X85713810Y-183306904D01*
X85618571Y-183354523D01*
X85570952Y-183402142D01*
X85523333Y-183497380D01*
X85523333Y-183687857D01*
X85570952Y-183783095D01*
X85618571Y-183830714D01*
X85713810Y-183878333D01*
X84547143Y-186164047D02*
X84594762Y-186211666D01*
X84642381Y-186354523D01*
X84642381Y-186449761D01*
X84594762Y-186592619D01*
X84499524Y-186687857D01*
X84404286Y-186735476D01*
X84213810Y-186783095D01*
X84070952Y-186783095D01*
X83880476Y-186735476D01*
X83785238Y-186687857D01*
X83690000Y-186592619D01*
X83642381Y-186449761D01*
X83642381Y-186354523D01*
X83690000Y-186211666D01*
X83737619Y-186164047D01*
X83642381Y-185830714D02*
X83642381Y-185211666D01*
X84023333Y-185545000D01*
X84023333Y-185402142D01*
X84070952Y-185306904D01*
X84118571Y-185259285D01*
X84213810Y-185211666D01*
X84451905Y-185211666D01*
X84547143Y-185259285D01*
X84594762Y-185306904D01*
X84642381Y-185402142D01*
X84642381Y-185687857D01*
X84594762Y-185783095D01*
X84547143Y-185830714D01*
X83642381Y-184592619D02*
X83642381Y-184497380D01*
X83690000Y-184402142D01*
X83737619Y-184354523D01*
X83832857Y-184306904D01*
X84023333Y-184259285D01*
X84261429Y-184259285D01*
X84451905Y-184306904D01*
X84547143Y-184354523D01*
X84594762Y-184402142D01*
X84642381Y-184497380D01*
X84642381Y-184592619D01*
X84594762Y-184687857D01*
X84547143Y-184735476D01*
X84451905Y-184783095D01*
X84261429Y-184830714D01*
X84023333Y-184830714D01*
X83832857Y-184783095D01*
X83737619Y-184735476D01*
X83690000Y-184687857D01*
X83642381Y-184592619D01*
X83642381Y-183925952D02*
X83642381Y-183259285D01*
X84642381Y-183687857D01*
X114070953Y-153902143D02*
X114023334Y-153949762D01*
X113880477Y-153997381D01*
X113785239Y-153997381D01*
X113642381Y-153949762D01*
X113547143Y-153854524D01*
X113499524Y-153759286D01*
X113451905Y-153568810D01*
X113451905Y-153425952D01*
X113499524Y-153235476D01*
X113547143Y-153140238D01*
X113642381Y-153045000D01*
X113785239Y-152997381D01*
X113880477Y-152997381D01*
X114023334Y-153045000D01*
X114070953Y-153092619D01*
X114404286Y-152997381D02*
X115023334Y-152997381D01*
X114690000Y-153378333D01*
X114832858Y-153378333D01*
X114928096Y-153425952D01*
X114975715Y-153473571D01*
X115023334Y-153568810D01*
X115023334Y-153806905D01*
X114975715Y-153902143D01*
X114928096Y-153949762D01*
X114832858Y-153997381D01*
X114547143Y-153997381D01*
X114451905Y-153949762D01*
X114404286Y-153902143D01*
X115642381Y-152997381D02*
X115737620Y-152997381D01*
X115832858Y-153045000D01*
X115880477Y-153092619D01*
X115928096Y-153187857D01*
X115975715Y-153378333D01*
X115975715Y-153616429D01*
X115928096Y-153806905D01*
X115880477Y-153902143D01*
X115832858Y-153949762D01*
X115737620Y-153997381D01*
X115642381Y-153997381D01*
X115547143Y-153949762D01*
X115499524Y-153902143D01*
X115451905Y-153806905D01*
X115404286Y-153616429D01*
X115404286Y-153378333D01*
X115451905Y-153187857D01*
X115499524Y-153092619D01*
X115547143Y-153045000D01*
X115642381Y-152997381D01*
X116547143Y-153425952D02*
X116451905Y-153378333D01*
X116404286Y-153330714D01*
X116356667Y-153235476D01*
X116356667Y-153187857D01*
X116404286Y-153092619D01*
X116451905Y-153045000D01*
X116547143Y-152997381D01*
X116737620Y-152997381D01*
X116832858Y-153045000D01*
X116880477Y-153092619D01*
X116928096Y-153187857D01*
X116928096Y-153235476D01*
X116880477Y-153330714D01*
X116832858Y-153378333D01*
X116737620Y-153425952D01*
X116547143Y-153425952D01*
X116451905Y-153473571D01*
X116404286Y-153521190D01*
X116356667Y-153616429D01*
X116356667Y-153806905D01*
X116404286Y-153902143D01*
X116451905Y-153949762D01*
X116547143Y-153997381D01*
X116737620Y-153997381D01*
X116832858Y-153949762D01*
X116880477Y-153902143D01*
X116928096Y-153806905D01*
X116928096Y-153616429D01*
X116880477Y-153521190D01*
X116832858Y-153473571D01*
X116737620Y-153425952D01*
X62070953Y-155402143D02*
X62023334Y-155449762D01*
X61880477Y-155497381D01*
X61785239Y-155497381D01*
X61642381Y-155449762D01*
X61547143Y-155354524D01*
X61499524Y-155259286D01*
X61451905Y-155068810D01*
X61451905Y-154925952D01*
X61499524Y-154735476D01*
X61547143Y-154640238D01*
X61642381Y-154545000D01*
X61785239Y-154497381D01*
X61880477Y-154497381D01*
X62023334Y-154545000D01*
X62070953Y-154592619D01*
X62928096Y-154497381D02*
X62737619Y-154497381D01*
X62642381Y-154545000D01*
X62594762Y-154592619D01*
X62499524Y-154735476D01*
X62451905Y-154925952D01*
X62451905Y-155306905D01*
X62499524Y-155402143D01*
X62547143Y-155449762D01*
X62642381Y-155497381D01*
X62832858Y-155497381D01*
X62928096Y-155449762D01*
X62975715Y-155402143D01*
X63023334Y-155306905D01*
X63023334Y-155068810D01*
X62975715Y-154973571D01*
X62928096Y-154925952D01*
X62832858Y-154878333D01*
X62642381Y-154878333D01*
X62547143Y-154925952D01*
X62499524Y-154973571D01*
X62451905Y-155068810D01*
X63642381Y-154497381D02*
X63737620Y-154497381D01*
X63832858Y-154545000D01*
X63880477Y-154592619D01*
X63928096Y-154687857D01*
X63975715Y-154878333D01*
X63975715Y-155116429D01*
X63928096Y-155306905D01*
X63880477Y-155402143D01*
X63832858Y-155449762D01*
X63737620Y-155497381D01*
X63642381Y-155497381D01*
X63547143Y-155449762D01*
X63499524Y-155402143D01*
X63451905Y-155306905D01*
X63404286Y-155116429D01*
X63404286Y-154878333D01*
X63451905Y-154687857D01*
X63499524Y-154592619D01*
X63547143Y-154545000D01*
X63642381Y-154497381D01*
X64928096Y-155497381D02*
X64356667Y-155497381D01*
X64642381Y-155497381D02*
X64642381Y-154497381D01*
X64547143Y-154640238D01*
X64451905Y-154735476D01*
X64356667Y-154783095D01*
X64047143Y-165664047D02*
X64094762Y-165711666D01*
X64142381Y-165854523D01*
X64142381Y-165949761D01*
X64094762Y-166092619D01*
X63999524Y-166187857D01*
X63904286Y-166235476D01*
X63713810Y-166283095D01*
X63570952Y-166283095D01*
X63380476Y-166235476D01*
X63285238Y-166187857D01*
X63190000Y-166092619D01*
X63142381Y-165949761D01*
X63142381Y-165854523D01*
X63190000Y-165711666D01*
X63237619Y-165664047D01*
X63142381Y-164806904D02*
X63142381Y-164997381D01*
X63190000Y-165092619D01*
X63237619Y-165140238D01*
X63380476Y-165235476D01*
X63570952Y-165283095D01*
X63951905Y-165283095D01*
X64047143Y-165235476D01*
X64094762Y-165187857D01*
X64142381Y-165092619D01*
X64142381Y-164902142D01*
X64094762Y-164806904D01*
X64047143Y-164759285D01*
X63951905Y-164711666D01*
X63713810Y-164711666D01*
X63618571Y-164759285D01*
X63570952Y-164806904D01*
X63523333Y-164902142D01*
X63523333Y-165092619D01*
X63570952Y-165187857D01*
X63618571Y-165235476D01*
X63713810Y-165283095D01*
X63142381Y-164092619D02*
X63142381Y-163997380D01*
X63190000Y-163902142D01*
X63237619Y-163854523D01*
X63332857Y-163806904D01*
X63523333Y-163759285D01*
X63761429Y-163759285D01*
X63951905Y-163806904D01*
X64047143Y-163854523D01*
X64094762Y-163902142D01*
X64142381Y-163997380D01*
X64142381Y-164092619D01*
X64094762Y-164187857D01*
X64047143Y-164235476D01*
X63951905Y-164283095D01*
X63761429Y-164330714D01*
X63523333Y-164330714D01*
X63332857Y-164283095D01*
X63237619Y-164235476D01*
X63190000Y-164187857D01*
X63142381Y-164092619D01*
X63237619Y-163378333D02*
X63190000Y-163330714D01*
X63142381Y-163235476D01*
X63142381Y-162997380D01*
X63190000Y-162902142D01*
X63237619Y-162854523D01*
X63332857Y-162806904D01*
X63428095Y-162806904D01*
X63570952Y-162854523D01*
X64142381Y-163425952D01*
X64142381Y-162806904D01*
X55047143Y-156164047D02*
X55094762Y-156211666D01*
X55142381Y-156354523D01*
X55142381Y-156449761D01*
X55094762Y-156592619D01*
X54999524Y-156687857D01*
X54904286Y-156735476D01*
X54713810Y-156783095D01*
X54570952Y-156783095D01*
X54380476Y-156735476D01*
X54285238Y-156687857D01*
X54190000Y-156592619D01*
X54142381Y-156449761D01*
X54142381Y-156354523D01*
X54190000Y-156211666D01*
X54237619Y-156164047D01*
X54142381Y-155306904D02*
X54142381Y-155497381D01*
X54190000Y-155592619D01*
X54237619Y-155640238D01*
X54380476Y-155735476D01*
X54570952Y-155783095D01*
X54951905Y-155783095D01*
X55047143Y-155735476D01*
X55094762Y-155687857D01*
X55142381Y-155592619D01*
X55142381Y-155402142D01*
X55094762Y-155306904D01*
X55047143Y-155259285D01*
X54951905Y-155211666D01*
X54713810Y-155211666D01*
X54618571Y-155259285D01*
X54570952Y-155306904D01*
X54523333Y-155402142D01*
X54523333Y-155592619D01*
X54570952Y-155687857D01*
X54618571Y-155735476D01*
X54713810Y-155783095D01*
X54142381Y-154592619D02*
X54142381Y-154497380D01*
X54190000Y-154402142D01*
X54237619Y-154354523D01*
X54332857Y-154306904D01*
X54523333Y-154259285D01*
X54761429Y-154259285D01*
X54951905Y-154306904D01*
X55047143Y-154354523D01*
X55094762Y-154402142D01*
X55142381Y-154497380D01*
X55142381Y-154592619D01*
X55094762Y-154687857D01*
X55047143Y-154735476D01*
X54951905Y-154783095D01*
X54761429Y-154830714D01*
X54523333Y-154830714D01*
X54332857Y-154783095D01*
X54237619Y-154735476D01*
X54190000Y-154687857D01*
X54142381Y-154592619D01*
X54142381Y-153925952D02*
X54142381Y-153306904D01*
X54523333Y-153640238D01*
X54523333Y-153497380D01*
X54570952Y-153402142D01*
X54618571Y-153354523D01*
X54713810Y-153306904D01*
X54951905Y-153306904D01*
X55047143Y-153354523D01*
X55094762Y-153402142D01*
X55142381Y-153497380D01*
X55142381Y-153783095D01*
X55094762Y-153878333D01*
X55047143Y-153925952D01*
X55070953Y-165402143D02*
X55023334Y-165449762D01*
X54880477Y-165497381D01*
X54785239Y-165497381D01*
X54642381Y-165449762D01*
X54547143Y-165354524D01*
X54499524Y-165259286D01*
X54451905Y-165068810D01*
X54451905Y-164925952D01*
X54499524Y-164735476D01*
X54547143Y-164640238D01*
X54642381Y-164545000D01*
X54785239Y-164497381D01*
X54880477Y-164497381D01*
X55023334Y-164545000D01*
X55070953Y-164592619D01*
X55928096Y-164497381D02*
X55737619Y-164497381D01*
X55642381Y-164545000D01*
X55594762Y-164592619D01*
X55499524Y-164735476D01*
X55451905Y-164925952D01*
X55451905Y-165306905D01*
X55499524Y-165402143D01*
X55547143Y-165449762D01*
X55642381Y-165497381D01*
X55832858Y-165497381D01*
X55928096Y-165449762D01*
X55975715Y-165402143D01*
X56023334Y-165306905D01*
X56023334Y-165068810D01*
X55975715Y-164973571D01*
X55928096Y-164925952D01*
X55832858Y-164878333D01*
X55642381Y-164878333D01*
X55547143Y-164925952D01*
X55499524Y-164973571D01*
X55451905Y-165068810D01*
X56642381Y-164497381D02*
X56737620Y-164497381D01*
X56832858Y-164545000D01*
X56880477Y-164592619D01*
X56928096Y-164687857D01*
X56975715Y-164878333D01*
X56975715Y-165116429D01*
X56928096Y-165306905D01*
X56880477Y-165402143D01*
X56832858Y-165449762D01*
X56737620Y-165497381D01*
X56642381Y-165497381D01*
X56547143Y-165449762D01*
X56499524Y-165402143D01*
X56451905Y-165306905D01*
X56404286Y-165116429D01*
X56404286Y-164878333D01*
X56451905Y-164687857D01*
X56499524Y-164592619D01*
X56547143Y-164545000D01*
X56642381Y-164497381D01*
X57880477Y-164497381D02*
X57404286Y-164497381D01*
X57356667Y-164973571D01*
X57404286Y-164925952D01*
X57499524Y-164878333D01*
X57737620Y-164878333D01*
X57832858Y-164925952D01*
X57880477Y-164973571D01*
X57928096Y-165068810D01*
X57928096Y-165306905D01*
X57880477Y-165402143D01*
X57832858Y-165449762D01*
X57737620Y-165497381D01*
X57499524Y-165497381D01*
X57404286Y-165449762D01*
X57356667Y-165402143D01*
X62070953Y-176902143D02*
X62023334Y-176949762D01*
X61880477Y-176997381D01*
X61785239Y-176997381D01*
X61642381Y-176949762D01*
X61547143Y-176854524D01*
X61499524Y-176759286D01*
X61451905Y-176568810D01*
X61451905Y-176425952D01*
X61499524Y-176235476D01*
X61547143Y-176140238D01*
X61642381Y-176045000D01*
X61785239Y-175997381D01*
X61880477Y-175997381D01*
X62023334Y-176045000D01*
X62070953Y-176092619D01*
X62928096Y-175997381D02*
X62737619Y-175997381D01*
X62642381Y-176045000D01*
X62594762Y-176092619D01*
X62499524Y-176235476D01*
X62451905Y-176425952D01*
X62451905Y-176806905D01*
X62499524Y-176902143D01*
X62547143Y-176949762D01*
X62642381Y-176997381D01*
X62832858Y-176997381D01*
X62928096Y-176949762D01*
X62975715Y-176902143D01*
X63023334Y-176806905D01*
X63023334Y-176568810D01*
X62975715Y-176473571D01*
X62928096Y-176425952D01*
X62832858Y-176378333D01*
X62642381Y-176378333D01*
X62547143Y-176425952D01*
X62499524Y-176473571D01*
X62451905Y-176568810D01*
X63642381Y-175997381D02*
X63737620Y-175997381D01*
X63832858Y-176045000D01*
X63880477Y-176092619D01*
X63928096Y-176187857D01*
X63975715Y-176378333D01*
X63975715Y-176616429D01*
X63928096Y-176806905D01*
X63880477Y-176902143D01*
X63832858Y-176949762D01*
X63737620Y-176997381D01*
X63642381Y-176997381D01*
X63547143Y-176949762D01*
X63499524Y-176902143D01*
X63451905Y-176806905D01*
X63404286Y-176616429D01*
X63404286Y-176378333D01*
X63451905Y-176187857D01*
X63499524Y-176092619D01*
X63547143Y-176045000D01*
X63642381Y-175997381D01*
X64309048Y-175997381D02*
X64975715Y-175997381D01*
X64547143Y-176997381D01*
X54070953Y-174902143D02*
X54023334Y-174949762D01*
X53880477Y-174997381D01*
X53785239Y-174997381D01*
X53642381Y-174949762D01*
X53547143Y-174854524D01*
X53499524Y-174759286D01*
X53451905Y-174568810D01*
X53451905Y-174425952D01*
X53499524Y-174235476D01*
X53547143Y-174140238D01*
X53642381Y-174045000D01*
X53785239Y-173997381D01*
X53880477Y-173997381D01*
X54023334Y-174045000D01*
X54070953Y-174092619D01*
X54928096Y-173997381D02*
X54737619Y-173997381D01*
X54642381Y-174045000D01*
X54594762Y-174092619D01*
X54499524Y-174235476D01*
X54451905Y-174425952D01*
X54451905Y-174806905D01*
X54499524Y-174902143D01*
X54547143Y-174949762D01*
X54642381Y-174997381D01*
X54832858Y-174997381D01*
X54928096Y-174949762D01*
X54975715Y-174902143D01*
X55023334Y-174806905D01*
X55023334Y-174568810D01*
X54975715Y-174473571D01*
X54928096Y-174425952D01*
X54832858Y-174378333D01*
X54642381Y-174378333D01*
X54547143Y-174425952D01*
X54499524Y-174473571D01*
X54451905Y-174568810D01*
X55642381Y-173997381D02*
X55737620Y-173997381D01*
X55832858Y-174045000D01*
X55880477Y-174092619D01*
X55928096Y-174187857D01*
X55975715Y-174378333D01*
X55975715Y-174616429D01*
X55928096Y-174806905D01*
X55880477Y-174902143D01*
X55832858Y-174949762D01*
X55737620Y-174997381D01*
X55642381Y-174997381D01*
X55547143Y-174949762D01*
X55499524Y-174902143D01*
X55451905Y-174806905D01*
X55404286Y-174616429D01*
X55404286Y-174378333D01*
X55451905Y-174187857D01*
X55499524Y-174092619D01*
X55547143Y-174045000D01*
X55642381Y-173997381D01*
X56547143Y-174425952D02*
X56451905Y-174378333D01*
X56404286Y-174330714D01*
X56356667Y-174235476D01*
X56356667Y-174187857D01*
X56404286Y-174092619D01*
X56451905Y-174045000D01*
X56547143Y-173997381D01*
X56737620Y-173997381D01*
X56832858Y-174045000D01*
X56880477Y-174092619D01*
X56928096Y-174187857D01*
X56928096Y-174235476D01*
X56880477Y-174330714D01*
X56832858Y-174378333D01*
X56737620Y-174425952D01*
X56547143Y-174425952D01*
X56451905Y-174473571D01*
X56404286Y-174521190D01*
X56356667Y-174616429D01*
X56356667Y-174806905D01*
X56404286Y-174902143D01*
X56451905Y-174949762D01*
X56547143Y-174997381D01*
X56737620Y-174997381D01*
X56832858Y-174949762D01*
X56880477Y-174902143D01*
X56928096Y-174806905D01*
X56928096Y-174616429D01*
X56880477Y-174521190D01*
X56832858Y-174473571D01*
X56737620Y-174425952D01*
X54070953Y-173402143D02*
X54023334Y-173449762D01*
X53880477Y-173497381D01*
X53785239Y-173497381D01*
X53642381Y-173449762D01*
X53547143Y-173354524D01*
X53499524Y-173259286D01*
X53451905Y-173068810D01*
X53451905Y-172925952D01*
X53499524Y-172735476D01*
X53547143Y-172640238D01*
X53642381Y-172545000D01*
X53785239Y-172497381D01*
X53880477Y-172497381D01*
X54023334Y-172545000D01*
X54070953Y-172592619D01*
X54928096Y-172497381D02*
X54737619Y-172497381D01*
X54642381Y-172545000D01*
X54594762Y-172592619D01*
X54499524Y-172735476D01*
X54451905Y-172925952D01*
X54451905Y-173306905D01*
X54499524Y-173402143D01*
X54547143Y-173449762D01*
X54642381Y-173497381D01*
X54832858Y-173497381D01*
X54928096Y-173449762D01*
X54975715Y-173402143D01*
X55023334Y-173306905D01*
X55023334Y-173068810D01*
X54975715Y-172973571D01*
X54928096Y-172925952D01*
X54832858Y-172878333D01*
X54642381Y-172878333D01*
X54547143Y-172925952D01*
X54499524Y-172973571D01*
X54451905Y-173068810D01*
X55642381Y-172497381D02*
X55737620Y-172497381D01*
X55832858Y-172545000D01*
X55880477Y-172592619D01*
X55928096Y-172687857D01*
X55975715Y-172878333D01*
X55975715Y-173116429D01*
X55928096Y-173306905D01*
X55880477Y-173402143D01*
X55832858Y-173449762D01*
X55737620Y-173497381D01*
X55642381Y-173497381D01*
X55547143Y-173449762D01*
X55499524Y-173402143D01*
X55451905Y-173306905D01*
X55404286Y-173116429D01*
X55404286Y-172878333D01*
X55451905Y-172687857D01*
X55499524Y-172592619D01*
X55547143Y-172545000D01*
X55642381Y-172497381D01*
X56451905Y-173497381D02*
X56642381Y-173497381D01*
X56737620Y-173449762D01*
X56785239Y-173402143D01*
X56880477Y-173259286D01*
X56928096Y-173068810D01*
X56928096Y-172687857D01*
X56880477Y-172592619D01*
X56832858Y-172545000D01*
X56737620Y-172497381D01*
X56547143Y-172497381D01*
X56451905Y-172545000D01*
X56404286Y-172592619D01*
X56356667Y-172687857D01*
X56356667Y-172925952D01*
X56404286Y-173021190D01*
X56451905Y-173068810D01*
X56547143Y-173116429D01*
X56737620Y-173116429D01*
X56832858Y-173068810D01*
X56880477Y-173021190D01*
X56928096Y-172925952D01*
X52590953Y-169852143D02*
X52543334Y-169899762D01*
X52400477Y-169947381D01*
X52305239Y-169947381D01*
X52162381Y-169899762D01*
X52067143Y-169804524D01*
X52019524Y-169709286D01*
X51971905Y-169518810D01*
X51971905Y-169375952D01*
X52019524Y-169185476D01*
X52067143Y-169090238D01*
X52162381Y-168995000D01*
X52305239Y-168947381D01*
X52400477Y-168947381D01*
X52543334Y-168995000D01*
X52590953Y-169042619D01*
X53448096Y-168947381D02*
X53257619Y-168947381D01*
X53162381Y-168995000D01*
X53114762Y-169042619D01*
X53019524Y-169185476D01*
X52971905Y-169375952D01*
X52971905Y-169756905D01*
X53019524Y-169852143D01*
X53067143Y-169899762D01*
X53162381Y-169947381D01*
X53352858Y-169947381D01*
X53448096Y-169899762D01*
X53495715Y-169852143D01*
X53543334Y-169756905D01*
X53543334Y-169518810D01*
X53495715Y-169423571D01*
X53448096Y-169375952D01*
X53352858Y-169328333D01*
X53162381Y-169328333D01*
X53067143Y-169375952D01*
X53019524Y-169423571D01*
X52971905Y-169518810D01*
X54495715Y-169947381D02*
X53924286Y-169947381D01*
X54210000Y-169947381D02*
X54210000Y-168947381D01*
X54114762Y-169090238D01*
X54019524Y-169185476D01*
X53924286Y-169233095D01*
X55114762Y-168947381D02*
X55210001Y-168947381D01*
X55305239Y-168995000D01*
X55352858Y-169042619D01*
X55400477Y-169137857D01*
X55448096Y-169328333D01*
X55448096Y-169566429D01*
X55400477Y-169756905D01*
X55352858Y-169852143D01*
X55305239Y-169899762D01*
X55210001Y-169947381D01*
X55114762Y-169947381D01*
X55019524Y-169899762D01*
X54971905Y-169852143D01*
X54924286Y-169756905D01*
X54876667Y-169566429D01*
X54876667Y-169328333D01*
X54924286Y-169137857D01*
X54971905Y-169042619D01*
X55019524Y-168995000D01*
X55114762Y-168947381D01*
X50590953Y-167852143D02*
X50543334Y-167899762D01*
X50400477Y-167947381D01*
X50305239Y-167947381D01*
X50162381Y-167899762D01*
X50067143Y-167804524D01*
X50019524Y-167709286D01*
X49971905Y-167518810D01*
X49971905Y-167375952D01*
X50019524Y-167185476D01*
X50067143Y-167090238D01*
X50162381Y-166995000D01*
X50305239Y-166947381D01*
X50400477Y-166947381D01*
X50543334Y-166995000D01*
X50590953Y-167042619D01*
X51448096Y-166947381D02*
X51257619Y-166947381D01*
X51162381Y-166995000D01*
X51114762Y-167042619D01*
X51019524Y-167185476D01*
X50971905Y-167375952D01*
X50971905Y-167756905D01*
X51019524Y-167852143D01*
X51067143Y-167899762D01*
X51162381Y-167947381D01*
X51352858Y-167947381D01*
X51448096Y-167899762D01*
X51495715Y-167852143D01*
X51543334Y-167756905D01*
X51543334Y-167518810D01*
X51495715Y-167423571D01*
X51448096Y-167375952D01*
X51352858Y-167328333D01*
X51162381Y-167328333D01*
X51067143Y-167375952D01*
X51019524Y-167423571D01*
X50971905Y-167518810D01*
X52495715Y-167947381D02*
X51924286Y-167947381D01*
X52210000Y-167947381D02*
X52210000Y-166947381D01*
X52114762Y-167090238D01*
X52019524Y-167185476D01*
X51924286Y-167233095D01*
X53448096Y-167947381D02*
X52876667Y-167947381D01*
X53162381Y-167947381D02*
X53162381Y-166947381D01*
X53067143Y-167090238D01*
X52971905Y-167185476D01*
X52876667Y-167233095D01*
X104662381Y-160530714D02*
X105376667Y-160530714D01*
X105519524Y-160578334D01*
X105614762Y-160673572D01*
X105662381Y-160816429D01*
X105662381Y-160911667D01*
X105662381Y-160054524D02*
X104662381Y-160054524D01*
X104662381Y-159673571D01*
X104710000Y-159578333D01*
X104757619Y-159530714D01*
X104852857Y-159483095D01*
X104995714Y-159483095D01*
X105090952Y-159530714D01*
X105138571Y-159578333D01*
X105186190Y-159673571D01*
X105186190Y-160054524D01*
X104757619Y-159102143D02*
X104710000Y-159054524D01*
X104662381Y-158959286D01*
X104662381Y-158721190D01*
X104710000Y-158625952D01*
X104757619Y-158578333D01*
X104852857Y-158530714D01*
X104948095Y-158530714D01*
X105090952Y-158578333D01*
X105662381Y-159149762D01*
X105662381Y-158530714D01*
X104662381Y-157911667D02*
X104662381Y-157816428D01*
X104710000Y-157721190D01*
X104757619Y-157673571D01*
X104852857Y-157625952D01*
X105043333Y-157578333D01*
X105281429Y-157578333D01*
X105471905Y-157625952D01*
X105567143Y-157673571D01*
X105614762Y-157721190D01*
X105662381Y-157816428D01*
X105662381Y-157911667D01*
X105614762Y-158006905D01*
X105567143Y-158054524D01*
X105471905Y-158102143D01*
X105281429Y-158149762D01*
X105043333Y-158149762D01*
X104852857Y-158102143D01*
X104757619Y-158054524D01*
X104710000Y-158006905D01*
X104662381Y-157911667D01*
X104662381Y-157245000D02*
X104662381Y-156625952D01*
X105043333Y-156959286D01*
X105043333Y-156816428D01*
X105090952Y-156721190D01*
X105138571Y-156673571D01*
X105233810Y-156625952D01*
X105471905Y-156625952D01*
X105567143Y-156673571D01*
X105614762Y-156721190D01*
X105662381Y-156816428D01*
X105662381Y-157102143D01*
X105614762Y-157197381D01*
X105567143Y-157245000D01*
X38142381Y-131830714D02*
X38856667Y-131830714D01*
X38999524Y-131878334D01*
X39094762Y-131973572D01*
X39142381Y-132116429D01*
X39142381Y-132211667D01*
X39142381Y-131354524D02*
X38142381Y-131354524D01*
X38142381Y-130973571D01*
X38190000Y-130878333D01*
X38237619Y-130830714D01*
X38332857Y-130783095D01*
X38475714Y-130783095D01*
X38570952Y-130830714D01*
X38618571Y-130878333D01*
X38666190Y-130973571D01*
X38666190Y-131354524D01*
X38142381Y-130449762D02*
X38142381Y-129783095D01*
X39142381Y-130211667D01*
X38142381Y-129211667D02*
X38142381Y-129116428D01*
X38190000Y-129021190D01*
X38237619Y-128973571D01*
X38332857Y-128925952D01*
X38523333Y-128878333D01*
X38761429Y-128878333D01*
X38951905Y-128925952D01*
X39047143Y-128973571D01*
X39094762Y-129021190D01*
X39142381Y-129116428D01*
X39142381Y-129211667D01*
X39094762Y-129306905D01*
X39047143Y-129354524D01*
X38951905Y-129402143D01*
X38761429Y-129449762D01*
X38523333Y-129449762D01*
X38332857Y-129402143D01*
X38237619Y-129354524D01*
X38190000Y-129306905D01*
X38142381Y-129211667D01*
X39142381Y-127925952D02*
X39142381Y-128497381D01*
X39142381Y-128211667D02*
X38142381Y-128211667D01*
X38285238Y-128306905D01*
X38380476Y-128402143D01*
X38428095Y-128497381D01*
D19*
X100695166Y-163447167D02*
X100271833Y-163447167D01*
X100271833Y-162558167D01*
X100906833Y-162558167D02*
X101457166Y-162558167D01*
X101160833Y-162896833D01*
X101287833Y-162896833D01*
X101372500Y-162939167D01*
X101414833Y-162981500D01*
X101457166Y-163066167D01*
X101457166Y-163277833D01*
X101414833Y-163362500D01*
X101372500Y-163404833D01*
X101287833Y-163447167D01*
X101033833Y-163447167D01*
X100949166Y-163404833D01*
X100906833Y-163362500D01*
X102007500Y-162558167D02*
X102092167Y-162558167D01*
X102176833Y-162600500D01*
X102219167Y-162642833D01*
X102261500Y-162727500D01*
X102303833Y-162896833D01*
X102303833Y-163108500D01*
X102261500Y-163277833D01*
X102219167Y-163362500D01*
X102176833Y-163404833D01*
X102092167Y-163447167D01*
X102007500Y-163447167D01*
X101922833Y-163404833D01*
X101880500Y-163362500D01*
X101838167Y-163277833D01*
X101795833Y-163108500D01*
X101795833Y-162896833D01*
X101838167Y-162727500D01*
X101880500Y-162642833D01*
X101922833Y-162600500D01*
X102007500Y-162558167D01*
X103150500Y-163447167D02*
X102642500Y-163447167D01*
X102896500Y-163447167D02*
X102896500Y-162558167D01*
X102811834Y-162685167D01*
X102727167Y-162769833D01*
X102642500Y-162812167D01*
D13*
X102642381Y-168664047D02*
X102166190Y-168997381D01*
X102642381Y-169235476D02*
X101642381Y-169235476D01*
X101642381Y-168854523D01*
X101690000Y-168759285D01*
X101737619Y-168711666D01*
X101832857Y-168664047D01*
X101975714Y-168664047D01*
X102070952Y-168711666D01*
X102118571Y-168759285D01*
X102166190Y-168854523D01*
X102166190Y-169235476D01*
X101737619Y-168283095D02*
X101690000Y-168235476D01*
X101642381Y-168140238D01*
X101642381Y-167902142D01*
X101690000Y-167806904D01*
X101737619Y-167759285D01*
X101832857Y-167711666D01*
X101928095Y-167711666D01*
X102070952Y-167759285D01*
X102642381Y-168330714D01*
X102642381Y-167711666D01*
X101642381Y-167092619D02*
X101642381Y-166997380D01*
X101690000Y-166902142D01*
X101737619Y-166854523D01*
X101832857Y-166806904D01*
X102023333Y-166759285D01*
X102261429Y-166759285D01*
X102451905Y-166806904D01*
X102547143Y-166854523D01*
X102594762Y-166902142D01*
X102642381Y-166997380D01*
X102642381Y-167092619D01*
X102594762Y-167187857D01*
X102547143Y-167235476D01*
X102451905Y-167283095D01*
X102261429Y-167330714D01*
X102023333Y-167330714D01*
X101832857Y-167283095D01*
X101737619Y-167235476D01*
X101690000Y-167187857D01*
X101642381Y-167092619D01*
X102642381Y-165806904D02*
X102642381Y-166378333D01*
X102642381Y-166092619D02*
X101642381Y-166092619D01*
X101785238Y-166187857D01*
X101880476Y-166283095D01*
X101928095Y-166378333D01*
X102642381Y-172664047D02*
X102166190Y-172997381D01*
X102642381Y-173235476D02*
X101642381Y-173235476D01*
X101642381Y-172854523D01*
X101690000Y-172759285D01*
X101737619Y-172711666D01*
X101832857Y-172664047D01*
X101975714Y-172664047D01*
X102070952Y-172711666D01*
X102118571Y-172759285D01*
X102166190Y-172854523D01*
X102166190Y-173235476D01*
X101737619Y-172283095D02*
X101690000Y-172235476D01*
X101642381Y-172140238D01*
X101642381Y-171902142D01*
X101690000Y-171806904D01*
X101737619Y-171759285D01*
X101832857Y-171711666D01*
X101928095Y-171711666D01*
X102070952Y-171759285D01*
X102642381Y-172330714D01*
X102642381Y-171711666D01*
X101642381Y-171092619D02*
X101642381Y-170997380D01*
X101690000Y-170902142D01*
X101737619Y-170854523D01*
X101832857Y-170806904D01*
X102023333Y-170759285D01*
X102261429Y-170759285D01*
X102451905Y-170806904D01*
X102547143Y-170854523D01*
X102594762Y-170902142D01*
X102642381Y-170997380D01*
X102642381Y-171092619D01*
X102594762Y-171187857D01*
X102547143Y-171235476D01*
X102451905Y-171283095D01*
X102261429Y-171330714D01*
X102023333Y-171330714D01*
X101832857Y-171283095D01*
X101737619Y-171235476D01*
X101690000Y-171187857D01*
X101642381Y-171092619D01*
X101737619Y-170378333D02*
X101690000Y-170330714D01*
X101642381Y-170235476D01*
X101642381Y-169997380D01*
X101690000Y-169902142D01*
X101737619Y-169854523D01*
X101832857Y-169806904D01*
X101928095Y-169806904D01*
X102070952Y-169854523D01*
X102642381Y-170425952D01*
X102642381Y-169806904D01*
X113642381Y-151164047D02*
X113166190Y-151497381D01*
X113642381Y-151735476D02*
X112642381Y-151735476D01*
X112642381Y-151354523D01*
X112690000Y-151259285D01*
X112737619Y-151211666D01*
X112832857Y-151164047D01*
X112975714Y-151164047D01*
X113070952Y-151211666D01*
X113118571Y-151259285D01*
X113166190Y-151354523D01*
X113166190Y-151735476D01*
X112737619Y-150783095D02*
X112690000Y-150735476D01*
X112642381Y-150640238D01*
X112642381Y-150402142D01*
X112690000Y-150306904D01*
X112737619Y-150259285D01*
X112832857Y-150211666D01*
X112928095Y-150211666D01*
X113070952Y-150259285D01*
X113642381Y-150830714D01*
X113642381Y-150211666D01*
X112642381Y-149592619D02*
X112642381Y-149497380D01*
X112690000Y-149402142D01*
X112737619Y-149354523D01*
X112832857Y-149306904D01*
X113023333Y-149259285D01*
X113261429Y-149259285D01*
X113451905Y-149306904D01*
X113547143Y-149354523D01*
X113594762Y-149402142D01*
X113642381Y-149497380D01*
X113642381Y-149592619D01*
X113594762Y-149687857D01*
X113547143Y-149735476D01*
X113451905Y-149783095D01*
X113261429Y-149830714D01*
X113023333Y-149830714D01*
X112832857Y-149783095D01*
X112737619Y-149735476D01*
X112690000Y-149687857D01*
X112642381Y-149592619D01*
X112642381Y-148925952D02*
X112642381Y-148306904D01*
X113023333Y-148640238D01*
X113023333Y-148497380D01*
X113070952Y-148402142D01*
X113118571Y-148354523D01*
X113213810Y-148306904D01*
X113451905Y-148306904D01*
X113547143Y-148354523D01*
X113594762Y-148402142D01*
X113642381Y-148497380D01*
X113642381Y-148783095D01*
X113594762Y-148878333D01*
X113547143Y-148925952D01*
X111642381Y-141664047D02*
X111166190Y-141997381D01*
X111642381Y-142235476D02*
X110642381Y-142235476D01*
X110642381Y-141854523D01*
X110690000Y-141759285D01*
X110737619Y-141711666D01*
X110832857Y-141664047D01*
X110975714Y-141664047D01*
X111070952Y-141711666D01*
X111118571Y-141759285D01*
X111166190Y-141854523D01*
X111166190Y-142235476D01*
X110737619Y-141283095D02*
X110690000Y-141235476D01*
X110642381Y-141140238D01*
X110642381Y-140902142D01*
X110690000Y-140806904D01*
X110737619Y-140759285D01*
X110832857Y-140711666D01*
X110928095Y-140711666D01*
X111070952Y-140759285D01*
X111642381Y-141330714D01*
X111642381Y-140711666D01*
X110642381Y-140092619D02*
X110642381Y-139997380D01*
X110690000Y-139902142D01*
X110737619Y-139854523D01*
X110832857Y-139806904D01*
X111023333Y-139759285D01*
X111261429Y-139759285D01*
X111451905Y-139806904D01*
X111547143Y-139854523D01*
X111594762Y-139902142D01*
X111642381Y-139997380D01*
X111642381Y-140092619D01*
X111594762Y-140187857D01*
X111547143Y-140235476D01*
X111451905Y-140283095D01*
X111261429Y-140330714D01*
X111023333Y-140330714D01*
X110832857Y-140283095D01*
X110737619Y-140235476D01*
X110690000Y-140187857D01*
X110642381Y-140092619D01*
X110975714Y-138902142D02*
X111642381Y-138902142D01*
X110594762Y-139140238D02*
X111309048Y-139378333D01*
X111309048Y-138759285D01*
X111642381Y-151164047D02*
X111166190Y-151497381D01*
X111642381Y-151735476D02*
X110642381Y-151735476D01*
X110642381Y-151354523D01*
X110690000Y-151259285D01*
X110737619Y-151211666D01*
X110832857Y-151164047D01*
X110975714Y-151164047D01*
X111070952Y-151211666D01*
X111118571Y-151259285D01*
X111166190Y-151354523D01*
X111166190Y-151735476D01*
X110737619Y-150783095D02*
X110690000Y-150735476D01*
X110642381Y-150640238D01*
X110642381Y-150402142D01*
X110690000Y-150306904D01*
X110737619Y-150259285D01*
X110832857Y-150211666D01*
X110928095Y-150211666D01*
X111070952Y-150259285D01*
X111642381Y-150830714D01*
X111642381Y-150211666D01*
X110642381Y-149592619D02*
X110642381Y-149497380D01*
X110690000Y-149402142D01*
X110737619Y-149354523D01*
X110832857Y-149306904D01*
X111023333Y-149259285D01*
X111261429Y-149259285D01*
X111451905Y-149306904D01*
X111547143Y-149354523D01*
X111594762Y-149402142D01*
X111642381Y-149497380D01*
X111642381Y-149592619D01*
X111594762Y-149687857D01*
X111547143Y-149735476D01*
X111451905Y-149783095D01*
X111261429Y-149830714D01*
X111023333Y-149830714D01*
X110832857Y-149783095D01*
X110737619Y-149735476D01*
X110690000Y-149687857D01*
X110642381Y-149592619D01*
X110642381Y-148354523D02*
X110642381Y-148830714D01*
X111118571Y-148878333D01*
X111070952Y-148830714D01*
X111023333Y-148735476D01*
X111023333Y-148497380D01*
X111070952Y-148402142D01*
X111118571Y-148354523D01*
X111213810Y-148306904D01*
X111451905Y-148306904D01*
X111547143Y-148354523D01*
X111594762Y-148402142D01*
X111642381Y-148497380D01*
X111642381Y-148735476D01*
X111594762Y-148830714D01*
X111547143Y-148878333D01*
X89142381Y-179164047D02*
X88666190Y-179497381D01*
X89142381Y-179735476D02*
X88142381Y-179735476D01*
X88142381Y-179354523D01*
X88190000Y-179259285D01*
X88237619Y-179211666D01*
X88332857Y-179164047D01*
X88475714Y-179164047D01*
X88570952Y-179211666D01*
X88618571Y-179259285D01*
X88666190Y-179354523D01*
X88666190Y-179735476D01*
X88142381Y-178830714D02*
X88142381Y-178211666D01*
X88523333Y-178545000D01*
X88523333Y-178402142D01*
X88570952Y-178306904D01*
X88618571Y-178259285D01*
X88713810Y-178211666D01*
X88951905Y-178211666D01*
X89047143Y-178259285D01*
X89094762Y-178306904D01*
X89142381Y-178402142D01*
X89142381Y-178687857D01*
X89094762Y-178783095D01*
X89047143Y-178830714D01*
X88142381Y-177592619D02*
X88142381Y-177497380D01*
X88190000Y-177402142D01*
X88237619Y-177354523D01*
X88332857Y-177306904D01*
X88523333Y-177259285D01*
X88761429Y-177259285D01*
X88951905Y-177306904D01*
X89047143Y-177354523D01*
X89094762Y-177402142D01*
X89142381Y-177497380D01*
X89142381Y-177592619D01*
X89094762Y-177687857D01*
X89047143Y-177735476D01*
X88951905Y-177783095D01*
X88761429Y-177830714D01*
X88523333Y-177830714D01*
X88332857Y-177783095D01*
X88237619Y-177735476D01*
X88190000Y-177687857D01*
X88142381Y-177592619D01*
X89142381Y-176306904D02*
X89142381Y-176878333D01*
X89142381Y-176592619D02*
X88142381Y-176592619D01*
X88285238Y-176687857D01*
X88380476Y-176783095D01*
X88428095Y-176878333D01*
X82142381Y-178664047D02*
X81666190Y-178997381D01*
X82142381Y-179235476D02*
X81142381Y-179235476D01*
X81142381Y-178854523D01*
X81190000Y-178759285D01*
X81237619Y-178711666D01*
X81332857Y-178664047D01*
X81475714Y-178664047D01*
X81570952Y-178711666D01*
X81618571Y-178759285D01*
X81666190Y-178854523D01*
X81666190Y-179235476D01*
X81142381Y-178330714D02*
X81142381Y-177711666D01*
X81523333Y-178045000D01*
X81523333Y-177902142D01*
X81570952Y-177806904D01*
X81618571Y-177759285D01*
X81713810Y-177711666D01*
X81951905Y-177711666D01*
X82047143Y-177759285D01*
X82094762Y-177806904D01*
X82142381Y-177902142D01*
X82142381Y-178187857D01*
X82094762Y-178283095D01*
X82047143Y-178330714D01*
X81142381Y-177092619D02*
X81142381Y-176997380D01*
X81190000Y-176902142D01*
X81237619Y-176854523D01*
X81332857Y-176806904D01*
X81523333Y-176759285D01*
X81761429Y-176759285D01*
X81951905Y-176806904D01*
X82047143Y-176854523D01*
X82094762Y-176902142D01*
X82142381Y-176997380D01*
X82142381Y-177092619D01*
X82094762Y-177187857D01*
X82047143Y-177235476D01*
X81951905Y-177283095D01*
X81761429Y-177330714D01*
X81523333Y-177330714D01*
X81332857Y-177283095D01*
X81237619Y-177235476D01*
X81190000Y-177187857D01*
X81142381Y-177092619D01*
X81142381Y-176425952D02*
X81142381Y-175806904D01*
X81523333Y-176140238D01*
X81523333Y-175997380D01*
X81570952Y-175902142D01*
X81618571Y-175854523D01*
X81713810Y-175806904D01*
X81951905Y-175806904D01*
X82047143Y-175854523D01*
X82094762Y-175902142D01*
X82142381Y-175997380D01*
X82142381Y-176283095D01*
X82094762Y-176378333D01*
X82047143Y-176425952D01*
X78142381Y-178664047D02*
X77666190Y-178997381D01*
X78142381Y-179235476D02*
X77142381Y-179235476D01*
X77142381Y-178854523D01*
X77190000Y-178759285D01*
X77237619Y-178711666D01*
X77332857Y-178664047D01*
X77475714Y-178664047D01*
X77570952Y-178711666D01*
X77618571Y-178759285D01*
X77666190Y-178854523D01*
X77666190Y-179235476D01*
X77142381Y-178330714D02*
X77142381Y-177711666D01*
X77523333Y-178045000D01*
X77523333Y-177902142D01*
X77570952Y-177806904D01*
X77618571Y-177759285D01*
X77713810Y-177711666D01*
X77951905Y-177711666D01*
X78047143Y-177759285D01*
X78094762Y-177806904D01*
X78142381Y-177902142D01*
X78142381Y-178187857D01*
X78094762Y-178283095D01*
X78047143Y-178330714D01*
X77142381Y-177092619D02*
X77142381Y-176997380D01*
X77190000Y-176902142D01*
X77237619Y-176854523D01*
X77332857Y-176806904D01*
X77523333Y-176759285D01*
X77761429Y-176759285D01*
X77951905Y-176806904D01*
X78047143Y-176854523D01*
X78094762Y-176902142D01*
X78142381Y-176997380D01*
X78142381Y-177092619D01*
X78094762Y-177187857D01*
X78047143Y-177235476D01*
X77951905Y-177283095D01*
X77761429Y-177330714D01*
X77523333Y-177330714D01*
X77332857Y-177283095D01*
X77237619Y-177235476D01*
X77190000Y-177187857D01*
X77142381Y-177092619D01*
X77142381Y-175854523D02*
X77142381Y-176330714D01*
X77618571Y-176378333D01*
X77570952Y-176330714D01*
X77523333Y-176235476D01*
X77523333Y-175997380D01*
X77570952Y-175902142D01*
X77618571Y-175854523D01*
X77713810Y-175806904D01*
X77951905Y-175806904D01*
X78047143Y-175854523D01*
X78094762Y-175902142D01*
X78142381Y-175997380D01*
X78142381Y-176235476D01*
X78094762Y-176330714D01*
X78047143Y-176378333D01*
X117142381Y-142164047D02*
X116666190Y-142497381D01*
X117142381Y-142735476D02*
X116142381Y-142735476D01*
X116142381Y-142354523D01*
X116190000Y-142259285D01*
X116237619Y-142211666D01*
X116332857Y-142164047D01*
X116475714Y-142164047D01*
X116570952Y-142211666D01*
X116618571Y-142259285D01*
X116666190Y-142354523D01*
X116666190Y-142735476D01*
X116142381Y-141830714D02*
X116142381Y-141211666D01*
X116523333Y-141545000D01*
X116523333Y-141402142D01*
X116570952Y-141306904D01*
X116618571Y-141259285D01*
X116713810Y-141211666D01*
X116951905Y-141211666D01*
X117047143Y-141259285D01*
X117094762Y-141306904D01*
X117142381Y-141402142D01*
X117142381Y-141687857D01*
X117094762Y-141783095D01*
X117047143Y-141830714D01*
X116142381Y-140592619D02*
X116142381Y-140497380D01*
X116190000Y-140402142D01*
X116237619Y-140354523D01*
X116332857Y-140306904D01*
X116523333Y-140259285D01*
X116761429Y-140259285D01*
X116951905Y-140306904D01*
X117047143Y-140354523D01*
X117094762Y-140402142D01*
X117142381Y-140497380D01*
X117142381Y-140592619D01*
X117094762Y-140687857D01*
X117047143Y-140735476D01*
X116951905Y-140783095D01*
X116761429Y-140830714D01*
X116523333Y-140830714D01*
X116332857Y-140783095D01*
X116237619Y-140735476D01*
X116190000Y-140687857D01*
X116142381Y-140592619D01*
X116142381Y-139402142D02*
X116142381Y-139592619D01*
X116190000Y-139687857D01*
X116237619Y-139735476D01*
X116380476Y-139830714D01*
X116570952Y-139878333D01*
X116951905Y-139878333D01*
X117047143Y-139830714D01*
X117094762Y-139783095D01*
X117142381Y-139687857D01*
X117142381Y-139497380D01*
X117094762Y-139402142D01*
X117047143Y-139354523D01*
X116951905Y-139306904D01*
X116713810Y-139306904D01*
X116618571Y-139354523D01*
X116570952Y-139402142D01*
X116523333Y-139497380D01*
X116523333Y-139687857D01*
X116570952Y-139783095D01*
X116618571Y-139830714D01*
X116713810Y-139878333D01*
X116142381Y-148664047D02*
X115666190Y-148997381D01*
X116142381Y-149235476D02*
X115142381Y-149235476D01*
X115142381Y-148854523D01*
X115190000Y-148759285D01*
X115237619Y-148711666D01*
X115332857Y-148664047D01*
X115475714Y-148664047D01*
X115570952Y-148711666D01*
X115618571Y-148759285D01*
X115666190Y-148854523D01*
X115666190Y-149235476D01*
X115142381Y-148330714D02*
X115142381Y-147711666D01*
X115523333Y-148045000D01*
X115523333Y-147902142D01*
X115570952Y-147806904D01*
X115618571Y-147759285D01*
X115713810Y-147711666D01*
X115951905Y-147711666D01*
X116047143Y-147759285D01*
X116094762Y-147806904D01*
X116142381Y-147902142D01*
X116142381Y-148187857D01*
X116094762Y-148283095D01*
X116047143Y-148330714D01*
X115142381Y-147092619D02*
X115142381Y-146997380D01*
X115190000Y-146902142D01*
X115237619Y-146854523D01*
X115332857Y-146806904D01*
X115523333Y-146759285D01*
X115761429Y-146759285D01*
X115951905Y-146806904D01*
X116047143Y-146854523D01*
X116094762Y-146902142D01*
X116142381Y-146997380D01*
X116142381Y-147092619D01*
X116094762Y-147187857D01*
X116047143Y-147235476D01*
X115951905Y-147283095D01*
X115761429Y-147330714D01*
X115523333Y-147330714D01*
X115332857Y-147283095D01*
X115237619Y-147235476D01*
X115190000Y-147187857D01*
X115142381Y-147092619D01*
X115142381Y-146425952D02*
X115142381Y-145759285D01*
X116142381Y-146187857D01*
X101070953Y-153997381D02*
X100737619Y-153521190D01*
X100499524Y-153997381D02*
X100499524Y-152997381D01*
X100880477Y-152997381D01*
X100975715Y-153045000D01*
X101023334Y-153092619D01*
X101070953Y-153187857D01*
X101070953Y-153330714D01*
X101023334Y-153425952D01*
X100975715Y-153473571D01*
X100880477Y-153521190D01*
X100499524Y-153521190D01*
X101404286Y-152997381D02*
X102023334Y-152997381D01*
X101690000Y-153378333D01*
X101832858Y-153378333D01*
X101928096Y-153425952D01*
X101975715Y-153473571D01*
X102023334Y-153568810D01*
X102023334Y-153806905D01*
X101975715Y-153902143D01*
X101928096Y-153949762D01*
X101832858Y-153997381D01*
X101547143Y-153997381D01*
X101451905Y-153949762D01*
X101404286Y-153902143D01*
X102642381Y-152997381D02*
X102737620Y-152997381D01*
X102832858Y-153045000D01*
X102880477Y-153092619D01*
X102928096Y-153187857D01*
X102975715Y-153378333D01*
X102975715Y-153616429D01*
X102928096Y-153806905D01*
X102880477Y-153902143D01*
X102832858Y-153949762D01*
X102737620Y-153997381D01*
X102642381Y-153997381D01*
X102547143Y-153949762D01*
X102499524Y-153902143D01*
X102451905Y-153806905D01*
X102404286Y-153616429D01*
X102404286Y-153378333D01*
X102451905Y-153187857D01*
X102499524Y-153092619D01*
X102547143Y-153045000D01*
X102642381Y-152997381D01*
X103547143Y-153425952D02*
X103451905Y-153378333D01*
X103404286Y-153330714D01*
X103356667Y-153235476D01*
X103356667Y-153187857D01*
X103404286Y-153092619D01*
X103451905Y-153045000D01*
X103547143Y-152997381D01*
X103737620Y-152997381D01*
X103832858Y-153045000D01*
X103880477Y-153092619D01*
X103928096Y-153187857D01*
X103928096Y-153235476D01*
X103880477Y-153330714D01*
X103832858Y-153378333D01*
X103737620Y-153425952D01*
X103547143Y-153425952D01*
X103451905Y-153473571D01*
X103404286Y-153521190D01*
X103356667Y-153616429D01*
X103356667Y-153806905D01*
X103404286Y-153902143D01*
X103451905Y-153949762D01*
X103547143Y-153997381D01*
X103737620Y-153997381D01*
X103832858Y-153949762D01*
X103880477Y-153902143D01*
X103928096Y-153806905D01*
X103928096Y-153616429D01*
X103880477Y-153521190D01*
X103832858Y-153473571D01*
X103737620Y-153425952D01*
X108070953Y-154997381D02*
X107737619Y-154521190D01*
X107499524Y-154997381D02*
X107499524Y-153997381D01*
X107880477Y-153997381D01*
X107975715Y-154045000D01*
X108023334Y-154092619D01*
X108070953Y-154187857D01*
X108070953Y-154330714D01*
X108023334Y-154425952D01*
X107975715Y-154473571D01*
X107880477Y-154521190D01*
X107499524Y-154521190D01*
X108404286Y-153997381D02*
X109023334Y-153997381D01*
X108690000Y-154378333D01*
X108832858Y-154378333D01*
X108928096Y-154425952D01*
X108975715Y-154473571D01*
X109023334Y-154568810D01*
X109023334Y-154806905D01*
X108975715Y-154902143D01*
X108928096Y-154949762D01*
X108832858Y-154997381D01*
X108547143Y-154997381D01*
X108451905Y-154949762D01*
X108404286Y-154902143D01*
X109642381Y-153997381D02*
X109737620Y-153997381D01*
X109832858Y-154045000D01*
X109880477Y-154092619D01*
X109928096Y-154187857D01*
X109975715Y-154378333D01*
X109975715Y-154616429D01*
X109928096Y-154806905D01*
X109880477Y-154902143D01*
X109832858Y-154949762D01*
X109737620Y-154997381D01*
X109642381Y-154997381D01*
X109547143Y-154949762D01*
X109499524Y-154902143D01*
X109451905Y-154806905D01*
X109404286Y-154616429D01*
X109404286Y-154378333D01*
X109451905Y-154187857D01*
X109499524Y-154092619D01*
X109547143Y-154045000D01*
X109642381Y-153997381D01*
X110451905Y-154997381D02*
X110642381Y-154997381D01*
X110737620Y-154949762D01*
X110785239Y-154902143D01*
X110880477Y-154759286D01*
X110928096Y-154568810D01*
X110928096Y-154187857D01*
X110880477Y-154092619D01*
X110832858Y-154045000D01*
X110737620Y-153997381D01*
X110547143Y-153997381D01*
X110451905Y-154045000D01*
X110404286Y-154092619D01*
X110356667Y-154187857D01*
X110356667Y-154425952D01*
X110404286Y-154521190D01*
X110451905Y-154568810D01*
X110547143Y-154616429D01*
X110737620Y-154616429D01*
X110832858Y-154568810D01*
X110880477Y-154521190D01*
X110928096Y-154425952D01*
X71670953Y-136397381D02*
X71337619Y-135921190D01*
X71099524Y-136397381D02*
X71099524Y-135397381D01*
X71480477Y-135397381D01*
X71575715Y-135445000D01*
X71623334Y-135492619D01*
X71670953Y-135587857D01*
X71670953Y-135730714D01*
X71623334Y-135825952D01*
X71575715Y-135873571D01*
X71480477Y-135921190D01*
X71099524Y-135921190D01*
X72575715Y-135397381D02*
X72099524Y-135397381D01*
X72051905Y-135873571D01*
X72099524Y-135825952D01*
X72194762Y-135778333D01*
X72432858Y-135778333D01*
X72528096Y-135825952D01*
X72575715Y-135873571D01*
X72623334Y-135968810D01*
X72623334Y-136206905D01*
X72575715Y-136302143D01*
X72528096Y-136349762D01*
X72432858Y-136397381D01*
X72194762Y-136397381D01*
X72099524Y-136349762D01*
X72051905Y-136302143D01*
X73242381Y-135397381D02*
X73337620Y-135397381D01*
X73432858Y-135445000D01*
X73480477Y-135492619D01*
X73528096Y-135587857D01*
X73575715Y-135778333D01*
X73575715Y-136016429D01*
X73528096Y-136206905D01*
X73480477Y-136302143D01*
X73432858Y-136349762D01*
X73337620Y-136397381D01*
X73242381Y-136397381D01*
X73147143Y-136349762D01*
X73099524Y-136302143D01*
X73051905Y-136206905D01*
X73004286Y-136016429D01*
X73004286Y-135778333D01*
X73051905Y-135587857D01*
X73099524Y-135492619D01*
X73147143Y-135445000D01*
X73242381Y-135397381D01*
X74528096Y-136397381D02*
X73956667Y-136397381D01*
X74242381Y-136397381D02*
X74242381Y-135397381D01*
X74147143Y-135540238D01*
X74051905Y-135635476D01*
X73956667Y-135683095D01*
X101162381Y-181614047D02*
X100686190Y-181947381D01*
X101162381Y-182185476D02*
X100162381Y-182185476D01*
X100162381Y-181804523D01*
X100210000Y-181709285D01*
X100257619Y-181661666D01*
X100352857Y-181614047D01*
X100495714Y-181614047D01*
X100590952Y-181661666D01*
X100638571Y-181709285D01*
X100686190Y-181804523D01*
X100686190Y-182185476D01*
X100162381Y-180709285D02*
X100162381Y-181185476D01*
X100638571Y-181233095D01*
X100590952Y-181185476D01*
X100543333Y-181090238D01*
X100543333Y-180852142D01*
X100590952Y-180756904D01*
X100638571Y-180709285D01*
X100733810Y-180661666D01*
X100971905Y-180661666D01*
X101067143Y-180709285D01*
X101114762Y-180756904D01*
X101162381Y-180852142D01*
X101162381Y-181090238D01*
X101114762Y-181185476D01*
X101067143Y-181233095D01*
X100162381Y-180042619D02*
X100162381Y-179947380D01*
X100210000Y-179852142D01*
X100257619Y-179804523D01*
X100352857Y-179756904D01*
X100543333Y-179709285D01*
X100781429Y-179709285D01*
X100971905Y-179756904D01*
X101067143Y-179804523D01*
X101114762Y-179852142D01*
X101162381Y-179947380D01*
X101162381Y-180042619D01*
X101114762Y-180137857D01*
X101067143Y-180185476D01*
X100971905Y-180233095D01*
X100781429Y-180280714D01*
X100543333Y-180280714D01*
X100352857Y-180233095D01*
X100257619Y-180185476D01*
X100210000Y-180137857D01*
X100162381Y-180042619D01*
X100257619Y-179328333D02*
X100210000Y-179280714D01*
X100162381Y-179185476D01*
X100162381Y-178947380D01*
X100210000Y-178852142D01*
X100257619Y-178804523D01*
X100352857Y-178756904D01*
X100448095Y-178756904D01*
X100590952Y-178804523D01*
X101162381Y-179375952D01*
X101162381Y-178756904D01*
X69142381Y-158164047D02*
X68666190Y-158497381D01*
X69142381Y-158735476D02*
X68142381Y-158735476D01*
X68142381Y-158354523D01*
X68190000Y-158259285D01*
X68237619Y-158211666D01*
X68332857Y-158164047D01*
X68475714Y-158164047D01*
X68570952Y-158211666D01*
X68618571Y-158259285D01*
X68666190Y-158354523D01*
X68666190Y-158735476D01*
X68142381Y-157306904D02*
X68142381Y-157497381D01*
X68190000Y-157592619D01*
X68237619Y-157640238D01*
X68380476Y-157735476D01*
X68570952Y-157783095D01*
X68951905Y-157783095D01*
X69047143Y-157735476D01*
X69094762Y-157687857D01*
X69142381Y-157592619D01*
X69142381Y-157402142D01*
X69094762Y-157306904D01*
X69047143Y-157259285D01*
X68951905Y-157211666D01*
X68713810Y-157211666D01*
X68618571Y-157259285D01*
X68570952Y-157306904D01*
X68523333Y-157402142D01*
X68523333Y-157592619D01*
X68570952Y-157687857D01*
X68618571Y-157735476D01*
X68713810Y-157783095D01*
X68142381Y-156592619D02*
X68142381Y-156497380D01*
X68190000Y-156402142D01*
X68237619Y-156354523D01*
X68332857Y-156306904D01*
X68523333Y-156259285D01*
X68761429Y-156259285D01*
X68951905Y-156306904D01*
X69047143Y-156354523D01*
X69094762Y-156402142D01*
X69142381Y-156497380D01*
X69142381Y-156592619D01*
X69094762Y-156687857D01*
X69047143Y-156735476D01*
X68951905Y-156783095D01*
X68761429Y-156830714D01*
X68523333Y-156830714D01*
X68332857Y-156783095D01*
X68237619Y-156735476D01*
X68190000Y-156687857D01*
X68142381Y-156592619D01*
X69142381Y-155306904D02*
X69142381Y-155878333D01*
X69142381Y-155592619D02*
X68142381Y-155592619D01*
X68285238Y-155687857D01*
X68380476Y-155783095D01*
X68428095Y-155878333D01*
X51142381Y-158164047D02*
X50666190Y-158497381D01*
X51142381Y-158735476D02*
X50142381Y-158735476D01*
X50142381Y-158354523D01*
X50190000Y-158259285D01*
X50237619Y-158211666D01*
X50332857Y-158164047D01*
X50475714Y-158164047D01*
X50570952Y-158211666D01*
X50618571Y-158259285D01*
X50666190Y-158354523D01*
X50666190Y-158735476D01*
X50142381Y-157306904D02*
X50142381Y-157497381D01*
X50190000Y-157592619D01*
X50237619Y-157640238D01*
X50380476Y-157735476D01*
X50570952Y-157783095D01*
X50951905Y-157783095D01*
X51047143Y-157735476D01*
X51094762Y-157687857D01*
X51142381Y-157592619D01*
X51142381Y-157402142D01*
X51094762Y-157306904D01*
X51047143Y-157259285D01*
X50951905Y-157211666D01*
X50713810Y-157211666D01*
X50618571Y-157259285D01*
X50570952Y-157306904D01*
X50523333Y-157402142D01*
X50523333Y-157592619D01*
X50570952Y-157687857D01*
X50618571Y-157735476D01*
X50713810Y-157783095D01*
X50142381Y-156592619D02*
X50142381Y-156497380D01*
X50190000Y-156402142D01*
X50237619Y-156354523D01*
X50332857Y-156306904D01*
X50523333Y-156259285D01*
X50761429Y-156259285D01*
X50951905Y-156306904D01*
X51047143Y-156354523D01*
X51094762Y-156402142D01*
X51142381Y-156497380D01*
X51142381Y-156592619D01*
X51094762Y-156687857D01*
X51047143Y-156735476D01*
X50951905Y-156783095D01*
X50761429Y-156830714D01*
X50523333Y-156830714D01*
X50332857Y-156783095D01*
X50237619Y-156735476D01*
X50190000Y-156687857D01*
X50142381Y-156592619D01*
X50237619Y-155878333D02*
X50190000Y-155830714D01*
X50142381Y-155735476D01*
X50142381Y-155497380D01*
X50190000Y-155402142D01*
X50237619Y-155354523D01*
X50332857Y-155306904D01*
X50428095Y-155306904D01*
X50570952Y-155354523D01*
X51142381Y-155925952D01*
X51142381Y-155306904D01*
X57642381Y-156164047D02*
X57166190Y-156497381D01*
X57642381Y-156735476D02*
X56642381Y-156735476D01*
X56642381Y-156354523D01*
X56690000Y-156259285D01*
X56737619Y-156211666D01*
X56832857Y-156164047D01*
X56975714Y-156164047D01*
X57070952Y-156211666D01*
X57118571Y-156259285D01*
X57166190Y-156354523D01*
X57166190Y-156735476D01*
X56642381Y-155306904D02*
X56642381Y-155497381D01*
X56690000Y-155592619D01*
X56737619Y-155640238D01*
X56880476Y-155735476D01*
X57070952Y-155783095D01*
X57451905Y-155783095D01*
X57547143Y-155735476D01*
X57594762Y-155687857D01*
X57642381Y-155592619D01*
X57642381Y-155402142D01*
X57594762Y-155306904D01*
X57547143Y-155259285D01*
X57451905Y-155211666D01*
X57213810Y-155211666D01*
X57118571Y-155259285D01*
X57070952Y-155306904D01*
X57023333Y-155402142D01*
X57023333Y-155592619D01*
X57070952Y-155687857D01*
X57118571Y-155735476D01*
X57213810Y-155783095D01*
X56642381Y-154592619D02*
X56642381Y-154497380D01*
X56690000Y-154402142D01*
X56737619Y-154354523D01*
X56832857Y-154306904D01*
X57023333Y-154259285D01*
X57261429Y-154259285D01*
X57451905Y-154306904D01*
X57547143Y-154354523D01*
X57594762Y-154402142D01*
X57642381Y-154497380D01*
X57642381Y-154592619D01*
X57594762Y-154687857D01*
X57547143Y-154735476D01*
X57451905Y-154783095D01*
X57261429Y-154830714D01*
X57023333Y-154830714D01*
X56832857Y-154783095D01*
X56737619Y-154735476D01*
X56690000Y-154687857D01*
X56642381Y-154592619D01*
X56642381Y-153925952D02*
X56642381Y-153306904D01*
X57023333Y-153640238D01*
X57023333Y-153497380D01*
X57070952Y-153402142D01*
X57118571Y-153354523D01*
X57213810Y-153306904D01*
X57451905Y-153306904D01*
X57547143Y-153354523D01*
X57594762Y-153402142D01*
X57642381Y-153497380D01*
X57642381Y-153783095D01*
X57594762Y-153878333D01*
X57547143Y-153925952D01*
X62642381Y-165164047D02*
X62166190Y-165497381D01*
X62642381Y-165735476D02*
X61642381Y-165735476D01*
X61642381Y-165354523D01*
X61690000Y-165259285D01*
X61737619Y-165211666D01*
X61832857Y-165164047D01*
X61975714Y-165164047D01*
X62070952Y-165211666D01*
X62118571Y-165259285D01*
X62166190Y-165354523D01*
X62166190Y-165735476D01*
X61642381Y-164306904D02*
X61642381Y-164497381D01*
X61690000Y-164592619D01*
X61737619Y-164640238D01*
X61880476Y-164735476D01*
X62070952Y-164783095D01*
X62451905Y-164783095D01*
X62547143Y-164735476D01*
X62594762Y-164687857D01*
X62642381Y-164592619D01*
X62642381Y-164402142D01*
X62594762Y-164306904D01*
X62547143Y-164259285D01*
X62451905Y-164211666D01*
X62213810Y-164211666D01*
X62118571Y-164259285D01*
X62070952Y-164306904D01*
X62023333Y-164402142D01*
X62023333Y-164592619D01*
X62070952Y-164687857D01*
X62118571Y-164735476D01*
X62213810Y-164783095D01*
X61642381Y-163592619D02*
X61642381Y-163497380D01*
X61690000Y-163402142D01*
X61737619Y-163354523D01*
X61832857Y-163306904D01*
X62023333Y-163259285D01*
X62261429Y-163259285D01*
X62451905Y-163306904D01*
X62547143Y-163354523D01*
X62594762Y-163402142D01*
X62642381Y-163497380D01*
X62642381Y-163592619D01*
X62594762Y-163687857D01*
X62547143Y-163735476D01*
X62451905Y-163783095D01*
X62261429Y-163830714D01*
X62023333Y-163830714D01*
X61832857Y-163783095D01*
X61737619Y-163735476D01*
X61690000Y-163687857D01*
X61642381Y-163592619D01*
X61975714Y-162402142D02*
X62642381Y-162402142D01*
X61594762Y-162640238D02*
X62309048Y-162878333D01*
X62309048Y-162259285D01*
X66642381Y-158164047D02*
X66166190Y-158497381D01*
X66642381Y-158735476D02*
X65642381Y-158735476D01*
X65642381Y-158354523D01*
X65690000Y-158259285D01*
X65737619Y-158211666D01*
X65832857Y-158164047D01*
X65975714Y-158164047D01*
X66070952Y-158211666D01*
X66118571Y-158259285D01*
X66166190Y-158354523D01*
X66166190Y-158735476D01*
X65642381Y-157306904D02*
X65642381Y-157497381D01*
X65690000Y-157592619D01*
X65737619Y-157640238D01*
X65880476Y-157735476D01*
X66070952Y-157783095D01*
X66451905Y-157783095D01*
X66547143Y-157735476D01*
X66594762Y-157687857D01*
X66642381Y-157592619D01*
X66642381Y-157402142D01*
X66594762Y-157306904D01*
X66547143Y-157259285D01*
X66451905Y-157211666D01*
X66213810Y-157211666D01*
X66118571Y-157259285D01*
X66070952Y-157306904D01*
X66023333Y-157402142D01*
X66023333Y-157592619D01*
X66070952Y-157687857D01*
X66118571Y-157735476D01*
X66213810Y-157783095D01*
X65642381Y-156592619D02*
X65642381Y-156497380D01*
X65690000Y-156402142D01*
X65737619Y-156354523D01*
X65832857Y-156306904D01*
X66023333Y-156259285D01*
X66261429Y-156259285D01*
X66451905Y-156306904D01*
X66547143Y-156354523D01*
X66594762Y-156402142D01*
X66642381Y-156497380D01*
X66642381Y-156592619D01*
X66594762Y-156687857D01*
X66547143Y-156735476D01*
X66451905Y-156783095D01*
X66261429Y-156830714D01*
X66023333Y-156830714D01*
X65832857Y-156783095D01*
X65737619Y-156735476D01*
X65690000Y-156687857D01*
X65642381Y-156592619D01*
X65642381Y-155354523D02*
X65642381Y-155830714D01*
X66118571Y-155878333D01*
X66070952Y-155830714D01*
X66023333Y-155735476D01*
X66023333Y-155497380D01*
X66070952Y-155402142D01*
X66118571Y-155354523D01*
X66213810Y-155306904D01*
X66451905Y-155306904D01*
X66547143Y-155354523D01*
X66594762Y-155402142D01*
X66642381Y-155497380D01*
X66642381Y-155735476D01*
X66594762Y-155830714D01*
X66547143Y-155878333D01*
X53642381Y-158164047D02*
X53166190Y-158497381D01*
X53642381Y-158735476D02*
X52642381Y-158735476D01*
X52642381Y-158354523D01*
X52690000Y-158259285D01*
X52737619Y-158211666D01*
X52832857Y-158164047D01*
X52975714Y-158164047D01*
X53070952Y-158211666D01*
X53118571Y-158259285D01*
X53166190Y-158354523D01*
X53166190Y-158735476D01*
X52642381Y-157306904D02*
X52642381Y-157497381D01*
X52690000Y-157592619D01*
X52737619Y-157640238D01*
X52880476Y-157735476D01*
X53070952Y-157783095D01*
X53451905Y-157783095D01*
X53547143Y-157735476D01*
X53594762Y-157687857D01*
X53642381Y-157592619D01*
X53642381Y-157402142D01*
X53594762Y-157306904D01*
X53547143Y-157259285D01*
X53451905Y-157211666D01*
X53213810Y-157211666D01*
X53118571Y-157259285D01*
X53070952Y-157306904D01*
X53023333Y-157402142D01*
X53023333Y-157592619D01*
X53070952Y-157687857D01*
X53118571Y-157735476D01*
X53213810Y-157783095D01*
X52642381Y-156592619D02*
X52642381Y-156497380D01*
X52690000Y-156402142D01*
X52737619Y-156354523D01*
X52832857Y-156306904D01*
X53023333Y-156259285D01*
X53261429Y-156259285D01*
X53451905Y-156306904D01*
X53547143Y-156354523D01*
X53594762Y-156402142D01*
X53642381Y-156497380D01*
X53642381Y-156592619D01*
X53594762Y-156687857D01*
X53547143Y-156735476D01*
X53451905Y-156783095D01*
X53261429Y-156830714D01*
X53023333Y-156830714D01*
X52832857Y-156783095D01*
X52737619Y-156735476D01*
X52690000Y-156687857D01*
X52642381Y-156592619D01*
X52642381Y-155402142D02*
X52642381Y-155592619D01*
X52690000Y-155687857D01*
X52737619Y-155735476D01*
X52880476Y-155830714D01*
X53070952Y-155878333D01*
X53451905Y-155878333D01*
X53547143Y-155830714D01*
X53594762Y-155783095D01*
X53642381Y-155687857D01*
X53642381Y-155497380D01*
X53594762Y-155402142D01*
X53547143Y-155354523D01*
X53451905Y-155306904D01*
X53213810Y-155306904D01*
X53118571Y-155354523D01*
X53070952Y-155402142D01*
X53023333Y-155497380D01*
X53023333Y-155687857D01*
X53070952Y-155783095D01*
X53118571Y-155830714D01*
X53213810Y-155878333D01*
X52142381Y-165584047D02*
X51666190Y-165917381D01*
X52142381Y-166155476D02*
X51142381Y-166155476D01*
X51142381Y-165774523D01*
X51190000Y-165679285D01*
X51237619Y-165631666D01*
X51332857Y-165584047D01*
X51475714Y-165584047D01*
X51570952Y-165631666D01*
X51618571Y-165679285D01*
X51666190Y-165774523D01*
X51666190Y-166155476D01*
X51142381Y-164726904D02*
X51142381Y-164917381D01*
X51190000Y-165012619D01*
X51237619Y-165060238D01*
X51380476Y-165155476D01*
X51570952Y-165203095D01*
X51951905Y-165203095D01*
X52047143Y-165155476D01*
X52094762Y-165107857D01*
X52142381Y-165012619D01*
X52142381Y-164822142D01*
X52094762Y-164726904D01*
X52047143Y-164679285D01*
X51951905Y-164631666D01*
X51713810Y-164631666D01*
X51618571Y-164679285D01*
X51570952Y-164726904D01*
X51523333Y-164822142D01*
X51523333Y-165012619D01*
X51570952Y-165107857D01*
X51618571Y-165155476D01*
X51713810Y-165203095D01*
X51142381Y-164012619D02*
X51142381Y-163917380D01*
X51190000Y-163822142D01*
X51237619Y-163774523D01*
X51332857Y-163726904D01*
X51523333Y-163679285D01*
X51761429Y-163679285D01*
X51951905Y-163726904D01*
X52047143Y-163774523D01*
X52094762Y-163822142D01*
X52142381Y-163917380D01*
X52142381Y-164012619D01*
X52094762Y-164107857D01*
X52047143Y-164155476D01*
X51951905Y-164203095D01*
X51761429Y-164250714D01*
X51523333Y-164250714D01*
X51332857Y-164203095D01*
X51237619Y-164155476D01*
X51190000Y-164107857D01*
X51142381Y-164012619D01*
X51142381Y-163345952D02*
X51142381Y-162679285D01*
X52142381Y-163107857D01*
X66642381Y-169164047D02*
X66166190Y-169497381D01*
X66642381Y-169735476D02*
X65642381Y-169735476D01*
X65642381Y-169354523D01*
X65690000Y-169259285D01*
X65737619Y-169211666D01*
X65832857Y-169164047D01*
X65975714Y-169164047D01*
X66070952Y-169211666D01*
X66118571Y-169259285D01*
X66166190Y-169354523D01*
X66166190Y-169735476D01*
X65642381Y-168306904D02*
X65642381Y-168497381D01*
X65690000Y-168592619D01*
X65737619Y-168640238D01*
X65880476Y-168735476D01*
X66070952Y-168783095D01*
X66451905Y-168783095D01*
X66547143Y-168735476D01*
X66594762Y-168687857D01*
X66642381Y-168592619D01*
X66642381Y-168402142D01*
X66594762Y-168306904D01*
X66547143Y-168259285D01*
X66451905Y-168211666D01*
X66213810Y-168211666D01*
X66118571Y-168259285D01*
X66070952Y-168306904D01*
X66023333Y-168402142D01*
X66023333Y-168592619D01*
X66070952Y-168687857D01*
X66118571Y-168735476D01*
X66213810Y-168783095D01*
X65642381Y-167592619D02*
X65642381Y-167497380D01*
X65690000Y-167402142D01*
X65737619Y-167354523D01*
X65832857Y-167306904D01*
X66023333Y-167259285D01*
X66261429Y-167259285D01*
X66451905Y-167306904D01*
X66547143Y-167354523D01*
X66594762Y-167402142D01*
X66642381Y-167497380D01*
X66642381Y-167592619D01*
X66594762Y-167687857D01*
X66547143Y-167735476D01*
X66451905Y-167783095D01*
X66261429Y-167830714D01*
X66023333Y-167830714D01*
X65832857Y-167783095D01*
X65737619Y-167735476D01*
X65690000Y-167687857D01*
X65642381Y-167592619D01*
X66070952Y-166687857D02*
X66023333Y-166783095D01*
X65975714Y-166830714D01*
X65880476Y-166878333D01*
X65832857Y-166878333D01*
X65737619Y-166830714D01*
X65690000Y-166783095D01*
X65642381Y-166687857D01*
X65642381Y-166497380D01*
X65690000Y-166402142D01*
X65737619Y-166354523D01*
X65832857Y-166306904D01*
X65880476Y-166306904D01*
X65975714Y-166354523D01*
X66023333Y-166402142D01*
X66070952Y-166497380D01*
X66070952Y-166687857D01*
X66118571Y-166783095D01*
X66166190Y-166830714D01*
X66261429Y-166878333D01*
X66451905Y-166878333D01*
X66547143Y-166830714D01*
X66594762Y-166783095D01*
X66642381Y-166687857D01*
X66642381Y-166497380D01*
X66594762Y-166402142D01*
X66547143Y-166354523D01*
X66451905Y-166306904D01*
X66261429Y-166306904D01*
X66166190Y-166354523D01*
X66118571Y-166402142D01*
X66070952Y-166497380D01*
X43590953Y-172997381D02*
X43257619Y-172521190D01*
X43019524Y-172997381D02*
X43019524Y-171997381D01*
X43400477Y-171997381D01*
X43495715Y-172045000D01*
X43543334Y-172092619D01*
X43590953Y-172187857D01*
X43590953Y-172330714D01*
X43543334Y-172425952D01*
X43495715Y-172473571D01*
X43400477Y-172521190D01*
X43019524Y-172521190D01*
X44448096Y-171997381D02*
X44257619Y-171997381D01*
X44162381Y-172045000D01*
X44114762Y-172092619D01*
X44019524Y-172235476D01*
X43971905Y-172425952D01*
X43971905Y-172806905D01*
X44019524Y-172902143D01*
X44067143Y-172949762D01*
X44162381Y-172997381D01*
X44352858Y-172997381D01*
X44448096Y-172949762D01*
X44495715Y-172902143D01*
X44543334Y-172806905D01*
X44543334Y-172568810D01*
X44495715Y-172473571D01*
X44448096Y-172425952D01*
X44352858Y-172378333D01*
X44162381Y-172378333D01*
X44067143Y-172425952D01*
X44019524Y-172473571D01*
X43971905Y-172568810D01*
X45162381Y-171997381D02*
X45257620Y-171997381D01*
X45352858Y-172045000D01*
X45400477Y-172092619D01*
X45448096Y-172187857D01*
X45495715Y-172378333D01*
X45495715Y-172616429D01*
X45448096Y-172806905D01*
X45400477Y-172902143D01*
X45352858Y-172949762D01*
X45257620Y-172997381D01*
X45162381Y-172997381D01*
X45067143Y-172949762D01*
X45019524Y-172902143D01*
X44971905Y-172806905D01*
X44924286Y-172616429D01*
X44924286Y-172378333D01*
X44971905Y-172187857D01*
X45019524Y-172092619D01*
X45067143Y-172045000D01*
X45162381Y-171997381D01*
X45971905Y-172997381D02*
X46162381Y-172997381D01*
X46257620Y-172949762D01*
X46305239Y-172902143D01*
X46400477Y-172759286D01*
X46448096Y-172568810D01*
X46448096Y-172187857D01*
X46400477Y-172092619D01*
X46352858Y-172045000D01*
X46257620Y-171997381D01*
X46067143Y-171997381D01*
X45971905Y-172045000D01*
X45924286Y-172092619D01*
X45876667Y-172187857D01*
X45876667Y-172425952D01*
X45924286Y-172521190D01*
X45971905Y-172568810D01*
X46067143Y-172616429D01*
X46257620Y-172616429D01*
X46352858Y-172568810D01*
X46400477Y-172521190D01*
X46448096Y-172425952D01*
X63242381Y-180664047D02*
X62766190Y-180997381D01*
X63242381Y-181235476D02*
X62242381Y-181235476D01*
X62242381Y-180854523D01*
X62290000Y-180759285D01*
X62337619Y-180711666D01*
X62432857Y-180664047D01*
X62575714Y-180664047D01*
X62670952Y-180711666D01*
X62718571Y-180759285D01*
X62766190Y-180854523D01*
X62766190Y-181235476D01*
X62242381Y-179806904D02*
X62242381Y-179997381D01*
X62290000Y-180092619D01*
X62337619Y-180140238D01*
X62480476Y-180235476D01*
X62670952Y-180283095D01*
X63051905Y-180283095D01*
X63147143Y-180235476D01*
X63194762Y-180187857D01*
X63242381Y-180092619D01*
X63242381Y-179902142D01*
X63194762Y-179806904D01*
X63147143Y-179759285D01*
X63051905Y-179711666D01*
X62813810Y-179711666D01*
X62718571Y-179759285D01*
X62670952Y-179806904D01*
X62623333Y-179902142D01*
X62623333Y-180092619D01*
X62670952Y-180187857D01*
X62718571Y-180235476D01*
X62813810Y-180283095D01*
X63242381Y-178759285D02*
X63242381Y-179330714D01*
X63242381Y-179045000D02*
X62242381Y-179045000D01*
X62385238Y-179140238D01*
X62480476Y-179235476D01*
X62528095Y-179330714D01*
X62242381Y-178140238D02*
X62242381Y-178044999D01*
X62290000Y-177949761D01*
X62337619Y-177902142D01*
X62432857Y-177854523D01*
X62623333Y-177806904D01*
X62861429Y-177806904D01*
X63051905Y-177854523D01*
X63147143Y-177902142D01*
X63194762Y-177949761D01*
X63242381Y-178044999D01*
X63242381Y-178140238D01*
X63194762Y-178235476D01*
X63147143Y-178283095D01*
X63051905Y-178330714D01*
X62861429Y-178378333D01*
X62623333Y-178378333D01*
X62432857Y-178330714D01*
X62337619Y-178283095D01*
X62290000Y-178235476D01*
X62242381Y-178140238D01*
X57142381Y-184164047D02*
X56666190Y-184497381D01*
X57142381Y-184735476D02*
X56142381Y-184735476D01*
X56142381Y-184354523D01*
X56190000Y-184259285D01*
X56237619Y-184211666D01*
X56332857Y-184164047D01*
X56475714Y-184164047D01*
X56570952Y-184211666D01*
X56618571Y-184259285D01*
X56666190Y-184354523D01*
X56666190Y-184735476D01*
X56142381Y-183306904D02*
X56142381Y-183497381D01*
X56190000Y-183592619D01*
X56237619Y-183640238D01*
X56380476Y-183735476D01*
X56570952Y-183783095D01*
X56951905Y-183783095D01*
X57047143Y-183735476D01*
X57094762Y-183687857D01*
X57142381Y-183592619D01*
X57142381Y-183402142D01*
X57094762Y-183306904D01*
X57047143Y-183259285D01*
X56951905Y-183211666D01*
X56713810Y-183211666D01*
X56618571Y-183259285D01*
X56570952Y-183306904D01*
X56523333Y-183402142D01*
X56523333Y-183592619D01*
X56570952Y-183687857D01*
X56618571Y-183735476D01*
X56713810Y-183783095D01*
X57142381Y-182259285D02*
X57142381Y-182830714D01*
X57142381Y-182545000D02*
X56142381Y-182545000D01*
X56285238Y-182640238D01*
X56380476Y-182735476D01*
X56428095Y-182830714D01*
X57142381Y-181306904D02*
X57142381Y-181878333D01*
X57142381Y-181592619D02*
X56142381Y-181592619D01*
X56285238Y-181687857D01*
X56380476Y-181783095D01*
X56428095Y-181878333D01*
X55142381Y-184164047D02*
X54666190Y-184497381D01*
X55142381Y-184735476D02*
X54142381Y-184735476D01*
X54142381Y-184354523D01*
X54190000Y-184259285D01*
X54237619Y-184211666D01*
X54332857Y-184164047D01*
X54475714Y-184164047D01*
X54570952Y-184211666D01*
X54618571Y-184259285D01*
X54666190Y-184354523D01*
X54666190Y-184735476D01*
X54142381Y-183306904D02*
X54142381Y-183497381D01*
X54190000Y-183592619D01*
X54237619Y-183640238D01*
X54380476Y-183735476D01*
X54570952Y-183783095D01*
X54951905Y-183783095D01*
X55047143Y-183735476D01*
X55094762Y-183687857D01*
X55142381Y-183592619D01*
X55142381Y-183402142D01*
X55094762Y-183306904D01*
X55047143Y-183259285D01*
X54951905Y-183211666D01*
X54713810Y-183211666D01*
X54618571Y-183259285D01*
X54570952Y-183306904D01*
X54523333Y-183402142D01*
X54523333Y-183592619D01*
X54570952Y-183687857D01*
X54618571Y-183735476D01*
X54713810Y-183783095D01*
X55142381Y-182259285D02*
X55142381Y-182830714D01*
X55142381Y-182545000D02*
X54142381Y-182545000D01*
X54285238Y-182640238D01*
X54380476Y-182735476D01*
X54428095Y-182830714D01*
X54237619Y-181878333D02*
X54190000Y-181830714D01*
X54142381Y-181735476D01*
X54142381Y-181497380D01*
X54190000Y-181402142D01*
X54237619Y-181354523D01*
X54332857Y-181306904D01*
X54428095Y-181306904D01*
X54570952Y-181354523D01*
X55142381Y-181925952D01*
X55142381Y-181306904D01*
X39142381Y-139914047D02*
X38666190Y-140247381D01*
X39142381Y-140485476D02*
X38142381Y-140485476D01*
X38142381Y-140104523D01*
X38190000Y-140009285D01*
X38237619Y-139961666D01*
X38332857Y-139914047D01*
X38475714Y-139914047D01*
X38570952Y-139961666D01*
X38618571Y-140009285D01*
X38666190Y-140104523D01*
X38666190Y-140485476D01*
X38142381Y-139580714D02*
X38142381Y-138914047D01*
X39142381Y-139342619D01*
X38142381Y-138342619D02*
X38142381Y-138247380D01*
X38190000Y-138152142D01*
X38237619Y-138104523D01*
X38332857Y-138056904D01*
X38523333Y-138009285D01*
X38761429Y-138009285D01*
X38951905Y-138056904D01*
X39047143Y-138104523D01*
X39094762Y-138152142D01*
X39142381Y-138247380D01*
X39142381Y-138342619D01*
X39094762Y-138437857D01*
X39047143Y-138485476D01*
X38951905Y-138533095D01*
X38761429Y-138580714D01*
X38523333Y-138580714D01*
X38332857Y-138533095D01*
X38237619Y-138485476D01*
X38190000Y-138437857D01*
X38142381Y-138342619D01*
X39142381Y-137056904D02*
X39142381Y-137628333D01*
X39142381Y-137342619D02*
X38142381Y-137342619D01*
X38285238Y-137437857D01*
X38380476Y-137533095D01*
X38428095Y-137628333D01*
X50642381Y-146664047D02*
X50166190Y-146997381D01*
X50642381Y-147235476D02*
X49642381Y-147235476D01*
X49642381Y-146854523D01*
X49690000Y-146759285D01*
X49737619Y-146711666D01*
X49832857Y-146664047D01*
X49975714Y-146664047D01*
X50070952Y-146711666D01*
X50118571Y-146759285D01*
X50166190Y-146854523D01*
X50166190Y-147235476D01*
X49642381Y-146330714D02*
X49642381Y-145664047D01*
X50642381Y-146092619D01*
X49642381Y-145092619D02*
X49642381Y-144997380D01*
X49690000Y-144902142D01*
X49737619Y-144854523D01*
X49832857Y-144806904D01*
X50023333Y-144759285D01*
X50261429Y-144759285D01*
X50451905Y-144806904D01*
X50547143Y-144854523D01*
X50594762Y-144902142D01*
X50642381Y-144997380D01*
X50642381Y-145092619D01*
X50594762Y-145187857D01*
X50547143Y-145235476D01*
X50451905Y-145283095D01*
X50261429Y-145330714D01*
X50023333Y-145330714D01*
X49832857Y-145283095D01*
X49737619Y-145235476D01*
X49690000Y-145187857D01*
X49642381Y-145092619D01*
X49737619Y-144378333D02*
X49690000Y-144330714D01*
X49642381Y-144235476D01*
X49642381Y-143997380D01*
X49690000Y-143902142D01*
X49737619Y-143854523D01*
X49832857Y-143806904D01*
X49928095Y-143806904D01*
X50070952Y-143854523D01*
X50642381Y-144425952D01*
X50642381Y-143806904D01*
X44142381Y-146664047D02*
X43666190Y-146997381D01*
X44142381Y-147235476D02*
X43142381Y-147235476D01*
X43142381Y-146854523D01*
X43190000Y-146759285D01*
X43237619Y-146711666D01*
X43332857Y-146664047D01*
X43475714Y-146664047D01*
X43570952Y-146711666D01*
X43618571Y-146759285D01*
X43666190Y-146854523D01*
X43666190Y-147235476D01*
X43142381Y-146330714D02*
X43142381Y-145664047D01*
X44142381Y-146092619D01*
X43142381Y-145092619D02*
X43142381Y-144997380D01*
X43190000Y-144902142D01*
X43237619Y-144854523D01*
X43332857Y-144806904D01*
X43523333Y-144759285D01*
X43761429Y-144759285D01*
X43951905Y-144806904D01*
X44047143Y-144854523D01*
X44094762Y-144902142D01*
X44142381Y-144997380D01*
X44142381Y-145092619D01*
X44094762Y-145187857D01*
X44047143Y-145235476D01*
X43951905Y-145283095D01*
X43761429Y-145330714D01*
X43523333Y-145330714D01*
X43332857Y-145283095D01*
X43237619Y-145235476D01*
X43190000Y-145187857D01*
X43142381Y-145092619D01*
X43142381Y-144425952D02*
X43142381Y-143806904D01*
X43523333Y-144140238D01*
X43523333Y-143997380D01*
X43570952Y-143902142D01*
X43618571Y-143854523D01*
X43713810Y-143806904D01*
X43951905Y-143806904D01*
X44047143Y-143854523D01*
X44094762Y-143902142D01*
X44142381Y-143997380D01*
X44142381Y-144283095D01*
X44094762Y-144378333D01*
X44047143Y-144425952D01*
X50642381Y-150664047D02*
X50166190Y-150997381D01*
X50642381Y-151235476D02*
X49642381Y-151235476D01*
X49642381Y-150854523D01*
X49690000Y-150759285D01*
X49737619Y-150711666D01*
X49832857Y-150664047D01*
X49975714Y-150664047D01*
X50070952Y-150711666D01*
X50118571Y-150759285D01*
X50166190Y-150854523D01*
X50166190Y-151235476D01*
X49642381Y-150330714D02*
X49642381Y-149664047D01*
X50642381Y-150092619D01*
X49642381Y-149092619D02*
X49642381Y-148997380D01*
X49690000Y-148902142D01*
X49737619Y-148854523D01*
X49832857Y-148806904D01*
X50023333Y-148759285D01*
X50261429Y-148759285D01*
X50451905Y-148806904D01*
X50547143Y-148854523D01*
X50594762Y-148902142D01*
X50642381Y-148997380D01*
X50642381Y-149092619D01*
X50594762Y-149187857D01*
X50547143Y-149235476D01*
X50451905Y-149283095D01*
X50261429Y-149330714D01*
X50023333Y-149330714D01*
X49832857Y-149283095D01*
X49737619Y-149235476D01*
X49690000Y-149187857D01*
X49642381Y-149092619D01*
X49975714Y-147902142D02*
X50642381Y-147902142D01*
X49594762Y-148140238D02*
X50309048Y-148378333D01*
X50309048Y-147759285D01*
X44142381Y-150664047D02*
X43666190Y-150997381D01*
X44142381Y-151235476D02*
X43142381Y-151235476D01*
X43142381Y-150854523D01*
X43190000Y-150759285D01*
X43237619Y-150711666D01*
X43332857Y-150664047D01*
X43475714Y-150664047D01*
X43570952Y-150711666D01*
X43618571Y-150759285D01*
X43666190Y-150854523D01*
X43666190Y-151235476D01*
X43142381Y-150330714D02*
X43142381Y-149664047D01*
X44142381Y-150092619D01*
X43142381Y-149092619D02*
X43142381Y-148997380D01*
X43190000Y-148902142D01*
X43237619Y-148854523D01*
X43332857Y-148806904D01*
X43523333Y-148759285D01*
X43761429Y-148759285D01*
X43951905Y-148806904D01*
X44047143Y-148854523D01*
X44094762Y-148902142D01*
X44142381Y-148997380D01*
X44142381Y-149092619D01*
X44094762Y-149187857D01*
X44047143Y-149235476D01*
X43951905Y-149283095D01*
X43761429Y-149330714D01*
X43523333Y-149330714D01*
X43332857Y-149283095D01*
X43237619Y-149235476D01*
X43190000Y-149187857D01*
X43142381Y-149092619D01*
X43142381Y-147854523D02*
X43142381Y-148330714D01*
X43618571Y-148378333D01*
X43570952Y-148330714D01*
X43523333Y-148235476D01*
X43523333Y-147997380D01*
X43570952Y-147902142D01*
X43618571Y-147854523D01*
X43713810Y-147806904D01*
X43951905Y-147806904D01*
X44047143Y-147854523D01*
X44094762Y-147902142D01*
X44142381Y-147997380D01*
X44142381Y-148235476D01*
X44094762Y-148330714D01*
X44047143Y-148378333D01*
D19*
X33426048Y-168257738D02*
X34402738Y-168257738D01*
X34517643Y-168200286D01*
X34575095Y-168142833D01*
X34632548Y-168027929D01*
X34632548Y-167798119D01*
X34575095Y-167683214D01*
X34517643Y-167625762D01*
X34402738Y-167568310D01*
X33426048Y-167568310D01*
X33540952Y-167051238D02*
X33483500Y-166993786D01*
X33426048Y-166878881D01*
X33426048Y-166591619D01*
X33483500Y-166476715D01*
X33540952Y-166419262D01*
X33655857Y-166361810D01*
X33770762Y-166361810D01*
X33943119Y-166419262D01*
X34632548Y-167108691D01*
X34632548Y-166361810D01*
X33426048Y-165614929D02*
X33426048Y-165500024D01*
X33483500Y-165385119D01*
X33540952Y-165327667D01*
X33655857Y-165270214D01*
X33885667Y-165212762D01*
X34172929Y-165212762D01*
X34402738Y-165270214D01*
X34517643Y-165327667D01*
X34575095Y-165385119D01*
X34632548Y-165500024D01*
X34632548Y-165614929D01*
X34575095Y-165729833D01*
X34517643Y-165787286D01*
X34402738Y-165844738D01*
X34172929Y-165902190D01*
X33885667Y-165902190D01*
X33655857Y-165844738D01*
X33540952Y-165787286D01*
X33483500Y-165729833D01*
X33426048Y-165614929D01*
X33426048Y-164810595D02*
X33426048Y-164063714D01*
X33885667Y-164465881D01*
X33885667Y-164293523D01*
X33943119Y-164178619D01*
X34000571Y-164121166D01*
X34115476Y-164063714D01*
X34402738Y-164063714D01*
X34517643Y-164121166D01*
X34575095Y-164178619D01*
X34632548Y-164293523D01*
X34632548Y-164638238D01*
X34575095Y-164753142D01*
X34517643Y-164810595D01*
D20*
X91508838Y-169154628D02*
X92290190Y-169154628D01*
X92382114Y-169108667D01*
X92428076Y-169062705D01*
X92474038Y-168970781D01*
X92474038Y-168786933D01*
X92428076Y-168695009D01*
X92382114Y-168649048D01*
X92290190Y-168603086D01*
X91508838Y-168603086D01*
X91508838Y-168235390D02*
X91508838Y-167637886D01*
X91876533Y-167959619D01*
X91876533Y-167821733D01*
X91922495Y-167729809D01*
X91968457Y-167683847D01*
X92060381Y-167637886D01*
X92290190Y-167637886D01*
X92382114Y-167683847D01*
X92428076Y-167729809D01*
X92474038Y-167821733D01*
X92474038Y-168097505D01*
X92428076Y-168189428D01*
X92382114Y-168235390D01*
X91508838Y-167040381D02*
X91508838Y-166948457D01*
X91554800Y-166856533D01*
X91600762Y-166810571D01*
X91692686Y-166764609D01*
X91876533Y-166718648D01*
X92106343Y-166718648D01*
X92290190Y-166764609D01*
X92382114Y-166810571D01*
X92428076Y-166856533D01*
X92474038Y-166948457D01*
X92474038Y-167040381D01*
X92428076Y-167132305D01*
X92382114Y-167178267D01*
X92290190Y-167224228D01*
X92106343Y-167270190D01*
X91876533Y-167270190D01*
X91692686Y-167224228D01*
X91600762Y-167178267D01*
X91554800Y-167132305D01*
X91508838Y-167040381D01*
X92474038Y-165799410D02*
X92474038Y-166350952D01*
X92474038Y-166075181D02*
X91508838Y-166075181D01*
X91646724Y-166167105D01*
X91738648Y-166259029D01*
X91784610Y-166350952D01*
D13*
X57975714Y-172547381D02*
X57975714Y-173356905D01*
X58023333Y-173452143D01*
X58070952Y-173499762D01*
X58166190Y-173547381D01*
X58356667Y-173547381D01*
X58451905Y-173499762D01*
X58499524Y-173452143D01*
X58547143Y-173356905D01*
X58547143Y-172547381D01*
X59451905Y-172547381D02*
X59261428Y-172547381D01*
X59166190Y-172595000D01*
X59118571Y-172642619D01*
X59023333Y-172785476D01*
X58975714Y-172975952D01*
X58975714Y-173356905D01*
X59023333Y-173452143D01*
X59070952Y-173499762D01*
X59166190Y-173547381D01*
X59356667Y-173547381D01*
X59451905Y-173499762D01*
X59499524Y-173452143D01*
X59547143Y-173356905D01*
X59547143Y-173118810D01*
X59499524Y-173023571D01*
X59451905Y-172975952D01*
X59356667Y-172928333D01*
X59166190Y-172928333D01*
X59070952Y-172975952D01*
X59023333Y-173023571D01*
X58975714Y-173118810D01*
X60166190Y-172547381D02*
X60261429Y-172547381D01*
X60356667Y-172595000D01*
X60404286Y-172642619D01*
X60451905Y-172737857D01*
X60499524Y-172928333D01*
X60499524Y-173166429D01*
X60451905Y-173356905D01*
X60404286Y-173452143D01*
X60356667Y-173499762D01*
X60261429Y-173547381D01*
X60166190Y-173547381D01*
X60070952Y-173499762D01*
X60023333Y-173452143D01*
X59975714Y-173356905D01*
X59928095Y-173166429D01*
X59928095Y-172928333D01*
X59975714Y-172737857D01*
X60023333Y-172642619D01*
X60070952Y-172595000D01*
X60166190Y-172547381D01*
X61451905Y-173547381D02*
X60880476Y-173547381D01*
X61166190Y-173547381D02*
X61166190Y-172547381D01*
X61070952Y-172690238D01*
X60975714Y-172785476D01*
X60880476Y-172833095D01*
D19*
X95168833Y-170315000D02*
X95592167Y-170315000D01*
X94703167Y-170611333D02*
X95168833Y-170315000D01*
X94703167Y-170018667D01*
X94703167Y-169807000D02*
X94703167Y-169256667D01*
X95041833Y-169553000D01*
X95041833Y-169426000D01*
X95084167Y-169341333D01*
X95126500Y-169299000D01*
X95211167Y-169256667D01*
X95422833Y-169256667D01*
X95507500Y-169299000D01*
X95549833Y-169341333D01*
X95592167Y-169426000D01*
X95592167Y-169680000D01*
X95549833Y-169764667D01*
X95507500Y-169807000D01*
X94703167Y-168706333D02*
X94703167Y-168621666D01*
X94745500Y-168537000D01*
X94787833Y-168494666D01*
X94872500Y-168452333D01*
X95041833Y-168410000D01*
X95253500Y-168410000D01*
X95422833Y-168452333D01*
X95507500Y-168494666D01*
X95549833Y-168537000D01*
X95592167Y-168621666D01*
X95592167Y-168706333D01*
X95549833Y-168791000D01*
X95507500Y-168833333D01*
X95422833Y-168875666D01*
X95253500Y-168918000D01*
X95041833Y-168918000D01*
X94872500Y-168875666D01*
X94787833Y-168833333D01*
X94745500Y-168791000D01*
X94703167Y-168706333D01*
X95592167Y-167563333D02*
X95592167Y-168071333D01*
X95592167Y-167817333D02*
X94703167Y-167817333D01*
X94830167Y-167901999D01*
X94914833Y-167986666D01*
X94957167Y-168071333D01*
D13*
X40142381Y-174830714D02*
X40856667Y-174830714D01*
X40999524Y-174878334D01*
X41094762Y-174973572D01*
X41142381Y-175116429D01*
X41142381Y-175211667D01*
X41142381Y-174354524D02*
X40142381Y-174354524D01*
X40142381Y-173973571D01*
X40190000Y-173878333D01*
X40237619Y-173830714D01*
X40332857Y-173783095D01*
X40475714Y-173783095D01*
X40570952Y-173830714D01*
X40618571Y-173878333D01*
X40666190Y-173973571D01*
X40666190Y-174354524D01*
X40237619Y-173402143D02*
X40190000Y-173354524D01*
X40142381Y-173259286D01*
X40142381Y-173021190D01*
X40190000Y-172925952D01*
X40237619Y-172878333D01*
X40332857Y-172830714D01*
X40428095Y-172830714D01*
X40570952Y-172878333D01*
X41142381Y-173449762D01*
X41142381Y-172830714D01*
X40142381Y-172211667D02*
X40142381Y-172116428D01*
X40190000Y-172021190D01*
X40237619Y-171973571D01*
X40332857Y-171925952D01*
X40523333Y-171878333D01*
X40761429Y-171878333D01*
X40951905Y-171925952D01*
X41047143Y-171973571D01*
X41094762Y-172021190D01*
X41142381Y-172116428D01*
X41142381Y-172211667D01*
X41094762Y-172306905D01*
X41047143Y-172354524D01*
X40951905Y-172402143D01*
X40761429Y-172449762D01*
X40523333Y-172449762D01*
X40332857Y-172402143D01*
X40237619Y-172354524D01*
X40190000Y-172306905D01*
X40142381Y-172211667D01*
X41142381Y-170925952D02*
X41142381Y-171497381D01*
X41142381Y-171211667D02*
X40142381Y-171211667D01*
X40285238Y-171306905D01*
X40380476Y-171402143D01*
X40428095Y-171497381D01*
X107547143Y-151664047D02*
X107594762Y-151711666D01*
X107642381Y-151854523D01*
X107642381Y-151949761D01*
X107594762Y-152092619D01*
X107499524Y-152187857D01*
X107404286Y-152235476D01*
X107213810Y-152283095D01*
X107070952Y-152283095D01*
X106880476Y-152235476D01*
X106785238Y-152187857D01*
X106690000Y-152092619D01*
X106642381Y-151949761D01*
X106642381Y-151854523D01*
X106690000Y-151711666D01*
X106737619Y-151664047D01*
X106737619Y-151283095D02*
X106690000Y-151235476D01*
X106642381Y-151140238D01*
X106642381Y-150902142D01*
X106690000Y-150806904D01*
X106737619Y-150759285D01*
X106832857Y-150711666D01*
X106928095Y-150711666D01*
X107070952Y-150759285D01*
X107642381Y-151330714D01*
X107642381Y-150711666D01*
X106642381Y-150092619D02*
X106642381Y-149997380D01*
X106690000Y-149902142D01*
X106737619Y-149854523D01*
X106832857Y-149806904D01*
X107023333Y-149759285D01*
X107261429Y-149759285D01*
X107451905Y-149806904D01*
X107547143Y-149854523D01*
X107594762Y-149902142D01*
X107642381Y-149997380D01*
X107642381Y-150092619D01*
X107594762Y-150187857D01*
X107547143Y-150235476D01*
X107451905Y-150283095D01*
X107261429Y-150330714D01*
X107023333Y-150330714D01*
X106832857Y-150283095D01*
X106737619Y-150235476D01*
X106690000Y-150187857D01*
X106642381Y-150092619D01*
X107070952Y-149187857D02*
X107023333Y-149283095D01*
X106975714Y-149330714D01*
X106880476Y-149378333D01*
X106832857Y-149378333D01*
X106737619Y-149330714D01*
X106690000Y-149283095D01*
X106642381Y-149187857D01*
X106642381Y-148997380D01*
X106690000Y-148902142D01*
X106737619Y-148854523D01*
X106832857Y-148806904D01*
X106880476Y-148806904D01*
X106975714Y-148854523D01*
X107023333Y-148902142D01*
X107070952Y-148997380D01*
X107070952Y-149187857D01*
X107118571Y-149283095D01*
X107166190Y-149330714D01*
X107261429Y-149378333D01*
X107451905Y-149378333D01*
X107547143Y-149330714D01*
X107594762Y-149283095D01*
X107642381Y-149187857D01*
X107642381Y-148997380D01*
X107594762Y-148902142D01*
X107547143Y-148854523D01*
X107451905Y-148806904D01*
X107261429Y-148806904D01*
X107166190Y-148854523D01*
X107118571Y-148902142D01*
X107070952Y-148997380D01*
X107070953Y-142902143D02*
X107023334Y-142949762D01*
X106880477Y-142997381D01*
X106785239Y-142997381D01*
X106642381Y-142949762D01*
X106547143Y-142854524D01*
X106499524Y-142759286D01*
X106451905Y-142568810D01*
X106451905Y-142425952D01*
X106499524Y-142235476D01*
X106547143Y-142140238D01*
X106642381Y-142045000D01*
X106785239Y-141997381D01*
X106880477Y-141997381D01*
X107023334Y-142045000D01*
X107070953Y-142092619D01*
X107451905Y-142092619D02*
X107499524Y-142045000D01*
X107594762Y-141997381D01*
X107832858Y-141997381D01*
X107928096Y-142045000D01*
X107975715Y-142092619D01*
X108023334Y-142187857D01*
X108023334Y-142283095D01*
X107975715Y-142425952D01*
X107404286Y-142997381D01*
X108023334Y-142997381D01*
X108642381Y-141997381D02*
X108737620Y-141997381D01*
X108832858Y-142045000D01*
X108880477Y-142092619D01*
X108928096Y-142187857D01*
X108975715Y-142378333D01*
X108975715Y-142616429D01*
X108928096Y-142806905D01*
X108880477Y-142902143D01*
X108832858Y-142949762D01*
X108737620Y-142997381D01*
X108642381Y-142997381D01*
X108547143Y-142949762D01*
X108499524Y-142902143D01*
X108451905Y-142806905D01*
X108404286Y-142616429D01*
X108404286Y-142378333D01*
X108451905Y-142187857D01*
X108499524Y-142092619D01*
X108547143Y-142045000D01*
X108642381Y-141997381D01*
X109451905Y-142997381D02*
X109642381Y-142997381D01*
X109737620Y-142949762D01*
X109785239Y-142902143D01*
X109880477Y-142759286D01*
X109928096Y-142568810D01*
X109928096Y-142187857D01*
X109880477Y-142092619D01*
X109832858Y-142045000D01*
X109737620Y-141997381D01*
X109547143Y-141997381D01*
X109451905Y-142045000D01*
X109404286Y-142092619D01*
X109356667Y-142187857D01*
X109356667Y-142425952D01*
X109404286Y-142521190D01*
X109451905Y-142568810D01*
X109547143Y-142616429D01*
X109737620Y-142616429D01*
X109832858Y-142568810D01*
X109880477Y-142521190D01*
X109928096Y-142425952D01*
X113047143Y-141664047D02*
X113094762Y-141711666D01*
X113142381Y-141854523D01*
X113142381Y-141949761D01*
X113094762Y-142092619D01*
X112999524Y-142187857D01*
X112904286Y-142235476D01*
X112713810Y-142283095D01*
X112570952Y-142283095D01*
X112380476Y-142235476D01*
X112285238Y-142187857D01*
X112190000Y-142092619D01*
X112142381Y-141949761D01*
X112142381Y-141854523D01*
X112190000Y-141711666D01*
X112237619Y-141664047D01*
X112237619Y-141283095D02*
X112190000Y-141235476D01*
X112142381Y-141140238D01*
X112142381Y-140902142D01*
X112190000Y-140806904D01*
X112237619Y-140759285D01*
X112332857Y-140711666D01*
X112428095Y-140711666D01*
X112570952Y-140759285D01*
X113142381Y-141330714D01*
X113142381Y-140711666D01*
X113142381Y-139759285D02*
X113142381Y-140330714D01*
X113142381Y-140045000D02*
X112142381Y-140045000D01*
X112285238Y-140140238D01*
X112380476Y-140235476D01*
X112428095Y-140330714D01*
X112142381Y-139140238D02*
X112142381Y-139044999D01*
X112190000Y-138949761D01*
X112237619Y-138902142D01*
X112332857Y-138854523D01*
X112523333Y-138806904D01*
X112761429Y-138806904D01*
X112951905Y-138854523D01*
X113047143Y-138902142D01*
X113094762Y-138949761D01*
X113142381Y-139044999D01*
X113142381Y-139140238D01*
X113094762Y-139235476D01*
X113047143Y-139283095D01*
X112951905Y-139330714D01*
X112761429Y-139378333D01*
X112523333Y-139378333D01*
X112332857Y-139330714D01*
X112237619Y-139283095D01*
X112190000Y-139235476D01*
X112142381Y-139140238D01*
X116642381Y-159664047D02*
X116642381Y-160140238D01*
X115642381Y-160140238D01*
X115737619Y-159378333D02*
X115690000Y-159330714D01*
X115642381Y-159235476D01*
X115642381Y-158997380D01*
X115690000Y-158902142D01*
X115737619Y-158854523D01*
X115832857Y-158806904D01*
X115928095Y-158806904D01*
X116070952Y-158854523D01*
X116642381Y-159425952D01*
X116642381Y-158806904D01*
X115642381Y-158187857D02*
X115642381Y-158092618D01*
X115690000Y-157997380D01*
X115737619Y-157949761D01*
X115832857Y-157902142D01*
X116023333Y-157854523D01*
X116261429Y-157854523D01*
X116451905Y-157902142D01*
X116547143Y-157949761D01*
X116594762Y-157997380D01*
X116642381Y-158092618D01*
X116642381Y-158187857D01*
X116594762Y-158283095D01*
X116547143Y-158330714D01*
X116451905Y-158378333D01*
X116261429Y-158425952D01*
X116023333Y-158425952D01*
X115832857Y-158378333D01*
X115737619Y-158330714D01*
X115690000Y-158283095D01*
X115642381Y-158187857D01*
X116642381Y-156902142D02*
X116642381Y-157473571D01*
X116642381Y-157187857D02*
X115642381Y-157187857D01*
X115785238Y-157283095D01*
X115880476Y-157378333D01*
X115928095Y-157473571D01*
X103070953Y-128997381D02*
X102594762Y-128997381D01*
X102594762Y-127997381D01*
X103356667Y-128092619D02*
X103404286Y-128045000D01*
X103499524Y-127997381D01*
X103737620Y-127997381D01*
X103832858Y-128045000D01*
X103880477Y-128092619D01*
X103928096Y-128187857D01*
X103928096Y-128283095D01*
X103880477Y-128425952D01*
X103309048Y-128997381D01*
X103928096Y-128997381D01*
X104547143Y-127997381D02*
X104642382Y-127997381D01*
X104737620Y-128045000D01*
X104785239Y-128092619D01*
X104832858Y-128187857D01*
X104880477Y-128378333D01*
X104880477Y-128616429D01*
X104832858Y-128806905D01*
X104785239Y-128902143D01*
X104737620Y-128949762D01*
X104642382Y-128997381D01*
X104547143Y-128997381D01*
X104451905Y-128949762D01*
X104404286Y-128902143D01*
X104356667Y-128806905D01*
X104309048Y-128616429D01*
X104309048Y-128378333D01*
X104356667Y-128187857D01*
X104404286Y-128092619D01*
X104451905Y-128045000D01*
X104547143Y-127997381D01*
X105261429Y-128092619D02*
X105309048Y-128045000D01*
X105404286Y-127997381D01*
X105642382Y-127997381D01*
X105737620Y-128045000D01*
X105785239Y-128092619D01*
X105832858Y-128187857D01*
X105832858Y-128283095D01*
X105785239Y-128425952D01*
X105213810Y-128997381D01*
X105832858Y-128997381D01*
X109642381Y-151164047D02*
X109166190Y-151497381D01*
X109642381Y-151735476D02*
X108642381Y-151735476D01*
X108642381Y-151354523D01*
X108690000Y-151259285D01*
X108737619Y-151211666D01*
X108832857Y-151164047D01*
X108975714Y-151164047D01*
X109070952Y-151211666D01*
X109118571Y-151259285D01*
X109166190Y-151354523D01*
X109166190Y-151735476D01*
X108737619Y-150783095D02*
X108690000Y-150735476D01*
X108642381Y-150640238D01*
X108642381Y-150402142D01*
X108690000Y-150306904D01*
X108737619Y-150259285D01*
X108832857Y-150211666D01*
X108928095Y-150211666D01*
X109070952Y-150259285D01*
X109642381Y-150830714D01*
X109642381Y-150211666D01*
X108642381Y-149592619D02*
X108642381Y-149497380D01*
X108690000Y-149402142D01*
X108737619Y-149354523D01*
X108832857Y-149306904D01*
X109023333Y-149259285D01*
X109261429Y-149259285D01*
X109451905Y-149306904D01*
X109547143Y-149354523D01*
X109594762Y-149402142D01*
X109642381Y-149497380D01*
X109642381Y-149592619D01*
X109594762Y-149687857D01*
X109547143Y-149735476D01*
X109451905Y-149783095D01*
X109261429Y-149830714D01*
X109023333Y-149830714D01*
X108832857Y-149783095D01*
X108737619Y-149735476D01*
X108690000Y-149687857D01*
X108642381Y-149592619D01*
X108642381Y-148402142D02*
X108642381Y-148592619D01*
X108690000Y-148687857D01*
X108737619Y-148735476D01*
X108880476Y-148830714D01*
X109070952Y-148878333D01*
X109451905Y-148878333D01*
X109547143Y-148830714D01*
X109594762Y-148783095D01*
X109642381Y-148687857D01*
X109642381Y-148497380D01*
X109594762Y-148402142D01*
X109547143Y-148354523D01*
X109451905Y-148306904D01*
X109213810Y-148306904D01*
X109118571Y-148354523D01*
X109070952Y-148402142D01*
X109023333Y-148497380D01*
X109023333Y-148687857D01*
X109070952Y-148783095D01*
X109118571Y-148830714D01*
X109213810Y-148878333D01*
D19*
X101203167Y-139569000D02*
X101922833Y-139569000D01*
X102007500Y-139526667D01*
X102049833Y-139484334D01*
X102092167Y-139399667D01*
X102092167Y-139230334D01*
X102049833Y-139145667D01*
X102007500Y-139103334D01*
X101922833Y-139061000D01*
X101203167Y-139061000D01*
X101287833Y-138680001D02*
X101245500Y-138637667D01*
X101203167Y-138553001D01*
X101203167Y-138341334D01*
X101245500Y-138256667D01*
X101287833Y-138214334D01*
X101372500Y-138172001D01*
X101457167Y-138172001D01*
X101584167Y-138214334D01*
X102092167Y-138722334D01*
X102092167Y-138172001D01*
X101203167Y-137621667D02*
X101203167Y-137537000D01*
X101245500Y-137452334D01*
X101287833Y-137410000D01*
X101372500Y-137367667D01*
X101541833Y-137325334D01*
X101753500Y-137325334D01*
X101922833Y-137367667D01*
X102007500Y-137410000D01*
X102049833Y-137452334D01*
X102092167Y-137537000D01*
X102092167Y-137621667D01*
X102049833Y-137706334D01*
X102007500Y-137748667D01*
X101922833Y-137791000D01*
X101753500Y-137833334D01*
X101541833Y-137833334D01*
X101372500Y-137791000D01*
X101287833Y-137748667D01*
X101245500Y-137706334D01*
X101203167Y-137621667D01*
X101287833Y-136986667D02*
X101245500Y-136944333D01*
X101203167Y-136859667D01*
X101203167Y-136648000D01*
X101245500Y-136563333D01*
X101287833Y-136521000D01*
X101372500Y-136478667D01*
X101457167Y-136478667D01*
X101584167Y-136521000D01*
X102092167Y-137029000D01*
X102092167Y-136478667D01*
D13*
X56642381Y-150164047D02*
X56166190Y-150497381D01*
X56642381Y-150735476D02*
X55642381Y-150735476D01*
X55642381Y-150354523D01*
X55690000Y-150259285D01*
X55737619Y-150211666D01*
X55832857Y-150164047D01*
X55975714Y-150164047D01*
X56070952Y-150211666D01*
X56118571Y-150259285D01*
X56166190Y-150354523D01*
X56166190Y-150735476D01*
X55975714Y-149306904D02*
X56642381Y-149306904D01*
X55594762Y-149545000D02*
X56309048Y-149783095D01*
X56309048Y-149164047D01*
X55642381Y-148592619D02*
X55642381Y-148497380D01*
X55690000Y-148402142D01*
X55737619Y-148354523D01*
X55832857Y-148306904D01*
X56023333Y-148259285D01*
X56261429Y-148259285D01*
X56451905Y-148306904D01*
X56547143Y-148354523D01*
X56594762Y-148402142D01*
X56642381Y-148497380D01*
X56642381Y-148592619D01*
X56594762Y-148687857D01*
X56547143Y-148735476D01*
X56451905Y-148783095D01*
X56261429Y-148830714D01*
X56023333Y-148830714D01*
X55832857Y-148783095D01*
X55737619Y-148735476D01*
X55690000Y-148687857D01*
X55642381Y-148592619D01*
X56642381Y-147306904D02*
X56642381Y-147878333D01*
X56642381Y-147592619D02*
X55642381Y-147592619D01*
X55785238Y-147687857D01*
X55880476Y-147783095D01*
X55928095Y-147878333D01*
X59042381Y-150164047D02*
X58566190Y-150497381D01*
X59042381Y-150735476D02*
X58042381Y-150735476D01*
X58042381Y-150354523D01*
X58090000Y-150259285D01*
X58137619Y-150211666D01*
X58232857Y-150164047D01*
X58375714Y-150164047D01*
X58470952Y-150211666D01*
X58518571Y-150259285D01*
X58566190Y-150354523D01*
X58566190Y-150735476D01*
X58375714Y-149306904D02*
X59042381Y-149306904D01*
X57994762Y-149545000D02*
X58709048Y-149783095D01*
X58709048Y-149164047D01*
X58042381Y-148592619D02*
X58042381Y-148497380D01*
X58090000Y-148402142D01*
X58137619Y-148354523D01*
X58232857Y-148306904D01*
X58423333Y-148259285D01*
X58661429Y-148259285D01*
X58851905Y-148306904D01*
X58947143Y-148354523D01*
X58994762Y-148402142D01*
X59042381Y-148497380D01*
X59042381Y-148592619D01*
X58994762Y-148687857D01*
X58947143Y-148735476D01*
X58851905Y-148783095D01*
X58661429Y-148830714D01*
X58423333Y-148830714D01*
X58232857Y-148783095D01*
X58137619Y-148735476D01*
X58090000Y-148687857D01*
X58042381Y-148592619D01*
X58137619Y-147878333D02*
X58090000Y-147830714D01*
X58042381Y-147735476D01*
X58042381Y-147497380D01*
X58090000Y-147402142D01*
X58137619Y-147354523D01*
X58232857Y-147306904D01*
X58328095Y-147306904D01*
X58470952Y-147354523D01*
X59042381Y-147925952D01*
X59042381Y-147306904D01*
X61542381Y-150164047D02*
X61066190Y-150497381D01*
X61542381Y-150735476D02*
X60542381Y-150735476D01*
X60542381Y-150354523D01*
X60590000Y-150259285D01*
X60637619Y-150211666D01*
X60732857Y-150164047D01*
X60875714Y-150164047D01*
X60970952Y-150211666D01*
X61018571Y-150259285D01*
X61066190Y-150354523D01*
X61066190Y-150735476D01*
X60875714Y-149306904D02*
X61542381Y-149306904D01*
X60494762Y-149545000D02*
X61209048Y-149783095D01*
X61209048Y-149164047D01*
X60542381Y-148592619D02*
X60542381Y-148497380D01*
X60590000Y-148402142D01*
X60637619Y-148354523D01*
X60732857Y-148306904D01*
X60923333Y-148259285D01*
X61161429Y-148259285D01*
X61351905Y-148306904D01*
X61447143Y-148354523D01*
X61494762Y-148402142D01*
X61542381Y-148497380D01*
X61542381Y-148592619D01*
X61494762Y-148687857D01*
X61447143Y-148735476D01*
X61351905Y-148783095D01*
X61161429Y-148830714D01*
X60923333Y-148830714D01*
X60732857Y-148783095D01*
X60637619Y-148735476D01*
X60590000Y-148687857D01*
X60542381Y-148592619D01*
X60542381Y-147925952D02*
X60542381Y-147306904D01*
X60923333Y-147640238D01*
X60923333Y-147497380D01*
X60970952Y-147402142D01*
X61018571Y-147354523D01*
X61113810Y-147306904D01*
X61351905Y-147306904D01*
X61447143Y-147354523D01*
X61494762Y-147402142D01*
X61542381Y-147497380D01*
X61542381Y-147783095D01*
X61494762Y-147878333D01*
X61447143Y-147925952D01*
X63942381Y-150164047D02*
X63466190Y-150497381D01*
X63942381Y-150735476D02*
X62942381Y-150735476D01*
X62942381Y-150354523D01*
X62990000Y-150259285D01*
X63037619Y-150211666D01*
X63132857Y-150164047D01*
X63275714Y-150164047D01*
X63370952Y-150211666D01*
X63418571Y-150259285D01*
X63466190Y-150354523D01*
X63466190Y-150735476D01*
X63275714Y-149306904D02*
X63942381Y-149306904D01*
X62894762Y-149545000D02*
X63609048Y-149783095D01*
X63609048Y-149164047D01*
X62942381Y-148592619D02*
X62942381Y-148497380D01*
X62990000Y-148402142D01*
X63037619Y-148354523D01*
X63132857Y-148306904D01*
X63323333Y-148259285D01*
X63561429Y-148259285D01*
X63751905Y-148306904D01*
X63847143Y-148354523D01*
X63894762Y-148402142D01*
X63942381Y-148497380D01*
X63942381Y-148592619D01*
X63894762Y-148687857D01*
X63847143Y-148735476D01*
X63751905Y-148783095D01*
X63561429Y-148830714D01*
X63323333Y-148830714D01*
X63132857Y-148783095D01*
X63037619Y-148735476D01*
X62990000Y-148687857D01*
X62942381Y-148592619D01*
X63275714Y-147402142D02*
X63942381Y-147402142D01*
X62894762Y-147640238D02*
X63609048Y-147878333D01*
X63609048Y-147259285D01*
X54142381Y-130830714D02*
X54856667Y-130830714D01*
X54999524Y-130878334D01*
X55094762Y-130973572D01*
X55142381Y-131116429D01*
X55142381Y-131211667D01*
X54142381Y-129878333D02*
X54142381Y-130354524D01*
X54618571Y-130402143D01*
X54570952Y-130354524D01*
X54523333Y-130259286D01*
X54523333Y-130021190D01*
X54570952Y-129925952D01*
X54618571Y-129878333D01*
X54713810Y-129830714D01*
X54951905Y-129830714D01*
X55047143Y-129878333D01*
X55094762Y-129925952D01*
X55142381Y-130021190D01*
X55142381Y-130259286D01*
X55094762Y-130354524D01*
X55047143Y-130402143D01*
X54142381Y-129211667D02*
X54142381Y-129116428D01*
X54190000Y-129021190D01*
X54237619Y-128973571D01*
X54332857Y-128925952D01*
X54523333Y-128878333D01*
X54761429Y-128878333D01*
X54951905Y-128925952D01*
X55047143Y-128973571D01*
X55094762Y-129021190D01*
X55142381Y-129116428D01*
X55142381Y-129211667D01*
X55094762Y-129306905D01*
X55047143Y-129354524D01*
X54951905Y-129402143D01*
X54761429Y-129449762D01*
X54523333Y-129449762D01*
X54332857Y-129402143D01*
X54237619Y-129354524D01*
X54190000Y-129306905D01*
X54142381Y-129211667D01*
X54237619Y-128497381D02*
X54190000Y-128449762D01*
X54142381Y-128354524D01*
X54142381Y-128116428D01*
X54190000Y-128021190D01*
X54237619Y-127973571D01*
X54332857Y-127925952D01*
X54428095Y-127925952D01*
X54570952Y-127973571D01*
X55142381Y-128545000D01*
X55142381Y-127925952D01*
X71470953Y-140297381D02*
X71137619Y-139821190D01*
X70899524Y-140297381D02*
X70899524Y-139297381D01*
X71280477Y-139297381D01*
X71375715Y-139345000D01*
X71423334Y-139392619D01*
X71470953Y-139487857D01*
X71470953Y-139630714D01*
X71423334Y-139725952D01*
X71375715Y-139773571D01*
X71280477Y-139821190D01*
X70899524Y-139821190D01*
X72375715Y-139297381D02*
X71899524Y-139297381D01*
X71851905Y-139773571D01*
X71899524Y-139725952D01*
X71994762Y-139678333D01*
X72232858Y-139678333D01*
X72328096Y-139725952D01*
X72375715Y-139773571D01*
X72423334Y-139868810D01*
X72423334Y-140106905D01*
X72375715Y-140202143D01*
X72328096Y-140249762D01*
X72232858Y-140297381D01*
X71994762Y-140297381D01*
X71899524Y-140249762D01*
X71851905Y-140202143D01*
X73042381Y-139297381D02*
X73137620Y-139297381D01*
X73232858Y-139345000D01*
X73280477Y-139392619D01*
X73328096Y-139487857D01*
X73375715Y-139678333D01*
X73375715Y-139916429D01*
X73328096Y-140106905D01*
X73280477Y-140202143D01*
X73232858Y-140249762D01*
X73137620Y-140297381D01*
X73042381Y-140297381D01*
X72947143Y-140249762D01*
X72899524Y-140202143D01*
X72851905Y-140106905D01*
X72804286Y-139916429D01*
X72804286Y-139678333D01*
X72851905Y-139487857D01*
X72899524Y-139392619D01*
X72947143Y-139345000D01*
X73042381Y-139297381D01*
X73709048Y-139297381D02*
X74328096Y-139297381D01*
X73994762Y-139678333D01*
X74137620Y-139678333D01*
X74232858Y-139725952D01*
X74280477Y-139773571D01*
X74328096Y-139868810D01*
X74328096Y-140106905D01*
X74280477Y-140202143D01*
X74232858Y-140249762D01*
X74137620Y-140297381D01*
X73851905Y-140297381D01*
X73756667Y-140249762D01*
X73709048Y-140202143D01*
X93662381Y-160614047D02*
X93186190Y-160947381D01*
X93662381Y-161185476D02*
X92662381Y-161185476D01*
X92662381Y-160804523D01*
X92710000Y-160709285D01*
X92757619Y-160661666D01*
X92852857Y-160614047D01*
X92995714Y-160614047D01*
X93090952Y-160661666D01*
X93138571Y-160709285D01*
X93186190Y-160804523D01*
X93186190Y-161185476D01*
X92662381Y-159709285D02*
X92662381Y-160185476D01*
X93138571Y-160233095D01*
X93090952Y-160185476D01*
X93043333Y-160090238D01*
X93043333Y-159852142D01*
X93090952Y-159756904D01*
X93138571Y-159709285D01*
X93233810Y-159661666D01*
X93471905Y-159661666D01*
X93567143Y-159709285D01*
X93614762Y-159756904D01*
X93662381Y-159852142D01*
X93662381Y-160090238D01*
X93614762Y-160185476D01*
X93567143Y-160233095D01*
X92662381Y-159042619D02*
X92662381Y-158947380D01*
X92710000Y-158852142D01*
X92757619Y-158804523D01*
X92852857Y-158756904D01*
X93043333Y-158709285D01*
X93281429Y-158709285D01*
X93471905Y-158756904D01*
X93567143Y-158804523D01*
X93614762Y-158852142D01*
X93662381Y-158947380D01*
X93662381Y-159042619D01*
X93614762Y-159137857D01*
X93567143Y-159185476D01*
X93471905Y-159233095D01*
X93281429Y-159280714D01*
X93043333Y-159280714D01*
X92852857Y-159233095D01*
X92757619Y-159185476D01*
X92710000Y-159137857D01*
X92662381Y-159042619D01*
X92995714Y-157852142D02*
X93662381Y-157852142D01*
X92614762Y-158090238D02*
X93329048Y-158328333D01*
X93329048Y-157709285D01*
X89562381Y-160614047D02*
X89086190Y-160947381D01*
X89562381Y-161185476D02*
X88562381Y-161185476D01*
X88562381Y-160804523D01*
X88610000Y-160709285D01*
X88657619Y-160661666D01*
X88752857Y-160614047D01*
X88895714Y-160614047D01*
X88990952Y-160661666D01*
X89038571Y-160709285D01*
X89086190Y-160804523D01*
X89086190Y-161185476D01*
X88562381Y-159709285D02*
X88562381Y-160185476D01*
X89038571Y-160233095D01*
X88990952Y-160185476D01*
X88943333Y-160090238D01*
X88943333Y-159852142D01*
X88990952Y-159756904D01*
X89038571Y-159709285D01*
X89133810Y-159661666D01*
X89371905Y-159661666D01*
X89467143Y-159709285D01*
X89514762Y-159756904D01*
X89562381Y-159852142D01*
X89562381Y-160090238D01*
X89514762Y-160185476D01*
X89467143Y-160233095D01*
X88562381Y-159042619D02*
X88562381Y-158947380D01*
X88610000Y-158852142D01*
X88657619Y-158804523D01*
X88752857Y-158756904D01*
X88943333Y-158709285D01*
X89181429Y-158709285D01*
X89371905Y-158756904D01*
X89467143Y-158804523D01*
X89514762Y-158852142D01*
X89562381Y-158947380D01*
X89562381Y-159042619D01*
X89514762Y-159137857D01*
X89467143Y-159185476D01*
X89371905Y-159233095D01*
X89181429Y-159280714D01*
X88943333Y-159280714D01*
X88752857Y-159233095D01*
X88657619Y-159185476D01*
X88610000Y-159137857D01*
X88562381Y-159042619D01*
X88562381Y-157804523D02*
X88562381Y-158280714D01*
X89038571Y-158328333D01*
X88990952Y-158280714D01*
X88943333Y-158185476D01*
X88943333Y-157947380D01*
X88990952Y-157852142D01*
X89038571Y-157804523D01*
X89133810Y-157756904D01*
X89371905Y-157756904D01*
X89467143Y-157804523D01*
X89514762Y-157852142D01*
X89562381Y-157947380D01*
X89562381Y-158185476D01*
X89514762Y-158280714D01*
X89467143Y-158328333D01*
X91762381Y-160614047D02*
X91286190Y-160947381D01*
X91762381Y-161185476D02*
X90762381Y-161185476D01*
X90762381Y-160804523D01*
X90810000Y-160709285D01*
X90857619Y-160661666D01*
X90952857Y-160614047D01*
X91095714Y-160614047D01*
X91190952Y-160661666D01*
X91238571Y-160709285D01*
X91286190Y-160804523D01*
X91286190Y-161185476D01*
X90762381Y-159709285D02*
X90762381Y-160185476D01*
X91238571Y-160233095D01*
X91190952Y-160185476D01*
X91143333Y-160090238D01*
X91143333Y-159852142D01*
X91190952Y-159756904D01*
X91238571Y-159709285D01*
X91333810Y-159661666D01*
X91571905Y-159661666D01*
X91667143Y-159709285D01*
X91714762Y-159756904D01*
X91762381Y-159852142D01*
X91762381Y-160090238D01*
X91714762Y-160185476D01*
X91667143Y-160233095D01*
X90762381Y-159042619D02*
X90762381Y-158947380D01*
X90810000Y-158852142D01*
X90857619Y-158804523D01*
X90952857Y-158756904D01*
X91143333Y-158709285D01*
X91381429Y-158709285D01*
X91571905Y-158756904D01*
X91667143Y-158804523D01*
X91714762Y-158852142D01*
X91762381Y-158947380D01*
X91762381Y-159042619D01*
X91714762Y-159137857D01*
X91667143Y-159185476D01*
X91571905Y-159233095D01*
X91381429Y-159280714D01*
X91143333Y-159280714D01*
X90952857Y-159233095D01*
X90857619Y-159185476D01*
X90810000Y-159137857D01*
X90762381Y-159042619D01*
X90762381Y-157852142D02*
X90762381Y-158042619D01*
X90810000Y-158137857D01*
X90857619Y-158185476D01*
X91000476Y-158280714D01*
X91190952Y-158328333D01*
X91571905Y-158328333D01*
X91667143Y-158280714D01*
X91714762Y-158233095D01*
X91762381Y-158137857D01*
X91762381Y-157947380D01*
X91714762Y-157852142D01*
X91667143Y-157804523D01*
X91571905Y-157756904D01*
X91333810Y-157756904D01*
X91238571Y-157804523D01*
X91190952Y-157852142D01*
X91143333Y-157947380D01*
X91143333Y-158137857D01*
X91190952Y-158233095D01*
X91238571Y-158280714D01*
X91333810Y-158328333D01*
X68162381Y-167542619D02*
X68067143Y-167495000D01*
X67971905Y-167399762D01*
X67829048Y-167256905D01*
X67733809Y-167209286D01*
X67638571Y-167209286D01*
X67686190Y-167447381D02*
X67590952Y-167399762D01*
X67495714Y-167304524D01*
X67448095Y-167114048D01*
X67448095Y-166780714D01*
X67495714Y-166590238D01*
X67590952Y-166495000D01*
X67686190Y-166447381D01*
X67876667Y-166447381D01*
X67971905Y-166495000D01*
X68067143Y-166590238D01*
X68114762Y-166780714D01*
X68114762Y-167114048D01*
X68067143Y-167304524D01*
X67971905Y-167399762D01*
X67876667Y-167447381D01*
X67686190Y-167447381D01*
X68971905Y-166447381D02*
X68781428Y-166447381D01*
X68686190Y-166495000D01*
X68638571Y-166542619D01*
X68543333Y-166685476D01*
X68495714Y-166875952D01*
X68495714Y-167256905D01*
X68543333Y-167352143D01*
X68590952Y-167399762D01*
X68686190Y-167447381D01*
X68876667Y-167447381D01*
X68971905Y-167399762D01*
X69019524Y-167352143D01*
X69067143Y-167256905D01*
X69067143Y-167018810D01*
X69019524Y-166923571D01*
X68971905Y-166875952D01*
X68876667Y-166828333D01*
X68686190Y-166828333D01*
X68590952Y-166875952D01*
X68543333Y-166923571D01*
X68495714Y-167018810D01*
X69686190Y-166447381D02*
X69781429Y-166447381D01*
X69876667Y-166495000D01*
X69924286Y-166542619D01*
X69971905Y-166637857D01*
X70019524Y-166828333D01*
X70019524Y-167066429D01*
X69971905Y-167256905D01*
X69924286Y-167352143D01*
X69876667Y-167399762D01*
X69781429Y-167447381D01*
X69686190Y-167447381D01*
X69590952Y-167399762D01*
X69543333Y-167352143D01*
X69495714Y-167256905D01*
X69448095Y-167066429D01*
X69448095Y-166828333D01*
X69495714Y-166637857D01*
X69543333Y-166542619D01*
X69590952Y-166495000D01*
X69686190Y-166447381D01*
X70971905Y-167447381D02*
X70400476Y-167447381D01*
X70686190Y-167447381D02*
X70686190Y-166447381D01*
X70590952Y-166590238D01*
X70495714Y-166685476D01*
X70400476Y-166733095D01*
X45662381Y-161042619D02*
X45567143Y-160995000D01*
X45471905Y-160899762D01*
X45329048Y-160756905D01*
X45233809Y-160709286D01*
X45138571Y-160709286D01*
X45186190Y-160947381D02*
X45090952Y-160899762D01*
X44995714Y-160804524D01*
X44948095Y-160614048D01*
X44948095Y-160280714D01*
X44995714Y-160090238D01*
X45090952Y-159995000D01*
X45186190Y-159947381D01*
X45376667Y-159947381D01*
X45471905Y-159995000D01*
X45567143Y-160090238D01*
X45614762Y-160280714D01*
X45614762Y-160614048D01*
X45567143Y-160804524D01*
X45471905Y-160899762D01*
X45376667Y-160947381D01*
X45186190Y-160947381D01*
X46471905Y-159947381D02*
X46281428Y-159947381D01*
X46186190Y-159995000D01*
X46138571Y-160042619D01*
X46043333Y-160185476D01*
X45995714Y-160375952D01*
X45995714Y-160756905D01*
X46043333Y-160852143D01*
X46090952Y-160899762D01*
X46186190Y-160947381D01*
X46376667Y-160947381D01*
X46471905Y-160899762D01*
X46519524Y-160852143D01*
X46567143Y-160756905D01*
X46567143Y-160518810D01*
X46519524Y-160423571D01*
X46471905Y-160375952D01*
X46376667Y-160328333D01*
X46186190Y-160328333D01*
X46090952Y-160375952D01*
X46043333Y-160423571D01*
X45995714Y-160518810D01*
X47186190Y-159947381D02*
X47281429Y-159947381D01*
X47376667Y-159995000D01*
X47424286Y-160042619D01*
X47471905Y-160137857D01*
X47519524Y-160328333D01*
X47519524Y-160566429D01*
X47471905Y-160756905D01*
X47424286Y-160852143D01*
X47376667Y-160899762D01*
X47281429Y-160947381D01*
X47186190Y-160947381D01*
X47090952Y-160899762D01*
X47043333Y-160852143D01*
X46995714Y-160756905D01*
X46948095Y-160566429D01*
X46948095Y-160328333D01*
X46995714Y-160137857D01*
X47043333Y-160042619D01*
X47090952Y-159995000D01*
X47186190Y-159947381D01*
X47852857Y-159947381D02*
X48471905Y-159947381D01*
X48138571Y-160328333D01*
X48281429Y-160328333D01*
X48376667Y-160375952D01*
X48424286Y-160423571D01*
X48471905Y-160518810D01*
X48471905Y-160756905D01*
X48424286Y-160852143D01*
X48376667Y-160899762D01*
X48281429Y-160947381D01*
X47995714Y-160947381D01*
X47900476Y-160899762D01*
X47852857Y-160852143D01*
X82975714Y-137497381D02*
X82975714Y-138306905D01*
X83023333Y-138402143D01*
X83070952Y-138449762D01*
X83166190Y-138497381D01*
X83356667Y-138497381D01*
X83451905Y-138449762D01*
X83499524Y-138402143D01*
X83547143Y-138306905D01*
X83547143Y-137497381D01*
X84499524Y-137497381D02*
X84023333Y-137497381D01*
X83975714Y-137973571D01*
X84023333Y-137925952D01*
X84118571Y-137878333D01*
X84356667Y-137878333D01*
X84451905Y-137925952D01*
X84499524Y-137973571D01*
X84547143Y-138068810D01*
X84547143Y-138306905D01*
X84499524Y-138402143D01*
X84451905Y-138449762D01*
X84356667Y-138497381D01*
X84118571Y-138497381D01*
X84023333Y-138449762D01*
X83975714Y-138402143D01*
X85166190Y-137497381D02*
X85261429Y-137497381D01*
X85356667Y-137545000D01*
X85404286Y-137592619D01*
X85451905Y-137687857D01*
X85499524Y-137878333D01*
X85499524Y-138116429D01*
X85451905Y-138306905D01*
X85404286Y-138402143D01*
X85356667Y-138449762D01*
X85261429Y-138497381D01*
X85166190Y-138497381D01*
X85070952Y-138449762D01*
X85023333Y-138402143D01*
X84975714Y-138306905D01*
X84928095Y-138116429D01*
X84928095Y-137878333D01*
X84975714Y-137687857D01*
X85023333Y-137592619D01*
X85070952Y-137545000D01*
X85166190Y-137497381D01*
X86451905Y-138497381D02*
X85880476Y-138497381D01*
X86166190Y-138497381D02*
X86166190Y-137497381D01*
X86070952Y-137640238D01*
X85975714Y-137735476D01*
X85880476Y-137783095D01*
X68162381Y-178542619D02*
X68067143Y-178495000D01*
X67971905Y-178399762D01*
X67829048Y-178256905D01*
X67733809Y-178209286D01*
X67638571Y-178209286D01*
X67686190Y-178447381D02*
X67590952Y-178399762D01*
X67495714Y-178304524D01*
X67448095Y-178114048D01*
X67448095Y-177780714D01*
X67495714Y-177590238D01*
X67590952Y-177495000D01*
X67686190Y-177447381D01*
X67876667Y-177447381D01*
X67971905Y-177495000D01*
X68067143Y-177590238D01*
X68114762Y-177780714D01*
X68114762Y-178114048D01*
X68067143Y-178304524D01*
X67971905Y-178399762D01*
X67876667Y-178447381D01*
X67686190Y-178447381D01*
X68971905Y-177447381D02*
X68781428Y-177447381D01*
X68686190Y-177495000D01*
X68638571Y-177542619D01*
X68543333Y-177685476D01*
X68495714Y-177875952D01*
X68495714Y-178256905D01*
X68543333Y-178352143D01*
X68590952Y-178399762D01*
X68686190Y-178447381D01*
X68876667Y-178447381D01*
X68971905Y-178399762D01*
X69019524Y-178352143D01*
X69067143Y-178256905D01*
X69067143Y-178018810D01*
X69019524Y-177923571D01*
X68971905Y-177875952D01*
X68876667Y-177828333D01*
X68686190Y-177828333D01*
X68590952Y-177875952D01*
X68543333Y-177923571D01*
X68495714Y-178018810D01*
X69686190Y-177447381D02*
X69781429Y-177447381D01*
X69876667Y-177495000D01*
X69924286Y-177542619D01*
X69971905Y-177637857D01*
X70019524Y-177828333D01*
X70019524Y-178066429D01*
X69971905Y-178256905D01*
X69924286Y-178352143D01*
X69876667Y-178399762D01*
X69781429Y-178447381D01*
X69686190Y-178447381D01*
X69590952Y-178399762D01*
X69543333Y-178352143D01*
X69495714Y-178256905D01*
X69448095Y-178066429D01*
X69448095Y-177828333D01*
X69495714Y-177637857D01*
X69543333Y-177542619D01*
X69590952Y-177495000D01*
X69686190Y-177447381D01*
X70400476Y-177542619D02*
X70448095Y-177495000D01*
X70543333Y-177447381D01*
X70781429Y-177447381D01*
X70876667Y-177495000D01*
X70924286Y-177542619D01*
X70971905Y-177637857D01*
X70971905Y-177733095D01*
X70924286Y-177875952D01*
X70352857Y-178447381D01*
X70971905Y-178447381D01*
X46162381Y-166542619D02*
X46067143Y-166495000D01*
X45971905Y-166399762D01*
X45829048Y-166256905D01*
X45733809Y-166209286D01*
X45638571Y-166209286D01*
X45686190Y-166447381D02*
X45590952Y-166399762D01*
X45495714Y-166304524D01*
X45448095Y-166114048D01*
X45448095Y-165780714D01*
X45495714Y-165590238D01*
X45590952Y-165495000D01*
X45686190Y-165447381D01*
X45876667Y-165447381D01*
X45971905Y-165495000D01*
X46067143Y-165590238D01*
X46114762Y-165780714D01*
X46114762Y-166114048D01*
X46067143Y-166304524D01*
X45971905Y-166399762D01*
X45876667Y-166447381D01*
X45686190Y-166447381D01*
X46971905Y-165447381D02*
X46781428Y-165447381D01*
X46686190Y-165495000D01*
X46638571Y-165542619D01*
X46543333Y-165685476D01*
X46495714Y-165875952D01*
X46495714Y-166256905D01*
X46543333Y-166352143D01*
X46590952Y-166399762D01*
X46686190Y-166447381D01*
X46876667Y-166447381D01*
X46971905Y-166399762D01*
X47019524Y-166352143D01*
X47067143Y-166256905D01*
X47067143Y-166018810D01*
X47019524Y-165923571D01*
X46971905Y-165875952D01*
X46876667Y-165828333D01*
X46686190Y-165828333D01*
X46590952Y-165875952D01*
X46543333Y-165923571D01*
X46495714Y-166018810D01*
X47686190Y-165447381D02*
X47781429Y-165447381D01*
X47876667Y-165495000D01*
X47924286Y-165542619D01*
X47971905Y-165637857D01*
X48019524Y-165828333D01*
X48019524Y-166066429D01*
X47971905Y-166256905D01*
X47924286Y-166352143D01*
X47876667Y-166399762D01*
X47781429Y-166447381D01*
X47686190Y-166447381D01*
X47590952Y-166399762D01*
X47543333Y-166352143D01*
X47495714Y-166256905D01*
X47448095Y-166066429D01*
X47448095Y-165828333D01*
X47495714Y-165637857D01*
X47543333Y-165542619D01*
X47590952Y-165495000D01*
X47686190Y-165447381D01*
X48876667Y-165780714D02*
X48876667Y-166447381D01*
X48638571Y-165399762D02*
X48400476Y-166114048D01*
X49019524Y-166114048D01*
X80662381Y-161280714D02*
X81376667Y-161280714D01*
X81519524Y-161328334D01*
X81614762Y-161423572D01*
X81662381Y-161566429D01*
X81662381Y-161661667D01*
X81662381Y-160804524D02*
X80662381Y-160804524D01*
X80662381Y-160423571D01*
X80710000Y-160328333D01*
X80757619Y-160280714D01*
X80852857Y-160233095D01*
X80995714Y-160233095D01*
X81090952Y-160280714D01*
X81138571Y-160328333D01*
X81186190Y-160423571D01*
X81186190Y-160804524D01*
X80662381Y-159328333D02*
X80662381Y-159804524D01*
X81138571Y-159852143D01*
X81090952Y-159804524D01*
X81043333Y-159709286D01*
X81043333Y-159471190D01*
X81090952Y-159375952D01*
X81138571Y-159328333D01*
X81233810Y-159280714D01*
X81471905Y-159280714D01*
X81567143Y-159328333D01*
X81614762Y-159375952D01*
X81662381Y-159471190D01*
X81662381Y-159709286D01*
X81614762Y-159804524D01*
X81567143Y-159852143D01*
X80662381Y-158661667D02*
X80662381Y-158566428D01*
X80710000Y-158471190D01*
X80757619Y-158423571D01*
X80852857Y-158375952D01*
X81043333Y-158328333D01*
X81281429Y-158328333D01*
X81471905Y-158375952D01*
X81567143Y-158423571D01*
X81614762Y-158471190D01*
X81662381Y-158566428D01*
X81662381Y-158661667D01*
X81614762Y-158756905D01*
X81567143Y-158804524D01*
X81471905Y-158852143D01*
X81281429Y-158899762D01*
X81043333Y-158899762D01*
X80852857Y-158852143D01*
X80757619Y-158804524D01*
X80710000Y-158756905D01*
X80662381Y-158661667D01*
X81662381Y-157375952D02*
X81662381Y-157947381D01*
X81662381Y-157661667D02*
X80662381Y-157661667D01*
X80805238Y-157756905D01*
X80900476Y-157852143D01*
X80948095Y-157947381D01*
D21*
X54971352Y-163907114D02*
X54925390Y-163953076D01*
X54787505Y-163999038D01*
X54695581Y-163999038D01*
X54557695Y-163953076D01*
X54465771Y-163861152D01*
X54419810Y-163769229D01*
X54373848Y-163585381D01*
X54373848Y-163447495D01*
X54419810Y-163263648D01*
X54465771Y-163171724D01*
X54557695Y-163079800D01*
X54695581Y-163033838D01*
X54787505Y-163033838D01*
X54925390Y-163079800D01*
X54971352Y-163125762D01*
X55798667Y-163033838D02*
X55614819Y-163033838D01*
X55522895Y-163079800D01*
X55476933Y-163125762D01*
X55385010Y-163263648D01*
X55339048Y-163447495D01*
X55339048Y-163815190D01*
X55385010Y-163907114D01*
X55430971Y-163953076D01*
X55522895Y-163999038D01*
X55706743Y-163999038D01*
X55798667Y-163953076D01*
X55844629Y-163907114D01*
X55890590Y-163815190D01*
X55890590Y-163585381D01*
X55844629Y-163493457D01*
X55798667Y-163447495D01*
X55706743Y-163401533D01*
X55522895Y-163401533D01*
X55430971Y-163447495D01*
X55385010Y-163493457D01*
X55339048Y-163585381D01*
X56488095Y-163033838D02*
X56580019Y-163033838D01*
X56671943Y-163079800D01*
X56717905Y-163125762D01*
X56763867Y-163217686D01*
X56809828Y-163401533D01*
X56809828Y-163631343D01*
X56763867Y-163815190D01*
X56717905Y-163907114D01*
X56671943Y-163953076D01*
X56580019Y-163999038D01*
X56488095Y-163999038D01*
X56396171Y-163953076D01*
X56350209Y-163907114D01*
X56304248Y-163815190D01*
X56258286Y-163631343D01*
X56258286Y-163401533D01*
X56304248Y-163217686D01*
X56350209Y-163125762D01*
X56396171Y-163079800D01*
X56488095Y-163033838D01*
X57637143Y-163355571D02*
X57637143Y-163999038D01*
X57407333Y-162987876D02*
X57177524Y-163677305D01*
X57775028Y-163677305D01*
X61971352Y-174907114D02*
X61925390Y-174953076D01*
X61787505Y-174999038D01*
X61695581Y-174999038D01*
X61557695Y-174953076D01*
X61465771Y-174861152D01*
X61419810Y-174769229D01*
X61373848Y-174585381D01*
X61373848Y-174447495D01*
X61419810Y-174263648D01*
X61465771Y-174171724D01*
X61557695Y-174079800D01*
X61695581Y-174033838D01*
X61787505Y-174033838D01*
X61925390Y-174079800D01*
X61971352Y-174125762D01*
X62798667Y-174033838D02*
X62614819Y-174033838D01*
X62522895Y-174079800D01*
X62476933Y-174125762D01*
X62385010Y-174263648D01*
X62339048Y-174447495D01*
X62339048Y-174815190D01*
X62385010Y-174907114D01*
X62430971Y-174953076D01*
X62522895Y-174999038D01*
X62706743Y-174999038D01*
X62798667Y-174953076D01*
X62844629Y-174907114D01*
X62890590Y-174815190D01*
X62890590Y-174585381D01*
X62844629Y-174493457D01*
X62798667Y-174447495D01*
X62706743Y-174401533D01*
X62522895Y-174401533D01*
X62430971Y-174447495D01*
X62385010Y-174493457D01*
X62339048Y-174585381D01*
X63488095Y-174033838D02*
X63580019Y-174033838D01*
X63671943Y-174079800D01*
X63717905Y-174125762D01*
X63763867Y-174217686D01*
X63809828Y-174401533D01*
X63809828Y-174631343D01*
X63763867Y-174815190D01*
X63717905Y-174907114D01*
X63671943Y-174953076D01*
X63580019Y-174999038D01*
X63488095Y-174999038D01*
X63396171Y-174953076D01*
X63350209Y-174907114D01*
X63304248Y-174815190D01*
X63258286Y-174631343D01*
X63258286Y-174401533D01*
X63304248Y-174217686D01*
X63350209Y-174125762D01*
X63396171Y-174079800D01*
X63488095Y-174033838D01*
X64637143Y-174033838D02*
X64453295Y-174033838D01*
X64361371Y-174079800D01*
X64315409Y-174125762D01*
X64223486Y-174263648D01*
X64177524Y-174447495D01*
X64177524Y-174815190D01*
X64223486Y-174907114D01*
X64269447Y-174953076D01*
X64361371Y-174999038D01*
X64545219Y-174999038D01*
X64637143Y-174953076D01*
X64683105Y-174907114D01*
X64729066Y-174815190D01*
X64729066Y-174585381D01*
X64683105Y-174493457D01*
X64637143Y-174447495D01*
X64545219Y-174401533D01*
X64361371Y-174401533D01*
X64269447Y-174447495D01*
X64223486Y-174493457D01*
X64177524Y-174585381D01*
D13*
X110557619Y-172012619D02*
X110510000Y-172107857D01*
X110414762Y-172203095D01*
X110271905Y-172345952D01*
X110224286Y-172441191D01*
X110224286Y-172536429D01*
X110462381Y-172488810D02*
X110414762Y-172584048D01*
X110319524Y-172679286D01*
X110129048Y-172726905D01*
X109795714Y-172726905D01*
X109605238Y-172679286D01*
X109510000Y-172584048D01*
X109462381Y-172488810D01*
X109462381Y-172298333D01*
X109510000Y-172203095D01*
X109605238Y-172107857D01*
X109795714Y-172060238D01*
X110129048Y-172060238D01*
X110319524Y-172107857D01*
X110414762Y-172203095D01*
X110462381Y-172298333D01*
X110462381Y-172488810D01*
X109557619Y-171679286D02*
X109510000Y-171631667D01*
X109462381Y-171536429D01*
X109462381Y-171298333D01*
X109510000Y-171203095D01*
X109557619Y-171155476D01*
X109652857Y-171107857D01*
X109748095Y-171107857D01*
X109890952Y-171155476D01*
X110462381Y-171726905D01*
X110462381Y-171107857D01*
X109462381Y-170488810D02*
X109462381Y-170393571D01*
X109510000Y-170298333D01*
X109557619Y-170250714D01*
X109652857Y-170203095D01*
X109843333Y-170155476D01*
X110081429Y-170155476D01*
X110271905Y-170203095D01*
X110367143Y-170250714D01*
X110414762Y-170298333D01*
X110462381Y-170393571D01*
X110462381Y-170488810D01*
X110414762Y-170584048D01*
X110367143Y-170631667D01*
X110271905Y-170679286D01*
X110081429Y-170726905D01*
X109843333Y-170726905D01*
X109652857Y-170679286D01*
X109557619Y-170631667D01*
X109510000Y-170584048D01*
X109462381Y-170488810D01*
X110462381Y-169203095D02*
X110462381Y-169774524D01*
X110462381Y-169488810D02*
X109462381Y-169488810D01*
X109605238Y-169584048D01*
X109700476Y-169679286D01*
X109748095Y-169774524D01*
D19*
X108477262Y-161781048D02*
X108477262Y-162757738D01*
X108534714Y-162872643D01*
X108592167Y-162930095D01*
X108707071Y-162987548D01*
X108936881Y-162987548D01*
X109051786Y-162930095D01*
X109109238Y-162872643D01*
X109166690Y-162757738D01*
X109166690Y-161781048D01*
X109683762Y-161895952D02*
X109741214Y-161838500D01*
X109856119Y-161781048D01*
X110143381Y-161781048D01*
X110258285Y-161838500D01*
X110315738Y-161895952D01*
X110373190Y-162010857D01*
X110373190Y-162125762D01*
X110315738Y-162298119D01*
X109626309Y-162987548D01*
X110373190Y-162987548D01*
X111120071Y-161781048D02*
X111234976Y-161781048D01*
X111349881Y-161838500D01*
X111407333Y-161895952D01*
X111464786Y-162010857D01*
X111522238Y-162240667D01*
X111522238Y-162527929D01*
X111464786Y-162757738D01*
X111407333Y-162872643D01*
X111349881Y-162930095D01*
X111234976Y-162987548D01*
X111120071Y-162987548D01*
X111005167Y-162930095D01*
X110947714Y-162872643D01*
X110890262Y-162757738D01*
X110832810Y-162527929D01*
X110832810Y-162240667D01*
X110890262Y-162010857D01*
X110947714Y-161895952D01*
X111005167Y-161838500D01*
X111120071Y-161781048D01*
X112671286Y-162987548D02*
X111981858Y-162987548D01*
X112326572Y-162987548D02*
X112326572Y-161781048D01*
X112211667Y-161953405D01*
X112096762Y-162068310D01*
X111981858Y-162125762D01*
D13*
X37638572Y-182323571D02*
X37305238Y-182323571D01*
X37305238Y-182847381D02*
X37305238Y-181847381D01*
X37781429Y-181847381D01*
X38162381Y-182847381D02*
X38162381Y-181847381D01*
X38638571Y-182847381D02*
X38638571Y-181847381D01*
X38876666Y-181847381D01*
X39019524Y-181895000D01*
X39114762Y-181990238D01*
X39162381Y-182085476D01*
X39210000Y-182275952D01*
X39210000Y-182418810D01*
X39162381Y-182609286D01*
X39114762Y-182704524D01*
X39019524Y-182799762D01*
X38876666Y-182847381D01*
X38638571Y-182847381D01*
X40162381Y-182847381D02*
X39590952Y-182847381D01*
X39876666Y-182847381D02*
X39876666Y-181847381D01*
X39781428Y-181990238D01*
X39686190Y-182085476D01*
X39590952Y-182133095D01*
X74757619Y-186042619D02*
X74710000Y-186137857D01*
X74614762Y-186233095D01*
X74471905Y-186375952D01*
X74424286Y-186471191D01*
X74424286Y-186566429D01*
X74662381Y-186518810D02*
X74614762Y-186614048D01*
X74519524Y-186709286D01*
X74329048Y-186756905D01*
X73995714Y-186756905D01*
X73805238Y-186709286D01*
X73710000Y-186614048D01*
X73662381Y-186518810D01*
X73662381Y-186328333D01*
X73710000Y-186233095D01*
X73805238Y-186137857D01*
X73995714Y-186090238D01*
X74329048Y-186090238D01*
X74519524Y-186137857D01*
X74614762Y-186233095D01*
X74662381Y-186328333D01*
X74662381Y-186518810D01*
X73662381Y-185756905D02*
X73662381Y-185137857D01*
X74043333Y-185471191D01*
X74043333Y-185328333D01*
X74090952Y-185233095D01*
X74138571Y-185185476D01*
X74233810Y-185137857D01*
X74471905Y-185137857D01*
X74567143Y-185185476D01*
X74614762Y-185233095D01*
X74662381Y-185328333D01*
X74662381Y-185614048D01*
X74614762Y-185709286D01*
X74567143Y-185756905D01*
X73662381Y-184518810D02*
X73662381Y-184423571D01*
X73710000Y-184328333D01*
X73757619Y-184280714D01*
X73852857Y-184233095D01*
X74043333Y-184185476D01*
X74281429Y-184185476D01*
X74471905Y-184233095D01*
X74567143Y-184280714D01*
X74614762Y-184328333D01*
X74662381Y-184423571D01*
X74662381Y-184518810D01*
X74614762Y-184614048D01*
X74567143Y-184661667D01*
X74471905Y-184709286D01*
X74281429Y-184756905D01*
X74043333Y-184756905D01*
X73852857Y-184709286D01*
X73757619Y-184661667D01*
X73710000Y-184614048D01*
X73662381Y-184518810D01*
X74662381Y-183233095D02*
X74662381Y-183804524D01*
X74662381Y-183518810D02*
X73662381Y-183518810D01*
X73805238Y-183614048D01*
X73900476Y-183709286D01*
X73948095Y-183804524D01*
X96162381Y-152542619D02*
X96067143Y-152495000D01*
X95971905Y-152399762D01*
X95829048Y-152256905D01*
X95733809Y-152209286D01*
X95638571Y-152209286D01*
X95686190Y-152447381D02*
X95590952Y-152399762D01*
X95495714Y-152304524D01*
X95448095Y-152114048D01*
X95448095Y-151780714D01*
X95495714Y-151590238D01*
X95590952Y-151495000D01*
X95686190Y-151447381D01*
X95876667Y-151447381D01*
X95971905Y-151495000D01*
X96067143Y-151590238D01*
X96114762Y-151780714D01*
X96114762Y-152114048D01*
X96067143Y-152304524D01*
X95971905Y-152399762D01*
X95876667Y-152447381D01*
X95686190Y-152447381D01*
X97019524Y-151447381D02*
X96543333Y-151447381D01*
X96495714Y-151923571D01*
X96543333Y-151875952D01*
X96638571Y-151828333D01*
X96876667Y-151828333D01*
X96971905Y-151875952D01*
X97019524Y-151923571D01*
X97067143Y-152018810D01*
X97067143Y-152256905D01*
X97019524Y-152352143D01*
X96971905Y-152399762D01*
X96876667Y-152447381D01*
X96638571Y-152447381D01*
X96543333Y-152399762D01*
X96495714Y-152352143D01*
X97686190Y-151447381D02*
X97781429Y-151447381D01*
X97876667Y-151495000D01*
X97924286Y-151542619D01*
X97971905Y-151637857D01*
X98019524Y-151828333D01*
X98019524Y-152066429D01*
X97971905Y-152256905D01*
X97924286Y-152352143D01*
X97876667Y-152399762D01*
X97781429Y-152447381D01*
X97686190Y-152447381D01*
X97590952Y-152399762D01*
X97543333Y-152352143D01*
X97495714Y-152256905D01*
X97448095Y-152066429D01*
X97448095Y-151828333D01*
X97495714Y-151637857D01*
X97543333Y-151542619D01*
X97590952Y-151495000D01*
X97686190Y-151447381D01*
X98971905Y-152447381D02*
X98400476Y-152447381D01*
X98686190Y-152447381D02*
X98686190Y-151447381D01*
X98590952Y-151590238D01*
X98495714Y-151685476D01*
X98400476Y-151733095D01*
X42662381Y-135542619D02*
X42567143Y-135495000D01*
X42471905Y-135399762D01*
X42329048Y-135256905D01*
X42233809Y-135209286D01*
X42138571Y-135209286D01*
X42186190Y-135447381D02*
X42090952Y-135399762D01*
X41995714Y-135304524D01*
X41948095Y-135114048D01*
X41948095Y-134780714D01*
X41995714Y-134590238D01*
X42090952Y-134495000D01*
X42186190Y-134447381D01*
X42376667Y-134447381D01*
X42471905Y-134495000D01*
X42567143Y-134590238D01*
X42614762Y-134780714D01*
X42614762Y-135114048D01*
X42567143Y-135304524D01*
X42471905Y-135399762D01*
X42376667Y-135447381D01*
X42186190Y-135447381D01*
X42948095Y-134447381D02*
X43614762Y-134447381D01*
X43186190Y-135447381D01*
X44186190Y-134447381D02*
X44281429Y-134447381D01*
X44376667Y-134495000D01*
X44424286Y-134542619D01*
X44471905Y-134637857D01*
X44519524Y-134828333D01*
X44519524Y-135066429D01*
X44471905Y-135256905D01*
X44424286Y-135352143D01*
X44376667Y-135399762D01*
X44281429Y-135447381D01*
X44186190Y-135447381D01*
X44090952Y-135399762D01*
X44043333Y-135352143D01*
X43995714Y-135256905D01*
X43948095Y-135066429D01*
X43948095Y-134828333D01*
X43995714Y-134637857D01*
X44043333Y-134542619D01*
X44090952Y-134495000D01*
X44186190Y-134447381D01*
X45471905Y-135447381D02*
X44900476Y-135447381D01*
X45186190Y-135447381D02*
X45186190Y-134447381D01*
X45090952Y-134590238D01*
X44995714Y-134685476D01*
X44900476Y-134733095D01*
M02*
