G04 #@! TF.FileFunction,Soldermask,Bot*
%FSLAX46Y46*%
G04 Gerber Fmt 4.6, Leading zero omitted, Abs format (unit mm)*
G04 Created by KiCad (PCBNEW 4.0.7) date 2018 June 07, Thursday 02:32:14*
%MOMM*%
%LPD*%
G01*
G04 APERTURE LIST*
%ADD10C,0.050000*%
%ADD11C,2.900000*%
%ADD12R,1.289000X1.162000*%
%ADD13C,2.800000*%
%ADD14R,2.800000X2.800000*%
%ADD15R,2.432000X2.432000*%
%ADD16O,2.432000X2.432000*%
%ADD17R,2.100000X2.100000*%
%ADD18O,2.100000X2.100000*%
%ADD19R,1.950000X1.700000*%
%ADD20R,2.432000X2.127200*%
%ADD21O,2.432000X2.127200*%
%ADD22O,2.398980X2.398980*%
%ADD23R,2.398980X2.398980*%
%ADD24R,1.098500X1.997660*%
%ADD25R,1.799540X1.997660*%
%ADD26R,1.799540X2.599640*%
%ADD27R,2.198320X1.799540*%
%ADD28C,1.004800*%
%ADD29C,1.009600*%
G04 APERTURE END LIST*
D10*
D11*
X48690000Y-180000000D03*
X93750000Y-180000000D03*
D12*
X112990000Y-140083000D03*
X112990000Y-141607000D03*
X110990000Y-140083000D03*
X110990000Y-141607000D03*
D13*
X106690000Y-174645000D03*
D14*
X106690000Y-171145000D03*
D15*
X102750000Y-159750000D03*
D16*
X102750000Y-157210000D03*
D17*
X46230000Y-129545000D03*
D18*
X43690000Y-129545000D03*
X41150000Y-129545000D03*
D17*
X101600000Y-184670000D03*
D18*
X99060000Y-184670000D03*
D17*
X88900000Y-184670000D03*
D18*
X91440000Y-184670000D03*
D19*
X107760000Y-161495000D03*
X115710000Y-161495000D03*
X107760000Y-156995000D03*
X115710000Y-156995000D03*
D20*
X40690000Y-169085000D03*
D21*
X40690000Y-166545000D03*
X40690000Y-164005000D03*
D17*
X93980000Y-184670000D03*
D18*
X96520000Y-184670000D03*
D11*
X48750000Y-135000000D03*
D17*
X104140000Y-184670000D03*
D22*
X40640000Y-157480000D03*
D23*
X48260000Y-157480000D03*
D22*
X45720000Y-157480000D03*
X43180000Y-157480000D03*
X60960000Y-142240000D03*
D23*
X68580000Y-142240000D03*
D22*
X66040000Y-142240000D03*
X63500000Y-142240000D03*
X58420000Y-142240000D03*
X55880000Y-157480000D03*
D23*
X63500000Y-157480000D03*
D22*
X60960000Y-157480000D03*
X58420000Y-157480000D03*
X43180000Y-142240000D03*
D23*
X50800000Y-142240000D03*
D22*
X48260000Y-142240000D03*
X45720000Y-142240000D03*
X40640000Y-142240000D03*
D17*
X57610000Y-129500000D03*
D18*
X60150000Y-129500000D03*
X62690000Y-129500000D03*
X65230000Y-129500000D03*
X67770000Y-129500000D03*
X70310000Y-129500000D03*
D24*
X84596500Y-182099040D03*
X83496680Y-182099040D03*
X82396860Y-182099040D03*
X81299580Y-182099040D03*
X80199760Y-182099040D03*
X79099940Y-182099040D03*
X78000120Y-182099040D03*
X76900300Y-182099040D03*
X75800480Y-182099040D03*
D25*
X74500000Y-181499600D03*
D26*
X74500000Y-172000000D03*
X90197200Y-172000000D03*
D27*
X89298040Y-181601200D03*
D28*
X111250000Y-165000000D03*
D29*
X109750000Y-165000000D03*
M02*
