G04 #@! TF.FileFunction,Soldermask,Top*
%FSLAX46Y46*%
G04 Gerber Fmt 4.6, Leading zero omitted, Abs format (unit mm)*
G04 Created by KiCad (PCBNEW 4.0.7) date 2018 June 07, Thursday 02:32:14*
%MOMM*%
%LPD*%
G01*
G04 APERTURE LIST*
%ADD10C,0.050000*%
%ADD11C,2.540000*%
%ADD12R,1.300000X0.900000*%
%ADD13C,2.900000*%
%ADD14R,1.150000X1.200000*%
%ADD15R,1.200000X1.150000*%
%ADD16C,2.800000*%
%ADD17R,2.800000X2.800000*%
%ADD18R,2.432000X2.432000*%
%ADD19O,2.432000X2.432000*%
%ADD20R,2.100000X2.100000*%
%ADD21O,2.100000X2.100000*%
%ADD22R,1.289000X1.289000*%
%ADD23R,0.900000X1.300000*%
%ADD24R,0.950000X1.400000*%
%ADD25O,0.680000X1.250000*%
%ADD26O,1.250000X0.680000*%
%ADD27R,5.500000X5.500000*%
%ADD28R,1.900000X0.850000*%
%ADD29R,1.649680X1.398220*%
%ADD30R,2.432000X2.127200*%
%ADD31O,2.432000X2.127200*%
%ADD32R,2.850000X6.300000*%
%ADD33R,1.200000X3.300000*%
%ADD34R,0.781000X1.797000*%
%ADD35O,2.398980X2.398980*%
%ADD36R,2.398980X2.398980*%
%ADD37R,1.050000X1.620000*%
%ADD38R,2.900000X1.500000*%
%ADD39R,1.670000X1.365200*%
%ADD40R,0.900000X1.150000*%
%ADD41R,1.200000X1.400000*%
%ADD42R,1.100000X1.600000*%
%ADD43R,4.900000X4.690000*%
%ADD44R,1.950000X2.000000*%
%ADD45R,1.950000X1.600000*%
%ADD46R,2.400000X1.300000*%
%ADD47R,0.650000X1.000000*%
%ADD48C,1.004800*%
%ADD49C,1.009600*%
%ADD50R,1.620000X1.050000*%
G04 APERTURE END LIST*
D10*
D11*
X106210000Y-179995000D03*
X38710000Y-134995000D03*
D12*
X79690000Y-182295000D03*
X79690000Y-180795000D03*
D13*
X48690000Y-180000000D03*
X93750000Y-180000000D03*
D14*
X113690000Y-163795000D03*
X113690000Y-165295000D03*
D15*
X37440000Y-162545000D03*
X35940000Y-162545000D03*
D14*
X103500000Y-143795000D03*
X103500000Y-145295000D03*
D15*
X37440000Y-170545000D03*
X35940000Y-170545000D03*
D14*
X106690000Y-163795000D03*
X106690000Y-165295000D03*
X99500000Y-143250000D03*
X99500000Y-144750000D03*
X101500000Y-143250000D03*
X101500000Y-144750000D03*
X95000000Y-162750000D03*
X95000000Y-161250000D03*
D15*
X97500000Y-165000000D03*
X99000000Y-165000000D03*
X97500000Y-167000000D03*
X99000000Y-167000000D03*
X96250000Y-173045000D03*
X94750000Y-173045000D03*
X96250000Y-171295000D03*
X94750000Y-171295000D03*
D14*
X81690000Y-184295000D03*
X81690000Y-185795000D03*
X79690000Y-184295000D03*
X79690000Y-185795000D03*
D15*
X111500000Y-153250000D03*
X113000000Y-153250000D03*
X60440000Y-154940000D03*
X58940000Y-154940000D03*
D14*
X63500000Y-159905000D03*
X63500000Y-161405000D03*
X55880000Y-159905000D03*
X55880000Y-161405000D03*
D15*
X58940000Y-165100000D03*
X60440000Y-165100000D03*
X58940000Y-176545000D03*
X60440000Y-176545000D03*
X52440000Y-174545000D03*
X50940000Y-174545000D03*
X50940000Y-172545000D03*
X52440000Y-172545000D03*
X50940000Y-170545000D03*
X52440000Y-170545000D03*
X50940000Y-168545000D03*
X52440000Y-168545000D03*
D16*
X106690000Y-174645000D03*
D17*
X106690000Y-171145000D03*
D18*
X102750000Y-159750000D03*
D19*
X102750000Y-157210000D03*
D20*
X46230000Y-129545000D03*
D21*
X43690000Y-129545000D03*
X41150000Y-129545000D03*
D22*
X97500000Y-163000000D03*
X99024000Y-163000000D03*
D20*
X101600000Y-184670000D03*
D21*
X99060000Y-184670000D03*
D20*
X88900000Y-184670000D03*
D21*
X91440000Y-184670000D03*
D12*
X103890000Y-168695000D03*
X103890000Y-167195000D03*
X103890000Y-171795000D03*
X103890000Y-170295000D03*
X113000000Y-146250000D03*
X113000000Y-147750000D03*
X111000000Y-143250000D03*
X111000000Y-144750000D03*
X111000000Y-147750000D03*
X111000000Y-146250000D03*
X88690000Y-182295000D03*
X88690000Y-180795000D03*
X81690000Y-182295000D03*
X81690000Y-180795000D03*
X77690000Y-182295000D03*
X77690000Y-180795000D03*
X115490000Y-141595000D03*
X115490000Y-140095000D03*
X115490000Y-143295000D03*
X115490000Y-144795000D03*
D23*
X105000000Y-153250000D03*
X106500000Y-153250000D03*
X108250000Y-153250000D03*
X109750000Y-153250000D03*
X71940000Y-137545000D03*
X73440000Y-137545000D03*
D12*
X102210000Y-179745000D03*
X102210000Y-181245000D03*
X68580000Y-159905000D03*
X68580000Y-161405000D03*
X50800000Y-159905000D03*
X50800000Y-161405000D03*
X58420000Y-161405000D03*
X58420000Y-159905000D03*
X60960000Y-161405000D03*
X60960000Y-159905000D03*
X66040000Y-161405000D03*
X66040000Y-159905000D03*
X53340000Y-161405000D03*
X53340000Y-159905000D03*
X53340000Y-165215000D03*
X53340000Y-163715000D03*
X66040000Y-165215000D03*
X66040000Y-163715000D03*
D23*
X47190000Y-172545000D03*
X48690000Y-172545000D03*
D12*
X64690000Y-180295000D03*
X64690000Y-178795000D03*
X56690000Y-180295000D03*
X56690000Y-178795000D03*
X54408571Y-180295000D03*
X54408571Y-178795000D03*
X40500000Y-139250000D03*
X40500000Y-137750000D03*
X48000000Y-146250000D03*
X48000000Y-144750000D03*
X45500000Y-144750000D03*
X45500000Y-146250000D03*
X48000000Y-149750000D03*
X48000000Y-148250000D03*
X45500000Y-148250000D03*
X45500000Y-149750000D03*
D24*
X37640000Y-165245000D03*
X36690000Y-165245000D03*
X35740000Y-165245000D03*
X35740000Y-167845000D03*
X37640000Y-167845000D03*
D25*
X91250000Y-164025000D03*
X90750000Y-164025000D03*
X90250000Y-164025000D03*
X89750000Y-164025000D03*
X89250000Y-164025000D03*
X88750000Y-164025000D03*
X88250000Y-164025000D03*
X87750000Y-164025000D03*
X87250000Y-164025000D03*
X86750000Y-164025000D03*
X86250000Y-164025000D03*
X85750000Y-164025000D03*
D26*
X85025000Y-164750000D03*
X85025000Y-165250000D03*
X85025000Y-165750000D03*
X85025000Y-166250000D03*
X85025000Y-166750000D03*
X85025000Y-167250000D03*
X85025000Y-167750000D03*
X85025000Y-168250000D03*
X85025000Y-168750000D03*
X85025000Y-169250000D03*
X85025000Y-169750000D03*
X85025000Y-170250000D03*
D25*
X85750000Y-170975000D03*
X86250000Y-170975000D03*
X86750000Y-170975000D03*
X87250000Y-170975000D03*
X87750000Y-170975000D03*
X88250000Y-170975000D03*
X88750000Y-170975000D03*
X89250000Y-170975000D03*
X89750000Y-170975000D03*
X90250000Y-170975000D03*
X90750000Y-170975000D03*
X91250000Y-170975000D03*
D26*
X91975000Y-170250000D03*
X91975000Y-169750000D03*
X91975000Y-169250000D03*
X91975000Y-168750000D03*
X91975000Y-168250000D03*
X91975000Y-167750000D03*
X91975000Y-167250000D03*
X91975000Y-166750000D03*
X91975000Y-166250000D03*
X91975000Y-165750000D03*
X91975000Y-165250000D03*
X91975000Y-164750000D03*
D27*
X88500000Y-167500000D03*
D28*
X62640000Y-171820000D03*
X62640000Y-171170000D03*
X62640000Y-170520000D03*
X62640000Y-169870000D03*
X62640000Y-169220000D03*
X62640000Y-168570000D03*
X62640000Y-167920000D03*
X62640000Y-167270000D03*
X56740000Y-167270000D03*
X56740000Y-167920000D03*
X56740000Y-168570000D03*
X56740000Y-169220000D03*
X56740000Y-169870000D03*
X56740000Y-170520000D03*
X56740000Y-171170000D03*
X56740000Y-171820000D03*
D29*
X95000000Y-165250700D03*
X95000000Y-166749300D03*
D30*
X40690000Y-169085000D03*
D31*
X40690000Y-166545000D03*
X40690000Y-164005000D03*
D20*
X93980000Y-184670000D03*
D21*
X96520000Y-184670000D03*
D13*
X48750000Y-135000000D03*
D14*
X107000000Y-147750000D03*
X107000000Y-146250000D03*
D15*
X108750000Y-144000000D03*
X107250000Y-144000000D03*
D14*
X113000000Y-144750000D03*
X113000000Y-143250000D03*
D32*
X113065000Y-158545000D03*
X107515000Y-158545000D03*
D33*
X105600000Y-131250000D03*
X103400000Y-131250000D03*
D12*
X109000000Y-147750000D03*
X109000000Y-146250000D03*
D34*
X107222500Y-135333000D03*
X106587500Y-135333000D03*
X105952500Y-135333000D03*
X105317500Y-135333000D03*
X104682500Y-135333000D03*
X104047500Y-135333000D03*
X103412500Y-135333000D03*
X102777500Y-135333000D03*
X102777500Y-140667000D03*
X103412500Y-140667000D03*
X104047500Y-140667000D03*
X104682500Y-140667000D03*
X105317500Y-140667000D03*
X105952500Y-140667000D03*
X106587500Y-140667000D03*
X107222500Y-140667000D03*
D20*
X104140000Y-184670000D03*
D12*
X56000000Y-151650000D03*
X56000000Y-153150000D03*
X58500000Y-151650000D03*
X58500000Y-153150000D03*
X61000000Y-151650000D03*
X61000000Y-153150000D03*
X63500000Y-151650000D03*
X63500000Y-153150000D03*
D35*
X40640000Y-157480000D03*
D36*
X48260000Y-157480000D03*
D35*
X45720000Y-157480000D03*
X43180000Y-157480000D03*
X60960000Y-142240000D03*
D36*
X68580000Y-142240000D03*
D35*
X66040000Y-142240000D03*
X63500000Y-142240000D03*
X58420000Y-142240000D03*
X55880000Y-157480000D03*
D36*
X63500000Y-157480000D03*
D35*
X60960000Y-157480000D03*
X58420000Y-157480000D03*
X43180000Y-142240000D03*
D36*
X50800000Y-142240000D03*
D35*
X48260000Y-142240000D03*
X45720000Y-142240000D03*
X40640000Y-142240000D03*
D20*
X57610000Y-129500000D03*
D21*
X60150000Y-129500000D03*
X62690000Y-129500000D03*
X65230000Y-129500000D03*
X67770000Y-129500000D03*
X70310000Y-129500000D03*
D23*
X71940000Y-141545000D03*
X73440000Y-141545000D03*
D12*
X93090000Y-156595000D03*
X93090000Y-155095000D03*
X88990000Y-156605000D03*
X88990000Y-155105000D03*
X91085000Y-156605000D03*
X91085000Y-155105000D03*
D37*
X70340000Y-168385000D03*
X68440000Y-168385000D03*
X69390000Y-171005000D03*
X46040000Y-164505000D03*
X47940000Y-164505000D03*
X46990000Y-161885000D03*
D38*
X76990000Y-137545000D03*
X76990000Y-141545000D03*
X76990000Y-151545000D03*
X92390000Y-151545000D03*
X92390000Y-149545000D03*
X92390000Y-147545000D03*
X92390000Y-145545000D03*
X92390000Y-139545000D03*
X92390000Y-137545000D03*
D37*
X70340000Y-173465000D03*
X68440000Y-173465000D03*
X69390000Y-176085000D03*
X46040000Y-169585000D03*
X47940000Y-169585000D03*
X46990000Y-166965000D03*
D39*
X80940000Y-156065000D03*
X80940000Y-154795000D03*
D40*
X58740000Y-163195000D03*
X60640000Y-163195000D03*
D41*
X59690000Y-163195000D03*
D40*
X58740000Y-174545000D03*
X60640000Y-174545000D03*
D41*
X59690000Y-174545000D03*
D42*
X111780000Y-173845000D03*
X113050000Y-173845000D03*
X114330000Y-173845000D03*
X115600000Y-173845000D03*
X115600000Y-168045000D03*
X114330000Y-168045000D03*
X113050000Y-168045000D03*
X111780000Y-168045000D03*
D43*
X113690000Y-170445000D03*
D44*
X112600000Y-169695000D03*
X114780000Y-169695000D03*
D45*
X112600000Y-171695000D03*
X114780000Y-171695000D03*
D46*
X110500000Y-165000000D03*
D47*
X110750000Y-164000000D03*
D48*
X111250000Y-165000000D03*
D49*
X109750000Y-165000000D03*
D47*
X111750000Y-164000000D03*
X111250000Y-164000000D03*
X110250000Y-164000000D03*
X109750000Y-164000000D03*
X109250000Y-164000000D03*
X109250000Y-166000000D03*
X109750000Y-166000000D03*
X110250000Y-166000000D03*
X110750000Y-166000000D03*
X111250000Y-166000000D03*
X111750000Y-166000000D03*
D11*
X38710000Y-184995000D03*
D50*
X75710000Y-184095000D03*
X75710000Y-185995000D03*
X78330000Y-185045000D03*
D37*
X98160000Y-153685000D03*
X96260000Y-153685000D03*
X97210000Y-156305000D03*
X44660000Y-136685000D03*
X42760000Y-136685000D03*
X43710000Y-139305000D03*
M02*
