G04 #@! TF.GenerationSoftware,KiCad,Pcbnew,(2017-06-12 revision 19d5cc754)-master*
G04 #@! TF.CreationDate,2017-12-21T18:22:36+01:00*
G04 #@! TF.ProjectId,LF_antenna_denser,4C465F616E74656E6E615F64656E7365,rev?*
G04 #@! TF.FileFunction,Legend,Bot*
G04 #@! TF.FilePolarity,Positive*
%FSLAX46Y46*%
G04 Gerber Fmt 4.6, Leading zero omitted, Abs format (unit mm)*
G04 Created by KiCad (PCBNEW (2017-06-12 revision 19d5cc754)-master) date 2017 December 21, Thursday 18:22:36*
%MOMM*%
%LPD*%
G01*
G04 APERTURE LIST*
%ADD10C,0.050000*%
%ADD11C,0.300000*%
%ADD12C,0.010000*%
G04 APERTURE END LIST*
D10*
D11*
X124857142Y-105178571D02*
X124857142Y-103678571D01*
X124285714Y-103678571D01*
X124142857Y-103750000D01*
X124071428Y-103821428D01*
X124000000Y-103964285D01*
X124000000Y-104178571D01*
X124071428Y-104321428D01*
X124142857Y-104392857D01*
X124285714Y-104464285D01*
X124857142Y-104464285D01*
X122500000Y-105035714D02*
X122571428Y-105107142D01*
X122785714Y-105178571D01*
X122928571Y-105178571D01*
X123142857Y-105107142D01*
X123285714Y-104964285D01*
X123357142Y-104821428D01*
X123428571Y-104535714D01*
X123428571Y-104321428D01*
X123357142Y-104035714D01*
X123285714Y-103892857D01*
X123142857Y-103750000D01*
X122928571Y-103678571D01*
X122785714Y-103678571D01*
X122571428Y-103750000D01*
X122500000Y-103821428D01*
X121357142Y-104392857D02*
X121142857Y-104464285D01*
X121071428Y-104535714D01*
X121000000Y-104678571D01*
X121000000Y-104892857D01*
X121071428Y-105035714D01*
X121142857Y-105107142D01*
X121285714Y-105178571D01*
X121857142Y-105178571D01*
X121857142Y-103678571D01*
X121357142Y-103678571D01*
X121214285Y-103750000D01*
X121142857Y-103821428D01*
X121071428Y-103964285D01*
X121071428Y-104107142D01*
X121142857Y-104250000D01*
X121214285Y-104321428D01*
X121357142Y-104392857D01*
X121857142Y-104392857D01*
X118571428Y-105178571D02*
X118571428Y-104392857D01*
X118642857Y-104250000D01*
X118785714Y-104178571D01*
X119071428Y-104178571D01*
X119214285Y-104250000D01*
X118571428Y-105107142D02*
X118714285Y-105178571D01*
X119071428Y-105178571D01*
X119214285Y-105107142D01*
X119285714Y-104964285D01*
X119285714Y-104821428D01*
X119214285Y-104678571D01*
X119071428Y-104607142D01*
X118714285Y-104607142D01*
X118571428Y-104535714D01*
X117857142Y-104178571D02*
X117857142Y-105178571D01*
X117857142Y-104321428D02*
X117785714Y-104250000D01*
X117642857Y-104178571D01*
X117428571Y-104178571D01*
X117285714Y-104250000D01*
X117214285Y-104392857D01*
X117214285Y-105178571D01*
X116714285Y-104178571D02*
X116142857Y-104178571D01*
X116500000Y-103678571D02*
X116500000Y-104964285D01*
X116428571Y-105107142D01*
X116285714Y-105178571D01*
X116142857Y-105178571D01*
X115071428Y-105107142D02*
X115214285Y-105178571D01*
X115500000Y-105178571D01*
X115642857Y-105107142D01*
X115714285Y-104964285D01*
X115714285Y-104392857D01*
X115642857Y-104250000D01*
X115500000Y-104178571D01*
X115214285Y-104178571D01*
X115071428Y-104250000D01*
X115000000Y-104392857D01*
X115000000Y-104535714D01*
X115714285Y-104678571D01*
X114357142Y-104178571D02*
X114357142Y-105178571D01*
X114357142Y-104321428D02*
X114285714Y-104250000D01*
X114142857Y-104178571D01*
X113928571Y-104178571D01*
X113785714Y-104250000D01*
X113714285Y-104392857D01*
X113714285Y-105178571D01*
X113000000Y-104178571D02*
X113000000Y-105178571D01*
X113000000Y-104321428D02*
X112928571Y-104250000D01*
X112785714Y-104178571D01*
X112571428Y-104178571D01*
X112428571Y-104250000D01*
X112357142Y-104392857D01*
X112357142Y-105178571D01*
X111000000Y-105178571D02*
X111000000Y-104392857D01*
X111071428Y-104250000D01*
X111214285Y-104178571D01*
X111500000Y-104178571D01*
X111642857Y-104250000D01*
X111000000Y-105107142D02*
X111142857Y-105178571D01*
X111500000Y-105178571D01*
X111642857Y-105107142D01*
X111714285Y-104964285D01*
X111714285Y-104821428D01*
X111642857Y-104678571D01*
X111500000Y-104607142D01*
X111142857Y-104607142D01*
X111000000Y-104535714D01*
X109285714Y-104178571D02*
X108928571Y-105178571D01*
X108571428Y-104178571D01*
X108071428Y-103821428D02*
X108000000Y-103750000D01*
X107857142Y-103678571D01*
X107500000Y-103678571D01*
X107357142Y-103750000D01*
X107285714Y-103821428D01*
X107214285Y-103964285D01*
X107214285Y-104107142D01*
X107285714Y-104321428D01*
X108142857Y-105178571D01*
X107214285Y-105178571D01*
X106571428Y-105035714D02*
X106500000Y-105107142D01*
X106571428Y-105178571D01*
X106642857Y-105107142D01*
X106571428Y-105035714D01*
X106571428Y-105178571D01*
X105571428Y-103678571D02*
X105428571Y-103678571D01*
X105285714Y-103750000D01*
X105214285Y-103821428D01*
X105142857Y-103964285D01*
X105071428Y-104250000D01*
X105071428Y-104607142D01*
X105142857Y-104892857D01*
X105214285Y-105035714D01*
X105285714Y-105107142D01*
X105428571Y-105178571D01*
X105571428Y-105178571D01*
X105714285Y-105107142D01*
X105785714Y-105035714D01*
X105857142Y-104892857D01*
X105928571Y-104607142D01*
X105928571Y-104250000D01*
X105857142Y-103964285D01*
X105785714Y-103821428D01*
X105714285Y-103750000D01*
X105571428Y-103678571D01*
X157571428Y-75678571D02*
X157571428Y-76678571D01*
X157571428Y-75821428D02*
X157500000Y-75750000D01*
X157357142Y-75678571D01*
X157142857Y-75678571D01*
X157000000Y-75750000D01*
X156928571Y-75892857D01*
X156928571Y-76678571D01*
X155642857Y-76607142D02*
X155785714Y-76678571D01*
X156071428Y-76678571D01*
X156214285Y-76607142D01*
X156285714Y-76464285D01*
X156285714Y-75892857D01*
X156214285Y-75750000D01*
X156071428Y-75678571D01*
X155785714Y-75678571D01*
X155642857Y-75750000D01*
X155571428Y-75892857D01*
X155571428Y-76035714D01*
X156285714Y-76178571D01*
X155000000Y-76607142D02*
X154857142Y-76678571D01*
X154571428Y-76678571D01*
X154428571Y-76607142D01*
X154357142Y-76464285D01*
X154357142Y-76392857D01*
X154428571Y-76250000D01*
X154571428Y-76178571D01*
X154785714Y-76178571D01*
X154928571Y-76107142D01*
X155000000Y-75964285D01*
X155000000Y-75892857D01*
X154928571Y-75750000D01*
X154785714Y-75678571D01*
X154571428Y-75678571D01*
X154428571Y-75750000D01*
X153928571Y-75678571D02*
X153357142Y-75678571D01*
X153714285Y-75178571D02*
X153714285Y-76464285D01*
X153642857Y-76607142D01*
X153500000Y-76678571D01*
X153357142Y-76678571D01*
X152857142Y-76678571D02*
X152857142Y-75178571D01*
X152857142Y-75750000D02*
X152714285Y-75678571D01*
X152428571Y-75678571D01*
X152285714Y-75750000D01*
X152214285Y-75821428D01*
X152142857Y-75964285D01*
X152142857Y-76392857D01*
X152214285Y-76535714D01*
X152285714Y-76607142D01*
X152428571Y-76678571D01*
X152714285Y-76678571D01*
X152857142Y-76607142D01*
X151285714Y-76678571D02*
X151428571Y-76607142D01*
X151500000Y-76535714D01*
X151571428Y-76392857D01*
X151571428Y-75964285D01*
X151500000Y-75821428D01*
X151428571Y-75750000D01*
X151285714Y-75678571D01*
X151071428Y-75678571D01*
X150928571Y-75750000D01*
X150857142Y-75821428D01*
X150785714Y-75964285D01*
X150785714Y-76392857D01*
X150857142Y-76535714D01*
X150928571Y-76607142D01*
X151071428Y-76678571D01*
X151285714Y-76678571D01*
X150285714Y-76678571D02*
X149500000Y-75678571D01*
X150285714Y-75678571D02*
X149500000Y-76678571D01*
X148928571Y-76535714D02*
X148857142Y-76607142D01*
X148928571Y-76678571D01*
X149000000Y-76607142D01*
X148928571Y-76535714D01*
X148928571Y-76678571D01*
X148000000Y-76678571D02*
X148142857Y-76607142D01*
X148214285Y-76535714D01*
X148285714Y-76392857D01*
X148285714Y-75964285D01*
X148214285Y-75821428D01*
X148142857Y-75750000D01*
X148000000Y-75678571D01*
X147785714Y-75678571D01*
X147642857Y-75750000D01*
X147571428Y-75821428D01*
X147500000Y-75964285D01*
X147500000Y-76392857D01*
X147571428Y-76535714D01*
X147642857Y-76607142D01*
X147785714Y-76678571D01*
X148000000Y-76678571D01*
X146214285Y-76607142D02*
X146357142Y-76678571D01*
X146642857Y-76678571D01*
X146785714Y-76607142D01*
X146857142Y-76535714D01*
X146928571Y-76392857D01*
X146928571Y-75964285D01*
X146857142Y-75821428D01*
X146785714Y-75750000D01*
X146642857Y-75678571D01*
X146357142Y-75678571D01*
X146214285Y-75750000D01*
X145785714Y-75678571D02*
X145214285Y-75678571D01*
X145571428Y-75178571D02*
X145571428Y-76464285D01*
X145500000Y-76607142D01*
X145357142Y-76678571D01*
X145214285Y-76678571D01*
X144071428Y-76678571D02*
X144071428Y-75892857D01*
X144142857Y-75750000D01*
X144285714Y-75678571D01*
X144571428Y-75678571D01*
X144714285Y-75750000D01*
X144071428Y-76607142D02*
X144214285Y-76678571D01*
X144571428Y-76678571D01*
X144714285Y-76607142D01*
X144785714Y-76464285D01*
X144785714Y-76321428D01*
X144714285Y-76178571D01*
X144571428Y-76107142D01*
X144214285Y-76107142D01*
X144071428Y-76035714D01*
X143357142Y-75678571D02*
X143357142Y-76678571D01*
X143357142Y-75821428D02*
X143285714Y-75750000D01*
X143142857Y-75678571D01*
X142928571Y-75678571D01*
X142785714Y-75750000D01*
X142714285Y-75892857D01*
X142714285Y-76678571D01*
X142000000Y-76678571D02*
X142000000Y-75678571D01*
X142000000Y-75178571D02*
X142071428Y-75250000D01*
X142000000Y-75321428D01*
X141928571Y-75250000D01*
X142000000Y-75178571D01*
X142000000Y-75321428D01*
X141357142Y-76607142D02*
X141214285Y-76678571D01*
X140928571Y-76678571D01*
X140785714Y-76607142D01*
X140714285Y-76464285D01*
X140714285Y-76392857D01*
X140785714Y-76250000D01*
X140928571Y-76178571D01*
X141142857Y-76178571D01*
X141285714Y-76107142D01*
X141357142Y-75964285D01*
X141357142Y-75892857D01*
X141285714Y-75750000D01*
X141142857Y-75678571D01*
X140928571Y-75678571D01*
X140785714Y-75750000D01*
X140071428Y-76535714D02*
X140000000Y-76607142D01*
X140071428Y-76678571D01*
X140142857Y-76607142D01*
X140071428Y-76535714D01*
X140071428Y-76678571D01*
X139142857Y-76678571D02*
X139285714Y-76607142D01*
X139357142Y-76535714D01*
X139428571Y-76392857D01*
X139428571Y-75964285D01*
X139357142Y-75821428D01*
X139285714Y-75750000D01*
X139142857Y-75678571D01*
X138928571Y-75678571D01*
X138785714Y-75750000D01*
X138714285Y-75821428D01*
X138642857Y-75964285D01*
X138642857Y-76392857D01*
X138714285Y-76535714D01*
X138785714Y-76607142D01*
X138928571Y-76678571D01*
X139142857Y-76678571D01*
X138000000Y-76678571D02*
X138000000Y-75678571D01*
X138000000Y-75964285D02*
X137928571Y-75821428D01*
X137857142Y-75750000D01*
X137714285Y-75678571D01*
X137571428Y-75678571D01*
X136428571Y-75678571D02*
X136428571Y-76892857D01*
X136500000Y-77035714D01*
X136571428Y-77107142D01*
X136714285Y-77178571D01*
X136928571Y-77178571D01*
X137071428Y-77107142D01*
X136428571Y-76607142D02*
X136571428Y-76678571D01*
X136857142Y-76678571D01*
X137000000Y-76607142D01*
X137071428Y-76535714D01*
X137142857Y-76392857D01*
X137142857Y-75964285D01*
X137071428Y-75821428D01*
X137000000Y-75750000D01*
X136857142Y-75678571D01*
X136571428Y-75678571D01*
X136428571Y-75750000D01*
X162642857Y-133178571D02*
X162357142Y-133178571D01*
X162214285Y-133250000D01*
X162071428Y-133392857D01*
X162000000Y-133678571D01*
X162000000Y-134178571D01*
X162071428Y-134464285D01*
X162214285Y-134607142D01*
X162357142Y-134678571D01*
X162642857Y-134678571D01*
X162785714Y-134607142D01*
X162928571Y-134464285D01*
X163000000Y-134178571D01*
X163000000Y-133678571D01*
X162928571Y-133392857D01*
X162785714Y-133250000D01*
X162642857Y-133178571D01*
X160714285Y-134607142D02*
X160857142Y-134678571D01*
X161142857Y-134678571D01*
X161285714Y-134607142D01*
X161357142Y-134535714D01*
X161428571Y-134392857D01*
X161428571Y-133964285D01*
X161357142Y-133821428D01*
X161285714Y-133750000D01*
X161142857Y-133678571D01*
X160857142Y-133678571D01*
X160714285Y-133750000D01*
X160285714Y-133678571D02*
X159714285Y-133678571D01*
X160071428Y-133178571D02*
X160071428Y-134464285D01*
X160000000Y-134607142D01*
X159857142Y-134678571D01*
X159714285Y-134678571D01*
X158571428Y-134678571D02*
X158571428Y-133892857D01*
X158642857Y-133750000D01*
X158785714Y-133678571D01*
X159071428Y-133678571D01*
X159214285Y-133750000D01*
X158571428Y-134607142D02*
X158714285Y-134678571D01*
X159071428Y-134678571D01*
X159214285Y-134607142D01*
X159285714Y-134464285D01*
X159285714Y-134321428D01*
X159214285Y-134178571D01*
X159071428Y-134107142D01*
X158714285Y-134107142D01*
X158571428Y-134035714D01*
X157857142Y-133678571D02*
X157857142Y-134678571D01*
X157857142Y-133821428D02*
X157785714Y-133750000D01*
X157642857Y-133678571D01*
X157428571Y-133678571D01*
X157285714Y-133750000D01*
X157214285Y-133892857D01*
X157214285Y-134678571D01*
X156500000Y-134678571D02*
X156500000Y-133678571D01*
X156500000Y-133178571D02*
X156571428Y-133250000D01*
X156500000Y-133321428D01*
X156428571Y-133250000D01*
X156500000Y-133178571D01*
X156500000Y-133321428D01*
X155857142Y-134607142D02*
X155714285Y-134678571D01*
X155428571Y-134678571D01*
X155285714Y-134607142D01*
X155214285Y-134464285D01*
X155214285Y-134392857D01*
X155285714Y-134250000D01*
X155428571Y-134178571D01*
X155642857Y-134178571D01*
X155785714Y-134107142D01*
X155857142Y-133964285D01*
X155857142Y-133892857D01*
X155785714Y-133750000D01*
X155642857Y-133678571D01*
X155428571Y-133678571D01*
X155285714Y-133750000D01*
X153571428Y-133178571D02*
X152642857Y-133178571D01*
X153142857Y-133750000D01*
X152928571Y-133750000D01*
X152785714Y-133821428D01*
X152714285Y-133892857D01*
X152642857Y-134035714D01*
X152642857Y-134392857D01*
X152714285Y-134535714D01*
X152785714Y-134607142D01*
X152928571Y-134678571D01*
X153357142Y-134678571D01*
X153500000Y-134607142D01*
X153571428Y-134535714D01*
X152000000Y-134535714D02*
X151928571Y-134607142D01*
X152000000Y-134678571D01*
X152071428Y-134607142D01*
X152000000Y-134535714D01*
X152000000Y-134678571D01*
X152000000Y-133750000D02*
X151928571Y-133821428D01*
X152000000Y-133892857D01*
X152071428Y-133821428D01*
X152000000Y-133750000D01*
X152000000Y-133892857D01*
X150142857Y-134678571D02*
X150142857Y-133178571D01*
X149785714Y-133178571D01*
X149571428Y-133250000D01*
X149428571Y-133392857D01*
X149357142Y-133535714D01*
X149285714Y-133821428D01*
X149285714Y-134035714D01*
X149357142Y-134321428D01*
X149428571Y-134464285D01*
X149571428Y-134607142D01*
X149785714Y-134678571D01*
X150142857Y-134678571D01*
X148642857Y-134678571D02*
X148642857Y-133678571D01*
X148642857Y-133178571D02*
X148714285Y-133250000D01*
X148642857Y-133321428D01*
X148571428Y-133250000D01*
X148642857Y-133178571D01*
X148642857Y-133321428D01*
X147285714Y-133678571D02*
X147285714Y-134892857D01*
X147357142Y-135035714D01*
X147428571Y-135107142D01*
X147571428Y-135178571D01*
X147785714Y-135178571D01*
X147928571Y-135107142D01*
X147285714Y-134607142D02*
X147428571Y-134678571D01*
X147714285Y-134678571D01*
X147857142Y-134607142D01*
X147928571Y-134535714D01*
X148000000Y-134392857D01*
X148000000Y-133964285D01*
X147928571Y-133821428D01*
X147857142Y-133750000D01*
X147714285Y-133678571D01*
X147428571Y-133678571D01*
X147285714Y-133750000D01*
X146571428Y-134678571D02*
X146571428Y-133678571D01*
X146571428Y-133178571D02*
X146642857Y-133250000D01*
X146571428Y-133321428D01*
X146500000Y-133250000D01*
X146571428Y-133178571D01*
X146571428Y-133321428D01*
X146071428Y-133678571D02*
X145500000Y-133678571D01*
X145857142Y-133178571D02*
X145857142Y-134464285D01*
X145785714Y-134607142D01*
X145642857Y-134678571D01*
X145500000Y-134678571D01*
X144357142Y-134678571D02*
X144357142Y-133892857D01*
X144428571Y-133750000D01*
X144571428Y-133678571D01*
X144857142Y-133678571D01*
X145000000Y-133750000D01*
X144357142Y-134607142D02*
X144500000Y-134678571D01*
X144857142Y-134678571D01*
X145000000Y-134607142D01*
X145071428Y-134464285D01*
X145071428Y-134321428D01*
X145000000Y-134178571D01*
X144857142Y-134107142D01*
X144500000Y-134107142D01*
X144357142Y-134035714D01*
X143428571Y-134678571D02*
X143571428Y-134607142D01*
X143642857Y-134464285D01*
X143642857Y-133178571D01*
X141714285Y-134678571D02*
X141714285Y-133178571D01*
X140857142Y-134678571D01*
X140857142Y-133178571D01*
X139571428Y-134607142D02*
X139714285Y-134678571D01*
X140000000Y-134678571D01*
X140142857Y-134607142D01*
X140214285Y-134464285D01*
X140214285Y-133892857D01*
X140142857Y-133750000D01*
X140000000Y-133678571D01*
X139714285Y-133678571D01*
X139571428Y-133750000D01*
X139500000Y-133892857D01*
X139500000Y-134035714D01*
X140214285Y-134178571D01*
X138928571Y-134607142D02*
X138785714Y-134678571D01*
X138500000Y-134678571D01*
X138357142Y-134607142D01*
X138285714Y-134464285D01*
X138285714Y-134392857D01*
X138357142Y-134250000D01*
X138500000Y-134178571D01*
X138714285Y-134178571D01*
X138857142Y-134107142D01*
X138928571Y-133964285D01*
X138928571Y-133892857D01*
X138857142Y-133750000D01*
X138714285Y-133678571D01*
X138500000Y-133678571D01*
X138357142Y-133750000D01*
X137857142Y-133678571D02*
X137285714Y-133678571D01*
X137642857Y-133178571D02*
X137642857Y-134464285D01*
X137571428Y-134607142D01*
X137428571Y-134678571D01*
X137285714Y-134678571D01*
X136785714Y-134678571D02*
X136785714Y-133178571D01*
X136785714Y-133750000D02*
X136642857Y-133678571D01*
X136357142Y-133678571D01*
X136214285Y-133750000D01*
X136142857Y-133821428D01*
X136071428Y-133964285D01*
X136071428Y-134392857D01*
X136142857Y-134535714D01*
X136214285Y-134607142D01*
X136357142Y-134678571D01*
X136642857Y-134678571D01*
X136785714Y-134607142D01*
X135214285Y-134678571D02*
X135357142Y-134607142D01*
X135428571Y-134535714D01*
X135500000Y-134392857D01*
X135500000Y-133964285D01*
X135428571Y-133821428D01*
X135357142Y-133750000D01*
X135214285Y-133678571D01*
X135000000Y-133678571D01*
X134857142Y-133750000D01*
X134785714Y-133821428D01*
X134714285Y-133964285D01*
X134714285Y-134392857D01*
X134785714Y-134535714D01*
X134857142Y-134607142D01*
X135000000Y-134678571D01*
X135214285Y-134678571D01*
X134214285Y-134678571D02*
X133428571Y-133678571D01*
X134214285Y-133678571D02*
X133428571Y-134678571D01*
X132285714Y-134607142D02*
X132428571Y-134678571D01*
X132714285Y-134678571D01*
X132857142Y-134607142D01*
X132928571Y-134464285D01*
X132928571Y-133892857D01*
X132857142Y-133750000D01*
X132714285Y-133678571D01*
X132428571Y-133678571D01*
X132285714Y-133750000D01*
X132214285Y-133892857D01*
X132214285Y-134035714D01*
X132928571Y-134178571D01*
X131642857Y-134607142D02*
X131500000Y-134678571D01*
X131214285Y-134678571D01*
X131071428Y-134607142D01*
X131000000Y-134464285D01*
X131000000Y-134392857D01*
X131071428Y-134250000D01*
X131214285Y-134178571D01*
X131428571Y-134178571D01*
X131571428Y-134107142D01*
X131642857Y-133964285D01*
X131642857Y-133892857D01*
X131571428Y-133750000D01*
X131428571Y-133678571D01*
X131214285Y-133678571D01*
X131071428Y-133750000D01*
D12*
G36*
X176748368Y-102250720D02*
X176660479Y-102317120D01*
X176608155Y-102413679D01*
X176605497Y-102531431D01*
X176633718Y-102608742D01*
X176689125Y-102679675D01*
X176767501Y-102743565D01*
X176843052Y-102781961D01*
X176879148Y-102784272D01*
X176913640Y-102770767D01*
X176973280Y-102747017D01*
X177087095Y-102669915D01*
X177147510Y-102561955D01*
X177149711Y-102441531D01*
X177088888Y-102327037D01*
X177084425Y-102322139D01*
X176974441Y-102244263D01*
X176857723Y-102223446D01*
X176748368Y-102250720D01*
X176748368Y-102250720D01*
G37*
X176748368Y-102250720D02*
X176660479Y-102317120D01*
X176608155Y-102413679D01*
X176605497Y-102531431D01*
X176633718Y-102608742D01*
X176689125Y-102679675D01*
X176767501Y-102743565D01*
X176843052Y-102781961D01*
X176879148Y-102784272D01*
X176913640Y-102770767D01*
X176973280Y-102747017D01*
X177087095Y-102669915D01*
X177147510Y-102561955D01*
X177149711Y-102441531D01*
X177088888Y-102327037D01*
X177084425Y-102322139D01*
X176974441Y-102244263D01*
X176857723Y-102223446D01*
X176748368Y-102250720D01*
G36*
X176642587Y-103954460D02*
X176638642Y-104207707D01*
X176633824Y-104438538D01*
X176628449Y-104636520D01*
X176622833Y-104791221D01*
X176617293Y-104892208D01*
X176613091Y-104927429D01*
X176616831Y-104957806D01*
X176660610Y-104976812D01*
X176757240Y-104988195D01*
X176835502Y-104992473D01*
X177075433Y-105003088D01*
X177098174Y-104865473D01*
X177105954Y-104783259D01*
X177112073Y-104649015D01*
X177116558Y-104474897D01*
X177119434Y-104273060D01*
X177120726Y-104055660D01*
X177120459Y-103834852D01*
X177118660Y-103622793D01*
X177115352Y-103431639D01*
X177110562Y-103273544D01*
X177104314Y-103160665D01*
X177096635Y-103105158D01*
X177094501Y-103101673D01*
X177046004Y-103089002D01*
X176949254Y-103072756D01*
X176860926Y-103060920D01*
X176654565Y-103035920D01*
X176642587Y-103954460D01*
X176642587Y-103954460D01*
G37*
X176642587Y-103954460D02*
X176638642Y-104207707D01*
X176633824Y-104438538D01*
X176628449Y-104636520D01*
X176622833Y-104791221D01*
X176617293Y-104892208D01*
X176613091Y-104927429D01*
X176616831Y-104957806D01*
X176660610Y-104976812D01*
X176757240Y-104988195D01*
X176835502Y-104992473D01*
X177075433Y-105003088D01*
X177098174Y-104865473D01*
X177105954Y-104783259D01*
X177112073Y-104649015D01*
X177116558Y-104474897D01*
X177119434Y-104273060D01*
X177120726Y-104055660D01*
X177120459Y-103834852D01*
X177118660Y-103622793D01*
X177115352Y-103431639D01*
X177110562Y-103273544D01*
X177104314Y-103160665D01*
X177096635Y-103105158D01*
X177094501Y-103101673D01*
X177046004Y-103089002D01*
X176949254Y-103072756D01*
X176860926Y-103060920D01*
X176654565Y-103035920D01*
X176642587Y-103954460D01*
G36*
X178213208Y-103041928D02*
X178040182Y-103084506D01*
X177911197Y-103161365D01*
X177813827Y-103278233D01*
X177783929Y-103331577D01*
X177756453Y-103389316D01*
X177735932Y-103447576D01*
X177721357Y-103517659D01*
X177711719Y-103610867D01*
X177706009Y-103738500D01*
X177703216Y-103911860D01*
X177702332Y-104142249D01*
X177702286Y-104245689D01*
X177702286Y-105000000D01*
X178174001Y-105000000D01*
X178174001Y-103595455D01*
X178267425Y-103494648D01*
X178325094Y-103438967D01*
X178381516Y-103411345D01*
X178461571Y-103405372D01*
X178581139Y-103413816D01*
X178725020Y-103434427D01*
X178822559Y-103470683D01*
X178895928Y-103528195D01*
X178928998Y-103563155D01*
X178953591Y-103599792D01*
X178971317Y-103649146D01*
X178983781Y-103722261D01*
X178992590Y-103830178D01*
X178999352Y-103983939D01*
X179005674Y-104194587D01*
X179008572Y-104302228D01*
X179026715Y-104981858D01*
X179271643Y-104992587D01*
X179516572Y-105003316D01*
X179516572Y-103040572D01*
X179298858Y-103040572D01*
X179183913Y-103044695D01*
X179104802Y-103055412D01*
X179080588Y-103067786D01*
X179062732Y-103119376D01*
X179047993Y-103145598D01*
X179016810Y-103170887D01*
X178964484Y-103159425D01*
X178878281Y-103111109D01*
X178794419Y-103066712D01*
X178706041Y-103041055D01*
X178589720Y-103029664D01*
X178442696Y-103027905D01*
X178213208Y-103041928D01*
X178213208Y-103041928D01*
G37*
X178213208Y-103041928D02*
X178040182Y-103084506D01*
X177911197Y-103161365D01*
X177813827Y-103278233D01*
X177783929Y-103331577D01*
X177756453Y-103389316D01*
X177735932Y-103447576D01*
X177721357Y-103517659D01*
X177711719Y-103610867D01*
X177706009Y-103738500D01*
X177703216Y-103911860D01*
X177702332Y-104142249D01*
X177702286Y-104245689D01*
X177702286Y-105000000D01*
X178174001Y-105000000D01*
X178174001Y-103595455D01*
X178267425Y-103494648D01*
X178325094Y-103438967D01*
X178381516Y-103411345D01*
X178461571Y-103405372D01*
X178581139Y-103413816D01*
X178725020Y-103434427D01*
X178822559Y-103470683D01*
X178895928Y-103528195D01*
X178928998Y-103563155D01*
X178953591Y-103599792D01*
X178971317Y-103649146D01*
X178983781Y-103722261D01*
X178992590Y-103830178D01*
X178999352Y-103983939D01*
X179005674Y-104194587D01*
X179008572Y-104302228D01*
X179026715Y-104981858D01*
X179271643Y-104992587D01*
X179516572Y-105003316D01*
X179516572Y-103040572D01*
X179298858Y-103040572D01*
X179183913Y-103044695D01*
X179104802Y-103055412D01*
X179080588Y-103067786D01*
X179062732Y-103119376D01*
X179047993Y-103145598D01*
X179016810Y-103170887D01*
X178964484Y-103159425D01*
X178878281Y-103111109D01*
X178794419Y-103066712D01*
X178706041Y-103041055D01*
X178589720Y-103029664D01*
X178442696Y-103027905D01*
X178213208Y-103041928D01*
G36*
X175215539Y-103029836D02*
X175052306Y-103038551D01*
X174924892Y-103050571D01*
X174906138Y-103053259D01*
X174807736Y-103072016D01*
X174754274Y-103102184D01*
X174725062Y-103164779D01*
X174703959Y-103258602D01*
X174688318Y-103365071D01*
X174690177Y-103434099D01*
X174699157Y-103448624D01*
X174747535Y-103449910D01*
X174849618Y-103444279D01*
X174986990Y-103432884D01*
X175051604Y-103426572D01*
X175214536Y-103414264D01*
X175365994Y-103410289D01*
X175479757Y-103415119D01*
X175503055Y-103418438D01*
X175590750Y-103442415D01*
X175627281Y-103483511D01*
X175634001Y-103550688D01*
X175622438Y-103612176D01*
X175581335Y-103665995D01*
X175501065Y-103717985D01*
X175372003Y-103773987D01*
X175184523Y-103839845D01*
X175126000Y-103858986D01*
X175014891Y-103897549D01*
X174934874Y-103930145D01*
X174908286Y-103945569D01*
X174867504Y-103978769D01*
X174793932Y-104028744D01*
X174790824Y-104030726D01*
X174690660Y-104127302D01*
X174606491Y-104265842D01*
X174554486Y-104415738D01*
X174545429Y-104495343D01*
X174576722Y-104639764D01*
X174661130Y-104787719D01*
X174784444Y-104915642D01*
X174810875Y-104935579D01*
X174873075Y-104973563D01*
X174943303Y-104998436D01*
X175039059Y-105013336D01*
X175177844Y-105021403D01*
X175307245Y-105024615D01*
X175473495Y-105026007D01*
X175618308Y-105024170D01*
X175722659Y-105019514D01*
X175761001Y-105014898D01*
X175843793Y-104993318D01*
X175952512Y-104962134D01*
X175969643Y-104956989D01*
X176050650Y-104928554D01*
X176090744Y-104892014D01*
X176104305Y-104824054D01*
X176105715Y-104736381D01*
X176105715Y-104556949D01*
X175951501Y-104580561D01*
X175845662Y-104593172D01*
X175693426Y-104606870D01*
X175520887Y-104619418D01*
X175445033Y-104624010D01*
X175092780Y-104643848D01*
X175067634Y-104543659D01*
X175065018Y-104463030D01*
X175106829Y-104394550D01*
X175200786Y-104332295D01*
X175354608Y-104270339D01*
X175472737Y-104232675D01*
X175600188Y-104190899D01*
X175695245Y-104153086D01*
X175741058Y-104126125D01*
X175742858Y-104122200D01*
X175771729Y-104094107D01*
X175788215Y-104091650D01*
X175848322Y-104069054D01*
X175908889Y-104027456D01*
X176029507Y-103894674D01*
X176093879Y-103737017D01*
X176110751Y-103573897D01*
X176092116Y-103380071D01*
X176027983Y-103232115D01*
X175913819Y-103126614D01*
X175745091Y-103060150D01*
X175517266Y-103029306D01*
X175384050Y-103026156D01*
X175215539Y-103029836D01*
X175215539Y-103029836D01*
G37*
X175215539Y-103029836D02*
X175052306Y-103038551D01*
X174924892Y-103050571D01*
X174906138Y-103053259D01*
X174807736Y-103072016D01*
X174754274Y-103102184D01*
X174725062Y-103164779D01*
X174703959Y-103258602D01*
X174688318Y-103365071D01*
X174690177Y-103434099D01*
X174699157Y-103448624D01*
X174747535Y-103449910D01*
X174849618Y-103444279D01*
X174986990Y-103432884D01*
X175051604Y-103426572D01*
X175214536Y-103414264D01*
X175365994Y-103410289D01*
X175479757Y-103415119D01*
X175503055Y-103418438D01*
X175590750Y-103442415D01*
X175627281Y-103483511D01*
X175634001Y-103550688D01*
X175622438Y-103612176D01*
X175581335Y-103665995D01*
X175501065Y-103717985D01*
X175372003Y-103773987D01*
X175184523Y-103839845D01*
X175126000Y-103858986D01*
X175014891Y-103897549D01*
X174934874Y-103930145D01*
X174908286Y-103945569D01*
X174867504Y-103978769D01*
X174793932Y-104028744D01*
X174790824Y-104030726D01*
X174690660Y-104127302D01*
X174606491Y-104265842D01*
X174554486Y-104415738D01*
X174545429Y-104495343D01*
X174576722Y-104639764D01*
X174661130Y-104787719D01*
X174784444Y-104915642D01*
X174810875Y-104935579D01*
X174873075Y-104973563D01*
X174943303Y-104998436D01*
X175039059Y-105013336D01*
X175177844Y-105021403D01*
X175307245Y-105024615D01*
X175473495Y-105026007D01*
X175618308Y-105024170D01*
X175722659Y-105019514D01*
X175761001Y-105014898D01*
X175843793Y-104993318D01*
X175952512Y-104962134D01*
X175969643Y-104956989D01*
X176050650Y-104928554D01*
X176090744Y-104892014D01*
X176104305Y-104824054D01*
X176105715Y-104736381D01*
X176105715Y-104556949D01*
X175951501Y-104580561D01*
X175845662Y-104593172D01*
X175693426Y-104606870D01*
X175520887Y-104619418D01*
X175445033Y-104624010D01*
X175092780Y-104643848D01*
X175067634Y-104543659D01*
X175065018Y-104463030D01*
X175106829Y-104394550D01*
X175200786Y-104332295D01*
X175354608Y-104270339D01*
X175472737Y-104232675D01*
X175600188Y-104190899D01*
X175695245Y-104153086D01*
X175741058Y-104126125D01*
X175742858Y-104122200D01*
X175771729Y-104094107D01*
X175788215Y-104091650D01*
X175848322Y-104069054D01*
X175908889Y-104027456D01*
X176029507Y-103894674D01*
X176093879Y-103737017D01*
X176110751Y-103573897D01*
X176092116Y-103380071D01*
X176027983Y-103232115D01*
X175913819Y-103126614D01*
X175745091Y-103060150D01*
X175517266Y-103029306D01*
X175384050Y-103026156D01*
X175215539Y-103029836D01*
G36*
X180830046Y-103029736D02*
X180621901Y-103055096D01*
X180459101Y-103104436D01*
X180311880Y-103185794D01*
X180209106Y-103282753D01*
X180123423Y-103421457D01*
X180119662Y-103428841D01*
X180098792Y-103481951D01*
X180083324Y-103554208D01*
X180072528Y-103656089D01*
X180065673Y-103798073D01*
X180062029Y-103990637D01*
X180060866Y-104244260D01*
X180060858Y-104272484D01*
X180060858Y-105000000D01*
X180276769Y-105000000D01*
X180413299Y-104993747D01*
X180492595Y-104972750D01*
X180524931Y-104942372D01*
X180552121Y-104910246D01*
X180594225Y-104910916D01*
X180672275Y-104946579D01*
X180698553Y-104960515D01*
X180807589Y-105006061D01*
X180933023Y-105027943D01*
X181094463Y-105031345D01*
X181235684Y-105026600D01*
X181357794Y-105018987D01*
X181431948Y-105010507D01*
X181537264Y-104961787D01*
X181650045Y-104865725D01*
X181751557Y-104742659D01*
X181823070Y-104612926D01*
X181837375Y-104570344D01*
X181856142Y-104470529D01*
X181349996Y-104470529D01*
X181332680Y-104541636D01*
X181308806Y-104591839D01*
X181272909Y-104620448D01*
X181206707Y-104633501D01*
X181091914Y-104637036D01*
X181043493Y-104637143D01*
X180899406Y-104633168D01*
X180805117Y-104617658D01*
X180738112Y-104585235D01*
X180701722Y-104555500D01*
X180639125Y-104478813D01*
X180586931Y-104383019D01*
X180555399Y-104292143D01*
X180554786Y-104230206D01*
X180559725Y-104222942D01*
X180610455Y-104208738D01*
X180712519Y-104201894D01*
X180845134Y-104201658D01*
X180987517Y-104207278D01*
X181118885Y-104218001D01*
X181218456Y-104233076D01*
X181262077Y-104248365D01*
X181334433Y-104345486D01*
X181349996Y-104470529D01*
X181856142Y-104470529D01*
X181860325Y-104448283D01*
X181850584Y-104339584D01*
X181823799Y-104248721D01*
X181742846Y-104083173D01*
X181623169Y-103959148D01*
X181457964Y-103873322D01*
X181240428Y-103822371D01*
X180963757Y-103802971D01*
X180910564Y-103802572D01*
X180725306Y-103800051D01*
X180604961Y-103788481D01*
X180541934Y-103761851D01*
X180528630Y-103714152D01*
X180557456Y-103639373D01*
X180603548Y-103559612D01*
X180681681Y-103475344D01*
X180796366Y-103425627D01*
X180953982Y-103410127D01*
X181160908Y-103428508D01*
X181423524Y-103480436D01*
X181544289Y-103510189D01*
X181641681Y-103532356D01*
X181704300Y-103541170D01*
X181714772Y-103539610D01*
X181716707Y-103500313D01*
X181708927Y-103412771D01*
X181700800Y-103350206D01*
X181683577Y-103249520D01*
X181656124Y-103189372D01*
X181599933Y-103149291D01*
X181496493Y-103108811D01*
X181475889Y-103101485D01*
X181281405Y-103052860D01*
X181058002Y-103028967D01*
X180830046Y-103029736D01*
X180830046Y-103029736D01*
G37*
X180830046Y-103029736D02*
X180621901Y-103055096D01*
X180459101Y-103104436D01*
X180311880Y-103185794D01*
X180209106Y-103282753D01*
X180123423Y-103421457D01*
X180119662Y-103428841D01*
X180098792Y-103481951D01*
X180083324Y-103554208D01*
X180072528Y-103656089D01*
X180065673Y-103798073D01*
X180062029Y-103990637D01*
X180060866Y-104244260D01*
X180060858Y-104272484D01*
X180060858Y-105000000D01*
X180276769Y-105000000D01*
X180413299Y-104993747D01*
X180492595Y-104972750D01*
X180524931Y-104942372D01*
X180552121Y-104910246D01*
X180594225Y-104910916D01*
X180672275Y-104946579D01*
X180698553Y-104960515D01*
X180807589Y-105006061D01*
X180933023Y-105027943D01*
X181094463Y-105031345D01*
X181235684Y-105026600D01*
X181357794Y-105018987D01*
X181431948Y-105010507D01*
X181537264Y-104961787D01*
X181650045Y-104865725D01*
X181751557Y-104742659D01*
X181823070Y-104612926D01*
X181837375Y-104570344D01*
X181856142Y-104470529D01*
X181349996Y-104470529D01*
X181332680Y-104541636D01*
X181308806Y-104591839D01*
X181272909Y-104620448D01*
X181206707Y-104633501D01*
X181091914Y-104637036D01*
X181043493Y-104637143D01*
X180899406Y-104633168D01*
X180805117Y-104617658D01*
X180738112Y-104585235D01*
X180701722Y-104555500D01*
X180639125Y-104478813D01*
X180586931Y-104383019D01*
X180555399Y-104292143D01*
X180554786Y-104230206D01*
X180559725Y-104222942D01*
X180610455Y-104208738D01*
X180712519Y-104201894D01*
X180845134Y-104201658D01*
X180987517Y-104207278D01*
X181118885Y-104218001D01*
X181218456Y-104233076D01*
X181262077Y-104248365D01*
X181334433Y-104345486D01*
X181349996Y-104470529D01*
X181856142Y-104470529D01*
X181860325Y-104448283D01*
X181850584Y-104339584D01*
X181823799Y-104248721D01*
X181742846Y-104083173D01*
X181623169Y-103959148D01*
X181457964Y-103873322D01*
X181240428Y-103822371D01*
X180963757Y-103802971D01*
X180910564Y-103802572D01*
X180725306Y-103800051D01*
X180604961Y-103788481D01*
X180541934Y-103761851D01*
X180528630Y-103714152D01*
X180557456Y-103639373D01*
X180603548Y-103559612D01*
X180681681Y-103475344D01*
X180796366Y-103425627D01*
X180953982Y-103410127D01*
X181160908Y-103428508D01*
X181423524Y-103480436D01*
X181544289Y-103510189D01*
X181641681Y-103532356D01*
X181704300Y-103541170D01*
X181714772Y-103539610D01*
X181716707Y-103500313D01*
X181708927Y-103412771D01*
X181700800Y-103350206D01*
X181683577Y-103249520D01*
X181656124Y-103189372D01*
X181599933Y-103149291D01*
X181496493Y-103108811D01*
X181475889Y-103101485D01*
X181281405Y-103052860D01*
X181058002Y-103028967D01*
X180830046Y-103029736D01*
G36*
X182739907Y-102288081D02*
X182679961Y-102309696D01*
X182671547Y-102323929D01*
X182669945Y-102378793D01*
X182667261Y-102486888D01*
X182663968Y-102628891D01*
X182662476Y-102695858D01*
X182655286Y-103022429D01*
X182445039Y-103033359D01*
X182323514Y-103043235D01*
X182254143Y-103062483D01*
X182216512Y-103099617D01*
X182200110Y-103135507D01*
X182173371Y-103244101D01*
X182165429Y-103331562D01*
X182168344Y-103387184D01*
X182187826Y-103419388D01*
X182239981Y-103435774D01*
X182340914Y-103443942D01*
X182410358Y-103447128D01*
X182655286Y-103457858D01*
X182654635Y-103911429D01*
X182649894Y-104138522D01*
X182637101Y-104326239D01*
X182617354Y-104461117D01*
X182606464Y-104501072D01*
X182575331Y-104579997D01*
X182538334Y-104620371D01*
X182472682Y-104635112D01*
X182366419Y-104637143D01*
X182243501Y-104645207D01*
X182172187Y-104679370D01*
X182138812Y-104754589D01*
X182129714Y-104885820D01*
X182129639Y-104896333D01*
X182138835Y-104961376D01*
X182175571Y-105002872D01*
X182252353Y-105025713D01*
X182381684Y-105034790D01*
X182485897Y-105035675D01*
X182650631Y-105027115D01*
X182768918Y-104998987D01*
X182843606Y-104960921D01*
X182929059Y-104883158D01*
X183012446Y-104771456D01*
X183043177Y-104716603D01*
X183076299Y-104642166D01*
X183100062Y-104565224D01*
X183116413Y-104471145D01*
X183127303Y-104345298D01*
X183134678Y-104173052D01*
X183139295Y-103994856D01*
X183151589Y-103443284D01*
X183337666Y-103432428D01*
X183447578Y-103423239D01*
X183506756Y-103402501D01*
X183536965Y-103355513D01*
X183555868Y-103285053D01*
X183576310Y-103160629D01*
X183558191Y-103086659D01*
X183490895Y-103050784D01*
X183363807Y-103040646D01*
X183345854Y-103040572D01*
X183145143Y-103040572D01*
X183145143Y-102681947D01*
X183144192Y-102517714D01*
X183139315Y-102411898D01*
X183127476Y-102350349D01*
X183105639Y-102318918D01*
X183070768Y-102303454D01*
X183063500Y-102301442D01*
X182954011Y-102282673D01*
X182838702Y-102278647D01*
X182739907Y-102288081D01*
X182739907Y-102288081D01*
G37*
X182739907Y-102288081D02*
X182679961Y-102309696D01*
X182671547Y-102323929D01*
X182669945Y-102378793D01*
X182667261Y-102486888D01*
X182663968Y-102628891D01*
X182662476Y-102695858D01*
X182655286Y-103022429D01*
X182445039Y-103033359D01*
X182323514Y-103043235D01*
X182254143Y-103062483D01*
X182216512Y-103099617D01*
X182200110Y-103135507D01*
X182173371Y-103244101D01*
X182165429Y-103331562D01*
X182168344Y-103387184D01*
X182187826Y-103419388D01*
X182239981Y-103435774D01*
X182340914Y-103443942D01*
X182410358Y-103447128D01*
X182655286Y-103457858D01*
X182654635Y-103911429D01*
X182649894Y-104138522D01*
X182637101Y-104326239D01*
X182617354Y-104461117D01*
X182606464Y-104501072D01*
X182575331Y-104579997D01*
X182538334Y-104620371D01*
X182472682Y-104635112D01*
X182366419Y-104637143D01*
X182243501Y-104645207D01*
X182172187Y-104679370D01*
X182138812Y-104754589D01*
X182129714Y-104885820D01*
X182129639Y-104896333D01*
X182138835Y-104961376D01*
X182175571Y-105002872D01*
X182252353Y-105025713D01*
X182381684Y-105034790D01*
X182485897Y-105035675D01*
X182650631Y-105027115D01*
X182768918Y-104998987D01*
X182843606Y-104960921D01*
X182929059Y-104883158D01*
X183012446Y-104771456D01*
X183043177Y-104716603D01*
X183076299Y-104642166D01*
X183100062Y-104565224D01*
X183116413Y-104471145D01*
X183127303Y-104345298D01*
X183134678Y-104173052D01*
X183139295Y-103994856D01*
X183151589Y-103443284D01*
X183337666Y-103432428D01*
X183447578Y-103423239D01*
X183506756Y-103402501D01*
X183536965Y-103355513D01*
X183555868Y-103285053D01*
X183576310Y-103160629D01*
X183558191Y-103086659D01*
X183490895Y-103050784D01*
X183363807Y-103040646D01*
X183345854Y-103040572D01*
X183145143Y-103040572D01*
X183145143Y-102681947D01*
X183144192Y-102517714D01*
X183139315Y-102411898D01*
X183127476Y-102350349D01*
X183105639Y-102318918D01*
X183070768Y-102303454D01*
X183063500Y-102301442D01*
X182954011Y-102282673D01*
X182838702Y-102278647D01*
X182739907Y-102288081D01*
G36*
X184310848Y-103020843D02*
X184288143Y-103023283D01*
X184085759Y-103056450D01*
X183945663Y-103102997D01*
X183857777Y-103170880D01*
X183812019Y-103268059D01*
X183798311Y-103402490D01*
X183798286Y-103410021D01*
X183804554Y-103485785D01*
X183837145Y-103507167D01*
X183898072Y-103496713D01*
X184190311Y-103436122D01*
X184425723Y-103410113D01*
X184611410Y-103418928D01*
X184754478Y-103462809D01*
X184849190Y-103529105D01*
X184938693Y-103658320D01*
X184990327Y-103825290D01*
X185005698Y-104012207D01*
X184986409Y-104201262D01*
X184934064Y-104374646D01*
X184850267Y-104514551D01*
X184753172Y-104595099D01*
X184673491Y-104616469D01*
X184544716Y-104630071D01*
X184389563Y-104635837D01*
X184230748Y-104633695D01*
X184090988Y-104623576D01*
X183992999Y-104605411D01*
X183973434Y-104597496D01*
X183897032Y-104578358D01*
X183847637Y-104620299D01*
X183822780Y-104726676D01*
X183818740Y-104807847D01*
X183816429Y-104979545D01*
X183961572Y-105005824D01*
X184120160Y-105024583D01*
X184312342Y-105032617D01*
X184515887Y-105030556D01*
X184708563Y-105019028D01*
X184868140Y-104998663D01*
X184953329Y-104977758D01*
X185155481Y-104873737D01*
X185312037Y-104716541D01*
X185399285Y-104569449D01*
X185437511Y-104478798D01*
X185461480Y-104385566D01*
X185474108Y-104269468D01*
X185478311Y-104110221D01*
X185478238Y-104020286D01*
X185465423Y-103756975D01*
X185426465Y-103550242D01*
X185355720Y-103387049D01*
X185247542Y-103254357D01*
X185096875Y-103139501D01*
X184990944Y-103095111D01*
X184835954Y-103057684D01*
X184655326Y-103030587D01*
X184472484Y-103017185D01*
X184310848Y-103020843D01*
X184310848Y-103020843D01*
G37*
X184310848Y-103020843D02*
X184288143Y-103023283D01*
X184085759Y-103056450D01*
X183945663Y-103102997D01*
X183857777Y-103170880D01*
X183812019Y-103268059D01*
X183798311Y-103402490D01*
X183798286Y-103410021D01*
X183804554Y-103485785D01*
X183837145Y-103507167D01*
X183898072Y-103496713D01*
X184190311Y-103436122D01*
X184425723Y-103410113D01*
X184611410Y-103418928D01*
X184754478Y-103462809D01*
X184849190Y-103529105D01*
X184938693Y-103658320D01*
X184990327Y-103825290D01*
X185005698Y-104012207D01*
X184986409Y-104201262D01*
X184934064Y-104374646D01*
X184850267Y-104514551D01*
X184753172Y-104595099D01*
X184673491Y-104616469D01*
X184544716Y-104630071D01*
X184389563Y-104635837D01*
X184230748Y-104633695D01*
X184090988Y-104623576D01*
X183992999Y-104605411D01*
X183973434Y-104597496D01*
X183897032Y-104578358D01*
X183847637Y-104620299D01*
X183822780Y-104726676D01*
X183818740Y-104807847D01*
X183816429Y-104979545D01*
X183961572Y-105005824D01*
X184120160Y-105024583D01*
X184312342Y-105032617D01*
X184515887Y-105030556D01*
X184708563Y-105019028D01*
X184868140Y-104998663D01*
X184953329Y-104977758D01*
X185155481Y-104873737D01*
X185312037Y-104716541D01*
X185399285Y-104569449D01*
X185437511Y-104478798D01*
X185461480Y-104385566D01*
X185474108Y-104269468D01*
X185478311Y-104110221D01*
X185478238Y-104020286D01*
X185465423Y-103756975D01*
X185426465Y-103550242D01*
X185355720Y-103387049D01*
X185247542Y-103254357D01*
X185096875Y-103139501D01*
X184990944Y-103095111D01*
X184835954Y-103057684D01*
X184655326Y-103030587D01*
X184472484Y-103017185D01*
X184310848Y-103020843D01*
G36*
X186688795Y-103030867D02*
X186564911Y-103042461D01*
X186463525Y-103067745D01*
X186359674Y-103111240D01*
X186333996Y-103123712D01*
X186141782Y-103251288D01*
X186002103Y-103420715D01*
X185912603Y-103636540D01*
X185870926Y-103903310D01*
X185867118Y-104024796D01*
X185888374Y-104311052D01*
X185955461Y-104545147D01*
X186071498Y-104733591D01*
X186239603Y-104882893D01*
X186294802Y-104917618D01*
X186383411Y-104964800D01*
X186468777Y-104995256D01*
X186571921Y-105013311D01*
X186713866Y-105023290D01*
X186827645Y-105027236D01*
X187028918Y-105028649D01*
X187174128Y-105018602D01*
X187279096Y-104995602D01*
X187316394Y-104981091D01*
X187529533Y-104855414D01*
X187686929Y-104691795D01*
X187754676Y-104580290D01*
X187796084Y-104491091D01*
X187822477Y-104404429D01*
X187837101Y-104300072D01*
X187843203Y-104157786D01*
X187844143Y-104022812D01*
X187843463Y-103968156D01*
X187388918Y-103968156D01*
X187382505Y-104167813D01*
X187339044Y-104353279D01*
X187258314Y-104505602D01*
X187200815Y-104566018D01*
X187132935Y-104605901D01*
X187036767Y-104627400D01*
X186892025Y-104634664D01*
X186864429Y-104634782D01*
X186722732Y-104628559D01*
X186610563Y-104611957D01*
X186553274Y-104590632D01*
X186445949Y-104464409D01*
X186376159Y-104288814D01*
X186347238Y-104078484D01*
X186362520Y-103848055D01*
X186372198Y-103795863D01*
X186422004Y-103627887D01*
X186497034Y-103516269D01*
X186609843Y-103451532D01*
X186772982Y-103424196D01*
X186867924Y-103421572D01*
X187048691Y-103430755D01*
X187162367Y-103458044D01*
X187188076Y-103473573D01*
X187291482Y-103602083D01*
X187358503Y-103773261D01*
X187388918Y-103968156D01*
X187843463Y-103968156D01*
X187841850Y-103838666D01*
X187833103Y-103708090D01*
X187815101Y-103612171D01*
X187785042Y-103532001D01*
X187765824Y-103494143D01*
X187640159Y-103306441D01*
X187489134Y-103171541D01*
X187302172Y-103084006D01*
X187068698Y-103038398D01*
X186860139Y-103028444D01*
X186688795Y-103030867D01*
X186688795Y-103030867D01*
G37*
X186688795Y-103030867D02*
X186564911Y-103042461D01*
X186463525Y-103067745D01*
X186359674Y-103111240D01*
X186333996Y-103123712D01*
X186141782Y-103251288D01*
X186002103Y-103420715D01*
X185912603Y-103636540D01*
X185870926Y-103903310D01*
X185867118Y-104024796D01*
X185888374Y-104311052D01*
X185955461Y-104545147D01*
X186071498Y-104733591D01*
X186239603Y-104882893D01*
X186294802Y-104917618D01*
X186383411Y-104964800D01*
X186468777Y-104995256D01*
X186571921Y-105013311D01*
X186713866Y-105023290D01*
X186827645Y-105027236D01*
X187028918Y-105028649D01*
X187174128Y-105018602D01*
X187279096Y-104995602D01*
X187316394Y-104981091D01*
X187529533Y-104855414D01*
X187686929Y-104691795D01*
X187754676Y-104580290D01*
X187796084Y-104491091D01*
X187822477Y-104404429D01*
X187837101Y-104300072D01*
X187843203Y-104157786D01*
X187844143Y-104022812D01*
X187843463Y-103968156D01*
X187388918Y-103968156D01*
X187382505Y-104167813D01*
X187339044Y-104353279D01*
X187258314Y-104505602D01*
X187200815Y-104566018D01*
X187132935Y-104605901D01*
X187036767Y-104627400D01*
X186892025Y-104634664D01*
X186864429Y-104634782D01*
X186722732Y-104628559D01*
X186610563Y-104611957D01*
X186553274Y-104590632D01*
X186445949Y-104464409D01*
X186376159Y-104288814D01*
X186347238Y-104078484D01*
X186362520Y-103848055D01*
X186372198Y-103795863D01*
X186422004Y-103627887D01*
X186497034Y-103516269D01*
X186609843Y-103451532D01*
X186772982Y-103424196D01*
X186867924Y-103421572D01*
X187048691Y-103430755D01*
X187162367Y-103458044D01*
X187188076Y-103473573D01*
X187291482Y-103602083D01*
X187358503Y-103773261D01*
X187388918Y-103968156D01*
X187843463Y-103968156D01*
X187841850Y-103838666D01*
X187833103Y-103708090D01*
X187815101Y-103612171D01*
X187785042Y-103532001D01*
X187765824Y-103494143D01*
X187640159Y-103306441D01*
X187489134Y-103171541D01*
X187302172Y-103084006D01*
X187068698Y-103038398D01*
X186860139Y-103028444D01*
X186688795Y-103030867D01*
G36*
X191311291Y-106045325D02*
X191237465Y-106080784D01*
X191178760Y-106143514D01*
X191105332Y-106275350D01*
X191103809Y-106398813D01*
X191174265Y-106515873D01*
X191193486Y-106535355D01*
X191318153Y-106612509D01*
X191457424Y-106632739D01*
X191588380Y-106594572D01*
X191632194Y-106563588D01*
X191713540Y-106450175D01*
X191735132Y-106317048D01*
X191695185Y-106187031D01*
X191664965Y-106144881D01*
X191584095Y-106073553D01*
X191484986Y-106043493D01*
X191421541Y-106039263D01*
X191311291Y-106045325D01*
X191311291Y-106045325D01*
G37*
X191311291Y-106045325D02*
X191237465Y-106080784D01*
X191178760Y-106143514D01*
X191105332Y-106275350D01*
X191103809Y-106398813D01*
X191174265Y-106515873D01*
X191193486Y-106535355D01*
X191318153Y-106612509D01*
X191457424Y-106632739D01*
X191588380Y-106594572D01*
X191632194Y-106563588D01*
X191713540Y-106450175D01*
X191735132Y-106317048D01*
X191695185Y-106187031D01*
X191664965Y-106144881D01*
X191584095Y-106073553D01*
X191484986Y-106043493D01*
X191421541Y-106039263D01*
X191311291Y-106045325D01*
G36*
X188953389Y-101662098D02*
X188879970Y-101727020D01*
X188791260Y-101855635D01*
X188769888Y-101986404D01*
X188813483Y-102106223D01*
X188919674Y-102201987D01*
X188970473Y-102227097D01*
X189076886Y-102258244D01*
X189163623Y-102245544D01*
X189182225Y-102237729D01*
X189241294Y-102219939D01*
X189301402Y-102231039D01*
X189384305Y-102277796D01*
X189445128Y-102319490D01*
X189589382Y-102422807D01*
X189700442Y-102507426D01*
X189805773Y-102594484D01*
X189833842Y-102618598D01*
X189903894Y-102675563D01*
X190008508Y-102756686D01*
X190112000Y-102834665D01*
X190307867Y-102983138D01*
X190542058Y-103166374D01*
X190774215Y-103351683D01*
X190820880Y-103424291D01*
X190837715Y-103512423D01*
X190850881Y-103614449D01*
X190878003Y-103686640D01*
X190885047Y-103714883D01*
X190875448Y-103759291D01*
X190845234Y-103826829D01*
X190790434Y-103924463D01*
X190707075Y-104059159D01*
X190591185Y-104237882D01*
X190438792Y-104467600D01*
X190397217Y-104529790D01*
X190255548Y-104740422D01*
X190126426Y-104930372D01*
X190015498Y-105091497D01*
X189928408Y-105215658D01*
X189870801Y-105294712D01*
X189848929Y-105320524D01*
X189824032Y-105362297D01*
X189821715Y-105384024D01*
X189806169Y-105430743D01*
X189794500Y-105435970D01*
X189763947Y-105465230D01*
X189709555Y-105541574D01*
X189642879Y-105648730D01*
X189640286Y-105653143D01*
X189573374Y-105761140D01*
X189518311Y-105838936D01*
X189486653Y-105870261D01*
X189486072Y-105870316D01*
X189461502Y-105900169D01*
X189458858Y-105922262D01*
X189442601Y-105976516D01*
X189431643Y-105985762D01*
X189399420Y-106020218D01*
X189340960Y-106099017D01*
X189268846Y-106205187D01*
X189267987Y-106206501D01*
X189184930Y-106324036D01*
X189120168Y-106388935D01*
X189059937Y-106413668D01*
X189037728Y-106415143D01*
X188938323Y-106433875D01*
X188841419Y-106475688D01*
X188753851Y-106564616D01*
X188710839Y-106685914D01*
X188715343Y-106814259D01*
X188770328Y-106924329D01*
X188786945Y-106941286D01*
X188875430Y-107005816D01*
X188968502Y-107049666D01*
X189047010Y-107066951D01*
X189091803Y-107051790D01*
X189096001Y-107036233D01*
X189126093Y-107001994D01*
X189165463Y-106986014D01*
X189251657Y-106929181D01*
X189305315Y-106824451D01*
X189318801Y-106692096D01*
X189305905Y-106613262D01*
X189289210Y-106537133D01*
X189291057Y-106474715D01*
X189317955Y-106405579D01*
X189376412Y-106309300D01*
X189426841Y-106233715D01*
X189505291Y-106120739D01*
X189569924Y-106033836D01*
X189609039Y-105988587D01*
X189613072Y-105985762D01*
X189637969Y-105943990D01*
X189640286Y-105922262D01*
X189655832Y-105875544D01*
X189667501Y-105870316D01*
X189698054Y-105841056D01*
X189752446Y-105764713D01*
X189819122Y-105657557D01*
X189821715Y-105653143D01*
X189888627Y-105545147D01*
X189943690Y-105467350D01*
X189975348Y-105436026D01*
X189975929Y-105435970D01*
X190000499Y-105406117D01*
X190003143Y-105384024D01*
X190019400Y-105329771D01*
X190030358Y-105320524D01*
X190057585Y-105287978D01*
X190118437Y-105203737D01*
X190206708Y-105076769D01*
X190316192Y-104916043D01*
X190440683Y-104730527D01*
X190490707Y-104655286D01*
X190652867Y-104411445D01*
X190780865Y-104221602D01*
X190880268Y-104079024D01*
X190956640Y-103976980D01*
X191015550Y-103908736D01*
X191062562Y-103867560D01*
X191103245Y-103846719D01*
X191143163Y-103839481D01*
X191165718Y-103838858D01*
X191300588Y-103806437D01*
X191400866Y-103719337D01*
X191451385Y-103592802D01*
X191454572Y-103548530D01*
X191424258Y-103401366D01*
X191339819Y-103296142D01*
X191211005Y-103240357D01*
X191053851Y-103240410D01*
X190994980Y-103247236D01*
X190939648Y-103242143D01*
X190877489Y-103219256D01*
X190798138Y-103172703D01*
X190691227Y-103096612D01*
X190546393Y-102985108D01*
X190402286Y-102871250D01*
X190316583Y-102803956D01*
X190190098Y-102705523D01*
X190039650Y-102588955D01*
X189882057Y-102467258D01*
X189734139Y-102353436D01*
X189612713Y-102260495D01*
X189594914Y-102246945D01*
X189484959Y-102159597D01*
X189422112Y-102095024D01*
X189393519Y-102035124D01*
X189386324Y-101961792D01*
X189386286Y-101953140D01*
X189355618Y-101803724D01*
X189267778Y-101696573D01*
X189129015Y-101639074D01*
X189119128Y-101637352D01*
X189026121Y-101632165D01*
X188953389Y-101662098D01*
X188953389Y-101662098D01*
G37*
X188953389Y-101662098D02*
X188879970Y-101727020D01*
X188791260Y-101855635D01*
X188769888Y-101986404D01*
X188813483Y-102106223D01*
X188919674Y-102201987D01*
X188970473Y-102227097D01*
X189076886Y-102258244D01*
X189163623Y-102245544D01*
X189182225Y-102237729D01*
X189241294Y-102219939D01*
X189301402Y-102231039D01*
X189384305Y-102277796D01*
X189445128Y-102319490D01*
X189589382Y-102422807D01*
X189700442Y-102507426D01*
X189805773Y-102594484D01*
X189833842Y-102618598D01*
X189903894Y-102675563D01*
X190008508Y-102756686D01*
X190112000Y-102834665D01*
X190307867Y-102983138D01*
X190542058Y-103166374D01*
X190774215Y-103351683D01*
X190820880Y-103424291D01*
X190837715Y-103512423D01*
X190850881Y-103614449D01*
X190878003Y-103686640D01*
X190885047Y-103714883D01*
X190875448Y-103759291D01*
X190845234Y-103826829D01*
X190790434Y-103924463D01*
X190707075Y-104059159D01*
X190591185Y-104237882D01*
X190438792Y-104467600D01*
X190397217Y-104529790D01*
X190255548Y-104740422D01*
X190126426Y-104930372D01*
X190015498Y-105091497D01*
X189928408Y-105215658D01*
X189870801Y-105294712D01*
X189848929Y-105320524D01*
X189824032Y-105362297D01*
X189821715Y-105384024D01*
X189806169Y-105430743D01*
X189794500Y-105435970D01*
X189763947Y-105465230D01*
X189709555Y-105541574D01*
X189642879Y-105648730D01*
X189640286Y-105653143D01*
X189573374Y-105761140D01*
X189518311Y-105838936D01*
X189486653Y-105870261D01*
X189486072Y-105870316D01*
X189461502Y-105900169D01*
X189458858Y-105922262D01*
X189442601Y-105976516D01*
X189431643Y-105985762D01*
X189399420Y-106020218D01*
X189340960Y-106099017D01*
X189268846Y-106205187D01*
X189267987Y-106206501D01*
X189184930Y-106324036D01*
X189120168Y-106388935D01*
X189059937Y-106413668D01*
X189037728Y-106415143D01*
X188938323Y-106433875D01*
X188841419Y-106475688D01*
X188753851Y-106564616D01*
X188710839Y-106685914D01*
X188715343Y-106814259D01*
X188770328Y-106924329D01*
X188786945Y-106941286D01*
X188875430Y-107005816D01*
X188968502Y-107049666D01*
X189047010Y-107066951D01*
X189091803Y-107051790D01*
X189096001Y-107036233D01*
X189126093Y-107001994D01*
X189165463Y-106986014D01*
X189251657Y-106929181D01*
X189305315Y-106824451D01*
X189318801Y-106692096D01*
X189305905Y-106613262D01*
X189289210Y-106537133D01*
X189291057Y-106474715D01*
X189317955Y-106405579D01*
X189376412Y-106309300D01*
X189426841Y-106233715D01*
X189505291Y-106120739D01*
X189569924Y-106033836D01*
X189609039Y-105988587D01*
X189613072Y-105985762D01*
X189637969Y-105943990D01*
X189640286Y-105922262D01*
X189655832Y-105875544D01*
X189667501Y-105870316D01*
X189698054Y-105841056D01*
X189752446Y-105764713D01*
X189819122Y-105657557D01*
X189821715Y-105653143D01*
X189888627Y-105545147D01*
X189943690Y-105467350D01*
X189975348Y-105436026D01*
X189975929Y-105435970D01*
X190000499Y-105406117D01*
X190003143Y-105384024D01*
X190019400Y-105329771D01*
X190030358Y-105320524D01*
X190057585Y-105287978D01*
X190118437Y-105203737D01*
X190206708Y-105076769D01*
X190316192Y-104916043D01*
X190440683Y-104730527D01*
X190490707Y-104655286D01*
X190652867Y-104411445D01*
X190780865Y-104221602D01*
X190880268Y-104079024D01*
X190956640Y-103976980D01*
X191015550Y-103908736D01*
X191062562Y-103867560D01*
X191103245Y-103846719D01*
X191143163Y-103839481D01*
X191165718Y-103838858D01*
X191300588Y-103806437D01*
X191400866Y-103719337D01*
X191451385Y-103592802D01*
X191454572Y-103548530D01*
X191424258Y-103401366D01*
X191339819Y-103296142D01*
X191211005Y-103240357D01*
X191053851Y-103240410D01*
X190994980Y-103247236D01*
X190939648Y-103242143D01*
X190877489Y-103219256D01*
X190798138Y-103172703D01*
X190691227Y-103096612D01*
X190546393Y-102985108D01*
X190402286Y-102871250D01*
X190316583Y-102803956D01*
X190190098Y-102705523D01*
X190039650Y-102588955D01*
X189882057Y-102467258D01*
X189734139Y-102353436D01*
X189612713Y-102260495D01*
X189594914Y-102246945D01*
X189484959Y-102159597D01*
X189422112Y-102095024D01*
X189393519Y-102035124D01*
X189386324Y-101961792D01*
X189386286Y-101953140D01*
X189355618Y-101803724D01*
X189267778Y-101696573D01*
X189129015Y-101639074D01*
X189119128Y-101637352D01*
X189026121Y-101632165D01*
X188953389Y-101662098D01*
G36*
X183363302Y-107345331D02*
X183333500Y-107386534D01*
X183335633Y-107403948D01*
X183380560Y-107450574D01*
X183446724Y-107458719D01*
X183490570Y-107429991D01*
X183492177Y-107371228D01*
X183478249Y-107350592D01*
X183422242Y-107329351D01*
X183363302Y-107345331D01*
X183363302Y-107345331D01*
G37*
X183363302Y-107345331D02*
X183333500Y-107386534D01*
X183335633Y-107403948D01*
X183380560Y-107450574D01*
X183446724Y-107458719D01*
X183490570Y-107429991D01*
X183492177Y-107371228D01*
X183478249Y-107350592D01*
X183422242Y-107329351D01*
X183363302Y-107345331D01*
G36*
X178615634Y-107599700D02*
X178609429Y-107619829D01*
X178598719Y-107645074D01*
X178565886Y-107619829D01*
X178494281Y-107579114D01*
X178427914Y-107585350D01*
X178392733Y-107634381D01*
X178391715Y-107647719D01*
X178410005Y-107699897D01*
X178441465Y-107700061D01*
X178513317Y-107704287D01*
X178568738Y-107770420D01*
X178602140Y-107888607D01*
X178609429Y-107996164D01*
X178614433Y-108115635D01*
X178631963Y-108176730D01*
X178663858Y-108193143D01*
X178691069Y-108179976D01*
X178707723Y-108132043D01*
X178716052Y-108036703D01*
X178718286Y-107884715D01*
X178715962Y-107730517D01*
X178707504Y-107636142D01*
X178690679Y-107588948D01*
X178663858Y-107576286D01*
X178615634Y-107599700D01*
X178615634Y-107599700D01*
G37*
X178615634Y-107599700D02*
X178609429Y-107619829D01*
X178598719Y-107645074D01*
X178565886Y-107619829D01*
X178494281Y-107579114D01*
X178427914Y-107585350D01*
X178392733Y-107634381D01*
X178391715Y-107647719D01*
X178410005Y-107699897D01*
X178441465Y-107700061D01*
X178513317Y-107704287D01*
X178568738Y-107770420D01*
X178602140Y-107888607D01*
X178609429Y-107996164D01*
X178614433Y-108115635D01*
X178631963Y-108176730D01*
X178663858Y-108193143D01*
X178691069Y-108179976D01*
X178707723Y-108132043D01*
X178716052Y-108036703D01*
X178718286Y-107884715D01*
X178715962Y-107730517D01*
X178707504Y-107636142D01*
X178690679Y-107588948D01*
X178663858Y-107576286D01*
X178615634Y-107599700D01*
G36*
X179038819Y-107606792D02*
X178937208Y-107686627D01*
X178874336Y-107798266D01*
X178857515Y-107924184D01*
X178894056Y-108046855D01*
X178947411Y-108114247D01*
X179062750Y-108179195D01*
X179199279Y-108194881D01*
X179329151Y-108161617D01*
X179401390Y-108109162D01*
X179471558Y-107989227D01*
X179481783Y-107867005D01*
X179357112Y-107867005D01*
X179349704Y-107964398D01*
X179297581Y-108046474D01*
X179254289Y-108074716D01*
X179150301Y-108087137D01*
X179050447Y-108033382D01*
X178992430Y-107962947D01*
X178978207Y-107880907D01*
X179014402Y-107792061D01*
X179085852Y-107720683D01*
X179161659Y-107692024D01*
X179258028Y-107709909D01*
X179324866Y-107775206D01*
X179357112Y-107867005D01*
X179481783Y-107867005D01*
X179482452Y-107859012D01*
X179441653Y-107736117D01*
X179356742Y-107638140D01*
X179235298Y-107582683D01*
X179171858Y-107576286D01*
X179038819Y-107606792D01*
X179038819Y-107606792D01*
G37*
X179038819Y-107606792D02*
X178937208Y-107686627D01*
X178874336Y-107798266D01*
X178857515Y-107924184D01*
X178894056Y-108046855D01*
X178947411Y-108114247D01*
X179062750Y-108179195D01*
X179199279Y-108194881D01*
X179329151Y-108161617D01*
X179401390Y-108109162D01*
X179471558Y-107989227D01*
X179481783Y-107867005D01*
X179357112Y-107867005D01*
X179349704Y-107964398D01*
X179297581Y-108046474D01*
X179254289Y-108074716D01*
X179150301Y-108087137D01*
X179050447Y-108033382D01*
X178992430Y-107962947D01*
X178978207Y-107880907D01*
X179014402Y-107792061D01*
X179085852Y-107720683D01*
X179161659Y-107692024D01*
X179258028Y-107709909D01*
X179324866Y-107775206D01*
X179357112Y-107867005D01*
X179481783Y-107867005D01*
X179482452Y-107859012D01*
X179441653Y-107736117D01*
X179356742Y-107638140D01*
X179235298Y-107582683D01*
X179171858Y-107576286D01*
X179038819Y-107606792D01*
G36*
X179708653Y-107426401D02*
X179698001Y-107485572D01*
X179680992Y-107556707D01*
X179625429Y-107576286D01*
X179566327Y-107598975D01*
X179552858Y-107630715D01*
X179583109Y-107675041D01*
X179625429Y-107685143D01*
X179672607Y-107697093D01*
X179693667Y-107745582D01*
X179698001Y-107832672D01*
X179687067Y-107954526D01*
X179658807Y-108049594D01*
X179620029Y-108101348D01*
X179587323Y-108101304D01*
X179557773Y-108110585D01*
X179552858Y-108136573D01*
X179581767Y-108178374D01*
X179648743Y-108194122D01*
X179724160Y-108183923D01*
X179778392Y-108147883D01*
X179784833Y-108135747D01*
X179797329Y-108068237D01*
X179805310Y-107957982D01*
X179806858Y-107881747D01*
X179811879Y-107762404D01*
X179829466Y-107701436D01*
X179861286Y-107685143D01*
X179909565Y-107664947D01*
X179915715Y-107647719D01*
X179886718Y-107603532D01*
X179861286Y-107589408D01*
X179818992Y-107540845D01*
X179806858Y-107481690D01*
X179787222Y-107411646D01*
X179752429Y-107394858D01*
X179708653Y-107426401D01*
X179708653Y-107426401D01*
G37*
X179708653Y-107426401D02*
X179698001Y-107485572D01*
X179680992Y-107556707D01*
X179625429Y-107576286D01*
X179566327Y-107598975D01*
X179552858Y-107630715D01*
X179583109Y-107675041D01*
X179625429Y-107685143D01*
X179672607Y-107697093D01*
X179693667Y-107745582D01*
X179698001Y-107832672D01*
X179687067Y-107954526D01*
X179658807Y-108049594D01*
X179620029Y-108101348D01*
X179587323Y-108101304D01*
X179557773Y-108110585D01*
X179552858Y-108136573D01*
X179581767Y-108178374D01*
X179648743Y-108194122D01*
X179724160Y-108183923D01*
X179778392Y-108147883D01*
X179784833Y-108135747D01*
X179797329Y-108068237D01*
X179805310Y-107957982D01*
X179806858Y-107881747D01*
X179811879Y-107762404D01*
X179829466Y-107701436D01*
X179861286Y-107685143D01*
X179909565Y-107664947D01*
X179915715Y-107647719D01*
X179886718Y-107603532D01*
X179861286Y-107589408D01*
X179818992Y-107540845D01*
X179806858Y-107481690D01*
X179787222Y-107411646D01*
X179752429Y-107394858D01*
X179708653Y-107426401D01*
G36*
X180147085Y-107597902D02*
X180064027Y-107645775D01*
X180060858Y-107648858D01*
X180017923Y-107709387D01*
X179995501Y-107795610D01*
X179988364Y-107929276D01*
X179988286Y-107950791D01*
X179988286Y-108180153D01*
X180199420Y-108185972D01*
X180328505Y-108182069D01*
X180422548Y-108164920D01*
X180453420Y-108148924D01*
X180485338Y-108082743D01*
X180496286Y-108003560D01*
X180495069Y-107999968D01*
X180380022Y-107999968D01*
X180366705Y-108046505D01*
X180354402Y-108062217D01*
X180294280Y-108112804D01*
X180225408Y-108109756D01*
X180167329Y-108083010D01*
X180110423Y-108022864D01*
X180097143Y-107974152D01*
X180125154Y-107919391D01*
X180194854Y-107902211D01*
X180284745Y-107924500D01*
X180333767Y-107953360D01*
X180380022Y-107999968D01*
X180495069Y-107999968D01*
X180464604Y-107910085D01*
X180370967Y-107851945D01*
X180217494Y-107830393D01*
X180203638Y-107830286D01*
X180119032Y-107817315D01*
X180102120Y-107779735D01*
X180151879Y-107721174D01*
X180233411Y-107692803D01*
X180333308Y-107696307D01*
X180424063Y-107702313D01*
X180458758Y-107678903D01*
X180460001Y-107668601D01*
X180429288Y-107613805D01*
X180352025Y-107583021D01*
X180250521Y-107577352D01*
X180147085Y-107597902D01*
X180147085Y-107597902D01*
G37*
X180147085Y-107597902D02*
X180064027Y-107645775D01*
X180060858Y-107648858D01*
X180017923Y-107709387D01*
X179995501Y-107795610D01*
X179988364Y-107929276D01*
X179988286Y-107950791D01*
X179988286Y-108180153D01*
X180199420Y-108185972D01*
X180328505Y-108182069D01*
X180422548Y-108164920D01*
X180453420Y-108148924D01*
X180485338Y-108082743D01*
X180496286Y-108003560D01*
X180495069Y-107999968D01*
X180380022Y-107999968D01*
X180366705Y-108046505D01*
X180354402Y-108062217D01*
X180294280Y-108112804D01*
X180225408Y-108109756D01*
X180167329Y-108083010D01*
X180110423Y-108022864D01*
X180097143Y-107974152D01*
X180125154Y-107919391D01*
X180194854Y-107902211D01*
X180284745Y-107924500D01*
X180333767Y-107953360D01*
X180380022Y-107999968D01*
X180495069Y-107999968D01*
X180464604Y-107910085D01*
X180370967Y-107851945D01*
X180217494Y-107830393D01*
X180203638Y-107830286D01*
X180119032Y-107817315D01*
X180102120Y-107779735D01*
X180151879Y-107721174D01*
X180233411Y-107692803D01*
X180333308Y-107696307D01*
X180424063Y-107702313D01*
X180458758Y-107678903D01*
X180460001Y-107668601D01*
X180429288Y-107613805D01*
X180352025Y-107583021D01*
X180250521Y-107577352D01*
X180147085Y-107597902D01*
G36*
X181103732Y-107333199D02*
X181082350Y-107378318D01*
X181076866Y-107476218D01*
X181076858Y-107482420D01*
X181076858Y-107642554D01*
X180974400Y-107603880D01*
X180831383Y-107581503D01*
X180709144Y-107624119D01*
X180620416Y-107726980D01*
X180581379Y-107872261D01*
X180602143Y-108019518D01*
X180665627Y-108127262D01*
X180745225Y-108173120D01*
X180856099Y-108192510D01*
X180964966Y-108183410D01*
X181033315Y-108149601D01*
X181069270Y-108124356D01*
X181076858Y-108149601D01*
X181107175Y-108184947D01*
X181149429Y-108193143D01*
X181180064Y-108188871D01*
X181200608Y-108168038D01*
X181213066Y-108118616D01*
X181219443Y-108028581D01*
X181221544Y-107898192D01*
X181076858Y-107898192D01*
X181051671Y-108011297D01*
X180975929Y-108072353D01*
X180895429Y-108084286D01*
X180806940Y-108068445D01*
X180757543Y-108040743D01*
X180720071Y-107959483D01*
X180720194Y-107853672D01*
X180756266Y-107759803D01*
X180771021Y-107742164D01*
X180862636Y-107690893D01*
X180956070Y-107699797D01*
X181032751Y-107759402D01*
X181074111Y-107860235D01*
X181076858Y-107898192D01*
X181221544Y-107898192D01*
X181221743Y-107885905D01*
X181222001Y-107757715D01*
X181221288Y-107573908D01*
X181217816Y-107450643D01*
X181209579Y-107375893D01*
X181194573Y-107337632D01*
X181170794Y-107323834D01*
X181149429Y-107322286D01*
X181103732Y-107333199D01*
X181103732Y-107333199D01*
G37*
X181103732Y-107333199D02*
X181082350Y-107378318D01*
X181076866Y-107476218D01*
X181076858Y-107482420D01*
X181076858Y-107642554D01*
X180974400Y-107603880D01*
X180831383Y-107581503D01*
X180709144Y-107624119D01*
X180620416Y-107726980D01*
X180581379Y-107872261D01*
X180602143Y-108019518D01*
X180665627Y-108127262D01*
X180745225Y-108173120D01*
X180856099Y-108192510D01*
X180964966Y-108183410D01*
X181033315Y-108149601D01*
X181069270Y-108124356D01*
X181076858Y-108149601D01*
X181107175Y-108184947D01*
X181149429Y-108193143D01*
X181180064Y-108188871D01*
X181200608Y-108168038D01*
X181213066Y-108118616D01*
X181219443Y-108028581D01*
X181221544Y-107898192D01*
X181076858Y-107898192D01*
X181051671Y-108011297D01*
X180975929Y-108072353D01*
X180895429Y-108084286D01*
X180806940Y-108068445D01*
X180757543Y-108040743D01*
X180720071Y-107959483D01*
X180720194Y-107853672D01*
X180756266Y-107759803D01*
X180771021Y-107742164D01*
X180862636Y-107690893D01*
X180956070Y-107699797D01*
X181032751Y-107759402D01*
X181074111Y-107860235D01*
X181076858Y-107898192D01*
X181221544Y-107898192D01*
X181221743Y-107885905D01*
X181222001Y-107757715D01*
X181221288Y-107573908D01*
X181217816Y-107450643D01*
X181209579Y-107375893D01*
X181194573Y-107337632D01*
X181170794Y-107323834D01*
X181149429Y-107322286D01*
X181103732Y-107333199D01*
G36*
X181404247Y-107582091D02*
X181382667Y-107609024D01*
X181371573Y-107671358D01*
X181367564Y-107783370D01*
X181367143Y-107880814D01*
X181367143Y-108185343D01*
X181584571Y-108188403D01*
X181710584Y-108186546D01*
X181786350Y-108172034D01*
X181833949Y-108138151D01*
X181858628Y-108105038D01*
X181892836Y-108016328D01*
X181908225Y-107899233D01*
X181906010Y-107775747D01*
X181887407Y-107667864D01*
X181853630Y-107597578D01*
X181829786Y-107583050D01*
X181795395Y-107585419D01*
X181776125Y-107618815D01*
X181767823Y-107697925D01*
X181766286Y-107807680D01*
X181754422Y-107972433D01*
X181717925Y-108070394D01*
X181655442Y-108103509D01*
X181576723Y-108079933D01*
X181540071Y-108045085D01*
X181520118Y-107978592D01*
X181512696Y-107863049D01*
X181512286Y-107810867D01*
X181510000Y-107683643D01*
X181499827Y-107612859D01*
X181476794Y-107582439D01*
X181439715Y-107576286D01*
X181404247Y-107582091D01*
X181404247Y-107582091D01*
G37*
X181404247Y-107582091D02*
X181382667Y-107609024D01*
X181371573Y-107671358D01*
X181367564Y-107783370D01*
X181367143Y-107880814D01*
X181367143Y-108185343D01*
X181584571Y-108188403D01*
X181710584Y-108186546D01*
X181786350Y-108172034D01*
X181833949Y-108138151D01*
X181858628Y-108105038D01*
X181892836Y-108016328D01*
X181908225Y-107899233D01*
X181906010Y-107775747D01*
X181887407Y-107667864D01*
X181853630Y-107597578D01*
X181829786Y-107583050D01*
X181795395Y-107585419D01*
X181776125Y-107618815D01*
X181767823Y-107697925D01*
X181766286Y-107807680D01*
X181754422Y-107972433D01*
X181717925Y-108070394D01*
X181655442Y-108103509D01*
X181576723Y-108079933D01*
X181540071Y-108045085D01*
X181520118Y-107978592D01*
X181512696Y-107863049D01*
X181512286Y-107810867D01*
X181510000Y-107683643D01*
X181499827Y-107612859D01*
X181476794Y-107582439D01*
X181439715Y-107576286D01*
X181404247Y-107582091D01*
G36*
X182117208Y-107590997D02*
X182034139Y-107629534D01*
X182003284Y-107683500D01*
X182007122Y-107703175D01*
X182041484Y-107737185D01*
X182094099Y-107720765D01*
X182215228Y-107686746D01*
X182317429Y-107720771D01*
X182369311Y-107777344D01*
X182405153Y-107883552D01*
X182384581Y-107981899D01*
X182321417Y-108056316D01*
X182229481Y-108090730D01*
X182122593Y-108069071D01*
X182119707Y-108067599D01*
X182048549Y-108038328D01*
X182014653Y-108050884D01*
X182007528Y-108065196D01*
X182012930Y-108130604D01*
X182081359Y-108174655D01*
X182205269Y-108192899D01*
X182224481Y-108193143D01*
X182338672Y-108182006D01*
X182415105Y-108139500D01*
X182453081Y-108097536D01*
X182515897Y-107970365D01*
X182522309Y-107837732D01*
X182479419Y-107716793D01*
X182394332Y-107624703D01*
X182274149Y-107578617D01*
X182237264Y-107576286D01*
X182117208Y-107590997D01*
X182117208Y-107590997D01*
G37*
X182117208Y-107590997D02*
X182034139Y-107629534D01*
X182003284Y-107683500D01*
X182007122Y-107703175D01*
X182041484Y-107737185D01*
X182094099Y-107720765D01*
X182215228Y-107686746D01*
X182317429Y-107720771D01*
X182369311Y-107777344D01*
X182405153Y-107883552D01*
X182384581Y-107981899D01*
X182321417Y-108056316D01*
X182229481Y-108090730D01*
X182122593Y-108069071D01*
X182119707Y-108067599D01*
X182048549Y-108038328D01*
X182014653Y-108050884D01*
X182007528Y-108065196D01*
X182012930Y-108130604D01*
X182081359Y-108174655D01*
X182205269Y-108192899D01*
X182224481Y-108193143D01*
X182338672Y-108182006D01*
X182415105Y-108139500D01*
X182453081Y-108097536D01*
X182515897Y-107970365D01*
X182522309Y-107837732D01*
X182479419Y-107716793D01*
X182394332Y-107624703D01*
X182274149Y-107578617D01*
X182237264Y-107576286D01*
X182117208Y-107590997D01*
G36*
X183074834Y-107600862D02*
X183064876Y-107617516D01*
X183034977Y-107638477D01*
X182976615Y-107612207D01*
X182870426Y-107582238D01*
X182764078Y-107607528D01*
X182685393Y-107679445D01*
X182672146Y-107706662D01*
X182651956Y-107796125D01*
X182639309Y-107922118D01*
X182637143Y-107995934D01*
X182640370Y-108110433D01*
X182654288Y-108169769D01*
X182685256Y-108191222D01*
X182709715Y-108193143D01*
X182748915Y-108185826D01*
X182770809Y-108153207D01*
X182780299Y-108079283D01*
X182782286Y-107956147D01*
X182786431Y-107819915D01*
X182801231Y-107740367D01*
X182830238Y-107701967D01*
X182841647Y-107696373D01*
X182926376Y-107689158D01*
X182985030Y-107744669D01*
X183019337Y-107865431D01*
X183028946Y-107970130D01*
X183037904Y-108094215D01*
X183053442Y-108161881D01*
X183081472Y-108189276D01*
X183110589Y-108193143D01*
X183145068Y-108186988D01*
X183166132Y-108159092D01*
X183177030Y-108095312D01*
X183181010Y-107981504D01*
X183181429Y-107884715D01*
X183178812Y-107728571D01*
X183169651Y-107633059D01*
X183151979Y-107586387D01*
X183130024Y-107576286D01*
X183074834Y-107600862D01*
X183074834Y-107600862D01*
G37*
X183074834Y-107600862D02*
X183064876Y-107617516D01*
X183034977Y-107638477D01*
X182976615Y-107612207D01*
X182870426Y-107582238D01*
X182764078Y-107607528D01*
X182685393Y-107679445D01*
X182672146Y-107706662D01*
X182651956Y-107796125D01*
X182639309Y-107922118D01*
X182637143Y-107995934D01*
X182640370Y-108110433D01*
X182654288Y-108169769D01*
X182685256Y-108191222D01*
X182709715Y-108193143D01*
X182748915Y-108185826D01*
X182770809Y-108153207D01*
X182780299Y-108079283D01*
X182782286Y-107956147D01*
X182786431Y-107819915D01*
X182801231Y-107740367D01*
X182830238Y-107701967D01*
X182841647Y-107696373D01*
X182926376Y-107689158D01*
X182985030Y-107744669D01*
X183019337Y-107865431D01*
X183028946Y-107970130D01*
X183037904Y-108094215D01*
X183053442Y-108161881D01*
X183081472Y-108189276D01*
X183110589Y-108193143D01*
X183145068Y-108186988D01*
X183166132Y-108159092D01*
X183177030Y-108095312D01*
X183181010Y-107981504D01*
X183181429Y-107884715D01*
X183178812Y-107728571D01*
X183169651Y-107633059D01*
X183151979Y-107586387D01*
X183130024Y-107576286D01*
X183074834Y-107600862D01*
G36*
X183390075Y-107589454D02*
X183373420Y-107637386D01*
X183365092Y-107732726D01*
X183362858Y-107884715D01*
X183365181Y-108038913D01*
X183373640Y-108133287D01*
X183390465Y-108180482D01*
X183417286Y-108193143D01*
X183444498Y-108179976D01*
X183461152Y-108132043D01*
X183469480Y-108036703D01*
X183471715Y-107884715D01*
X183469391Y-107730517D01*
X183460932Y-107636142D01*
X183444108Y-107588948D01*
X183417286Y-107576286D01*
X183390075Y-107589454D01*
X183390075Y-107589454D01*
G37*
X183390075Y-107589454D02*
X183373420Y-107637386D01*
X183365092Y-107732726D01*
X183362858Y-107884715D01*
X183365181Y-108038913D01*
X183373640Y-108133287D01*
X183390465Y-108180482D01*
X183417286Y-108193143D01*
X183444498Y-108179976D01*
X183461152Y-108132043D01*
X183469480Y-108036703D01*
X183471715Y-107884715D01*
X183469391Y-107730517D01*
X183460932Y-107636142D01*
X183444108Y-107588948D01*
X183417286Y-107576286D01*
X183390075Y-107589454D01*
G36*
X184308548Y-107600862D02*
X184298591Y-107617516D01*
X184267831Y-107637639D01*
X184206618Y-107609890D01*
X184102928Y-107581763D01*
X183998737Y-107608472D01*
X183921396Y-107679930D01*
X183903248Y-107721755D01*
X183887815Y-107811109D01*
X183877006Y-107936085D01*
X183874475Y-108002643D01*
X183875657Y-108114551D01*
X183888956Y-108171687D01*
X183920732Y-108191625D01*
X183943429Y-108193143D01*
X183985614Y-108184349D01*
X184007446Y-108146431D01*
X184015310Y-108062091D01*
X184016001Y-107996540D01*
X184021965Y-107838313D01*
X184042298Y-107741068D01*
X184080655Y-107694010D01*
X184121483Y-107685143D01*
X184199726Y-107707552D01*
X184247301Y-107780122D01*
X184268208Y-107910866D01*
X184270001Y-107982686D01*
X184272833Y-108101806D01*
X184285200Y-108165282D01*
X184312905Y-108189948D01*
X184342572Y-108193143D01*
X184377858Y-108187404D01*
X184399412Y-108160725D01*
X184410572Y-108098916D01*
X184414677Y-107987788D01*
X184415143Y-107884715D01*
X184412526Y-107728571D01*
X184403365Y-107633059D01*
X184385694Y-107586387D01*
X184363739Y-107576286D01*
X184308548Y-107600862D01*
X184308548Y-107600862D01*
G37*
X184308548Y-107600862D02*
X184298591Y-107617516D01*
X184267831Y-107637639D01*
X184206618Y-107609890D01*
X184102928Y-107581763D01*
X183998737Y-107608472D01*
X183921396Y-107679930D01*
X183903248Y-107721755D01*
X183887815Y-107811109D01*
X183877006Y-107936085D01*
X183874475Y-108002643D01*
X183875657Y-108114551D01*
X183888956Y-108171687D01*
X183920732Y-108191625D01*
X183943429Y-108193143D01*
X183985614Y-108184349D01*
X184007446Y-108146431D01*
X184015310Y-108062091D01*
X184016001Y-107996540D01*
X184021965Y-107838313D01*
X184042298Y-107741068D01*
X184080655Y-107694010D01*
X184121483Y-107685143D01*
X184199726Y-107707552D01*
X184247301Y-107780122D01*
X184268208Y-107910866D01*
X184270001Y-107982686D01*
X184272833Y-108101806D01*
X184285200Y-108165282D01*
X184312905Y-108189948D01*
X184342572Y-108193143D01*
X184377858Y-108187404D01*
X184399412Y-108160725D01*
X184410572Y-108098916D01*
X184414677Y-107987788D01*
X184415143Y-107884715D01*
X184412526Y-107728571D01*
X184403365Y-107633059D01*
X184385694Y-107586387D01*
X184363739Y-107576286D01*
X184308548Y-107600862D01*
G36*
X184696431Y-107606793D02*
X184596815Y-107684109D01*
X184534345Y-107786923D01*
X184524001Y-107846780D01*
X184527939Y-107896420D01*
X184550693Y-107924068D01*
X184608668Y-107936148D01*
X184718268Y-107939085D01*
X184759858Y-107939143D01*
X184903239Y-107945323D01*
X184977286Y-107965258D01*
X184984291Y-108001047D01*
X184926549Y-108054785D01*
X184903514Y-108070454D01*
X184820337Y-108109619D01*
X184742530Y-108098780D01*
X184719366Y-108088972D01*
X184633510Y-108064288D01*
X184583765Y-108076610D01*
X184584046Y-108119803D01*
X184599253Y-108141945D01*
X184666298Y-108176291D01*
X184784571Y-108192481D01*
X184817893Y-108193143D01*
X184931948Y-108186939D01*
X185000912Y-108161145D01*
X185051727Y-108104990D01*
X185056564Y-108097722D01*
X185100850Y-107992566D01*
X185119086Y-107875306D01*
X185100013Y-107801258D01*
X184995715Y-107801258D01*
X184963270Y-107818573D01*
X184881184Y-107828957D01*
X184832429Y-107830286D01*
X184735031Y-107824518D01*
X184676622Y-107809925D01*
X184669143Y-107801258D01*
X184700269Y-107741019D01*
X184773530Y-107696051D01*
X184832429Y-107685143D01*
X184917140Y-107707277D01*
X184980376Y-107759374D01*
X184995715Y-107801258D01*
X185100013Y-107801258D01*
X185086072Y-107747140D01*
X184999401Y-107644167D01*
X184877629Y-107584373D01*
X184810613Y-107576286D01*
X184696431Y-107606793D01*
X184696431Y-107606793D01*
G37*
X184696431Y-107606793D02*
X184596815Y-107684109D01*
X184534345Y-107786923D01*
X184524001Y-107846780D01*
X184527939Y-107896420D01*
X184550693Y-107924068D01*
X184608668Y-107936148D01*
X184718268Y-107939085D01*
X184759858Y-107939143D01*
X184903239Y-107945323D01*
X184977286Y-107965258D01*
X184984291Y-108001047D01*
X184926549Y-108054785D01*
X184903514Y-108070454D01*
X184820337Y-108109619D01*
X184742530Y-108098780D01*
X184719366Y-108088972D01*
X184633510Y-108064288D01*
X184583765Y-108076610D01*
X184584046Y-108119803D01*
X184599253Y-108141945D01*
X184666298Y-108176291D01*
X184784571Y-108192481D01*
X184817893Y-108193143D01*
X184931948Y-108186939D01*
X185000912Y-108161145D01*
X185051727Y-108104990D01*
X185056564Y-108097722D01*
X185100850Y-107992566D01*
X185119086Y-107875306D01*
X185100013Y-107801258D01*
X184995715Y-107801258D01*
X184963270Y-107818573D01*
X184881184Y-107828957D01*
X184832429Y-107830286D01*
X184735031Y-107824518D01*
X184676622Y-107809925D01*
X184669143Y-107801258D01*
X184700269Y-107741019D01*
X184773530Y-107696051D01*
X184832429Y-107685143D01*
X184917140Y-107707277D01*
X184980376Y-107759374D01*
X184995715Y-107801258D01*
X185100013Y-107801258D01*
X185086072Y-107747140D01*
X184999401Y-107644167D01*
X184877629Y-107584373D01*
X184810613Y-107576286D01*
X184696431Y-107606793D01*
G36*
X186150819Y-107606792D02*
X186049208Y-107686627D01*
X185986336Y-107798266D01*
X185969515Y-107924184D01*
X186006056Y-108046855D01*
X186059411Y-108114247D01*
X186174750Y-108179195D01*
X186311279Y-108194881D01*
X186441151Y-108161617D01*
X186513390Y-108109162D01*
X186583558Y-107989227D01*
X186593084Y-107875363D01*
X186477928Y-107875363D01*
X186460092Y-107968872D01*
X186390242Y-108043462D01*
X186312327Y-108091489D01*
X186244178Y-108090423D01*
X186207944Y-108076161D01*
X186132292Y-108014937D01*
X186097559Y-107950801D01*
X186098243Y-107842693D01*
X186146687Y-107757107D01*
X186225107Y-107704031D01*
X186315719Y-107693456D01*
X186400738Y-107735369D01*
X186426943Y-107765789D01*
X186477928Y-107875363D01*
X186593084Y-107875363D01*
X186594452Y-107859012D01*
X186553653Y-107736117D01*
X186468742Y-107638140D01*
X186347298Y-107582683D01*
X186283858Y-107576286D01*
X186150819Y-107606792D01*
X186150819Y-107606792D01*
G37*
X186150819Y-107606792D02*
X186049208Y-107686627D01*
X185986336Y-107798266D01*
X185969515Y-107924184D01*
X186006056Y-108046855D01*
X186059411Y-108114247D01*
X186174750Y-108179195D01*
X186311279Y-108194881D01*
X186441151Y-108161617D01*
X186513390Y-108109162D01*
X186583558Y-107989227D01*
X186593084Y-107875363D01*
X186477928Y-107875363D01*
X186460092Y-107968872D01*
X186390242Y-108043462D01*
X186312327Y-108091489D01*
X186244178Y-108090423D01*
X186207944Y-108076161D01*
X186132292Y-108014937D01*
X186097559Y-107950801D01*
X186098243Y-107842693D01*
X186146687Y-107757107D01*
X186225107Y-107704031D01*
X186315719Y-107693456D01*
X186400738Y-107735369D01*
X186426943Y-107765789D01*
X186477928Y-107875363D01*
X186593084Y-107875363D01*
X186594452Y-107859012D01*
X186553653Y-107736117D01*
X186468742Y-107638140D01*
X186347298Y-107582683D01*
X186283858Y-107576286D01*
X186150819Y-107606792D01*
G36*
X185721779Y-107603541D02*
X185710846Y-107621643D01*
X185686616Y-107648804D01*
X185646136Y-107621643D01*
X185553790Y-107579601D01*
X185439166Y-107587480D01*
X185329192Y-107641856D01*
X185302494Y-107665351D01*
X185230019Y-107782177D01*
X185211085Y-107917557D01*
X185245977Y-108046294D01*
X185297411Y-108114247D01*
X185392895Y-108169358D01*
X185510299Y-108192891D01*
X185619475Y-108182045D01*
X185677886Y-108149601D01*
X185704589Y-108138237D01*
X185717963Y-108179790D01*
X185721429Y-108276601D01*
X185727980Y-108386838D01*
X185750432Y-108438611D01*
X185775858Y-108447143D01*
X185799324Y-108436226D01*
X185815111Y-108396073D01*
X185824607Y-108315581D01*
X185829199Y-108183649D01*
X185830286Y-108011715D01*
X185829264Y-107886750D01*
X185707293Y-107886750D01*
X185691142Y-107984518D01*
X185628183Y-108060669D01*
X185604289Y-108073868D01*
X185496992Y-108089345D01*
X185404748Y-108037205D01*
X185351627Y-107956534D01*
X185339353Y-107854648D01*
X185380978Y-107760056D01*
X185461107Y-107697303D01*
X185521858Y-107685143D01*
X185617957Y-107714924D01*
X185681334Y-107789506D01*
X185707293Y-107886750D01*
X185829264Y-107886750D01*
X185828735Y-107822085D01*
X185823247Y-107694400D01*
X185812576Y-107618081D01*
X185795471Y-107582552D01*
X185778881Y-107576286D01*
X185721779Y-107603541D01*
X185721779Y-107603541D01*
G37*
X185721779Y-107603541D02*
X185710846Y-107621643D01*
X185686616Y-107648804D01*
X185646136Y-107621643D01*
X185553790Y-107579601D01*
X185439166Y-107587480D01*
X185329192Y-107641856D01*
X185302494Y-107665351D01*
X185230019Y-107782177D01*
X185211085Y-107917557D01*
X185245977Y-108046294D01*
X185297411Y-108114247D01*
X185392895Y-108169358D01*
X185510299Y-108192891D01*
X185619475Y-108182045D01*
X185677886Y-108149601D01*
X185704589Y-108138237D01*
X185717963Y-108179790D01*
X185721429Y-108276601D01*
X185727980Y-108386838D01*
X185750432Y-108438611D01*
X185775858Y-108447143D01*
X185799324Y-108436226D01*
X185815111Y-108396073D01*
X185824607Y-108315581D01*
X185829199Y-108183649D01*
X185830286Y-108011715D01*
X185829264Y-107886750D01*
X185707293Y-107886750D01*
X185691142Y-107984518D01*
X185628183Y-108060669D01*
X185604289Y-108073868D01*
X185496992Y-108089345D01*
X185404748Y-108037205D01*
X185351627Y-107956534D01*
X185339353Y-107854648D01*
X185380978Y-107760056D01*
X185461107Y-107697303D01*
X185521858Y-107685143D01*
X185617957Y-107714924D01*
X185681334Y-107789506D01*
X185707293Y-107886750D01*
X185829264Y-107886750D01*
X185828735Y-107822085D01*
X185823247Y-107694400D01*
X185812576Y-107618081D01*
X185795471Y-107582552D01*
X185778881Y-107576286D01*
X185721779Y-107603541D01*
G36*
X145714729Y-86700129D02*
X145714000Y-86714500D01*
X145762816Y-86775559D01*
X145781248Y-86778000D01*
X145819173Y-86739097D01*
X145809250Y-86714500D01*
X145752189Y-86653922D01*
X145742003Y-86651000D01*
X145714729Y-86700129D01*
X145714729Y-86700129D01*
G37*
X145714729Y-86700129D02*
X145714000Y-86714500D01*
X145762816Y-86775559D01*
X145781248Y-86778000D01*
X145819173Y-86739097D01*
X145809250Y-86714500D01*
X145752189Y-86653922D01*
X145742003Y-86651000D01*
X145714729Y-86700129D01*
G36*
X148127000Y-86682750D02*
X148066423Y-86739811D01*
X148063500Y-86749997D01*
X148112630Y-86777271D01*
X148127000Y-86778000D01*
X148188060Y-86729184D01*
X148190500Y-86710752D01*
X148151598Y-86672827D01*
X148127000Y-86682750D01*
X148127000Y-86682750D01*
G37*
X148127000Y-86682750D02*
X148066423Y-86739811D01*
X148063500Y-86749997D01*
X148112630Y-86777271D01*
X148127000Y-86778000D01*
X148188060Y-86729184D01*
X148190500Y-86710752D01*
X148151598Y-86672827D01*
X148127000Y-86682750D01*
G36*
X147671275Y-79124202D02*
X147640280Y-79184888D01*
X147543697Y-79353714D01*
X147474353Y-79402344D01*
X147435638Y-79330191D01*
X147428500Y-79221500D01*
X147402973Y-79074418D01*
X147326457Y-79031000D01*
X147254738Y-79068870D01*
X147262957Y-79131443D01*
X147288254Y-79258841D01*
X147301099Y-79443808D01*
X147301500Y-79480693D01*
X147326003Y-79662656D01*
X147391855Y-79728534D01*
X147487573Y-79677730D01*
X147601672Y-79509646D01*
X147608427Y-79496646D01*
X147727888Y-79263793D01*
X147771572Y-79496646D01*
X147819434Y-79671581D01*
X147867628Y-79728094D01*
X147906374Y-79674361D01*
X147925892Y-79518558D01*
X147923794Y-79369391D01*
X147894417Y-79127230D01*
X147840329Y-79004208D01*
X147764845Y-79002480D01*
X147671275Y-79124202D01*
X147671275Y-79124202D01*
G37*
X147671275Y-79124202D02*
X147640280Y-79184888D01*
X147543697Y-79353714D01*
X147474353Y-79402344D01*
X147435638Y-79330191D01*
X147428500Y-79221500D01*
X147402973Y-79074418D01*
X147326457Y-79031000D01*
X147254738Y-79068870D01*
X147262957Y-79131443D01*
X147288254Y-79258841D01*
X147301099Y-79443808D01*
X147301500Y-79480693D01*
X147326003Y-79662656D01*
X147391855Y-79728534D01*
X147487573Y-79677730D01*
X147601672Y-79509646D01*
X147608427Y-79496646D01*
X147727888Y-79263793D01*
X147771572Y-79496646D01*
X147819434Y-79671581D01*
X147867628Y-79728094D01*
X147906374Y-79674361D01*
X147925892Y-79518558D01*
X147923794Y-79369391D01*
X147894417Y-79127230D01*
X147840329Y-79004208D01*
X147764845Y-79002480D01*
X147671275Y-79124202D01*
G36*
X148327148Y-79030259D02*
X148229029Y-79158589D01*
X148158869Y-79297278D01*
X148069943Y-79519458D01*
X148044281Y-79658520D01*
X148081300Y-79705146D01*
X148180417Y-79650016D01*
X148180930Y-79649586D01*
X148300880Y-79594118D01*
X148425667Y-79593477D01*
X148502302Y-79644249D01*
X148508000Y-79670656D01*
X148558884Y-79724173D01*
X148594916Y-79729500D01*
X148638831Y-79708995D01*
X148642232Y-79630268D01*
X148603944Y-79467499D01*
X148582655Y-79393574D01*
X148411347Y-79393574D01*
X148372303Y-79453000D01*
X148315886Y-79442752D01*
X148286078Y-79362777D01*
X148297361Y-79309392D01*
X148340629Y-79247887D01*
X148385647Y-79292518D01*
X148411347Y-79393574D01*
X148582655Y-79393574D01*
X148579041Y-79381027D01*
X148493974Y-79139848D01*
X148412736Y-79023468D01*
X148327148Y-79030259D01*
X148327148Y-79030259D01*
G37*
X148327148Y-79030259D02*
X148229029Y-79158589D01*
X148158869Y-79297278D01*
X148069943Y-79519458D01*
X148044281Y-79658520D01*
X148081300Y-79705146D01*
X148180417Y-79650016D01*
X148180930Y-79649586D01*
X148300880Y-79594118D01*
X148425667Y-79593477D01*
X148502302Y-79644249D01*
X148508000Y-79670656D01*
X148558884Y-79724173D01*
X148594916Y-79729500D01*
X148638831Y-79708995D01*
X148642232Y-79630268D01*
X148603944Y-79467499D01*
X148582655Y-79393574D01*
X148411347Y-79393574D01*
X148372303Y-79453000D01*
X148315886Y-79442752D01*
X148286078Y-79362777D01*
X148297361Y-79309392D01*
X148340629Y-79247887D01*
X148385647Y-79292518D01*
X148411347Y-79393574D01*
X148582655Y-79393574D01*
X148579041Y-79381027D01*
X148493974Y-79139848D01*
X148412736Y-79023468D01*
X148327148Y-79030259D01*
G36*
X146985145Y-79171000D02*
X146987837Y-79350022D01*
X147002701Y-79459625D01*
X147049149Y-79678592D01*
X147101098Y-79781311D01*
X147165070Y-79778528D01*
X147185532Y-79760801D01*
X147196090Y-79683389D01*
X147184995Y-79531348D01*
X147159311Y-79353762D01*
X147126098Y-79199714D01*
X147093194Y-79119026D01*
X147021369Y-79089840D01*
X146985145Y-79171000D01*
X146985145Y-79171000D01*
G37*
X146985145Y-79171000D02*
X146987837Y-79350022D01*
X147002701Y-79459625D01*
X147049149Y-79678592D01*
X147101098Y-79781311D01*
X147165070Y-79778528D01*
X147185532Y-79760801D01*
X147196090Y-79683389D01*
X147184995Y-79531348D01*
X147159311Y-79353762D01*
X147126098Y-79199714D01*
X147093194Y-79119026D01*
X147021369Y-79089840D01*
X146985145Y-79171000D01*
G36*
X146497653Y-79216217D02*
X146426154Y-79275788D01*
X146436193Y-79332893D01*
X146531988Y-79319134D01*
X146641747Y-79311593D01*
X146657692Y-79370985D01*
X146574267Y-79472928D01*
X146568186Y-79478043D01*
X146487914Y-79606766D01*
X146506523Y-79739306D01*
X146611306Y-79828724D01*
X146666500Y-79841199D01*
X146827492Y-79830592D01*
X146919970Y-79796218D01*
X146978455Y-79723817D01*
X146943012Y-79663111D01*
X146864511Y-79626191D01*
X146828670Y-79660467D01*
X146734203Y-79722062D01*
X146683434Y-79729500D01*
X146629018Y-79712949D01*
X146660684Y-79648529D01*
X146724679Y-79576414D01*
X146833512Y-79412245D01*
X146836453Y-79280900D01*
X146738002Y-79202724D01*
X146639173Y-79189750D01*
X146497653Y-79216217D01*
X146497653Y-79216217D01*
G37*
X146497653Y-79216217D02*
X146426154Y-79275788D01*
X146436193Y-79332893D01*
X146531988Y-79319134D01*
X146641747Y-79311593D01*
X146657692Y-79370985D01*
X146574267Y-79472928D01*
X146568186Y-79478043D01*
X146487914Y-79606766D01*
X146506523Y-79739306D01*
X146611306Y-79828724D01*
X146666500Y-79841199D01*
X146827492Y-79830592D01*
X146919970Y-79796218D01*
X146978455Y-79723817D01*
X146943012Y-79663111D01*
X146864511Y-79626191D01*
X146828670Y-79660467D01*
X146734203Y-79722062D01*
X146683434Y-79729500D01*
X146629018Y-79712949D01*
X146660684Y-79648529D01*
X146724679Y-79576414D01*
X146833512Y-79412245D01*
X146836453Y-79280900D01*
X146738002Y-79202724D01*
X146639173Y-79189750D01*
X146497653Y-79216217D01*
G36*
X148696235Y-79049196D02*
X148635351Y-79082346D01*
X148635000Y-79086139D01*
X148686499Y-79149311D01*
X148733128Y-79158000D01*
X148795488Y-79184446D01*
X148804449Y-79284036D01*
X148789651Y-79379771D01*
X148771092Y-79565258D01*
X148785556Y-79704112D01*
X148825542Y-79770701D01*
X148883552Y-79739393D01*
X148891444Y-79727720D01*
X148933665Y-79600145D01*
X148951528Y-79427875D01*
X148963210Y-79296888D01*
X149014371Y-79235812D01*
X149131574Y-79235329D01*
X149341384Y-79286123D01*
X149349375Y-79288338D01*
X149510174Y-79349241D01*
X149577751Y-79431492D01*
X149587500Y-79512227D01*
X149540146Y-79660384D01*
X149421017Y-79721275D01*
X149264533Y-79677322D01*
X149154598Y-79638405D01*
X149106059Y-79674399D01*
X149102977Y-79759996D01*
X149189491Y-79819880D01*
X149329874Y-79848911D01*
X149488398Y-79841949D01*
X149629336Y-79793854D01*
X149678215Y-79756714D01*
X149766569Y-79594712D01*
X149756702Y-79420341D01*
X149667644Y-79269622D01*
X149518424Y-79178579D01*
X149369691Y-79172692D01*
X149244006Y-79175590D01*
X149191475Y-79144674D01*
X149123795Y-79096468D01*
X148987400Y-79061195D01*
X148829232Y-79043791D01*
X148696235Y-79049196D01*
X148696235Y-79049196D01*
G37*
X148696235Y-79049196D02*
X148635351Y-79082346D01*
X148635000Y-79086139D01*
X148686499Y-79149311D01*
X148733128Y-79158000D01*
X148795488Y-79184446D01*
X148804449Y-79284036D01*
X148789651Y-79379771D01*
X148771092Y-79565258D01*
X148785556Y-79704112D01*
X148825542Y-79770701D01*
X148883552Y-79739393D01*
X148891444Y-79727720D01*
X148933665Y-79600145D01*
X148951528Y-79427875D01*
X148963210Y-79296888D01*
X149014371Y-79235812D01*
X149131574Y-79235329D01*
X149341384Y-79286123D01*
X149349375Y-79288338D01*
X149510174Y-79349241D01*
X149577751Y-79431492D01*
X149587500Y-79512227D01*
X149540146Y-79660384D01*
X149421017Y-79721275D01*
X149264533Y-79677322D01*
X149154598Y-79638405D01*
X149106059Y-79674399D01*
X149102977Y-79759996D01*
X149189491Y-79819880D01*
X149329874Y-79848911D01*
X149488398Y-79841949D01*
X149629336Y-79793854D01*
X149678215Y-79756714D01*
X149766569Y-79594712D01*
X149756702Y-79420341D01*
X149667644Y-79269622D01*
X149518424Y-79178579D01*
X149369691Y-79172692D01*
X149244006Y-79175590D01*
X149191475Y-79144674D01*
X149123795Y-79096468D01*
X148987400Y-79061195D01*
X148829232Y-79043791D01*
X148696235Y-79049196D01*
G36*
X145733910Y-79457386D02*
X145654740Y-79565029D01*
X145650500Y-79596706D01*
X145679698Y-79719456D01*
X145715036Y-79761890D01*
X145750558Y-79839727D01*
X145741320Y-79863669D01*
X145743771Y-79959983D01*
X145824514Y-80056769D01*
X145943186Y-80109216D01*
X145963639Y-80110500D01*
X146098596Y-80074403D01*
X146193889Y-80020441D01*
X146270280Y-79935160D01*
X146268467Y-79881800D01*
X146189906Y-79876874D01*
X146144742Y-79908358D01*
X146032210Y-79975435D01*
X145987051Y-79983500D01*
X145916747Y-79939552D01*
X145913353Y-79848943D01*
X145977793Y-79773523D01*
X145983875Y-79770815D01*
X146000009Y-79732301D01*
X145920375Y-79694617D01*
X145809524Y-79635833D01*
X145777698Y-79570062D01*
X145841000Y-79531062D01*
X145958854Y-79515711D01*
X145962709Y-79515187D01*
X146053381Y-79474683D01*
X146051792Y-79416420D01*
X146018364Y-79396438D01*
X145872831Y-79391545D01*
X145733910Y-79457386D01*
X145733910Y-79457386D01*
G37*
X145733910Y-79457386D02*
X145654740Y-79565029D01*
X145650500Y-79596706D01*
X145679698Y-79719456D01*
X145715036Y-79761890D01*
X145750558Y-79839727D01*
X145741320Y-79863669D01*
X145743771Y-79959983D01*
X145824514Y-80056769D01*
X145943186Y-80109216D01*
X145963639Y-80110500D01*
X146098596Y-80074403D01*
X146193889Y-80020441D01*
X146270280Y-79935160D01*
X146268467Y-79881800D01*
X146189906Y-79876874D01*
X146144742Y-79908358D01*
X146032210Y-79975435D01*
X145987051Y-79983500D01*
X145916747Y-79939552D01*
X145913353Y-79848943D01*
X145977793Y-79773523D01*
X145983875Y-79770815D01*
X146000009Y-79732301D01*
X145920375Y-79694617D01*
X145809524Y-79635833D01*
X145777698Y-79570062D01*
X145841000Y-79531062D01*
X145958854Y-79515711D01*
X145962709Y-79515187D01*
X146053381Y-79474683D01*
X146051792Y-79416420D01*
X146018364Y-79396438D01*
X145872831Y-79391545D01*
X145733910Y-79457386D01*
G36*
X149973761Y-79468131D02*
X149839136Y-79607464D01*
X149778449Y-79786409D01*
X149778000Y-79802520D01*
X149828055Y-79915755D01*
X149947824Y-80042026D01*
X150091718Y-80141136D01*
X150199314Y-80174000D01*
X150305181Y-80132248D01*
X150413000Y-80047000D01*
X150520511Y-79867450D01*
X150520967Y-79773797D01*
X150369576Y-79773797D01*
X150325192Y-79902331D01*
X150207719Y-79970970D01*
X150138829Y-79971478D01*
X150026573Y-79912536D01*
X150000250Y-79799920D01*
X150040195Y-79647003D01*
X150135999Y-79563395D01*
X150251620Y-79568633D01*
X150319009Y-79627146D01*
X150369576Y-79773797D01*
X150520967Y-79773797D01*
X150521414Y-79682121D01*
X150429939Y-79524318D01*
X150260312Y-79427346D01*
X150141726Y-79412000D01*
X149973761Y-79468131D01*
X149973761Y-79468131D01*
G37*
X149973761Y-79468131D02*
X149839136Y-79607464D01*
X149778449Y-79786409D01*
X149778000Y-79802520D01*
X149828055Y-79915755D01*
X149947824Y-80042026D01*
X150091718Y-80141136D01*
X150199314Y-80174000D01*
X150305181Y-80132248D01*
X150413000Y-80047000D01*
X150520511Y-79867450D01*
X150520967Y-79773797D01*
X150369576Y-79773797D01*
X150325192Y-79902331D01*
X150207719Y-79970970D01*
X150138829Y-79971478D01*
X150026573Y-79912536D01*
X150000250Y-79799920D01*
X150040195Y-79647003D01*
X150135999Y-79563395D01*
X150251620Y-79568633D01*
X150319009Y-79627146D01*
X150369576Y-79773797D01*
X150520967Y-79773797D01*
X150521414Y-79682121D01*
X150429939Y-79524318D01*
X150260312Y-79427346D01*
X150141726Y-79412000D01*
X149973761Y-79468131D01*
G36*
X141777000Y-84333250D02*
X141808750Y-84365000D01*
X141840500Y-84333250D01*
X141808750Y-84301500D01*
X141777000Y-84333250D01*
X141777000Y-84333250D01*
G37*
X141777000Y-84333250D02*
X141808750Y-84365000D01*
X141840500Y-84333250D01*
X141808750Y-84301500D01*
X141777000Y-84333250D01*
G36*
X143634598Y-88285696D02*
X143457634Y-88331633D01*
X143247854Y-88406694D01*
X143160997Y-88472991D01*
X143198181Y-88528423D01*
X143332750Y-88566254D01*
X143444534Y-88644778D01*
X143479843Y-88762917D01*
X143511235Y-88896476D01*
X143567403Y-88921282D01*
X143656057Y-88834280D01*
X143777597Y-88644930D01*
X143878169Y-88445701D01*
X143725408Y-88445701D01*
X143689565Y-88515019D01*
X143682000Y-88524250D01*
X143605912Y-88603168D01*
X143578975Y-88619500D01*
X143557650Y-88567641D01*
X143555000Y-88524250D01*
X143606417Y-88441898D01*
X143658026Y-88429000D01*
X143725408Y-88445701D01*
X143878169Y-88445701D01*
X143881310Y-88439479D01*
X143896628Y-88315607D01*
X143816680Y-88266588D01*
X143634598Y-88285696D01*
X143634598Y-88285696D01*
G37*
X143634598Y-88285696D02*
X143457634Y-88331633D01*
X143247854Y-88406694D01*
X143160997Y-88472991D01*
X143198181Y-88528423D01*
X143332750Y-88566254D01*
X143444534Y-88644778D01*
X143479843Y-88762917D01*
X143511235Y-88896476D01*
X143567403Y-88921282D01*
X143656057Y-88834280D01*
X143777597Y-88644930D01*
X143878169Y-88445701D01*
X143725408Y-88445701D01*
X143689565Y-88515019D01*
X143682000Y-88524250D01*
X143605912Y-88603168D01*
X143578975Y-88619500D01*
X143557650Y-88567641D01*
X143555000Y-88524250D01*
X143606417Y-88441898D01*
X143658026Y-88429000D01*
X143725408Y-88445701D01*
X143878169Y-88445701D01*
X143881310Y-88439479D01*
X143896628Y-88315607D01*
X143816680Y-88266588D01*
X143634598Y-88285696D01*
G36*
X144002983Y-88592531D02*
X144031689Y-88679396D01*
X144097815Y-88749043D01*
X144173099Y-88872906D01*
X144161357Y-89007403D01*
X144072734Y-89101094D01*
X144025694Y-89114689D01*
X143880400Y-89087236D01*
X143811544Y-89035314D01*
X143710004Y-88950396D01*
X143635866Y-88950066D01*
X143618500Y-89000500D01*
X143669508Y-89109915D01*
X143789924Y-89224719D01*
X143930837Y-89304154D01*
X143999500Y-89318000D01*
X144137736Y-89274902D01*
X144253500Y-89191000D01*
X144348638Y-89052764D01*
X144380500Y-88937000D01*
X144337994Y-88805701D01*
X144237648Y-88667936D01*
X144120220Y-88572614D01*
X144063000Y-88556000D01*
X144002983Y-88592531D01*
X144002983Y-88592531D01*
G37*
X144002983Y-88592531D02*
X144031689Y-88679396D01*
X144097815Y-88749043D01*
X144173099Y-88872906D01*
X144161357Y-89007403D01*
X144072734Y-89101094D01*
X144025694Y-89114689D01*
X143880400Y-89087236D01*
X143811544Y-89035314D01*
X143710004Y-88950396D01*
X143635866Y-88950066D01*
X143618500Y-89000500D01*
X143669508Y-89109915D01*
X143789924Y-89224719D01*
X143930837Y-89304154D01*
X143999500Y-89318000D01*
X144137736Y-89274902D01*
X144253500Y-89191000D01*
X144348638Y-89052764D01*
X144380500Y-88937000D01*
X144337994Y-88805701D01*
X144237648Y-88667936D01*
X144120220Y-88572614D01*
X144063000Y-88556000D01*
X144002983Y-88592531D01*
G36*
X151792738Y-88688883D02*
X151837636Y-88854537D01*
X151911196Y-89012233D01*
X152029560Y-89218748D01*
X152115883Y-89304680D01*
X152173342Y-89271464D01*
X152202658Y-89143917D01*
X152262932Y-88992399D01*
X152349750Y-88947254D01*
X152489623Y-88905501D01*
X152509598Y-88848986D01*
X152507103Y-88847157D01*
X152159542Y-88847157D01*
X152154498Y-88881189D01*
X152084772Y-88909544D01*
X152015145Y-88859758D01*
X152000500Y-88808245D01*
X152047169Y-88776461D01*
X152095386Y-88786896D01*
X152159542Y-88847157D01*
X152507103Y-88847157D01*
X152408004Y-88774537D01*
X152214673Y-88690884D01*
X151974898Y-88613790D01*
X151836373Y-88610879D01*
X151792738Y-88688883D01*
X151792738Y-88688883D01*
G37*
X151792738Y-88688883D02*
X151837636Y-88854537D01*
X151911196Y-89012233D01*
X152029560Y-89218748D01*
X152115883Y-89304680D01*
X152173342Y-89271464D01*
X152202658Y-89143917D01*
X152262932Y-88992399D01*
X152349750Y-88947254D01*
X152489623Y-88905501D01*
X152509598Y-88848986D01*
X152507103Y-88847157D01*
X152159542Y-88847157D01*
X152154498Y-88881189D01*
X152084772Y-88909544D01*
X152015145Y-88859758D01*
X152000500Y-88808245D01*
X152047169Y-88776461D01*
X152095386Y-88786896D01*
X152159542Y-88847157D01*
X152507103Y-88847157D01*
X152408004Y-88774537D01*
X152214673Y-88690884D01*
X151974898Y-88613790D01*
X151836373Y-88610879D01*
X151792738Y-88688883D01*
G36*
X144503533Y-89045663D02*
X144388142Y-89156259D01*
X144264666Y-89294941D01*
X144166366Y-89424366D01*
X144126500Y-89506961D01*
X144156978Y-89584678D01*
X144244487Y-89554811D01*
X144383144Y-89420098D01*
X144428125Y-89366670D01*
X144575812Y-89169062D01*
X144630974Y-89049537D01*
X144596127Y-89001935D01*
X144577579Y-89000500D01*
X144503533Y-89045663D01*
X144503533Y-89045663D01*
G37*
X144503533Y-89045663D02*
X144388142Y-89156259D01*
X144264666Y-89294941D01*
X144166366Y-89424366D01*
X144126500Y-89506961D01*
X144156978Y-89584678D01*
X144244487Y-89554811D01*
X144383144Y-89420098D01*
X144428125Y-89366670D01*
X144575812Y-89169062D01*
X144630974Y-89049537D01*
X144596127Y-89001935D01*
X144577579Y-89000500D01*
X144503533Y-89045663D01*
G36*
X151538263Y-88929337D02*
X151531249Y-89023280D01*
X151633700Y-89181616D01*
X151642806Y-89192545D01*
X151739750Y-89329930D01*
X151778674Y-89431637D01*
X151774928Y-89450376D01*
X151681012Y-89507676D01*
X151553207Y-89457924D01*
X151420803Y-89320493D01*
X151305457Y-89199875D01*
X151216310Y-89169613D01*
X151175581Y-89235939D01*
X151175000Y-89251532D01*
X151220090Y-89342685D01*
X151329400Y-89470054D01*
X151463997Y-89595776D01*
X151584945Y-89681987D01*
X151635136Y-89699000D01*
X151746204Y-89655308D01*
X151831909Y-89582874D01*
X151922359Y-89434400D01*
X151910622Y-89280755D01*
X151793336Y-89094107D01*
X151769382Y-89065040D01*
X151633863Y-88935213D01*
X151545138Y-88923451D01*
X151538263Y-88929337D01*
X151538263Y-88929337D01*
G37*
X151538263Y-88929337D02*
X151531249Y-89023280D01*
X151633700Y-89181616D01*
X151642806Y-89192545D01*
X151739750Y-89329930D01*
X151778674Y-89431637D01*
X151774928Y-89450376D01*
X151681012Y-89507676D01*
X151553207Y-89457924D01*
X151420803Y-89320493D01*
X151305457Y-89199875D01*
X151216310Y-89169613D01*
X151175581Y-89235939D01*
X151175000Y-89251532D01*
X151220090Y-89342685D01*
X151329400Y-89470054D01*
X151463997Y-89595776D01*
X151584945Y-89681987D01*
X151635136Y-89699000D01*
X151746204Y-89655308D01*
X151831909Y-89582874D01*
X151922359Y-89434400D01*
X151910622Y-89280755D01*
X151793336Y-89094107D01*
X151769382Y-89065040D01*
X151633863Y-88935213D01*
X151545138Y-88923451D01*
X151538263Y-88929337D01*
G36*
X147656044Y-79908906D02*
X147108293Y-79967332D01*
X146769488Y-80038756D01*
X145999325Y-80307813D01*
X145300826Y-80680659D01*
X144678994Y-81153163D01*
X144138834Y-81721191D01*
X143685350Y-82380610D01*
X143491489Y-82745750D01*
X143257411Y-83285546D01*
X143102118Y-83792373D01*
X143014612Y-84314743D01*
X142983896Y-84901166D01*
X142983500Y-84986502D01*
X143014151Y-85611804D01*
X143113393Y-86181835D01*
X143292162Y-86742182D01*
X143535106Y-87286000D01*
X143675927Y-87555805D01*
X143812654Y-87779574D01*
X143969326Y-87989116D01*
X144169980Y-88216244D01*
X144438653Y-88492770D01*
X144472912Y-88527088D01*
X144756710Y-88804588D01*
X144987659Y-89011459D01*
X145197571Y-89171741D01*
X145418257Y-89309470D01*
X145681529Y-89448684D01*
X145714000Y-89464894D01*
X146034240Y-89611177D01*
X146381476Y-89749173D01*
X146699474Y-89857225D01*
X146819533Y-89890680D01*
X147117393Y-89950562D01*
X147441288Y-89991753D01*
X147762225Y-90013359D01*
X148051207Y-90014489D01*
X148279239Y-89994250D01*
X148417327Y-89951750D01*
X148431800Y-89940300D01*
X148472290Y-89831531D01*
X148498066Y-89607392D01*
X148507934Y-89278791D01*
X148508000Y-89245136D01*
X148508000Y-88626172D01*
X148100191Y-88817009D01*
X147523662Y-89022593D01*
X146943520Y-89104331D01*
X146369183Y-89062132D01*
X145810070Y-88895904D01*
X145685431Y-88840503D01*
X145378065Y-88656485D01*
X145092537Y-88415710D01*
X144850084Y-88143424D01*
X144671940Y-87864871D01*
X144579342Y-87605297D01*
X144571000Y-87515651D01*
X144611094Y-87365925D01*
X144710064Y-87195843D01*
X144735395Y-87163872D01*
X144875873Y-87029168D01*
X144994313Y-86971503D01*
X145067049Y-86998535D01*
X145079000Y-87052681D01*
X145133762Y-87178211D01*
X145272230Y-87307669D01*
X145455683Y-87411217D01*
X145599816Y-87453978D01*
X145870062Y-87441445D01*
X146108522Y-87327781D01*
X146277911Y-87132138D01*
X146295103Y-87096802D01*
X146450133Y-86890396D01*
X146605187Y-86809750D01*
X145968000Y-86809750D01*
X145918855Y-86982232D01*
X145796348Y-87077828D01*
X145637877Y-87081795D01*
X145496286Y-86995714D01*
X145409067Y-86873651D01*
X145417119Y-86744426D01*
X145462235Y-86646825D01*
X145575803Y-86539983D01*
X145722031Y-86524397D01*
X145860897Y-86587175D01*
X145952380Y-86715424D01*
X145968000Y-86809750D01*
X146605187Y-86809750D01*
X146676601Y-86772607D01*
X146943514Y-86756974D01*
X147030911Y-86775343D01*
X147235338Y-86841195D01*
X147357250Y-86916252D01*
X147439059Y-87032559D01*
X147476277Y-87111858D01*
X147620331Y-87295227D01*
X147842396Y-87418310D01*
X148100228Y-87461659D01*
X148212435Y-87450781D01*
X148438685Y-87352325D01*
X148629818Y-87171058D01*
X148717857Y-87012938D01*
X148780667Y-86970866D01*
X148883420Y-87018122D01*
X148999464Y-87135892D01*
X149086503Y-87273169D01*
X149170221Y-87398852D01*
X149230137Y-87415696D01*
X149264095Y-87340005D01*
X149269942Y-87188080D01*
X149245523Y-86976226D01*
X149188683Y-86720745D01*
X149188244Y-86719198D01*
X148350742Y-86719198D01*
X148347214Y-86876245D01*
X148257486Y-87003527D01*
X148118893Y-87076947D01*
X147968774Y-87072413D01*
X147885700Y-87019300D01*
X147816915Y-86873309D01*
X147830178Y-86702331D01*
X147903926Y-86588184D01*
X148049625Y-86538632D01*
X148211816Y-86574154D01*
X148331772Y-86677531D01*
X148350742Y-86719198D01*
X149188244Y-86719198D01*
X149168768Y-86650662D01*
X149020882Y-86333212D01*
X148779321Y-86014717D01*
X148473660Y-85724762D01*
X148255343Y-85575985D01*
X145406028Y-85575985D01*
X145052014Y-85958362D01*
X144887588Y-86144551D01*
X144763519Y-86301390D01*
X144700765Y-86401829D01*
X144697028Y-86416494D01*
X144672331Y-86441809D01*
X144634500Y-86397000D01*
X144602730Y-86287166D01*
X144580154Y-86093755D01*
X144571973Y-85876250D01*
X144581761Y-85608191D01*
X144608864Y-85338846D01*
X144648121Y-85097641D01*
X144694372Y-84913997D01*
X144742457Y-84817338D01*
X144759059Y-84809500D01*
X144815432Y-84861857D01*
X144883866Y-84989023D01*
X144888622Y-85000292D01*
X144987523Y-85163531D01*
X145137604Y-85337432D01*
X145186839Y-85383534D01*
X145406028Y-85575985D01*
X148255343Y-85575985D01*
X148133473Y-85492934D01*
X147904829Y-85386299D01*
X147376787Y-85246514D01*
X146830697Y-85206246D01*
X146310443Y-85268702D01*
X146307093Y-85269486D01*
X145915936Y-85361356D01*
X145836977Y-85196553D01*
X145796885Y-85056979D01*
X145760555Y-84832712D01*
X145734410Y-84566033D01*
X145729918Y-84492000D01*
X145721279Y-84188324D01*
X145736936Y-83958719D01*
X145783348Y-83751516D01*
X145844811Y-83572854D01*
X146048814Y-83181434D01*
X146340357Y-82823576D01*
X146687317Y-82533689D01*
X146951710Y-82387115D01*
X147175669Y-82271781D01*
X147256450Y-82197691D01*
X146349000Y-82197691D01*
X146309327Y-82308295D01*
X146215650Y-82333000D01*
X146077389Y-82382443D01*
X145915403Y-82505737D01*
X145766940Y-82665325D01*
X145669249Y-82823652D01*
X145650500Y-82902806D01*
X145616672Y-83009620D01*
X145551896Y-83020281D01*
X145467075Y-82977356D01*
X145456646Y-82952125D01*
X145459229Y-82857345D01*
X145460000Y-82744817D01*
X145514612Y-82561280D01*
X145655630Y-82371920D01*
X145848831Y-82210632D01*
X146059991Y-82111307D01*
X146110875Y-82100240D01*
X146266627Y-82083643D01*
X146334201Y-82110806D01*
X146348999Y-82196217D01*
X146349000Y-82197691D01*
X147256450Y-82197691D01*
X147297885Y-82159689D01*
X147333981Y-82079000D01*
X147481996Y-81725689D01*
X147608192Y-81562368D01*
X146539500Y-81562368D01*
X146497493Y-81675929D01*
X146428375Y-81698354D01*
X146082352Y-81759888D01*
X145756152Y-81929950D01*
X145468604Y-82190071D01*
X145238537Y-82521783D01*
X145084779Y-82906618D01*
X145053031Y-83047375D01*
X144995553Y-83223898D01*
X144922864Y-83290302D01*
X144858432Y-83245828D01*
X144825722Y-83089718D01*
X144825000Y-83054742D01*
X144885886Y-82633220D01*
X145069050Y-82244475D01*
X145224911Y-82040837D01*
X145572812Y-81727749D01*
X145963773Y-81532607D01*
X146253547Y-81465931D01*
X146429064Y-81447492D01*
X146512906Y-81463352D01*
X146538281Y-81524712D01*
X146539500Y-81562368D01*
X147608192Y-81562368D01*
X147725346Y-81410750D01*
X148036045Y-81159982D01*
X148386106Y-80999186D01*
X148543628Y-80963849D01*
X148890740Y-80970450D01*
X149245321Y-81077555D01*
X149577069Y-81266185D01*
X149855685Y-81517360D01*
X150050867Y-81812100D01*
X150098805Y-81937990D01*
X150174319Y-82190031D01*
X150608701Y-82221111D01*
X151118149Y-82315770D01*
X151565536Y-82520410D01*
X151946154Y-82831698D01*
X152255295Y-83246303D01*
X152371082Y-83468379D01*
X152503889Y-83884982D01*
X152551007Y-84347254D01*
X152512390Y-84810095D01*
X152387991Y-85228405D01*
X152372918Y-85261620D01*
X152094751Y-85722059D01*
X151739440Y-86085230D01*
X151375695Y-86315733D01*
X151151258Y-86413699D01*
X150944582Y-86467805D01*
X150699433Y-86489706D01*
X150524207Y-86492250D01*
X150032164Y-86492250D01*
X150032082Y-88065165D01*
X150032000Y-89638081D01*
X150301875Y-89501100D01*
X150943543Y-89107446D01*
X151532767Y-88611380D01*
X152050042Y-88033144D01*
X152475865Y-87392978D01*
X152639534Y-87075029D01*
X152878073Y-86432077D01*
X153028470Y-85729950D01*
X153087377Y-85004017D01*
X153051446Y-84289649D01*
X152953629Y-83756032D01*
X152698796Y-82995227D01*
X152336865Y-82294899D01*
X151876954Y-81664309D01*
X151328178Y-81112717D01*
X151032394Y-80894671D01*
X146761580Y-80894671D01*
X146751586Y-80952438D01*
X146629212Y-81024680D01*
X146397740Y-81104721D01*
X146291700Y-81133307D01*
X145764253Y-81323911D01*
X145311454Y-81603251D01*
X144943732Y-81960246D01*
X144671514Y-82383815D01*
X144505230Y-82862878D01*
X144470612Y-83068399D01*
X144438165Y-83310302D01*
X144405711Y-83451885D01*
X144362528Y-83519375D01*
X144297896Y-83538999D01*
X144278034Y-83539500D01*
X144223760Y-83524802D01*
X144196714Y-83463347D01*
X144193012Y-83329091D01*
X144208768Y-83095992D01*
X144209877Y-83082703D01*
X144316478Y-82547093D01*
X144538539Y-82056827D01*
X144868556Y-81627436D01*
X144953140Y-81544328D01*
X145297667Y-81273474D01*
X145683037Y-81055749D01*
X146072212Y-80908570D01*
X146428152Y-80849354D01*
X146431307Y-80849268D01*
X146655914Y-80858056D01*
X146761580Y-80894671D01*
X151032394Y-80894671D01*
X150699654Y-80649383D01*
X150000499Y-80283566D01*
X149294013Y-80038756D01*
X148798401Y-79944618D01*
X148235912Y-79901334D01*
X147656044Y-79908906D01*
X147656044Y-79908906D01*
G37*
X147656044Y-79908906D02*
X147108293Y-79967332D01*
X146769488Y-80038756D01*
X145999325Y-80307813D01*
X145300826Y-80680659D01*
X144678994Y-81153163D01*
X144138834Y-81721191D01*
X143685350Y-82380610D01*
X143491489Y-82745750D01*
X143257411Y-83285546D01*
X143102118Y-83792373D01*
X143014612Y-84314743D01*
X142983896Y-84901166D01*
X142983500Y-84986502D01*
X143014151Y-85611804D01*
X143113393Y-86181835D01*
X143292162Y-86742182D01*
X143535106Y-87286000D01*
X143675927Y-87555805D01*
X143812654Y-87779574D01*
X143969326Y-87989116D01*
X144169980Y-88216244D01*
X144438653Y-88492770D01*
X144472912Y-88527088D01*
X144756710Y-88804588D01*
X144987659Y-89011459D01*
X145197571Y-89171741D01*
X145418257Y-89309470D01*
X145681529Y-89448684D01*
X145714000Y-89464894D01*
X146034240Y-89611177D01*
X146381476Y-89749173D01*
X146699474Y-89857225D01*
X146819533Y-89890680D01*
X147117393Y-89950562D01*
X147441288Y-89991753D01*
X147762225Y-90013359D01*
X148051207Y-90014489D01*
X148279239Y-89994250D01*
X148417327Y-89951750D01*
X148431800Y-89940300D01*
X148472290Y-89831531D01*
X148498066Y-89607392D01*
X148507934Y-89278791D01*
X148508000Y-89245136D01*
X148508000Y-88626172D01*
X148100191Y-88817009D01*
X147523662Y-89022593D01*
X146943520Y-89104331D01*
X146369183Y-89062132D01*
X145810070Y-88895904D01*
X145685431Y-88840503D01*
X145378065Y-88656485D01*
X145092537Y-88415710D01*
X144850084Y-88143424D01*
X144671940Y-87864871D01*
X144579342Y-87605297D01*
X144571000Y-87515651D01*
X144611094Y-87365925D01*
X144710064Y-87195843D01*
X144735395Y-87163872D01*
X144875873Y-87029168D01*
X144994313Y-86971503D01*
X145067049Y-86998535D01*
X145079000Y-87052681D01*
X145133762Y-87178211D01*
X145272230Y-87307669D01*
X145455683Y-87411217D01*
X145599816Y-87453978D01*
X145870062Y-87441445D01*
X146108522Y-87327781D01*
X146277911Y-87132138D01*
X146295103Y-87096802D01*
X146450133Y-86890396D01*
X146605187Y-86809750D01*
X145968000Y-86809750D01*
X145918855Y-86982232D01*
X145796348Y-87077828D01*
X145637877Y-87081795D01*
X145496286Y-86995714D01*
X145409067Y-86873651D01*
X145417119Y-86744426D01*
X145462235Y-86646825D01*
X145575803Y-86539983D01*
X145722031Y-86524397D01*
X145860897Y-86587175D01*
X145952380Y-86715424D01*
X145968000Y-86809750D01*
X146605187Y-86809750D01*
X146676601Y-86772607D01*
X146943514Y-86756974D01*
X147030911Y-86775343D01*
X147235338Y-86841195D01*
X147357250Y-86916252D01*
X147439059Y-87032559D01*
X147476277Y-87111858D01*
X147620331Y-87295227D01*
X147842396Y-87418310D01*
X148100228Y-87461659D01*
X148212435Y-87450781D01*
X148438685Y-87352325D01*
X148629818Y-87171058D01*
X148717857Y-87012938D01*
X148780667Y-86970866D01*
X148883420Y-87018122D01*
X148999464Y-87135892D01*
X149086503Y-87273169D01*
X149170221Y-87398852D01*
X149230137Y-87415696D01*
X149264095Y-87340005D01*
X149269942Y-87188080D01*
X149245523Y-86976226D01*
X149188683Y-86720745D01*
X149188244Y-86719198D01*
X148350742Y-86719198D01*
X148347214Y-86876245D01*
X148257486Y-87003527D01*
X148118893Y-87076947D01*
X147968774Y-87072413D01*
X147885700Y-87019300D01*
X147816915Y-86873309D01*
X147830178Y-86702331D01*
X147903926Y-86588184D01*
X148049625Y-86538632D01*
X148211816Y-86574154D01*
X148331772Y-86677531D01*
X148350742Y-86719198D01*
X149188244Y-86719198D01*
X149168768Y-86650662D01*
X149020882Y-86333212D01*
X148779321Y-86014717D01*
X148473660Y-85724762D01*
X148255343Y-85575985D01*
X145406028Y-85575985D01*
X145052014Y-85958362D01*
X144887588Y-86144551D01*
X144763519Y-86301390D01*
X144700765Y-86401829D01*
X144697028Y-86416494D01*
X144672331Y-86441809D01*
X144634500Y-86397000D01*
X144602730Y-86287166D01*
X144580154Y-86093755D01*
X144571973Y-85876250D01*
X144581761Y-85608191D01*
X144608864Y-85338846D01*
X144648121Y-85097641D01*
X144694372Y-84913997D01*
X144742457Y-84817338D01*
X144759059Y-84809500D01*
X144815432Y-84861857D01*
X144883866Y-84989023D01*
X144888622Y-85000292D01*
X144987523Y-85163531D01*
X145137604Y-85337432D01*
X145186839Y-85383534D01*
X145406028Y-85575985D01*
X148255343Y-85575985D01*
X148133473Y-85492934D01*
X147904829Y-85386299D01*
X147376787Y-85246514D01*
X146830697Y-85206246D01*
X146310443Y-85268702D01*
X146307093Y-85269486D01*
X145915936Y-85361356D01*
X145836977Y-85196553D01*
X145796885Y-85056979D01*
X145760555Y-84832712D01*
X145734410Y-84566033D01*
X145729918Y-84492000D01*
X145721279Y-84188324D01*
X145736936Y-83958719D01*
X145783348Y-83751516D01*
X145844811Y-83572854D01*
X146048814Y-83181434D01*
X146340357Y-82823576D01*
X146687317Y-82533689D01*
X146951710Y-82387115D01*
X147175669Y-82271781D01*
X147256450Y-82197691D01*
X146349000Y-82197691D01*
X146309327Y-82308295D01*
X146215650Y-82333000D01*
X146077389Y-82382443D01*
X145915403Y-82505737D01*
X145766940Y-82665325D01*
X145669249Y-82823652D01*
X145650500Y-82902806D01*
X145616672Y-83009620D01*
X145551896Y-83020281D01*
X145467075Y-82977356D01*
X145456646Y-82952125D01*
X145459229Y-82857345D01*
X145460000Y-82744817D01*
X145514612Y-82561280D01*
X145655630Y-82371920D01*
X145848831Y-82210632D01*
X146059991Y-82111307D01*
X146110875Y-82100240D01*
X146266627Y-82083643D01*
X146334201Y-82110806D01*
X146348999Y-82196217D01*
X146349000Y-82197691D01*
X147256450Y-82197691D01*
X147297885Y-82159689D01*
X147333981Y-82079000D01*
X147481996Y-81725689D01*
X147608192Y-81562368D01*
X146539500Y-81562368D01*
X146497493Y-81675929D01*
X146428375Y-81698354D01*
X146082352Y-81759888D01*
X145756152Y-81929950D01*
X145468604Y-82190071D01*
X145238537Y-82521783D01*
X145084779Y-82906618D01*
X145053031Y-83047375D01*
X144995553Y-83223898D01*
X144922864Y-83290302D01*
X144858432Y-83245828D01*
X144825722Y-83089718D01*
X144825000Y-83054742D01*
X144885886Y-82633220D01*
X145069050Y-82244475D01*
X145224911Y-82040837D01*
X145572812Y-81727749D01*
X145963773Y-81532607D01*
X146253547Y-81465931D01*
X146429064Y-81447492D01*
X146512906Y-81463352D01*
X146538281Y-81524712D01*
X146539500Y-81562368D01*
X147608192Y-81562368D01*
X147725346Y-81410750D01*
X148036045Y-81159982D01*
X148386106Y-80999186D01*
X148543628Y-80963849D01*
X148890740Y-80970450D01*
X149245321Y-81077555D01*
X149577069Y-81266185D01*
X149855685Y-81517360D01*
X150050867Y-81812100D01*
X150098805Y-81937990D01*
X150174319Y-82190031D01*
X150608701Y-82221111D01*
X151118149Y-82315770D01*
X151565536Y-82520410D01*
X151946154Y-82831698D01*
X152255295Y-83246303D01*
X152371082Y-83468379D01*
X152503889Y-83884982D01*
X152551007Y-84347254D01*
X152512390Y-84810095D01*
X152387991Y-85228405D01*
X152372918Y-85261620D01*
X152094751Y-85722059D01*
X151739440Y-86085230D01*
X151375695Y-86315733D01*
X151151258Y-86413699D01*
X150944582Y-86467805D01*
X150699433Y-86489706D01*
X150524207Y-86492250D01*
X150032164Y-86492250D01*
X150032082Y-88065165D01*
X150032000Y-89638081D01*
X150301875Y-89501100D01*
X150943543Y-89107446D01*
X151532767Y-88611380D01*
X152050042Y-88033144D01*
X152475865Y-87392978D01*
X152639534Y-87075029D01*
X152878073Y-86432077D01*
X153028470Y-85729950D01*
X153087377Y-85004017D01*
X153051446Y-84289649D01*
X152953629Y-83756032D01*
X152698796Y-82995227D01*
X152336865Y-82294899D01*
X151876954Y-81664309D01*
X151328178Y-81112717D01*
X151032394Y-80894671D01*
X146761580Y-80894671D01*
X146751586Y-80952438D01*
X146629212Y-81024680D01*
X146397740Y-81104721D01*
X146291700Y-81133307D01*
X145764253Y-81323911D01*
X145311454Y-81603251D01*
X144943732Y-81960246D01*
X144671514Y-82383815D01*
X144505230Y-82862878D01*
X144470612Y-83068399D01*
X144438165Y-83310302D01*
X144405711Y-83451885D01*
X144362528Y-83519375D01*
X144297896Y-83538999D01*
X144278034Y-83539500D01*
X144223760Y-83524802D01*
X144196714Y-83463347D01*
X144193012Y-83329091D01*
X144208768Y-83095992D01*
X144209877Y-83082703D01*
X144316478Y-82547093D01*
X144538539Y-82056827D01*
X144868556Y-81627436D01*
X144953140Y-81544328D01*
X145297667Y-81273474D01*
X145683037Y-81055749D01*
X146072212Y-80908570D01*
X146428152Y-80849354D01*
X146431307Y-80849268D01*
X146655914Y-80858056D01*
X146761580Y-80894671D01*
X151032394Y-80894671D01*
X150699654Y-80649383D01*
X150000499Y-80283566D01*
X149294013Y-80038756D01*
X148798401Y-79944618D01*
X148235912Y-79901334D01*
X147656044Y-79908906D01*
G36*
X150913942Y-89386525D02*
X150766154Y-89528584D01*
X150744000Y-89655981D01*
X150847202Y-89770641D01*
X150857500Y-89777236D01*
X150958629Y-89897333D01*
X150984500Y-90000024D01*
X151013199Y-90121410D01*
X151087284Y-90135288D01*
X151132667Y-90101166D01*
X151165539Y-90011333D01*
X151177020Y-89894791D01*
X151183999Y-89782130D01*
X151217561Y-89785712D01*
X151272508Y-89854337D01*
X151369260Y-89933675D01*
X151426890Y-89917010D01*
X151431520Y-89825474D01*
X151353157Y-89654607D01*
X151339246Y-89631956D01*
X151083530Y-89631956D01*
X151067441Y-89658393D01*
X150975263Y-89697021D01*
X150922844Y-89629055D01*
X150921000Y-89603750D01*
X150953300Y-89519216D01*
X150980753Y-89508500D01*
X151063672Y-89550515D01*
X151083530Y-89631956D01*
X151339246Y-89631956D01*
X151292594Y-89555999D01*
X151097384Y-89255903D01*
X150913942Y-89386525D01*
X150913942Y-89386525D01*
G37*
X150913942Y-89386525D02*
X150766154Y-89528584D01*
X150744000Y-89655981D01*
X150847202Y-89770641D01*
X150857500Y-89777236D01*
X150958629Y-89897333D01*
X150984500Y-90000024D01*
X151013199Y-90121410D01*
X151087284Y-90135288D01*
X151132667Y-90101166D01*
X151165539Y-90011333D01*
X151177020Y-89894791D01*
X151183999Y-89782130D01*
X151217561Y-89785712D01*
X151272508Y-89854337D01*
X151369260Y-89933675D01*
X151426890Y-89917010D01*
X151431520Y-89825474D01*
X151353157Y-89654607D01*
X151339246Y-89631956D01*
X151083530Y-89631956D01*
X151067441Y-89658393D01*
X150975263Y-89697021D01*
X150922844Y-89629055D01*
X150921000Y-89603750D01*
X150953300Y-89519216D01*
X150980753Y-89508500D01*
X151063672Y-89550515D01*
X151083530Y-89631956D01*
X151339246Y-89631956D01*
X151292594Y-89555999D01*
X151097384Y-89255903D01*
X150913942Y-89386525D01*
G36*
X150320186Y-89715582D02*
X150184926Y-89857727D01*
X150124696Y-89973444D01*
X150131565Y-90078121D01*
X150188248Y-90202161D01*
X150325090Y-90353161D01*
X150502744Y-90401694D01*
X150682856Y-90342375D01*
X150752409Y-90281374D01*
X150847594Y-90098413D01*
X150843309Y-90004109D01*
X150708027Y-90004109D01*
X150696389Y-90132579D01*
X150671418Y-90169927D01*
X150538489Y-90262582D01*
X150405337Y-90229764D01*
X150352032Y-90178300D01*
X150291478Y-90036877D01*
X150329275Y-89916613D01*
X150450251Y-89858582D01*
X150470449Y-89857750D01*
X150624920Y-89900393D01*
X150708027Y-90004109D01*
X150843309Y-90004109D01*
X150838858Y-89906180D01*
X150730107Y-89747551D01*
X150701860Y-89726947D01*
X150504606Y-89659875D01*
X150320186Y-89715582D01*
X150320186Y-89715582D01*
G37*
X150320186Y-89715582D02*
X150184926Y-89857727D01*
X150124696Y-89973444D01*
X150131565Y-90078121D01*
X150188248Y-90202161D01*
X150325090Y-90353161D01*
X150502744Y-90401694D01*
X150682856Y-90342375D01*
X150752409Y-90281374D01*
X150847594Y-90098413D01*
X150843309Y-90004109D01*
X150708027Y-90004109D01*
X150696389Y-90132579D01*
X150671418Y-90169927D01*
X150538489Y-90262582D01*
X150405337Y-90229764D01*
X150352032Y-90178300D01*
X150291478Y-90036877D01*
X150329275Y-89916613D01*
X150450251Y-89858582D01*
X150470449Y-89857750D01*
X150624920Y-89900393D01*
X150708027Y-90004109D01*
X150843309Y-90004109D01*
X150838858Y-89906180D01*
X150730107Y-89747551D01*
X150701860Y-89726947D01*
X150504606Y-89659875D01*
X150320186Y-89715582D01*
G36*
X144667616Y-89219746D02*
X144553858Y-89347475D01*
X144400701Y-89558106D01*
X144333361Y-89689960D01*
X144351116Y-89745453D01*
X144432922Y-89717956D01*
X144553215Y-89606129D01*
X144654929Y-89491584D01*
X144691107Y-89469869D01*
X144677783Y-89536473D01*
X144666099Y-89574379D01*
X144618001Y-89722491D01*
X144589708Y-89803701D01*
X144592443Y-89895054D01*
X144670492Y-89920221D01*
X144789427Y-89876936D01*
X144861451Y-89821583D01*
X144973162Y-89737019D01*
X145012804Y-89749921D01*
X144974460Y-89849347D01*
X144921289Y-89932247D01*
X144865732Y-90033595D01*
X144895713Y-90104682D01*
X144989038Y-90172875D01*
X145140489Y-90239532D01*
X145228255Y-90214880D01*
X145339816Y-90189387D01*
X145448431Y-90245520D01*
X145491750Y-90342267D01*
X145542263Y-90430246D01*
X145571125Y-90445125D01*
X145634334Y-90414964D01*
X145651199Y-90323416D01*
X145662165Y-90159484D01*
X145676856Y-90044502D01*
X145523500Y-90044502D01*
X145502574Y-90136249D01*
X145447590Y-90108746D01*
X145430962Y-90084387D01*
X145438925Y-90002832D01*
X145458965Y-89985390D01*
X145514187Y-89999186D01*
X145523500Y-90044502D01*
X145676856Y-90044502D01*
X145687976Y-89957476D01*
X145691258Y-89937125D01*
X145708434Y-89780807D01*
X145681796Y-89712956D01*
X145607766Y-89699000D01*
X145492817Y-89742418D01*
X145342161Y-89852419D01*
X145270422Y-89920298D01*
X145142574Y-90044255D01*
X145055128Y-90114208D01*
X145034789Y-90120455D01*
X145050983Y-90058304D01*
X145115355Y-89921740D01*
X145174667Y-89811215D01*
X145264808Y-89640447D01*
X145293223Y-89546741D01*
X145265103Y-89499219D01*
X145229911Y-89482528D01*
X145099279Y-89486693D01*
X145022192Y-89529060D01*
X144880099Y-89640304D01*
X144814843Y-89656588D01*
X144815025Y-89574293D01*
X144843000Y-89472182D01*
X144880687Y-89310786D01*
X144861488Y-89222871D01*
X144821210Y-89188004D01*
X144750955Y-89171675D01*
X144667616Y-89219746D01*
X144667616Y-89219746D01*
G37*
X144667616Y-89219746D02*
X144553858Y-89347475D01*
X144400701Y-89558106D01*
X144333361Y-89689960D01*
X144351116Y-89745453D01*
X144432922Y-89717956D01*
X144553215Y-89606129D01*
X144654929Y-89491584D01*
X144691107Y-89469869D01*
X144677783Y-89536473D01*
X144666099Y-89574379D01*
X144618001Y-89722491D01*
X144589708Y-89803701D01*
X144592443Y-89895054D01*
X144670492Y-89920221D01*
X144789427Y-89876936D01*
X144861451Y-89821583D01*
X144973162Y-89737019D01*
X145012804Y-89749921D01*
X144974460Y-89849347D01*
X144921289Y-89932247D01*
X144865732Y-90033595D01*
X144895713Y-90104682D01*
X144989038Y-90172875D01*
X145140489Y-90239532D01*
X145228255Y-90214880D01*
X145339816Y-90189387D01*
X145448431Y-90245520D01*
X145491750Y-90342267D01*
X145542263Y-90430246D01*
X145571125Y-90445125D01*
X145634334Y-90414964D01*
X145651199Y-90323416D01*
X145662165Y-90159484D01*
X145676856Y-90044502D01*
X145523500Y-90044502D01*
X145502574Y-90136249D01*
X145447590Y-90108746D01*
X145430962Y-90084387D01*
X145438925Y-90002832D01*
X145458965Y-89985390D01*
X145514187Y-89999186D01*
X145523500Y-90044502D01*
X145676856Y-90044502D01*
X145687976Y-89957476D01*
X145691258Y-89937125D01*
X145708434Y-89780807D01*
X145681796Y-89712956D01*
X145607766Y-89699000D01*
X145492817Y-89742418D01*
X145342161Y-89852419D01*
X145270422Y-89920298D01*
X145142574Y-90044255D01*
X145055128Y-90114208D01*
X145034789Y-90120455D01*
X145050983Y-90058304D01*
X145115355Y-89921740D01*
X145174667Y-89811215D01*
X145264808Y-89640447D01*
X145293223Y-89546741D01*
X145265103Y-89499219D01*
X145229911Y-89482528D01*
X145099279Y-89486693D01*
X145022192Y-89529060D01*
X144880099Y-89640304D01*
X144814843Y-89656588D01*
X144815025Y-89574293D01*
X144843000Y-89472182D01*
X144880687Y-89310786D01*
X144861488Y-89222871D01*
X144821210Y-89188004D01*
X144750955Y-89171675D01*
X144667616Y-89219746D01*
G36*
X146112700Y-89981354D02*
X146054144Y-90038316D01*
X146096421Y-90093953D01*
X146178857Y-90110940D01*
X146271467Y-90139747D01*
X146267441Y-90199988D01*
X146178647Y-90257090D01*
X146123926Y-90270989D01*
X145970983Y-90340243D01*
X145910507Y-90456552D01*
X145954284Y-90584199D01*
X146004982Y-90631427D01*
X146153844Y-90702788D01*
X146280765Y-90703613D01*
X146346600Y-90636002D01*
X146349000Y-90612956D01*
X146309690Y-90540539D01*
X146263867Y-90543581D01*
X146138238Y-90542505D01*
X146091022Y-90522040D01*
X146048486Y-90470808D01*
X146113103Y-90428183D01*
X146294338Y-90388418D01*
X146317250Y-90384694D01*
X146430598Y-90317443D01*
X146464988Y-90196691D01*
X146416343Y-90071513D01*
X146347892Y-90015906D01*
X146202500Y-89973354D01*
X146112700Y-89981354D01*
X146112700Y-89981354D01*
G37*
X146112700Y-89981354D02*
X146054144Y-90038316D01*
X146096421Y-90093953D01*
X146178857Y-90110940D01*
X146271467Y-90139747D01*
X146267441Y-90199988D01*
X146178647Y-90257090D01*
X146123926Y-90270989D01*
X145970983Y-90340243D01*
X145910507Y-90456552D01*
X145954284Y-90584199D01*
X146004982Y-90631427D01*
X146153844Y-90702788D01*
X146280765Y-90703613D01*
X146346600Y-90636002D01*
X146349000Y-90612956D01*
X146309690Y-90540539D01*
X146263867Y-90543581D01*
X146138238Y-90542505D01*
X146091022Y-90522040D01*
X146048486Y-90470808D01*
X146113103Y-90428183D01*
X146294338Y-90388418D01*
X146317250Y-90384694D01*
X146430598Y-90317443D01*
X146464988Y-90196691D01*
X146416343Y-90071513D01*
X146347892Y-90015906D01*
X146202500Y-89973354D01*
X146112700Y-89981354D01*
G36*
X146572561Y-90232556D02*
X146540988Y-90341797D01*
X146491728Y-90528783D01*
X146452444Y-90669046D01*
X146443108Y-90699125D01*
X146466746Y-90770311D01*
X146501491Y-90778500D01*
X146567064Y-90722832D01*
X146637192Y-90581506D01*
X146667473Y-90489275D01*
X146711941Y-90278094D01*
X146698246Y-90156836D01*
X146680348Y-90131947D01*
X146626035Y-90126889D01*
X146572561Y-90232556D01*
X146572561Y-90232556D01*
G37*
X146572561Y-90232556D02*
X146540988Y-90341797D01*
X146491728Y-90528783D01*
X146452444Y-90669046D01*
X146443108Y-90699125D01*
X146466746Y-90770311D01*
X146501491Y-90778500D01*
X146567064Y-90722832D01*
X146637192Y-90581506D01*
X146667473Y-90489275D01*
X146711941Y-90278094D01*
X146698246Y-90156836D01*
X146680348Y-90131947D01*
X146626035Y-90126889D01*
X146572561Y-90232556D01*
G36*
X146854797Y-90198196D02*
X146794012Y-90268731D01*
X146793500Y-90277293D01*
X146848241Y-90318740D01*
X146964950Y-90334000D01*
X147068937Y-90354351D01*
X147067498Y-90400681D01*
X146972760Y-90450905D01*
X146889480Y-90471440D01*
X146773921Y-90544372D01*
X146739332Y-90675859D01*
X146796032Y-90813300D01*
X146905130Y-90884470D01*
X147037593Y-90903802D01*
X147143161Y-90871602D01*
X147174500Y-90810998D01*
X147124181Y-90738070D01*
X147063375Y-90731623D01*
X146955214Y-90716606D01*
X146941338Y-90657473D01*
X147022828Y-90596371D01*
X147059628Y-90585396D01*
X147185994Y-90506566D01*
X147227796Y-90380405D01*
X147177228Y-90255696D01*
X147119454Y-90211524D01*
X146980563Y-90175639D01*
X146854797Y-90198196D01*
X146854797Y-90198196D01*
G37*
X146854797Y-90198196D02*
X146794012Y-90268731D01*
X146793500Y-90277293D01*
X146848241Y-90318740D01*
X146964950Y-90334000D01*
X147068937Y-90354351D01*
X147067498Y-90400681D01*
X146972760Y-90450905D01*
X146889480Y-90471440D01*
X146773921Y-90544372D01*
X146739332Y-90675859D01*
X146796032Y-90813300D01*
X146905130Y-90884470D01*
X147037593Y-90903802D01*
X147143161Y-90871602D01*
X147174500Y-90810998D01*
X147124181Y-90738070D01*
X147063375Y-90731623D01*
X146955214Y-90716606D01*
X146941338Y-90657473D01*
X147022828Y-90596371D01*
X147059628Y-90585396D01*
X147185994Y-90506566D01*
X147227796Y-90380405D01*
X147177228Y-90255696D01*
X147119454Y-90211524D01*
X146980563Y-90175639D01*
X146854797Y-90198196D01*
G36*
X149874365Y-89929427D02*
X149694527Y-90021869D01*
X149596614Y-90147762D01*
X149592052Y-90278709D01*
X149690843Y-90385522D01*
X149759099Y-90461853D01*
X149730239Y-90557621D01*
X149684607Y-90613511D01*
X149630939Y-90595422D01*
X149562756Y-90509692D01*
X149370385Y-90509692D01*
X149361899Y-90529923D01*
X149284808Y-90561384D01*
X149264577Y-90552898D01*
X149233116Y-90475807D01*
X149241602Y-90455576D01*
X149318693Y-90424115D01*
X149338924Y-90432601D01*
X149370385Y-90509692D01*
X149562756Y-90509692D01*
X149546225Y-90488907D01*
X149491459Y-90407693D01*
X149348218Y-90228773D01*
X149226499Y-90148350D01*
X149139665Y-90172977D01*
X149114651Y-90222875D01*
X149077634Y-90390803D01*
X149055273Y-90582816D01*
X149049459Y-90758525D01*
X149062081Y-90877543D01*
X149082708Y-90905500D01*
X149159734Y-90855002D01*
X149181653Y-90815159D01*
X149278700Y-90705658D01*
X149417646Y-90683428D01*
X149502179Y-90723240D01*
X149631168Y-90760040D01*
X149774776Y-90714351D01*
X149880863Y-90611723D01*
X149905000Y-90525861D01*
X149931340Y-90421939D01*
X149968500Y-90397500D01*
X150024836Y-90448932D01*
X150032000Y-90492750D01*
X150082830Y-90576936D01*
X150127250Y-90588000D01*
X150191093Y-90581636D01*
X150214751Y-90544566D01*
X150197197Y-90449821D01*
X150137406Y-90270433D01*
X150112490Y-90200053D01*
X150102540Y-90175250D01*
X149905000Y-90175250D01*
X149872781Y-90254280D01*
X149836738Y-90258329D01*
X149771132Y-90192772D01*
X149768475Y-90175250D01*
X149817912Y-90100794D01*
X149836738Y-90092170D01*
X149894640Y-90122823D01*
X149905000Y-90175250D01*
X150102540Y-90175250D01*
X150039267Y-90017540D01*
X149975537Y-89933401D01*
X149899547Y-89922916D01*
X149874365Y-89929427D01*
X149874365Y-89929427D01*
G37*
X149874365Y-89929427D02*
X149694527Y-90021869D01*
X149596614Y-90147762D01*
X149592052Y-90278709D01*
X149690843Y-90385522D01*
X149759099Y-90461853D01*
X149730239Y-90557621D01*
X149684607Y-90613511D01*
X149630939Y-90595422D01*
X149562756Y-90509692D01*
X149370385Y-90509692D01*
X149361899Y-90529923D01*
X149284808Y-90561384D01*
X149264577Y-90552898D01*
X149233116Y-90475807D01*
X149241602Y-90455576D01*
X149318693Y-90424115D01*
X149338924Y-90432601D01*
X149370385Y-90509692D01*
X149562756Y-90509692D01*
X149546225Y-90488907D01*
X149491459Y-90407693D01*
X149348218Y-90228773D01*
X149226499Y-90148350D01*
X149139665Y-90172977D01*
X149114651Y-90222875D01*
X149077634Y-90390803D01*
X149055273Y-90582816D01*
X149049459Y-90758525D01*
X149062081Y-90877543D01*
X149082708Y-90905500D01*
X149159734Y-90855002D01*
X149181653Y-90815159D01*
X149278700Y-90705658D01*
X149417646Y-90683428D01*
X149502179Y-90723240D01*
X149631168Y-90760040D01*
X149774776Y-90714351D01*
X149880863Y-90611723D01*
X149905000Y-90525861D01*
X149931340Y-90421939D01*
X149968500Y-90397500D01*
X150024836Y-90448932D01*
X150032000Y-90492750D01*
X150082830Y-90576936D01*
X150127250Y-90588000D01*
X150191093Y-90581636D01*
X150214751Y-90544566D01*
X150197197Y-90449821D01*
X150137406Y-90270433D01*
X150112490Y-90200053D01*
X150102540Y-90175250D01*
X149905000Y-90175250D01*
X149872781Y-90254280D01*
X149836738Y-90258329D01*
X149771132Y-90192772D01*
X149768475Y-90175250D01*
X149817912Y-90100794D01*
X149836738Y-90092170D01*
X149894640Y-90122823D01*
X149905000Y-90175250D01*
X150102540Y-90175250D01*
X150039267Y-90017540D01*
X149975537Y-89933401D01*
X149899547Y-89922916D01*
X149874365Y-89929427D01*
G36*
X147352017Y-90300587D02*
X147323528Y-90415495D01*
X147313178Y-90573857D01*
X147322862Y-90734307D01*
X147354477Y-90855480D01*
X147368895Y-90878442D01*
X147499566Y-90954363D01*
X147663299Y-90959765D01*
X147793035Y-90892891D01*
X147795804Y-90889625D01*
X147850140Y-90769246D01*
X147879299Y-90600950D01*
X147880969Y-90432949D01*
X147852842Y-90313453D01*
X147824714Y-90286154D01*
X147764722Y-90319010D01*
X147746000Y-90450514D01*
X147733464Y-90623542D01*
X147707457Y-90741556D01*
X147635212Y-90823424D01*
X147543529Y-90836335D01*
X147488087Y-90774978D01*
X147486530Y-90762625D01*
X147479241Y-90644323D01*
X147470655Y-90492750D01*
X147444144Y-90347361D01*
X147396750Y-90270500D01*
X147352017Y-90300587D01*
X147352017Y-90300587D01*
G37*
X147352017Y-90300587D02*
X147323528Y-90415495D01*
X147313178Y-90573857D01*
X147322862Y-90734307D01*
X147354477Y-90855480D01*
X147368895Y-90878442D01*
X147499566Y-90954363D01*
X147663299Y-90959765D01*
X147793035Y-90892891D01*
X147795804Y-90889625D01*
X147850140Y-90769246D01*
X147879299Y-90600950D01*
X147880969Y-90432949D01*
X147852842Y-90313453D01*
X147824714Y-90286154D01*
X147764722Y-90319010D01*
X147746000Y-90450514D01*
X147733464Y-90623542D01*
X147707457Y-90741556D01*
X147635212Y-90823424D01*
X147543529Y-90836335D01*
X147488087Y-90774978D01*
X147486530Y-90762625D01*
X147479241Y-90644323D01*
X147470655Y-90492750D01*
X147444144Y-90347361D01*
X147396750Y-90270500D01*
X147352017Y-90300587D01*
G36*
X148498266Y-90284348D02*
X148425262Y-90461097D01*
X148366251Y-90683250D01*
X148266855Y-90476875D01*
X148168888Y-90328198D01*
X148077678Y-90275784D01*
X148015083Y-90324186D01*
X148000000Y-90421312D01*
X147987172Y-90596236D01*
X147960313Y-90770562D01*
X147945902Y-90911217D01*
X147987247Y-90964851D01*
X148023813Y-90969000D01*
X148102352Y-90923626D01*
X148131758Y-90775960D01*
X148132180Y-90762625D01*
X148137360Y-90556250D01*
X148227613Y-90762625D01*
X148303160Y-90899667D01*
X148371140Y-90967443D01*
X148379367Y-90969000D01*
X148435537Y-90914374D01*
X148490856Y-90781016D01*
X148496014Y-90762625D01*
X148551159Y-90556250D01*
X148598125Y-90762625D01*
X148651622Y-90911504D01*
X148710004Y-90965409D01*
X148752324Y-90916187D01*
X148761302Y-90826125D01*
X148750404Y-90666910D01*
X148724683Y-90466555D01*
X148720762Y-90442161D01*
X148664640Y-90271238D01*
X148584484Y-90219018D01*
X148498266Y-90284348D01*
X148498266Y-90284348D01*
G37*
X148498266Y-90284348D02*
X148425262Y-90461097D01*
X148366251Y-90683250D01*
X148266855Y-90476875D01*
X148168888Y-90328198D01*
X148077678Y-90275784D01*
X148015083Y-90324186D01*
X148000000Y-90421312D01*
X147987172Y-90596236D01*
X147960313Y-90770562D01*
X147945902Y-90911217D01*
X147987247Y-90964851D01*
X148023813Y-90969000D01*
X148102352Y-90923626D01*
X148131758Y-90775960D01*
X148132180Y-90762625D01*
X148137360Y-90556250D01*
X148227613Y-90762625D01*
X148303160Y-90899667D01*
X148371140Y-90967443D01*
X148379367Y-90969000D01*
X148435537Y-90914374D01*
X148490856Y-90781016D01*
X148496014Y-90762625D01*
X148551159Y-90556250D01*
X148598125Y-90762625D01*
X148651622Y-90911504D01*
X148710004Y-90965409D01*
X148752324Y-90916187D01*
X148761302Y-90826125D01*
X148750404Y-90666910D01*
X148724683Y-90466555D01*
X148720762Y-90442161D01*
X148664640Y-90271238D01*
X148584484Y-90219018D01*
X148498266Y-90284348D01*
M02*
