G04 #@! TF.GenerationSoftware,KiCad,Pcbnew,(2017-06-12 revision 19d5cc754)-master*
G04 #@! TF.CreationDate,2017-12-21T18:22:36+01:00*
G04 #@! TF.ProjectId,LF_antenna_denser,4C465F616E74656E6E615F64656E7365,rev?*
G04 #@! TF.FileFunction,Copper,L2,Bot,Signal*
G04 #@! TF.FilePolarity,Positive*
%FSLAX46Y46*%
G04 Gerber Fmt 4.6, Leading zero omitted, Abs format (unit mm)*
G04 Created by KiCad (PCBNEW (2017-06-12 revision 19d5cc754)-master) date 2017 December 21, Thursday 18:22:36*
%MOMM*%
%LPD*%
G01*
G04 APERTURE LIST*
%ADD10C,0.050000*%
%ADD11C,0.300000*%
%ADD12R,1.000000X0.300000*%
%ADD13C,2.301240*%
%ADD14C,0.800000*%
G04 APERTURE END LIST*
D10*
D11*
X191250000Y-119250000D02*
X191250000Y-89750000D01*
X190600000Y-119250000D02*
X190600000Y-89750000D01*
X189950000Y-119250000D02*
X189950000Y-89750000D01*
X189300000Y-119250000D02*
X189300000Y-89750000D01*
X188650000Y-119250000D02*
X188650000Y-89750000D01*
X188000000Y-119250000D02*
X188000000Y-89750000D01*
X187350000Y-119250000D02*
X187350000Y-89750000D01*
X186700000Y-119250000D02*
X186700000Y-89750000D01*
X186050000Y-119250000D02*
X186050000Y-89750000D01*
X185400000Y-119250000D02*
X185400000Y-89750000D01*
X184750000Y-119250000D02*
X184750000Y-89750000D01*
X184100000Y-119250000D02*
X184100000Y-89750000D01*
X183450000Y-119250000D02*
X183450000Y-89750000D01*
X182800000Y-119250000D02*
X182800000Y-89750000D01*
X176300000Y-119250000D02*
X176300000Y-89750000D01*
X176950000Y-119250000D02*
X176950000Y-89750000D01*
X177600000Y-119250000D02*
X177600000Y-89750000D01*
X178250000Y-119250000D02*
X178250000Y-89750000D01*
X178900000Y-119250000D02*
X178900000Y-89750000D01*
X179550000Y-119250000D02*
X179550000Y-89750000D01*
X180200000Y-119250000D02*
X180200000Y-89750000D01*
X180850000Y-119250000D02*
X180850000Y-89750000D01*
X181500000Y-119250000D02*
X181500000Y-89750000D01*
X120500000Y-90400000D02*
X120500000Y-119250000D01*
X119850000Y-90400000D02*
X119850000Y-119250000D01*
X119200000Y-90400000D02*
X119200000Y-119250000D01*
X118550000Y-90400000D02*
X118550000Y-119250000D01*
X117900000Y-90400000D02*
X117900000Y-119250000D01*
X117250000Y-90400000D02*
X117250000Y-119250000D01*
X116600000Y-90400000D02*
X116600000Y-119250000D01*
X115950000Y-90400000D02*
X115950000Y-119250000D01*
X115300000Y-90400000D02*
X115300000Y-119250000D01*
X114650000Y-90400000D02*
X114650000Y-119250000D01*
X114000000Y-90400000D02*
X114000000Y-119250000D01*
X113350000Y-90400000D02*
X113350000Y-119250000D01*
X112700000Y-90400000D02*
X112700000Y-119250000D01*
X112050000Y-90400000D02*
X112050000Y-119250000D01*
X111400000Y-90400000D02*
X111400000Y-119250000D01*
X110750000Y-90400000D02*
X110750000Y-119250000D01*
X110100000Y-90400000D02*
X110100000Y-119250000D01*
X109450000Y-90400000D02*
X109450000Y-119250000D01*
X108800000Y-90400000D02*
X108800000Y-119250000D01*
X108150000Y-90400000D02*
X108150000Y-119250000D01*
X107500000Y-90400000D02*
X107500000Y-119250000D01*
X106850000Y-90400000D02*
X106850000Y-119250000D01*
X105550000Y-90400000D02*
X105550000Y-119250000D01*
X106200000Y-90400000D02*
X106200000Y-119250000D01*
X121150000Y-89100000D02*
X175900000Y-89100000D01*
X121150000Y-88450000D02*
X175900000Y-88450000D01*
X121150000Y-87800000D02*
X175900000Y-87800000D01*
X121150000Y-87150000D02*
X175900000Y-87150000D01*
X121150000Y-86500000D02*
X175900000Y-86500000D01*
X121150000Y-85850000D02*
X175900000Y-85850000D01*
X121150000Y-85200000D02*
X175900000Y-85200000D01*
X121150000Y-84550000D02*
X175900000Y-84550000D01*
X121150000Y-83900000D02*
X175900000Y-83900000D01*
X121150000Y-83250000D02*
X175900000Y-83250000D01*
X121150000Y-82600000D02*
X175900000Y-82600000D01*
X121150000Y-81950000D02*
X175900000Y-81950000D01*
X121150000Y-81300000D02*
X175900000Y-81300000D01*
X121150000Y-80650000D02*
X175900000Y-80650000D01*
X121150000Y-80000000D02*
X175900000Y-80000000D01*
X121150000Y-79350000D02*
X175900000Y-79350000D01*
X121150000Y-78700000D02*
X175900000Y-78700000D01*
X121150000Y-78050000D02*
X175900000Y-78050000D01*
X121150000Y-77400000D02*
X175900000Y-77400000D01*
X121150000Y-76750000D02*
X175900000Y-76750000D01*
X121150000Y-76100000D02*
X175900000Y-76100000D01*
X121150000Y-75450000D02*
X175900000Y-75450000D01*
X121150000Y-74800000D02*
X175900000Y-74800000D01*
X120900000Y-74150000D02*
X175650000Y-74150000D01*
X121150000Y-119900000D02*
X175900000Y-119900000D01*
X121150000Y-120550000D02*
X175900000Y-120550000D01*
X121150000Y-121200000D02*
X175900000Y-121200000D01*
X121150000Y-121850000D02*
X175900000Y-121850000D01*
X121150000Y-122500000D02*
X175900000Y-122500000D01*
X121150000Y-123150000D02*
X175900000Y-123150000D01*
X121150000Y-123800000D02*
X175900000Y-123800000D01*
X121150000Y-124450000D02*
X175900000Y-124450000D01*
X121150000Y-125100000D02*
X175900000Y-125100000D01*
X121150000Y-125750000D02*
X175900000Y-125750000D01*
X121150000Y-126400000D02*
X175900000Y-126400000D01*
X121150000Y-127050000D02*
X175900000Y-127050000D01*
X121150000Y-127700000D02*
X175900000Y-127700000D01*
X121150000Y-128350000D02*
X175900000Y-128350000D01*
X121150000Y-129000000D02*
X175900000Y-129000000D01*
X121150000Y-129650000D02*
X175900000Y-129650000D01*
X121150000Y-130300000D02*
X175900000Y-130300000D01*
X121150000Y-130950000D02*
X175900000Y-130950000D01*
X121150000Y-131600000D02*
X175900000Y-131600000D01*
X121150000Y-132250000D02*
X175900000Y-132250000D01*
X121150000Y-132900000D02*
X175900000Y-132900000D01*
X121150000Y-133550000D02*
X175900000Y-133550000D01*
X121150000Y-134192446D02*
X175900000Y-134192446D01*
X121150000Y-134850000D02*
X175900000Y-134850000D01*
X121150000Y-81950000D02*
G75*
G03X112700000Y-90400000I0J-8450000D01*
G01*
X121150000Y-78700000D02*
G75*
G03X109450000Y-90400000I0J-11700000D01*
G01*
X121150000Y-75450000D02*
G75*
G03X106200000Y-90400000I0J-14950000D01*
G01*
X121150000Y-89100000D02*
G75*
G03X119850000Y-90400000I0J-1300000D01*
G01*
X121150000Y-74150000D02*
G75*
G03X104900000Y-90400000I0J-16250000D01*
G01*
X121150000Y-85850000D02*
G75*
G03X116600000Y-90400000I0J-4550000D01*
G01*
X121150000Y-84550000D02*
G75*
G03X115300000Y-90400000I0J-5850000D01*
G01*
X121150000Y-80000000D02*
G75*
G03X110750000Y-90400000I0J-10400000D01*
G01*
X121150000Y-89750000D02*
G75*
G03X120500000Y-90400000I0J-650000D01*
G01*
X121150000Y-86500000D02*
G75*
G03X117250000Y-90400000I0J-3900000D01*
G01*
X121150000Y-79350000D02*
G75*
G03X110100000Y-90400000I0J-11050000D01*
G01*
X121150000Y-87800000D02*
G75*
G03X118550000Y-90400000I0J-2600000D01*
G01*
X121150000Y-87150000D02*
G75*
G03X117900000Y-90400000I0J-3250000D01*
G01*
X121150000Y-88450000D02*
G75*
G03X119200000Y-90400000I0J-1950000D01*
G01*
X121150000Y-83250000D02*
G75*
G03X114000000Y-90400000I0J-7150000D01*
G01*
X121150000Y-77400000D02*
G75*
G03X108150000Y-90400000I0J-13000000D01*
G01*
X121150000Y-76100000D02*
G75*
G03X106850000Y-90400000I0J-14300000D01*
G01*
X121150000Y-80650000D02*
G75*
G03X111400000Y-90400000I0J-9750000D01*
G01*
X121150000Y-81300000D02*
G75*
G03X112050000Y-90400000I0J-9100000D01*
G01*
X121150000Y-78050000D02*
G75*
G03X108800000Y-90400000I0J-12350000D01*
G01*
X121150000Y-82600000D02*
G75*
G03X113350000Y-90400000I0J-7800000D01*
G01*
X121150000Y-76750000D02*
G75*
G03X107500000Y-90400000I0J-13650000D01*
G01*
X121150000Y-85200000D02*
G75*
G03X115950000Y-90400000I0J-5200000D01*
G01*
X121150000Y-74800000D02*
G75*
G03X105550000Y-90400000I0J-15600000D01*
G01*
X121150000Y-83900000D02*
G75*
G03X114650000Y-90400000I0J-6500000D01*
G01*
X184100000Y-89750000D02*
G75*
G03X175650000Y-81300000I-8450000J0D01*
G01*
X187350000Y-89750000D02*
G75*
G03X175650000Y-78050000I-11700000J0D01*
G01*
X190600000Y-89750000D02*
G75*
G03X175650000Y-74800000I-14950000J0D01*
G01*
X188650000Y-89750000D02*
G75*
G03X175650000Y-76750000I-13000000J0D01*
G01*
X189950000Y-89750000D02*
G75*
G03X175650000Y-75450000I-14300000J0D01*
G01*
X185400000Y-89750000D02*
G75*
G03X175650000Y-80000000I-9750000J0D01*
G01*
X184750000Y-89750000D02*
G75*
G03X175650000Y-80650000I-9100000J0D01*
G01*
X188000000Y-89750000D02*
G75*
G03X175650000Y-77400000I-12350000J0D01*
G01*
X183450000Y-89750000D02*
G75*
G03X175650000Y-81950000I-7800000J0D01*
G01*
X189300000Y-89750000D02*
G75*
G03X175650000Y-76100000I-13650000J0D01*
G01*
X180850000Y-89750000D02*
G75*
G03X175650000Y-84550000I-5200000J0D01*
G01*
X191250000Y-89750000D02*
G75*
G03X175650000Y-74150000I-15600000J0D01*
G01*
X182150000Y-89750000D02*
G75*
G03X175650000Y-83250000I-6500000J0D01*
G01*
X178250000Y-89750000D02*
G75*
G03X175650000Y-87150000I-2600000J0D01*
G01*
X178900000Y-89750000D02*
G75*
G03X175650000Y-86500000I-3250000J0D01*
G01*
X182150000Y-119250000D02*
X182150000Y-89750000D01*
X177600000Y-89750000D02*
G75*
G03X175650000Y-87800000I-1950000J0D01*
G01*
X181500000Y-89750000D02*
G75*
G03X175650000Y-83900000I-5850000J0D01*
G01*
X186050000Y-89750000D02*
G75*
G03X175650000Y-79350000I-10400000J0D01*
G01*
X176300000Y-89750000D02*
G75*
G03X175650000Y-89100000I-650000J0D01*
G01*
X179550000Y-89750000D02*
G75*
G03X175650000Y-85850000I-3900000J0D01*
G01*
X186700000Y-89750000D02*
G75*
G03X175650000Y-78700000I-11050000J0D01*
G01*
X176950000Y-89750000D02*
G75*
G03X175650000Y-88450000I-1300000J0D01*
G01*
X180200000Y-89750000D02*
G75*
G03X175650000Y-85200000I-4550000J0D01*
G01*
X182800000Y-89750000D02*
G75*
G03X175650000Y-82600000I-7150000J0D01*
G01*
X105550000Y-119250000D02*
G75*
G03X121150000Y-134850000I15600000J0D01*
G01*
X110750000Y-119250000D02*
G75*
G03X121150000Y-129650000I10400000J0D01*
G01*
X118550000Y-119250000D02*
G75*
G03X121150000Y-121850000I2600000J0D01*
G01*
X111400000Y-119250000D02*
G75*
G03X121150000Y-129000000I9750000J0D01*
G01*
X110100000Y-119250000D02*
G75*
G03X121150000Y-130300000I11050000J0D01*
G01*
X104900000Y-119750000D02*
G75*
G03X121150000Y-136000000I16250000J0D01*
G01*
X104900000Y-90400000D02*
X104900000Y-119750000D01*
X107500000Y-119250000D02*
G75*
G03X121150000Y-132900000I13650000J0D01*
G01*
X109450000Y-119250000D02*
G75*
G03X121150000Y-130950000I11700000J0D01*
G01*
X113350000Y-119250000D02*
G75*
G03X121150000Y-127050000I7800000J0D01*
G01*
X112050000Y-119250000D02*
G75*
G03X121150000Y-128350000I9100000J0D01*
G01*
X115950000Y-119250000D02*
G75*
G03X121150000Y-124450000I5200000J0D01*
G01*
X115300000Y-119250000D02*
G75*
G03X121150000Y-125100000I5850000J0D01*
G01*
X116600000Y-119250000D02*
G75*
G03X121150000Y-123800000I4550000J0D01*
G01*
X120500000Y-119250000D02*
G75*
G03X121150000Y-119900000I650000J0D01*
G01*
X119850000Y-119250000D02*
G75*
G03X121150000Y-120550000I1300000J0D01*
G01*
X112700000Y-119250000D02*
G75*
G03X121150000Y-127700000I8450000J0D01*
G01*
X117900000Y-119250000D02*
G75*
G03X121150000Y-122500000I3250000J0D01*
G01*
X119200000Y-119250000D02*
G75*
G03X121150000Y-121200000I1950000J0D01*
G01*
X114650000Y-119250000D02*
G75*
G03X121150000Y-125750000I6500000J0D01*
G01*
X106850000Y-119250000D02*
G75*
G03X121150000Y-133550000I14300000J0D01*
G01*
X108800000Y-119250000D02*
G75*
G03X121150000Y-131600000I12350000J0D01*
G01*
X117250000Y-119250000D02*
G75*
G03X121150000Y-123150000I3900000J0D01*
G01*
X106200000Y-119242446D02*
G75*
G03X121150000Y-134192446I14950000J0D01*
G01*
X114000000Y-119250000D02*
G75*
G03X121150000Y-126400000I7150000J0D01*
G01*
X108150000Y-119250000D02*
G75*
G03X121150000Y-132250000I13000000J0D01*
G01*
X175650000Y-134850000D02*
G75*
G03X191250000Y-119250000I0J15600000D01*
G01*
X175650000Y-134200000D02*
G75*
G03X190600000Y-119250000I0J14950000D01*
G01*
X175650000Y-133550000D02*
G75*
G03X189950000Y-119250000I0J14300000D01*
G01*
X175650000Y-132900000D02*
G75*
G03X189300000Y-119250000I0J13650000D01*
G01*
X175650000Y-132250000D02*
G75*
G03X188650000Y-119250000I0J13000000D01*
G01*
X175650000Y-131600000D02*
G75*
G03X188000000Y-119250000I0J12350000D01*
G01*
X175650000Y-130950000D02*
G75*
G03X187350000Y-119250000I0J11700000D01*
G01*
X175650000Y-130300000D02*
G75*
G03X186700000Y-119250000I0J11050000D01*
G01*
X175650000Y-129650000D02*
G75*
G03X186050000Y-119250000I0J10400000D01*
G01*
X175650000Y-129000000D02*
G75*
G03X185400000Y-119250000I0J9750000D01*
G01*
X175650000Y-128350000D02*
G75*
G03X184750000Y-119250000I0J9100000D01*
G01*
X175650000Y-127700000D02*
G75*
G03X184100000Y-119250000I0J8450000D01*
G01*
X175650000Y-127050000D02*
G75*
G03X183450000Y-119250000I0J7800000D01*
G01*
X175650000Y-126400000D02*
G75*
G03X182800000Y-119250000I0J7150000D01*
G01*
X175650000Y-125750000D02*
G75*
G03X182150000Y-119250000I0J6500000D01*
G01*
X175650000Y-125100000D02*
G75*
G03X181500000Y-119250000I0J5850000D01*
G01*
X175650000Y-124450000D02*
G75*
G03X180850000Y-119250000I0J5200000D01*
G01*
X175650000Y-123800000D02*
G75*
G03X180200000Y-119250000I0J4550000D01*
G01*
X175650000Y-123150000D02*
G75*
G03X179550000Y-119250000I0J3900000D01*
G01*
X175650000Y-122500000D02*
G75*
G03X178900000Y-119250000I0J3250000D01*
G01*
X175650000Y-121850000D02*
G75*
G03X178250000Y-119250000I0J2600000D01*
G01*
X175650000Y-121200000D02*
G75*
G03X177600000Y-119250000I0J1950000D01*
G01*
X175650000Y-120550000D02*
G75*
G03X176950000Y-119250000I0J1300000D01*
G01*
X175650000Y-119900000D02*
G75*
G03X176300000Y-119250000I0J650000D01*
G01*
X120900000Y-136000000D02*
X125150000Y-136000000D01*
D12*
X121650000Y-89750000D03*
X125400000Y-136000000D03*
D13*
X135500000Y-97500000D03*
X160498680Y-97500000D03*
D14*
X147500000Y-136000000D03*
D11*
X121650000Y-89750000D02*
X127750000Y-89750000D01*
X127750000Y-89750000D02*
X135500000Y-97500000D01*
X125400000Y-136000000D02*
X147500000Y-136000000D01*
M02*
