%TF.GenerationSoftware,KiCad,Pcbnew,4.0.7*%
%TF.CreationDate,2018-05-13T22:07:06+02:00*%
%TF.ProjectId,nestbox,6E657374626F782E6B696361645F7063,rev?*%
%TF.FileFunction,Soldermask,Top*%
%FSLAX46Y46*%
G04 Gerber Fmt 4.6, Leading zero omitted, Abs format (unit mm)*
G04 Created by KiCad (PCBNEW 4.0.7) date 05/13/18 22:07:06*
%MOMM*%
%LPD*%
G01*
G04 APERTURE LIST*
%ADD10C,0.150000*%
%ADD11C,5.400000*%
%ADD12C,1.500000*%
%ADD13R,1.390600X1.009600*%
%ADD14R,0.990000X1.610000*%
%ADD15R,1.150000X1.600000*%
%ADD16R,1.600000X1.150000*%
%ADD17R,2.100000X2.100000*%
%ADD18O,2.100000X2.100000*%
%ADD19R,1.600000X1.300000*%
%ADD20R,1.300000X1.600000*%
%ADD21C,1.840000*%
G04 APERTURE END LIST*
D10*
X155150000Y-121050000D02*
X156500000Y-121050000D01*
X156500000Y-93600000D02*
X156500000Y-121050000D01*
X113775000Y-93600000D02*
X156525000Y-93600000D01*
X113775000Y-121050000D02*
X113775000Y-93600000D01*
X155175000Y-121050000D02*
X113775000Y-121050000D01*
D11*
X147256500Y-116078000D03*
X152654000Y-97726500D03*
X118935500Y-116141500D03*
D12*
X122219450Y-104883950D03*
X122219450Y-108476050D03*
X125811550Y-108476050D03*
D13*
X135764220Y-108960200D03*
X135764220Y-109900000D03*
X135764220Y-110839800D03*
X138085780Y-110839800D03*
X138085780Y-109900000D03*
X138085780Y-108960200D03*
D14*
X146100000Y-108320000D03*
X145150000Y-108320000D03*
X144200000Y-108320000D03*
X144200000Y-110830000D03*
X146100000Y-110830000D03*
D15*
X130175000Y-116017000D03*
X130175000Y-117917000D03*
D16*
X132077500Y-112776000D03*
X130177500Y-112776000D03*
X140800000Y-118300000D03*
X138900000Y-118300000D03*
D17*
X152717500Y-104711500D03*
D18*
X152717500Y-107251500D03*
X152717500Y-109791500D03*
X152717500Y-112331500D03*
D19*
X138050000Y-104925000D03*
X135850000Y-104925000D03*
D20*
X126301500Y-112755500D03*
X126301500Y-114955500D03*
X132050000Y-108975000D03*
X132050000Y-106775000D03*
X135800000Y-114050000D03*
X135800000Y-116250000D03*
D19*
X141100000Y-114050000D03*
X138900000Y-114050000D03*
D21*
X143510000Y-97028000D03*
X146050000Y-99568000D03*
X143510000Y-102108000D03*
D15*
X149000000Y-102450000D03*
X149000000Y-100550000D03*
D11*
X118681500Y-98615500D03*
M02*
