G04 #@! TF.GenerationSoftware,KiCad,Pcbnew,(2017-06-12 revision 19d5cc754)-master*
G04 #@! TF.CreationDate,2018-06-07T02:47:23+02:00*
G04 #@! TF.ProjectId,nestbox,6E657374626F782E6B696361645F7063,rev?*
G04 #@! TF.FileFunction,Legend,Top*
G04 #@! TF.FilePolarity,Positive*
%FSLAX46Y46*%
G04 Gerber Fmt 4.6, Leading zero omitted, Abs format (unit mm)*
G04 Created by KiCad (PCBNEW (2017-06-12 revision 19d5cc754)-master) date 2018 June 07, Thursday 02:47:23*
%MOMM*%
%LPD*%
G01*
G04 APERTURE LIST*
%ADD10C,0.100000*%
%ADD11C,0.120000*%
%ADD12C,0.200000*%
%ADD13C,0.150000*%
%ADD14C,0.050000*%
G04 APERTURE END LIST*
D10*
D11*
X173801000Y-98840000D02*
X171901000Y-98840000D01*
X172401000Y-101160000D02*
X173801000Y-101160000D01*
X159671500Y-94453000D02*
X158971500Y-94453000D01*
X158971500Y-93253000D02*
X159671500Y-93253000D01*
X163287000Y-94455500D02*
X163287000Y-95155500D01*
X162087000Y-95155500D02*
X162087000Y-94455500D01*
X173451000Y-103470000D02*
X172751000Y-103470000D01*
X172751000Y-102270000D02*
X173451000Y-102270000D01*
X143987000Y-99596500D02*
X143287000Y-99596500D01*
X143287000Y-98396500D02*
X143987000Y-98396500D01*
X157525000Y-101163500D02*
X157525000Y-102163500D01*
X156165000Y-102163500D02*
X156165000Y-101163500D01*
X158821500Y-95078000D02*
X159821500Y-95078000D01*
X159821500Y-96438000D02*
X158821500Y-96438000D01*
X173410500Y-96565000D02*
X172410500Y-96565000D01*
X172410500Y-95205000D02*
X173410500Y-95205000D01*
X173601000Y-107490000D02*
X172601000Y-107490000D01*
X172601000Y-106130000D02*
X173601000Y-106130000D01*
X172601000Y-104160000D02*
X173601000Y-104160000D01*
X173601000Y-105520000D02*
X172601000Y-105520000D01*
X143010000Y-94951000D02*
X144010000Y-94951000D01*
X144010000Y-96311000D02*
X143010000Y-96311000D01*
X167963500Y-106988500D02*
X164903500Y-106988500D01*
X164903500Y-106988500D02*
X164903500Y-105228500D01*
X164903500Y-105228500D02*
X167963500Y-105228500D01*
X164903500Y-106983500D02*
X164903500Y-105233500D01*
X167963500Y-106983500D02*
X167963500Y-105233500D01*
X167963500Y-106988500D02*
X167963500Y-105228500D01*
D12*
X165383500Y-106578500D02*
G75*
G03X165383500Y-106578500I-100000J0D01*
G01*
D11*
X138497000Y-91507000D02*
X138497000Y-94167000D01*
X143637000Y-91507000D02*
X138497000Y-91507000D01*
X143637000Y-94167000D02*
X138497000Y-94167000D01*
X143637000Y-91507000D02*
X143637000Y-94167000D01*
X144907000Y-91507000D02*
X146237000Y-91507000D01*
X146237000Y-91507000D02*
X146237000Y-92837000D01*
D13*
X139475000Y-103050000D02*
X146275000Y-103050000D01*
X146275000Y-103050000D02*
X146275000Y-110240000D01*
X146275000Y-110240000D02*
X139475000Y-110240000D01*
X139475000Y-110240000D02*
X139475000Y-103050000D01*
X172386714Y-98166666D02*
X172862904Y-98166666D01*
X172291476Y-98452380D02*
X172624809Y-97452380D01*
X172958142Y-98452380D01*
X173815285Y-98452380D02*
X173243857Y-98452380D01*
X173529571Y-98452380D02*
X173529571Y-97452380D01*
X173434333Y-97595238D01*
X173339095Y-97690476D01*
X173243857Y-97738095D01*
X159154833Y-92760142D02*
X159107214Y-92807761D01*
X158964357Y-92855380D01*
X158869119Y-92855380D01*
X158726261Y-92807761D01*
X158631023Y-92712523D01*
X158583404Y-92617285D01*
X158535785Y-92426809D01*
X158535785Y-92283952D01*
X158583404Y-92093476D01*
X158631023Y-91998238D01*
X158726261Y-91903000D01*
X158869119Y-91855380D01*
X158964357Y-91855380D01*
X159107214Y-91903000D01*
X159154833Y-91950619D01*
X160107214Y-92855380D02*
X159535785Y-92855380D01*
X159821500Y-92855380D02*
X159821500Y-91855380D01*
X159726261Y-91998238D01*
X159631023Y-92093476D01*
X159535785Y-92141095D01*
X164494142Y-94972166D02*
X164541761Y-95019785D01*
X164589380Y-95162642D01*
X164589380Y-95257880D01*
X164541761Y-95400738D01*
X164446523Y-95495976D01*
X164351285Y-95543595D01*
X164160809Y-95591214D01*
X164017952Y-95591214D01*
X163827476Y-95543595D01*
X163732238Y-95495976D01*
X163637000Y-95400738D01*
X163589380Y-95257880D01*
X163589380Y-95162642D01*
X163637000Y-95019785D01*
X163684619Y-94972166D01*
X163684619Y-94591214D02*
X163637000Y-94543595D01*
X163589380Y-94448357D01*
X163589380Y-94210261D01*
X163637000Y-94115023D01*
X163684619Y-94067404D01*
X163779857Y-94019785D01*
X163875095Y-94019785D01*
X164017952Y-94067404D01*
X164589380Y-94638833D01*
X164589380Y-94019785D01*
X176084333Y-103227142D02*
X176036714Y-103274761D01*
X175893857Y-103322380D01*
X175798619Y-103322380D01*
X175655761Y-103274761D01*
X175560523Y-103179523D01*
X175512904Y-103084285D01*
X175465285Y-102893809D01*
X175465285Y-102750952D01*
X175512904Y-102560476D01*
X175560523Y-102465238D01*
X175655761Y-102370000D01*
X175798619Y-102322380D01*
X175893857Y-102322380D01*
X176036714Y-102370000D01*
X176084333Y-102417619D01*
X176417666Y-102322380D02*
X177036714Y-102322380D01*
X176703380Y-102703333D01*
X176846238Y-102703333D01*
X176941476Y-102750952D01*
X176989095Y-102798571D01*
X177036714Y-102893809D01*
X177036714Y-103131904D01*
X176989095Y-103227142D01*
X176941476Y-103274761D01*
X176846238Y-103322380D01*
X176560523Y-103322380D01*
X176465285Y-103274761D01*
X176417666Y-103227142D01*
X141644142Y-99163166D02*
X141691761Y-99210785D01*
X141739380Y-99353642D01*
X141739380Y-99448880D01*
X141691761Y-99591738D01*
X141596523Y-99686976D01*
X141501285Y-99734595D01*
X141310809Y-99782214D01*
X141167952Y-99782214D01*
X140977476Y-99734595D01*
X140882238Y-99686976D01*
X140787000Y-99591738D01*
X140739380Y-99448880D01*
X140739380Y-99353642D01*
X140787000Y-99210785D01*
X140834619Y-99163166D01*
X141072714Y-98306023D02*
X141739380Y-98306023D01*
X140691761Y-98544119D02*
X141406047Y-98782214D01*
X141406047Y-98163166D01*
X155847380Y-101830166D02*
X155371190Y-102163500D01*
X155847380Y-102401595D02*
X154847380Y-102401595D01*
X154847380Y-102020642D01*
X154895000Y-101925404D01*
X154942619Y-101877785D01*
X155037857Y-101830166D01*
X155180714Y-101830166D01*
X155275952Y-101877785D01*
X155323571Y-101925404D01*
X155371190Y-102020642D01*
X155371190Y-102401595D01*
X155847380Y-100877785D02*
X155847380Y-101449214D01*
X155847380Y-101163500D02*
X154847380Y-101163500D01*
X154990238Y-101258738D01*
X155085476Y-101353976D01*
X155133095Y-101449214D01*
X159154833Y-97660380D02*
X158821500Y-97184190D01*
X158583404Y-97660380D02*
X158583404Y-96660380D01*
X158964357Y-96660380D01*
X159059595Y-96708000D01*
X159107214Y-96755619D01*
X159154833Y-96850857D01*
X159154833Y-96993714D01*
X159107214Y-97088952D01*
X159059595Y-97136571D01*
X158964357Y-97184190D01*
X158583404Y-97184190D01*
X159535785Y-96755619D02*
X159583404Y-96708000D01*
X159678642Y-96660380D01*
X159916738Y-96660380D01*
X160011976Y-96708000D01*
X160059595Y-96755619D01*
X160107214Y-96850857D01*
X160107214Y-96946095D01*
X160059595Y-97088952D01*
X159488166Y-97660380D01*
X160107214Y-97660380D01*
X172743833Y-94987380D02*
X172410500Y-94511190D01*
X172172404Y-94987380D02*
X172172404Y-93987380D01*
X172553357Y-93987380D01*
X172648595Y-94035000D01*
X172696214Y-94082619D01*
X172743833Y-94177857D01*
X172743833Y-94320714D01*
X172696214Y-94415952D01*
X172648595Y-94463571D01*
X172553357Y-94511190D01*
X172172404Y-94511190D01*
X173077166Y-93987380D02*
X173696214Y-93987380D01*
X173362880Y-94368333D01*
X173505738Y-94368333D01*
X173600976Y-94415952D01*
X173648595Y-94463571D01*
X173696214Y-94558809D01*
X173696214Y-94796904D01*
X173648595Y-94892142D01*
X173600976Y-94939761D01*
X173505738Y-94987380D01*
X173220023Y-94987380D01*
X173124785Y-94939761D01*
X173077166Y-94892142D01*
X176084333Y-107262380D02*
X175751000Y-106786190D01*
X175512904Y-107262380D02*
X175512904Y-106262380D01*
X175893857Y-106262380D01*
X175989095Y-106310000D01*
X176036714Y-106357619D01*
X176084333Y-106452857D01*
X176084333Y-106595714D01*
X176036714Y-106690952D01*
X175989095Y-106738571D01*
X175893857Y-106786190D01*
X175512904Y-106786190D01*
X176941476Y-106595714D02*
X176941476Y-107262380D01*
X176703380Y-106214761D02*
X176465285Y-106929047D01*
X177084333Y-106929047D01*
X176084333Y-105292380D02*
X175751000Y-104816190D01*
X175512904Y-105292380D02*
X175512904Y-104292380D01*
X175893857Y-104292380D01*
X175989095Y-104340000D01*
X176036714Y-104387619D01*
X176084333Y-104482857D01*
X176084333Y-104625714D01*
X176036714Y-104720952D01*
X175989095Y-104768571D01*
X175893857Y-104816190D01*
X175512904Y-104816190D01*
X176989095Y-104292380D02*
X176512904Y-104292380D01*
X176465285Y-104768571D01*
X176512904Y-104720952D01*
X176608142Y-104673333D01*
X176846238Y-104673333D01*
X176941476Y-104720952D01*
X176989095Y-104768571D01*
X177036714Y-104863809D01*
X177036714Y-105101904D01*
X176989095Y-105197142D01*
X176941476Y-105244761D01*
X176846238Y-105292380D01*
X176608142Y-105292380D01*
X176512904Y-105244761D01*
X176465285Y-105197142D01*
X143343333Y-97533380D02*
X143010000Y-97057190D01*
X142771904Y-97533380D02*
X142771904Y-96533380D01*
X143152857Y-96533380D01*
X143248095Y-96581000D01*
X143295714Y-96628619D01*
X143343333Y-96723857D01*
X143343333Y-96866714D01*
X143295714Y-96961952D01*
X143248095Y-97009571D01*
X143152857Y-97057190D01*
X142771904Y-97057190D01*
X144200476Y-96533380D02*
X144010000Y-96533380D01*
X143914761Y-96581000D01*
X143867142Y-96628619D01*
X143771904Y-96771476D01*
X143724285Y-96961952D01*
X143724285Y-97342904D01*
X143771904Y-97438142D01*
X143819523Y-97485761D01*
X143914761Y-97533380D01*
X144105238Y-97533380D01*
X144200476Y-97485761D01*
X144248095Y-97438142D01*
X144295714Y-97342904D01*
X144295714Y-97104809D01*
X144248095Y-97009571D01*
X144200476Y-96961952D01*
X144105238Y-96914333D01*
X143914761Y-96914333D01*
X143819523Y-96961952D01*
X143771904Y-97009571D01*
X143724285Y-97104809D01*
X165862071Y-102997785D02*
X165862071Y-103604928D01*
X165897785Y-103676357D01*
X165933500Y-103712071D01*
X166004928Y-103747785D01*
X166147785Y-103747785D01*
X166219214Y-103712071D01*
X166254928Y-103676357D01*
X166290642Y-103604928D01*
X166290642Y-102997785D01*
X167040642Y-103747785D02*
X166612071Y-103747785D01*
X166826357Y-103747785D02*
X166826357Y-102997785D01*
X166754928Y-103104928D01*
X166683500Y-103176357D01*
X166612071Y-103212071D01*
D14*
D13*
X147689380Y-93575095D02*
X146689380Y-93575095D01*
X146689380Y-93194142D01*
X146737000Y-93098904D01*
X146784619Y-93051285D01*
X146879857Y-93003666D01*
X147022714Y-93003666D01*
X147117952Y-93051285D01*
X147165571Y-93098904D01*
X147213190Y-93194142D01*
X147213190Y-93575095D01*
X147689380Y-92051285D02*
X147689380Y-92622714D01*
X147689380Y-92337000D02*
X146689380Y-92337000D01*
X146832238Y-92432238D01*
X146927476Y-92527476D01*
X146975095Y-92622714D01*
X142533761Y-111704380D02*
X142200428Y-111228190D01*
X141962333Y-111704380D02*
X141962333Y-110704380D01*
X142343285Y-110704380D01*
X142438523Y-110752000D01*
X142486142Y-110799619D01*
X142533761Y-110894857D01*
X142533761Y-111037714D01*
X142486142Y-111132952D01*
X142438523Y-111180571D01*
X142343285Y-111228190D01*
X141962333Y-111228190D01*
X142819476Y-110704380D02*
X143152809Y-111704380D01*
X143486142Y-110704380D01*
X144343285Y-111704380D02*
X143771857Y-111704380D01*
X144057571Y-111704380D02*
X144057571Y-110704380D01*
X143962333Y-110847238D01*
X143867095Y-110942476D01*
X143771857Y-110990095D01*
M02*
