G04 #@! TF.FileFunction,Legend,Top*
%FSLAX46Y46*%
G04 Gerber Fmt 4.6, Leading zero omitted, Abs format (unit mm)*
G04 Created by KiCad (PCBNEW 4.0.7) date 06/03/18 17:49:00*
%MOMM*%
%LPD*%
G01*
G04 APERTURE LIST*
%ADD10C,0.100000*%
%ADD11C,0.120000*%
%ADD12C,0.200000*%
%ADD13C,0.150000*%
%ADD14C,0.050000*%
G04 APERTURE END LIST*
D10*
D11*
X173801000Y-98840000D02*
X171901000Y-98840000D01*
X172401000Y-101160000D02*
X173801000Y-101160000D01*
X159671500Y-94453000D02*
X158971500Y-94453000D01*
X158971500Y-93253000D02*
X159671500Y-93253000D01*
X163287000Y-94455500D02*
X163287000Y-95155500D01*
X162087000Y-95155500D02*
X162087000Y-94455500D01*
X173451000Y-103470000D02*
X172751000Y-103470000D01*
X172751000Y-102270000D02*
X173451000Y-102270000D01*
X143987000Y-99596500D02*
X143287000Y-99596500D01*
X143287000Y-98396500D02*
X143987000Y-98396500D01*
X157525000Y-101163500D02*
X157525000Y-102163500D01*
X156165000Y-102163500D02*
X156165000Y-101163500D01*
X158821500Y-95078000D02*
X159821500Y-95078000D01*
X159821500Y-96438000D02*
X158821500Y-96438000D01*
X173410500Y-96565000D02*
X172410500Y-96565000D01*
X172410500Y-95205000D02*
X173410500Y-95205000D01*
X173601000Y-107490000D02*
X172601000Y-107490000D01*
X172601000Y-106130000D02*
X173601000Y-106130000D01*
X172601000Y-104160000D02*
X173601000Y-104160000D01*
X173601000Y-105520000D02*
X172601000Y-105520000D01*
X143010000Y-94951000D02*
X144010000Y-94951000D01*
X144010000Y-96311000D02*
X143010000Y-96311000D01*
X167963500Y-106988500D02*
X164903500Y-106988500D01*
X164903500Y-106988500D02*
X164903500Y-105228500D01*
X164903500Y-105228500D02*
X167963500Y-105228500D01*
X164903500Y-106983500D02*
X164903500Y-105233500D01*
X167963500Y-106983500D02*
X167963500Y-105233500D01*
X167963500Y-106988500D02*
X167963500Y-105228500D01*
D12*
X165383500Y-106578500D02*
G75*
G03X165383500Y-106578500I-100000J0D01*
G01*
D11*
X138497000Y-91507000D02*
X138497000Y-94167000D01*
X143637000Y-91507000D02*
X138497000Y-91507000D01*
X143637000Y-94167000D02*
X138497000Y-94167000D01*
X143637000Y-91507000D02*
X143637000Y-94167000D01*
X144907000Y-91507000D02*
X146237000Y-91507000D01*
X146237000Y-91507000D02*
X146237000Y-92837000D01*
D13*
X139475000Y-103050000D02*
X146275000Y-103050000D01*
X146275000Y-103050000D02*
X146275000Y-110240000D01*
X146275000Y-110240000D02*
X139475000Y-110240000D01*
X139475000Y-110240000D02*
X139475000Y-103050000D01*
X172386714Y-98166667D02*
X172862905Y-98166667D01*
X172291476Y-98452381D02*
X172624809Y-97452381D01*
X172958143Y-98452381D01*
X173815286Y-98452381D02*
X173243857Y-98452381D01*
X173529571Y-98452381D02*
X173529571Y-97452381D01*
X173434333Y-97595238D01*
X173339095Y-97690476D01*
X173243857Y-97738095D01*
X159154834Y-92760143D02*
X159107215Y-92807762D01*
X158964358Y-92855381D01*
X158869120Y-92855381D01*
X158726262Y-92807762D01*
X158631024Y-92712524D01*
X158583405Y-92617286D01*
X158535786Y-92426810D01*
X158535786Y-92283952D01*
X158583405Y-92093476D01*
X158631024Y-91998238D01*
X158726262Y-91903000D01*
X158869120Y-91855381D01*
X158964358Y-91855381D01*
X159107215Y-91903000D01*
X159154834Y-91950619D01*
X160107215Y-92855381D02*
X159535786Y-92855381D01*
X159821500Y-92855381D02*
X159821500Y-91855381D01*
X159726262Y-91998238D01*
X159631024Y-92093476D01*
X159535786Y-92141095D01*
X164494143Y-94972166D02*
X164541762Y-95019785D01*
X164589381Y-95162642D01*
X164589381Y-95257880D01*
X164541762Y-95400738D01*
X164446524Y-95495976D01*
X164351286Y-95543595D01*
X164160810Y-95591214D01*
X164017952Y-95591214D01*
X163827476Y-95543595D01*
X163732238Y-95495976D01*
X163637000Y-95400738D01*
X163589381Y-95257880D01*
X163589381Y-95162642D01*
X163637000Y-95019785D01*
X163684619Y-94972166D01*
X163684619Y-94591214D02*
X163637000Y-94543595D01*
X163589381Y-94448357D01*
X163589381Y-94210261D01*
X163637000Y-94115023D01*
X163684619Y-94067404D01*
X163779857Y-94019785D01*
X163875095Y-94019785D01*
X164017952Y-94067404D01*
X164589381Y-94638833D01*
X164589381Y-94019785D01*
X176084334Y-103227143D02*
X176036715Y-103274762D01*
X175893858Y-103322381D01*
X175798620Y-103322381D01*
X175655762Y-103274762D01*
X175560524Y-103179524D01*
X175512905Y-103084286D01*
X175465286Y-102893810D01*
X175465286Y-102750952D01*
X175512905Y-102560476D01*
X175560524Y-102465238D01*
X175655762Y-102370000D01*
X175798620Y-102322381D01*
X175893858Y-102322381D01*
X176036715Y-102370000D01*
X176084334Y-102417619D01*
X176417667Y-102322381D02*
X177036715Y-102322381D01*
X176703381Y-102703333D01*
X176846239Y-102703333D01*
X176941477Y-102750952D01*
X176989096Y-102798571D01*
X177036715Y-102893810D01*
X177036715Y-103131905D01*
X176989096Y-103227143D01*
X176941477Y-103274762D01*
X176846239Y-103322381D01*
X176560524Y-103322381D01*
X176465286Y-103274762D01*
X176417667Y-103227143D01*
X141644143Y-99163166D02*
X141691762Y-99210785D01*
X141739381Y-99353642D01*
X141739381Y-99448880D01*
X141691762Y-99591738D01*
X141596524Y-99686976D01*
X141501286Y-99734595D01*
X141310810Y-99782214D01*
X141167952Y-99782214D01*
X140977476Y-99734595D01*
X140882238Y-99686976D01*
X140787000Y-99591738D01*
X140739381Y-99448880D01*
X140739381Y-99353642D01*
X140787000Y-99210785D01*
X140834619Y-99163166D01*
X141072714Y-98306023D02*
X141739381Y-98306023D01*
X140691762Y-98544119D02*
X141406048Y-98782214D01*
X141406048Y-98163166D01*
X155847381Y-101830166D02*
X155371190Y-102163500D01*
X155847381Y-102401595D02*
X154847381Y-102401595D01*
X154847381Y-102020642D01*
X154895000Y-101925404D01*
X154942619Y-101877785D01*
X155037857Y-101830166D01*
X155180714Y-101830166D01*
X155275952Y-101877785D01*
X155323571Y-101925404D01*
X155371190Y-102020642D01*
X155371190Y-102401595D01*
X155847381Y-100877785D02*
X155847381Y-101449214D01*
X155847381Y-101163500D02*
X154847381Y-101163500D01*
X154990238Y-101258738D01*
X155085476Y-101353976D01*
X155133095Y-101449214D01*
X159154834Y-97660381D02*
X158821500Y-97184190D01*
X158583405Y-97660381D02*
X158583405Y-96660381D01*
X158964358Y-96660381D01*
X159059596Y-96708000D01*
X159107215Y-96755619D01*
X159154834Y-96850857D01*
X159154834Y-96993714D01*
X159107215Y-97088952D01*
X159059596Y-97136571D01*
X158964358Y-97184190D01*
X158583405Y-97184190D01*
X159535786Y-96755619D02*
X159583405Y-96708000D01*
X159678643Y-96660381D01*
X159916739Y-96660381D01*
X160011977Y-96708000D01*
X160059596Y-96755619D01*
X160107215Y-96850857D01*
X160107215Y-96946095D01*
X160059596Y-97088952D01*
X159488167Y-97660381D01*
X160107215Y-97660381D01*
X172743834Y-94987381D02*
X172410500Y-94511190D01*
X172172405Y-94987381D02*
X172172405Y-93987381D01*
X172553358Y-93987381D01*
X172648596Y-94035000D01*
X172696215Y-94082619D01*
X172743834Y-94177857D01*
X172743834Y-94320714D01*
X172696215Y-94415952D01*
X172648596Y-94463571D01*
X172553358Y-94511190D01*
X172172405Y-94511190D01*
X173077167Y-93987381D02*
X173696215Y-93987381D01*
X173362881Y-94368333D01*
X173505739Y-94368333D01*
X173600977Y-94415952D01*
X173648596Y-94463571D01*
X173696215Y-94558810D01*
X173696215Y-94796905D01*
X173648596Y-94892143D01*
X173600977Y-94939762D01*
X173505739Y-94987381D01*
X173220024Y-94987381D01*
X173124786Y-94939762D01*
X173077167Y-94892143D01*
X176084334Y-107262381D02*
X175751000Y-106786190D01*
X175512905Y-107262381D02*
X175512905Y-106262381D01*
X175893858Y-106262381D01*
X175989096Y-106310000D01*
X176036715Y-106357619D01*
X176084334Y-106452857D01*
X176084334Y-106595714D01*
X176036715Y-106690952D01*
X175989096Y-106738571D01*
X175893858Y-106786190D01*
X175512905Y-106786190D01*
X176941477Y-106595714D02*
X176941477Y-107262381D01*
X176703381Y-106214762D02*
X176465286Y-106929048D01*
X177084334Y-106929048D01*
X176084334Y-105292381D02*
X175751000Y-104816190D01*
X175512905Y-105292381D02*
X175512905Y-104292381D01*
X175893858Y-104292381D01*
X175989096Y-104340000D01*
X176036715Y-104387619D01*
X176084334Y-104482857D01*
X176084334Y-104625714D01*
X176036715Y-104720952D01*
X175989096Y-104768571D01*
X175893858Y-104816190D01*
X175512905Y-104816190D01*
X176989096Y-104292381D02*
X176512905Y-104292381D01*
X176465286Y-104768571D01*
X176512905Y-104720952D01*
X176608143Y-104673333D01*
X176846239Y-104673333D01*
X176941477Y-104720952D01*
X176989096Y-104768571D01*
X177036715Y-104863810D01*
X177036715Y-105101905D01*
X176989096Y-105197143D01*
X176941477Y-105244762D01*
X176846239Y-105292381D01*
X176608143Y-105292381D01*
X176512905Y-105244762D01*
X176465286Y-105197143D01*
X143343334Y-97533381D02*
X143010000Y-97057190D01*
X142771905Y-97533381D02*
X142771905Y-96533381D01*
X143152858Y-96533381D01*
X143248096Y-96581000D01*
X143295715Y-96628619D01*
X143343334Y-96723857D01*
X143343334Y-96866714D01*
X143295715Y-96961952D01*
X143248096Y-97009571D01*
X143152858Y-97057190D01*
X142771905Y-97057190D01*
X144200477Y-96533381D02*
X144010000Y-96533381D01*
X143914762Y-96581000D01*
X143867143Y-96628619D01*
X143771905Y-96771476D01*
X143724286Y-96961952D01*
X143724286Y-97342905D01*
X143771905Y-97438143D01*
X143819524Y-97485762D01*
X143914762Y-97533381D01*
X144105239Y-97533381D01*
X144200477Y-97485762D01*
X144248096Y-97438143D01*
X144295715Y-97342905D01*
X144295715Y-97104810D01*
X144248096Y-97009571D01*
X144200477Y-96961952D01*
X144105239Y-96914333D01*
X143914762Y-96914333D01*
X143819524Y-96961952D01*
X143771905Y-97009571D01*
X143724286Y-97104810D01*
X165862071Y-102997786D02*
X165862071Y-103604929D01*
X165897786Y-103676357D01*
X165933500Y-103712071D01*
X166004929Y-103747786D01*
X166147786Y-103747786D01*
X166219214Y-103712071D01*
X166254929Y-103676357D01*
X166290643Y-103604929D01*
X166290643Y-102997786D01*
X167040643Y-103747786D02*
X166612071Y-103747786D01*
X166826357Y-103747786D02*
X166826357Y-102997786D01*
X166754928Y-103104929D01*
X166683500Y-103176357D01*
X166612071Y-103212071D01*
D14*
D13*
X147689381Y-93575095D02*
X146689381Y-93575095D01*
X146689381Y-93194142D01*
X146737000Y-93098904D01*
X146784619Y-93051285D01*
X146879857Y-93003666D01*
X147022714Y-93003666D01*
X147117952Y-93051285D01*
X147165571Y-93098904D01*
X147213190Y-93194142D01*
X147213190Y-93575095D01*
X147689381Y-92051285D02*
X147689381Y-92622714D01*
X147689381Y-92337000D02*
X146689381Y-92337000D01*
X146832238Y-92432238D01*
X146927476Y-92527476D01*
X146975095Y-92622714D01*
X142533762Y-111704381D02*
X142200428Y-111228190D01*
X141962333Y-111704381D02*
X141962333Y-110704381D01*
X142343286Y-110704381D01*
X142438524Y-110752000D01*
X142486143Y-110799619D01*
X142533762Y-110894857D01*
X142533762Y-111037714D01*
X142486143Y-111132952D01*
X142438524Y-111180571D01*
X142343286Y-111228190D01*
X141962333Y-111228190D01*
X142819476Y-110704381D02*
X143152809Y-111704381D01*
X143486143Y-110704381D01*
X144343286Y-111704381D02*
X143771857Y-111704381D01*
X144057571Y-111704381D02*
X144057571Y-110704381D01*
X143962333Y-110847238D01*
X143867095Y-110942476D01*
X143771857Y-110990095D01*
M02*
