G04 #@! TF.FileFunction,Copper,L2,Bot,Signal*
%FSLAX46Y46*%
G04 Gerber Fmt 4.6, Leading zero omitted, Abs format (unit mm)*
G04 Created by KiCad (PCBNEW 4.0.4-stable) date 2017 March 07, Tuesday 22:42:02*
%MOMM*%
%LPD*%
G01*
G04 APERTURE LIST*
%ADD10C,0.100000*%
%ADD11C,1.270000*%
%ADD12C,0.600000*%
%ADD13R,2.032000X2.032000*%
%ADD14O,2.032000X2.032000*%
%ADD15R,2.000000X2.600000*%
%ADD16O,2.000000X2.600000*%
%ADD17R,1.727200X2.032000*%
%ADD18O,1.727200X2.032000*%
%ADD19R,1.800860X1.597660*%
%ADD20C,1.524000*%
%ADD21C,0.900000*%
%ADD22C,0.600000*%
%ADD23C,0.250000*%
%ADD24C,0.400000*%
%ADD25C,0.900000*%
%ADD26C,0.254000*%
G04 APERTURE END LIST*
D10*
D11*
X148650000Y-84470000D02*
X144650000Y-86470000D01*
D12*
X98900000Y-127200000D03*
X97800000Y-131500000D03*
X100900000Y-130400000D03*
X102600000Y-130300000D03*
X149500000Y-130500000D03*
X151500000Y-130500000D03*
X150500000Y-130000000D03*
X195000000Y-116000000D03*
X195000000Y-114000000D03*
X195000000Y-112000000D03*
X127000000Y-120126000D03*
X128994000Y-120126000D03*
X126000000Y-122000000D03*
X128000000Y-125000000D03*
X130000000Y-125000000D03*
X110500000Y-134500000D03*
X111000000Y-132500000D03*
X111000000Y-131000000D03*
X111000000Y-129500000D03*
X108000000Y-129500000D03*
X108000000Y-131000000D03*
X108000000Y-132500000D03*
X105500000Y-132500000D03*
X105500000Y-131000000D03*
X105500000Y-129500000D03*
X104000000Y-141500000D03*
X105000000Y-141500000D03*
X106000000Y-141500000D03*
X106000000Y-140000000D03*
X107000000Y-140000000D03*
X107000000Y-141500000D03*
X115000000Y-141500000D03*
X114000000Y-141000000D03*
X114000000Y-139000000D03*
X115000000Y-130000000D03*
X115000000Y-132000000D03*
X118000000Y-137000000D03*
X118000000Y-135000000D03*
X117000000Y-136000000D03*
X117000000Y-138000000D03*
X137000000Y-118000000D03*
X135000000Y-116000000D03*
X137000000Y-116000000D03*
X130000000Y-119000000D03*
X128000000Y-119000000D03*
X126000000Y-119000000D03*
X137000000Y-114000000D03*
X135000000Y-114000000D03*
X141000000Y-114000000D03*
X139000000Y-114000000D03*
X117000000Y-114000000D03*
X119000000Y-114000000D03*
X133000000Y-114000000D03*
X131000000Y-114000000D03*
X129000000Y-114000000D03*
X127000000Y-114000000D03*
X123000000Y-114000000D03*
X121000000Y-114000000D03*
X125000000Y-114000000D03*
X115000000Y-114000000D03*
X125000000Y-112000000D03*
X123000000Y-112000000D03*
X129000000Y-112000000D03*
X127000000Y-112000000D03*
X105000000Y-112000000D03*
X107000000Y-112000000D03*
X121000000Y-112000000D03*
X119000000Y-112000000D03*
X117000000Y-112000000D03*
X115000000Y-112000000D03*
X111000000Y-112000000D03*
X109000000Y-112000000D03*
X113000000Y-112000000D03*
X103000000Y-112000000D03*
X137000000Y-112000000D03*
X135000000Y-112000000D03*
X141000000Y-112000000D03*
X139000000Y-112000000D03*
X117000000Y-112000000D03*
X119000000Y-112000000D03*
X133000000Y-112000000D03*
X131000000Y-112000000D03*
X129000000Y-112000000D03*
X127000000Y-112000000D03*
X123000000Y-112000000D03*
X121000000Y-112000000D03*
X125000000Y-112000000D03*
X115000000Y-112000000D03*
X155000000Y-126000000D03*
X157000000Y-124000000D03*
X157000000Y-122000000D03*
X157000000Y-129000000D03*
X157000000Y-131000000D03*
X159000000Y-129000000D03*
X159000000Y-126000000D03*
X161000000Y-127000000D03*
X161000000Y-121000000D03*
X161000000Y-123000000D03*
X161000000Y-125000000D03*
X163000000Y-125000000D03*
X163000000Y-123000000D03*
X163000000Y-121000000D03*
X165000000Y-121000000D03*
X165000000Y-123000000D03*
X165000000Y-125000000D03*
X163000000Y-127000000D03*
X161000000Y-129000000D03*
X159000000Y-131000000D03*
X157000000Y-133000000D03*
X181000000Y-121000000D03*
X181000000Y-123000000D03*
X173000000Y-125000000D03*
X167000000Y-131000000D03*
X167000000Y-131000000D03*
X167000000Y-133000000D03*
X167000000Y-133000000D03*
X167000000Y-133000000D03*
X167000000Y-131000000D03*
X165000000Y-133000000D03*
X165000000Y-135000000D03*
X167000000Y-135000000D03*
X167000000Y-133000000D03*
X177000000Y-139000000D03*
X175000000Y-141000000D03*
X175000000Y-139000000D03*
X177000000Y-141000000D03*
X175000000Y-137000000D03*
X177000000Y-133000000D03*
X175000000Y-133000000D03*
X175000000Y-135000000D03*
X175000000Y-137000000D03*
X175000000Y-137000000D03*
X181000000Y-137000000D03*
X181000000Y-137000000D03*
X183000000Y-135000000D03*
X181000000Y-135000000D03*
X179000000Y-137000000D03*
X177000000Y-137000000D03*
X177000000Y-137000000D03*
X177000000Y-137000000D03*
X179000000Y-135000000D03*
X177000000Y-135000000D03*
X179000000Y-137000000D03*
X179000000Y-137000000D03*
X179000000Y-141000000D03*
X179000000Y-139000000D03*
X179000000Y-141000000D03*
X181000000Y-141000000D03*
X181000000Y-139000000D03*
X179000000Y-139000000D03*
X183000000Y-137000000D03*
X183000000Y-139000000D03*
X183000000Y-137000000D03*
X181000000Y-133000000D03*
X183000000Y-133000000D03*
X179000000Y-133000000D03*
X171000000Y-133000000D03*
X169000000Y-135000000D03*
X169000000Y-133000000D03*
X171000000Y-135000000D03*
X169000000Y-131000000D03*
X171000000Y-127000000D03*
X163000000Y-135000000D03*
X169000000Y-129000000D03*
X169000000Y-131000000D03*
X169000000Y-131000000D03*
X175000000Y-131000000D03*
X175000000Y-131000000D03*
X177000000Y-129000000D03*
X175000000Y-129000000D03*
X173000000Y-131000000D03*
X171000000Y-131000000D03*
X171000000Y-131000000D03*
X171000000Y-131000000D03*
X173000000Y-129000000D03*
X171000000Y-129000000D03*
X173000000Y-131000000D03*
X173000000Y-131000000D03*
X173000000Y-135000000D03*
X173000000Y-133000000D03*
X173000000Y-135000000D03*
X175000000Y-135000000D03*
X175000000Y-133000000D03*
X173000000Y-133000000D03*
X177000000Y-135000000D03*
X177000000Y-131000000D03*
X177000000Y-133000000D03*
X177000000Y-131000000D03*
X175000000Y-127000000D03*
X177000000Y-127000000D03*
X173000000Y-127000000D03*
X177000000Y-131000000D03*
X175000000Y-133000000D03*
X175000000Y-131000000D03*
X177000000Y-133000000D03*
X175000000Y-129000000D03*
X177000000Y-125000000D03*
X175000000Y-125000000D03*
X175000000Y-127000000D03*
X175000000Y-129000000D03*
X175000000Y-129000000D03*
X181000000Y-129000000D03*
X181000000Y-129000000D03*
X183000000Y-127000000D03*
X181000000Y-127000000D03*
X179000000Y-129000000D03*
X177000000Y-129000000D03*
X177000000Y-129000000D03*
X177000000Y-129000000D03*
X179000000Y-127000000D03*
X177000000Y-127000000D03*
X179000000Y-129000000D03*
X179000000Y-129000000D03*
X179000000Y-133000000D03*
X179000000Y-131000000D03*
X179000000Y-133000000D03*
X181000000Y-133000000D03*
X181000000Y-131000000D03*
X179000000Y-131000000D03*
X183000000Y-133000000D03*
X183000000Y-129000000D03*
X183000000Y-131000000D03*
X183000000Y-129000000D03*
X181000000Y-125000000D03*
X183000000Y-125000000D03*
X179000000Y-125000000D03*
X190000000Y-128000000D03*
X192000000Y-130000000D03*
X192000000Y-128000000D03*
X190000000Y-130000000D03*
X188000000Y-126000000D03*
X192000000Y-126000000D03*
X188000000Y-130000000D03*
X188000000Y-128000000D03*
X190000000Y-126000000D03*
X188000000Y-140000000D03*
X190000000Y-140000000D03*
X186000000Y-138000000D03*
X190000000Y-138000000D03*
X186000000Y-140000000D03*
X188000000Y-138000000D03*
X186000000Y-126000000D03*
X186000000Y-126000000D03*
X190000000Y-126000000D03*
X188000000Y-126000000D03*
X188000000Y-124000000D03*
X190000000Y-124000000D03*
X188000000Y-126000000D03*
X190000000Y-126000000D03*
X186000000Y-122000000D03*
X190000000Y-122000000D03*
X188000000Y-122000000D03*
X186000000Y-124000000D03*
X194000000Y-136000000D03*
X192000000Y-136000000D03*
X192000000Y-134000000D03*
X194000000Y-132000000D03*
X194000000Y-134000000D03*
X192000000Y-132000000D03*
X192000000Y-140000000D03*
X194000000Y-138000000D03*
X194000000Y-140000000D03*
X192000000Y-138000000D03*
X194000000Y-130000000D03*
X192000000Y-130000000D03*
X192000000Y-128000000D03*
X194000000Y-126000000D03*
X194000000Y-128000000D03*
X192000000Y-126000000D03*
X194000000Y-126000000D03*
X192000000Y-126000000D03*
X192000000Y-124000000D03*
X194000000Y-122000000D03*
X194000000Y-124000000D03*
X192000000Y-122000000D03*
X183000000Y-118000000D03*
X185000000Y-118000000D03*
X175000000Y-116000000D03*
X173000000Y-116000000D03*
X173000000Y-118000000D03*
X171000000Y-118000000D03*
X171000000Y-116000000D03*
X171000000Y-116000000D03*
X171000000Y-118000000D03*
X169000000Y-118000000D03*
X169000000Y-116000000D03*
X155000000Y-116000000D03*
X153000000Y-116000000D03*
X149000000Y-114000000D03*
X153000000Y-114000000D03*
X151000000Y-114000000D03*
X149000000Y-112000000D03*
X153000000Y-112000000D03*
X151000000Y-112000000D03*
X161000000Y-116000000D03*
X161000000Y-114000000D03*
X163000000Y-116000000D03*
X157000000Y-114000000D03*
X155000000Y-114000000D03*
X159000000Y-114000000D03*
X159000000Y-116000000D03*
X157000000Y-116000000D03*
X157000000Y-112000000D03*
X161000000Y-112000000D03*
X159000000Y-112000000D03*
X155000000Y-112000000D03*
X163000000Y-112000000D03*
X163000000Y-114000000D03*
X171000000Y-114000000D03*
X167000000Y-114000000D03*
X165000000Y-114000000D03*
X165000000Y-116000000D03*
X169000000Y-114000000D03*
X167000000Y-116000000D03*
X167000000Y-112000000D03*
X171000000Y-112000000D03*
X169000000Y-112000000D03*
X165000000Y-112000000D03*
X173000000Y-112000000D03*
X173000000Y-114000000D03*
X181000000Y-116000000D03*
X181000000Y-114000000D03*
X183000000Y-116000000D03*
X177000000Y-114000000D03*
X175000000Y-114000000D03*
X179000000Y-114000000D03*
X179000000Y-116000000D03*
X177000000Y-116000000D03*
X177000000Y-112000000D03*
X181000000Y-112000000D03*
X179000000Y-112000000D03*
X175000000Y-112000000D03*
X183000000Y-112000000D03*
X183000000Y-114000000D03*
X191000000Y-112000000D03*
X185000000Y-112000000D03*
X187000000Y-112000000D03*
X189000000Y-112000000D03*
X185000000Y-114000000D03*
X187000000Y-114000000D03*
X185000000Y-116000000D03*
X187000000Y-116000000D03*
X189000000Y-116000000D03*
X191000000Y-116000000D03*
X189000000Y-114000000D03*
X191000000Y-114000000D03*
X187000000Y-118000000D03*
X189000000Y-118000000D03*
X191000000Y-118000000D03*
X193000000Y-118000000D03*
X193000000Y-116000000D03*
X193000000Y-114000000D03*
X193000000Y-112000000D03*
D13*
X133598000Y-140390000D03*
D14*
X131058000Y-140390000D03*
D15*
X98646000Y-139104000D03*
D16*
X101186000Y-139104000D03*
D13*
X128518000Y-140390000D03*
D14*
X125978000Y-140390000D03*
D13*
X136140000Y-140400000D03*
D14*
X138680000Y-140400000D03*
D17*
X109060000Y-127420000D03*
D18*
X106520000Y-127420000D03*
X103980000Y-127420000D03*
D13*
X98900000Y-120460000D03*
D14*
X98900000Y-123000000D03*
D13*
X98646000Y-134278000D03*
D14*
X101186000Y-134278000D03*
D13*
X112870000Y-130976000D03*
D14*
X112870000Y-128436000D03*
D13*
X98900000Y-115228000D03*
D14*
X98900000Y-117768000D03*
D19*
X99408000Y-57973860D03*
X99408000Y-55134140D03*
D20*
X148650000Y-84470000D03*
X144650000Y-86470000D03*
D12*
X144100000Y-122700000D03*
X144100000Y-124000000D03*
X143900000Y-140500008D03*
X151800000Y-125600000D03*
X147800000Y-123600000D03*
X143800000Y-125700000D03*
X153500000Y-123300000D03*
X112300000Y-123500000D03*
X146400000Y-127600000D03*
X148200000Y-127600000D03*
X148200000Y-125900000D03*
X146400000Y-125900000D03*
X186000000Y-135800000D03*
X186000000Y-132000000D03*
X186000000Y-134500000D03*
X186000000Y-129400000D03*
X186000000Y-128200000D03*
X122145764Y-117700010D03*
X138100000Y-128817000D03*
D21*
X160206976Y-139117391D03*
D12*
X157909804Y-126902773D03*
X151799736Y-127856746D03*
X142400000Y-121400000D03*
X151568000Y-122360000D03*
X154268000Y-119960000D03*
X152368000Y-120060000D03*
X140868000Y-120060000D03*
X139068000Y-120060000D03*
X125468000Y-131260000D03*
X121868000Y-131160000D03*
X121968000Y-129000000D03*
X125500000Y-129000000D03*
D21*
X171568000Y-139060000D03*
X168968000Y-139060000D03*
X158268000Y-117360000D03*
D12*
X159568000Y-121460000D03*
X167168000Y-121360000D03*
X177368000Y-121360000D03*
X183768000Y-121460000D03*
X108268000Y-140760000D03*
X108268000Y-139360000D03*
X108171000Y-133863000D03*
X103568000Y-113260000D03*
X98568000Y-59972690D03*
X155968000Y-130660000D03*
X155968000Y-130660000D03*
X115068000Y-140060000D03*
X132268000Y-124860000D03*
D21*
X104368000Y-140260000D03*
X115868000Y-136260000D03*
X115868000Y-134360000D03*
D12*
X123168000Y-124560000D03*
X124000000Y-124560000D03*
X149768000Y-140560000D03*
X128782446Y-126449990D03*
X196182000Y-56046000D03*
X119474000Y-121578000D03*
D21*
X110838000Y-118276000D03*
X133200000Y-134200000D03*
X133356132Y-129018990D03*
X125062000Y-117514000D03*
D12*
X145068000Y-121660000D03*
X148168000Y-122060000D03*
D21*
X142600000Y-126200000D03*
X153900000Y-134599986D03*
X119630000Y-115570000D03*
D12*
X144600000Y-132499998D03*
X143678838Y-131512262D03*
X142651767Y-128050023D03*
X130755717Y-130118436D03*
X133604000Y-126492000D03*
X142027351Y-128960000D03*
X142926405Y-132010033D03*
X141900000Y-140000000D03*
X163268000Y-140160000D03*
X142591972Y-140613138D03*
X161267994Y-141060000D03*
X143277687Y-129812240D03*
X149168000Y-132750010D03*
X116000000Y-122000000D03*
X126300000Y-115500000D03*
X141100000Y-124600000D03*
X153400000Y-135800000D03*
X116078000Y-117768000D03*
X116300000Y-127800008D03*
X118681756Y-127698283D03*
X116368000Y-125660008D03*
X114468000Y-124960000D03*
X102768000Y-115360000D03*
X115156000Y-119546000D03*
X115156000Y-117094000D03*
X123668000Y-134560000D03*
X121668000Y-134260000D03*
D22*
X160264367Y-139060000D02*
X160206976Y-139117391D01*
X160768000Y-139060000D02*
X160264367Y-139060000D01*
X171568000Y-139060000D02*
X170931604Y-139060000D01*
X170931604Y-139060000D02*
X170868000Y-138996396D01*
X159568000Y-121460000D02*
X159668000Y-121360000D01*
X159668000Y-121360000D02*
X159868000Y-121360000D01*
D23*
X109168000Y-139260000D02*
X108368000Y-139260000D01*
X108368000Y-139260000D02*
X108268000Y-139360000D01*
D24*
X103568000Y-113260000D02*
X103568000Y-113160000D01*
X103568000Y-113160000D02*
X103768000Y-112960000D01*
X97468000Y-56972540D02*
X97468000Y-58872690D01*
X97468000Y-58872690D02*
X98568000Y-59972690D01*
X99408000Y-55134140D02*
X99306400Y-55134140D01*
X99306400Y-55134140D02*
X97468000Y-56972540D01*
D23*
X115068000Y-139635736D02*
X115068000Y-140060000D01*
X115068000Y-139460000D02*
X115068000Y-139635736D01*
X115168000Y-139360000D02*
X115068000Y-139460000D01*
D22*
X115868000Y-134360000D02*
X115868000Y-133860000D01*
D23*
X124262000Y-124560000D02*
X124268000Y-124554000D01*
X149768000Y-140560000D02*
X149668000Y-140460000D01*
X149668000Y-140460000D02*
X149468000Y-140460000D01*
X128782446Y-126025726D02*
X128782446Y-126449990D01*
X128778000Y-125730000D02*
X128782446Y-125734446D01*
X128782446Y-125734446D02*
X128782446Y-126025726D01*
X127724000Y-120126000D02*
X128994000Y-120126000D01*
X127216000Y-120634000D02*
X127724000Y-120126000D01*
D24*
X195928000Y-59094000D02*
X195928000Y-123102000D01*
X196182000Y-58840000D02*
X195928000Y-59094000D01*
X196182000Y-56046000D02*
X196182000Y-58840000D01*
X119474000Y-121578000D02*
X118966000Y-121578000D01*
X110838000Y-118276000D02*
X111346000Y-118276000D01*
D22*
X112870000Y-128436000D02*
X114006000Y-127300000D01*
X114006000Y-127300000D02*
X115276104Y-127300000D01*
X115276104Y-127300000D02*
X116080054Y-126496050D01*
X116080054Y-126496050D02*
X116716346Y-126496050D01*
X116716346Y-126496050D02*
X125062000Y-118150396D01*
X125062000Y-118150396D02*
X125062000Y-117514000D01*
X133356132Y-134043868D02*
X133200000Y-134200000D01*
X133356132Y-129018990D02*
X133356132Y-134043868D01*
X148168000Y-122060000D02*
X145468000Y-122060000D01*
X145468000Y-122060000D02*
X145068000Y-121660000D01*
D25*
X153900000Y-134599986D02*
X151000014Y-131700000D01*
X148100000Y-131700000D02*
X143049999Y-126649999D01*
X143049999Y-126649999D02*
X142600000Y-126200000D01*
X151000014Y-131700000D02*
X148100000Y-131700000D01*
X108204000Y-115570000D02*
X119630000Y-115570000D01*
X107282000Y-116413999D02*
X107360001Y-116413999D01*
X107360001Y-116413999D02*
X108204000Y-115570000D01*
X106520000Y-127420000D02*
X106520000Y-117175999D01*
X106520000Y-117175999D02*
X107282000Y-116413999D01*
D23*
X143678838Y-131512262D02*
X144600000Y-132433424D01*
X144600000Y-132433424D02*
X144600000Y-132499998D01*
X142652361Y-127949637D02*
X142652361Y-130485785D01*
X143378839Y-131212263D02*
X143678838Y-131512262D01*
X142652361Y-130485785D02*
X143378839Y-131212263D01*
X133604000Y-127270153D02*
X131055716Y-129818437D01*
X131055716Y-129818437D02*
X130755717Y-130118436D01*
X133604000Y-126492000D02*
X133604000Y-127270153D01*
X142027351Y-129384264D02*
X142027351Y-128960000D01*
X142027351Y-131110979D02*
X142027351Y-129384264D01*
X142926405Y-132010033D02*
X142027351Y-131110979D01*
X141900000Y-140924264D02*
X141900000Y-140424264D01*
X161468000Y-141960000D02*
X142935736Y-141960000D01*
X141900000Y-140424264D02*
X141900000Y-140000000D01*
X142935736Y-141960000D02*
X141900000Y-140924264D01*
X163268000Y-140160000D02*
X161468000Y-141960000D01*
X161267994Y-141060000D02*
X160967995Y-141359999D01*
X160967995Y-141359999D02*
X143338833Y-141359999D01*
X143338833Y-141359999D02*
X142891971Y-140913137D01*
X142891971Y-140913137D02*
X142591972Y-140613138D01*
X143577686Y-130112239D02*
X143277687Y-129812240D01*
X146215457Y-132750010D02*
X143577686Y-130112239D01*
X149168000Y-132750010D02*
X146215457Y-132750010D01*
D24*
X116000000Y-122000000D02*
X116000000Y-117846000D01*
X116000000Y-117846000D02*
X116078000Y-117768000D01*
X153400000Y-135800000D02*
X151100000Y-133500000D01*
X141100000Y-125024264D02*
X141100000Y-124600000D01*
X151100000Y-133500000D02*
X143400000Y-133500000D01*
X143400000Y-133500000D02*
X141100000Y-131200000D01*
X141100000Y-131200000D02*
X141100000Y-125024264D01*
X126000001Y-115799999D02*
X126300000Y-115500000D01*
X117300000Y-116546000D02*
X125254000Y-116546000D01*
X125254000Y-116546000D02*
X126000001Y-115799999D01*
X116078000Y-117768000D02*
X117300000Y-116546000D01*
X117300000Y-116546000D02*
X117336001Y-116509999D01*
X118681756Y-127698283D02*
X116401725Y-127698283D01*
X116401725Y-127698283D02*
X116300000Y-127800008D01*
D23*
X116068001Y-125360009D02*
X116368000Y-125660008D01*
X114468000Y-124960000D02*
X115667992Y-124960000D01*
X115667992Y-124960000D02*
X116068001Y-125360009D01*
D24*
X98168000Y-109460000D02*
X102768000Y-114060000D01*
X102768000Y-114060000D02*
X102768000Y-115360000D01*
X98168000Y-61560000D02*
X98168000Y-109460000D01*
X99408000Y-60320000D02*
X98168000Y-61560000D01*
X99408000Y-57973860D02*
X99408000Y-60320000D01*
X115156000Y-117514000D02*
X115156000Y-117264009D01*
X115156000Y-117514000D02*
X115156000Y-119546000D01*
D23*
X123368001Y-134260001D02*
X123668000Y-134560000D01*
X121668000Y-134260000D02*
X123368001Y-134260001D01*
D26*
G36*
X101933000Y-114405868D02*
X101933000Y-114932766D01*
X101833162Y-115173201D01*
X101832838Y-115545167D01*
X101974883Y-115888943D01*
X102237673Y-116152192D01*
X102581201Y-116294838D01*
X102953167Y-116295162D01*
X103296943Y-116153117D01*
X103560192Y-115890327D01*
X103702838Y-115546799D01*
X103703162Y-115174833D01*
X103603000Y-114932422D01*
X103603000Y-114060000D01*
X103539439Y-113740459D01*
X103358434Y-113469566D01*
X100675868Y-110787000D01*
X196158000Y-110787000D01*
X196158000Y-141950000D01*
X162552802Y-141950000D01*
X163407680Y-141095122D01*
X163453167Y-141095162D01*
X163796943Y-140953117D01*
X164060192Y-140690327D01*
X164202838Y-140346799D01*
X164203162Y-139974833D01*
X164061117Y-139631057D01*
X163798327Y-139367808D01*
X163454799Y-139225162D01*
X163082833Y-139224838D01*
X162739057Y-139366883D01*
X162475808Y-139629673D01*
X162333162Y-139973201D01*
X162333121Y-140020077D01*
X161941730Y-140411468D01*
X161798321Y-140267808D01*
X161454793Y-140125162D01*
X161082827Y-140124838D01*
X160739051Y-140266883D01*
X160475802Y-140529673D01*
X160446600Y-140599999D01*
X143653635Y-140599999D01*
X143527094Y-140473458D01*
X143527134Y-140427971D01*
X143385089Y-140084195D01*
X143122299Y-139820946D01*
X142778771Y-139678300D01*
X142778748Y-139678300D01*
X142693117Y-139471057D01*
X142430327Y-139207808D01*
X142086799Y-139065162D01*
X141714833Y-139064838D01*
X141371057Y-139206883D01*
X141107808Y-139469673D01*
X140965162Y-139813201D01*
X140964838Y-140185167D01*
X141106883Y-140528943D01*
X141140000Y-140562118D01*
X141140000Y-140924264D01*
X141197852Y-141215103D01*
X141362599Y-141461665D01*
X141850934Y-141950000D01*
X139184876Y-141950000D01*
X139648379Y-141737188D01*
X140086385Y-141264818D01*
X140285975Y-140782944D01*
X140166836Y-140527000D01*
X138807000Y-140527000D01*
X138807000Y-140547000D01*
X138553000Y-140547000D01*
X138553000Y-140527000D01*
X138533000Y-140527000D01*
X138533000Y-140273000D01*
X138553000Y-140273000D01*
X138553000Y-138912633D01*
X138807000Y-138912633D01*
X138807000Y-140273000D01*
X140166836Y-140273000D01*
X140285975Y-140017056D01*
X140086385Y-139535182D01*
X139648379Y-139062812D01*
X139062946Y-138794017D01*
X138807000Y-138912633D01*
X138553000Y-138912633D01*
X138297054Y-138794017D01*
X137711621Y-139062812D01*
X137707066Y-139067724D01*
X137620090Y-138932559D01*
X137407890Y-138787569D01*
X137156000Y-138736560D01*
X135124000Y-138736560D01*
X134888683Y-138780838D01*
X134879409Y-138786806D01*
X134865890Y-138777569D01*
X134614000Y-138726560D01*
X132582000Y-138726560D01*
X132346683Y-138770838D01*
X132130559Y-138909910D01*
X132023767Y-139066206D01*
X131722155Y-138864675D01*
X131090345Y-138739000D01*
X131025655Y-138739000D01*
X130393845Y-138864675D01*
X130091038Y-139067004D01*
X129998090Y-138922559D01*
X129785890Y-138777569D01*
X129534000Y-138726560D01*
X127502000Y-138726560D01*
X127266683Y-138770838D01*
X127050559Y-138909910D01*
X126943767Y-139066206D01*
X126642155Y-138864675D01*
X126010345Y-138739000D01*
X125945655Y-138739000D01*
X125313845Y-138864675D01*
X124778222Y-139222567D01*
X124420330Y-139758190D01*
X124294655Y-140390000D01*
X124420330Y-141021810D01*
X124778222Y-141557433D01*
X125313845Y-141915325D01*
X125488168Y-141950000D01*
X97578000Y-141950000D01*
X97578000Y-141037670D01*
X97646000Y-141051440D01*
X99646000Y-141051440D01*
X99881317Y-141007162D01*
X100097441Y-140868090D01*
X100211349Y-140701380D01*
X100677645Y-140963144D01*
X100805566Y-140994124D01*
X101059000Y-140874777D01*
X101059000Y-139231000D01*
X101313000Y-139231000D01*
X101313000Y-140874777D01*
X101566434Y-140994124D01*
X101694355Y-140963144D01*
X102252317Y-140649922D01*
X102647942Y-140147020D01*
X102821000Y-139531000D01*
X102821000Y-139231000D01*
X101313000Y-139231000D01*
X101059000Y-139231000D01*
X101039000Y-139231000D01*
X101039000Y-138977000D01*
X101059000Y-138977000D01*
X101059000Y-137333223D01*
X101313000Y-137333223D01*
X101313000Y-138977000D01*
X102821000Y-138977000D01*
X102821000Y-138677000D01*
X102647942Y-138060980D01*
X102252317Y-137558078D01*
X101694355Y-137244856D01*
X101566434Y-137213876D01*
X101313000Y-137333223D01*
X101059000Y-137333223D01*
X100805566Y-137213876D01*
X100677645Y-137244856D01*
X100209789Y-137507495D01*
X100110090Y-137352559D01*
X99897890Y-137207569D01*
X99646000Y-137156560D01*
X97646000Y-137156560D01*
X97578000Y-137169355D01*
X97578000Y-135930910D01*
X97630000Y-135941440D01*
X99662000Y-135941440D01*
X99897317Y-135897162D01*
X100113441Y-135758090D01*
X100220233Y-135601794D01*
X100521845Y-135803325D01*
X101153655Y-135929000D01*
X101218345Y-135929000D01*
X101850155Y-135803325D01*
X102385778Y-135445433D01*
X102743670Y-134909810D01*
X102836093Y-134445167D01*
X120732838Y-134445167D01*
X120874883Y-134788943D01*
X121137673Y-135052192D01*
X121481201Y-135194838D01*
X121853167Y-135195162D01*
X122196943Y-135053117D01*
X122230118Y-135020000D01*
X122846397Y-135020001D01*
X122874883Y-135088943D01*
X123137673Y-135352192D01*
X123481201Y-135494838D01*
X123853167Y-135495162D01*
X124196943Y-135353117D01*
X124460192Y-135090327D01*
X124602838Y-134746799D01*
X124603162Y-134374833D01*
X124461117Y-134031057D01*
X124198327Y-133767808D01*
X123854799Y-133625162D01*
X123759451Y-133625079D01*
X123658840Y-133557853D01*
X123368001Y-133500001D01*
X122230463Y-133500000D01*
X122198327Y-133467808D01*
X121854799Y-133325162D01*
X121482833Y-133324838D01*
X121139057Y-133466883D01*
X120875808Y-133729673D01*
X120733162Y-134073201D01*
X120732838Y-134445167D01*
X102836093Y-134445167D01*
X102869345Y-134278000D01*
X102743670Y-133646190D01*
X102385778Y-133110567D01*
X101850155Y-132752675D01*
X101218345Y-132627000D01*
X101153655Y-132627000D01*
X100521845Y-132752675D01*
X100219038Y-132955004D01*
X100126090Y-132810559D01*
X99913890Y-132665569D01*
X99662000Y-132614560D01*
X97630000Y-132614560D01*
X97578000Y-132624344D01*
X97578000Y-127235255D01*
X102481400Y-127235255D01*
X102481400Y-127604745D01*
X102595474Y-128178234D01*
X102920330Y-128664415D01*
X103406511Y-128989271D01*
X103980000Y-129103345D01*
X104553489Y-128989271D01*
X105039670Y-128664415D01*
X105250000Y-128349634D01*
X105460330Y-128664415D01*
X105946511Y-128989271D01*
X106520000Y-129103345D01*
X107093489Y-128989271D01*
X107579670Y-128664415D01*
X107589243Y-128650087D01*
X107593238Y-128671317D01*
X107732310Y-128887441D01*
X107944510Y-129032431D01*
X108196400Y-129083440D01*
X109923600Y-129083440D01*
X110158917Y-129039162D01*
X110375041Y-128900090D01*
X110520031Y-128687890D01*
X110571040Y-128436000D01*
X110571040Y-126404000D01*
X110526762Y-126168683D01*
X110387690Y-125952559D01*
X110175490Y-125807569D01*
X109923600Y-125756560D01*
X108196400Y-125756560D01*
X107961083Y-125800838D01*
X107744959Y-125939910D01*
X107605000Y-126144747D01*
X107605000Y-117625421D01*
X107892143Y-117338278D01*
X108127212Y-117181210D01*
X108653422Y-116655000D01*
X114325886Y-116655000D01*
X114221162Y-116907201D01*
X114220838Y-117279167D01*
X114321000Y-117521578D01*
X114321000Y-119118766D01*
X114221162Y-119359201D01*
X114220838Y-119731167D01*
X114362883Y-120074943D01*
X114625673Y-120338192D01*
X114969201Y-120480838D01*
X115165000Y-120481009D01*
X115165000Y-121572766D01*
X115065162Y-121813201D01*
X115064838Y-122185167D01*
X115206883Y-122528943D01*
X115469673Y-122792192D01*
X115813201Y-122934838D01*
X116185167Y-122935162D01*
X116528943Y-122793117D01*
X116792192Y-122530327D01*
X116934838Y-122186799D01*
X116935162Y-121814833D01*
X116835000Y-121572422D01*
X116835000Y-118333458D01*
X116870192Y-118298327D01*
X116970778Y-118056090D01*
X117645868Y-117381000D01*
X123977116Y-117381000D01*
X123976812Y-117728873D01*
X124030734Y-117859372D01*
X116960254Y-124929852D01*
X116898327Y-124867816D01*
X116554799Y-124725170D01*
X116507923Y-124725129D01*
X116205393Y-124422599D01*
X115958831Y-124257852D01*
X115667992Y-124200000D01*
X115030463Y-124200000D01*
X114998327Y-124167808D01*
X114654799Y-124025162D01*
X114282833Y-124024838D01*
X113939057Y-124166883D01*
X113675808Y-124429673D01*
X113533162Y-124773201D01*
X113532838Y-125145167D01*
X113674883Y-125488943D01*
X113937673Y-125752192D01*
X114281201Y-125894838D01*
X114653167Y-125895162D01*
X114996943Y-125753117D01*
X115030118Y-125720000D01*
X115353190Y-125720000D01*
X115432878Y-125799688D01*
X115432855Y-125825587D01*
X115418909Y-125834905D01*
X114888814Y-126365000D01*
X114006005Y-126365000D01*
X114006000Y-126364999D01*
X113707556Y-126424364D01*
X113648191Y-126436173D01*
X113380241Y-126615211D01*
X113344855Y-126638855D01*
X113171152Y-126812558D01*
X112870000Y-126752655D01*
X112238190Y-126878330D01*
X111702567Y-127236222D01*
X111344675Y-127771845D01*
X111219000Y-128403655D01*
X111219000Y-128468345D01*
X111344675Y-129100155D01*
X111547004Y-129402962D01*
X111402559Y-129495910D01*
X111257569Y-129708110D01*
X111206560Y-129960000D01*
X111206560Y-131992000D01*
X111250838Y-132227317D01*
X111389910Y-132443441D01*
X111602110Y-132588431D01*
X111854000Y-132639440D01*
X113886000Y-132639440D01*
X114121317Y-132595162D01*
X114337441Y-132456090D01*
X114482431Y-132243890D01*
X114533440Y-131992000D01*
X114533440Y-130303603D01*
X129820555Y-130303603D01*
X129962600Y-130647379D01*
X130225390Y-130910628D01*
X130568918Y-131053274D01*
X130940884Y-131053598D01*
X131284660Y-130911553D01*
X131547909Y-130648763D01*
X131690555Y-130305235D01*
X131690596Y-130258359D01*
X132400805Y-129548150D01*
X132421132Y-129597344D01*
X132421132Y-133444426D01*
X132280718Y-133584595D01*
X132115189Y-133983233D01*
X132114812Y-134414873D01*
X132279646Y-134813800D01*
X132584595Y-135119282D01*
X132983233Y-135284811D01*
X133414873Y-135285188D01*
X133813800Y-135120354D01*
X134119282Y-134815405D01*
X134284811Y-134416767D01*
X134285110Y-134074141D01*
X134291132Y-134043868D01*
X134291132Y-129596542D01*
X134440943Y-129235757D01*
X134441320Y-128804117D01*
X134276486Y-128405190D01*
X133971537Y-128099708D01*
X133885127Y-128063828D01*
X134141401Y-127807554D01*
X134306148Y-127560992D01*
X134364000Y-127270153D01*
X134364000Y-127054463D01*
X134396192Y-127022327D01*
X134538838Y-126678799D01*
X134539162Y-126306833D01*
X134397117Y-125963057D01*
X134134327Y-125699808D01*
X133790799Y-125557162D01*
X133418833Y-125556838D01*
X133075057Y-125698883D01*
X132811808Y-125961673D01*
X132669162Y-126305201D01*
X132668838Y-126677167D01*
X132801388Y-126997963D01*
X130616037Y-129183314D01*
X130570550Y-129183274D01*
X130226774Y-129325319D01*
X129963525Y-129588109D01*
X129820879Y-129931637D01*
X129820555Y-130303603D01*
X114533440Y-130303603D01*
X114533440Y-129960000D01*
X114489162Y-129724683D01*
X114350090Y-129508559D01*
X114193794Y-129401767D01*
X114395325Y-129100155D01*
X114521000Y-128468345D01*
X114521000Y-128403655D01*
X114487452Y-128235000D01*
X115276104Y-128235000D01*
X115453485Y-128199717D01*
X115506883Y-128328951D01*
X115769673Y-128592200D01*
X116113201Y-128734846D01*
X116485167Y-128735170D01*
X116828943Y-128593125D01*
X116888890Y-128533283D01*
X118254522Y-128533283D01*
X118494957Y-128633121D01*
X118866923Y-128633445D01*
X119210699Y-128491400D01*
X119473948Y-128228610D01*
X119616594Y-127885082D01*
X119616918Y-127513116D01*
X119474873Y-127169340D01*
X119212083Y-126906091D01*
X118868555Y-126763445D01*
X118496589Y-126763121D01*
X118254178Y-126863283D01*
X117671403Y-126863283D01*
X119749519Y-124785167D01*
X140164838Y-124785167D01*
X140265000Y-125027578D01*
X140265000Y-131200000D01*
X140328561Y-131519541D01*
X140449140Y-131700000D01*
X140509566Y-131790434D01*
X142809566Y-134090434D01*
X143080459Y-134271439D01*
X143400000Y-134335000D01*
X150754132Y-134335000D01*
X152507465Y-136088333D01*
X152606883Y-136328943D01*
X152869673Y-136592192D01*
X153213201Y-136734838D01*
X153585167Y-136735162D01*
X153928943Y-136593117D01*
X154192192Y-136330327D01*
X154334838Y-135986799D01*
X154335162Y-135614833D01*
X154327863Y-135597168D01*
X154513800Y-135520340D01*
X154819282Y-135215391D01*
X154984811Y-134816753D01*
X154985000Y-134599989D01*
X154985001Y-134599986D01*
X154985000Y-134599983D01*
X154985188Y-134385113D01*
X154820354Y-133986186D01*
X154515405Y-133680704D01*
X154514952Y-133680516D01*
X151767225Y-130932789D01*
X151599298Y-130820584D01*
X151415226Y-130697591D01*
X151000014Y-130615000D01*
X148549422Y-130615000D01*
X143367210Y-125432788D01*
X143215405Y-125280718D01*
X142816767Y-125115189D01*
X142385127Y-125114812D01*
X141986200Y-125279646D01*
X141935000Y-125330757D01*
X141935000Y-125027234D01*
X142034838Y-124786799D01*
X142035162Y-124414833D01*
X141893117Y-124071057D01*
X141630327Y-123807808D01*
X141286799Y-123665162D01*
X140914833Y-123664838D01*
X140571057Y-123806883D01*
X140307808Y-124069673D01*
X140165162Y-124413201D01*
X140164838Y-124785167D01*
X119749519Y-124785167D01*
X121649519Y-122885167D01*
X143164838Y-122885167D01*
X143306883Y-123228943D01*
X143427710Y-123349981D01*
X143307808Y-123469673D01*
X143165162Y-123813201D01*
X143164838Y-124185167D01*
X143306883Y-124528943D01*
X143569673Y-124792192D01*
X143913201Y-124934838D01*
X144285167Y-124935162D01*
X144628943Y-124793117D01*
X144892192Y-124530327D01*
X145034838Y-124186799D01*
X145035162Y-123814833D01*
X144893117Y-123471057D01*
X144772290Y-123350019D01*
X144892192Y-123230327D01*
X145034838Y-122886799D01*
X145034850Y-122873486D01*
X145110191Y-122923827D01*
X145468000Y-122995000D01*
X148167184Y-122995000D01*
X148353167Y-122995162D01*
X148696943Y-122853117D01*
X148960192Y-122590327D01*
X149102838Y-122246799D01*
X149103162Y-121874833D01*
X148961117Y-121531057D01*
X148698327Y-121267808D01*
X148354799Y-121125162D01*
X147982833Y-121124838D01*
X147982441Y-121125000D01*
X145855290Y-121125000D01*
X145729436Y-120999146D01*
X145598327Y-120867808D01*
X145254799Y-120725162D01*
X144882833Y-120724838D01*
X144539057Y-120866883D01*
X144275808Y-121129673D01*
X144133162Y-121473201D01*
X144132908Y-121765028D01*
X143914833Y-121764838D01*
X143571057Y-121906883D01*
X143307808Y-122169673D01*
X143165162Y-122513201D01*
X143164838Y-122885167D01*
X121649519Y-122885167D01*
X125723145Y-118811541D01*
X125925827Y-118508205D01*
X125997000Y-118150396D01*
X125997000Y-118091552D01*
X126146811Y-117730767D01*
X126147188Y-117299127D01*
X126011099Y-116969769D01*
X126588333Y-116392535D01*
X126828943Y-116293117D01*
X127092192Y-116030327D01*
X127234838Y-115686799D01*
X127235162Y-115314833D01*
X127093117Y-114971057D01*
X126830327Y-114707808D01*
X126486799Y-114565162D01*
X126114833Y-114564838D01*
X125771057Y-114706883D01*
X125507808Y-114969673D01*
X125407222Y-115211910D01*
X124908132Y-115711000D01*
X120714877Y-115711000D01*
X120715188Y-115355127D01*
X120550354Y-114956200D01*
X120245405Y-114650718D01*
X119846767Y-114485189D01*
X119415127Y-114484812D01*
X119414672Y-114485000D01*
X108204000Y-114485000D01*
X107788789Y-114567590D01*
X107436789Y-114802789D01*
X106749858Y-115489720D01*
X106514789Y-115646788D01*
X105752789Y-116408788D01*
X105517591Y-116760787D01*
X105435000Y-117175999D01*
X105435000Y-126213494D01*
X105250000Y-126490366D01*
X105039670Y-126175585D01*
X104553489Y-125850729D01*
X103980000Y-125736655D01*
X103406511Y-125850729D01*
X102920330Y-126175585D01*
X102595474Y-126661766D01*
X102481400Y-127235255D01*
X97578000Y-127235255D01*
X97578000Y-123968452D01*
X97732567Y-124199778D01*
X98268190Y-124557670D01*
X98900000Y-124683345D01*
X99531810Y-124557670D01*
X100067433Y-124199778D01*
X100425325Y-123664155D01*
X100551000Y-123032345D01*
X100551000Y-122967655D01*
X100425325Y-122335845D01*
X100222996Y-122033038D01*
X100367441Y-121940090D01*
X100512431Y-121727890D01*
X100563440Y-121476000D01*
X100563440Y-119444000D01*
X100519162Y-119208683D01*
X100380090Y-118992559D01*
X100167890Y-118847569D01*
X100150154Y-118843977D01*
X100425325Y-118432155D01*
X100551000Y-117800345D01*
X100551000Y-117735655D01*
X100425325Y-117103845D01*
X100222996Y-116801038D01*
X100367441Y-116708090D01*
X100512431Y-116495890D01*
X100563440Y-116244000D01*
X100563440Y-114212000D01*
X100519162Y-113976683D01*
X100380090Y-113760559D01*
X100167890Y-113615569D01*
X99916000Y-113564560D01*
X97884000Y-113564560D01*
X97648683Y-113608838D01*
X97578000Y-113654321D01*
X97578000Y-110787000D01*
X98314132Y-110787000D01*
X101933000Y-114405868D01*
X101933000Y-114405868D01*
G37*
X101933000Y-114405868D02*
X101933000Y-114932766D01*
X101833162Y-115173201D01*
X101832838Y-115545167D01*
X101974883Y-115888943D01*
X102237673Y-116152192D01*
X102581201Y-116294838D01*
X102953167Y-116295162D01*
X103296943Y-116153117D01*
X103560192Y-115890327D01*
X103702838Y-115546799D01*
X103703162Y-115174833D01*
X103603000Y-114932422D01*
X103603000Y-114060000D01*
X103539439Y-113740459D01*
X103358434Y-113469566D01*
X100675868Y-110787000D01*
X196158000Y-110787000D01*
X196158000Y-141950000D01*
X162552802Y-141950000D01*
X163407680Y-141095122D01*
X163453167Y-141095162D01*
X163796943Y-140953117D01*
X164060192Y-140690327D01*
X164202838Y-140346799D01*
X164203162Y-139974833D01*
X164061117Y-139631057D01*
X163798327Y-139367808D01*
X163454799Y-139225162D01*
X163082833Y-139224838D01*
X162739057Y-139366883D01*
X162475808Y-139629673D01*
X162333162Y-139973201D01*
X162333121Y-140020077D01*
X161941730Y-140411468D01*
X161798321Y-140267808D01*
X161454793Y-140125162D01*
X161082827Y-140124838D01*
X160739051Y-140266883D01*
X160475802Y-140529673D01*
X160446600Y-140599999D01*
X143653635Y-140599999D01*
X143527094Y-140473458D01*
X143527134Y-140427971D01*
X143385089Y-140084195D01*
X143122299Y-139820946D01*
X142778771Y-139678300D01*
X142778748Y-139678300D01*
X142693117Y-139471057D01*
X142430327Y-139207808D01*
X142086799Y-139065162D01*
X141714833Y-139064838D01*
X141371057Y-139206883D01*
X141107808Y-139469673D01*
X140965162Y-139813201D01*
X140964838Y-140185167D01*
X141106883Y-140528943D01*
X141140000Y-140562118D01*
X141140000Y-140924264D01*
X141197852Y-141215103D01*
X141362599Y-141461665D01*
X141850934Y-141950000D01*
X139184876Y-141950000D01*
X139648379Y-141737188D01*
X140086385Y-141264818D01*
X140285975Y-140782944D01*
X140166836Y-140527000D01*
X138807000Y-140527000D01*
X138807000Y-140547000D01*
X138553000Y-140547000D01*
X138553000Y-140527000D01*
X138533000Y-140527000D01*
X138533000Y-140273000D01*
X138553000Y-140273000D01*
X138553000Y-138912633D01*
X138807000Y-138912633D01*
X138807000Y-140273000D01*
X140166836Y-140273000D01*
X140285975Y-140017056D01*
X140086385Y-139535182D01*
X139648379Y-139062812D01*
X139062946Y-138794017D01*
X138807000Y-138912633D01*
X138553000Y-138912633D01*
X138297054Y-138794017D01*
X137711621Y-139062812D01*
X137707066Y-139067724D01*
X137620090Y-138932559D01*
X137407890Y-138787569D01*
X137156000Y-138736560D01*
X135124000Y-138736560D01*
X134888683Y-138780838D01*
X134879409Y-138786806D01*
X134865890Y-138777569D01*
X134614000Y-138726560D01*
X132582000Y-138726560D01*
X132346683Y-138770838D01*
X132130559Y-138909910D01*
X132023767Y-139066206D01*
X131722155Y-138864675D01*
X131090345Y-138739000D01*
X131025655Y-138739000D01*
X130393845Y-138864675D01*
X130091038Y-139067004D01*
X129998090Y-138922559D01*
X129785890Y-138777569D01*
X129534000Y-138726560D01*
X127502000Y-138726560D01*
X127266683Y-138770838D01*
X127050559Y-138909910D01*
X126943767Y-139066206D01*
X126642155Y-138864675D01*
X126010345Y-138739000D01*
X125945655Y-138739000D01*
X125313845Y-138864675D01*
X124778222Y-139222567D01*
X124420330Y-139758190D01*
X124294655Y-140390000D01*
X124420330Y-141021810D01*
X124778222Y-141557433D01*
X125313845Y-141915325D01*
X125488168Y-141950000D01*
X97578000Y-141950000D01*
X97578000Y-141037670D01*
X97646000Y-141051440D01*
X99646000Y-141051440D01*
X99881317Y-141007162D01*
X100097441Y-140868090D01*
X100211349Y-140701380D01*
X100677645Y-140963144D01*
X100805566Y-140994124D01*
X101059000Y-140874777D01*
X101059000Y-139231000D01*
X101313000Y-139231000D01*
X101313000Y-140874777D01*
X101566434Y-140994124D01*
X101694355Y-140963144D01*
X102252317Y-140649922D01*
X102647942Y-140147020D01*
X102821000Y-139531000D01*
X102821000Y-139231000D01*
X101313000Y-139231000D01*
X101059000Y-139231000D01*
X101039000Y-139231000D01*
X101039000Y-138977000D01*
X101059000Y-138977000D01*
X101059000Y-137333223D01*
X101313000Y-137333223D01*
X101313000Y-138977000D01*
X102821000Y-138977000D01*
X102821000Y-138677000D01*
X102647942Y-138060980D01*
X102252317Y-137558078D01*
X101694355Y-137244856D01*
X101566434Y-137213876D01*
X101313000Y-137333223D01*
X101059000Y-137333223D01*
X100805566Y-137213876D01*
X100677645Y-137244856D01*
X100209789Y-137507495D01*
X100110090Y-137352559D01*
X99897890Y-137207569D01*
X99646000Y-137156560D01*
X97646000Y-137156560D01*
X97578000Y-137169355D01*
X97578000Y-135930910D01*
X97630000Y-135941440D01*
X99662000Y-135941440D01*
X99897317Y-135897162D01*
X100113441Y-135758090D01*
X100220233Y-135601794D01*
X100521845Y-135803325D01*
X101153655Y-135929000D01*
X101218345Y-135929000D01*
X101850155Y-135803325D01*
X102385778Y-135445433D01*
X102743670Y-134909810D01*
X102836093Y-134445167D01*
X120732838Y-134445167D01*
X120874883Y-134788943D01*
X121137673Y-135052192D01*
X121481201Y-135194838D01*
X121853167Y-135195162D01*
X122196943Y-135053117D01*
X122230118Y-135020000D01*
X122846397Y-135020001D01*
X122874883Y-135088943D01*
X123137673Y-135352192D01*
X123481201Y-135494838D01*
X123853167Y-135495162D01*
X124196943Y-135353117D01*
X124460192Y-135090327D01*
X124602838Y-134746799D01*
X124603162Y-134374833D01*
X124461117Y-134031057D01*
X124198327Y-133767808D01*
X123854799Y-133625162D01*
X123759451Y-133625079D01*
X123658840Y-133557853D01*
X123368001Y-133500001D01*
X122230463Y-133500000D01*
X122198327Y-133467808D01*
X121854799Y-133325162D01*
X121482833Y-133324838D01*
X121139057Y-133466883D01*
X120875808Y-133729673D01*
X120733162Y-134073201D01*
X120732838Y-134445167D01*
X102836093Y-134445167D01*
X102869345Y-134278000D01*
X102743670Y-133646190D01*
X102385778Y-133110567D01*
X101850155Y-132752675D01*
X101218345Y-132627000D01*
X101153655Y-132627000D01*
X100521845Y-132752675D01*
X100219038Y-132955004D01*
X100126090Y-132810559D01*
X99913890Y-132665569D01*
X99662000Y-132614560D01*
X97630000Y-132614560D01*
X97578000Y-132624344D01*
X97578000Y-127235255D01*
X102481400Y-127235255D01*
X102481400Y-127604745D01*
X102595474Y-128178234D01*
X102920330Y-128664415D01*
X103406511Y-128989271D01*
X103980000Y-129103345D01*
X104553489Y-128989271D01*
X105039670Y-128664415D01*
X105250000Y-128349634D01*
X105460330Y-128664415D01*
X105946511Y-128989271D01*
X106520000Y-129103345D01*
X107093489Y-128989271D01*
X107579670Y-128664415D01*
X107589243Y-128650087D01*
X107593238Y-128671317D01*
X107732310Y-128887441D01*
X107944510Y-129032431D01*
X108196400Y-129083440D01*
X109923600Y-129083440D01*
X110158917Y-129039162D01*
X110375041Y-128900090D01*
X110520031Y-128687890D01*
X110571040Y-128436000D01*
X110571040Y-126404000D01*
X110526762Y-126168683D01*
X110387690Y-125952559D01*
X110175490Y-125807569D01*
X109923600Y-125756560D01*
X108196400Y-125756560D01*
X107961083Y-125800838D01*
X107744959Y-125939910D01*
X107605000Y-126144747D01*
X107605000Y-117625421D01*
X107892143Y-117338278D01*
X108127212Y-117181210D01*
X108653422Y-116655000D01*
X114325886Y-116655000D01*
X114221162Y-116907201D01*
X114220838Y-117279167D01*
X114321000Y-117521578D01*
X114321000Y-119118766D01*
X114221162Y-119359201D01*
X114220838Y-119731167D01*
X114362883Y-120074943D01*
X114625673Y-120338192D01*
X114969201Y-120480838D01*
X115165000Y-120481009D01*
X115165000Y-121572766D01*
X115065162Y-121813201D01*
X115064838Y-122185167D01*
X115206883Y-122528943D01*
X115469673Y-122792192D01*
X115813201Y-122934838D01*
X116185167Y-122935162D01*
X116528943Y-122793117D01*
X116792192Y-122530327D01*
X116934838Y-122186799D01*
X116935162Y-121814833D01*
X116835000Y-121572422D01*
X116835000Y-118333458D01*
X116870192Y-118298327D01*
X116970778Y-118056090D01*
X117645868Y-117381000D01*
X123977116Y-117381000D01*
X123976812Y-117728873D01*
X124030734Y-117859372D01*
X116960254Y-124929852D01*
X116898327Y-124867816D01*
X116554799Y-124725170D01*
X116507923Y-124725129D01*
X116205393Y-124422599D01*
X115958831Y-124257852D01*
X115667992Y-124200000D01*
X115030463Y-124200000D01*
X114998327Y-124167808D01*
X114654799Y-124025162D01*
X114282833Y-124024838D01*
X113939057Y-124166883D01*
X113675808Y-124429673D01*
X113533162Y-124773201D01*
X113532838Y-125145167D01*
X113674883Y-125488943D01*
X113937673Y-125752192D01*
X114281201Y-125894838D01*
X114653167Y-125895162D01*
X114996943Y-125753117D01*
X115030118Y-125720000D01*
X115353190Y-125720000D01*
X115432878Y-125799688D01*
X115432855Y-125825587D01*
X115418909Y-125834905D01*
X114888814Y-126365000D01*
X114006005Y-126365000D01*
X114006000Y-126364999D01*
X113707556Y-126424364D01*
X113648191Y-126436173D01*
X113380241Y-126615211D01*
X113344855Y-126638855D01*
X113171152Y-126812558D01*
X112870000Y-126752655D01*
X112238190Y-126878330D01*
X111702567Y-127236222D01*
X111344675Y-127771845D01*
X111219000Y-128403655D01*
X111219000Y-128468345D01*
X111344675Y-129100155D01*
X111547004Y-129402962D01*
X111402559Y-129495910D01*
X111257569Y-129708110D01*
X111206560Y-129960000D01*
X111206560Y-131992000D01*
X111250838Y-132227317D01*
X111389910Y-132443441D01*
X111602110Y-132588431D01*
X111854000Y-132639440D01*
X113886000Y-132639440D01*
X114121317Y-132595162D01*
X114337441Y-132456090D01*
X114482431Y-132243890D01*
X114533440Y-131992000D01*
X114533440Y-130303603D01*
X129820555Y-130303603D01*
X129962600Y-130647379D01*
X130225390Y-130910628D01*
X130568918Y-131053274D01*
X130940884Y-131053598D01*
X131284660Y-130911553D01*
X131547909Y-130648763D01*
X131690555Y-130305235D01*
X131690596Y-130258359D01*
X132400805Y-129548150D01*
X132421132Y-129597344D01*
X132421132Y-133444426D01*
X132280718Y-133584595D01*
X132115189Y-133983233D01*
X132114812Y-134414873D01*
X132279646Y-134813800D01*
X132584595Y-135119282D01*
X132983233Y-135284811D01*
X133414873Y-135285188D01*
X133813800Y-135120354D01*
X134119282Y-134815405D01*
X134284811Y-134416767D01*
X134285110Y-134074141D01*
X134291132Y-134043868D01*
X134291132Y-129596542D01*
X134440943Y-129235757D01*
X134441320Y-128804117D01*
X134276486Y-128405190D01*
X133971537Y-128099708D01*
X133885127Y-128063828D01*
X134141401Y-127807554D01*
X134306148Y-127560992D01*
X134364000Y-127270153D01*
X134364000Y-127054463D01*
X134396192Y-127022327D01*
X134538838Y-126678799D01*
X134539162Y-126306833D01*
X134397117Y-125963057D01*
X134134327Y-125699808D01*
X133790799Y-125557162D01*
X133418833Y-125556838D01*
X133075057Y-125698883D01*
X132811808Y-125961673D01*
X132669162Y-126305201D01*
X132668838Y-126677167D01*
X132801388Y-126997963D01*
X130616037Y-129183314D01*
X130570550Y-129183274D01*
X130226774Y-129325319D01*
X129963525Y-129588109D01*
X129820879Y-129931637D01*
X129820555Y-130303603D01*
X114533440Y-130303603D01*
X114533440Y-129960000D01*
X114489162Y-129724683D01*
X114350090Y-129508559D01*
X114193794Y-129401767D01*
X114395325Y-129100155D01*
X114521000Y-128468345D01*
X114521000Y-128403655D01*
X114487452Y-128235000D01*
X115276104Y-128235000D01*
X115453485Y-128199717D01*
X115506883Y-128328951D01*
X115769673Y-128592200D01*
X116113201Y-128734846D01*
X116485167Y-128735170D01*
X116828943Y-128593125D01*
X116888890Y-128533283D01*
X118254522Y-128533283D01*
X118494957Y-128633121D01*
X118866923Y-128633445D01*
X119210699Y-128491400D01*
X119473948Y-128228610D01*
X119616594Y-127885082D01*
X119616918Y-127513116D01*
X119474873Y-127169340D01*
X119212083Y-126906091D01*
X118868555Y-126763445D01*
X118496589Y-126763121D01*
X118254178Y-126863283D01*
X117671403Y-126863283D01*
X119749519Y-124785167D01*
X140164838Y-124785167D01*
X140265000Y-125027578D01*
X140265000Y-131200000D01*
X140328561Y-131519541D01*
X140449140Y-131700000D01*
X140509566Y-131790434D01*
X142809566Y-134090434D01*
X143080459Y-134271439D01*
X143400000Y-134335000D01*
X150754132Y-134335000D01*
X152507465Y-136088333D01*
X152606883Y-136328943D01*
X152869673Y-136592192D01*
X153213201Y-136734838D01*
X153585167Y-136735162D01*
X153928943Y-136593117D01*
X154192192Y-136330327D01*
X154334838Y-135986799D01*
X154335162Y-135614833D01*
X154327863Y-135597168D01*
X154513800Y-135520340D01*
X154819282Y-135215391D01*
X154984811Y-134816753D01*
X154985000Y-134599989D01*
X154985001Y-134599986D01*
X154985000Y-134599983D01*
X154985188Y-134385113D01*
X154820354Y-133986186D01*
X154515405Y-133680704D01*
X154514952Y-133680516D01*
X151767225Y-130932789D01*
X151599298Y-130820584D01*
X151415226Y-130697591D01*
X151000014Y-130615000D01*
X148549422Y-130615000D01*
X143367210Y-125432788D01*
X143215405Y-125280718D01*
X142816767Y-125115189D01*
X142385127Y-125114812D01*
X141986200Y-125279646D01*
X141935000Y-125330757D01*
X141935000Y-125027234D01*
X142034838Y-124786799D01*
X142035162Y-124414833D01*
X141893117Y-124071057D01*
X141630327Y-123807808D01*
X141286799Y-123665162D01*
X140914833Y-123664838D01*
X140571057Y-123806883D01*
X140307808Y-124069673D01*
X140165162Y-124413201D01*
X140164838Y-124785167D01*
X119749519Y-124785167D01*
X121649519Y-122885167D01*
X143164838Y-122885167D01*
X143306883Y-123228943D01*
X143427710Y-123349981D01*
X143307808Y-123469673D01*
X143165162Y-123813201D01*
X143164838Y-124185167D01*
X143306883Y-124528943D01*
X143569673Y-124792192D01*
X143913201Y-124934838D01*
X144285167Y-124935162D01*
X144628943Y-124793117D01*
X144892192Y-124530327D01*
X145034838Y-124186799D01*
X145035162Y-123814833D01*
X144893117Y-123471057D01*
X144772290Y-123350019D01*
X144892192Y-123230327D01*
X145034838Y-122886799D01*
X145034850Y-122873486D01*
X145110191Y-122923827D01*
X145468000Y-122995000D01*
X148167184Y-122995000D01*
X148353167Y-122995162D01*
X148696943Y-122853117D01*
X148960192Y-122590327D01*
X149102838Y-122246799D01*
X149103162Y-121874833D01*
X148961117Y-121531057D01*
X148698327Y-121267808D01*
X148354799Y-121125162D01*
X147982833Y-121124838D01*
X147982441Y-121125000D01*
X145855290Y-121125000D01*
X145729436Y-120999146D01*
X145598327Y-120867808D01*
X145254799Y-120725162D01*
X144882833Y-120724838D01*
X144539057Y-120866883D01*
X144275808Y-121129673D01*
X144133162Y-121473201D01*
X144132908Y-121765028D01*
X143914833Y-121764838D01*
X143571057Y-121906883D01*
X143307808Y-122169673D01*
X143165162Y-122513201D01*
X143164838Y-122885167D01*
X121649519Y-122885167D01*
X125723145Y-118811541D01*
X125925827Y-118508205D01*
X125997000Y-118150396D01*
X125997000Y-118091552D01*
X126146811Y-117730767D01*
X126147188Y-117299127D01*
X126011099Y-116969769D01*
X126588333Y-116392535D01*
X126828943Y-116293117D01*
X127092192Y-116030327D01*
X127234838Y-115686799D01*
X127235162Y-115314833D01*
X127093117Y-114971057D01*
X126830327Y-114707808D01*
X126486799Y-114565162D01*
X126114833Y-114564838D01*
X125771057Y-114706883D01*
X125507808Y-114969673D01*
X125407222Y-115211910D01*
X124908132Y-115711000D01*
X120714877Y-115711000D01*
X120715188Y-115355127D01*
X120550354Y-114956200D01*
X120245405Y-114650718D01*
X119846767Y-114485189D01*
X119415127Y-114484812D01*
X119414672Y-114485000D01*
X108204000Y-114485000D01*
X107788789Y-114567590D01*
X107436789Y-114802789D01*
X106749858Y-115489720D01*
X106514789Y-115646788D01*
X105752789Y-116408788D01*
X105517591Y-116760787D01*
X105435000Y-117175999D01*
X105435000Y-126213494D01*
X105250000Y-126490366D01*
X105039670Y-126175585D01*
X104553489Y-125850729D01*
X103980000Y-125736655D01*
X103406511Y-125850729D01*
X102920330Y-126175585D01*
X102595474Y-126661766D01*
X102481400Y-127235255D01*
X97578000Y-127235255D01*
X97578000Y-123968452D01*
X97732567Y-124199778D01*
X98268190Y-124557670D01*
X98900000Y-124683345D01*
X99531810Y-124557670D01*
X100067433Y-124199778D01*
X100425325Y-123664155D01*
X100551000Y-123032345D01*
X100551000Y-122967655D01*
X100425325Y-122335845D01*
X100222996Y-122033038D01*
X100367441Y-121940090D01*
X100512431Y-121727890D01*
X100563440Y-121476000D01*
X100563440Y-119444000D01*
X100519162Y-119208683D01*
X100380090Y-118992559D01*
X100167890Y-118847569D01*
X100150154Y-118843977D01*
X100425325Y-118432155D01*
X100551000Y-117800345D01*
X100551000Y-117735655D01*
X100425325Y-117103845D01*
X100222996Y-116801038D01*
X100367441Y-116708090D01*
X100512431Y-116495890D01*
X100563440Y-116244000D01*
X100563440Y-114212000D01*
X100519162Y-113976683D01*
X100380090Y-113760559D01*
X100167890Y-113615569D01*
X99916000Y-113564560D01*
X97884000Y-113564560D01*
X97648683Y-113608838D01*
X97578000Y-113654321D01*
X97578000Y-110787000D01*
X98314132Y-110787000D01*
X101933000Y-114405868D01*
M02*
