G04 #@! TF.FileFunction,Paste,Top*
%FSLAX46Y46*%
G04 Gerber Fmt 4.6, Leading zero omitted, Abs format (unit mm)*
G04 Created by KiCad (PCBNEW 4.0.4-stable) date 2017 March 20, Monday 13:29:26*
%MOMM*%
%LPD*%
G01*
G04 APERTURE LIST*
%ADD10C,0.100000*%
%ADD11C,0.225000*%
%ADD12R,1.036000X1.544000*%
%ADD13R,1.544000X1.036000*%
%ADD14R,0.920000X2.020000*%
%ADD15R,1.320000X2.020000*%
%ADD16R,0.985200X3.372800*%
%ADD18R,1.018220X1.269680*%
%ADD19C,0.517840*%
%ADD20R,0.820000X0.770000*%
%ADD21R,0.520000X0.770000*%
%ADD22R,0.820000X1.020000*%
%ADD23R,0.909000X0.909000*%
%ADD24R,1.320000X0.720000*%
%ADD25R,0.720000X1.320000*%
%ADD26R,0.920000X0.520000*%
%ADD27R,0.520000X0.920000*%
%ADD28R,1.719260X1.018220*%
%ADD29R,0.920000X0.820000*%
%ADD30O,0.320000X0.720000*%
%ADD31O,0.720000X0.320000*%
%ADD32R,3.470000X3.470000*%
%ADD33R,0.248600X1.798000*%
%ADD34R,0.629600X0.248600*%
%ADD35R,0.248600X0.629600*%
%ADD36R,1.036000X1.417000*%
%ADD37R,1.417000X1.036000*%
%ADD38O,1.069020X1.018220*%
%ADD39O,2.219640X1.069020*%
%ADD40R,0.782000X0.909000*%
%ADD42O,0.870000X0.300000*%
%ADD43O,0.300000X0.870000*%
%ADD44R,5.120000X5.120000*%
G04 APERTURE END LIST*
D10*
D11*
X149037000Y-124235000D02*
X149037000Y-124635000D01*
X148537000Y-124235000D02*
X148537000Y-124635000D01*
X148037000Y-124235000D02*
X148037000Y-124635000D01*
X147537000Y-124235000D02*
X147537000Y-124635000D01*
X147037000Y-124235000D02*
X147037000Y-124635000D01*
X146537000Y-124235000D02*
X146537000Y-124635000D01*
X146037000Y-124235000D02*
X146037000Y-124635000D01*
X145537000Y-124235000D02*
X145537000Y-124635000D01*
X144737000Y-125035000D02*
X145137000Y-125035000D01*
X144737000Y-125535000D02*
X145137000Y-125535000D01*
X144737000Y-126035000D02*
X145137000Y-126035000D01*
X144737000Y-126535000D02*
X145137000Y-126535000D01*
X144737000Y-127035000D02*
X145137000Y-127035000D01*
X144737000Y-127535000D02*
X145137000Y-127535000D01*
X144737000Y-128035000D02*
X145137000Y-128035000D01*
X144737000Y-128535000D02*
X145137000Y-128535000D01*
X145537000Y-129335000D02*
X145537000Y-128935000D01*
X146037000Y-129335000D02*
X146037000Y-128935000D01*
X146537000Y-129335000D02*
X146537000Y-128935000D01*
X147037000Y-129335000D02*
X147037000Y-128935000D01*
X147537000Y-129335000D02*
X147537000Y-128935000D01*
X148037000Y-129335000D02*
X148037000Y-128935000D01*
X148537000Y-129335000D02*
X148537000Y-128935000D01*
X149037000Y-129335000D02*
X149037000Y-128935000D01*
X149837000Y-128535000D02*
X149437000Y-128535000D01*
X149837000Y-128035000D02*
X149437000Y-128035000D01*
X149837000Y-127535000D02*
X149437000Y-127535000D01*
X149837000Y-127035000D02*
X149437000Y-127035000D01*
X149837000Y-126535000D02*
X149437000Y-126535000D01*
X149837000Y-126035000D02*
X149437000Y-126035000D01*
X149837000Y-125535000D02*
X149437000Y-125535000D01*
X149837000Y-125035000D02*
X149437000Y-125035000D01*
D10*
G36*
X147537000Y-125285000D02*
X147537000Y-126535000D01*
X148787000Y-126535000D01*
X148787000Y-125285000D01*
X147537000Y-125285000D01*
G37*
G36*
X147537000Y-127035000D02*
X147537000Y-128285000D01*
X148787000Y-128285000D01*
X148787000Y-127035000D01*
X147537000Y-127035000D01*
G37*
G36*
X145787000Y-127035000D02*
X145787000Y-128285000D01*
X147037000Y-128285000D01*
X147037000Y-127035000D01*
X145787000Y-127035000D01*
G37*
G36*
X145787000Y-125285000D02*
X145787000Y-126535000D01*
X147037000Y-126535000D01*
X147037000Y-125285000D01*
X145787000Y-125285000D01*
G37*
G36*
X123090000Y-129900000D02*
X124240000Y-129900000D01*
X124240000Y-128750000D01*
X123090000Y-128750000D01*
X123090000Y-129900000D01*
G37*
G36*
X123090000Y-128450000D02*
X124240000Y-128450000D01*
X124240000Y-127300000D01*
X123090000Y-127300000D01*
X123090000Y-128450000D01*
G37*
G36*
X124540000Y-128450000D02*
X125690000Y-128450000D01*
X125690000Y-127300000D01*
X124540000Y-127300000D01*
X124540000Y-128450000D01*
G37*
G36*
X124540000Y-129900000D02*
X125690000Y-129900000D01*
X125690000Y-128750000D01*
X124540000Y-128750000D01*
X124540000Y-129900000D01*
G37*
G36*
X124540000Y-131350000D02*
X125690000Y-131350000D01*
X125690000Y-130200000D01*
X124540000Y-130200000D01*
X124540000Y-131350000D01*
G37*
G36*
X123090000Y-131350000D02*
X124240000Y-131350000D01*
X124240000Y-130200000D01*
X123090000Y-130200000D01*
X123090000Y-131350000D01*
G37*
G36*
X121640000Y-131350000D02*
X122790000Y-131350000D01*
X122790000Y-130200000D01*
X121640000Y-130200000D01*
X121640000Y-131350000D01*
G37*
G36*
X121640000Y-129900000D02*
X122790000Y-129900000D01*
X122790000Y-128750000D01*
X121640000Y-128750000D01*
X121640000Y-129900000D01*
G37*
G36*
X121640000Y-128450000D02*
X122790000Y-128450000D01*
X122790000Y-127300000D01*
X121640000Y-127300000D01*
X121640000Y-128450000D01*
G37*
D12*
X159606000Y-140780000D03*
X165956000Y-140780000D03*
X167226000Y-140780000D03*
X168496000Y-140780000D03*
X172306000Y-140780000D03*
X173576000Y-140780000D03*
X183736000Y-140780000D03*
D13*
X185006000Y-135700000D03*
X185006000Y-134430000D03*
X185006000Y-133160000D03*
X185006000Y-131890000D03*
X185006000Y-130620000D03*
X185006000Y-129350000D03*
X185006000Y-128080000D03*
D12*
X183736000Y-123000000D03*
X178656000Y-123000000D03*
X177386000Y-123000000D03*
X176116000Y-123000000D03*
X167226000Y-123000000D03*
X159606000Y-123000000D03*
D14*
X106390000Y-120222000D03*
D15*
X107790000Y-115822000D03*
D14*
X109190000Y-120222000D03*
X113756000Y-120222000D03*
D15*
X115156000Y-115822000D03*
D14*
X116556000Y-120222000D03*
D16*
X106862900Y-131738000D03*
X109225100Y-131738000D03*
D18*
X121396700Y-123160000D03*
X122895300Y-123160000D03*
D19*
X150289280Y-114847000D03*
X149364720Y-114847000D03*
D20*
X149077000Y-116625000D03*
X150577000Y-116625000D03*
X144227000Y-116625000D03*
X142727000Y-116625000D03*
D19*
X143014720Y-114847000D03*
X143939280Y-114847000D03*
D20*
X145902000Y-116625000D03*
X147402000Y-116625000D03*
X145902000Y-114847000D03*
X147402000Y-114847000D03*
X145902000Y-113069000D03*
X147402000Y-113069000D03*
D21*
X152687000Y-124245000D03*
X154587000Y-124245000D03*
D22*
X153637000Y-124245000D03*
D23*
X119380000Y-120142000D03*
X119380000Y-118618000D03*
D24*
X135222000Y-129005000D03*
X135222000Y-127105000D03*
D25*
X148877000Y-119165000D03*
X150777000Y-119165000D03*
X144427000Y-119165000D03*
X142527000Y-119165000D03*
X167795000Y-119292000D03*
X165895000Y-119292000D03*
X163350000Y-119292000D03*
X161450000Y-119292000D03*
D26*
X118204000Y-116740000D03*
X118204000Y-115240000D03*
X112108000Y-120804000D03*
X112108000Y-119304000D03*
X117442000Y-132488000D03*
X117442000Y-130988000D03*
X153478000Y-138100000D03*
X153478000Y-139600000D03*
X143863430Y-139607490D03*
X143863430Y-138107490D03*
X149668000Y-138100000D03*
X149668000Y-139600000D03*
D27*
X133202000Y-124880000D03*
X134702000Y-124880000D03*
X147414000Y-111164000D03*
X145914000Y-111164000D03*
X110826000Y-140755000D03*
X109326000Y-140755000D03*
D28*
X98900000Y-129899920D03*
X98900000Y-126100080D03*
D29*
X152937000Y-129875000D03*
X154337000Y-129875000D03*
X154337000Y-128775000D03*
X152937000Y-128775000D03*
D30*
X149037000Y-124435000D03*
X148537000Y-124435000D03*
X148037000Y-124435000D03*
X147537000Y-124435000D03*
X147037000Y-124435000D03*
X146537000Y-124435000D03*
X146037000Y-124435000D03*
X145537000Y-124435000D03*
D31*
X144937000Y-125035000D03*
X144937000Y-125535000D03*
X144937000Y-126035000D03*
X144937000Y-126535000D03*
X144937000Y-127035000D03*
X144937000Y-127535000D03*
X144937000Y-128035000D03*
X144937000Y-128535000D03*
D30*
X145537000Y-129135000D03*
X146037000Y-129135000D03*
X146537000Y-129135000D03*
X147037000Y-129135000D03*
X147537000Y-129135000D03*
X148037000Y-129135000D03*
X148537000Y-129135000D03*
X149037000Y-129135000D03*
D31*
X149637000Y-128535000D03*
X149637000Y-128035000D03*
X149637000Y-127535000D03*
X149637000Y-127035000D03*
X149637000Y-126535000D03*
X149637000Y-126035000D03*
X149637000Y-125535000D03*
X149637000Y-125035000D03*
D32*
X147287000Y-126785000D03*
D33*
X108660991Y-136390009D03*
X108171000Y-136390009D03*
X107681009Y-136390009D03*
D34*
X106771003Y-136194987D03*
X106771003Y-136695012D03*
X106771003Y-137194988D03*
X106771003Y-137695013D03*
D35*
X107671000Y-138095009D03*
X108171000Y-138095009D03*
X108671000Y-138095009D03*
D34*
X109570997Y-137695013D03*
X109570997Y-137194988D03*
X109570997Y-136695012D03*
X109570997Y-136194987D03*
D36*
X112362000Y-136945000D03*
X114140000Y-136945000D03*
X112362000Y-134405000D03*
X114140000Y-134405000D03*
D37*
X104361000Y-136691000D03*
X104361000Y-138469000D03*
D23*
X112616000Y-140882000D03*
X112616000Y-139358000D03*
X146017000Y-120562000D03*
X146017000Y-119038000D03*
X147287000Y-120562000D03*
X147287000Y-119038000D03*
X151478000Y-134278000D03*
X151478000Y-135802000D03*
X138524000Y-124880000D03*
X137000000Y-124880000D03*
X134714000Y-122975000D03*
X133190000Y-122975000D03*
X147668000Y-134278000D03*
X147668000Y-135802000D03*
X147763000Y-138088000D03*
X147763000Y-139612000D03*
X145768430Y-138095490D03*
X145768430Y-139619490D03*
X145800000Y-134238000D03*
X145800000Y-135762000D03*
X151573000Y-139612000D03*
X151573000Y-138088000D03*
X149573000Y-134278000D03*
X149573000Y-135802000D03*
X101300000Y-126038000D03*
X101300000Y-127562000D03*
X182880000Y-120142000D03*
X184404000Y-120142000D03*
X117856000Y-122936000D03*
X119380000Y-122936000D03*
X121146000Y-120922000D03*
X121146000Y-119398000D03*
X123146000Y-120922000D03*
X123146000Y-119398000D03*
X127310000Y-123467000D03*
X127310000Y-121943000D03*
X152875000Y-131600000D03*
X154399000Y-131600000D03*
X142400000Y-123862000D03*
X142400000Y-122338000D03*
X154438000Y-127200000D03*
X155962000Y-127200000D03*
X137127000Y-127293000D03*
X137127000Y-128817000D03*
X139032000Y-127293000D03*
X139032000Y-128817000D03*
X140937000Y-127293000D03*
X140937000Y-128817000D03*
X154272000Y-117133000D03*
X154272000Y-118657000D03*
X139032000Y-118657000D03*
X139032000Y-117133000D03*
X157320000Y-118530000D03*
X157320000Y-120054000D03*
X152367000Y-117133000D03*
X152367000Y-118657000D03*
X140937000Y-118657000D03*
X140937000Y-117133000D03*
X159225000Y-118530000D03*
X159225000Y-120054000D03*
X152875000Y-122340000D03*
X154399000Y-122340000D03*
D37*
X129215000Y-123594000D03*
X129215000Y-121816000D03*
D38*
X189324000Y-133260000D03*
D39*
X190848000Y-131761400D03*
X190848000Y-134758600D03*
D23*
X178148000Y-120054000D03*
X176624000Y-120054000D03*
D23*
X133488000Y-135850000D03*
X135012000Y-135850000D03*
D40*
X121560000Y-139234000D03*
X120036000Y-139234000D03*
X121560000Y-141012000D03*
X120036000Y-141012000D03*
D23*
X118004000Y-139234000D03*
X116480000Y-139234000D03*
X118004000Y-141012000D03*
X116480000Y-141012000D03*
D26*
X110838000Y-116740000D03*
X110838000Y-115240000D03*
D27*
X109750000Y-123444000D03*
X111250000Y-123444000D03*
D23*
X121230000Y-137360000D03*
X119706000Y-137360000D03*
X119706000Y-135660000D03*
X121230000Y-135660000D03*
D42*
X120190000Y-126575000D03*
X120190000Y-127075000D03*
X120190000Y-127575000D03*
X120190000Y-128075000D03*
X120190000Y-128575000D03*
X120190000Y-129075000D03*
X120190000Y-129575000D03*
X120190000Y-130075000D03*
X120190000Y-130575000D03*
X120190000Y-131075000D03*
X120190000Y-131575000D03*
X120190000Y-132075000D03*
D43*
X120915000Y-132800000D03*
X121415000Y-132800000D03*
X121915000Y-132800000D03*
X122415000Y-132800000D03*
X122915000Y-132800000D03*
X123415000Y-132800000D03*
X123915000Y-132800000D03*
X124415000Y-132800000D03*
X124915000Y-132800000D03*
X125415000Y-132800000D03*
X125915000Y-132800000D03*
X126415000Y-132800000D03*
D42*
X127140000Y-132075000D03*
X127140000Y-131575000D03*
X127140000Y-131075000D03*
X127140000Y-130575000D03*
X127140000Y-130075000D03*
X127140000Y-129575000D03*
X127140000Y-129075000D03*
X127140000Y-128575000D03*
X127140000Y-128075000D03*
X127140000Y-127575000D03*
X127140000Y-127075000D03*
X127140000Y-126575000D03*
D43*
X126415000Y-125850000D03*
X125915000Y-125850000D03*
X125415000Y-125850000D03*
X124915000Y-125850000D03*
X124415000Y-125850000D03*
X123915000Y-125850000D03*
X123415000Y-125850000D03*
X122915000Y-125850000D03*
X122415000Y-125850000D03*
X121915000Y-125850000D03*
X121415000Y-125850000D03*
X120915000Y-125850000D03*
D44*
X123665000Y-129325000D03*
M02*
