G04 #@! TF.FileFunction,Soldermask,Top*
%FSLAX46Y46*%
G04 Gerber Fmt 4.6, Leading zero omitted, Abs format (unit mm)*
G04 Created by KiCad (PCBNEW 4.0.7) date 2018 November 02, Friday 17:04:49*
%MOMM*%
%LPD*%
G01*
G04 APERTURE LIST*
%ADD10C,0.050000*%
%ADD11C,2.540000*%
%ADD12C,2.900000*%
%ADD13R,1.150000X1.200000*%
%ADD14R,1.200000X1.150000*%
%ADD15C,2.800000*%
%ADD16R,2.800000X2.800000*%
%ADD17R,2.432000X2.432000*%
%ADD18O,2.432000X2.432000*%
%ADD19R,1.289000X1.289000*%
%ADD20R,2.100000X2.100000*%
%ADD21O,2.100000X2.100000*%
%ADD22R,1.300000X0.900000*%
%ADD23R,0.900000X1.300000*%
%ADD24O,0.680000X1.250000*%
%ADD25O,1.250000X0.680000*%
%ADD26R,5.500000X5.500000*%
%ADD27R,0.850000X1.900000*%
%ADD28R,1.649680X1.398220*%
%ADD29R,2.850000X6.300000*%
%ADD30R,1.200000X3.300000*%
%ADD31R,0.781000X1.797000*%
%ADD32O,2.398980X2.398980*%
%ADD33R,2.398980X2.398980*%
%ADD34R,2.900000X1.500000*%
%ADD35R,1.670000X1.365200*%
%ADD36R,1.100000X1.600000*%
%ADD37R,4.900000X4.690000*%
%ADD38R,1.950000X2.000000*%
%ADD39R,1.950000X1.600000*%
%ADD40R,2.400000X1.300000*%
%ADD41R,0.650000X1.000000*%
%ADD42C,1.004800*%
%ADD43C,1.009600*%
%ADD44R,1.050000X1.620000*%
%ADD45R,1.620000X1.050000*%
%ADD46R,1.650000X1.400000*%
%ADD47R,1.400000X1.650000*%
%ADD48R,2.950000X3.100000*%
%ADD49R,2.127200X2.432000*%
%ADD50O,2.127200X2.432000*%
%ADD51R,1.750000X1.750000*%
%ADD52R,1.400000X0.950000*%
G04 APERTURE END LIST*
D10*
D11*
X66210000Y5005000D03*
X-1290000Y50005000D03*
D12*
X10190000Y5000000D03*
X53750000Y5000000D03*
D13*
X55000000Y22250000D03*
X55000000Y23750000D03*
D14*
X57500000Y20000000D03*
X59000000Y20000000D03*
X57500000Y18000000D03*
X59000000Y18000000D03*
X56250000Y13705000D03*
X54750000Y13705000D03*
X39000000Y2750000D03*
X40500000Y2750000D03*
X72000000Y29750000D03*
X73500000Y29750000D03*
D13*
X5940000Y19440000D03*
X5940000Y17940000D03*
D14*
X10905000Y22500000D03*
X12405000Y22500000D03*
X10905000Y14880000D03*
X12405000Y14880000D03*
D13*
X16100000Y17940000D03*
X16100000Y19440000D03*
X25500000Y18000000D03*
X25500000Y19500000D03*
X25545000Y11440000D03*
X25545000Y9940000D03*
X23545000Y9940000D03*
X23545000Y11440000D03*
X19545000Y9940000D03*
X19545000Y11440000D03*
D15*
X66690000Y10355000D03*
D16*
X66690000Y13855000D03*
D17*
X62750000Y25250000D03*
D18*
X62750000Y27790000D03*
D19*
X57500000Y22000000D03*
X59024000Y22000000D03*
D20*
X61600000Y330000D03*
D21*
X59060000Y330000D03*
D20*
X48900000Y330000D03*
D21*
X51440000Y330000D03*
D22*
X63890000Y16305000D03*
X63890000Y17805000D03*
X63890000Y13205000D03*
X63890000Y14705000D03*
X73250000Y35750000D03*
X73250000Y34250000D03*
X71250000Y38750000D03*
X71250000Y37250000D03*
X71250000Y34250000D03*
X71250000Y35750000D03*
X48490000Y3455000D03*
X48490000Y4955000D03*
X75740000Y40405000D03*
X75740000Y41905000D03*
X75740000Y38705000D03*
X75740000Y37205000D03*
D23*
X65500000Y29750000D03*
X67000000Y29750000D03*
X68750000Y29750000D03*
X70250000Y29750000D03*
X31940000Y47455000D03*
X33440000Y47455000D03*
X12405000Y17420000D03*
X10905000Y17420000D03*
X12405000Y19960000D03*
X10905000Y19960000D03*
X12405000Y25040000D03*
X10905000Y25040000D03*
X12405000Y12340000D03*
X10905000Y12340000D03*
X16215000Y12340000D03*
X14715000Y12340000D03*
X16215000Y25040000D03*
X14715000Y25040000D03*
X31295000Y23690000D03*
X29795000Y23690000D03*
X31295000Y16010000D03*
X29795000Y16010000D03*
X31295000Y13810000D03*
X29795000Y13810000D03*
X5450000Y31000000D03*
X3950000Y31000000D03*
X12450000Y38500000D03*
X10950000Y38500000D03*
X10950000Y36000000D03*
X12450000Y36000000D03*
X15950000Y38500000D03*
X14450000Y38500000D03*
X14450000Y36000000D03*
X15950000Y36000000D03*
D24*
X51250000Y20975000D03*
X50750000Y20975000D03*
X50250000Y20975000D03*
X49750000Y20975000D03*
X49250000Y20975000D03*
X48750000Y20975000D03*
X48250000Y20975000D03*
X47750000Y20975000D03*
X47250000Y20975000D03*
X46750000Y20975000D03*
X46250000Y20975000D03*
X45750000Y20975000D03*
D25*
X45025000Y20250000D03*
X45025000Y19750000D03*
X45025000Y19250000D03*
X45025000Y18750000D03*
X45025000Y18250000D03*
X45025000Y17750000D03*
X45025000Y17250000D03*
X45025000Y16750000D03*
X45025000Y16250000D03*
X45025000Y15750000D03*
X45025000Y15250000D03*
X45025000Y14750000D03*
D24*
X45750000Y14025000D03*
X46250000Y14025000D03*
X46750000Y14025000D03*
X47250000Y14025000D03*
X47750000Y14025000D03*
X48250000Y14025000D03*
X48750000Y14025000D03*
X49250000Y14025000D03*
X49750000Y14025000D03*
X50250000Y14025000D03*
X50750000Y14025000D03*
X51250000Y14025000D03*
D25*
X51975000Y14750000D03*
X51975000Y15250000D03*
X51975000Y15750000D03*
X51975000Y16250000D03*
X51975000Y16750000D03*
X51975000Y17250000D03*
X51975000Y17750000D03*
X51975000Y18250000D03*
X51975000Y18750000D03*
X51975000Y19250000D03*
X51975000Y19750000D03*
X51975000Y20250000D03*
D26*
X48500000Y17500000D03*
D27*
X22820000Y21640000D03*
X22170000Y21640000D03*
X21520000Y21640000D03*
X20870000Y21640000D03*
X20220000Y21640000D03*
X19570000Y21640000D03*
X18920000Y21640000D03*
X18270000Y21640000D03*
X18270000Y15740000D03*
X18920000Y15740000D03*
X19570000Y15740000D03*
X20220000Y15740000D03*
X20870000Y15740000D03*
X21520000Y15740000D03*
X22170000Y15740000D03*
X22820000Y15740000D03*
D28*
X55000000Y19749300D03*
X55000000Y18250700D03*
D20*
X53980000Y330000D03*
D21*
X56520000Y330000D03*
D12*
X10250000Y49500000D03*
D13*
X67250000Y34250000D03*
X67250000Y35750000D03*
D14*
X69000000Y38000000D03*
X67500000Y38000000D03*
D13*
X73250000Y37250000D03*
X73250000Y38750000D03*
D29*
X65025000Y53000000D03*
X59475000Y53000000D03*
D30*
X71850000Y26500000D03*
X69650000Y26500000D03*
D22*
X69250000Y34250000D03*
X69250000Y35750000D03*
D31*
X66222500Y46667000D03*
X65587500Y46667000D03*
X64952500Y46667000D03*
X64317500Y46667000D03*
X63682500Y46667000D03*
X63047500Y46667000D03*
X62412500Y46667000D03*
X61777500Y46667000D03*
X61777500Y41333000D03*
X62412500Y41333000D03*
X63047500Y41333000D03*
X63682500Y41333000D03*
X64317500Y41333000D03*
X64952500Y41333000D03*
X65587500Y41333000D03*
X66222500Y41333000D03*
D32*
X20960000Y42760000D03*
D33*
X28580000Y42760000D03*
D32*
X26040000Y42760000D03*
X23500000Y42760000D03*
X18420000Y42760000D03*
X8480000Y14880000D03*
D33*
X8480000Y22500000D03*
D32*
X8480000Y19960000D03*
X8480000Y17420000D03*
X8440000Y33680000D03*
D33*
X8440000Y41300000D03*
D32*
X8440000Y38760000D03*
X8440000Y36220000D03*
X8440000Y31140000D03*
D20*
X17610000Y55500000D03*
D21*
X20150000Y55500000D03*
X22690000Y55500000D03*
X25230000Y55500000D03*
X27770000Y55500000D03*
X30310000Y55500000D03*
D23*
X31940000Y43455000D03*
X33440000Y43455000D03*
D22*
X53090000Y28405000D03*
X53090000Y29905000D03*
X48990000Y28395000D03*
X48990000Y29895000D03*
X51085000Y28395000D03*
X51085000Y29895000D03*
D34*
X36990000Y47455000D03*
X36990000Y43455000D03*
X36990000Y33455000D03*
X52390000Y33455000D03*
X52390000Y35455000D03*
X52390000Y37455000D03*
X52390000Y39455000D03*
X52390000Y45455000D03*
X52390000Y47455000D03*
D35*
X40940000Y28935000D03*
X40940000Y30205000D03*
D36*
X71780000Y11155000D03*
X73050000Y11155000D03*
X74330000Y11155000D03*
X75600000Y11155000D03*
X75600000Y16955000D03*
X74330000Y16955000D03*
X73050000Y16955000D03*
X71780000Y16955000D03*
D37*
X73690000Y14555000D03*
D38*
X72600000Y15305000D03*
X74780000Y15305000D03*
D39*
X72600000Y13305000D03*
X74780000Y13305000D03*
D40*
X70500000Y20000000D03*
D41*
X70750000Y21000000D03*
D42*
X71250000Y20000000D03*
D43*
X69750000Y20000000D03*
D41*
X71750000Y21000000D03*
X71250000Y21000000D03*
X70250000Y21000000D03*
X69750000Y21000000D03*
X69250000Y21000000D03*
X69250000Y19000000D03*
X69750000Y19000000D03*
X70250000Y19000000D03*
X70750000Y19000000D03*
X71250000Y19000000D03*
X71750000Y19000000D03*
D11*
X-1290000Y5000D03*
D44*
X46200000Y8370000D03*
X44300000Y8370000D03*
X45250000Y5750000D03*
X56760000Y30695000D03*
X58660000Y30695000D03*
X57710000Y33315000D03*
D45*
X2885000Y35160000D03*
X2885000Y33260000D03*
X5505000Y34210000D03*
D46*
X73690000Y21805000D03*
X73690000Y19805000D03*
X63750000Y38455000D03*
X63750000Y36455000D03*
X66690000Y21455000D03*
X66690000Y19455000D03*
X59750000Y39000000D03*
X59750000Y37000000D03*
X61750000Y39000000D03*
X61750000Y37000000D03*
D47*
X56500000Y11955000D03*
X54500000Y11955000D03*
D48*
X40810000Y7505000D03*
X34460000Y7505000D03*
D46*
X21545000Y9690000D03*
X21545000Y11690000D03*
D23*
X43110000Y21305000D03*
X41610000Y21305000D03*
D22*
X48500000Y8250000D03*
X48500000Y6750000D03*
D23*
X58460000Y28005000D03*
X56960000Y28005000D03*
D49*
X33420000Y250000D03*
D50*
X35960000Y250000D03*
X38500000Y250000D03*
X41040000Y250000D03*
D51*
X15000000Y55500000D03*
D23*
X46000000Y-750000D03*
X44500000Y-750000D03*
X46000000Y1500000D03*
X44500000Y1500000D03*
D13*
X26500000Y2500000D03*
X26500000Y1000000D03*
X24000000Y2500000D03*
X24000000Y1000000D03*
D22*
X29000000Y4750000D03*
X29000000Y6250000D03*
D52*
X26550000Y4550000D03*
X26550000Y5500000D03*
X26550000Y6450000D03*
X23950000Y6450000D03*
X23950000Y4550000D03*
M02*
