G04 #@! TF.FileFunction,Legend,Top*
%FSLAX46Y46*%
G04 Gerber Fmt 4.6, Leading zero omitted, Abs format (unit mm)*
G04 Created by KiCad (PCBNEW 4.0.7) date 2018 November 02, Friday 17:04:49*
%MOMM*%
%LPD*%
G01*
G04 APERTURE LIST*
%ADD10C,0.050000*%
%ADD11C,0.250000*%
%ADD12C,0.300000*%
%ADD13C,0.150000*%
%ADD14C,0.127000*%
%ADD15C,0.120000*%
%ADD16C,0.200000*%
%ADD17C,0.066040*%
%ADD18C,0.152400*%
%ADD19C,0.101600*%
%ADD20C,0.121920*%
G04 APERTURE END LIST*
D10*
D11*
X33035713Y-1952381D02*
X33035713Y-1285714D01*
X33035713Y-1476190D02*
X33083332Y-1380952D01*
X33130951Y-1333333D01*
X33226189Y-1285714D01*
X33321428Y-1285714D01*
X33559523Y-1952381D02*
X34083333Y-1285714D01*
X33559523Y-1285714D02*
X34083333Y-1952381D01*
X35083333Y-1285714D02*
X35464285Y-1285714D01*
X35226190Y-952381D02*
X35226190Y-1809524D01*
X35273809Y-1904762D01*
X35369047Y-1952381D01*
X35464285Y-1952381D01*
X35702381Y-1952381D02*
X36226191Y-1285714D01*
X35702381Y-1285714D02*
X36226191Y-1952381D01*
X38035715Y-952381D02*
X38654763Y-952381D01*
X38321429Y-1333333D01*
X38464287Y-1333333D01*
X38559525Y-1380952D01*
X38607144Y-1428571D01*
X38654763Y-1523810D01*
X38654763Y-1761905D01*
X38607144Y-1857143D01*
X38559525Y-1904762D01*
X38464287Y-1952381D01*
X38178572Y-1952381D01*
X38083334Y-1904762D01*
X38035715Y-1857143D01*
X38940477Y-952381D02*
X39273810Y-1952381D01*
X39607144Y-952381D01*
X41226192Y-1000000D02*
X41130954Y-952381D01*
X40988097Y-952381D01*
X40845239Y-1000000D01*
X40750001Y-1095238D01*
X40702382Y-1190476D01*
X40654763Y-1380952D01*
X40654763Y-1523810D01*
X40702382Y-1714286D01*
X40750001Y-1809524D01*
X40845239Y-1904762D01*
X40988097Y-1952381D01*
X41083335Y-1952381D01*
X41226192Y-1904762D01*
X41273811Y-1857143D01*
X41273811Y-1523810D01*
X41083335Y-1523810D01*
X60757619Y29350238D02*
X59757619Y29016905D01*
X60757619Y28683571D01*
X59852857Y27778809D02*
X59805238Y27826428D01*
X59757619Y27969285D01*
X59757619Y28064523D01*
X59805238Y28207381D01*
X59900476Y28302619D01*
X59995714Y28350238D01*
X60186190Y28397857D01*
X60329048Y28397857D01*
X60519524Y28350238D01*
X60614762Y28302619D01*
X60710000Y28207381D01*
X60757619Y28064523D01*
X60757619Y27969285D01*
X60710000Y27826428D01*
X60662381Y27778809D01*
X59852857Y26778809D02*
X59805238Y26826428D01*
X59757619Y26969285D01*
X59757619Y27064523D01*
X59805238Y27207381D01*
X59900476Y27302619D01*
X59995714Y27350238D01*
X60186190Y27397857D01*
X60329048Y27397857D01*
X60519524Y27350238D01*
X60614762Y27302619D01*
X60710000Y27207381D01*
X60757619Y27064523D01*
X60757619Y26969285D01*
X60710000Y26826428D01*
X60662381Y26778809D01*
X60757619Y25683571D02*
X60757619Y25064523D01*
X60376667Y25397857D01*
X60376667Y25254999D01*
X60329048Y25159761D01*
X60281429Y25112142D01*
X60186190Y25064523D01*
X59948095Y25064523D01*
X59852857Y25112142D01*
X59805238Y25159761D01*
X59757619Y25254999D01*
X59757619Y25540714D01*
X59805238Y25635952D01*
X59852857Y25683571D01*
X60757619Y24778809D02*
X59757619Y24445476D01*
X60757619Y24112142D01*
X60757619Y23874047D02*
X60757619Y23254999D01*
X60376667Y23588333D01*
X60376667Y23445475D01*
X60329048Y23350237D01*
X60281429Y23302618D01*
X60186190Y23254999D01*
X59948095Y23254999D01*
X59852857Y23302618D01*
X59805238Y23350237D01*
X59757619Y23445475D01*
X59757619Y23731190D01*
X59805238Y23826428D01*
X59852857Y23874047D01*
X14011902Y52797619D02*
X14011902Y53464286D01*
X14011902Y53273810D02*
X14059521Y53369048D01*
X14107140Y53416667D01*
X14202378Y53464286D01*
X14297617Y53464286D01*
X14488093Y53464286D02*
X14869045Y53464286D01*
X14630950Y53797619D02*
X14630950Y52940476D01*
X14678569Y52845238D01*
X14773807Y52797619D01*
X14869045Y52797619D01*
X15630951Y52845238D02*
X15535713Y52797619D01*
X15345236Y52797619D01*
X15249998Y52845238D01*
X15202379Y52892857D01*
X15154760Y52988095D01*
X15154760Y53273810D01*
X15202379Y53369048D01*
X15249998Y53416667D01*
X15345236Y53464286D01*
X15535713Y53464286D01*
X15630951Y53416667D01*
X17249999Y52797619D02*
X17249999Y53797619D01*
X17249999Y52845238D02*
X17154761Y52797619D01*
X16964284Y52797619D01*
X16869046Y52845238D01*
X16821427Y52892857D01*
X16773808Y52988095D01*
X16773808Y53273810D01*
X16821427Y53369048D01*
X16869046Y53416667D01*
X16964284Y53464286D01*
X17154761Y53464286D01*
X17249999Y53416667D01*
X17583332Y53464286D02*
X17964284Y53464286D01*
X17726189Y53797619D02*
X17726189Y52940476D01*
X17773808Y52845238D01*
X17869046Y52797619D01*
X17964284Y52797619D01*
X18297618Y52797619D02*
X18297618Y53464286D01*
X18297618Y53273810D02*
X18345237Y53369048D01*
X18392856Y53416667D01*
X18488094Y53464286D01*
X18583333Y53464286D01*
X19535714Y53464286D02*
X19916666Y53464286D01*
X19678571Y53797619D02*
X19678571Y52940476D01*
X19726190Y52845238D01*
X19821428Y52797619D01*
X19916666Y52797619D01*
X20154762Y52797619D02*
X20678572Y53464286D01*
X20154762Y53464286D02*
X20678572Y52797619D01*
X21821429Y52797619D02*
X21821429Y53464286D01*
X21821429Y53273810D02*
X21869048Y53369048D01*
X21916667Y53416667D01*
X22011905Y53464286D01*
X22107144Y53464286D01*
X22345239Y52797619D02*
X22869049Y53464286D01*
X22345239Y53464286D02*
X22869049Y52797619D01*
X23916668Y53464286D02*
X24154763Y52797619D01*
X24392859Y53464286D01*
X25202383Y52845238D02*
X25107145Y52797619D01*
X24916668Y52797619D01*
X24821430Y52845238D01*
X24773811Y52892857D01*
X24726192Y52988095D01*
X24726192Y53273810D01*
X24773811Y53369048D01*
X24821430Y53416667D01*
X24916668Y53464286D01*
X25107145Y53464286D01*
X25202383Y53416667D01*
X26059526Y52845238D02*
X25964288Y52797619D01*
X25773811Y52797619D01*
X25678573Y52845238D01*
X25630954Y52892857D01*
X25583335Y52988095D01*
X25583335Y53273810D01*
X25630954Y53369048D01*
X25678573Y53416667D01*
X25773811Y53464286D01*
X25964288Y53464286D01*
X26059526Y53416667D01*
X27678574Y52845238D02*
X27583336Y52797619D01*
X27392859Y52797619D01*
X27297621Y52845238D01*
X27250002Y52892857D01*
X27202383Y52988095D01*
X27202383Y53273810D01*
X27250002Y53369048D01*
X27297621Y53416667D01*
X27392859Y53464286D01*
X27583336Y53464286D01*
X27678574Y53416667D01*
X27964288Y53464286D02*
X28345240Y53464286D01*
X28107145Y53797619D02*
X28107145Y52940476D01*
X28154764Y52845238D01*
X28250002Y52797619D01*
X28345240Y52797619D01*
X28630955Y52845238D02*
X28726193Y52797619D01*
X28916669Y52797619D01*
X29011908Y52845238D01*
X29059527Y52940476D01*
X29059527Y52988095D01*
X29011908Y53083333D01*
X28916669Y53130952D01*
X28773812Y53130952D01*
X28678574Y53178571D01*
X28630955Y53273810D01*
X28630955Y53321429D01*
X28678574Y53416667D01*
X28773812Y53464286D01*
X28916669Y53464286D01*
X29011908Y53416667D01*
X30678575Y53464286D02*
X30678575Y52654762D01*
X30630956Y52559524D01*
X30583337Y52511905D01*
X30488098Y52464286D01*
X30345241Y52464286D01*
X30250003Y52511905D01*
X30678575Y52845238D02*
X30583337Y52797619D01*
X30392860Y52797619D01*
X30297622Y52845238D01*
X30250003Y52892857D01*
X30202384Y52988095D01*
X30202384Y53273810D01*
X30250003Y53369048D01*
X30297622Y53416667D01*
X30392860Y53464286D01*
X30583337Y53464286D01*
X30678575Y53416667D01*
X31154765Y53464286D02*
X31154765Y52797619D01*
X31154765Y53369048D02*
X31202384Y53416667D01*
X31297622Y53464286D01*
X31440480Y53464286D01*
X31535718Y53416667D01*
X31583337Y53321429D01*
X31583337Y52797619D01*
X32488099Y52797619D02*
X32488099Y53797619D01*
X32488099Y52845238D02*
X32392861Y52797619D01*
X32202384Y52797619D01*
X32107146Y52845238D01*
X32059527Y52892857D01*
X32011908Y52988095D01*
X32011908Y53273810D01*
X32059527Y53369048D01*
X32107146Y53416667D01*
X32202384Y53464286D01*
X32392861Y53464286D01*
X32488099Y53416667D01*
X48376664Y-1947381D02*
X48376664Y-1280714D01*
X48376664Y-1471190D02*
X48424283Y-1375952D01*
X48471902Y-1328333D01*
X48567140Y-1280714D01*
X48662379Y-1280714D01*
X48948093Y-1899762D02*
X49043331Y-1947381D01*
X49233807Y-1947381D01*
X49329046Y-1899762D01*
X49376665Y-1804524D01*
X49376665Y-1756905D01*
X49329046Y-1661667D01*
X49233807Y-1614048D01*
X49090950Y-1614048D01*
X48995712Y-1566429D01*
X48948093Y-1471190D01*
X48948093Y-1423571D01*
X48995712Y-1328333D01*
X49090950Y-1280714D01*
X49233807Y-1280714D01*
X49329046Y-1328333D01*
X49662379Y-1280714D02*
X50043331Y-1280714D01*
X49805236Y-947381D02*
X49805236Y-1804524D01*
X49852855Y-1899762D01*
X49948093Y-1947381D01*
X50043331Y-1947381D01*
X50995713Y-1280714D02*
X51376665Y-1280714D01*
X51138570Y-947381D02*
X51138570Y-1804524D01*
X51186189Y-1899762D01*
X51281427Y-1947381D01*
X51376665Y-1947381D01*
X51662380Y-1899762D02*
X51757618Y-1947381D01*
X51948094Y-1947381D01*
X52043333Y-1899762D01*
X52090952Y-1804524D01*
X52090952Y-1756905D01*
X52043333Y-1661667D01*
X51948094Y-1614048D01*
X51805237Y-1614048D01*
X51709999Y-1566429D01*
X51662380Y-1471190D01*
X51662380Y-1423571D01*
X51709999Y-1328333D01*
X51805237Y-1280714D01*
X51948094Y-1280714D01*
X52043333Y-1328333D01*
X52376666Y-1280714D02*
X52757618Y-1280714D01*
X52519523Y-947381D02*
X52519523Y-1804524D01*
X52567142Y-1899762D01*
X52662380Y-1947381D01*
X52757618Y-1947381D01*
X53757619Y-947381D02*
X54376667Y-947381D01*
X54043333Y-1328333D01*
X54186191Y-1328333D01*
X54281429Y-1375952D01*
X54329048Y-1423571D01*
X54376667Y-1518810D01*
X54376667Y-1756905D01*
X54329048Y-1852143D01*
X54281429Y-1899762D01*
X54186191Y-1947381D01*
X53900476Y-1947381D01*
X53805238Y-1899762D01*
X53757619Y-1852143D01*
X54662381Y-947381D02*
X54995714Y-1947381D01*
X55329048Y-947381D01*
X56948096Y-995000D02*
X56852858Y-947381D01*
X56710001Y-947381D01*
X56567143Y-995000D01*
X56471905Y-1090238D01*
X56424286Y-1185476D01*
X56376667Y-1375952D01*
X56376667Y-1518810D01*
X56424286Y-1709286D01*
X56471905Y-1804524D01*
X56567143Y-1899762D01*
X56710001Y-1947381D01*
X56805239Y-1947381D01*
X56948096Y-1899762D01*
X56995715Y-1852143D01*
X56995715Y-1518810D01*
X56805239Y-1518810D01*
X58805239Y-1280714D02*
X59186191Y-1280714D01*
X58948096Y-947381D02*
X58948096Y-1804524D01*
X58995715Y-1899762D01*
X59090953Y-1947381D01*
X59186191Y-1947381D01*
X59424287Y-1947381D02*
X59948097Y-1280714D01*
X59424287Y-1280714D02*
X59948097Y-1947381D01*
X61090954Y-1947381D02*
X61090954Y-1280714D01*
X61090954Y-1471190D02*
X61138573Y-1375952D01*
X61186192Y-1328333D01*
X61281430Y-1280714D01*
X61376669Y-1280714D01*
X61614764Y-1947381D02*
X62138574Y-1280714D01*
X61614764Y-1280714D02*
X62138574Y-1947381D01*
D12*
X36210000Y48969286D02*
X36281428Y48897857D01*
X36210000Y48826429D01*
X36138571Y48897857D01*
X36210000Y48969286D01*
X36210000Y48826429D01*
X70890000Y9919286D02*
X70961428Y9847857D01*
X70890000Y9776429D01*
X70818571Y9847857D01*
X70890000Y9919286D01*
X70890000Y9776429D01*
X24030714Y22210000D02*
X24102143Y22281428D01*
X24173571Y22210000D01*
X24102143Y22138571D01*
X24030714Y22210000D01*
X24173571Y22210000D01*
X67210000Y45969286D02*
X67281428Y45897857D01*
X67210000Y45826429D01*
X67138571Y45897857D01*
X67210000Y45969286D01*
X67210000Y45826429D01*
X72710000Y21469286D02*
X72781428Y21397857D01*
X72710000Y21326429D01*
X72638571Y21397857D01*
X72710000Y21469286D01*
X72710000Y21326429D01*
D13*
X54400000Y22650000D02*
X54400000Y23350000D01*
X55600000Y23350000D02*
X55600000Y22650000D01*
X57900000Y20600000D02*
X58600000Y20600000D01*
X58600000Y19400000D02*
X57900000Y19400000D01*
X57900000Y18600000D02*
X58600000Y18600000D01*
X58600000Y17400000D02*
X57900000Y17400000D01*
X55850000Y13105000D02*
X55150000Y13105000D01*
X55150000Y14305000D02*
X55850000Y14305000D01*
X39400000Y3350000D02*
X40100000Y3350000D01*
X40100000Y2150000D02*
X39400000Y2150000D01*
X72400000Y30350000D02*
X73100000Y30350000D01*
X73100000Y29150000D02*
X72400000Y29150000D01*
X6540000Y19040000D02*
X6540000Y18340000D01*
X5340000Y18340000D02*
X5340000Y19040000D01*
X11305000Y23100000D02*
X12005000Y23100000D01*
X12005000Y21900000D02*
X11305000Y21900000D01*
X11305000Y15480000D02*
X12005000Y15480000D01*
X12005000Y14280000D02*
X11305000Y14280000D01*
X15500000Y18340000D02*
X15500000Y19040000D01*
X16700000Y19040000D02*
X16700000Y18340000D01*
X24900000Y18400000D02*
X24900000Y19100000D01*
X26100000Y19100000D02*
X26100000Y18400000D01*
X26145000Y11040000D02*
X26145000Y10340000D01*
X24945000Y10340000D02*
X24945000Y11040000D01*
X22945000Y10340000D02*
X22945000Y11040000D01*
X24145000Y11040000D02*
X24145000Y10340000D01*
X18945000Y10340000D02*
X18945000Y11040000D01*
X20145000Y11040000D02*
X20145000Y10340000D01*
X61480000Y26520000D02*
X61480000Y29060000D01*
X61200000Y23700000D02*
X61200000Y25250000D01*
X61480000Y26520000D02*
X64020000Y26520000D01*
X64300000Y25250000D02*
X64300000Y23700000D01*
X64300000Y23700000D02*
X61200000Y23700000D01*
X64020000Y26520000D02*
X64020000Y29060000D01*
X64020000Y29060000D02*
X61480000Y29060000D01*
D14*
X56865000Y22635000D02*
X59659000Y22635000D01*
X59659000Y22635000D02*
X59659000Y21365000D01*
X59659000Y21365000D02*
X56865000Y21365000D01*
X56865000Y21365000D02*
X56865000Y22635000D01*
D15*
X60330000Y1660000D02*
X57730000Y1660000D01*
X57730000Y1660000D02*
X57730000Y-1000000D01*
X57730000Y-1000000D02*
X60330000Y-1000000D01*
X60330000Y-1000000D02*
X60330000Y1660000D01*
X61600000Y1660000D02*
X62930000Y1660000D01*
X62930000Y1660000D02*
X62930000Y330000D01*
X50170000Y-1000000D02*
X52770000Y-1000000D01*
X52770000Y-1000000D02*
X52770000Y1660000D01*
X52770000Y1660000D02*
X50170000Y1660000D01*
X50170000Y1660000D02*
X50170000Y-1000000D01*
X48900000Y-1000000D02*
X47570000Y-1000000D01*
X47570000Y-1000000D02*
X47570000Y330000D01*
D13*
X64565000Y17555000D02*
X64565000Y16555000D01*
X63215000Y16555000D02*
X63215000Y17555000D01*
X64565000Y14455000D02*
X64565000Y13455000D01*
X63215000Y13455000D02*
X63215000Y14455000D01*
X72575000Y34500000D02*
X72575000Y35500000D01*
X73925000Y35500000D02*
X73925000Y34500000D01*
X70575000Y37500000D02*
X70575000Y38500000D01*
X71925000Y38500000D02*
X71925000Y37500000D01*
X71925000Y35500000D02*
X71925000Y34500000D01*
X70575000Y34500000D02*
X70575000Y35500000D01*
X49165000Y4705000D02*
X49165000Y3705000D01*
X47815000Y3705000D02*
X47815000Y4705000D01*
X76415000Y41655000D02*
X76415000Y40655000D01*
X75065000Y40655000D02*
X75065000Y41655000D01*
X75065000Y37455000D02*
X75065000Y38455000D01*
X76415000Y38455000D02*
X76415000Y37455000D01*
X66750000Y29075000D02*
X65750000Y29075000D01*
X65750000Y30425000D02*
X66750000Y30425000D01*
X70000000Y29075000D02*
X69000000Y29075000D01*
X69000000Y30425000D02*
X70000000Y30425000D01*
X33190000Y46780000D02*
X32190000Y46780000D01*
X32190000Y48130000D02*
X33190000Y48130000D01*
X11155000Y18095000D02*
X12155000Y18095000D01*
X12155000Y16745000D02*
X11155000Y16745000D01*
X11155000Y20635000D02*
X12155000Y20635000D01*
X12155000Y19285000D02*
X11155000Y19285000D01*
X11155000Y25715000D02*
X12155000Y25715000D01*
X12155000Y24365000D02*
X11155000Y24365000D01*
X11155000Y13015000D02*
X12155000Y13015000D01*
X12155000Y11665000D02*
X11155000Y11665000D01*
X14965000Y13015000D02*
X15965000Y13015000D01*
X15965000Y11665000D02*
X14965000Y11665000D01*
X14965000Y25715000D02*
X15965000Y25715000D01*
X15965000Y24365000D02*
X14965000Y24365000D01*
X30045000Y24365000D02*
X31045000Y24365000D01*
X31045000Y23015000D02*
X30045000Y23015000D01*
X30045000Y16685000D02*
X31045000Y16685000D01*
X31045000Y15335000D02*
X30045000Y15335000D01*
X30045000Y14485000D02*
X31045000Y14485000D01*
X31045000Y13135000D02*
X30045000Y13135000D01*
X4200000Y31675000D02*
X5200000Y31675000D01*
X5200000Y30325000D02*
X4200000Y30325000D01*
X11200000Y39175000D02*
X12200000Y39175000D01*
X12200000Y37825000D02*
X11200000Y37825000D01*
X12200000Y35325000D02*
X11200000Y35325000D01*
X11200000Y36675000D02*
X12200000Y36675000D01*
X14700000Y39175000D02*
X15700000Y39175000D01*
X15700000Y37825000D02*
X14700000Y37825000D01*
X15700000Y35325000D02*
X14700000Y35325000D01*
X14700000Y36675000D02*
X15700000Y36675000D01*
D14*
X44925000Y21075000D02*
X52075000Y21075000D01*
X52075000Y21075000D02*
X52075000Y13925000D01*
X52075000Y13925000D02*
X44925000Y13925000D01*
X44925000Y13925000D02*
X44925000Y21075000D01*
D16*
X52350000Y21250000D02*
G75*
G03X52350000Y21250000I-100000J0D01*
G01*
D13*
X17820000Y20890000D02*
X17820000Y16490000D01*
X23345000Y22465000D02*
X23345000Y16490000D01*
D17*
X54400560Y19998220D02*
X54400560Y18001780D01*
X54400560Y18001780D02*
X55599440Y18001780D01*
X55599440Y19998220D02*
X55599440Y18001780D01*
X54400560Y19998220D02*
X55599440Y19998220D01*
D14*
X55599440Y19198120D02*
X55599440Y18801880D01*
X55599440Y19198120D02*
X55599440Y18801880D01*
X54400560Y19198120D02*
X54400560Y18801880D01*
D15*
X55250000Y-1000000D02*
X57850000Y-1000000D01*
X57850000Y-1000000D02*
X57850000Y1660000D01*
X57850000Y1660000D02*
X55250000Y1660000D01*
X55250000Y1660000D02*
X55250000Y-1000000D01*
X53980000Y-1000000D02*
X52650000Y-1000000D01*
X52650000Y-1000000D02*
X52650000Y330000D01*
D13*
X66650000Y34650000D02*
X66650000Y35350000D01*
X67850000Y35350000D02*
X67850000Y34650000D01*
X68600000Y37400000D02*
X67900000Y37400000D01*
X67900000Y38600000D02*
X68600000Y38600000D01*
X72650000Y37650000D02*
X72650000Y38350000D01*
X73850000Y38350000D02*
X73850000Y37650000D01*
X66250000Y49900000D02*
X58250000Y49900000D01*
X66250000Y56100000D02*
X58250000Y56100000D01*
X72250000Y24900000D02*
X69250000Y24900000D01*
X72250000Y28100000D02*
X69250000Y28100000D01*
X69925000Y35500000D02*
X69925000Y34500000D01*
X68575000Y34500000D02*
X68575000Y35500000D01*
D17*
X66463800Y45955800D02*
X61536200Y45955800D01*
X61536200Y45955800D02*
X61536200Y42044200D01*
X66463800Y42044200D02*
X61536200Y42044200D01*
X66463800Y45955800D02*
X66463800Y42044200D01*
D14*
X61536200Y42044200D02*
X61536200Y45955800D01*
X65826260Y45955800D02*
X66463800Y45318260D01*
X66463800Y45318260D02*
X66463800Y42044200D01*
D10*
X67136526Y45778000D02*
G75*
G03X67136526Y45778000I-215526J0D01*
G01*
D15*
X31640000Y54170000D02*
X31640000Y56830000D01*
X18880000Y54170000D02*
X31640000Y54170000D01*
X18880000Y56830000D02*
X31640000Y56830000D01*
X18880000Y54170000D02*
X18880000Y56830000D01*
X17610000Y54170000D02*
X16280000Y54170000D01*
X16280000Y54170000D02*
X16280000Y55500000D01*
D13*
X33190000Y42780000D02*
X32190000Y42780000D01*
X32190000Y44130000D02*
X33190000Y44130000D01*
X53765000Y29655000D02*
X53765000Y28655000D01*
X52415000Y28655000D02*
X52415000Y29655000D01*
X49665000Y29645000D02*
X49665000Y28645000D01*
X48315000Y28645000D02*
X48315000Y29645000D01*
X51760000Y29645000D02*
X51760000Y28645000D01*
X50410000Y28645000D02*
X50410000Y29645000D01*
D18*
X36674000Y32596000D02*
X36674000Y31834000D01*
X36674000Y31834000D02*
X52676000Y31834000D01*
X52676000Y31834000D02*
X52676000Y32596000D01*
D13*
X41829000Y28300000D02*
X41829000Y30840000D01*
X40051000Y30840000D02*
X40051000Y28300000D01*
X40051000Y30840000D02*
X41829000Y30840000D01*
X41829000Y28300000D02*
X40051000Y28300000D01*
D15*
X70890000Y10455000D02*
X71290000Y10455000D01*
X70890000Y17055000D02*
X70890000Y10455000D01*
X76490000Y16655000D02*
X76490000Y11455000D01*
D14*
X72250000Y18750000D02*
X72250000Y21000000D01*
X72250000Y21000000D02*
X72250000Y21250000D01*
X72250000Y21250000D02*
X72020000Y21250000D01*
X68980000Y21250000D02*
X68750000Y21250000D01*
X68730000Y21250000D02*
X68730000Y18750000D01*
X68730000Y18750000D02*
X68960000Y18750000D01*
X72020000Y18750000D02*
X72250000Y18750000D01*
X72250000Y21000000D02*
X72000000Y21000000D01*
X72000000Y21250000D02*
X72000000Y21000000D01*
X72250000Y21100000D02*
X72000000Y21100000D01*
X72250000Y21200000D02*
X72000000Y21200000D01*
D15*
X44750000Y6110000D02*
X43700000Y6110000D01*
X43700000Y6110000D02*
X43700000Y7960000D01*
X46750000Y6110000D02*
X45750000Y6110000D01*
X46760000Y6130000D02*
X46760000Y8560000D01*
X58210000Y32955000D02*
X59260000Y32955000D01*
X59260000Y32955000D02*
X59260000Y31105000D01*
X56210000Y32955000D02*
X57210000Y32955000D01*
X56200000Y32935000D02*
X56200000Y30505000D01*
X5145000Y33710000D02*
X5145000Y32660000D01*
X5145000Y32660000D02*
X3295000Y32660000D01*
X5145000Y35710000D02*
X5145000Y34710000D01*
X5125000Y35720000D02*
X2695000Y35720000D01*
D13*
X74540000Y20305000D02*
X74540000Y21305000D01*
X72840000Y21305000D02*
X72840000Y20305000D01*
X64600000Y36955000D02*
X64600000Y37955000D01*
X62900000Y37955000D02*
X62900000Y36955000D01*
X67540000Y19955000D02*
X67540000Y20955000D01*
X65840000Y20955000D02*
X65840000Y19955000D01*
X60600000Y37500000D02*
X60600000Y38500000D01*
X58900000Y38500000D02*
X58900000Y37500000D01*
X62600000Y37500000D02*
X62600000Y38500000D01*
X60900000Y38500000D02*
X60900000Y37500000D01*
X55000000Y11105000D02*
X56000000Y11105000D01*
X56000000Y12805000D02*
X55000000Y12805000D01*
D15*
X42385000Y5105000D02*
X33985000Y5105000D01*
X42385000Y9905000D02*
X33985000Y9905000D01*
X42385000Y5105000D02*
X42385000Y9905000D01*
D13*
X20695000Y11190000D02*
X20695000Y10190000D01*
X22395000Y10190000D02*
X22395000Y11190000D01*
X41860000Y21980000D02*
X42860000Y21980000D01*
X42860000Y20630000D02*
X41860000Y20630000D01*
X47825000Y7000000D02*
X47825000Y8000000D01*
X49175000Y8000000D02*
X49175000Y7000000D01*
X57210000Y28680000D02*
X58210000Y28680000D01*
X58210000Y27330000D02*
X57210000Y27330000D01*
X34690000Y-1020000D02*
X42310000Y-1020000D01*
X34690000Y1520000D02*
X42310000Y1520000D01*
X31870000Y1800000D02*
X33420000Y1800000D01*
X42310000Y-1020000D02*
X42310000Y1520000D01*
X34690000Y1520000D02*
X34690000Y-1020000D01*
X33420000Y-1300000D02*
X31870000Y-1300000D01*
X31870000Y-1300000D02*
X31870000Y1800000D01*
D15*
X13940000Y54500000D02*
X13940000Y54440000D01*
X13940000Y54440000D02*
X16060000Y54440000D01*
X16060000Y54440000D02*
X16060000Y54500000D01*
X16060000Y54500000D02*
X13940000Y54500000D01*
X13940000Y55500000D02*
X13940000Y56560000D01*
X13940000Y56560000D02*
X15000000Y56560000D01*
D13*
X44750000Y-75000D02*
X45750000Y-75000D01*
X45750000Y-1425000D02*
X44750000Y-1425000D01*
X44750000Y2175000D02*
X45750000Y2175000D01*
X45750000Y825000D02*
X44750000Y825000D01*
X27100000Y2100000D02*
X27100000Y1400000D01*
X25900000Y1400000D02*
X25900000Y2100000D01*
X24600000Y2100000D02*
X24600000Y1400000D01*
X23400000Y1400000D02*
X23400000Y2100000D01*
X29675000Y6000000D02*
X29675000Y5000000D01*
X28325000Y5000000D02*
X28325000Y6000000D01*
D14*
X24450000Y4050000D02*
X26050000Y4050000D01*
X26050000Y4050000D02*
X26050000Y6950000D01*
X26050000Y6950000D02*
X24450000Y6950000D01*
X24450000Y6950000D02*
X24450000Y4050000D01*
X25885000Y4484000D02*
G75*
G03X25885000Y4484000I-254000J0D01*
G01*
D13*
X65138572Y7576429D02*
X64805238Y7576429D01*
X64805238Y7052619D02*
X64805238Y8052619D01*
X65281429Y8052619D01*
X65662381Y7052619D02*
X65662381Y8052619D01*
X66138571Y7052619D02*
X66138571Y8052619D01*
X66376666Y8052619D01*
X66519524Y8005000D01*
X66614762Y7909762D01*
X66662381Y7814524D01*
X66710000Y7624048D01*
X66710000Y7481190D01*
X66662381Y7290714D01*
X66614762Y7195476D01*
X66519524Y7100238D01*
X66376666Y7052619D01*
X66138571Y7052619D01*
X67043333Y8052619D02*
X67662381Y8052619D01*
X67329047Y7671667D01*
X67471905Y7671667D01*
X67567143Y7624048D01*
X67614762Y7576429D01*
X67662381Y7481190D01*
X67662381Y7243095D01*
X67614762Y7147857D01*
X67567143Y7100238D01*
X67471905Y7052619D01*
X67186190Y7052619D01*
X67090952Y7100238D01*
X67043333Y7147857D01*
X-2321428Y53071429D02*
X-2654762Y53071429D01*
X-2654762Y52547619D02*
X-2654762Y53547619D01*
X-2178571Y53547619D01*
X-1797619Y52547619D02*
X-1797619Y53547619D01*
X-1321429Y52547619D02*
X-1321429Y53547619D01*
X-1083334Y53547619D01*
X-940476Y53500000D01*
X-845238Y53404762D01*
X-797619Y53309524D01*
X-750000Y53119048D01*
X-750000Y52976190D01*
X-797619Y52785714D01*
X-845238Y52690476D01*
X-940476Y52595238D01*
X-1083334Y52547619D01*
X-1321429Y52547619D01*
X-369048Y53452381D02*
X-321429Y53500000D01*
X-226191Y53547619D01*
X11905Y53547619D01*
X107143Y53500000D01*
X154762Y53452381D01*
X202381Y53357143D01*
X202381Y53261905D01*
X154762Y53119048D01*
X-416667Y52547619D01*
X202381Y52547619D01*
X55357143Y25380953D02*
X55404762Y25333334D01*
X55452381Y25190477D01*
X55452381Y25095239D01*
X55404762Y24952381D01*
X55309524Y24857143D01*
X55214286Y24809524D01*
X55023810Y24761905D01*
X54880952Y24761905D01*
X54690476Y24809524D01*
X54595238Y24857143D01*
X54500000Y24952381D01*
X54452381Y25095239D01*
X54452381Y25190477D01*
X54500000Y25333334D01*
X54547619Y25380953D01*
X54452381Y25714286D02*
X54452381Y26333334D01*
X54833333Y26000000D01*
X54833333Y26142858D01*
X54880952Y26238096D01*
X54928571Y26285715D01*
X55023810Y26333334D01*
X55261905Y26333334D01*
X55357143Y26285715D01*
X55404762Y26238096D01*
X55452381Y26142858D01*
X55452381Y25857143D01*
X55404762Y25761905D01*
X55357143Y25714286D01*
X54452381Y26952381D02*
X54452381Y27047620D01*
X54500000Y27142858D01*
X54547619Y27190477D01*
X54642857Y27238096D01*
X54833333Y27285715D01*
X55071429Y27285715D01*
X55261905Y27238096D01*
X55357143Y27190477D01*
X55404762Y27142858D01*
X55452381Y27047620D01*
X55452381Y26952381D01*
X55404762Y26857143D01*
X55357143Y26809524D01*
X55261905Y26761905D01*
X55071429Y26714286D01*
X54833333Y26714286D01*
X54642857Y26761905D01*
X54547619Y26809524D01*
X54500000Y26857143D01*
X54452381Y26952381D01*
X55452381Y28238096D02*
X55452381Y27666667D01*
X55452381Y27952381D02*
X54452381Y27952381D01*
X54595238Y27857143D01*
X54690476Y27761905D01*
X54738095Y27666667D01*
X60570953Y19597857D02*
X60523334Y19550238D01*
X60380477Y19502619D01*
X60285239Y19502619D01*
X60142381Y19550238D01*
X60047143Y19645476D01*
X59999524Y19740714D01*
X59951905Y19931190D01*
X59951905Y20074048D01*
X59999524Y20264524D01*
X60047143Y20359762D01*
X60142381Y20455000D01*
X60285239Y20502619D01*
X60380477Y20502619D01*
X60523334Y20455000D01*
X60570953Y20407381D01*
X60904286Y20502619D02*
X61523334Y20502619D01*
X61190000Y20121667D01*
X61332858Y20121667D01*
X61428096Y20074048D01*
X61475715Y20026429D01*
X61523334Y19931190D01*
X61523334Y19693095D01*
X61475715Y19597857D01*
X61428096Y19550238D01*
X61332858Y19502619D01*
X61047143Y19502619D01*
X60951905Y19550238D01*
X60904286Y19597857D01*
X62142381Y20502619D02*
X62237620Y20502619D01*
X62332858Y20455000D01*
X62380477Y20407381D01*
X62428096Y20312143D01*
X62475715Y20121667D01*
X62475715Y19883571D01*
X62428096Y19693095D01*
X62380477Y19597857D01*
X62332858Y19550238D01*
X62237620Y19502619D01*
X62142381Y19502619D01*
X62047143Y19550238D01*
X61999524Y19597857D01*
X61951905Y19693095D01*
X61904286Y19883571D01*
X61904286Y20121667D01*
X61951905Y20312143D01*
X61999524Y20407381D01*
X62047143Y20455000D01*
X62142381Y20502619D01*
X62856667Y20407381D02*
X62904286Y20455000D01*
X62999524Y20502619D01*
X63237620Y20502619D01*
X63332858Y20455000D01*
X63380477Y20407381D01*
X63428096Y20312143D01*
X63428096Y20216905D01*
X63380477Y20074048D01*
X62809048Y19502619D01*
X63428096Y19502619D01*
X57130953Y16097857D02*
X57083334Y16050238D01*
X56940477Y16002619D01*
X56845239Y16002619D01*
X56702381Y16050238D01*
X56607143Y16145476D01*
X56559524Y16240714D01*
X56511905Y16431190D01*
X56511905Y16574048D01*
X56559524Y16764524D01*
X56607143Y16859762D01*
X56702381Y16955000D01*
X56845239Y17002619D01*
X56940477Y17002619D01*
X57083334Y16955000D01*
X57130953Y16907381D01*
X57464286Y17002619D02*
X58083334Y17002619D01*
X57750000Y16621667D01*
X57892858Y16621667D01*
X57988096Y16574048D01*
X58035715Y16526429D01*
X58083334Y16431190D01*
X58083334Y16193095D01*
X58035715Y16097857D01*
X57988096Y16050238D01*
X57892858Y16002619D01*
X57607143Y16002619D01*
X57511905Y16050238D01*
X57464286Y16097857D01*
X58702381Y17002619D02*
X58797620Y17002619D01*
X58892858Y16955000D01*
X58940477Y16907381D01*
X58988096Y16812143D01*
X59035715Y16621667D01*
X59035715Y16383571D01*
X58988096Y16193095D01*
X58940477Y16097857D01*
X58892858Y16050238D01*
X58797620Y16002619D01*
X58702381Y16002619D01*
X58607143Y16050238D01*
X58559524Y16097857D01*
X58511905Y16193095D01*
X58464286Y16383571D01*
X58464286Y16621667D01*
X58511905Y16812143D01*
X58559524Y16907381D01*
X58607143Y16955000D01*
X58702381Y17002619D01*
X59369048Y17002619D02*
X59988096Y17002619D01*
X59654762Y16621667D01*
X59797620Y16621667D01*
X59892858Y16574048D01*
X59940477Y16526429D01*
X59988096Y16431190D01*
X59988096Y16193095D01*
X59940477Y16097857D01*
X59892858Y16050238D01*
X59797620Y16002619D01*
X59511905Y16002619D01*
X59416667Y16050238D01*
X59369048Y16097857D01*
X58070953Y13097857D02*
X58023334Y13050238D01*
X57880477Y13002619D01*
X57785239Y13002619D01*
X57642381Y13050238D01*
X57547143Y13145476D01*
X57499524Y13240714D01*
X57451905Y13431190D01*
X57451905Y13574048D01*
X57499524Y13764524D01*
X57547143Y13859762D01*
X57642381Y13955000D01*
X57785239Y14002619D01*
X57880477Y14002619D01*
X58023334Y13955000D01*
X58070953Y13907381D01*
X58404286Y14002619D02*
X59023334Y14002619D01*
X58690000Y13621667D01*
X58832858Y13621667D01*
X58928096Y13574048D01*
X58975715Y13526429D01*
X59023334Y13431190D01*
X59023334Y13193095D01*
X58975715Y13097857D01*
X58928096Y13050238D01*
X58832858Y13002619D01*
X58547143Y13002619D01*
X58451905Y13050238D01*
X58404286Y13097857D01*
X59642381Y14002619D02*
X59737620Y14002619D01*
X59832858Y13955000D01*
X59880477Y13907381D01*
X59928096Y13812143D01*
X59975715Y13621667D01*
X59975715Y13383571D01*
X59928096Y13193095D01*
X59880477Y13097857D01*
X59832858Y13050238D01*
X59737620Y13002619D01*
X59642381Y13002619D01*
X59547143Y13050238D01*
X59499524Y13097857D01*
X59451905Y13193095D01*
X59404286Y13383571D01*
X59404286Y13621667D01*
X59451905Y13812143D01*
X59499524Y13907381D01*
X59547143Y13955000D01*
X59642381Y14002619D01*
X60880477Y14002619D02*
X60404286Y14002619D01*
X60356667Y13526429D01*
X60404286Y13574048D01*
X60499524Y13621667D01*
X60737620Y13621667D01*
X60832858Y13574048D01*
X60880477Y13526429D01*
X60928096Y13431190D01*
X60928096Y13193095D01*
X60880477Y13097857D01*
X60832858Y13050238D01*
X60737620Y13002619D01*
X60499524Y13002619D01*
X60404286Y13050238D01*
X60356667Y13097857D01*
X38780953Y3892857D02*
X38733334Y3845238D01*
X38590477Y3797619D01*
X38495239Y3797619D01*
X38352381Y3845238D01*
X38257143Y3940476D01*
X38209524Y4035714D01*
X38161905Y4226190D01*
X38161905Y4369048D01*
X38209524Y4559524D01*
X38257143Y4654762D01*
X38352381Y4750000D01*
X38495239Y4797619D01*
X38590477Y4797619D01*
X38733334Y4750000D01*
X38780953Y4702381D01*
X39114286Y4797619D02*
X39733334Y4797619D01*
X39400000Y4416667D01*
X39542858Y4416667D01*
X39638096Y4369048D01*
X39685715Y4321429D01*
X39733334Y4226190D01*
X39733334Y3988095D01*
X39685715Y3892857D01*
X39638096Y3845238D01*
X39542858Y3797619D01*
X39257143Y3797619D01*
X39161905Y3845238D01*
X39114286Y3892857D01*
X40352381Y4797619D02*
X40447620Y4797619D01*
X40542858Y4750000D01*
X40590477Y4702381D01*
X40638096Y4607143D01*
X40685715Y4416667D01*
X40685715Y4178571D01*
X40638096Y3988095D01*
X40590477Y3892857D01*
X40542858Y3845238D01*
X40447620Y3797619D01*
X40352381Y3797619D01*
X40257143Y3845238D01*
X40209524Y3892857D01*
X40161905Y3988095D01*
X40114286Y4178571D01*
X40114286Y4416667D01*
X40161905Y4607143D01*
X40209524Y4702381D01*
X40257143Y4750000D01*
X40352381Y4797619D01*
X41019048Y4797619D02*
X41685715Y4797619D01*
X41257143Y3797619D01*
X74854762Y29464286D02*
X74816667Y29426190D01*
X74702381Y29388095D01*
X74626191Y29388095D01*
X74511905Y29426190D01*
X74435714Y29502381D01*
X74397619Y29578571D01*
X74359524Y29730952D01*
X74359524Y29845238D01*
X74397619Y29997619D01*
X74435714Y30073810D01*
X74511905Y30150000D01*
X74626191Y30188095D01*
X74702381Y30188095D01*
X74816667Y30150000D01*
X74854762Y30111905D01*
X75121429Y30188095D02*
X75616667Y30188095D01*
X75350000Y29883333D01*
X75464286Y29883333D01*
X75540476Y29845238D01*
X75578572Y29807143D01*
X75616667Y29730952D01*
X75616667Y29540476D01*
X75578572Y29464286D01*
X75540476Y29426190D01*
X75464286Y29388095D01*
X75235714Y29388095D01*
X75159524Y29426190D01*
X75121429Y29464286D01*
X76111905Y30188095D02*
X76188096Y30188095D01*
X76264286Y30150000D01*
X76302381Y30111905D01*
X76340477Y30035714D01*
X76378572Y29883333D01*
X76378572Y29692857D01*
X76340477Y29540476D01*
X76302381Y29464286D01*
X76264286Y29426190D01*
X76188096Y29388095D01*
X76111905Y29388095D01*
X76035715Y29426190D01*
X75997619Y29464286D01*
X75959524Y29540476D01*
X75921429Y29692857D01*
X75921429Y29883333D01*
X75959524Y30035714D01*
X75997619Y30111905D01*
X76035715Y30150000D01*
X76111905Y30188095D01*
X76835715Y29845238D02*
X76759524Y29883333D01*
X76721429Y29921429D01*
X76683334Y29997619D01*
X76683334Y30035714D01*
X76721429Y30111905D01*
X76759524Y30150000D01*
X76835715Y30188095D01*
X76988096Y30188095D01*
X77064286Y30150000D01*
X77102382Y30111905D01*
X77140477Y30035714D01*
X77140477Y29997619D01*
X77102382Y29921429D01*
X77064286Y29883333D01*
X76988096Y29845238D01*
X76835715Y29845238D01*
X76759524Y29807143D01*
X76721429Y29769048D01*
X76683334Y29692857D01*
X76683334Y29540476D01*
X76721429Y29464286D01*
X76759524Y29426190D01*
X76835715Y29388095D01*
X76988096Y29388095D01*
X77064286Y29426190D01*
X77102382Y29464286D01*
X77140477Y29540476D01*
X77140477Y29692857D01*
X77102382Y29769048D01*
X77064286Y29807143D01*
X76988096Y29845238D01*
X-892857Y17630953D02*
X-845238Y17583334D01*
X-797619Y17440477D01*
X-797619Y17345239D01*
X-845238Y17202381D01*
X-940476Y17107143D01*
X-1035714Y17059524D01*
X-1226190Y17011905D01*
X-1369048Y17011905D01*
X-1559524Y17059524D01*
X-1654762Y17107143D01*
X-1750000Y17202381D01*
X-1797619Y17345239D01*
X-1797619Y17440477D01*
X-1750000Y17583334D01*
X-1702381Y17630953D01*
X-1797619Y18488096D02*
X-1797619Y18297619D01*
X-1750000Y18202381D01*
X-1702381Y18154762D01*
X-1559524Y18059524D01*
X-1369048Y18011905D01*
X-988095Y18011905D01*
X-892857Y18059524D01*
X-845238Y18107143D01*
X-797619Y18202381D01*
X-797619Y18392858D01*
X-845238Y18488096D01*
X-892857Y18535715D01*
X-988095Y18583334D01*
X-1226190Y18583334D01*
X-1321429Y18535715D01*
X-1369048Y18488096D01*
X-1416667Y18392858D01*
X-1416667Y18202381D01*
X-1369048Y18107143D01*
X-1321429Y18059524D01*
X-1226190Y18011905D01*
X-1797619Y19202381D02*
X-1797619Y19297620D01*
X-1750000Y19392858D01*
X-1702381Y19440477D01*
X-1607143Y19488096D01*
X-1416667Y19535715D01*
X-1178571Y19535715D01*
X-988095Y19488096D01*
X-892857Y19440477D01*
X-845238Y19392858D01*
X-797619Y19297620D01*
X-797619Y19202381D01*
X-845238Y19107143D01*
X-892857Y19059524D01*
X-988095Y19011905D01*
X-1178571Y18964286D01*
X-1416667Y18964286D01*
X-1607143Y19011905D01*
X-1702381Y19059524D01*
X-1750000Y19107143D01*
X-1797619Y19202381D01*
X-797619Y20488096D02*
X-797619Y19916667D01*
X-797619Y20202381D02*
X-1797619Y20202381D01*
X-1654762Y20107143D01*
X-1559524Y20011905D01*
X-1511905Y19916667D01*
X1630953Y22142857D02*
X1583334Y22095238D01*
X1440477Y22047619D01*
X1345239Y22047619D01*
X1202381Y22095238D01*
X1107143Y22190476D01*
X1059524Y22285714D01*
X1011905Y22476190D01*
X1011905Y22619048D01*
X1059524Y22809524D01*
X1107143Y22904762D01*
X1202381Y23000000D01*
X1345239Y23047619D01*
X1440477Y23047619D01*
X1583334Y23000000D01*
X1630953Y22952381D01*
X2488096Y23047619D02*
X2297619Y23047619D01*
X2202381Y23000000D01*
X2154762Y22952381D01*
X2059524Y22809524D01*
X2011905Y22619048D01*
X2011905Y22238095D01*
X2059524Y22142857D01*
X2107143Y22095238D01*
X2202381Y22047619D01*
X2392858Y22047619D01*
X2488096Y22095238D01*
X2535715Y22142857D01*
X2583334Y22238095D01*
X2583334Y22476190D01*
X2535715Y22571429D01*
X2488096Y22619048D01*
X2392858Y22666667D01*
X2202381Y22666667D01*
X2107143Y22619048D01*
X2059524Y22571429D01*
X2011905Y22476190D01*
X3202381Y23047619D02*
X3297620Y23047619D01*
X3392858Y23000000D01*
X3440477Y22952381D01*
X3488096Y22857143D01*
X3535715Y22666667D01*
X3535715Y22428571D01*
X3488096Y22238095D01*
X3440477Y22142857D01*
X3392858Y22095238D01*
X3297620Y22047619D01*
X3202381Y22047619D01*
X3107143Y22095238D01*
X3059524Y22142857D01*
X3011905Y22238095D01*
X2964286Y22428571D01*
X2964286Y22666667D01*
X3011905Y22857143D01*
X3059524Y22952381D01*
X3107143Y23000000D01*
X3202381Y23047619D01*
X3916667Y22952381D02*
X3964286Y23000000D01*
X4059524Y23047619D01*
X4297620Y23047619D01*
X4392858Y23000000D01*
X4440477Y22952381D01*
X4488096Y22857143D01*
X4488096Y22761905D01*
X4440477Y22619048D01*
X3869048Y22047619D01*
X4488096Y22047619D01*
X1630953Y14392857D02*
X1583334Y14345238D01*
X1440477Y14297619D01*
X1345239Y14297619D01*
X1202381Y14345238D01*
X1107143Y14440476D01*
X1059524Y14535714D01*
X1011905Y14726190D01*
X1011905Y14869048D01*
X1059524Y15059524D01*
X1107143Y15154762D01*
X1202381Y15250000D01*
X1345239Y15297619D01*
X1440477Y15297619D01*
X1583334Y15250000D01*
X1630953Y15202381D01*
X2488096Y15297619D02*
X2297619Y15297619D01*
X2202381Y15250000D01*
X2154762Y15202381D01*
X2059524Y15059524D01*
X2011905Y14869048D01*
X2011905Y14488095D01*
X2059524Y14392857D01*
X2107143Y14345238D01*
X2202381Y14297619D01*
X2392858Y14297619D01*
X2488096Y14345238D01*
X2535715Y14392857D01*
X2583334Y14488095D01*
X2583334Y14726190D01*
X2535715Y14821429D01*
X2488096Y14869048D01*
X2392858Y14916667D01*
X2202381Y14916667D01*
X2107143Y14869048D01*
X2059524Y14821429D01*
X2011905Y14726190D01*
X3202381Y15297619D02*
X3297620Y15297619D01*
X3392858Y15250000D01*
X3440477Y15202381D01*
X3488096Y15107143D01*
X3535715Y14916667D01*
X3535715Y14678571D01*
X3488096Y14488095D01*
X3440477Y14392857D01*
X3392858Y14345238D01*
X3297620Y14297619D01*
X3202381Y14297619D01*
X3107143Y14345238D01*
X3059524Y14392857D01*
X3011905Y14488095D01*
X2964286Y14678571D01*
X2964286Y14916667D01*
X3011905Y15107143D01*
X3059524Y15202381D01*
X3107143Y15250000D01*
X3202381Y15297619D01*
X3869048Y15297619D02*
X4488096Y15297619D01*
X4154762Y14916667D01*
X4297620Y14916667D01*
X4392858Y14869048D01*
X4440477Y14821429D01*
X4488096Y14726190D01*
X4488096Y14488095D01*
X4440477Y14392857D01*
X4392858Y14345238D01*
X4297620Y14297619D01*
X4011905Y14297619D01*
X3916667Y14345238D01*
X3869048Y14392857D01*
X14607143Y17380953D02*
X14654762Y17333334D01*
X14702381Y17190477D01*
X14702381Y17095239D01*
X14654762Y16952381D01*
X14559524Y16857143D01*
X14464286Y16809524D01*
X14273810Y16761905D01*
X14130952Y16761905D01*
X13940476Y16809524D01*
X13845238Y16857143D01*
X13750000Y16952381D01*
X13702381Y17095239D01*
X13702381Y17190477D01*
X13750000Y17333334D01*
X13797619Y17380953D01*
X13702381Y18238096D02*
X13702381Y18047619D01*
X13750000Y17952381D01*
X13797619Y17904762D01*
X13940476Y17809524D01*
X14130952Y17761905D01*
X14511905Y17761905D01*
X14607143Y17809524D01*
X14654762Y17857143D01*
X14702381Y17952381D01*
X14702381Y18142858D01*
X14654762Y18238096D01*
X14607143Y18285715D01*
X14511905Y18333334D01*
X14273810Y18333334D01*
X14178571Y18285715D01*
X14130952Y18238096D01*
X14083333Y18142858D01*
X14083333Y17952381D01*
X14130952Y17857143D01*
X14178571Y17809524D01*
X14273810Y17761905D01*
X13702381Y18952381D02*
X13702381Y19047620D01*
X13750000Y19142858D01*
X13797619Y19190477D01*
X13892857Y19238096D01*
X14083333Y19285715D01*
X14321429Y19285715D01*
X14511905Y19238096D01*
X14607143Y19190477D01*
X14654762Y19142858D01*
X14702381Y19047620D01*
X14702381Y18952381D01*
X14654762Y18857143D01*
X14607143Y18809524D01*
X14511905Y18761905D01*
X14321429Y18714286D01*
X14083333Y18714286D01*
X13892857Y18761905D01*
X13797619Y18809524D01*
X13750000Y18857143D01*
X13702381Y18952381D01*
X13702381Y20190477D02*
X13702381Y19714286D01*
X14178571Y19666667D01*
X14130952Y19714286D01*
X14083333Y19809524D01*
X14083333Y20047620D01*
X14130952Y20142858D01*
X14178571Y20190477D01*
X14273810Y20238096D01*
X14511905Y20238096D01*
X14607143Y20190477D01*
X14654762Y20142858D01*
X14702381Y20047620D01*
X14702381Y19809524D01*
X14654762Y19714286D01*
X14607143Y19666667D01*
X25857143Y21130953D02*
X25904762Y21083334D01*
X25952381Y20940477D01*
X25952381Y20845239D01*
X25904762Y20702381D01*
X25809524Y20607143D01*
X25714286Y20559524D01*
X25523810Y20511905D01*
X25380952Y20511905D01*
X25190476Y20559524D01*
X25095238Y20607143D01*
X25000000Y20702381D01*
X24952381Y20845239D01*
X24952381Y20940477D01*
X25000000Y21083334D01*
X25047619Y21130953D01*
X24952381Y21988096D02*
X24952381Y21797619D01*
X25000000Y21702381D01*
X25047619Y21654762D01*
X25190476Y21559524D01*
X25380952Y21511905D01*
X25761905Y21511905D01*
X25857143Y21559524D01*
X25904762Y21607143D01*
X25952381Y21702381D01*
X25952381Y21892858D01*
X25904762Y21988096D01*
X25857143Y22035715D01*
X25761905Y22083334D01*
X25523810Y22083334D01*
X25428571Y22035715D01*
X25380952Y21988096D01*
X25333333Y21892858D01*
X25333333Y21702381D01*
X25380952Y21607143D01*
X25428571Y21559524D01*
X25523810Y21511905D01*
X24952381Y22702381D02*
X24952381Y22797620D01*
X25000000Y22892858D01*
X25047619Y22940477D01*
X25142857Y22988096D01*
X25333333Y23035715D01*
X25571429Y23035715D01*
X25761905Y22988096D01*
X25857143Y22940477D01*
X25904762Y22892858D01*
X25952381Y22797620D01*
X25952381Y22702381D01*
X25904762Y22607143D01*
X25857143Y22559524D01*
X25761905Y22511905D01*
X25571429Y22464286D01*
X25333333Y22464286D01*
X25142857Y22511905D01*
X25047619Y22559524D01*
X25000000Y22607143D01*
X24952381Y22702381D01*
X24952381Y23369048D02*
X24952381Y24035715D01*
X25952381Y23607143D01*
X25902143Y13070953D02*
X25949762Y13023334D01*
X25997381Y12880477D01*
X25997381Y12785239D01*
X25949762Y12642381D01*
X25854524Y12547143D01*
X25759286Y12499524D01*
X25568810Y12451905D01*
X25425952Y12451905D01*
X25235476Y12499524D01*
X25140238Y12547143D01*
X25045000Y12642381D01*
X24997381Y12785239D01*
X24997381Y12880477D01*
X25045000Y13023334D01*
X25092619Y13070953D01*
X24997381Y13928096D02*
X24997381Y13737619D01*
X25045000Y13642381D01*
X25092619Y13594762D01*
X25235476Y13499524D01*
X25425952Y13451905D01*
X25806905Y13451905D01*
X25902143Y13499524D01*
X25949762Y13547143D01*
X25997381Y13642381D01*
X25997381Y13832858D01*
X25949762Y13928096D01*
X25902143Y13975715D01*
X25806905Y14023334D01*
X25568810Y14023334D01*
X25473571Y13975715D01*
X25425952Y13928096D01*
X25378333Y13832858D01*
X25378333Y13642381D01*
X25425952Y13547143D01*
X25473571Y13499524D01*
X25568810Y13451905D01*
X24997381Y14642381D02*
X24997381Y14737620D01*
X25045000Y14832858D01*
X25092619Y14880477D01*
X25187857Y14928096D01*
X25378333Y14975715D01*
X25616429Y14975715D01*
X25806905Y14928096D01*
X25902143Y14880477D01*
X25949762Y14832858D01*
X25997381Y14737620D01*
X25997381Y14642381D01*
X25949762Y14547143D01*
X25902143Y14499524D01*
X25806905Y14451905D01*
X25616429Y14404286D01*
X25378333Y14404286D01*
X25187857Y14451905D01*
X25092619Y14499524D01*
X25045000Y14547143D01*
X24997381Y14642381D01*
X25425952Y15547143D02*
X25378333Y15451905D01*
X25330714Y15404286D01*
X25235476Y15356667D01*
X25187857Y15356667D01*
X25092619Y15404286D01*
X25045000Y15451905D01*
X24997381Y15547143D01*
X24997381Y15737620D01*
X25045000Y15832858D01*
X25092619Y15880477D01*
X25187857Y15928096D01*
X25235476Y15928096D01*
X25330714Y15880477D01*
X25378333Y15832858D01*
X25425952Y15737620D01*
X25425952Y15547143D01*
X25473571Y15451905D01*
X25521190Y15404286D01*
X25616429Y15356667D01*
X25806905Y15356667D01*
X25902143Y15404286D01*
X25949762Y15451905D01*
X25997381Y15547143D01*
X25997381Y15737620D01*
X25949762Y15832858D01*
X25902143Y15880477D01*
X25806905Y15928096D01*
X25616429Y15928096D01*
X25521190Y15880477D01*
X25473571Y15832858D01*
X25425952Y15737620D01*
X24402143Y13070953D02*
X24449762Y13023334D01*
X24497381Y12880477D01*
X24497381Y12785239D01*
X24449762Y12642381D01*
X24354524Y12547143D01*
X24259286Y12499524D01*
X24068810Y12451905D01*
X23925952Y12451905D01*
X23735476Y12499524D01*
X23640238Y12547143D01*
X23545000Y12642381D01*
X23497381Y12785239D01*
X23497381Y12880477D01*
X23545000Y13023334D01*
X23592619Y13070953D01*
X23497381Y13928096D02*
X23497381Y13737619D01*
X23545000Y13642381D01*
X23592619Y13594762D01*
X23735476Y13499524D01*
X23925952Y13451905D01*
X24306905Y13451905D01*
X24402143Y13499524D01*
X24449762Y13547143D01*
X24497381Y13642381D01*
X24497381Y13832858D01*
X24449762Y13928096D01*
X24402143Y13975715D01*
X24306905Y14023334D01*
X24068810Y14023334D01*
X23973571Y13975715D01*
X23925952Y13928096D01*
X23878333Y13832858D01*
X23878333Y13642381D01*
X23925952Y13547143D01*
X23973571Y13499524D01*
X24068810Y13451905D01*
X23497381Y14642381D02*
X23497381Y14737620D01*
X23545000Y14832858D01*
X23592619Y14880477D01*
X23687857Y14928096D01*
X23878333Y14975715D01*
X24116429Y14975715D01*
X24306905Y14928096D01*
X24402143Y14880477D01*
X24449762Y14832858D01*
X24497381Y14737620D01*
X24497381Y14642381D01*
X24449762Y14547143D01*
X24402143Y14499524D01*
X24306905Y14451905D01*
X24116429Y14404286D01*
X23878333Y14404286D01*
X23687857Y14451905D01*
X23592619Y14499524D01*
X23545000Y14547143D01*
X23497381Y14642381D01*
X24497381Y15451905D02*
X24497381Y15642381D01*
X24449762Y15737620D01*
X24402143Y15785239D01*
X24259286Y15880477D01*
X24068810Y15928096D01*
X23687857Y15928096D01*
X23592619Y15880477D01*
X23545000Y15832858D01*
X23497381Y15737620D01*
X23497381Y15547143D01*
X23545000Y15451905D01*
X23592619Y15404286D01*
X23687857Y15356667D01*
X23925952Y15356667D01*
X24021190Y15404286D01*
X24068810Y15451905D01*
X24116429Y15547143D01*
X24116429Y15737620D01*
X24068810Y15832858D01*
X24021190Y15880477D01*
X23925952Y15928096D01*
X20107143Y5380953D02*
X20154762Y5333334D01*
X20202381Y5190477D01*
X20202381Y5095239D01*
X20154762Y4952381D01*
X20059524Y4857143D01*
X19964286Y4809524D01*
X19773810Y4761905D01*
X19630952Y4761905D01*
X19440476Y4809524D01*
X19345238Y4857143D01*
X19250000Y4952381D01*
X19202381Y5095239D01*
X19202381Y5190477D01*
X19250000Y5333334D01*
X19297619Y5380953D01*
X19202381Y6238096D02*
X19202381Y6047619D01*
X19250000Y5952381D01*
X19297619Y5904762D01*
X19440476Y5809524D01*
X19630952Y5761905D01*
X20011905Y5761905D01*
X20107143Y5809524D01*
X20154762Y5857143D01*
X20202381Y5952381D01*
X20202381Y6142858D01*
X20154762Y6238096D01*
X20107143Y6285715D01*
X20011905Y6333334D01*
X19773810Y6333334D01*
X19678571Y6285715D01*
X19630952Y6238096D01*
X19583333Y6142858D01*
X19583333Y5952381D01*
X19630952Y5857143D01*
X19678571Y5809524D01*
X19773810Y5761905D01*
X20202381Y7285715D02*
X20202381Y6714286D01*
X20202381Y7000000D02*
X19202381Y7000000D01*
X19345238Y6904762D01*
X19440476Y6809524D01*
X19488095Y6714286D01*
X20202381Y8238096D02*
X20202381Y7666667D01*
X20202381Y7952381D02*
X19202381Y7952381D01*
X19345238Y7857143D01*
X19440476Y7761905D01*
X19488095Y7666667D01*
X61202381Y29964286D02*
X61916667Y29964286D01*
X62059524Y29916666D01*
X62154762Y29821428D01*
X62202381Y29678571D01*
X62202381Y29583333D01*
X62202381Y30440476D02*
X61202381Y30440476D01*
X61202381Y30821429D01*
X61250000Y30916667D01*
X61297619Y30964286D01*
X61392857Y31011905D01*
X61535714Y31011905D01*
X61630952Y30964286D01*
X61678571Y30916667D01*
X61726190Y30821429D01*
X61726190Y30440476D01*
X61297619Y31392857D02*
X61250000Y31440476D01*
X61202381Y31535714D01*
X61202381Y31773810D01*
X61250000Y31869048D01*
X61297619Y31916667D01*
X61392857Y31964286D01*
X61488095Y31964286D01*
X61630952Y31916667D01*
X62202381Y31345238D01*
X62202381Y31964286D01*
X61202381Y32583333D02*
X61202381Y32678572D01*
X61250000Y32773810D01*
X61297619Y32821429D01*
X61392857Y32869048D01*
X61583333Y32916667D01*
X61821429Y32916667D01*
X62011905Y32869048D01*
X62107143Y32821429D01*
X62154762Y32773810D01*
X62202381Y32678572D01*
X62202381Y32583333D01*
X62154762Y32488095D01*
X62107143Y32440476D01*
X62011905Y32392857D01*
X61821429Y32345238D01*
X61583333Y32345238D01*
X61392857Y32392857D01*
X61297619Y32440476D01*
X61250000Y32488095D01*
X61202381Y32583333D01*
X61202381Y33250000D02*
X61202381Y33869048D01*
X61583333Y33535714D01*
X61583333Y33678572D01*
X61630952Y33773810D01*
X61678571Y33821429D01*
X61773810Y33869048D01*
X62011905Y33869048D01*
X62107143Y33821429D01*
X62154762Y33773810D01*
X62202381Y33678572D01*
X62202381Y33392857D01*
X62154762Y33297619D01*
X62107143Y33250000D01*
D19*
X60695166Y21552833D02*
X60271833Y21552833D01*
X60271833Y22441833D01*
X60906833Y22441833D02*
X61457166Y22441833D01*
X61160833Y22103167D01*
X61287833Y22103167D01*
X61372500Y22060833D01*
X61414833Y22018500D01*
X61457166Y21933833D01*
X61457166Y21722167D01*
X61414833Y21637500D01*
X61372500Y21595167D01*
X61287833Y21552833D01*
X61033833Y21552833D01*
X60949166Y21595167D01*
X60906833Y21637500D01*
X62007500Y22441833D02*
X62092167Y22441833D01*
X62176833Y22399500D01*
X62219167Y22357167D01*
X62261500Y22272500D01*
X62303833Y22103167D01*
X62303833Y21891500D01*
X62261500Y21722167D01*
X62219167Y21637500D01*
X62176833Y21595167D01*
X62092167Y21552833D01*
X62007500Y21552833D01*
X61922833Y21595167D01*
X61880500Y21637500D01*
X61838167Y21722167D01*
X61795833Y21891500D01*
X61795833Y22103167D01*
X61838167Y22272500D01*
X61880500Y22357167D01*
X61922833Y22399500D01*
X62007500Y22441833D01*
X63150500Y21552833D02*
X62642500Y21552833D01*
X62896500Y21552833D02*
X62896500Y22441833D01*
X62811834Y22314833D01*
X62727167Y22230167D01*
X62642500Y22187833D01*
D13*
X62642381Y16335953D02*
X62166190Y16002619D01*
X62642381Y15764524D02*
X61642381Y15764524D01*
X61642381Y16145477D01*
X61690000Y16240715D01*
X61737619Y16288334D01*
X61832857Y16335953D01*
X61975714Y16335953D01*
X62070952Y16288334D01*
X62118571Y16240715D01*
X62166190Y16145477D01*
X62166190Y15764524D01*
X61737619Y16716905D02*
X61690000Y16764524D01*
X61642381Y16859762D01*
X61642381Y17097858D01*
X61690000Y17193096D01*
X61737619Y17240715D01*
X61832857Y17288334D01*
X61928095Y17288334D01*
X62070952Y17240715D01*
X62642381Y16669286D01*
X62642381Y17288334D01*
X61642381Y17907381D02*
X61642381Y18002620D01*
X61690000Y18097858D01*
X61737619Y18145477D01*
X61832857Y18193096D01*
X62023333Y18240715D01*
X62261429Y18240715D01*
X62451905Y18193096D01*
X62547143Y18145477D01*
X62594762Y18097858D01*
X62642381Y18002620D01*
X62642381Y17907381D01*
X62594762Y17812143D01*
X62547143Y17764524D01*
X62451905Y17716905D01*
X62261429Y17669286D01*
X62023333Y17669286D01*
X61832857Y17716905D01*
X61737619Y17764524D01*
X61690000Y17812143D01*
X61642381Y17907381D01*
X62642381Y19193096D02*
X62642381Y18621667D01*
X62642381Y18907381D02*
X61642381Y18907381D01*
X61785238Y18812143D01*
X61880476Y18716905D01*
X61928095Y18621667D01*
X62642381Y12335953D02*
X62166190Y12002619D01*
X62642381Y11764524D02*
X61642381Y11764524D01*
X61642381Y12145477D01*
X61690000Y12240715D01*
X61737619Y12288334D01*
X61832857Y12335953D01*
X61975714Y12335953D01*
X62070952Y12288334D01*
X62118571Y12240715D01*
X62166190Y12145477D01*
X62166190Y11764524D01*
X61737619Y12716905D02*
X61690000Y12764524D01*
X61642381Y12859762D01*
X61642381Y13097858D01*
X61690000Y13193096D01*
X61737619Y13240715D01*
X61832857Y13288334D01*
X61928095Y13288334D01*
X62070952Y13240715D01*
X62642381Y12669286D01*
X62642381Y13288334D01*
X61642381Y13907381D02*
X61642381Y14002620D01*
X61690000Y14097858D01*
X61737619Y14145477D01*
X61832857Y14193096D01*
X62023333Y14240715D01*
X62261429Y14240715D01*
X62451905Y14193096D01*
X62547143Y14145477D01*
X62594762Y14097858D01*
X62642381Y14002620D01*
X62642381Y13907381D01*
X62594762Y13812143D01*
X62547143Y13764524D01*
X62451905Y13716905D01*
X62261429Y13669286D01*
X62023333Y13669286D01*
X61832857Y13716905D01*
X61737619Y13764524D01*
X61690000Y13812143D01*
X61642381Y13907381D01*
X61737619Y14621667D02*
X61690000Y14669286D01*
X61642381Y14764524D01*
X61642381Y15002620D01*
X61690000Y15097858D01*
X61737619Y15145477D01*
X61832857Y15193096D01*
X61928095Y15193096D01*
X62070952Y15145477D01*
X62642381Y14574048D01*
X62642381Y15193096D01*
X73801905Y31104762D02*
X73420952Y30838095D01*
X73801905Y30647619D02*
X73001905Y30647619D01*
X73001905Y30952381D01*
X73040000Y31028572D01*
X73078095Y31066667D01*
X73154286Y31104762D01*
X73268571Y31104762D01*
X73344762Y31066667D01*
X73382857Y31028572D01*
X73420952Y30952381D01*
X73420952Y30647619D01*
X73078095Y31409524D02*
X73040000Y31447619D01*
X73001905Y31523810D01*
X73001905Y31714286D01*
X73040000Y31790476D01*
X73078095Y31828572D01*
X73154286Y31866667D01*
X73230476Y31866667D01*
X73344762Y31828572D01*
X73801905Y31371429D01*
X73801905Y31866667D01*
X73001905Y32361905D02*
X73001905Y32438096D01*
X73040000Y32514286D01*
X73078095Y32552381D01*
X73154286Y32590477D01*
X73306667Y32628572D01*
X73497143Y32628572D01*
X73649524Y32590477D01*
X73725714Y32552381D01*
X73763810Y32514286D01*
X73801905Y32438096D01*
X73801905Y32361905D01*
X73763810Y32285715D01*
X73725714Y32247619D01*
X73649524Y32209524D01*
X73497143Y32171429D01*
X73306667Y32171429D01*
X73154286Y32209524D01*
X73078095Y32247619D01*
X73040000Y32285715D01*
X73001905Y32361905D01*
X73001905Y32895239D02*
X73001905Y33390477D01*
X73306667Y33123810D01*
X73306667Y33238096D01*
X73344762Y33314286D01*
X73382857Y33352382D01*
X73459048Y33390477D01*
X73649524Y33390477D01*
X73725714Y33352382D01*
X73763810Y33314286D01*
X73801905Y33238096D01*
X73801905Y33009524D01*
X73763810Y32933334D01*
X73725714Y32895239D01*
X71892381Y40335953D02*
X71416190Y40002619D01*
X71892381Y39764524D02*
X70892381Y39764524D01*
X70892381Y40145477D01*
X70940000Y40240715D01*
X70987619Y40288334D01*
X71082857Y40335953D01*
X71225714Y40335953D01*
X71320952Y40288334D01*
X71368571Y40240715D01*
X71416190Y40145477D01*
X71416190Y39764524D01*
X70987619Y40716905D02*
X70940000Y40764524D01*
X70892381Y40859762D01*
X70892381Y41097858D01*
X70940000Y41193096D01*
X70987619Y41240715D01*
X71082857Y41288334D01*
X71178095Y41288334D01*
X71320952Y41240715D01*
X71892381Y40669286D01*
X71892381Y41288334D01*
X70892381Y41907381D02*
X70892381Y42002620D01*
X70940000Y42097858D01*
X70987619Y42145477D01*
X71082857Y42193096D01*
X71273333Y42240715D01*
X71511429Y42240715D01*
X71701905Y42193096D01*
X71797143Y42145477D01*
X71844762Y42097858D01*
X71892381Y42002620D01*
X71892381Y41907381D01*
X71844762Y41812143D01*
X71797143Y41764524D01*
X71701905Y41716905D01*
X71511429Y41669286D01*
X71273333Y41669286D01*
X71082857Y41716905D01*
X70987619Y41764524D01*
X70940000Y41812143D01*
X70892381Y41907381D01*
X71225714Y43097858D02*
X71892381Y43097858D01*
X70844762Y42859762D02*
X71559048Y42621667D01*
X71559048Y43240715D01*
X71801905Y31354762D02*
X71420952Y31088095D01*
X71801905Y30897619D02*
X71001905Y30897619D01*
X71001905Y31202381D01*
X71040000Y31278572D01*
X71078095Y31316667D01*
X71154286Y31354762D01*
X71268571Y31354762D01*
X71344762Y31316667D01*
X71382857Y31278572D01*
X71420952Y31202381D01*
X71420952Y30897619D01*
X71078095Y31659524D02*
X71040000Y31697619D01*
X71001905Y31773810D01*
X71001905Y31964286D01*
X71040000Y32040476D01*
X71078095Y32078572D01*
X71154286Y32116667D01*
X71230476Y32116667D01*
X71344762Y32078572D01*
X71801905Y31621429D01*
X71801905Y32116667D01*
X71001905Y32611905D02*
X71001905Y32688096D01*
X71040000Y32764286D01*
X71078095Y32802381D01*
X71154286Y32840477D01*
X71306667Y32878572D01*
X71497143Y32878572D01*
X71649524Y32840477D01*
X71725714Y32802381D01*
X71763810Y32764286D01*
X71801905Y32688096D01*
X71801905Y32611905D01*
X71763810Y32535715D01*
X71725714Y32497619D01*
X71649524Y32459524D01*
X71497143Y32421429D01*
X71306667Y32421429D01*
X71154286Y32459524D01*
X71078095Y32497619D01*
X71040000Y32535715D01*
X71001905Y32611905D01*
X71001905Y33602382D02*
X71001905Y33221429D01*
X71382857Y33183334D01*
X71344762Y33221429D01*
X71306667Y33297620D01*
X71306667Y33488096D01*
X71344762Y33564286D01*
X71382857Y33602382D01*
X71459048Y33640477D01*
X71649524Y33640477D01*
X71725714Y33602382D01*
X71763810Y33564286D01*
X71801905Y33488096D01*
X71801905Y33297620D01*
X71763810Y33221429D01*
X71725714Y33183334D01*
X50702381Y2880953D02*
X50226190Y2547619D01*
X50702381Y2309524D02*
X49702381Y2309524D01*
X49702381Y2690477D01*
X49750000Y2785715D01*
X49797619Y2833334D01*
X49892857Y2880953D01*
X50035714Y2880953D01*
X50130952Y2833334D01*
X50178571Y2785715D01*
X50226190Y2690477D01*
X50226190Y2309524D01*
X49702381Y3214286D02*
X49702381Y3833334D01*
X50083333Y3500000D01*
X50083333Y3642858D01*
X50130952Y3738096D01*
X50178571Y3785715D01*
X50273810Y3833334D01*
X50511905Y3833334D01*
X50607143Y3785715D01*
X50654762Y3738096D01*
X50702381Y3642858D01*
X50702381Y3357143D01*
X50654762Y3261905D01*
X50607143Y3214286D01*
X49702381Y4452381D02*
X49702381Y4547620D01*
X49750000Y4642858D01*
X49797619Y4690477D01*
X49892857Y4738096D01*
X50083333Y4785715D01*
X50321429Y4785715D01*
X50511905Y4738096D01*
X50607143Y4690477D01*
X50654762Y4642858D01*
X50702381Y4547620D01*
X50702381Y4452381D01*
X50654762Y4357143D01*
X50607143Y4309524D01*
X50511905Y4261905D01*
X50321429Y4214286D01*
X50083333Y4214286D01*
X49892857Y4261905D01*
X49797619Y4309524D01*
X49750000Y4357143D01*
X49702381Y4452381D01*
X50702381Y5738096D02*
X50702381Y5166667D01*
X50702381Y5452381D02*
X49702381Y5452381D01*
X49845238Y5357143D01*
X49940476Y5261905D01*
X49988095Y5166667D01*
X75452381Y43380953D02*
X74976190Y43047619D01*
X75452381Y42809524D02*
X74452381Y42809524D01*
X74452381Y43190477D01*
X74500000Y43285715D01*
X74547619Y43333334D01*
X74642857Y43380953D01*
X74785714Y43380953D01*
X74880952Y43333334D01*
X74928571Y43285715D01*
X74976190Y43190477D01*
X74976190Y42809524D01*
X74452381Y43714286D02*
X74452381Y44333334D01*
X74833333Y44000000D01*
X74833333Y44142858D01*
X74880952Y44238096D01*
X74928571Y44285715D01*
X75023810Y44333334D01*
X75261905Y44333334D01*
X75357143Y44285715D01*
X75404762Y44238096D01*
X75452381Y44142858D01*
X75452381Y43857143D01*
X75404762Y43761905D01*
X75357143Y43714286D01*
X74452381Y44952381D02*
X74452381Y45047620D01*
X74500000Y45142858D01*
X74547619Y45190477D01*
X74642857Y45238096D01*
X74833333Y45285715D01*
X75071429Y45285715D01*
X75261905Y45238096D01*
X75357143Y45190477D01*
X75404762Y45142858D01*
X75452381Y45047620D01*
X75452381Y44952381D01*
X75404762Y44857143D01*
X75357143Y44809524D01*
X75261905Y44761905D01*
X75071429Y44714286D01*
X74833333Y44714286D01*
X74642857Y44761905D01*
X74547619Y44809524D01*
X74500000Y44857143D01*
X74452381Y44952381D01*
X74452381Y46142858D02*
X74452381Y45952381D01*
X74500000Y45857143D01*
X74547619Y45809524D01*
X74690476Y45714286D01*
X74880952Y45666667D01*
X75261905Y45666667D01*
X75357143Y45714286D01*
X75404762Y45761905D01*
X75452381Y45857143D01*
X75452381Y46047620D01*
X75404762Y46142858D01*
X75357143Y46190477D01*
X75261905Y46238096D01*
X75023810Y46238096D01*
X74928571Y46190477D01*
X74880952Y46142858D01*
X74833333Y46047620D01*
X74833333Y45857143D01*
X74880952Y45761905D01*
X74928571Y45714286D01*
X75023810Y45666667D01*
X76392381Y33335953D02*
X75916190Y33002619D01*
X76392381Y32764524D02*
X75392381Y32764524D01*
X75392381Y33145477D01*
X75440000Y33240715D01*
X75487619Y33288334D01*
X75582857Y33335953D01*
X75725714Y33335953D01*
X75820952Y33288334D01*
X75868571Y33240715D01*
X75916190Y33145477D01*
X75916190Y32764524D01*
X75392381Y33669286D02*
X75392381Y34288334D01*
X75773333Y33955000D01*
X75773333Y34097858D01*
X75820952Y34193096D01*
X75868571Y34240715D01*
X75963810Y34288334D01*
X76201905Y34288334D01*
X76297143Y34240715D01*
X76344762Y34193096D01*
X76392381Y34097858D01*
X76392381Y33812143D01*
X76344762Y33716905D01*
X76297143Y33669286D01*
X75392381Y34907381D02*
X75392381Y35002620D01*
X75440000Y35097858D01*
X75487619Y35145477D01*
X75582857Y35193096D01*
X75773333Y35240715D01*
X76011429Y35240715D01*
X76201905Y35193096D01*
X76297143Y35145477D01*
X76344762Y35097858D01*
X76392381Y35002620D01*
X76392381Y34907381D01*
X76344762Y34812143D01*
X76297143Y34764524D01*
X76201905Y34716905D01*
X76011429Y34669286D01*
X75773333Y34669286D01*
X75582857Y34716905D01*
X75487619Y34764524D01*
X75440000Y34812143D01*
X75392381Y34907381D01*
X75392381Y35574048D02*
X75392381Y36240715D01*
X76392381Y35812143D01*
X65104762Y27888095D02*
X64838095Y28269048D01*
X64647619Y27888095D02*
X64647619Y28688095D01*
X64952381Y28688095D01*
X65028572Y28650000D01*
X65066667Y28611905D01*
X65104762Y28535714D01*
X65104762Y28421429D01*
X65066667Y28345238D01*
X65028572Y28307143D01*
X64952381Y28269048D01*
X64647619Y28269048D01*
X65371429Y28688095D02*
X65866667Y28688095D01*
X65600000Y28383333D01*
X65714286Y28383333D01*
X65790476Y28345238D01*
X65828572Y28307143D01*
X65866667Y28230952D01*
X65866667Y28040476D01*
X65828572Y27964286D01*
X65790476Y27926190D01*
X65714286Y27888095D01*
X65485714Y27888095D01*
X65409524Y27926190D01*
X65371429Y27964286D01*
X66361905Y28688095D02*
X66438096Y28688095D01*
X66514286Y28650000D01*
X66552381Y28611905D01*
X66590477Y28535714D01*
X66628572Y28383333D01*
X66628572Y28192857D01*
X66590477Y28040476D01*
X66552381Y27964286D01*
X66514286Y27926190D01*
X66438096Y27888095D01*
X66361905Y27888095D01*
X66285715Y27926190D01*
X66247619Y27964286D01*
X66209524Y28040476D01*
X66171429Y28192857D01*
X66171429Y28383333D01*
X66209524Y28535714D01*
X66247619Y28611905D01*
X66285715Y28650000D01*
X66361905Y28688095D01*
X67085715Y28345238D02*
X67009524Y28383333D01*
X66971429Y28421429D01*
X66933334Y28497619D01*
X66933334Y28535714D01*
X66971429Y28611905D01*
X67009524Y28650000D01*
X67085715Y28688095D01*
X67238096Y28688095D01*
X67314286Y28650000D01*
X67352382Y28611905D01*
X67390477Y28535714D01*
X67390477Y28497619D01*
X67352382Y28421429D01*
X67314286Y28383333D01*
X67238096Y28345238D01*
X67085715Y28345238D01*
X67009524Y28307143D01*
X66971429Y28269048D01*
X66933334Y28192857D01*
X66933334Y28040476D01*
X66971429Y27964286D01*
X67009524Y27926190D01*
X67085715Y27888095D01*
X67238096Y27888095D01*
X67314286Y27926190D01*
X67352382Y27964286D01*
X67390477Y28040476D01*
X67390477Y28192857D01*
X67352382Y28269048D01*
X67314286Y28307143D01*
X67238096Y28345238D01*
X68604762Y28138095D02*
X68338095Y28519048D01*
X68147619Y28138095D02*
X68147619Y28938095D01*
X68452381Y28938095D01*
X68528572Y28900000D01*
X68566667Y28861905D01*
X68604762Y28785714D01*
X68604762Y28671429D01*
X68566667Y28595238D01*
X68528572Y28557143D01*
X68452381Y28519048D01*
X68147619Y28519048D01*
X68871429Y28938095D02*
X69366667Y28938095D01*
X69100000Y28633333D01*
X69214286Y28633333D01*
X69290476Y28595238D01*
X69328572Y28557143D01*
X69366667Y28480952D01*
X69366667Y28290476D01*
X69328572Y28214286D01*
X69290476Y28176190D01*
X69214286Y28138095D01*
X68985714Y28138095D01*
X68909524Y28176190D01*
X68871429Y28214286D01*
X69861905Y28938095D02*
X69938096Y28938095D01*
X70014286Y28900000D01*
X70052381Y28861905D01*
X70090477Y28785714D01*
X70128572Y28633333D01*
X70128572Y28442857D01*
X70090477Y28290476D01*
X70052381Y28214286D01*
X70014286Y28176190D01*
X69938096Y28138095D01*
X69861905Y28138095D01*
X69785715Y28176190D01*
X69747619Y28214286D01*
X69709524Y28290476D01*
X69671429Y28442857D01*
X69671429Y28633333D01*
X69709524Y28785714D01*
X69747619Y28861905D01*
X69785715Y28900000D01*
X69861905Y28938095D01*
X70509524Y28138095D02*
X70661905Y28138095D01*
X70738096Y28176190D01*
X70776191Y28214286D01*
X70852382Y28328571D01*
X70890477Y28480952D01*
X70890477Y28785714D01*
X70852382Y28861905D01*
X70814286Y28900000D01*
X70738096Y28938095D01*
X70585715Y28938095D01*
X70509524Y28900000D01*
X70471429Y28861905D01*
X70433334Y28785714D01*
X70433334Y28595238D01*
X70471429Y28519048D01*
X70509524Y28480952D01*
X70585715Y28442857D01*
X70738096Y28442857D01*
X70814286Y28480952D01*
X70852382Y28519048D01*
X70890477Y28595238D01*
X31670953Y48602619D02*
X31337619Y49078810D01*
X31099524Y48602619D02*
X31099524Y49602619D01*
X31480477Y49602619D01*
X31575715Y49555000D01*
X31623334Y49507381D01*
X31670953Y49412143D01*
X31670953Y49269286D01*
X31623334Y49174048D01*
X31575715Y49126429D01*
X31480477Y49078810D01*
X31099524Y49078810D01*
X32575715Y49602619D02*
X32099524Y49602619D01*
X32051905Y49126429D01*
X32099524Y49174048D01*
X32194762Y49221667D01*
X32432858Y49221667D01*
X32528096Y49174048D01*
X32575715Y49126429D01*
X32623334Y49031190D01*
X32623334Y48793095D01*
X32575715Y48697857D01*
X32528096Y48650238D01*
X32432858Y48602619D01*
X32194762Y48602619D01*
X32099524Y48650238D01*
X32051905Y48697857D01*
X33242381Y49602619D02*
X33337620Y49602619D01*
X33432858Y49555000D01*
X33480477Y49507381D01*
X33528096Y49412143D01*
X33575715Y49221667D01*
X33575715Y48983571D01*
X33528096Y48793095D01*
X33480477Y48697857D01*
X33432858Y48650238D01*
X33337620Y48602619D01*
X33242381Y48602619D01*
X33147143Y48650238D01*
X33099524Y48697857D01*
X33051905Y48793095D01*
X33004286Y48983571D01*
X33004286Y49221667D01*
X33051905Y49412143D01*
X33099524Y49507381D01*
X33147143Y49555000D01*
X33242381Y49602619D01*
X34528096Y48602619D02*
X33956667Y48602619D01*
X34242381Y48602619D02*
X34242381Y49602619D01*
X34147143Y49459762D01*
X34051905Y49364524D01*
X33956667Y49316905D01*
X1630953Y16797619D02*
X1297619Y17273810D01*
X1059524Y16797619D02*
X1059524Y17797619D01*
X1440477Y17797619D01*
X1535715Y17750000D01*
X1583334Y17702381D01*
X1630953Y17607143D01*
X1630953Y17464286D01*
X1583334Y17369048D01*
X1535715Y17321429D01*
X1440477Y17273810D01*
X1059524Y17273810D01*
X2488096Y17797619D02*
X2297619Y17797619D01*
X2202381Y17750000D01*
X2154762Y17702381D01*
X2059524Y17559524D01*
X2011905Y17369048D01*
X2011905Y16988095D01*
X2059524Y16892857D01*
X2107143Y16845238D01*
X2202381Y16797619D01*
X2392858Y16797619D01*
X2488096Y16845238D01*
X2535715Y16892857D01*
X2583334Y16988095D01*
X2583334Y17226190D01*
X2535715Y17321429D01*
X2488096Y17369048D01*
X2392858Y17416667D01*
X2202381Y17416667D01*
X2107143Y17369048D01*
X2059524Y17321429D01*
X2011905Y17226190D01*
X3202381Y17797619D02*
X3297620Y17797619D01*
X3392858Y17750000D01*
X3440477Y17702381D01*
X3488096Y17607143D01*
X3535715Y17416667D01*
X3535715Y17178571D01*
X3488096Y16988095D01*
X3440477Y16892857D01*
X3392858Y16845238D01*
X3297620Y16797619D01*
X3202381Y16797619D01*
X3107143Y16845238D01*
X3059524Y16892857D01*
X3011905Y16988095D01*
X2964286Y17178571D01*
X2964286Y17416667D01*
X3011905Y17607143D01*
X3059524Y17702381D01*
X3107143Y17750000D01*
X3202381Y17797619D01*
X3869048Y17797619D02*
X4488096Y17797619D01*
X4154762Y17416667D01*
X4297620Y17416667D01*
X4392858Y17369048D01*
X4440477Y17321429D01*
X4488096Y17226190D01*
X4488096Y16988095D01*
X4440477Y16892857D01*
X4392858Y16845238D01*
X4297620Y16797619D01*
X4011905Y16797619D01*
X3916667Y16845238D01*
X3869048Y16892857D01*
X1630953Y19547619D02*
X1297619Y20023810D01*
X1059524Y19547619D02*
X1059524Y20547619D01*
X1440477Y20547619D01*
X1535715Y20500000D01*
X1583334Y20452381D01*
X1630953Y20357143D01*
X1630953Y20214286D01*
X1583334Y20119048D01*
X1535715Y20071429D01*
X1440477Y20023810D01*
X1059524Y20023810D01*
X2488096Y20547619D02*
X2297619Y20547619D01*
X2202381Y20500000D01*
X2154762Y20452381D01*
X2059524Y20309524D01*
X2011905Y20119048D01*
X2011905Y19738095D01*
X2059524Y19642857D01*
X2107143Y19595238D01*
X2202381Y19547619D01*
X2392858Y19547619D01*
X2488096Y19595238D01*
X2535715Y19642857D01*
X2583334Y19738095D01*
X2583334Y19976190D01*
X2535715Y20071429D01*
X2488096Y20119048D01*
X2392858Y20166667D01*
X2202381Y20166667D01*
X2107143Y20119048D01*
X2059524Y20071429D01*
X2011905Y19976190D01*
X3202381Y20547619D02*
X3297620Y20547619D01*
X3392858Y20500000D01*
X3440477Y20452381D01*
X3488096Y20357143D01*
X3535715Y20166667D01*
X3535715Y19928571D01*
X3488096Y19738095D01*
X3440477Y19642857D01*
X3392858Y19595238D01*
X3297620Y19547619D01*
X3202381Y19547619D01*
X3107143Y19595238D01*
X3059524Y19642857D01*
X3011905Y19738095D01*
X2964286Y19928571D01*
X2964286Y20166667D01*
X3011905Y20357143D01*
X3059524Y20452381D01*
X3107143Y20500000D01*
X3202381Y20547619D01*
X4392858Y20214286D02*
X4392858Y19547619D01*
X4154762Y20595238D02*
X3916667Y19880952D01*
X4535715Y19880952D01*
X1630953Y24547619D02*
X1297619Y25023810D01*
X1059524Y24547619D02*
X1059524Y25547619D01*
X1440477Y25547619D01*
X1535715Y25500000D01*
X1583334Y25452381D01*
X1630953Y25357143D01*
X1630953Y25214286D01*
X1583334Y25119048D01*
X1535715Y25071429D01*
X1440477Y25023810D01*
X1059524Y25023810D01*
X2488096Y25547619D02*
X2297619Y25547619D01*
X2202381Y25500000D01*
X2154762Y25452381D01*
X2059524Y25309524D01*
X2011905Y25119048D01*
X2011905Y24738095D01*
X2059524Y24642857D01*
X2107143Y24595238D01*
X2202381Y24547619D01*
X2392858Y24547619D01*
X2488096Y24595238D01*
X2535715Y24642857D01*
X2583334Y24738095D01*
X2583334Y24976190D01*
X2535715Y25071429D01*
X2488096Y25119048D01*
X2392858Y25166667D01*
X2202381Y25166667D01*
X2107143Y25119048D01*
X2059524Y25071429D01*
X2011905Y24976190D01*
X3202381Y25547619D02*
X3297620Y25547619D01*
X3392858Y25500000D01*
X3440477Y25452381D01*
X3488096Y25357143D01*
X3535715Y25166667D01*
X3535715Y24928571D01*
X3488096Y24738095D01*
X3440477Y24642857D01*
X3392858Y24595238D01*
X3297620Y24547619D01*
X3202381Y24547619D01*
X3107143Y24595238D01*
X3059524Y24642857D01*
X3011905Y24738095D01*
X2964286Y24928571D01*
X2964286Y25166667D01*
X3011905Y25357143D01*
X3059524Y25452381D01*
X3107143Y25500000D01*
X3202381Y25547619D01*
X4440477Y25547619D02*
X3964286Y25547619D01*
X3916667Y25071429D01*
X3964286Y25119048D01*
X4059524Y25166667D01*
X4297620Y25166667D01*
X4392858Y25119048D01*
X4440477Y25071429D01*
X4488096Y24976190D01*
X4488096Y24738095D01*
X4440477Y24642857D01*
X4392858Y24595238D01*
X4297620Y24547619D01*
X4059524Y24547619D01*
X3964286Y24595238D01*
X3916667Y24642857D01*
X1630953Y11797619D02*
X1297619Y12273810D01*
X1059524Y11797619D02*
X1059524Y12797619D01*
X1440477Y12797619D01*
X1535715Y12750000D01*
X1583334Y12702381D01*
X1630953Y12607143D01*
X1630953Y12464286D01*
X1583334Y12369048D01*
X1535715Y12321429D01*
X1440477Y12273810D01*
X1059524Y12273810D01*
X2488096Y12797619D02*
X2297619Y12797619D01*
X2202381Y12750000D01*
X2154762Y12702381D01*
X2059524Y12559524D01*
X2011905Y12369048D01*
X2011905Y11988095D01*
X2059524Y11892857D01*
X2107143Y11845238D01*
X2202381Y11797619D01*
X2392858Y11797619D01*
X2488096Y11845238D01*
X2535715Y11892857D01*
X2583334Y11988095D01*
X2583334Y12226190D01*
X2535715Y12321429D01*
X2488096Y12369048D01*
X2392858Y12416667D01*
X2202381Y12416667D01*
X2107143Y12369048D01*
X2059524Y12321429D01*
X2011905Y12226190D01*
X3202381Y12797619D02*
X3297620Y12797619D01*
X3392858Y12750000D01*
X3440477Y12702381D01*
X3488096Y12607143D01*
X3535715Y12416667D01*
X3535715Y12178571D01*
X3488096Y11988095D01*
X3440477Y11892857D01*
X3392858Y11845238D01*
X3297620Y11797619D01*
X3202381Y11797619D01*
X3107143Y11845238D01*
X3059524Y11892857D01*
X3011905Y11988095D01*
X2964286Y12178571D01*
X2964286Y12416667D01*
X3011905Y12607143D01*
X3059524Y12702381D01*
X3107143Y12750000D01*
X3202381Y12797619D01*
X4392858Y12797619D02*
X4202381Y12797619D01*
X4107143Y12750000D01*
X4059524Y12702381D01*
X3964286Y12559524D01*
X3916667Y12369048D01*
X3916667Y11988095D01*
X3964286Y11892857D01*
X4011905Y11845238D01*
X4107143Y11797619D01*
X4297620Y11797619D01*
X4392858Y11845238D01*
X4440477Y11892857D01*
X4488096Y11988095D01*
X4488096Y12226190D01*
X4440477Y12321429D01*
X4392858Y12369048D01*
X4297620Y12416667D01*
X4107143Y12416667D01*
X4011905Y12369048D01*
X3964286Y12321429D01*
X3916667Y12226190D01*
X14380953Y9797619D02*
X14047619Y10273810D01*
X13809524Y9797619D02*
X13809524Y10797619D01*
X14190477Y10797619D01*
X14285715Y10750000D01*
X14333334Y10702381D01*
X14380953Y10607143D01*
X14380953Y10464286D01*
X14333334Y10369048D01*
X14285715Y10321429D01*
X14190477Y10273810D01*
X13809524Y10273810D01*
X15238096Y10797619D02*
X15047619Y10797619D01*
X14952381Y10750000D01*
X14904762Y10702381D01*
X14809524Y10559524D01*
X14761905Y10369048D01*
X14761905Y9988095D01*
X14809524Y9892857D01*
X14857143Y9845238D01*
X14952381Y9797619D01*
X15142858Y9797619D01*
X15238096Y9845238D01*
X15285715Y9892857D01*
X15333334Y9988095D01*
X15333334Y10226190D01*
X15285715Y10321429D01*
X15238096Y10369048D01*
X15142858Y10416667D01*
X14952381Y10416667D01*
X14857143Y10369048D01*
X14809524Y10321429D01*
X14761905Y10226190D01*
X15952381Y10797619D02*
X16047620Y10797619D01*
X16142858Y10750000D01*
X16190477Y10702381D01*
X16238096Y10607143D01*
X16285715Y10416667D01*
X16285715Y10178571D01*
X16238096Y9988095D01*
X16190477Y9892857D01*
X16142858Y9845238D01*
X16047620Y9797619D01*
X15952381Y9797619D01*
X15857143Y9845238D01*
X15809524Y9892857D01*
X15761905Y9988095D01*
X15714286Y10178571D01*
X15714286Y10416667D01*
X15761905Y10607143D01*
X15809524Y10702381D01*
X15857143Y10750000D01*
X15952381Y10797619D01*
X16619048Y10797619D02*
X17285715Y10797619D01*
X16857143Y9797619D01*
X14630953Y26547619D02*
X14297619Y27023810D01*
X14059524Y26547619D02*
X14059524Y27547619D01*
X14440477Y27547619D01*
X14535715Y27500000D01*
X14583334Y27452381D01*
X14630953Y27357143D01*
X14630953Y27214286D01*
X14583334Y27119048D01*
X14535715Y27071429D01*
X14440477Y27023810D01*
X14059524Y27023810D01*
X15488096Y27547619D02*
X15297619Y27547619D01*
X15202381Y27500000D01*
X15154762Y27452381D01*
X15059524Y27309524D01*
X15011905Y27119048D01*
X15011905Y26738095D01*
X15059524Y26642857D01*
X15107143Y26595238D01*
X15202381Y26547619D01*
X15392858Y26547619D01*
X15488096Y26595238D01*
X15535715Y26642857D01*
X15583334Y26738095D01*
X15583334Y26976190D01*
X15535715Y27071429D01*
X15488096Y27119048D01*
X15392858Y27166667D01*
X15202381Y27166667D01*
X15107143Y27119048D01*
X15059524Y27071429D01*
X15011905Y26976190D01*
X16202381Y27547619D02*
X16297620Y27547619D01*
X16392858Y27500000D01*
X16440477Y27452381D01*
X16488096Y27357143D01*
X16535715Y27166667D01*
X16535715Y26928571D01*
X16488096Y26738095D01*
X16440477Y26642857D01*
X16392858Y26595238D01*
X16297620Y26547619D01*
X16202381Y26547619D01*
X16107143Y26595238D01*
X16059524Y26642857D01*
X16011905Y26738095D01*
X15964286Y26928571D01*
X15964286Y27166667D01*
X16011905Y27357143D01*
X16059524Y27452381D01*
X16107143Y27500000D01*
X16202381Y27547619D01*
X17107143Y27119048D02*
X17011905Y27166667D01*
X16964286Y27214286D01*
X16916667Y27309524D01*
X16916667Y27357143D01*
X16964286Y27452381D01*
X17011905Y27500000D01*
X17107143Y27547619D01*
X17297620Y27547619D01*
X17392858Y27500000D01*
X17440477Y27452381D01*
X17488096Y27357143D01*
X17488096Y27309524D01*
X17440477Y27214286D01*
X17392858Y27166667D01*
X17297620Y27119048D01*
X17107143Y27119048D01*
X17011905Y27071429D01*
X16964286Y27023810D01*
X16916667Y26928571D01*
X16916667Y26738095D01*
X16964286Y26642857D01*
X17011905Y26595238D01*
X17107143Y26547619D01*
X17297620Y26547619D01*
X17392858Y26595238D01*
X17440477Y26642857D01*
X17488096Y26738095D01*
X17488096Y26928571D01*
X17440477Y27023810D01*
X17392858Y27071429D01*
X17297620Y27119048D01*
X29375953Y21657619D02*
X29042619Y22133810D01*
X28804524Y21657619D02*
X28804524Y22657619D01*
X29185477Y22657619D01*
X29280715Y22610000D01*
X29328334Y22562381D01*
X29375953Y22467143D01*
X29375953Y22324286D01*
X29328334Y22229048D01*
X29280715Y22181429D01*
X29185477Y22133810D01*
X28804524Y22133810D01*
X30233096Y22657619D02*
X30042619Y22657619D01*
X29947381Y22610000D01*
X29899762Y22562381D01*
X29804524Y22419524D01*
X29756905Y22229048D01*
X29756905Y21848095D01*
X29804524Y21752857D01*
X29852143Y21705238D01*
X29947381Y21657619D01*
X30137858Y21657619D01*
X30233096Y21705238D01*
X30280715Y21752857D01*
X30328334Y21848095D01*
X30328334Y22086190D01*
X30280715Y22181429D01*
X30233096Y22229048D01*
X30137858Y22276667D01*
X29947381Y22276667D01*
X29852143Y22229048D01*
X29804524Y22181429D01*
X29756905Y22086190D01*
X31280715Y21657619D02*
X30709286Y21657619D01*
X30995000Y21657619D02*
X30995000Y22657619D01*
X30899762Y22514762D01*
X30804524Y22419524D01*
X30709286Y22371905D01*
X31899762Y22657619D02*
X31995001Y22657619D01*
X32090239Y22610000D01*
X32137858Y22562381D01*
X32185477Y22467143D01*
X32233096Y22276667D01*
X32233096Y22038571D01*
X32185477Y21848095D01*
X32137858Y21752857D01*
X32090239Y21705238D01*
X31995001Y21657619D01*
X31899762Y21657619D01*
X31804524Y21705238D01*
X31756905Y21752857D01*
X31709286Y21848095D01*
X31661667Y22038571D01*
X31661667Y22276667D01*
X31709286Y22467143D01*
X31756905Y22562381D01*
X31804524Y22610000D01*
X31899762Y22657619D01*
X32925953Y15557619D02*
X32592619Y16033810D01*
X32354524Y15557619D02*
X32354524Y16557619D01*
X32735477Y16557619D01*
X32830715Y16510000D01*
X32878334Y16462381D01*
X32925953Y16367143D01*
X32925953Y16224286D01*
X32878334Y16129048D01*
X32830715Y16081429D01*
X32735477Y16033810D01*
X32354524Y16033810D01*
X33783096Y16557619D02*
X33592619Y16557619D01*
X33497381Y16510000D01*
X33449762Y16462381D01*
X33354524Y16319524D01*
X33306905Y16129048D01*
X33306905Y15748095D01*
X33354524Y15652857D01*
X33402143Y15605238D01*
X33497381Y15557619D01*
X33687858Y15557619D01*
X33783096Y15605238D01*
X33830715Y15652857D01*
X33878334Y15748095D01*
X33878334Y15986190D01*
X33830715Y16081429D01*
X33783096Y16129048D01*
X33687858Y16176667D01*
X33497381Y16176667D01*
X33402143Y16129048D01*
X33354524Y16081429D01*
X33306905Y15986190D01*
X34830715Y15557619D02*
X34259286Y15557619D01*
X34545000Y15557619D02*
X34545000Y16557619D01*
X34449762Y16414762D01*
X34354524Y16319524D01*
X34259286Y16271905D01*
X35783096Y15557619D02*
X35211667Y15557619D01*
X35497381Y15557619D02*
X35497381Y16557619D01*
X35402143Y16414762D01*
X35306905Y16319524D01*
X35211667Y16271905D01*
X32925953Y13639048D02*
X32592619Y14115239D01*
X32354524Y13639048D02*
X32354524Y14639048D01*
X32735477Y14639048D01*
X32830715Y14591429D01*
X32878334Y14543810D01*
X32925953Y14448572D01*
X32925953Y14305715D01*
X32878334Y14210477D01*
X32830715Y14162858D01*
X32735477Y14115239D01*
X32354524Y14115239D01*
X33783096Y14639048D02*
X33592619Y14639048D01*
X33497381Y14591429D01*
X33449762Y14543810D01*
X33354524Y14400953D01*
X33306905Y14210477D01*
X33306905Y13829524D01*
X33354524Y13734286D01*
X33402143Y13686667D01*
X33497381Y13639048D01*
X33687858Y13639048D01*
X33783096Y13686667D01*
X33830715Y13734286D01*
X33878334Y13829524D01*
X33878334Y14067619D01*
X33830715Y14162858D01*
X33783096Y14210477D01*
X33687858Y14258096D01*
X33497381Y14258096D01*
X33402143Y14210477D01*
X33354524Y14162858D01*
X33306905Y14067619D01*
X34830715Y13639048D02*
X34259286Y13639048D01*
X34545000Y13639048D02*
X34545000Y14639048D01*
X34449762Y14496191D01*
X34354524Y14400953D01*
X34259286Y14353334D01*
X35211667Y14543810D02*
X35259286Y14591429D01*
X35354524Y14639048D01*
X35592620Y14639048D01*
X35687858Y14591429D01*
X35735477Y14543810D01*
X35783096Y14448572D01*
X35783096Y14353334D01*
X35735477Y14210477D01*
X35164048Y13639048D01*
X35783096Y13639048D01*
X3875953Y28737619D02*
X3542619Y29213810D01*
X3304524Y28737619D02*
X3304524Y29737619D01*
X3685477Y29737619D01*
X3780715Y29690000D01*
X3828334Y29642381D01*
X3875953Y29547143D01*
X3875953Y29404286D01*
X3828334Y29309048D01*
X3780715Y29261429D01*
X3685477Y29213810D01*
X3304524Y29213810D01*
X4209286Y29737619D02*
X4875953Y29737619D01*
X4447381Y28737619D01*
X5447381Y29737619D02*
X5542620Y29737619D01*
X5637858Y29690000D01*
X5685477Y29642381D01*
X5733096Y29547143D01*
X5780715Y29356667D01*
X5780715Y29118571D01*
X5733096Y28928095D01*
X5685477Y28832857D01*
X5637858Y28785238D01*
X5542620Y28737619D01*
X5447381Y28737619D01*
X5352143Y28785238D01*
X5304524Y28832857D01*
X5256905Y28928095D01*
X5209286Y29118571D01*
X5209286Y29356667D01*
X5256905Y29547143D01*
X5304524Y29642381D01*
X5352143Y29690000D01*
X5447381Y29737619D01*
X6733096Y28737619D02*
X6161667Y28737619D01*
X6447381Y28737619D02*
X6447381Y29737619D01*
X6352143Y29594762D01*
X6256905Y29499524D01*
X6161667Y29451905D01*
X10625953Y40237619D02*
X10292619Y40713810D01*
X10054524Y40237619D02*
X10054524Y41237619D01*
X10435477Y41237619D01*
X10530715Y41190000D01*
X10578334Y41142381D01*
X10625953Y41047143D01*
X10625953Y40904286D01*
X10578334Y40809048D01*
X10530715Y40761429D01*
X10435477Y40713810D01*
X10054524Y40713810D01*
X10959286Y41237619D02*
X11625953Y41237619D01*
X11197381Y40237619D01*
X12197381Y41237619D02*
X12292620Y41237619D01*
X12387858Y41190000D01*
X12435477Y41142381D01*
X12483096Y41047143D01*
X12530715Y40856667D01*
X12530715Y40618571D01*
X12483096Y40428095D01*
X12435477Y40332857D01*
X12387858Y40285238D01*
X12292620Y40237619D01*
X12197381Y40237619D01*
X12102143Y40285238D01*
X12054524Y40332857D01*
X12006905Y40428095D01*
X11959286Y40618571D01*
X11959286Y40856667D01*
X12006905Y41047143D01*
X12054524Y41142381D01*
X12102143Y41190000D01*
X12197381Y41237619D01*
X12911667Y41142381D02*
X12959286Y41190000D01*
X13054524Y41237619D01*
X13292620Y41237619D01*
X13387858Y41190000D01*
X13435477Y41142381D01*
X13483096Y41047143D01*
X13483096Y40951905D01*
X13435477Y40809048D01*
X12864048Y40237619D01*
X13483096Y40237619D01*
X10625953Y33737619D02*
X10292619Y34213810D01*
X10054524Y33737619D02*
X10054524Y34737619D01*
X10435477Y34737619D01*
X10530715Y34690000D01*
X10578334Y34642381D01*
X10625953Y34547143D01*
X10625953Y34404286D01*
X10578334Y34309048D01*
X10530715Y34261429D01*
X10435477Y34213810D01*
X10054524Y34213810D01*
X10959286Y34737619D02*
X11625953Y34737619D01*
X11197381Y33737619D01*
X12197381Y34737619D02*
X12292620Y34737619D01*
X12387858Y34690000D01*
X12435477Y34642381D01*
X12483096Y34547143D01*
X12530715Y34356667D01*
X12530715Y34118571D01*
X12483096Y33928095D01*
X12435477Y33832857D01*
X12387858Y33785238D01*
X12292620Y33737619D01*
X12197381Y33737619D01*
X12102143Y33785238D01*
X12054524Y33832857D01*
X12006905Y33928095D01*
X11959286Y34118571D01*
X11959286Y34356667D01*
X12006905Y34547143D01*
X12054524Y34642381D01*
X12102143Y34690000D01*
X12197381Y34737619D01*
X12864048Y34737619D02*
X13483096Y34737619D01*
X13149762Y34356667D01*
X13292620Y34356667D01*
X13387858Y34309048D01*
X13435477Y34261429D01*
X13483096Y34166190D01*
X13483096Y33928095D01*
X13435477Y33832857D01*
X13387858Y33785238D01*
X13292620Y33737619D01*
X13006905Y33737619D01*
X12911667Y33785238D01*
X12864048Y33832857D01*
X14625953Y40237619D02*
X14292619Y40713810D01*
X14054524Y40237619D02*
X14054524Y41237619D01*
X14435477Y41237619D01*
X14530715Y41190000D01*
X14578334Y41142381D01*
X14625953Y41047143D01*
X14625953Y40904286D01*
X14578334Y40809048D01*
X14530715Y40761429D01*
X14435477Y40713810D01*
X14054524Y40713810D01*
X14959286Y41237619D02*
X15625953Y41237619D01*
X15197381Y40237619D01*
X16197381Y41237619D02*
X16292620Y41237619D01*
X16387858Y41190000D01*
X16435477Y41142381D01*
X16483096Y41047143D01*
X16530715Y40856667D01*
X16530715Y40618571D01*
X16483096Y40428095D01*
X16435477Y40332857D01*
X16387858Y40285238D01*
X16292620Y40237619D01*
X16197381Y40237619D01*
X16102143Y40285238D01*
X16054524Y40332857D01*
X16006905Y40428095D01*
X15959286Y40618571D01*
X15959286Y40856667D01*
X16006905Y41047143D01*
X16054524Y41142381D01*
X16102143Y41190000D01*
X16197381Y41237619D01*
X17387858Y40904286D02*
X17387858Y40237619D01*
X17149762Y41285238D02*
X16911667Y40570952D01*
X17530715Y40570952D01*
X14625953Y33737619D02*
X14292619Y34213810D01*
X14054524Y33737619D02*
X14054524Y34737619D01*
X14435477Y34737619D01*
X14530715Y34690000D01*
X14578334Y34642381D01*
X14625953Y34547143D01*
X14625953Y34404286D01*
X14578334Y34309048D01*
X14530715Y34261429D01*
X14435477Y34213810D01*
X14054524Y34213810D01*
X14959286Y34737619D02*
X15625953Y34737619D01*
X15197381Y33737619D01*
X16197381Y34737619D02*
X16292620Y34737619D01*
X16387858Y34690000D01*
X16435477Y34642381D01*
X16483096Y34547143D01*
X16530715Y34356667D01*
X16530715Y34118571D01*
X16483096Y33928095D01*
X16435477Y33832857D01*
X16387858Y33785238D01*
X16292620Y33737619D01*
X16197381Y33737619D01*
X16102143Y33785238D01*
X16054524Y33832857D01*
X16006905Y33928095D01*
X15959286Y34118571D01*
X15959286Y34356667D01*
X16006905Y34547143D01*
X16054524Y34642381D01*
X16102143Y34690000D01*
X16197381Y34737619D01*
X17435477Y34737619D02*
X16959286Y34737619D01*
X16911667Y34261429D01*
X16959286Y34309048D01*
X17054524Y34356667D01*
X17292620Y34356667D01*
X17387858Y34309048D01*
X17435477Y34261429D01*
X17483096Y34166190D01*
X17483096Y33928095D01*
X17435477Y33832857D01*
X17387858Y33785238D01*
X17292620Y33737619D01*
X17054524Y33737619D01*
X16959286Y33785238D01*
X16911667Y33832857D01*
D20*
X44755372Y22916162D02*
X44755372Y22134810D01*
X44801333Y22042886D01*
X44847295Y21996924D01*
X44939219Y21950962D01*
X45123067Y21950962D01*
X45214991Y21996924D01*
X45260952Y22042886D01*
X45306914Y22134810D01*
X45306914Y22916162D01*
X45674610Y22916162D02*
X46272114Y22916162D01*
X45950381Y22548467D01*
X46088267Y22548467D01*
X46180191Y22502505D01*
X46226153Y22456543D01*
X46272114Y22364619D01*
X46272114Y22134810D01*
X46226153Y22042886D01*
X46180191Y21996924D01*
X46088267Y21950962D01*
X45812495Y21950962D01*
X45720572Y21996924D01*
X45674610Y22042886D01*
X46869619Y22916162D02*
X46961543Y22916162D01*
X47053467Y22870200D01*
X47099429Y22824238D01*
X47145391Y22732314D01*
X47191352Y22548467D01*
X47191352Y22318657D01*
X47145391Y22134810D01*
X47099429Y22042886D01*
X47053467Y21996924D01*
X46961543Y21950962D01*
X46869619Y21950962D01*
X46777695Y21996924D01*
X46731733Y22042886D01*
X46685772Y22134810D01*
X46639810Y22318657D01*
X46639810Y22548467D01*
X46685772Y22732314D01*
X46731733Y22824238D01*
X46777695Y22870200D01*
X46869619Y22916162D01*
X48110590Y21950962D02*
X47559048Y21950962D01*
X47834819Y21950962D02*
X47834819Y22916162D01*
X47742895Y22778276D01*
X47650971Y22686352D01*
X47559048Y22640390D01*
D13*
X23547381Y16975714D02*
X24356905Y16975714D01*
X24452143Y17023333D01*
X24499762Y17070952D01*
X24547381Y17166190D01*
X24547381Y17356667D01*
X24499762Y17451905D01*
X24452143Y17499524D01*
X24356905Y17547143D01*
X23547381Y17547143D01*
X23547381Y18451905D02*
X23547381Y18261428D01*
X23595000Y18166190D01*
X23642619Y18118571D01*
X23785476Y18023333D01*
X23975952Y17975714D01*
X24356905Y17975714D01*
X24452143Y18023333D01*
X24499762Y18070952D01*
X24547381Y18166190D01*
X24547381Y18356667D01*
X24499762Y18451905D01*
X24452143Y18499524D01*
X24356905Y18547143D01*
X24118810Y18547143D01*
X24023571Y18499524D01*
X23975952Y18451905D01*
X23928333Y18356667D01*
X23928333Y18166190D01*
X23975952Y18070952D01*
X24023571Y18023333D01*
X24118810Y17975714D01*
X23547381Y19166190D02*
X23547381Y19261429D01*
X23595000Y19356667D01*
X23642619Y19404286D01*
X23737857Y19451905D01*
X23928333Y19499524D01*
X24166429Y19499524D01*
X24356905Y19451905D01*
X24452143Y19404286D01*
X24499762Y19356667D01*
X24547381Y19261429D01*
X24547381Y19166190D01*
X24499762Y19070952D01*
X24452143Y19023333D01*
X24356905Y18975714D01*
X24166429Y18928095D01*
X23928333Y18928095D01*
X23737857Y18975714D01*
X23642619Y19023333D01*
X23595000Y19070952D01*
X23547381Y19166190D01*
X24547381Y20451905D02*
X24547381Y19880476D01*
X24547381Y20166190D02*
X23547381Y20166190D01*
X23690238Y20070952D01*
X23785476Y19975714D01*
X23833095Y19880476D01*
D19*
X55168833Y14685000D02*
X55592167Y14685000D01*
X54703167Y14388667D02*
X55168833Y14685000D01*
X54703167Y14981333D01*
X54703167Y15193000D02*
X54703167Y15743333D01*
X55041833Y15447000D01*
X55041833Y15574000D01*
X55084167Y15658667D01*
X55126500Y15701000D01*
X55211167Y15743333D01*
X55422833Y15743333D01*
X55507500Y15701000D01*
X55549833Y15658667D01*
X55592167Y15574000D01*
X55592167Y15320000D01*
X55549833Y15235333D01*
X55507500Y15193000D01*
X54703167Y16293667D02*
X54703167Y16378334D01*
X54745500Y16463000D01*
X54787833Y16505334D01*
X54872500Y16547667D01*
X55041833Y16590000D01*
X55253500Y16590000D01*
X55422833Y16547667D01*
X55507500Y16505334D01*
X55549833Y16463000D01*
X55592167Y16378334D01*
X55592167Y16293667D01*
X55549833Y16209000D01*
X55507500Y16166667D01*
X55422833Y16124334D01*
X55253500Y16082000D01*
X55041833Y16082000D01*
X54872500Y16124334D01*
X54787833Y16166667D01*
X54745500Y16209000D01*
X54703167Y16293667D01*
X55592167Y17436667D02*
X55592167Y16928667D01*
X55592167Y17182667D02*
X54703167Y17182667D01*
X54830167Y17098001D01*
X54914833Y17013334D01*
X54957167Y16928667D01*
D13*
X67535714Y31104762D02*
X67573810Y31066667D01*
X67611905Y30952381D01*
X67611905Y30876191D01*
X67573810Y30761905D01*
X67497619Y30685714D01*
X67421429Y30647619D01*
X67269048Y30609524D01*
X67154762Y30609524D01*
X67002381Y30647619D01*
X66926190Y30685714D01*
X66850000Y30761905D01*
X66811905Y30876191D01*
X66811905Y30952381D01*
X66850000Y31066667D01*
X66888095Y31104762D01*
X66888095Y31409524D02*
X66850000Y31447619D01*
X66811905Y31523810D01*
X66811905Y31714286D01*
X66850000Y31790476D01*
X66888095Y31828572D01*
X66964286Y31866667D01*
X67040476Y31866667D01*
X67154762Y31828572D01*
X67611905Y31371429D01*
X67611905Y31866667D01*
X66811905Y32361905D02*
X66811905Y32438096D01*
X66850000Y32514286D01*
X66888095Y32552381D01*
X66964286Y32590477D01*
X67116667Y32628572D01*
X67307143Y32628572D01*
X67459524Y32590477D01*
X67535714Y32552381D01*
X67573810Y32514286D01*
X67611905Y32438096D01*
X67611905Y32361905D01*
X67573810Y32285715D01*
X67535714Y32247619D01*
X67459524Y32209524D01*
X67307143Y32171429D01*
X67116667Y32171429D01*
X66964286Y32209524D01*
X66888095Y32247619D01*
X66850000Y32285715D01*
X66811905Y32361905D01*
X67154762Y33085715D02*
X67116667Y33009524D01*
X67078571Y32971429D01*
X67002381Y32933334D01*
X66964286Y32933334D01*
X66888095Y32971429D01*
X66850000Y33009524D01*
X66811905Y33085715D01*
X66811905Y33238096D01*
X66850000Y33314286D01*
X66888095Y33352382D01*
X66964286Y33390477D01*
X67002381Y33390477D01*
X67078571Y33352382D01*
X67116667Y33314286D01*
X67154762Y33238096D01*
X67154762Y33085715D01*
X67192857Y33009524D01*
X67230952Y32971429D01*
X67307143Y32933334D01*
X67459524Y32933334D01*
X67535714Y32971429D01*
X67573810Y33009524D01*
X67611905Y33085715D01*
X67611905Y33238096D01*
X67573810Y33314286D01*
X67535714Y33352382D01*
X67459524Y33390477D01*
X67307143Y33390477D01*
X67230952Y33352382D01*
X67192857Y33314286D01*
X67154762Y33238096D01*
X67320953Y39097857D02*
X67273334Y39050238D01*
X67130477Y39002619D01*
X67035239Y39002619D01*
X66892381Y39050238D01*
X66797143Y39145476D01*
X66749524Y39240714D01*
X66701905Y39431190D01*
X66701905Y39574048D01*
X66749524Y39764524D01*
X66797143Y39859762D01*
X66892381Y39955000D01*
X67035239Y40002619D01*
X67130477Y40002619D01*
X67273334Y39955000D01*
X67320953Y39907381D01*
X67701905Y39907381D02*
X67749524Y39955000D01*
X67844762Y40002619D01*
X68082858Y40002619D01*
X68178096Y39955000D01*
X68225715Y39907381D01*
X68273334Y39812143D01*
X68273334Y39716905D01*
X68225715Y39574048D01*
X67654286Y39002619D01*
X68273334Y39002619D01*
X68892381Y40002619D02*
X68987620Y40002619D01*
X69082858Y39955000D01*
X69130477Y39907381D01*
X69178096Y39812143D01*
X69225715Y39621667D01*
X69225715Y39383571D01*
X69178096Y39193095D01*
X69130477Y39097857D01*
X69082858Y39050238D01*
X68987620Y39002619D01*
X68892381Y39002619D01*
X68797143Y39050238D01*
X68749524Y39097857D01*
X68701905Y39193095D01*
X68654286Y39383571D01*
X68654286Y39621667D01*
X68701905Y39812143D01*
X68749524Y39907381D01*
X68797143Y39955000D01*
X68892381Y40002619D01*
X69701905Y39002619D02*
X69892381Y39002619D01*
X69987620Y39050238D01*
X70035239Y39097857D01*
X70130477Y39240714D01*
X70178096Y39431190D01*
X70178096Y39812143D01*
X70130477Y39907381D01*
X70082858Y39955000D01*
X69987620Y40002619D01*
X69797143Y40002619D01*
X69701905Y39955000D01*
X69654286Y39907381D01*
X69606667Y39812143D01*
X69606667Y39574048D01*
X69654286Y39478810D01*
X69701905Y39431190D01*
X69797143Y39383571D01*
X69987620Y39383571D01*
X70082858Y39431190D01*
X70130477Y39478810D01*
X70178096Y39574048D01*
X73607143Y40380953D02*
X73654762Y40333334D01*
X73702381Y40190477D01*
X73702381Y40095239D01*
X73654762Y39952381D01*
X73559524Y39857143D01*
X73464286Y39809524D01*
X73273810Y39761905D01*
X73130952Y39761905D01*
X72940476Y39809524D01*
X72845238Y39857143D01*
X72750000Y39952381D01*
X72702381Y40095239D01*
X72702381Y40190477D01*
X72750000Y40333334D01*
X72797619Y40380953D01*
X72797619Y40761905D02*
X72750000Y40809524D01*
X72702381Y40904762D01*
X72702381Y41142858D01*
X72750000Y41238096D01*
X72797619Y41285715D01*
X72892857Y41333334D01*
X72988095Y41333334D01*
X73130952Y41285715D01*
X73702381Y40714286D01*
X73702381Y41333334D01*
X73702381Y42285715D02*
X73702381Y41714286D01*
X73702381Y42000000D02*
X72702381Y42000000D01*
X72845238Y41904762D01*
X72940476Y41809524D01*
X72988095Y41714286D01*
X72702381Y42904762D02*
X72702381Y43000001D01*
X72750000Y43095239D01*
X72797619Y43142858D01*
X72892857Y43190477D01*
X73083333Y43238096D01*
X73321429Y43238096D01*
X73511905Y43190477D01*
X73607143Y43142858D01*
X73654762Y43095239D01*
X73702381Y43000001D01*
X73702381Y42904762D01*
X73654762Y42809524D01*
X73607143Y42761905D01*
X73511905Y42714286D01*
X73321429Y42666667D01*
X73083333Y42666667D01*
X72892857Y42714286D01*
X72797619Y42761905D01*
X72750000Y42809524D01*
X72702381Y42904762D01*
X57702381Y52130953D02*
X57702381Y51654762D01*
X56702381Y51654762D01*
X56797619Y52416667D02*
X56750000Y52464286D01*
X56702381Y52559524D01*
X56702381Y52797620D01*
X56750000Y52892858D01*
X56797619Y52940477D01*
X56892857Y52988096D01*
X56988095Y52988096D01*
X57130952Y52940477D01*
X57702381Y52369048D01*
X57702381Y52988096D01*
X56702381Y53607143D02*
X56702381Y53702382D01*
X56750000Y53797620D01*
X56797619Y53845239D01*
X56892857Y53892858D01*
X57083333Y53940477D01*
X57321429Y53940477D01*
X57511905Y53892858D01*
X57607143Y53845239D01*
X57654762Y53797620D01*
X57702381Y53702382D01*
X57702381Y53607143D01*
X57654762Y53511905D01*
X57607143Y53464286D01*
X57511905Y53416667D01*
X57321429Y53369048D01*
X57083333Y53369048D01*
X56892857Y53416667D01*
X56797619Y53464286D01*
X56750000Y53511905D01*
X56702381Y53607143D01*
X57702381Y54892858D02*
X57702381Y54321429D01*
X57702381Y54607143D02*
X56702381Y54607143D01*
X56845238Y54511905D01*
X56940476Y54416667D01*
X56988095Y54321429D01*
X74202381Y25130953D02*
X74202381Y24654762D01*
X73202381Y24654762D01*
X73297619Y25416667D02*
X73250000Y25464286D01*
X73202381Y25559524D01*
X73202381Y25797620D01*
X73250000Y25892858D01*
X73297619Y25940477D01*
X73392857Y25988096D01*
X73488095Y25988096D01*
X73630952Y25940477D01*
X74202381Y25369048D01*
X74202381Y25988096D01*
X73202381Y26607143D02*
X73202381Y26702382D01*
X73250000Y26797620D01*
X73297619Y26845239D01*
X73392857Y26892858D01*
X73583333Y26940477D01*
X73821429Y26940477D01*
X74011905Y26892858D01*
X74107143Y26845239D01*
X74154762Y26797620D01*
X74202381Y26702382D01*
X74202381Y26607143D01*
X74154762Y26511905D01*
X74107143Y26464286D01*
X74011905Y26416667D01*
X73821429Y26369048D01*
X73583333Y26369048D01*
X73392857Y26416667D01*
X73297619Y26464286D01*
X73250000Y26511905D01*
X73202381Y26607143D01*
X73297619Y27321429D02*
X73250000Y27369048D01*
X73202381Y27464286D01*
X73202381Y27702382D01*
X73250000Y27797620D01*
X73297619Y27845239D01*
X73392857Y27892858D01*
X73488095Y27892858D01*
X73630952Y27845239D01*
X74202381Y27273810D01*
X74202381Y27892858D01*
X69611905Y31104762D02*
X69230952Y30838095D01*
X69611905Y30647619D02*
X68811905Y30647619D01*
X68811905Y30952381D01*
X68850000Y31028572D01*
X68888095Y31066667D01*
X68964286Y31104762D01*
X69078571Y31104762D01*
X69154762Y31066667D01*
X69192857Y31028572D01*
X69230952Y30952381D01*
X69230952Y30647619D01*
X68888095Y31409524D02*
X68850000Y31447619D01*
X68811905Y31523810D01*
X68811905Y31714286D01*
X68850000Y31790476D01*
X68888095Y31828572D01*
X68964286Y31866667D01*
X69040476Y31866667D01*
X69154762Y31828572D01*
X69611905Y31371429D01*
X69611905Y31866667D01*
X68811905Y32361905D02*
X68811905Y32438096D01*
X68850000Y32514286D01*
X68888095Y32552381D01*
X68964286Y32590477D01*
X69116667Y32628572D01*
X69307143Y32628572D01*
X69459524Y32590477D01*
X69535714Y32552381D01*
X69573810Y32514286D01*
X69611905Y32438096D01*
X69611905Y32361905D01*
X69573810Y32285715D01*
X69535714Y32247619D01*
X69459524Y32209524D01*
X69307143Y32171429D01*
X69116667Y32171429D01*
X68964286Y32209524D01*
X68888095Y32247619D01*
X68850000Y32285715D01*
X68811905Y32361905D01*
X68811905Y33314286D02*
X68811905Y33161905D01*
X68850000Y33085715D01*
X68888095Y33047620D01*
X69002381Y32971429D01*
X69154762Y32933334D01*
X69459524Y32933334D01*
X69535714Y32971429D01*
X69573810Y33009524D01*
X69611905Y33085715D01*
X69611905Y33238096D01*
X69573810Y33314286D01*
X69535714Y33352382D01*
X69459524Y33390477D01*
X69269048Y33390477D01*
X69192857Y33352382D01*
X69154762Y33314286D01*
X69116667Y33238096D01*
X69116667Y33085715D01*
X69154762Y33009524D01*
X69192857Y32971429D01*
X69269048Y32933334D01*
D19*
X60203167Y42431000D02*
X60922833Y42431000D01*
X61007500Y42473333D01*
X61049833Y42515666D01*
X61092167Y42600333D01*
X61092167Y42769666D01*
X61049833Y42854333D01*
X61007500Y42896666D01*
X60922833Y42939000D01*
X60203167Y42939000D01*
X60287833Y43319999D02*
X60245500Y43362333D01*
X60203167Y43446999D01*
X60203167Y43658666D01*
X60245500Y43743333D01*
X60287833Y43785666D01*
X60372500Y43827999D01*
X60457167Y43827999D01*
X60584167Y43785666D01*
X61092167Y43277666D01*
X61092167Y43827999D01*
X60203167Y44378333D02*
X60203167Y44463000D01*
X60245500Y44547666D01*
X60287833Y44590000D01*
X60372500Y44632333D01*
X60541833Y44674666D01*
X60753500Y44674666D01*
X60922833Y44632333D01*
X61007500Y44590000D01*
X61049833Y44547666D01*
X61092167Y44463000D01*
X61092167Y44378333D01*
X61049833Y44293666D01*
X61007500Y44251333D01*
X60922833Y44209000D01*
X60753500Y44166666D01*
X60541833Y44166666D01*
X60372500Y44209000D01*
X60287833Y44251333D01*
X60245500Y44293666D01*
X60203167Y44378333D01*
X60287833Y45013333D02*
X60245500Y45055667D01*
X60203167Y45140333D01*
X60203167Y45352000D01*
X60245500Y45436667D01*
X60287833Y45479000D01*
X60372500Y45521333D01*
X60457167Y45521333D01*
X60584167Y45479000D01*
X61092167Y44971000D01*
X61092167Y45521333D01*
D13*
X32452381Y53964286D02*
X33166667Y53964286D01*
X33309524Y53916666D01*
X33404762Y53821428D01*
X33452381Y53678571D01*
X33452381Y53583333D01*
X32452381Y54916667D02*
X32452381Y54440476D01*
X32928571Y54392857D01*
X32880952Y54440476D01*
X32833333Y54535714D01*
X32833333Y54773810D01*
X32880952Y54869048D01*
X32928571Y54916667D01*
X33023810Y54964286D01*
X33261905Y54964286D01*
X33357143Y54916667D01*
X33404762Y54869048D01*
X33452381Y54773810D01*
X33452381Y54535714D01*
X33404762Y54440476D01*
X33357143Y54392857D01*
X32452381Y55583333D02*
X32452381Y55678572D01*
X32500000Y55773810D01*
X32547619Y55821429D01*
X32642857Y55869048D01*
X32833333Y55916667D01*
X33071429Y55916667D01*
X33261905Y55869048D01*
X33357143Y55821429D01*
X33404762Y55773810D01*
X33452381Y55678572D01*
X33452381Y55583333D01*
X33404762Y55488095D01*
X33357143Y55440476D01*
X33261905Y55392857D01*
X33071429Y55345238D01*
X32833333Y55345238D01*
X32642857Y55392857D01*
X32547619Y55440476D01*
X32500000Y55488095D01*
X32452381Y55583333D01*
X32547619Y56297619D02*
X32500000Y56345238D01*
X32452381Y56440476D01*
X32452381Y56678572D01*
X32500000Y56773810D01*
X32547619Y56821429D01*
X32642857Y56869048D01*
X32738095Y56869048D01*
X32880952Y56821429D01*
X33452381Y56250000D01*
X33452381Y56869048D01*
X31470953Y44702619D02*
X31137619Y45178810D01*
X30899524Y44702619D02*
X30899524Y45702619D01*
X31280477Y45702619D01*
X31375715Y45655000D01*
X31423334Y45607381D01*
X31470953Y45512143D01*
X31470953Y45369286D01*
X31423334Y45274048D01*
X31375715Y45226429D01*
X31280477Y45178810D01*
X30899524Y45178810D01*
X32375715Y45702619D02*
X31899524Y45702619D01*
X31851905Y45226429D01*
X31899524Y45274048D01*
X31994762Y45321667D01*
X32232858Y45321667D01*
X32328096Y45274048D01*
X32375715Y45226429D01*
X32423334Y45131190D01*
X32423334Y44893095D01*
X32375715Y44797857D01*
X32328096Y44750238D01*
X32232858Y44702619D01*
X31994762Y44702619D01*
X31899524Y44750238D01*
X31851905Y44797857D01*
X33042381Y45702619D02*
X33137620Y45702619D01*
X33232858Y45655000D01*
X33280477Y45607381D01*
X33328096Y45512143D01*
X33375715Y45321667D01*
X33375715Y45083571D01*
X33328096Y44893095D01*
X33280477Y44797857D01*
X33232858Y44750238D01*
X33137620Y44702619D01*
X33042381Y44702619D01*
X32947143Y44750238D01*
X32899524Y44797857D01*
X32851905Y44893095D01*
X32804286Y45083571D01*
X32804286Y45321667D01*
X32851905Y45512143D01*
X32899524Y45607381D01*
X32947143Y45655000D01*
X33042381Y45702619D01*
X33709048Y45702619D02*
X34328096Y45702619D01*
X33994762Y45321667D01*
X34137620Y45321667D01*
X34232858Y45274048D01*
X34280477Y45226429D01*
X34328096Y45131190D01*
X34328096Y44893095D01*
X34280477Y44797857D01*
X34232858Y44750238D01*
X34137620Y44702619D01*
X33851905Y44702619D01*
X33756667Y44750238D01*
X33709048Y44797857D01*
X53662381Y24385953D02*
X53186190Y24052619D01*
X53662381Y23814524D02*
X52662381Y23814524D01*
X52662381Y24195477D01*
X52710000Y24290715D01*
X52757619Y24338334D01*
X52852857Y24385953D01*
X52995714Y24385953D01*
X53090952Y24338334D01*
X53138571Y24290715D01*
X53186190Y24195477D01*
X53186190Y23814524D01*
X52662381Y25290715D02*
X52662381Y24814524D01*
X53138571Y24766905D01*
X53090952Y24814524D01*
X53043333Y24909762D01*
X53043333Y25147858D01*
X53090952Y25243096D01*
X53138571Y25290715D01*
X53233810Y25338334D01*
X53471905Y25338334D01*
X53567143Y25290715D01*
X53614762Y25243096D01*
X53662381Y25147858D01*
X53662381Y24909762D01*
X53614762Y24814524D01*
X53567143Y24766905D01*
X52662381Y25957381D02*
X52662381Y26052620D01*
X52710000Y26147858D01*
X52757619Y26195477D01*
X52852857Y26243096D01*
X53043333Y26290715D01*
X53281429Y26290715D01*
X53471905Y26243096D01*
X53567143Y26195477D01*
X53614762Y26147858D01*
X53662381Y26052620D01*
X53662381Y25957381D01*
X53614762Y25862143D01*
X53567143Y25814524D01*
X53471905Y25766905D01*
X53281429Y25719286D01*
X53043333Y25719286D01*
X52852857Y25766905D01*
X52757619Y25814524D01*
X52710000Y25862143D01*
X52662381Y25957381D01*
X52995714Y27147858D02*
X53662381Y27147858D01*
X52614762Y26909762D02*
X53329048Y26671667D01*
X53329048Y27290715D01*
X49562381Y24385953D02*
X49086190Y24052619D01*
X49562381Y23814524D02*
X48562381Y23814524D01*
X48562381Y24195477D01*
X48610000Y24290715D01*
X48657619Y24338334D01*
X48752857Y24385953D01*
X48895714Y24385953D01*
X48990952Y24338334D01*
X49038571Y24290715D01*
X49086190Y24195477D01*
X49086190Y23814524D01*
X48562381Y25290715D02*
X48562381Y24814524D01*
X49038571Y24766905D01*
X48990952Y24814524D01*
X48943333Y24909762D01*
X48943333Y25147858D01*
X48990952Y25243096D01*
X49038571Y25290715D01*
X49133810Y25338334D01*
X49371905Y25338334D01*
X49467143Y25290715D01*
X49514762Y25243096D01*
X49562381Y25147858D01*
X49562381Y24909762D01*
X49514762Y24814524D01*
X49467143Y24766905D01*
X48562381Y25957381D02*
X48562381Y26052620D01*
X48610000Y26147858D01*
X48657619Y26195477D01*
X48752857Y26243096D01*
X48943333Y26290715D01*
X49181429Y26290715D01*
X49371905Y26243096D01*
X49467143Y26195477D01*
X49514762Y26147858D01*
X49562381Y26052620D01*
X49562381Y25957381D01*
X49514762Y25862143D01*
X49467143Y25814524D01*
X49371905Y25766905D01*
X49181429Y25719286D01*
X48943333Y25719286D01*
X48752857Y25766905D01*
X48657619Y25814524D01*
X48610000Y25862143D01*
X48562381Y25957381D01*
X48562381Y27195477D02*
X48562381Y26719286D01*
X49038571Y26671667D01*
X48990952Y26719286D01*
X48943333Y26814524D01*
X48943333Y27052620D01*
X48990952Y27147858D01*
X49038571Y27195477D01*
X49133810Y27243096D01*
X49371905Y27243096D01*
X49467143Y27195477D01*
X49514762Y27147858D01*
X49562381Y27052620D01*
X49562381Y26814524D01*
X49514762Y26719286D01*
X49467143Y26671667D01*
X51762381Y24385953D02*
X51286190Y24052619D01*
X51762381Y23814524D02*
X50762381Y23814524D01*
X50762381Y24195477D01*
X50810000Y24290715D01*
X50857619Y24338334D01*
X50952857Y24385953D01*
X51095714Y24385953D01*
X51190952Y24338334D01*
X51238571Y24290715D01*
X51286190Y24195477D01*
X51286190Y23814524D01*
X50762381Y25290715D02*
X50762381Y24814524D01*
X51238571Y24766905D01*
X51190952Y24814524D01*
X51143333Y24909762D01*
X51143333Y25147858D01*
X51190952Y25243096D01*
X51238571Y25290715D01*
X51333810Y25338334D01*
X51571905Y25338334D01*
X51667143Y25290715D01*
X51714762Y25243096D01*
X51762381Y25147858D01*
X51762381Y24909762D01*
X51714762Y24814524D01*
X51667143Y24766905D01*
X50762381Y25957381D02*
X50762381Y26052620D01*
X50810000Y26147858D01*
X50857619Y26195477D01*
X50952857Y26243096D01*
X51143333Y26290715D01*
X51381429Y26290715D01*
X51571905Y26243096D01*
X51667143Y26195477D01*
X51714762Y26147858D01*
X51762381Y26052620D01*
X51762381Y25957381D01*
X51714762Y25862143D01*
X51667143Y25814524D01*
X51571905Y25766905D01*
X51381429Y25719286D01*
X51143333Y25719286D01*
X50952857Y25766905D01*
X50857619Y25814524D01*
X50810000Y25862143D01*
X50762381Y25957381D01*
X50762381Y27147858D02*
X50762381Y26957381D01*
X50810000Y26862143D01*
X50857619Y26814524D01*
X51000476Y26719286D01*
X51190952Y26671667D01*
X51571905Y26671667D01*
X51667143Y26719286D01*
X51714762Y26766905D01*
X51762381Y26862143D01*
X51762381Y27052620D01*
X51714762Y27147858D01*
X51667143Y27195477D01*
X51571905Y27243096D01*
X51333810Y27243096D01*
X51238571Y27195477D01*
X51190952Y27147858D01*
X51143333Y27052620D01*
X51143333Y26862143D01*
X51190952Y26766905D01*
X51238571Y26719286D01*
X51333810Y26671667D01*
X35285714Y30797619D02*
X35285714Y29988095D01*
X35333333Y29892857D01*
X35380952Y29845238D01*
X35476190Y29797619D01*
X35666667Y29797619D01*
X35761905Y29845238D01*
X35809524Y29892857D01*
X35857143Y29988095D01*
X35857143Y30797619D01*
X36809524Y30797619D02*
X36333333Y30797619D01*
X36285714Y30321429D01*
X36333333Y30369048D01*
X36428571Y30416667D01*
X36666667Y30416667D01*
X36761905Y30369048D01*
X36809524Y30321429D01*
X36857143Y30226190D01*
X36857143Y29988095D01*
X36809524Y29892857D01*
X36761905Y29845238D01*
X36666667Y29797619D01*
X36428571Y29797619D01*
X36333333Y29845238D01*
X36285714Y29892857D01*
X37476190Y30797619D02*
X37571429Y30797619D01*
X37666667Y30750000D01*
X37714286Y30702381D01*
X37761905Y30607143D01*
X37809524Y30416667D01*
X37809524Y30178571D01*
X37761905Y29988095D01*
X37714286Y29892857D01*
X37666667Y29845238D01*
X37571429Y29797619D01*
X37476190Y29797619D01*
X37380952Y29845238D01*
X37333333Y29892857D01*
X37285714Y29988095D01*
X37238095Y30178571D01*
X37238095Y30416667D01*
X37285714Y30607143D01*
X37333333Y30702381D01*
X37380952Y30750000D01*
X37476190Y30797619D01*
X38761905Y29797619D02*
X38190476Y29797619D01*
X38476190Y29797619D02*
X38476190Y30797619D01*
X38380952Y30654762D01*
X38285714Y30559524D01*
X38190476Y30511905D01*
X40662381Y23719286D02*
X41376667Y23719286D01*
X41519524Y23671666D01*
X41614762Y23576428D01*
X41662381Y23433571D01*
X41662381Y23338333D01*
X41662381Y24195476D02*
X40662381Y24195476D01*
X40662381Y24576429D01*
X40710000Y24671667D01*
X40757619Y24719286D01*
X40852857Y24766905D01*
X40995714Y24766905D01*
X41090952Y24719286D01*
X41138571Y24671667D01*
X41186190Y24576429D01*
X41186190Y24195476D01*
X40662381Y25671667D02*
X40662381Y25195476D01*
X41138571Y25147857D01*
X41090952Y25195476D01*
X41043333Y25290714D01*
X41043333Y25528810D01*
X41090952Y25624048D01*
X41138571Y25671667D01*
X41233810Y25719286D01*
X41471905Y25719286D01*
X41567143Y25671667D01*
X41614762Y25624048D01*
X41662381Y25528810D01*
X41662381Y25290714D01*
X41614762Y25195476D01*
X41567143Y25147857D01*
X40662381Y26338333D02*
X40662381Y26433572D01*
X40710000Y26528810D01*
X40757619Y26576429D01*
X40852857Y26624048D01*
X41043333Y26671667D01*
X41281429Y26671667D01*
X41471905Y26624048D01*
X41567143Y26576429D01*
X41614762Y26528810D01*
X41662381Y26433572D01*
X41662381Y26338333D01*
X41614762Y26243095D01*
X41567143Y26195476D01*
X41471905Y26147857D01*
X41281429Y26100238D01*
X41043333Y26100238D01*
X40852857Y26147857D01*
X40757619Y26195476D01*
X40710000Y26243095D01*
X40662381Y26338333D01*
X41662381Y27624048D02*
X41662381Y27052619D01*
X41662381Y27338333D02*
X40662381Y27338333D01*
X40805238Y27243095D01*
X40900476Y27147857D01*
X40948095Y27052619D01*
X70557619Y12987381D02*
X70510000Y12892143D01*
X70414762Y12796905D01*
X70271905Y12654048D01*
X70224286Y12558809D01*
X70224286Y12463571D01*
X70462381Y12511190D02*
X70414762Y12415952D01*
X70319524Y12320714D01*
X70129048Y12273095D01*
X69795714Y12273095D01*
X69605238Y12320714D01*
X69510000Y12415952D01*
X69462381Y12511190D01*
X69462381Y12701667D01*
X69510000Y12796905D01*
X69605238Y12892143D01*
X69795714Y12939762D01*
X70129048Y12939762D01*
X70319524Y12892143D01*
X70414762Y12796905D01*
X70462381Y12701667D01*
X70462381Y12511190D01*
X69557619Y13320714D02*
X69510000Y13368333D01*
X69462381Y13463571D01*
X69462381Y13701667D01*
X69510000Y13796905D01*
X69557619Y13844524D01*
X69652857Y13892143D01*
X69748095Y13892143D01*
X69890952Y13844524D01*
X70462381Y13273095D01*
X70462381Y13892143D01*
X69462381Y14511190D02*
X69462381Y14606429D01*
X69510000Y14701667D01*
X69557619Y14749286D01*
X69652857Y14796905D01*
X69843333Y14844524D01*
X70081429Y14844524D01*
X70271905Y14796905D01*
X70367143Y14749286D01*
X70414762Y14701667D01*
X70462381Y14606429D01*
X70462381Y14511190D01*
X70414762Y14415952D01*
X70367143Y14368333D01*
X70271905Y14320714D01*
X70081429Y14273095D01*
X69843333Y14273095D01*
X69652857Y14320714D01*
X69557619Y14368333D01*
X69510000Y14415952D01*
X69462381Y14511190D01*
X70462381Y15796905D02*
X70462381Y15225476D01*
X70462381Y15511190D02*
X69462381Y15511190D01*
X69605238Y15415952D01*
X69700476Y15320714D01*
X69748095Y15225476D01*
D19*
X68537262Y23763952D02*
X68537262Y22787262D01*
X68594714Y22672357D01*
X68652167Y22614905D01*
X68767071Y22557452D01*
X68996881Y22557452D01*
X69111786Y22614905D01*
X69169238Y22672357D01*
X69226690Y22787262D01*
X69226690Y23763952D01*
X69743762Y23649048D02*
X69801214Y23706500D01*
X69916119Y23763952D01*
X70203381Y23763952D01*
X70318285Y23706500D01*
X70375738Y23649048D01*
X70433190Y23534143D01*
X70433190Y23419238D01*
X70375738Y23246881D01*
X69686309Y22557452D01*
X70433190Y22557452D01*
X71180071Y23763952D02*
X71294976Y23763952D01*
X71409881Y23706500D01*
X71467333Y23649048D01*
X71524786Y23534143D01*
X71582238Y23304333D01*
X71582238Y23017071D01*
X71524786Y22787262D01*
X71467333Y22672357D01*
X71409881Y22614905D01*
X71294976Y22557452D01*
X71180071Y22557452D01*
X71065167Y22614905D01*
X71007714Y22672357D01*
X70950262Y22787262D01*
X70892810Y23017071D01*
X70892810Y23304333D01*
X70950262Y23534143D01*
X71007714Y23649048D01*
X71065167Y23706500D01*
X71180071Y23763952D01*
X72731286Y22557452D02*
X72041858Y22557452D01*
X72386572Y22557452D02*
X72386572Y23763952D01*
X72271667Y23591595D01*
X72156762Y23476690D01*
X72041858Y23419238D01*
D13*
X-2361428Y2676429D02*
X-2694762Y2676429D01*
X-2694762Y2152619D02*
X-2694762Y3152619D01*
X-2218571Y3152619D01*
X-1837619Y2152619D02*
X-1837619Y3152619D01*
X-1361429Y2152619D02*
X-1361429Y3152619D01*
X-1123334Y3152619D01*
X-980476Y3105000D01*
X-885238Y3009762D01*
X-837619Y2914524D01*
X-790000Y2724048D01*
X-790000Y2581190D01*
X-837619Y2390714D01*
X-885238Y2295476D01*
X-980476Y2200238D01*
X-1123334Y2152619D01*
X-1361429Y2152619D01*
X162381Y2152619D02*
X-409048Y2152619D01*
X-123334Y2152619D02*
X-123334Y3152619D01*
X-218572Y3009762D01*
X-313810Y2914524D01*
X-409048Y2866905D01*
X44202381Y9702381D02*
X44107143Y9750000D01*
X44011905Y9845238D01*
X43869048Y9988095D01*
X43773809Y10035714D01*
X43678571Y10035714D01*
X43726190Y9797619D02*
X43630952Y9845238D01*
X43535714Y9940476D01*
X43488095Y10130952D01*
X43488095Y10464286D01*
X43535714Y10654762D01*
X43630952Y10750000D01*
X43726190Y10797619D01*
X43916667Y10797619D01*
X44011905Y10750000D01*
X44107143Y10654762D01*
X44154762Y10464286D01*
X44154762Y10130952D01*
X44107143Y9940476D01*
X44011905Y9845238D01*
X43916667Y9797619D01*
X43726190Y9797619D01*
X44488095Y10797619D02*
X45107143Y10797619D01*
X44773809Y10416667D01*
X44916667Y10416667D01*
X45011905Y10369048D01*
X45059524Y10321429D01*
X45107143Y10226190D01*
X45107143Y9988095D01*
X45059524Y9892857D01*
X45011905Y9845238D01*
X44916667Y9797619D01*
X44630952Y9797619D01*
X44535714Y9845238D01*
X44488095Y9892857D01*
X45726190Y10797619D02*
X45821429Y10797619D01*
X45916667Y10750000D01*
X45964286Y10702381D01*
X46011905Y10607143D01*
X46059524Y10416667D01*
X46059524Y10178571D01*
X46011905Y9988095D01*
X45964286Y9892857D01*
X45916667Y9845238D01*
X45821429Y9797619D01*
X45726190Y9797619D01*
X45630952Y9845238D01*
X45583333Y9892857D01*
X45535714Y9988095D01*
X45488095Y10178571D01*
X45488095Y10416667D01*
X45535714Y10607143D01*
X45583333Y10702381D01*
X45630952Y10750000D01*
X45726190Y10797619D01*
X47011905Y9797619D02*
X46440476Y9797619D01*
X46726190Y9797619D02*
X46726190Y10797619D01*
X46630952Y10654762D01*
X46535714Y10559524D01*
X46440476Y10511905D01*
X56662381Y34557381D02*
X56567143Y34605000D01*
X56471905Y34700238D01*
X56329048Y34843095D01*
X56233809Y34890714D01*
X56138571Y34890714D01*
X56186190Y34652619D02*
X56090952Y34700238D01*
X55995714Y34795476D01*
X55948095Y34985952D01*
X55948095Y35319286D01*
X55995714Y35509762D01*
X56090952Y35605000D01*
X56186190Y35652619D01*
X56376667Y35652619D01*
X56471905Y35605000D01*
X56567143Y35509762D01*
X56614762Y35319286D01*
X56614762Y34985952D01*
X56567143Y34795476D01*
X56471905Y34700238D01*
X56376667Y34652619D01*
X56186190Y34652619D01*
X57519524Y35652619D02*
X57043333Y35652619D01*
X56995714Y35176429D01*
X57043333Y35224048D01*
X57138571Y35271667D01*
X57376667Y35271667D01*
X57471905Y35224048D01*
X57519524Y35176429D01*
X57567143Y35081190D01*
X57567143Y34843095D01*
X57519524Y34747857D01*
X57471905Y34700238D01*
X57376667Y34652619D01*
X57138571Y34652619D01*
X57043333Y34700238D01*
X56995714Y34747857D01*
X58186190Y35652619D02*
X58281429Y35652619D01*
X58376667Y35605000D01*
X58424286Y35557381D01*
X58471905Y35462143D01*
X58519524Y35271667D01*
X58519524Y35033571D01*
X58471905Y34843095D01*
X58424286Y34747857D01*
X58376667Y34700238D01*
X58281429Y34652619D01*
X58186190Y34652619D01*
X58090952Y34700238D01*
X58043333Y34747857D01*
X57995714Y34843095D01*
X57948095Y35033571D01*
X57948095Y35271667D01*
X57995714Y35462143D01*
X58043333Y35557381D01*
X58090952Y35605000D01*
X58186190Y35652619D01*
X59471905Y34652619D02*
X58900476Y34652619D01*
X59186190Y34652619D02*
X59186190Y35652619D01*
X59090952Y35509762D01*
X58995714Y35414524D01*
X58900476Y35366905D01*
X3202381Y36702381D02*
X3107143Y36750000D01*
X3011905Y36845238D01*
X2869048Y36988095D01*
X2773809Y37035714D01*
X2678571Y37035714D01*
X2726190Y36797619D02*
X2630952Y36845238D01*
X2535714Y36940476D01*
X2488095Y37130952D01*
X2488095Y37464286D01*
X2535714Y37654762D01*
X2630952Y37750000D01*
X2726190Y37797619D01*
X2916667Y37797619D01*
X3011905Y37750000D01*
X3107143Y37654762D01*
X3154762Y37464286D01*
X3154762Y37130952D01*
X3107143Y36940476D01*
X3011905Y36845238D01*
X2916667Y36797619D01*
X2726190Y36797619D01*
X3488095Y37797619D02*
X4154762Y37797619D01*
X3726190Y36797619D01*
X4726190Y37797619D02*
X4821429Y37797619D01*
X4916667Y37750000D01*
X4964286Y37702381D01*
X5011905Y37607143D01*
X5059524Y37416667D01*
X5059524Y37178571D01*
X5011905Y36988095D01*
X4964286Y36892857D01*
X4916667Y36845238D01*
X4821429Y36797619D01*
X4726190Y36797619D01*
X4630952Y36845238D01*
X4583333Y36892857D01*
X4535714Y36988095D01*
X4488095Y37178571D01*
X4488095Y37416667D01*
X4535714Y37607143D01*
X4583333Y37702381D01*
X4630952Y37750000D01*
X4726190Y37797619D01*
X6011905Y36797619D02*
X5440476Y36797619D01*
X5726190Y36797619D02*
X5726190Y37797619D01*
X5630952Y37654762D01*
X5535714Y37559524D01*
X5440476Y37511905D01*
X76147143Y19685953D02*
X76194762Y19638334D01*
X76242381Y19495477D01*
X76242381Y19400239D01*
X76194762Y19257381D01*
X76099524Y19162143D01*
X76004286Y19114524D01*
X75813810Y19066905D01*
X75670952Y19066905D01*
X75480476Y19114524D01*
X75385238Y19162143D01*
X75290000Y19257381D01*
X75242381Y19400239D01*
X75242381Y19495477D01*
X75290000Y19638334D01*
X75337619Y19685953D01*
X75337619Y20066905D02*
X75290000Y20114524D01*
X75242381Y20209762D01*
X75242381Y20447858D01*
X75290000Y20543096D01*
X75337619Y20590715D01*
X75432857Y20638334D01*
X75528095Y20638334D01*
X75670952Y20590715D01*
X76242381Y20019286D01*
X76242381Y20638334D01*
X75242381Y21257381D02*
X75242381Y21352620D01*
X75290000Y21447858D01*
X75337619Y21495477D01*
X75432857Y21543096D01*
X75623333Y21590715D01*
X75861429Y21590715D01*
X76051905Y21543096D01*
X76147143Y21495477D01*
X76194762Y21447858D01*
X76242381Y21352620D01*
X76242381Y21257381D01*
X76194762Y21162143D01*
X76147143Y21114524D01*
X76051905Y21066905D01*
X75861429Y21019286D01*
X75623333Y21019286D01*
X75432857Y21066905D01*
X75337619Y21114524D01*
X75290000Y21162143D01*
X75242381Y21257381D01*
X76242381Y22543096D02*
X76242381Y21971667D01*
X76242381Y22257381D02*
X75242381Y22257381D01*
X75385238Y22162143D01*
X75480476Y22066905D01*
X75528095Y21971667D01*
X65817143Y36335953D02*
X65864762Y36288334D01*
X65912381Y36145477D01*
X65912381Y36050239D01*
X65864762Y35907381D01*
X65769524Y35812143D01*
X65674286Y35764524D01*
X65483810Y35716905D01*
X65340952Y35716905D01*
X65150476Y35764524D01*
X65055238Y35812143D01*
X64960000Y35907381D01*
X64912381Y36050239D01*
X64912381Y36145477D01*
X64960000Y36288334D01*
X65007619Y36335953D01*
X65007619Y36716905D02*
X64960000Y36764524D01*
X64912381Y36859762D01*
X64912381Y37097858D01*
X64960000Y37193096D01*
X65007619Y37240715D01*
X65102857Y37288334D01*
X65198095Y37288334D01*
X65340952Y37240715D01*
X65912381Y36669286D01*
X65912381Y37288334D01*
X64912381Y37907381D02*
X64912381Y38002620D01*
X64960000Y38097858D01*
X65007619Y38145477D01*
X65102857Y38193096D01*
X65293333Y38240715D01*
X65531429Y38240715D01*
X65721905Y38193096D01*
X65817143Y38145477D01*
X65864762Y38097858D01*
X65912381Y38002620D01*
X65912381Y37907381D01*
X65864762Y37812143D01*
X65817143Y37764524D01*
X65721905Y37716905D01*
X65531429Y37669286D01*
X65293333Y37669286D01*
X65102857Y37716905D01*
X65007619Y37764524D01*
X64960000Y37812143D01*
X64912381Y37907381D01*
X64912381Y38574048D02*
X64912381Y39193096D01*
X65293333Y38859762D01*
X65293333Y39002620D01*
X65340952Y39097858D01*
X65388571Y39145477D01*
X65483810Y39193096D01*
X65721905Y39193096D01*
X65817143Y39145477D01*
X65864762Y39097858D01*
X65912381Y39002620D01*
X65912381Y38716905D01*
X65864762Y38621667D01*
X65817143Y38574048D01*
X65067143Y19335953D02*
X65114762Y19288334D01*
X65162381Y19145477D01*
X65162381Y19050239D01*
X65114762Y18907381D01*
X65019524Y18812143D01*
X64924286Y18764524D01*
X64733810Y18716905D01*
X64590952Y18716905D01*
X64400476Y18764524D01*
X64305238Y18812143D01*
X64210000Y18907381D01*
X64162381Y19050239D01*
X64162381Y19145477D01*
X64210000Y19288334D01*
X64257619Y19335953D01*
X64257619Y19716905D02*
X64210000Y19764524D01*
X64162381Y19859762D01*
X64162381Y20097858D01*
X64210000Y20193096D01*
X64257619Y20240715D01*
X64352857Y20288334D01*
X64448095Y20288334D01*
X64590952Y20240715D01*
X65162381Y19669286D01*
X65162381Y20288334D01*
X64162381Y20907381D02*
X64162381Y21002620D01*
X64210000Y21097858D01*
X64257619Y21145477D01*
X64352857Y21193096D01*
X64543333Y21240715D01*
X64781429Y21240715D01*
X64971905Y21193096D01*
X65067143Y21145477D01*
X65114762Y21097858D01*
X65162381Y21002620D01*
X65162381Y20907381D01*
X65114762Y20812143D01*
X65067143Y20764524D01*
X64971905Y20716905D01*
X64781429Y20669286D01*
X64543333Y20669286D01*
X64352857Y20716905D01*
X64257619Y20764524D01*
X64210000Y20812143D01*
X64162381Y20907381D01*
X64162381Y22145477D02*
X64162381Y21669286D01*
X64638571Y21621667D01*
X64590952Y21669286D01*
X64543333Y21764524D01*
X64543333Y22002620D01*
X64590952Y22097858D01*
X64638571Y22145477D01*
X64733810Y22193096D01*
X64971905Y22193096D01*
X65067143Y22145477D01*
X65114762Y22097858D01*
X65162381Y22002620D01*
X65162381Y21764524D01*
X65114762Y21669286D01*
X65067143Y21621667D01*
X56817143Y36880953D02*
X56864762Y36833334D01*
X56912381Y36690477D01*
X56912381Y36595239D01*
X56864762Y36452381D01*
X56769524Y36357143D01*
X56674286Y36309524D01*
X56483810Y36261905D01*
X56340952Y36261905D01*
X56150476Y36309524D01*
X56055238Y36357143D01*
X55960000Y36452381D01*
X55912381Y36595239D01*
X55912381Y36690477D01*
X55960000Y36833334D01*
X56007619Y36880953D01*
X56007619Y37261905D02*
X55960000Y37309524D01*
X55912381Y37404762D01*
X55912381Y37642858D01*
X55960000Y37738096D01*
X56007619Y37785715D01*
X56102857Y37833334D01*
X56198095Y37833334D01*
X56340952Y37785715D01*
X56912381Y37214286D01*
X56912381Y37833334D01*
X55912381Y38452381D02*
X55912381Y38547620D01*
X55960000Y38642858D01*
X56007619Y38690477D01*
X56102857Y38738096D01*
X56293333Y38785715D01*
X56531429Y38785715D01*
X56721905Y38738096D01*
X56817143Y38690477D01*
X56864762Y38642858D01*
X56912381Y38547620D01*
X56912381Y38452381D01*
X56864762Y38357143D01*
X56817143Y38309524D01*
X56721905Y38261905D01*
X56531429Y38214286D01*
X56293333Y38214286D01*
X56102857Y38261905D01*
X56007619Y38309524D01*
X55960000Y38357143D01*
X55912381Y38452381D01*
X55912381Y39642858D02*
X55912381Y39452381D01*
X55960000Y39357143D01*
X56007619Y39309524D01*
X56150476Y39214286D01*
X56340952Y39166667D01*
X56721905Y39166667D01*
X56817143Y39214286D01*
X56864762Y39261905D01*
X56912381Y39357143D01*
X56912381Y39547620D01*
X56864762Y39642858D01*
X56817143Y39690477D01*
X56721905Y39738096D01*
X56483810Y39738096D01*
X56388571Y39690477D01*
X56340952Y39642858D01*
X56293333Y39547620D01*
X56293333Y39357143D01*
X56340952Y39261905D01*
X56388571Y39214286D01*
X56483810Y39166667D01*
X58317143Y36880953D02*
X58364762Y36833334D01*
X58412381Y36690477D01*
X58412381Y36595239D01*
X58364762Y36452381D01*
X58269524Y36357143D01*
X58174286Y36309524D01*
X57983810Y36261905D01*
X57840952Y36261905D01*
X57650476Y36309524D01*
X57555238Y36357143D01*
X57460000Y36452381D01*
X57412381Y36595239D01*
X57412381Y36690477D01*
X57460000Y36833334D01*
X57507619Y36880953D01*
X57507619Y37261905D02*
X57460000Y37309524D01*
X57412381Y37404762D01*
X57412381Y37642858D01*
X57460000Y37738096D01*
X57507619Y37785715D01*
X57602857Y37833334D01*
X57698095Y37833334D01*
X57840952Y37785715D01*
X58412381Y37214286D01*
X58412381Y37833334D01*
X57412381Y38452381D02*
X57412381Y38547620D01*
X57460000Y38642858D01*
X57507619Y38690477D01*
X57602857Y38738096D01*
X57793333Y38785715D01*
X58031429Y38785715D01*
X58221905Y38738096D01*
X58317143Y38690477D01*
X58364762Y38642858D01*
X58412381Y38547620D01*
X58412381Y38452381D01*
X58364762Y38357143D01*
X58317143Y38309524D01*
X58221905Y38261905D01*
X58031429Y38214286D01*
X57793333Y38214286D01*
X57602857Y38261905D01*
X57507619Y38309524D01*
X57460000Y38357143D01*
X57412381Y38452381D01*
X57412381Y39119048D02*
X57412381Y39785715D01*
X58412381Y39357143D01*
X54380953Y9647857D02*
X54333334Y9600238D01*
X54190477Y9552619D01*
X54095239Y9552619D01*
X53952381Y9600238D01*
X53857143Y9695476D01*
X53809524Y9790714D01*
X53761905Y9981190D01*
X53761905Y10124048D01*
X53809524Y10314524D01*
X53857143Y10409762D01*
X53952381Y10505000D01*
X54095239Y10552619D01*
X54190477Y10552619D01*
X54333334Y10505000D01*
X54380953Y10457381D01*
X54714286Y10552619D02*
X55333334Y10552619D01*
X55000000Y10171667D01*
X55142858Y10171667D01*
X55238096Y10124048D01*
X55285715Y10076429D01*
X55333334Y9981190D01*
X55333334Y9743095D01*
X55285715Y9647857D01*
X55238096Y9600238D01*
X55142858Y9552619D01*
X54857143Y9552619D01*
X54761905Y9600238D01*
X54714286Y9647857D01*
X55952381Y10552619D02*
X56047620Y10552619D01*
X56142858Y10505000D01*
X56190477Y10457381D01*
X56238096Y10362143D01*
X56285715Y10171667D01*
X56285715Y9933571D01*
X56238096Y9743095D01*
X56190477Y9647857D01*
X56142858Y9600238D01*
X56047620Y9552619D01*
X55952381Y9552619D01*
X55857143Y9600238D01*
X55809524Y9647857D01*
X55761905Y9743095D01*
X55714286Y9933571D01*
X55714286Y10171667D01*
X55761905Y10362143D01*
X55809524Y10457381D01*
X55857143Y10505000D01*
X55952381Y10552619D01*
X57142858Y10219286D02*
X57142858Y9552619D01*
X56904762Y10600238D02*
X56666667Y9885952D01*
X57285715Y9885952D01*
X32367143Y6130953D02*
X32414762Y6083334D01*
X32462381Y5940477D01*
X32462381Y5845239D01*
X32414762Y5702381D01*
X32319524Y5607143D01*
X32224286Y5559524D01*
X32033810Y5511905D01*
X31890952Y5511905D01*
X31700476Y5559524D01*
X31605238Y5607143D01*
X31510000Y5702381D01*
X31462381Y5845239D01*
X31462381Y5940477D01*
X31510000Y6083334D01*
X31557619Y6130953D01*
X31462381Y6464286D02*
X31462381Y7083334D01*
X31843333Y6750000D01*
X31843333Y6892858D01*
X31890952Y6988096D01*
X31938571Y7035715D01*
X32033810Y7083334D01*
X32271905Y7083334D01*
X32367143Y7035715D01*
X32414762Y6988096D01*
X32462381Y6892858D01*
X32462381Y6607143D01*
X32414762Y6511905D01*
X32367143Y6464286D01*
X31462381Y7702381D02*
X31462381Y7797620D01*
X31510000Y7892858D01*
X31557619Y7940477D01*
X31652857Y7988096D01*
X31843333Y8035715D01*
X32081429Y8035715D01*
X32271905Y7988096D01*
X32367143Y7940477D01*
X32414762Y7892858D01*
X32462381Y7797620D01*
X32462381Y7702381D01*
X32414762Y7607143D01*
X32367143Y7559524D01*
X32271905Y7511905D01*
X32081429Y7464286D01*
X31843333Y7464286D01*
X31652857Y7511905D01*
X31557619Y7559524D01*
X31510000Y7607143D01*
X31462381Y7702381D01*
X31462381Y8892858D02*
X31462381Y8702381D01*
X31510000Y8607143D01*
X31557619Y8559524D01*
X31700476Y8464286D01*
X31890952Y8416667D01*
X32271905Y8416667D01*
X32367143Y8464286D01*
X32414762Y8511905D01*
X32462381Y8607143D01*
X32462381Y8797620D01*
X32414762Y8892858D01*
X32367143Y8940477D01*
X32271905Y8988096D01*
X32033810Y8988096D01*
X31938571Y8940477D01*
X31890952Y8892858D01*
X31843333Y8797620D01*
X31843333Y8607143D01*
X31890952Y8511905D01*
X31938571Y8464286D01*
X32033810Y8416667D01*
X22107143Y5380953D02*
X22154762Y5333334D01*
X22202381Y5190477D01*
X22202381Y5095239D01*
X22154762Y4952381D01*
X22059524Y4857143D01*
X21964286Y4809524D01*
X21773810Y4761905D01*
X21630952Y4761905D01*
X21440476Y4809524D01*
X21345238Y4857143D01*
X21250000Y4952381D01*
X21202381Y5095239D01*
X21202381Y5190477D01*
X21250000Y5333334D01*
X21297619Y5380953D01*
X21202381Y6238096D02*
X21202381Y6047619D01*
X21250000Y5952381D01*
X21297619Y5904762D01*
X21440476Y5809524D01*
X21630952Y5761905D01*
X22011905Y5761905D01*
X22107143Y5809524D01*
X22154762Y5857143D01*
X22202381Y5952381D01*
X22202381Y6142858D01*
X22154762Y6238096D01*
X22107143Y6285715D01*
X22011905Y6333334D01*
X21773810Y6333334D01*
X21678571Y6285715D01*
X21630952Y6238096D01*
X21583333Y6142858D01*
X21583333Y5952381D01*
X21630952Y5857143D01*
X21678571Y5809524D01*
X21773810Y5761905D01*
X22202381Y7285715D02*
X22202381Y6714286D01*
X22202381Y7000000D02*
X21202381Y7000000D01*
X21345238Y6904762D01*
X21440476Y6809524D01*
X21488095Y6714286D01*
X21202381Y7904762D02*
X21202381Y8000001D01*
X21250000Y8095239D01*
X21297619Y8142858D01*
X21392857Y8190477D01*
X21583333Y8238096D01*
X21821429Y8238096D01*
X22011905Y8190477D01*
X22107143Y8142858D01*
X22154762Y8095239D01*
X22202381Y8000001D01*
X22202381Y7904762D01*
X22154762Y7809524D01*
X22107143Y7761905D01*
X22011905Y7714286D01*
X21821429Y7666667D01*
X21583333Y7666667D01*
X21392857Y7714286D01*
X21297619Y7761905D01*
X21250000Y7809524D01*
X21202381Y7904762D01*
X41290953Y19252619D02*
X40957619Y19728810D01*
X40719524Y19252619D02*
X40719524Y20252619D01*
X41100477Y20252619D01*
X41195715Y20205000D01*
X41243334Y20157381D01*
X41290953Y20062143D01*
X41290953Y19919286D01*
X41243334Y19824048D01*
X41195715Y19776429D01*
X41100477Y19728810D01*
X40719524Y19728810D01*
X41671905Y20157381D02*
X41719524Y20205000D01*
X41814762Y20252619D01*
X42052858Y20252619D01*
X42148096Y20205000D01*
X42195715Y20157381D01*
X42243334Y20062143D01*
X42243334Y19966905D01*
X42195715Y19824048D01*
X41624286Y19252619D01*
X42243334Y19252619D01*
X42862381Y20252619D02*
X42957620Y20252619D01*
X43052858Y20205000D01*
X43100477Y20157381D01*
X43148096Y20062143D01*
X43195715Y19871667D01*
X43195715Y19633571D01*
X43148096Y19443095D01*
X43100477Y19347857D01*
X43052858Y19300238D01*
X42957620Y19252619D01*
X42862381Y19252619D01*
X42767143Y19300238D01*
X42719524Y19347857D01*
X42671905Y19443095D01*
X42624286Y19633571D01*
X42624286Y19871667D01*
X42671905Y20062143D01*
X42719524Y20157381D01*
X42767143Y20205000D01*
X42862381Y20252619D01*
X43529048Y20252619D02*
X44195715Y20252619D01*
X43767143Y19252619D01*
X50702381Y6480953D02*
X50226190Y6147619D01*
X50702381Y5909524D02*
X49702381Y5909524D01*
X49702381Y6290477D01*
X49750000Y6385715D01*
X49797619Y6433334D01*
X49892857Y6480953D01*
X50035714Y6480953D01*
X50130952Y6433334D01*
X50178571Y6385715D01*
X50226190Y6290477D01*
X50226190Y5909524D01*
X49702381Y6814286D02*
X49702381Y7433334D01*
X50083333Y7100000D01*
X50083333Y7242858D01*
X50130952Y7338096D01*
X50178571Y7385715D01*
X50273810Y7433334D01*
X50511905Y7433334D01*
X50607143Y7385715D01*
X50654762Y7338096D01*
X50702381Y7242858D01*
X50702381Y6957143D01*
X50654762Y6861905D01*
X50607143Y6814286D01*
X49702381Y8052381D02*
X49702381Y8147620D01*
X49750000Y8242858D01*
X49797619Y8290477D01*
X49892857Y8338096D01*
X50083333Y8385715D01*
X50321429Y8385715D01*
X50511905Y8338096D01*
X50607143Y8290477D01*
X50654762Y8242858D01*
X50702381Y8147620D01*
X50702381Y8052381D01*
X50654762Y7957143D01*
X50607143Y7909524D01*
X50511905Y7861905D01*
X50321429Y7814286D01*
X50083333Y7814286D01*
X49892857Y7861905D01*
X49797619Y7909524D01*
X49750000Y7957143D01*
X49702381Y8052381D01*
X49797619Y8766667D02*
X49750000Y8814286D01*
X49702381Y8909524D01*
X49702381Y9147620D01*
X49750000Y9242858D01*
X49797619Y9290477D01*
X49892857Y9338096D01*
X49988095Y9338096D01*
X50130952Y9290477D01*
X50702381Y8719048D01*
X50702381Y9338096D01*
X56590953Y26047619D02*
X56257619Y26523810D01*
X56019524Y26047619D02*
X56019524Y27047619D01*
X56400477Y27047619D01*
X56495715Y27000000D01*
X56543334Y26952381D01*
X56590953Y26857143D01*
X56590953Y26714286D01*
X56543334Y26619048D01*
X56495715Y26571429D01*
X56400477Y26523810D01*
X56019524Y26523810D01*
X57495715Y27047619D02*
X57019524Y27047619D01*
X56971905Y26571429D01*
X57019524Y26619048D01*
X57114762Y26666667D01*
X57352858Y26666667D01*
X57448096Y26619048D01*
X57495715Y26571429D01*
X57543334Y26476190D01*
X57543334Y26238095D01*
X57495715Y26142857D01*
X57448096Y26095238D01*
X57352858Y26047619D01*
X57114762Y26047619D01*
X57019524Y26095238D01*
X56971905Y26142857D01*
X58162381Y27047619D02*
X58257620Y27047619D01*
X58352858Y27000000D01*
X58400477Y26952381D01*
X58448096Y26857143D01*
X58495715Y26666667D01*
X58495715Y26428571D01*
X58448096Y26238095D01*
X58400477Y26142857D01*
X58352858Y26095238D01*
X58257620Y26047619D01*
X58162381Y26047619D01*
X58067143Y26095238D01*
X58019524Y26142857D01*
X57971905Y26238095D01*
X57924286Y26428571D01*
X57924286Y26666667D01*
X57971905Y26857143D01*
X58019524Y26952381D01*
X58067143Y27000000D01*
X58162381Y27047619D01*
X58829048Y27047619D02*
X59495715Y27047619D01*
X59067143Y26047619D01*
X30202381Y-1035714D02*
X30916667Y-1035714D01*
X31059524Y-1083334D01*
X31154762Y-1178572D01*
X31202381Y-1321429D01*
X31202381Y-1416667D01*
X30202381Y-654762D02*
X30202381Y-35714D01*
X30583333Y-369048D01*
X30583333Y-226190D01*
X30630952Y-130952D01*
X30678571Y-83333D01*
X30773810Y-35714D01*
X31011905Y-35714D01*
X31107143Y-83333D01*
X31154762Y-130952D01*
X31202381Y-226190D01*
X31202381Y-511905D01*
X31154762Y-607143D01*
X31107143Y-654762D01*
X30202381Y583333D02*
X30202381Y678572D01*
X30250000Y773810D01*
X30297619Y821429D01*
X30392857Y869048D01*
X30583333Y916667D01*
X30821429Y916667D01*
X31011905Y869048D01*
X31107143Y821429D01*
X31154762Y773810D01*
X31202381Y678572D01*
X31202381Y583333D01*
X31154762Y488095D01*
X31107143Y440476D01*
X31011905Y392857D01*
X30821429Y345238D01*
X30583333Y345238D01*
X30392857Y392857D01*
X30297619Y440476D01*
X30250000Y488095D01*
X30202381Y583333D01*
X31202381Y1869048D02*
X31202381Y1297619D01*
X31202381Y1583333D02*
X30202381Y1583333D01*
X30345238Y1488095D01*
X30440476Y1392857D01*
X30488095Y1297619D01*
X5273809Y56047619D02*
X5845238Y56047619D01*
X5559523Y55047619D02*
X5559523Y56047619D01*
X6178571Y55047619D02*
X6178571Y56047619D01*
X6559524Y56047619D01*
X6654762Y56000000D01*
X6702381Y55952381D01*
X6750000Y55857143D01*
X6750000Y55714286D01*
X6702381Y55619048D01*
X6654762Y55571429D01*
X6559524Y55523810D01*
X6178571Y55523810D01*
X6940476Y54952381D02*
X7702381Y54952381D01*
X8511905Y55047619D02*
X8178571Y55523810D01*
X7940476Y55047619D02*
X7940476Y56047619D01*
X8321429Y56047619D01*
X8416667Y56000000D01*
X8464286Y55952381D01*
X8511905Y55857143D01*
X8511905Y55714286D01*
X8464286Y55619048D01*
X8416667Y55571429D01*
X8321429Y55523810D01*
X7940476Y55523810D01*
X8797619Y56047619D02*
X9369048Y56047619D01*
X9083333Y55047619D02*
X9083333Y56047619D01*
X10273810Y55142857D02*
X10226191Y55095238D01*
X10083334Y55047619D01*
X9988096Y55047619D01*
X9845238Y55095238D01*
X9750000Y55190476D01*
X9702381Y55285714D01*
X9654762Y55476190D01*
X9654762Y55619048D01*
X9702381Y55809524D01*
X9750000Y55904762D01*
X9845238Y56000000D01*
X9988096Y56047619D01*
X10083334Y56047619D01*
X10226191Y56000000D01*
X10273810Y55952381D01*
X10607143Y56047619D02*
X11226191Y56047619D01*
X10892857Y55666667D01*
X11035715Y55666667D01*
X11130953Y55619048D01*
X11178572Y55571429D01*
X11226191Y55476190D01*
X11226191Y55238095D01*
X11178572Y55142857D01*
X11130953Y55095238D01*
X11035715Y55047619D01*
X10750000Y55047619D01*
X10654762Y55095238D01*
X10607143Y55142857D01*
X11845238Y56047619D02*
X11940477Y56047619D01*
X12035715Y56000000D01*
X12083334Y55952381D01*
X12130953Y55857143D01*
X12178572Y55666667D01*
X12178572Y55428571D01*
X12130953Y55238095D01*
X12083334Y55142857D01*
X12035715Y55095238D01*
X11940477Y55047619D01*
X11845238Y55047619D01*
X11750000Y55095238D01*
X11702381Y55142857D01*
X11654762Y55238095D01*
X11607143Y55428571D01*
X11607143Y55666667D01*
X11654762Y55857143D01*
X11702381Y55952381D01*
X11750000Y56000000D01*
X11845238Y56047619D01*
X13130953Y55047619D02*
X12559524Y55047619D01*
X12845238Y55047619D02*
X12845238Y56047619D01*
X12750000Y55904762D01*
X12654762Y55809524D01*
X12559524Y55761905D01*
X44130953Y2547619D02*
X43797619Y3023810D01*
X43559524Y2547619D02*
X43559524Y3547619D01*
X43940477Y3547619D01*
X44035715Y3500000D01*
X44083334Y3452381D01*
X44130953Y3357143D01*
X44130953Y3214286D01*
X44083334Y3119048D01*
X44035715Y3071429D01*
X43940477Y3023810D01*
X43559524Y3023810D01*
X44464286Y3547619D02*
X45083334Y3547619D01*
X44750000Y3166667D01*
X44892858Y3166667D01*
X44988096Y3119048D01*
X45035715Y3071429D01*
X45083334Y2976190D01*
X45083334Y2738095D01*
X45035715Y2642857D01*
X44988096Y2595238D01*
X44892858Y2547619D01*
X44607143Y2547619D01*
X44511905Y2595238D01*
X44464286Y2642857D01*
X45702381Y3547619D02*
X45797620Y3547619D01*
X45892858Y3500000D01*
X45940477Y3452381D01*
X45988096Y3357143D01*
X46035715Y3166667D01*
X46035715Y2928571D01*
X45988096Y2738095D01*
X45940477Y2642857D01*
X45892858Y2595238D01*
X45797620Y2547619D01*
X45702381Y2547619D01*
X45607143Y2595238D01*
X45559524Y2642857D01*
X45511905Y2738095D01*
X45464286Y2928571D01*
X45464286Y3166667D01*
X45511905Y3357143D01*
X45559524Y3452381D01*
X45607143Y3500000D01*
X45702381Y3547619D01*
X46369048Y3547619D02*
X46988096Y3547619D01*
X46654762Y3166667D01*
X46797620Y3166667D01*
X46892858Y3119048D01*
X46940477Y3071429D01*
X46988096Y2976190D01*
X46988096Y2738095D01*
X46940477Y2642857D01*
X46892858Y2595238D01*
X46797620Y2547619D01*
X46511905Y2547619D01*
X46416667Y2595238D01*
X46369048Y2642857D01*
X44130953Y3797619D02*
X43797619Y4273810D01*
X43559524Y3797619D02*
X43559524Y4797619D01*
X43940477Y4797619D01*
X44035715Y4750000D01*
X44083334Y4702381D01*
X44130953Y4607143D01*
X44130953Y4464286D01*
X44083334Y4369048D01*
X44035715Y4321429D01*
X43940477Y4273810D01*
X43559524Y4273810D01*
X44464286Y4797619D02*
X45083334Y4797619D01*
X44750000Y4416667D01*
X44892858Y4416667D01*
X44988096Y4369048D01*
X45035715Y4321429D01*
X45083334Y4226190D01*
X45083334Y3988095D01*
X45035715Y3892857D01*
X44988096Y3845238D01*
X44892858Y3797619D01*
X44607143Y3797619D01*
X44511905Y3845238D01*
X44464286Y3892857D01*
X45702381Y4797619D02*
X45797620Y4797619D01*
X45892858Y4750000D01*
X45940477Y4702381D01*
X45988096Y4607143D01*
X46035715Y4416667D01*
X46035715Y4178571D01*
X45988096Y3988095D01*
X45940477Y3892857D01*
X45892858Y3845238D01*
X45797620Y3797619D01*
X45702381Y3797619D01*
X45607143Y3845238D01*
X45559524Y3892857D01*
X45511905Y3988095D01*
X45464286Y4178571D01*
X45464286Y4416667D01*
X45511905Y4607143D01*
X45559524Y4702381D01*
X45607143Y4750000D01*
X45702381Y4797619D01*
X46892858Y4464286D02*
X46892858Y3797619D01*
X46654762Y4845238D02*
X46416667Y4130952D01*
X47035715Y4130952D01*
X28607143Y130953D02*
X28654762Y83334D01*
X28702381Y-59523D01*
X28702381Y-154761D01*
X28654762Y-297619D01*
X28559524Y-392857D01*
X28464286Y-440476D01*
X28273810Y-488095D01*
X28130952Y-488095D01*
X27940476Y-440476D01*
X27845238Y-392857D01*
X27750000Y-297619D01*
X27702381Y-154761D01*
X27702381Y-59523D01*
X27750000Y83334D01*
X27797619Y130953D01*
X27797619Y511905D02*
X27750000Y559524D01*
X27702381Y654762D01*
X27702381Y892858D01*
X27750000Y988096D01*
X27797619Y1035715D01*
X27892857Y1083334D01*
X27988095Y1083334D01*
X28130952Y1035715D01*
X28702381Y464286D01*
X28702381Y1083334D01*
X27702381Y1702381D02*
X27702381Y1797620D01*
X27750000Y1892858D01*
X27797619Y1940477D01*
X27892857Y1988096D01*
X28083333Y2035715D01*
X28321429Y2035715D01*
X28511905Y1988096D01*
X28607143Y1940477D01*
X28654762Y1892858D01*
X28702381Y1797620D01*
X28702381Y1702381D01*
X28654762Y1607143D01*
X28607143Y1559524D01*
X28511905Y1511905D01*
X28321429Y1464286D01*
X28083333Y1464286D01*
X27892857Y1511905D01*
X27797619Y1559524D01*
X27750000Y1607143D01*
X27702381Y1702381D01*
X27797619Y2416667D02*
X27750000Y2464286D01*
X27702381Y2559524D01*
X27702381Y2797620D01*
X27750000Y2892858D01*
X27797619Y2940477D01*
X27892857Y2988096D01*
X27988095Y2988096D01*
X28130952Y2940477D01*
X28702381Y2369048D01*
X28702381Y2988096D01*
X22357143Y130953D02*
X22404762Y83334D01*
X22452381Y-59523D01*
X22452381Y-154761D01*
X22404762Y-297619D01*
X22309524Y-392857D01*
X22214286Y-440476D01*
X22023810Y-488095D01*
X21880952Y-488095D01*
X21690476Y-440476D01*
X21595238Y-392857D01*
X21500000Y-297619D01*
X21452381Y-154761D01*
X21452381Y-59523D01*
X21500000Y83334D01*
X21547619Y130953D01*
X21547619Y511905D02*
X21500000Y559524D01*
X21452381Y654762D01*
X21452381Y892858D01*
X21500000Y988096D01*
X21547619Y1035715D01*
X21642857Y1083334D01*
X21738095Y1083334D01*
X21880952Y1035715D01*
X22452381Y464286D01*
X22452381Y1083334D01*
X21452381Y1702381D02*
X21452381Y1797620D01*
X21500000Y1892858D01*
X21547619Y1940477D01*
X21642857Y1988096D01*
X21833333Y2035715D01*
X22071429Y2035715D01*
X22261905Y1988096D01*
X22357143Y1940477D01*
X22404762Y1892858D01*
X22452381Y1797620D01*
X22452381Y1702381D01*
X22404762Y1607143D01*
X22357143Y1559524D01*
X22261905Y1511905D01*
X22071429Y1464286D01*
X21833333Y1464286D01*
X21642857Y1511905D01*
X21547619Y1559524D01*
X21500000Y1607143D01*
X21452381Y1702381D01*
X21785714Y2892858D02*
X22452381Y2892858D01*
X21404762Y2654762D02*
X22119048Y2416667D01*
X22119048Y3035715D01*
X31202381Y4130953D02*
X30726190Y3797619D01*
X31202381Y3559524D02*
X30202381Y3559524D01*
X30202381Y3940477D01*
X30250000Y4035715D01*
X30297619Y4083334D01*
X30392857Y4130953D01*
X30535714Y4130953D01*
X30630952Y4083334D01*
X30678571Y4035715D01*
X30726190Y3940477D01*
X30726190Y3559524D01*
X30297619Y4511905D02*
X30250000Y4559524D01*
X30202381Y4654762D01*
X30202381Y4892858D01*
X30250000Y4988096D01*
X30297619Y5035715D01*
X30392857Y5083334D01*
X30488095Y5083334D01*
X30630952Y5035715D01*
X31202381Y4464286D01*
X31202381Y5083334D01*
X30202381Y5702381D02*
X30202381Y5797620D01*
X30250000Y5892858D01*
X30297619Y5940477D01*
X30392857Y5988096D01*
X30583333Y6035715D01*
X30821429Y6035715D01*
X31011905Y5988096D01*
X31107143Y5940477D01*
X31154762Y5892858D01*
X31202381Y5797620D01*
X31202381Y5702381D01*
X31154762Y5607143D01*
X31107143Y5559524D01*
X31011905Y5511905D01*
X30821429Y5464286D01*
X30583333Y5464286D01*
X30392857Y5511905D01*
X30297619Y5559524D01*
X30250000Y5607143D01*
X30202381Y5702381D01*
X30630952Y6607143D02*
X30583333Y6511905D01*
X30535714Y6464286D01*
X30440476Y6416667D01*
X30392857Y6416667D01*
X30297619Y6464286D01*
X30250000Y6511905D01*
X30202381Y6607143D01*
X30202381Y6797620D01*
X30250000Y6892858D01*
X30297619Y6940477D01*
X30392857Y6988096D01*
X30440476Y6988096D01*
X30535714Y6940477D01*
X30583333Y6892858D01*
X30630952Y6797620D01*
X30630952Y6607143D01*
X30678571Y6511905D01*
X30726190Y6464286D01*
X30821429Y6416667D01*
X31011905Y6416667D01*
X31107143Y6464286D01*
X31154762Y6511905D01*
X31202381Y6607143D01*
X31202381Y6797620D01*
X31154762Y6892858D01*
X31107143Y6940477D01*
X31011905Y6988096D01*
X30821429Y6988096D01*
X30726190Y6940477D01*
X30678571Y6892858D01*
X30630952Y6797620D01*
X23488095Y8297619D02*
X23488095Y7488095D01*
X23535714Y7392857D01*
X23583333Y7345238D01*
X23678571Y7297619D01*
X23869048Y7297619D01*
X23964286Y7345238D01*
X24011905Y7392857D01*
X24059524Y7488095D01*
X24059524Y8297619D01*
X24488095Y8202381D02*
X24535714Y8250000D01*
X24630952Y8297619D01*
X24869048Y8297619D01*
X24964286Y8250000D01*
X25011905Y8202381D01*
X25059524Y8107143D01*
X25059524Y8011905D01*
X25011905Y7869048D01*
X24440476Y7297619D01*
X25059524Y7297619D01*
X25678571Y8297619D02*
X25773810Y8297619D01*
X25869048Y8250000D01*
X25916667Y8202381D01*
X25964286Y8107143D01*
X26011905Y7916667D01*
X26011905Y7678571D01*
X25964286Y7488095D01*
X25916667Y7392857D01*
X25869048Y7345238D01*
X25773810Y7297619D01*
X25678571Y7297619D01*
X25583333Y7345238D01*
X25535714Y7392857D01*
X25488095Y7488095D01*
X25440476Y7678571D01*
X25440476Y7916667D01*
X25488095Y8107143D01*
X25535714Y8202381D01*
X25583333Y8250000D01*
X25678571Y8297619D01*
X26345238Y8297619D02*
X26964286Y8297619D01*
X26630952Y7916667D01*
X26773810Y7916667D01*
X26869048Y7869048D01*
X26916667Y7821429D01*
X26964286Y7726190D01*
X26964286Y7488095D01*
X26916667Y7392857D01*
X26869048Y7345238D01*
X26773810Y7297619D01*
X26488095Y7297619D01*
X26392857Y7345238D01*
X26345238Y7392857D01*
M02*
