%FSLAX45Y45*%
G04 Gerber Fmt 4.5, Leading zero omitted, Abs format (unit mm)*
G04 Created by KiCad (PCBNEW 4.0.7) date 2018 November 02, Friday 17:05:09*
%MOMM*%
%LPD*%
G01*
G04 APERTURE LIST*
%ADD10C,0.127000*%
%ADD11C,0.200000*%
%ADD12C,0.150000*%
%ADD13C,0.300000*%
G04 APERTURE END LIST*
D10*
D11*
X-500000Y5000000D02*
X-750000Y4750000D01*
X-500000Y500000D02*
X-500000Y0D01*
X-750000Y750000D02*
X-500000Y500000D01*
X7500000Y750000D02*
G75*
G03X7750000Y1000000I0J250000D01*
G01*
X6500000Y-250000D02*
G75*
G03X6750000Y0I0J250000D01*
G01*
X7750000Y4500000D02*
G75*
G03X7500000Y4750000I-250000J0D01*
G01*
X6750000Y5500000D02*
G75*
G03X6500000Y5750000I-250000J0D01*
G01*
X-750000Y750000D02*
X-750000Y4750000D01*
X-250000Y5750000D02*
G75*
G03X-500000Y5500000I0J-250000D01*
G01*
X-500000Y0D02*
G75*
G03X-250000Y-250000I250000J0D01*
G01*
D12*
X7500000Y750000D02*
G75*
G03X6750000Y0I0J-750000D01*
G01*
X6750000Y5500000D02*
G75*
G03X7500000Y4750000I750000J0D01*
G01*
X-500000Y5500000D02*
X-500000Y5000000D01*
X6500000Y5750000D02*
X-250000Y5750000D01*
X7750000Y1000000D02*
X7750000Y4500000D01*
X-250000Y-250000D02*
X6500000Y-250000D01*
D11*
X731000Y4365500D02*
X761000Y4335500D01*
X761000Y4365500D02*
X731000Y4335500D01*
X931000Y4365500D02*
X961000Y4335500D01*
X961000Y4365500D02*
X931000Y4335500D01*
X1339500Y2234000D02*
X1369500Y2204000D01*
X1369500Y2234000D02*
X1339500Y2204000D01*
X1339500Y1509000D02*
X1369500Y1479000D01*
X1369500Y1509000D02*
X1339500Y1479000D01*
X1874499Y1383959D02*
X1904499Y1353959D01*
X1904499Y1383959D02*
X1874499Y1353959D01*
X1936999Y2384002D02*
X1966999Y2354002D01*
X1966999Y2384002D02*
X1936999Y2354002D01*
X1939500Y1859000D02*
X1969500Y1829000D01*
X1969500Y1859000D02*
X1939500Y1829000D01*
X1989500Y911001D02*
X2019500Y881001D01*
X2019500Y911001D02*
X1989500Y881001D01*
X2039500Y2434000D02*
X2069500Y2404000D01*
X2069500Y2434000D02*
X2039500Y2404000D01*
X2042000Y1979000D02*
X2072000Y1949000D01*
X2072000Y1979000D02*
X2042000Y1949000D01*
X2089500Y2384000D02*
X2119500Y2354000D01*
X2119500Y2384000D02*
X2089500Y2354000D01*
X2089500Y911001D02*
X2119500Y881001D01*
X2119500Y911001D02*
X2089500Y881001D01*
X2139500Y2334000D02*
X2169500Y2304000D01*
X2169500Y2334000D02*
X2139500Y2304000D01*
X2254000Y3885500D02*
X2284000Y3855500D01*
X2284000Y3885500D02*
X2254000Y3855500D01*
X2354000Y3885500D02*
X2384000Y3855500D01*
X2384000Y3885500D02*
X2354000Y3855500D01*
X2389500Y884000D02*
X2419500Y854000D01*
X2419500Y884000D02*
X2389500Y854000D01*
X2489500Y884000D02*
X2519500Y854000D01*
X2519500Y884000D02*
X2489500Y854000D01*
X2864000Y5370500D02*
X2894000Y5340500D01*
X2894000Y5370500D02*
X2864000Y5340500D01*
X3535000Y2015000D02*
X3565000Y1985000D01*
X3565000Y2015000D02*
X3535000Y1985000D01*
X3618844Y2015586D02*
X3648844Y1985586D01*
X3648844Y2015586D02*
X3618844Y1985586D01*
X3673089Y2144108D02*
X3703089Y2114108D01*
X3703089Y2144108D02*
X3673089Y2114108D01*
X3744000Y2050500D02*
X3774000Y2020500D01*
X3774000Y2050500D02*
X3744000Y2020500D01*
X3749000Y1970354D02*
X3779000Y1940354D01*
X3779000Y1970354D02*
X3749000Y1940354D01*
X3794001Y2169122D02*
X3824001Y2139122D01*
X3824001Y2169122D02*
X3794001Y2139122D01*
X3825949Y2741756D02*
X3855949Y2711756D01*
X3855949Y2741756D02*
X3825949Y2711756D01*
X3905923Y2743848D02*
X3935923Y2713848D01*
X3935923Y2743848D02*
X3905923Y2713848D01*
X3934000Y2240500D02*
X3964000Y2210500D01*
X3964000Y2240500D02*
X3934000Y2210500D01*
X3951573Y2088073D02*
X3981573Y2058073D01*
X3981573Y2088073D02*
X3951573Y2058073D01*
X3954000Y3260500D02*
X3984000Y3230500D01*
X3984000Y3260500D02*
X3954000Y3230500D01*
X4004000Y2730500D02*
X4034000Y2700500D01*
X4034000Y2730500D02*
X4004000Y2700500D01*
X4096266Y2647912D02*
X4126266Y2617912D01*
X4126266Y2647912D02*
X4096266Y2617912D01*
X4104000Y3260500D02*
X4134000Y3230500D01*
X4134000Y3260500D02*
X4104000Y3230500D01*
X4132042Y2760508D02*
X4162042Y2730508D01*
X4162042Y2760508D02*
X4132042Y2730508D01*
X4204000Y2640500D02*
X4234000Y2610500D01*
X4234000Y2640500D02*
X4204000Y2610500D01*
X4234000Y2880500D02*
X4264000Y2850500D01*
X4264000Y2880500D02*
X4234000Y2850500D01*
X4255005Y1537110D02*
X4285005Y1507110D01*
X4285005Y1537110D02*
X4255005Y1507110D01*
X4306589Y1604513D02*
X4336589Y1574513D01*
X4336589Y1604513D02*
X4306589Y1574513D01*
X4329000Y1685500D02*
X4359000Y1655500D01*
X4359000Y1685500D02*
X4329000Y1655500D01*
X4329138Y1480717D02*
X4359138Y1450717D01*
X4359138Y1480717D02*
X4329138Y1450717D01*
X4386000Y2145500D02*
X4416000Y2115500D01*
X4416000Y2145500D02*
X4386000Y2115500D01*
X4404000Y4310500D02*
X4434000Y4280500D01*
X4434000Y4310500D02*
X4404000Y4280500D01*
X4579000Y4315501D02*
X4609000Y4285501D01*
X4609000Y4315501D02*
X4579000Y4285501D01*
X4680567Y2780501D02*
X4710567Y2750501D01*
X4710567Y2780501D02*
X4680567Y2750501D01*
X4684000Y2350501D02*
X4714000Y2320501D01*
X4714000Y2350501D02*
X4684000Y2320501D01*
X4835000Y1765000D02*
X4865000Y1735000D01*
X4865000Y1765000D02*
X4835000Y1735000D01*
X4835000Y1765000D02*
X4865000Y1735000D01*
X4865000Y1765000D02*
X4835000Y1735000D01*
X5154000Y1260500D02*
X5184000Y1230500D01*
X5184000Y1260500D02*
X5154000Y1230500D01*
X5196508Y1385581D02*
X5226508Y1355581D01*
X5226508Y1385581D02*
X5196508Y1355581D01*
X5276466Y1382966D02*
X5306466Y1352966D01*
X5306466Y1382966D02*
X5276466Y1352966D01*
X5354000Y2010500D02*
X5384000Y1980500D01*
X5384000Y2010500D02*
X5354000Y1980500D01*
X5354000Y1810500D02*
X5384000Y1780500D01*
X5384000Y1810500D02*
X5354000Y1780500D01*
X5354000Y1710500D02*
X5384000Y1680500D01*
X5384000Y1710500D02*
X5354000Y1680500D01*
X5396124Y1545498D02*
X5426124Y1515498D01*
X5426124Y1545498D02*
X5396124Y1515498D01*
X5424000Y4180499D02*
X5454000Y4150499D01*
X5454000Y4180499D02*
X5424000Y4150499D01*
X5454000Y2810500D02*
X5484000Y2780500D01*
X5484000Y2810500D02*
X5454000Y2780500D01*
X5454000Y2510500D02*
X5484000Y2480500D01*
X5484000Y2510500D02*
X5454000Y2480500D01*
X5481048Y1535498D02*
X5511048Y1505498D01*
X5511048Y1535498D02*
X5481048Y1505498D01*
X5497016Y4265496D02*
X5527016Y4235496D01*
X5527016Y4265496D02*
X5497016Y4235496D01*
X5754000Y1360500D02*
X5784000Y1330500D01*
X5784000Y1360500D02*
X5754000Y1330500D01*
X5754000Y1260500D02*
X5784000Y1230500D01*
X5784000Y1260500D02*
X5754000Y1230500D01*
X5904000Y1185500D02*
X5934000Y1155500D01*
X5934000Y1185500D02*
X5904000Y1155500D01*
X5904000Y935500D02*
X5934000Y905500D01*
X5934000Y935500D02*
X5904000Y905500D01*
X5954000Y4170500D02*
X5984000Y4140500D01*
X5984000Y4170500D02*
X5954000Y4140500D01*
X5954000Y4060500D02*
X5984000Y4030500D01*
X5984000Y4060500D02*
X5954000Y4030500D01*
X5984000Y4720500D02*
X6014000Y4690500D01*
X6014000Y4720500D02*
X5984000Y4690500D01*
X5985000Y4815000D02*
X6015000Y4785000D01*
X6015000Y4815000D02*
X5985000Y4785000D01*
X5985000Y4615000D02*
X6015000Y4585000D01*
X6015000Y4615000D02*
X5985000Y4585000D01*
X5994000Y1650500D02*
X6024000Y1620500D01*
X6024000Y1650500D02*
X5994000Y1620500D01*
X5994000Y1560500D02*
X6024000Y1530500D01*
X6024000Y1560500D02*
X5994000Y1530500D01*
X6004000Y1960500D02*
X6034000Y1930500D01*
X6034000Y1960500D02*
X6004000Y1930500D01*
X6004000Y1860500D02*
X6034000Y1830500D01*
X6034000Y1860500D02*
X6004000Y1830500D01*
X6004000Y1260500D02*
X6034000Y1230500D01*
X6034000Y1260500D02*
X6004000Y1230500D01*
X6004000Y960500D02*
X6034000Y930500D01*
X6034000Y960500D02*
X6004000Y930500D01*
X6029000Y3630500D02*
X6059000Y3600500D01*
X6059000Y3630500D02*
X6029000Y3600500D01*
X6035000Y4540000D02*
X6065000Y4510000D01*
X6065000Y4540000D02*
X6035000Y4510000D01*
X6064000Y4170500D02*
X6094000Y4140500D01*
X6094000Y4170500D02*
X6064000Y4140500D01*
X6064000Y4060500D02*
X6094000Y4030500D01*
X6094000Y4060500D02*
X6064000Y4030500D01*
X6085000Y4815000D02*
X6115000Y4785000D01*
X6115000Y4815000D02*
X6085000Y4785000D01*
X6085000Y4715000D02*
X6115000Y4685000D01*
X6115000Y4715000D02*
X6085000Y4685000D01*
X6085000Y4615000D02*
X6115000Y4585000D01*
X6115000Y4615000D02*
X6085000Y4585000D01*
X6099000Y3560500D02*
X6129000Y3530500D01*
X6129000Y3560500D02*
X6099000Y3530500D01*
X6154000Y2340500D02*
X6184000Y2310500D01*
X6184000Y2340500D02*
X6154000Y2310500D01*
X6189000Y3630500D02*
X6219000Y3600500D01*
X6219000Y3630500D02*
X6189000Y3600500D01*
X6189000Y3540500D02*
X6219000Y3510500D01*
X6219000Y3540500D02*
X6189000Y3510500D01*
X6224001Y1560500D02*
X6254001Y1530500D01*
X6254001Y1560500D02*
X6224001Y1530500D01*
X6274000Y1640500D02*
X6304000Y1610500D01*
X6304000Y1640500D02*
X6274000Y1610500D01*
X6299000Y3540500D02*
X6329000Y3510500D01*
X6329000Y3540500D02*
X6299000Y3510500D01*
X6303023Y4529626D02*
X6333023Y4499626D01*
X6333023Y4529626D02*
X6303023Y4499626D01*
X6384000Y2330500D02*
X6414000Y2300500D01*
X6414000Y2330500D02*
X6384000Y2300500D01*
X6389000Y3540500D02*
X6419000Y3510500D01*
X6419000Y3540500D02*
X6389000Y3510500D01*
X6404000Y4515501D02*
X6434000Y4485501D01*
X6434000Y4515501D02*
X6404000Y4485501D01*
X6504000Y1810500D02*
X6534000Y1780500D01*
X6534000Y1810500D02*
X6504000Y1780500D01*
X6504000Y1710500D02*
X6534000Y1680500D01*
X6534000Y1710500D02*
X6504000Y1680500D01*
X6504000Y1610500D02*
X6534000Y1580500D01*
X6534000Y1610500D02*
X6504000Y1580500D01*
X6604000Y4830500D02*
X6634000Y4800500D01*
X6634000Y4830500D02*
X6604000Y4800500D01*
X6604000Y1810500D02*
X6634000Y1780500D01*
X6634000Y1810500D02*
X6604000Y1780500D01*
X6604000Y1710500D02*
X6634000Y1680500D01*
X6634000Y1710500D02*
X6604000Y1680500D01*
X6604000Y1610500D02*
X6634000Y1580500D01*
X6634000Y1610500D02*
X6604000Y1580500D01*
X6610000Y2290000D02*
X6640000Y2260000D01*
X6640000Y2290000D02*
X6610000Y2260000D01*
X6704000Y4110500D02*
X6734000Y4080500D01*
X6734000Y4110500D02*
X6704000Y4080500D01*
X6704000Y1810500D02*
X6734000Y1780500D01*
X6734000Y1810500D02*
X6704000Y1780500D01*
X6704000Y1710500D02*
X6734000Y1680500D01*
X6734000Y1710500D02*
X6704000Y1680500D01*
X6704000Y1610500D02*
X6734000Y1580500D01*
X6734000Y1610500D02*
X6704000Y1580500D01*
X6734000Y4680500D02*
X6764000Y4650500D01*
X6764000Y4680500D02*
X6734000Y4650500D01*
X6734000Y4590500D02*
X6764000Y4560500D01*
X6764000Y4590500D02*
X6734000Y4560500D01*
X6734000Y4520500D02*
X6764000Y4490500D01*
X6764000Y4520500D02*
X6734000Y4490500D01*
X6760000Y2940000D02*
X6790000Y2910000D01*
X6790000Y2940000D02*
X6760000Y2910000D01*
X6782498Y4013998D02*
X6812498Y3983998D01*
X6812498Y4013998D02*
X6782498Y3983998D01*
X6804000Y2010500D02*
X6834000Y1980500D01*
X6834000Y2010500D02*
X6804000Y1980500D01*
X6804000Y1910500D02*
X6834000Y1880500D01*
X6834000Y1910500D02*
X6804000Y1880500D01*
X6804000Y1810500D02*
X6834000Y1780500D01*
X6834000Y1810500D02*
X6804000Y1780500D01*
X6804000Y1710500D02*
X6834000Y1680500D01*
X6834000Y1710500D02*
X6804000Y1680500D01*
X6804000Y1610500D02*
X6834000Y1580500D01*
X6834000Y1610500D02*
X6804000Y1580500D01*
X6834000Y4590500D02*
X6864000Y4560500D01*
X6864000Y4590500D02*
X6834000Y4560500D01*
X6834000Y4520500D02*
X6864000Y4490500D01*
X6864000Y4520500D02*
X6834000Y4490500D01*
X6879000Y4010500D02*
X6909000Y3980500D01*
X6909000Y4010500D02*
X6879000Y3980500D01*
X6882498Y3913998D02*
X6912498Y3883998D01*
X6912498Y3913998D02*
X6882498Y3883998D01*
X6904000Y1710500D02*
X6934000Y1680500D01*
X6934000Y1710500D02*
X6904000Y1680500D01*
X6904000Y1610500D02*
X6934000Y1580500D01*
X6934000Y1610500D02*
X6904000Y1580500D01*
X6904000Y1510500D02*
X6934000Y1480500D01*
X6934000Y1510500D02*
X6904000Y1480500D01*
X6904000Y1410500D02*
X6934000Y1380500D01*
X6934000Y1410500D02*
X6904000Y1380500D01*
X6904000Y1310500D02*
X6934000Y1280500D01*
X6934000Y1310500D02*
X6904000Y1280500D01*
X6935000Y4515000D02*
X6965000Y4485000D01*
X6965000Y4515000D02*
X6935000Y4485000D01*
X6954000Y2410500D02*
X6984000Y2380500D01*
X6984000Y2410500D02*
X6954000Y2380500D01*
X6954000Y2310500D02*
X6984000Y2280500D01*
X6984000Y2310500D02*
X6954000Y2280500D01*
X6960000Y2015000D02*
X6990000Y1985000D01*
X6990000Y2015000D02*
X6960000Y1985000D01*
X6979000Y4010500D02*
X7009000Y3980500D01*
X7009000Y4010500D02*
X6979000Y3980500D01*
X6979000Y3910500D02*
X7009000Y3880500D01*
X7009000Y3910500D02*
X6979000Y3880500D01*
X6994000Y2220500D02*
X7024000Y2190500D01*
X7024000Y2220500D02*
X6994000Y2190500D01*
X7004000Y1710500D02*
X7034000Y1680500D01*
X7034000Y1710500D02*
X7004000Y1680500D01*
X7004000Y1610500D02*
X7034000Y1580500D01*
X7034000Y1610500D02*
X7004000Y1580500D01*
X7004000Y1510500D02*
X7034000Y1480500D01*
X7034000Y1510500D02*
X7004000Y1480500D01*
X7004000Y1410500D02*
X7034000Y1380500D01*
X7034000Y1410500D02*
X7004000Y1380500D01*
X7004000Y1310500D02*
X7034000Y1280500D01*
X7034000Y1310500D02*
X7004000Y1280500D01*
X7054000Y2410500D02*
X7084000Y2380500D01*
X7084000Y2410500D02*
X7054000Y2380500D01*
X7054000Y2310500D02*
X7084000Y2280500D01*
X7084000Y2310500D02*
X7054000Y2280500D01*
X7109000Y4300500D02*
X7139000Y4270500D01*
X7139000Y4300500D02*
X7109000Y4270500D01*
X7110000Y2015000D02*
X7140000Y1985000D01*
X7140000Y2015000D02*
X7110000Y1985000D01*
X7254000Y2090500D02*
X7284000Y2060500D01*
X7284000Y2090500D02*
X7254000Y2060500D01*
X7254000Y2010500D02*
X7284000Y1980500D01*
X7284000Y2010500D02*
X7254000Y1980500D01*
X7254000Y1910500D02*
X7284000Y1880500D01*
X7284000Y1910500D02*
X7254000Y1880500D01*
X7285000Y4315000D02*
X7315000Y4285000D01*
X7315000Y4315000D02*
X7285000Y4285000D01*
X7334000Y2890500D02*
X7364000Y2860500D01*
X7364000Y2890500D02*
X7334000Y2860500D01*
X7429000Y4060500D02*
X7459000Y4030500D01*
X7459000Y4060500D02*
X7429000Y4030500D01*
X7454000Y2010500D02*
X7484000Y1980500D01*
X7484000Y2010500D02*
X7454000Y1980500D01*
X7460000Y3109999D02*
X7490000Y3079999D01*
X7490000Y3109999D02*
X7460000Y3079999D01*
X7469000Y3980500D02*
X7499000Y3950500D01*
X7499000Y3980500D02*
X7469000Y3950500D01*
X7544000Y970500D02*
X7574000Y940500D01*
X7574000Y970500D02*
X7544000Y940500D01*
X7549000Y4320500D02*
X7579000Y4290500D01*
X7579000Y4320500D02*
X7549000Y4290500D01*
X7549000Y3620500D02*
X7579000Y3590500D01*
X7579000Y3620500D02*
X7549000Y3590500D01*
X2870000Y350000D02*
G75*
G03X2870000Y350000I-20000J0D01*
G01*
X2895000Y975000D02*
G75*
G03X2895000Y975000I-20000J0D01*
G01*
X3070000Y1225000D02*
G75*
G03X3070000Y1225000I-20000J0D01*
G01*
X3320000Y1250000D02*
G75*
G03X3320000Y1250000I-20000J0D01*
G01*
X3370000Y1975000D02*
G75*
G03X3370000Y1975000I-20000J0D01*
G01*
X3543087Y2143839D02*
G75*
G03X3543087Y2143839I-20000J0D01*
G01*
X3695000Y1300000D02*
G75*
G03X3695000Y1300000I-20000J0D01*
G01*
X3728463Y1808463D02*
G75*
G03X3728463Y1808463I-20000J0D01*
G01*
X4245000Y1450000D02*
G75*
G03X4245000Y1450000I-20000J0D01*
G01*
X4945000Y1225000D02*
G75*
G03X4945000Y1225000I-20000J0D01*
G01*
X169500Y3451000D02*
X169500Y3391000D01*
X139500Y3421000D02*
X199500Y3421000D01*
X1724500Y3799000D02*
X1724500Y3739000D01*
X1694500Y3769000D02*
X1754500Y3769000D01*
X1724500Y3599000D02*
X1724500Y3539000D01*
X1694500Y3569000D02*
X1754500Y3569000D01*
X2400000Y-20000D02*
X2400000Y-80000D01*
X2370000Y-50000D02*
X2430000Y-50000D01*
X2525000Y580000D02*
X2525000Y520000D01*
X2495000Y550000D02*
X2555000Y550000D01*
X2650000Y-20000D02*
X2650000Y-80000D01*
X2620000Y-50000D02*
X2680000Y-50000D01*
X2750000Y4580000D02*
X2750000Y4520000D01*
X2720000Y4550000D02*
X2780000Y4550000D01*
X3450000Y530000D02*
X3450000Y470000D01*
X3420000Y500000D02*
X3480000Y500000D01*
X3675000Y855000D02*
X3675000Y795000D01*
X3645000Y825000D02*
X3705000Y825000D01*
X3675000Y655000D02*
X3675000Y595000D01*
X3645000Y625000D02*
X3705000Y625000D01*
X4200000Y305000D02*
X4200000Y245000D01*
X4170000Y275000D02*
X4230000Y275000D01*
X5100000Y1005000D02*
X5100000Y945000D01*
X5070000Y975000D02*
X5130000Y975000D01*
X5400000Y1005000D02*
X5400000Y945000D01*
X5370000Y975000D02*
X5430000Y975000D01*
X5519000Y3475500D02*
X5519000Y3415500D01*
X5489000Y3445500D02*
X5549000Y3445500D01*
X5519000Y3275500D02*
X5519000Y3215500D01*
X5489000Y3245500D02*
X5549000Y3245500D01*
X5677702Y4260496D02*
X5677702Y4200496D01*
X5647702Y4230496D02*
X5707702Y4230496D01*
X5825000Y4255000D02*
X5825000Y4195000D01*
X5795000Y4225000D02*
X5855000Y4225000D01*
X6269000Y3150500D02*
X6269000Y3090500D01*
X6239000Y3120500D02*
X6299000Y3120500D01*
X1528284Y5521716D02*
X1528284Y5578285D01*
X1471715Y5578285D01*
X1471715Y5521716D01*
X1528284Y5521716D01*
X1761000Y5500000D02*
X1811000Y5550000D01*
X1761000Y5600000D01*
X1711000Y5550000D01*
X1761000Y5500000D01*
X2015000Y5500000D02*
X2065000Y5550000D01*
X2015000Y5600000D01*
X1965000Y5550000D01*
X2015000Y5500000D01*
X2269000Y5500000D02*
X2319000Y5550000D01*
X2269000Y5600000D01*
X2219000Y5550000D01*
X2269000Y5500000D01*
X2523000Y5500000D02*
X2573000Y5550000D01*
X2523000Y5600000D01*
X2473000Y5550000D01*
X2523000Y5500000D01*
X2777000Y5500000D02*
X2827000Y5550000D01*
X2777000Y5600000D01*
X2727000Y5550000D01*
X2777000Y5500000D01*
X3031000Y5500000D02*
X3081000Y5550000D01*
X3031000Y5600000D01*
X2981000Y5550000D01*
X3031000Y5500000D01*
X4890000Y-17000D02*
X4940000Y33000D01*
X4890000Y83000D01*
X4840000Y33000D01*
X4890000Y-17000D01*
X5144000Y-17000D02*
X5194000Y33000D01*
X5144000Y83000D01*
X5094000Y33000D01*
X5144000Y-17000D01*
X5398000Y-17000D02*
X5448000Y33000D01*
X5398000Y83000D01*
X5348000Y33000D01*
X5398000Y-17000D01*
X5652000Y-17000D02*
X5702000Y33000D01*
X5652000Y83000D01*
X5602000Y33000D01*
X5652000Y-17000D01*
X5906000Y-17000D02*
X5956000Y33000D01*
X5906000Y83000D01*
X5856000Y33000D01*
X5906000Y-17000D01*
X6160000Y-17000D02*
X6210000Y33000D01*
X6160000Y83000D01*
X6110000Y33000D01*
X6160000Y-17000D01*
X3291200Y75800D02*
X3392800Y-25800D01*
X3392800Y75800D02*
X3291200Y-25800D01*
X3392800Y25000D02*
G75*
G03X3392800Y25000I-50800J0D01*
G01*
X3545200Y75800D02*
X3646800Y-25800D01*
X3646800Y75800D02*
X3545200Y-25800D01*
X3646800Y25000D02*
G75*
G03X3646800Y25000I-50800J0D01*
G01*
X3799200Y75800D02*
X3900800Y-25800D01*
X3900800Y75800D02*
X3799200Y-25800D01*
X3900800Y25000D02*
G75*
G03X3900800Y25000I-50800J0D01*
G01*
X4053200Y75800D02*
X4154800Y-25800D01*
X4154800Y75800D02*
X4053200Y-25800D01*
X4154800Y25000D02*
G75*
G03X4154800Y25000I-50800J0D01*
G01*
X6224200Y2829800D02*
X6325800Y2728200D01*
X6325800Y2829800D02*
X6224200Y2728200D01*
X6325800Y2779000D02*
G75*
G03X6325800Y2779000I-50800J0D01*
G01*
X6224200Y2575800D02*
X6325800Y2474200D01*
X6325800Y2575800D02*
X6224200Y2474200D01*
X6325800Y2525000D02*
G75*
G03X6325800Y2525000I-50800J0D01*
G01*
X789136Y4184864D02*
X898864Y4075136D01*
X898864Y4184864D02*
X789136Y4075136D01*
X844000Y4184864D02*
X844000Y4075136D01*
X789136Y4130000D02*
X898864Y4130000D01*
X789136Y3930864D02*
X898864Y3821136D01*
X898864Y3930864D02*
X789136Y3821136D01*
X844000Y3930864D02*
X844000Y3821136D01*
X789136Y3876000D02*
X898864Y3876000D01*
X789136Y3676864D02*
X898864Y3567136D01*
X898864Y3676864D02*
X789136Y3567136D01*
X844000Y3676864D02*
X844000Y3567136D01*
X789136Y3622000D02*
X898864Y3622000D01*
X789136Y3422864D02*
X898864Y3313136D01*
X898864Y3422864D02*
X789136Y3313136D01*
X844000Y3422864D02*
X844000Y3313136D01*
X789136Y3368000D02*
X898864Y3368000D01*
X789136Y3168864D02*
X898864Y3059136D01*
X898864Y3168864D02*
X789136Y3059136D01*
X844000Y3168864D02*
X844000Y3059136D01*
X789136Y3114000D02*
X898864Y3114000D01*
X793136Y2304864D02*
X902864Y2195136D01*
X902864Y2304864D02*
X793136Y2195136D01*
X848000Y2304864D02*
X848000Y2195136D01*
X793136Y2250000D02*
X902864Y2250000D01*
X793136Y2050864D02*
X902864Y1941136D01*
X902864Y2050864D02*
X793136Y1941136D01*
X848000Y2050864D02*
X848000Y1941136D01*
X793136Y1996000D02*
X902864Y1996000D01*
X793136Y1796864D02*
X902864Y1687136D01*
X902864Y1796864D02*
X793136Y1687136D01*
X848000Y1796864D02*
X848000Y1687136D01*
X793136Y1742000D02*
X902864Y1742000D01*
X793136Y1542864D02*
X902864Y1433136D01*
X902864Y1542864D02*
X793136Y1433136D01*
X848000Y1542864D02*
X848000Y1433136D01*
X793136Y1488000D02*
X902864Y1488000D01*
X1787136Y4330864D02*
X1896864Y4221136D01*
X1896864Y4330864D02*
X1787136Y4221136D01*
X1842000Y4330864D02*
X1842000Y4221136D01*
X1787136Y4276000D02*
X1896864Y4276000D01*
X2041136Y4330864D02*
X2150864Y4221136D01*
X2150864Y4330864D02*
X2041136Y4221136D01*
X2096000Y4330864D02*
X2096000Y4221136D01*
X2041136Y4276000D02*
X2150864Y4276000D01*
X2295136Y4330864D02*
X2404864Y4221136D01*
X2404864Y4330864D02*
X2295136Y4221136D01*
X2350000Y4330864D02*
X2350000Y4221136D01*
X2295136Y4276000D02*
X2404864Y4276000D01*
X2549136Y4330864D02*
X2658864Y4221136D01*
X2658864Y4330864D02*
X2549136Y4221136D01*
X2604000Y4330864D02*
X2604000Y4221136D01*
X2549136Y4276000D02*
X2658864Y4276000D01*
X2803136Y4330864D02*
X2912864Y4221136D01*
X2912864Y4330864D02*
X2803136Y4221136D01*
X2858000Y4330864D02*
X2858000Y4221136D01*
X2803136Y4276000D02*
X2912864Y4276000D01*
X6609000Y1445500D02*
X6729000Y1325500D01*
X6729000Y1445500D02*
X6609000Y1325500D01*
X6711427Y1343073D02*
X6711427Y1427927D01*
X6626573Y1427927D01*
X6626573Y1343073D01*
X6711427Y1343073D01*
X6609000Y1095500D02*
X6729000Y975500D01*
X6729000Y1095500D02*
X6609000Y975500D01*
X6711427Y993073D02*
X6711427Y1077927D01*
X6626573Y1077927D01*
X6626573Y993073D01*
X6711427Y993073D01*
X894000Y625000D02*
X1144000Y375000D01*
X1144000Y625000D02*
X894000Y375000D01*
X1019000Y375000D02*
X1144000Y500000D01*
X1019000Y625000D01*
X894000Y500000D01*
X1019000Y375000D01*
X900000Y5075000D02*
X1150000Y4825000D01*
X1150000Y5075000D02*
X900000Y4825000D01*
X1025000Y4825000D02*
X1150000Y4950000D01*
X1025000Y5075000D01*
X900000Y4950000D01*
X1025000Y4825000D01*
X5250000Y625000D02*
X5500000Y375000D01*
X5500000Y625000D02*
X5250000Y375000D01*
X5375000Y375000D02*
X5500000Y500000D01*
X5375000Y625000D01*
X5250000Y500000D01*
X5375000Y375000D01*
D13*
X-488571Y-725714D02*
X-488571Y-425714D01*
X-417143Y-425714D01*
X-374286Y-440000D01*
X-345714Y-468571D01*
X-331429Y-497143D01*
X-317143Y-554286D01*
X-317143Y-597143D01*
X-331429Y-654286D01*
X-345714Y-682857D01*
X-374286Y-711429D01*
X-417143Y-725714D01*
X-488571Y-725714D01*
X-188571Y-725714D02*
X-188571Y-525714D01*
X-188571Y-582857D02*
X-174286Y-554286D01*
X-160000Y-540000D01*
X-131429Y-525714D01*
X-102857Y-525714D01*
X-2857Y-725714D02*
X-2857Y-525714D01*
X-2857Y-425714D02*
X-17143Y-440000D01*
X-2857Y-454286D01*
X11428Y-440000D01*
X-2857Y-425714D01*
X-2857Y-454286D01*
X182857Y-725714D02*
X154286Y-711429D01*
X140000Y-682857D01*
X140000Y-425714D01*
X340000Y-725714D02*
X311429Y-711429D01*
X297143Y-682857D01*
X297143Y-425714D01*
X682857Y-725714D02*
X682857Y-425714D01*
X782857Y-640000D01*
X882857Y-425714D01*
X882857Y-725714D01*
X1154286Y-725714D02*
X1154286Y-568572D01*
X1140000Y-540000D01*
X1111429Y-525714D01*
X1054286Y-525714D01*
X1025714Y-540000D01*
X1154286Y-711429D02*
X1125714Y-725714D01*
X1054286Y-725714D01*
X1025714Y-711429D01*
X1011428Y-682857D01*
X1011428Y-654286D01*
X1025714Y-625714D01*
X1054286Y-611429D01*
X1125714Y-611429D01*
X1154286Y-597143D01*
X1297143Y-525714D02*
X1297143Y-825714D01*
X1297143Y-540000D02*
X1325714Y-525714D01*
X1382857Y-525714D01*
X1411428Y-540000D01*
X1425714Y-554286D01*
X1440000Y-582857D01*
X1440000Y-668572D01*
X1425714Y-697143D01*
X1411428Y-711429D01*
X1382857Y-725714D01*
X1325714Y-725714D01*
X1297143Y-711429D01*
X1568571Y-697143D02*
X1582857Y-711429D01*
X1568571Y-725714D01*
X1554286Y-711429D01*
X1568571Y-697143D01*
X1568571Y-725714D01*
X1568571Y-540000D02*
X1582857Y-554286D01*
X1568571Y-568572D01*
X1554286Y-554286D01*
X1568571Y-540000D01*
X1568571Y-568572D01*
X-790000Y-1205000D02*
X-760000Y-1235000D01*
X-760000Y-1205000D02*
X-790000Y-1235000D01*
X-431429Y-1055714D02*
X-402857Y-1055714D01*
X-374286Y-1070000D01*
X-360000Y-1084286D01*
X-345714Y-1112857D01*
X-331429Y-1170000D01*
X-331429Y-1241429D01*
X-345714Y-1298572D01*
X-360000Y-1327143D01*
X-374286Y-1341429D01*
X-402857Y-1355714D01*
X-431429Y-1355714D01*
X-460000Y-1341429D01*
X-474286Y-1327143D01*
X-488571Y-1298572D01*
X-502857Y-1241429D01*
X-502857Y-1170000D01*
X-488571Y-1112857D01*
X-474286Y-1084286D01*
X-460000Y-1070000D01*
X-431429Y-1055714D01*
X-202857Y-1327143D02*
X-188571Y-1341429D01*
X-202857Y-1355714D01*
X-217143Y-1341429D01*
X-202857Y-1327143D01*
X-202857Y-1355714D01*
X-88572Y-1055714D02*
X97143Y-1055714D01*
X-2857Y-1170000D01*
X40000Y-1170000D01*
X68571Y-1184286D01*
X82857Y-1198572D01*
X97143Y-1227143D01*
X97143Y-1298572D01*
X82857Y-1327143D01*
X68571Y-1341429D01*
X40000Y-1355714D01*
X-45714Y-1355714D01*
X-74286Y-1341429D01*
X-88572Y-1327143D01*
X282857Y-1055714D02*
X311429Y-1055714D01*
X340000Y-1070000D01*
X354286Y-1084286D01*
X368571Y-1112857D01*
X382857Y-1170000D01*
X382857Y-1241429D01*
X368571Y-1298572D01*
X354286Y-1327143D01*
X340000Y-1341429D01*
X311429Y-1355714D01*
X282857Y-1355714D01*
X254286Y-1341429D01*
X240000Y-1327143D01*
X225714Y-1298572D01*
X211428Y-1241429D01*
X211428Y-1170000D01*
X225714Y-1112857D01*
X240000Y-1084286D01*
X254286Y-1070000D01*
X282857Y-1055714D01*
X511428Y-1355714D02*
X511428Y-1155714D01*
X511428Y-1184286D02*
X525714Y-1170000D01*
X554286Y-1155714D01*
X597143Y-1155714D01*
X625714Y-1170000D01*
X640000Y-1198572D01*
X640000Y-1355714D01*
X640000Y-1198572D02*
X654286Y-1170000D01*
X682857Y-1155714D01*
X725714Y-1155714D01*
X754286Y-1170000D01*
X768571Y-1198572D01*
X768571Y-1355714D01*
X911428Y-1355714D02*
X911428Y-1155714D01*
X911428Y-1184286D02*
X925714Y-1170000D01*
X954286Y-1155714D01*
X997143Y-1155714D01*
X1025714Y-1170000D01*
X1040000Y-1198572D01*
X1040000Y-1355714D01*
X1040000Y-1198572D02*
X1054286Y-1170000D01*
X1082857Y-1155714D01*
X1125714Y-1155714D01*
X1154286Y-1170000D01*
X1168571Y-1198572D01*
X1168571Y-1355714D01*
X1754286Y-1041429D02*
X1497143Y-1427143D01*
X2140000Y-1055714D02*
X2168571Y-1055714D01*
X2197143Y-1070000D01*
X2211428Y-1084286D01*
X2225714Y-1112857D01*
X2240000Y-1170000D01*
X2240000Y-1241429D01*
X2225714Y-1298572D01*
X2211428Y-1327143D01*
X2197143Y-1341429D01*
X2168571Y-1355714D01*
X2140000Y-1355714D01*
X2111428Y-1341429D01*
X2097143Y-1327143D01*
X2082857Y-1298572D01*
X2068571Y-1241429D01*
X2068571Y-1170000D01*
X2082857Y-1112857D01*
X2097143Y-1084286D01*
X2111428Y-1070000D01*
X2140000Y-1055714D01*
X2368571Y-1327143D02*
X2382857Y-1341429D01*
X2368571Y-1355714D01*
X2354286Y-1341429D01*
X2368571Y-1327143D01*
X2368571Y-1355714D01*
X2568571Y-1055714D02*
X2597143Y-1055714D01*
X2625714Y-1070000D01*
X2640000Y-1084286D01*
X2654286Y-1112857D01*
X2668571Y-1170000D01*
X2668571Y-1241429D01*
X2654286Y-1298572D01*
X2640000Y-1327143D01*
X2625714Y-1341429D01*
X2597143Y-1355714D01*
X2568571Y-1355714D01*
X2540000Y-1341429D01*
X2525714Y-1327143D01*
X2511428Y-1298572D01*
X2497143Y-1241429D01*
X2497143Y-1170000D01*
X2511428Y-1112857D01*
X2525714Y-1084286D01*
X2540000Y-1070000D01*
X2568571Y-1055714D01*
X2954285Y-1355714D02*
X2782857Y-1355714D01*
X2868571Y-1355714D02*
X2868571Y-1055714D01*
X2840000Y-1098572D01*
X2811428Y-1127143D01*
X2782857Y-1141429D01*
X3068571Y-1084286D02*
X3082857Y-1070000D01*
X3111428Y-1055714D01*
X3182857Y-1055714D01*
X3211428Y-1070000D01*
X3225714Y-1084286D01*
X3240000Y-1112857D01*
X3240000Y-1141429D01*
X3225714Y-1184286D01*
X3054285Y-1355714D01*
X3240000Y-1355714D01*
X3354286Y-1055714D02*
X3354286Y-1112857D01*
X3468571Y-1055714D02*
X3468571Y-1112857D01*
X3911428Y-1470000D02*
X3897143Y-1455714D01*
X3868571Y-1412857D01*
X3854285Y-1384286D01*
X3840000Y-1341429D01*
X3825714Y-1270000D01*
X3825714Y-1212857D01*
X3840000Y-1141429D01*
X3854285Y-1098572D01*
X3868571Y-1070000D01*
X3897143Y-1027143D01*
X3911428Y-1012857D01*
X4182857Y-1355714D02*
X4011428Y-1355714D01*
X4097143Y-1355714D02*
X4097143Y-1055714D01*
X4068571Y-1098572D01*
X4040000Y-1127143D01*
X4011428Y-1141429D01*
X4454286Y-1055714D02*
X4311428Y-1055714D01*
X4297143Y-1198572D01*
X4311428Y-1184286D01*
X4340000Y-1170000D01*
X4411428Y-1170000D01*
X4440000Y-1184286D01*
X4454286Y-1198572D01*
X4468571Y-1227143D01*
X4468571Y-1298572D01*
X4454286Y-1327143D01*
X4440000Y-1341429D01*
X4411428Y-1355714D01*
X4340000Y-1355714D01*
X4311428Y-1341429D01*
X4297143Y-1327143D01*
X4654286Y-1055714D02*
X4682857Y-1055714D01*
X4711428Y-1070000D01*
X4725714Y-1084286D01*
X4740000Y-1112857D01*
X4754286Y-1170000D01*
X4754286Y-1241429D01*
X4740000Y-1298572D01*
X4725714Y-1327143D01*
X4711428Y-1341429D01*
X4682857Y-1355714D01*
X4654286Y-1355714D01*
X4625714Y-1341429D01*
X4611428Y-1327143D01*
X4597143Y-1298572D01*
X4582857Y-1241429D01*
X4582857Y-1170000D01*
X4597143Y-1112857D01*
X4611428Y-1084286D01*
X4625714Y-1070000D01*
X4654286Y-1055714D01*
X5111428Y-1355714D02*
X5111428Y-1055714D01*
X5240000Y-1355714D02*
X5240000Y-1198572D01*
X5225714Y-1170000D01*
X5197143Y-1155714D01*
X5154286Y-1155714D01*
X5125714Y-1170000D01*
X5111428Y-1184286D01*
X5425714Y-1355714D02*
X5397143Y-1341429D01*
X5382857Y-1327143D01*
X5368571Y-1298572D01*
X5368571Y-1212857D01*
X5382857Y-1184286D01*
X5397143Y-1170000D01*
X5425714Y-1155714D01*
X5468571Y-1155714D01*
X5497143Y-1170000D01*
X5511428Y-1184286D01*
X5525714Y-1212857D01*
X5525714Y-1298572D01*
X5511428Y-1327143D01*
X5497143Y-1341429D01*
X5468571Y-1355714D01*
X5425714Y-1355714D01*
X5697143Y-1355714D02*
X5668571Y-1341429D01*
X5654286Y-1312857D01*
X5654286Y-1055714D01*
X5925714Y-1341429D02*
X5897143Y-1355714D01*
X5840000Y-1355714D01*
X5811428Y-1341429D01*
X5797143Y-1312857D01*
X5797143Y-1198572D01*
X5811428Y-1170000D01*
X5840000Y-1155714D01*
X5897143Y-1155714D01*
X5925714Y-1170000D01*
X5940000Y-1198572D01*
X5940000Y-1227143D01*
X5797143Y-1255714D01*
X6054286Y-1341429D02*
X6082857Y-1355714D01*
X6140000Y-1355714D01*
X6168571Y-1341429D01*
X6182857Y-1312857D01*
X6182857Y-1298572D01*
X6168571Y-1270000D01*
X6140000Y-1255714D01*
X6097143Y-1255714D01*
X6068571Y-1241429D01*
X6054286Y-1212857D01*
X6054286Y-1198572D01*
X6068571Y-1170000D01*
X6097143Y-1155714D01*
X6140000Y-1155714D01*
X6168571Y-1170000D01*
X6282857Y-1470000D02*
X6297143Y-1455714D01*
X6325714Y-1412857D01*
X6340000Y-1384286D01*
X6354286Y-1341429D01*
X6368571Y-1270000D01*
X6368571Y-1212857D01*
X6354286Y-1141429D01*
X6340000Y-1098572D01*
X6325714Y-1070000D01*
X6297143Y-1027143D01*
X6282857Y-1012857D01*
X-760000Y-1616000D02*
G75*
G03X-760000Y-1616000I-20000J0D01*
G01*
X-431429Y-1451714D02*
X-402857Y-1451714D01*
X-374286Y-1466000D01*
X-360000Y-1480286D01*
X-345714Y-1508857D01*
X-331429Y-1566000D01*
X-331429Y-1637429D01*
X-345714Y-1694571D01*
X-360000Y-1723143D01*
X-374286Y-1737429D01*
X-402857Y-1751714D01*
X-431429Y-1751714D01*
X-460000Y-1737429D01*
X-474286Y-1723143D01*
X-488571Y-1694571D01*
X-502857Y-1637429D01*
X-502857Y-1566000D01*
X-488571Y-1508857D01*
X-474286Y-1480286D01*
X-460000Y-1466000D01*
X-431429Y-1451714D01*
X-202857Y-1723143D02*
X-188571Y-1737429D01*
X-202857Y-1751714D01*
X-217143Y-1737429D01*
X-202857Y-1723143D01*
X-202857Y-1751714D01*
X68571Y-1551714D02*
X68571Y-1751714D01*
X-2857Y-1437429D02*
X-74286Y-1651714D01*
X111428Y-1651714D01*
X282857Y-1451714D02*
X311429Y-1451714D01*
X340000Y-1466000D01*
X354286Y-1480286D01*
X368571Y-1508857D01*
X382857Y-1566000D01*
X382857Y-1637429D01*
X368571Y-1694571D01*
X354286Y-1723143D01*
X340000Y-1737429D01*
X311429Y-1751714D01*
X282857Y-1751714D01*
X254286Y-1737429D01*
X240000Y-1723143D01*
X225714Y-1694571D01*
X211428Y-1637429D01*
X211428Y-1566000D01*
X225714Y-1508857D01*
X240000Y-1480286D01*
X254286Y-1466000D01*
X282857Y-1451714D01*
X511428Y-1751714D02*
X511428Y-1551714D01*
X511428Y-1580286D02*
X525714Y-1566000D01*
X554286Y-1551714D01*
X597143Y-1551714D01*
X625714Y-1566000D01*
X640000Y-1594571D01*
X640000Y-1751714D01*
X640000Y-1594571D02*
X654286Y-1566000D01*
X682857Y-1551714D01*
X725714Y-1551714D01*
X754286Y-1566000D01*
X768571Y-1594571D01*
X768571Y-1751714D01*
X911428Y-1751714D02*
X911428Y-1551714D01*
X911428Y-1580286D02*
X925714Y-1566000D01*
X954286Y-1551714D01*
X997143Y-1551714D01*
X1025714Y-1566000D01*
X1040000Y-1594571D01*
X1040000Y-1751714D01*
X1040000Y-1594571D02*
X1054286Y-1566000D01*
X1082857Y-1551714D01*
X1125714Y-1551714D01*
X1154286Y-1566000D01*
X1168571Y-1594571D01*
X1168571Y-1751714D01*
X1754286Y-1437429D02*
X1497143Y-1823143D01*
X2140000Y-1451714D02*
X2168571Y-1451714D01*
X2197143Y-1466000D01*
X2211428Y-1480286D01*
X2225714Y-1508857D01*
X2240000Y-1566000D01*
X2240000Y-1637429D01*
X2225714Y-1694571D01*
X2211428Y-1723143D01*
X2197143Y-1737429D01*
X2168571Y-1751714D01*
X2140000Y-1751714D01*
X2111428Y-1737429D01*
X2097143Y-1723143D01*
X2082857Y-1694571D01*
X2068571Y-1637429D01*
X2068571Y-1566000D01*
X2082857Y-1508857D01*
X2097143Y-1480286D01*
X2111428Y-1466000D01*
X2140000Y-1451714D01*
X2368571Y-1723143D02*
X2382857Y-1737429D01*
X2368571Y-1751714D01*
X2354286Y-1737429D01*
X2368571Y-1723143D01*
X2368571Y-1751714D01*
X2568571Y-1451714D02*
X2597143Y-1451714D01*
X2625714Y-1466000D01*
X2640000Y-1480286D01*
X2654286Y-1508857D01*
X2668571Y-1566000D01*
X2668571Y-1637429D01*
X2654286Y-1694571D01*
X2640000Y-1723143D01*
X2625714Y-1737429D01*
X2597143Y-1751714D01*
X2568571Y-1751714D01*
X2540000Y-1737429D01*
X2525714Y-1723143D01*
X2511428Y-1694571D01*
X2497143Y-1637429D01*
X2497143Y-1566000D01*
X2511428Y-1508857D01*
X2525714Y-1480286D01*
X2540000Y-1466000D01*
X2568571Y-1451714D01*
X2954285Y-1751714D02*
X2782857Y-1751714D01*
X2868571Y-1751714D02*
X2868571Y-1451714D01*
X2840000Y-1494571D01*
X2811428Y-1523143D01*
X2782857Y-1537429D01*
X3211428Y-1451714D02*
X3154285Y-1451714D01*
X3125714Y-1466000D01*
X3111428Y-1480286D01*
X3082857Y-1523143D01*
X3068571Y-1580286D01*
X3068571Y-1694571D01*
X3082857Y-1723143D01*
X3097143Y-1737429D01*
X3125714Y-1751714D01*
X3182857Y-1751714D01*
X3211428Y-1737429D01*
X3225714Y-1723143D01*
X3240000Y-1694571D01*
X3240000Y-1623143D01*
X3225714Y-1594571D01*
X3211428Y-1580286D01*
X3182857Y-1566000D01*
X3125714Y-1566000D01*
X3097143Y-1580286D01*
X3082857Y-1594571D01*
X3068571Y-1623143D01*
X3354286Y-1451714D02*
X3354286Y-1508857D01*
X3468571Y-1451714D02*
X3468571Y-1508857D01*
X3911428Y-1866000D02*
X3897143Y-1851714D01*
X3868571Y-1808857D01*
X3854285Y-1780286D01*
X3840000Y-1737429D01*
X3825714Y-1666000D01*
X3825714Y-1608857D01*
X3840000Y-1537429D01*
X3854285Y-1494571D01*
X3868571Y-1466000D01*
X3897143Y-1423143D01*
X3911428Y-1408857D01*
X4182857Y-1751714D02*
X4011428Y-1751714D01*
X4097143Y-1751714D02*
X4097143Y-1451714D01*
X4068571Y-1494571D01*
X4040000Y-1523143D01*
X4011428Y-1537429D01*
X4368571Y-1451714D02*
X4397143Y-1451714D01*
X4425714Y-1466000D01*
X4440000Y-1480286D01*
X4454286Y-1508857D01*
X4468571Y-1566000D01*
X4468571Y-1637429D01*
X4454286Y-1694571D01*
X4440000Y-1723143D01*
X4425714Y-1737429D01*
X4397143Y-1751714D01*
X4368571Y-1751714D01*
X4340000Y-1737429D01*
X4325714Y-1723143D01*
X4311428Y-1694571D01*
X4297143Y-1637429D01*
X4297143Y-1566000D01*
X4311428Y-1508857D01*
X4325714Y-1480286D01*
X4340000Y-1466000D01*
X4368571Y-1451714D01*
X4825714Y-1751714D02*
X4825714Y-1451714D01*
X4954286Y-1751714D02*
X4954286Y-1594571D01*
X4940000Y-1566000D01*
X4911428Y-1551714D01*
X4868571Y-1551714D01*
X4840000Y-1566000D01*
X4825714Y-1580286D01*
X5140000Y-1751714D02*
X5111428Y-1737429D01*
X5097143Y-1723143D01*
X5082857Y-1694571D01*
X5082857Y-1608857D01*
X5097143Y-1580286D01*
X5111428Y-1566000D01*
X5140000Y-1551714D01*
X5182857Y-1551714D01*
X5211428Y-1566000D01*
X5225714Y-1580286D01*
X5240000Y-1608857D01*
X5240000Y-1694571D01*
X5225714Y-1723143D01*
X5211428Y-1737429D01*
X5182857Y-1751714D01*
X5140000Y-1751714D01*
X5411428Y-1751714D02*
X5382857Y-1737429D01*
X5368571Y-1708857D01*
X5368571Y-1451714D01*
X5640000Y-1737429D02*
X5611428Y-1751714D01*
X5554286Y-1751714D01*
X5525714Y-1737429D01*
X5511429Y-1708857D01*
X5511429Y-1594571D01*
X5525714Y-1566000D01*
X5554286Y-1551714D01*
X5611428Y-1551714D01*
X5640000Y-1566000D01*
X5654286Y-1594571D01*
X5654286Y-1623143D01*
X5511429Y-1651714D01*
X5768571Y-1737429D02*
X5797143Y-1751714D01*
X5854286Y-1751714D01*
X5882857Y-1737429D01*
X5897143Y-1708857D01*
X5897143Y-1694571D01*
X5882857Y-1666000D01*
X5854286Y-1651714D01*
X5811428Y-1651714D01*
X5782857Y-1637429D01*
X5768571Y-1608857D01*
X5768571Y-1594571D01*
X5782857Y-1566000D01*
X5811428Y-1551714D01*
X5854286Y-1551714D01*
X5882857Y-1566000D01*
X5997143Y-1866000D02*
X6011428Y-1851714D01*
X6040000Y-1808857D01*
X6054286Y-1780286D01*
X6068571Y-1737429D01*
X6082857Y-1666000D01*
X6082857Y-1608857D01*
X6068571Y-1537429D01*
X6054286Y-1494571D01*
X6040000Y-1466000D01*
X6011428Y-1423143D01*
X5997143Y-1408857D01*
X-790000Y-1982000D02*
X-790000Y-2042000D01*
X-820000Y-2012000D02*
X-760000Y-2012000D01*
X-431429Y-1847714D02*
X-402857Y-1847714D01*
X-374286Y-1862000D01*
X-360000Y-1876286D01*
X-345714Y-1904857D01*
X-331429Y-1962000D01*
X-331429Y-2033429D01*
X-345714Y-2090571D01*
X-360000Y-2119143D01*
X-374286Y-2133429D01*
X-402857Y-2147714D01*
X-431429Y-2147714D01*
X-460000Y-2133429D01*
X-474286Y-2119143D01*
X-488571Y-2090571D01*
X-502857Y-2033429D01*
X-502857Y-1962000D01*
X-488571Y-1904857D01*
X-474286Y-1876286D01*
X-460000Y-1862000D01*
X-431429Y-1847714D01*
X-202857Y-2119143D02*
X-188571Y-2133429D01*
X-202857Y-2147714D01*
X-217143Y-2133429D01*
X-202857Y-2119143D01*
X-202857Y-2147714D01*
X68571Y-1847714D02*
X11428Y-1847714D01*
X-17143Y-1862000D01*
X-31429Y-1876286D01*
X-60000Y-1919143D01*
X-74286Y-1976286D01*
X-74286Y-2090571D01*
X-60000Y-2119143D01*
X-45714Y-2133429D01*
X-17143Y-2147714D01*
X40000Y-2147714D01*
X68571Y-2133429D01*
X82857Y-2119143D01*
X97143Y-2090571D01*
X97143Y-2019143D01*
X82857Y-1990571D01*
X68571Y-1976286D01*
X40000Y-1962000D01*
X-17143Y-1962000D01*
X-45714Y-1976286D01*
X-60000Y-1990571D01*
X-74286Y-2019143D01*
X282857Y-1847714D02*
X311429Y-1847714D01*
X340000Y-1862000D01*
X354286Y-1876286D01*
X368571Y-1904857D01*
X382857Y-1962000D01*
X382857Y-2033429D01*
X368571Y-2090571D01*
X354286Y-2119143D01*
X340000Y-2133429D01*
X311429Y-2147714D01*
X282857Y-2147714D01*
X254286Y-2133429D01*
X240000Y-2119143D01*
X225714Y-2090571D01*
X211428Y-2033429D01*
X211428Y-1962000D01*
X225714Y-1904857D01*
X240000Y-1876286D01*
X254286Y-1862000D01*
X282857Y-1847714D01*
X511428Y-2147714D02*
X511428Y-1947714D01*
X511428Y-1976286D02*
X525714Y-1962000D01*
X554286Y-1947714D01*
X597143Y-1947714D01*
X625714Y-1962000D01*
X640000Y-1990571D01*
X640000Y-2147714D01*
X640000Y-1990571D02*
X654286Y-1962000D01*
X682857Y-1947714D01*
X725714Y-1947714D01*
X754286Y-1962000D01*
X768571Y-1990571D01*
X768571Y-2147714D01*
X911428Y-2147714D02*
X911428Y-1947714D01*
X911428Y-1976286D02*
X925714Y-1962000D01*
X954286Y-1947714D01*
X997143Y-1947714D01*
X1025714Y-1962000D01*
X1040000Y-1990571D01*
X1040000Y-2147714D01*
X1040000Y-1990571D02*
X1054286Y-1962000D01*
X1082857Y-1947714D01*
X1125714Y-1947714D01*
X1154286Y-1962000D01*
X1168571Y-1990571D01*
X1168571Y-2147714D01*
X1754286Y-1833429D02*
X1497143Y-2219143D01*
X2140000Y-1847714D02*
X2168571Y-1847714D01*
X2197143Y-1862000D01*
X2211428Y-1876286D01*
X2225714Y-1904857D01*
X2240000Y-1962000D01*
X2240000Y-2033429D01*
X2225714Y-2090571D01*
X2211428Y-2119143D01*
X2197143Y-2133429D01*
X2168571Y-2147714D01*
X2140000Y-2147714D01*
X2111428Y-2133429D01*
X2097143Y-2119143D01*
X2082857Y-2090571D01*
X2068571Y-2033429D01*
X2068571Y-1962000D01*
X2082857Y-1904857D01*
X2097143Y-1876286D01*
X2111428Y-1862000D01*
X2140000Y-1847714D01*
X2368571Y-2119143D02*
X2382857Y-2133429D01*
X2368571Y-2147714D01*
X2354286Y-2133429D01*
X2368571Y-2119143D01*
X2368571Y-2147714D01*
X2568571Y-1847714D02*
X2597143Y-1847714D01*
X2625714Y-1862000D01*
X2640000Y-1876286D01*
X2654286Y-1904857D01*
X2668571Y-1962000D01*
X2668571Y-2033429D01*
X2654286Y-2090571D01*
X2640000Y-2119143D01*
X2625714Y-2133429D01*
X2597143Y-2147714D01*
X2568571Y-2147714D01*
X2540000Y-2133429D01*
X2525714Y-2119143D01*
X2511428Y-2090571D01*
X2497143Y-2033429D01*
X2497143Y-1962000D01*
X2511428Y-1904857D01*
X2525714Y-1876286D01*
X2540000Y-1862000D01*
X2568571Y-1847714D01*
X2782857Y-1876286D02*
X2797143Y-1862000D01*
X2825714Y-1847714D01*
X2897143Y-1847714D01*
X2925714Y-1862000D01*
X2940000Y-1876286D01*
X2954285Y-1904857D01*
X2954285Y-1933429D01*
X2940000Y-1976286D01*
X2768571Y-2147714D01*
X2954285Y-2147714D01*
X3211428Y-1947714D02*
X3211428Y-2147714D01*
X3140000Y-1833429D02*
X3068571Y-2047714D01*
X3254285Y-2047714D01*
X3354286Y-1847714D02*
X3354286Y-1904857D01*
X3468571Y-1847714D02*
X3468571Y-1904857D01*
X3911428Y-2262000D02*
X3897143Y-2247714D01*
X3868571Y-2204857D01*
X3854285Y-2176286D01*
X3840000Y-2133429D01*
X3825714Y-2062000D01*
X3825714Y-2004857D01*
X3840000Y-1933429D01*
X3854285Y-1890571D01*
X3868571Y-1862000D01*
X3897143Y-1819143D01*
X3911428Y-1804857D01*
X4182857Y-2147714D02*
X4011428Y-2147714D01*
X4097143Y-2147714D02*
X4097143Y-1847714D01*
X4068571Y-1890571D01*
X4040000Y-1919143D01*
X4011428Y-1933429D01*
X4354286Y-1976286D02*
X4325714Y-1962000D01*
X4311428Y-1947714D01*
X4297143Y-1919143D01*
X4297143Y-1904857D01*
X4311428Y-1876286D01*
X4325714Y-1862000D01*
X4354286Y-1847714D01*
X4411428Y-1847714D01*
X4440000Y-1862000D01*
X4454286Y-1876286D01*
X4468571Y-1904857D01*
X4468571Y-1919143D01*
X4454286Y-1947714D01*
X4440000Y-1962000D01*
X4411428Y-1976286D01*
X4354286Y-1976286D01*
X4325714Y-1990571D01*
X4311428Y-2004857D01*
X4297143Y-2033429D01*
X4297143Y-2090571D01*
X4311428Y-2119143D01*
X4325714Y-2133429D01*
X4354286Y-2147714D01*
X4411428Y-2147714D01*
X4440000Y-2133429D01*
X4454286Y-2119143D01*
X4468571Y-2090571D01*
X4468571Y-2033429D01*
X4454286Y-2004857D01*
X4440000Y-1990571D01*
X4411428Y-1976286D01*
X4825714Y-2147714D02*
X4825714Y-1847714D01*
X4954286Y-2147714D02*
X4954286Y-1990571D01*
X4940000Y-1962000D01*
X4911428Y-1947714D01*
X4868571Y-1947714D01*
X4840000Y-1962000D01*
X4825714Y-1976286D01*
X5140000Y-2147714D02*
X5111428Y-2133429D01*
X5097143Y-2119143D01*
X5082857Y-2090571D01*
X5082857Y-2004857D01*
X5097143Y-1976286D01*
X5111428Y-1962000D01*
X5140000Y-1947714D01*
X5182857Y-1947714D01*
X5211428Y-1962000D01*
X5225714Y-1976286D01*
X5240000Y-2004857D01*
X5240000Y-2090571D01*
X5225714Y-2119143D01*
X5211428Y-2133429D01*
X5182857Y-2147714D01*
X5140000Y-2147714D01*
X5411428Y-2147714D02*
X5382857Y-2133429D01*
X5368571Y-2104857D01*
X5368571Y-1847714D01*
X5640000Y-2133429D02*
X5611428Y-2147714D01*
X5554286Y-2147714D01*
X5525714Y-2133429D01*
X5511429Y-2104857D01*
X5511429Y-1990571D01*
X5525714Y-1962000D01*
X5554286Y-1947714D01*
X5611428Y-1947714D01*
X5640000Y-1962000D01*
X5654286Y-1990571D01*
X5654286Y-2019143D01*
X5511429Y-2047714D01*
X5768571Y-2133429D02*
X5797143Y-2147714D01*
X5854286Y-2147714D01*
X5882857Y-2133429D01*
X5897143Y-2104857D01*
X5897143Y-2090571D01*
X5882857Y-2062000D01*
X5854286Y-2047714D01*
X5811428Y-2047714D01*
X5782857Y-2033429D01*
X5768571Y-2004857D01*
X5768571Y-1990571D01*
X5782857Y-1962000D01*
X5811428Y-1947714D01*
X5854286Y-1947714D01*
X5882857Y-1962000D01*
X5997143Y-2262000D02*
X6011428Y-2247714D01*
X6040000Y-2204857D01*
X6054286Y-2176286D01*
X6068571Y-2133429D01*
X6082857Y-2062000D01*
X6082857Y-2004857D01*
X6068571Y-1933429D01*
X6054286Y-1890571D01*
X6040000Y-1862000D01*
X6011428Y-1819143D01*
X5997143Y-1804857D01*
X-771716Y-2436285D02*
X-771716Y-2379716D01*
X-828285Y-2379716D01*
X-828285Y-2436285D01*
X-771716Y-2436285D01*
X-431429Y-2243714D02*
X-402857Y-2243714D01*
X-374286Y-2258000D01*
X-360000Y-2272286D01*
X-345714Y-2300857D01*
X-331429Y-2358000D01*
X-331429Y-2429429D01*
X-345714Y-2486572D01*
X-360000Y-2515143D01*
X-374286Y-2529429D01*
X-402857Y-2543714D01*
X-431429Y-2543714D01*
X-460000Y-2529429D01*
X-474286Y-2515143D01*
X-488571Y-2486572D01*
X-502857Y-2429429D01*
X-502857Y-2358000D01*
X-488571Y-2300857D01*
X-474286Y-2272286D01*
X-460000Y-2258000D01*
X-431429Y-2243714D01*
X-202857Y-2515143D02*
X-188571Y-2529429D01*
X-202857Y-2543714D01*
X-217143Y-2529429D01*
X-202857Y-2515143D01*
X-202857Y-2543714D01*
X-17143Y-2372286D02*
X-45714Y-2358000D01*
X-60000Y-2343714D01*
X-74286Y-2315143D01*
X-74286Y-2300857D01*
X-60000Y-2272286D01*
X-45714Y-2258000D01*
X-17143Y-2243714D01*
X40000Y-2243714D01*
X68571Y-2258000D01*
X82857Y-2272286D01*
X97143Y-2300857D01*
X97143Y-2315143D01*
X82857Y-2343714D01*
X68571Y-2358000D01*
X40000Y-2372286D01*
X-17143Y-2372286D01*
X-45714Y-2386572D01*
X-60000Y-2400857D01*
X-74286Y-2429429D01*
X-74286Y-2486572D01*
X-60000Y-2515143D01*
X-45714Y-2529429D01*
X-17143Y-2543714D01*
X40000Y-2543714D01*
X68571Y-2529429D01*
X82857Y-2515143D01*
X97143Y-2486572D01*
X97143Y-2429429D01*
X82857Y-2400857D01*
X68571Y-2386572D01*
X40000Y-2372286D01*
X282857Y-2243714D02*
X311429Y-2243714D01*
X340000Y-2258000D01*
X354286Y-2272286D01*
X368571Y-2300857D01*
X382857Y-2358000D01*
X382857Y-2429429D01*
X368571Y-2486572D01*
X354286Y-2515143D01*
X340000Y-2529429D01*
X311429Y-2543714D01*
X282857Y-2543714D01*
X254286Y-2529429D01*
X240000Y-2515143D01*
X225714Y-2486572D01*
X211428Y-2429429D01*
X211428Y-2358000D01*
X225714Y-2300857D01*
X240000Y-2272286D01*
X254286Y-2258000D01*
X282857Y-2243714D01*
X511428Y-2543714D02*
X511428Y-2343714D01*
X511428Y-2372286D02*
X525714Y-2358000D01*
X554286Y-2343714D01*
X597143Y-2343714D01*
X625714Y-2358000D01*
X640000Y-2386572D01*
X640000Y-2543714D01*
X640000Y-2386572D02*
X654286Y-2358000D01*
X682857Y-2343714D01*
X725714Y-2343714D01*
X754286Y-2358000D01*
X768571Y-2386572D01*
X768571Y-2543714D01*
X911428Y-2543714D02*
X911428Y-2343714D01*
X911428Y-2372286D02*
X925714Y-2358000D01*
X954286Y-2343714D01*
X997143Y-2343714D01*
X1025714Y-2358000D01*
X1040000Y-2386572D01*
X1040000Y-2543714D01*
X1040000Y-2386572D02*
X1054286Y-2358000D01*
X1082857Y-2343714D01*
X1125714Y-2343714D01*
X1154286Y-2358000D01*
X1168571Y-2386572D01*
X1168571Y-2543714D01*
X1754286Y-2229429D02*
X1497143Y-2615143D01*
X2140000Y-2243714D02*
X2168571Y-2243714D01*
X2197143Y-2258000D01*
X2211428Y-2272286D01*
X2225714Y-2300857D01*
X2240000Y-2358000D01*
X2240000Y-2429429D01*
X2225714Y-2486572D01*
X2211428Y-2515143D01*
X2197143Y-2529429D01*
X2168571Y-2543714D01*
X2140000Y-2543714D01*
X2111428Y-2529429D01*
X2097143Y-2515143D01*
X2082857Y-2486572D01*
X2068571Y-2429429D01*
X2068571Y-2358000D01*
X2082857Y-2300857D01*
X2097143Y-2272286D01*
X2111428Y-2258000D01*
X2140000Y-2243714D01*
X2368571Y-2515143D02*
X2382857Y-2529429D01*
X2368571Y-2543714D01*
X2354286Y-2529429D01*
X2368571Y-2515143D01*
X2368571Y-2543714D01*
X2568571Y-2243714D02*
X2597143Y-2243714D01*
X2625714Y-2258000D01*
X2640000Y-2272286D01*
X2654286Y-2300857D01*
X2668571Y-2358000D01*
X2668571Y-2429429D01*
X2654286Y-2486572D01*
X2640000Y-2515143D01*
X2625714Y-2529429D01*
X2597143Y-2543714D01*
X2568571Y-2543714D01*
X2540000Y-2529429D01*
X2525714Y-2515143D01*
X2511428Y-2486572D01*
X2497143Y-2429429D01*
X2497143Y-2358000D01*
X2511428Y-2300857D01*
X2525714Y-2272286D01*
X2540000Y-2258000D01*
X2568571Y-2243714D01*
X2768571Y-2243714D02*
X2954285Y-2243714D01*
X2854285Y-2358000D01*
X2897143Y-2358000D01*
X2925714Y-2372286D01*
X2940000Y-2386572D01*
X2954285Y-2415143D01*
X2954285Y-2486572D01*
X2940000Y-2515143D01*
X2925714Y-2529429D01*
X2897143Y-2543714D01*
X2811428Y-2543714D01*
X2782857Y-2529429D01*
X2768571Y-2515143D01*
X3240000Y-2543714D02*
X3068571Y-2543714D01*
X3154285Y-2543714D02*
X3154285Y-2243714D01*
X3125714Y-2286572D01*
X3097143Y-2315143D01*
X3068571Y-2329429D01*
X3354286Y-2243714D02*
X3354286Y-2300857D01*
X3468571Y-2243714D02*
X3468571Y-2300857D01*
X3911428Y-2658000D02*
X3897143Y-2643714D01*
X3868571Y-2600857D01*
X3854285Y-2572286D01*
X3840000Y-2529429D01*
X3825714Y-2458000D01*
X3825714Y-2400857D01*
X3840000Y-2329429D01*
X3854285Y-2286572D01*
X3868571Y-2258000D01*
X3897143Y-2215143D01*
X3911428Y-2200857D01*
X4182857Y-2543714D02*
X4011428Y-2543714D01*
X4097143Y-2543714D02*
X4097143Y-2243714D01*
X4068571Y-2286572D01*
X4040000Y-2315143D01*
X4011428Y-2329429D01*
X4540000Y-2543714D02*
X4540000Y-2243714D01*
X4668571Y-2543714D02*
X4668571Y-2386572D01*
X4654286Y-2358000D01*
X4625714Y-2343714D01*
X4582857Y-2343714D01*
X4554286Y-2358000D01*
X4540000Y-2372286D01*
X4854286Y-2543714D02*
X4825714Y-2529429D01*
X4811428Y-2515143D01*
X4797143Y-2486572D01*
X4797143Y-2400857D01*
X4811428Y-2372286D01*
X4825714Y-2358000D01*
X4854286Y-2343714D01*
X4897143Y-2343714D01*
X4925714Y-2358000D01*
X4940000Y-2372286D01*
X4954286Y-2400857D01*
X4954286Y-2486572D01*
X4940000Y-2515143D01*
X4925714Y-2529429D01*
X4897143Y-2543714D01*
X4854286Y-2543714D01*
X5125714Y-2543714D02*
X5097143Y-2529429D01*
X5082857Y-2500857D01*
X5082857Y-2243714D01*
X5354286Y-2529429D02*
X5325714Y-2543714D01*
X5268571Y-2543714D01*
X5240000Y-2529429D01*
X5225714Y-2500857D01*
X5225714Y-2386572D01*
X5240000Y-2358000D01*
X5268571Y-2343714D01*
X5325714Y-2343714D01*
X5354286Y-2358000D01*
X5368571Y-2386572D01*
X5368571Y-2415143D01*
X5225714Y-2443714D01*
X5468571Y-2658000D02*
X5482857Y-2643714D01*
X5511429Y-2600857D01*
X5525714Y-2572286D01*
X5540000Y-2529429D01*
X5554286Y-2458000D01*
X5554286Y-2400857D01*
X5540000Y-2329429D01*
X5525714Y-2286572D01*
X5511429Y-2258000D01*
X5482857Y-2215143D01*
X5468571Y-2200857D01*
X-810000Y-2854000D02*
X-760000Y-2804000D01*
X-810000Y-2754000D01*
X-860000Y-2804000D01*
X-810000Y-2854000D01*
X-331429Y-2939714D02*
X-502857Y-2939714D01*
X-417143Y-2939714D02*
X-417143Y-2639714D01*
X-445714Y-2682572D01*
X-474286Y-2711143D01*
X-502857Y-2725429D01*
X-202857Y-2911143D02*
X-188571Y-2925429D01*
X-202857Y-2939714D01*
X-217143Y-2925429D01*
X-202857Y-2911143D01*
X-202857Y-2939714D01*
X-2857Y-2639714D02*
X25714Y-2639714D01*
X54286Y-2654000D01*
X68571Y-2668286D01*
X82857Y-2696857D01*
X97143Y-2754000D01*
X97143Y-2825429D01*
X82857Y-2882571D01*
X68571Y-2911143D01*
X54286Y-2925429D01*
X25714Y-2939714D01*
X-2857Y-2939714D01*
X-31429Y-2925429D01*
X-45714Y-2911143D01*
X-60000Y-2882571D01*
X-74286Y-2825429D01*
X-74286Y-2754000D01*
X-60000Y-2696857D01*
X-45714Y-2668286D01*
X-31429Y-2654000D01*
X-2857Y-2639714D01*
X282857Y-2639714D02*
X311429Y-2639714D01*
X340000Y-2654000D01*
X354286Y-2668286D01*
X368571Y-2696857D01*
X382857Y-2754000D01*
X382857Y-2825429D01*
X368571Y-2882571D01*
X354286Y-2911143D01*
X340000Y-2925429D01*
X311429Y-2939714D01*
X282857Y-2939714D01*
X254286Y-2925429D01*
X240000Y-2911143D01*
X225714Y-2882571D01*
X211428Y-2825429D01*
X211428Y-2754000D01*
X225714Y-2696857D01*
X240000Y-2668286D01*
X254286Y-2654000D01*
X282857Y-2639714D01*
X511428Y-2939714D02*
X511428Y-2739714D01*
X511428Y-2768286D02*
X525714Y-2754000D01*
X554286Y-2739714D01*
X597143Y-2739714D01*
X625714Y-2754000D01*
X640000Y-2782572D01*
X640000Y-2939714D01*
X640000Y-2782572D02*
X654286Y-2754000D01*
X682857Y-2739714D01*
X725714Y-2739714D01*
X754286Y-2754000D01*
X768571Y-2782572D01*
X768571Y-2939714D01*
X911428Y-2939714D02*
X911428Y-2739714D01*
X911428Y-2768286D02*
X925714Y-2754000D01*
X954286Y-2739714D01*
X997143Y-2739714D01*
X1025714Y-2754000D01*
X1040000Y-2782572D01*
X1040000Y-2939714D01*
X1040000Y-2782572D02*
X1054286Y-2754000D01*
X1082857Y-2739714D01*
X1125714Y-2739714D01*
X1154286Y-2754000D01*
X1168571Y-2782572D01*
X1168571Y-2939714D01*
X1754286Y-2625429D02*
X1497143Y-3011143D01*
X2140000Y-2639714D02*
X2168571Y-2639714D01*
X2197143Y-2654000D01*
X2211428Y-2668286D01*
X2225714Y-2696857D01*
X2240000Y-2754000D01*
X2240000Y-2825429D01*
X2225714Y-2882571D01*
X2211428Y-2911143D01*
X2197143Y-2925429D01*
X2168571Y-2939714D01*
X2140000Y-2939714D01*
X2111428Y-2925429D01*
X2097143Y-2911143D01*
X2082857Y-2882571D01*
X2068571Y-2825429D01*
X2068571Y-2754000D01*
X2082857Y-2696857D01*
X2097143Y-2668286D01*
X2111428Y-2654000D01*
X2140000Y-2639714D01*
X2368571Y-2911143D02*
X2382857Y-2925429D01*
X2368571Y-2939714D01*
X2354286Y-2925429D01*
X2368571Y-2911143D01*
X2368571Y-2939714D01*
X2568571Y-2639714D02*
X2597143Y-2639714D01*
X2625714Y-2654000D01*
X2640000Y-2668286D01*
X2654286Y-2696857D01*
X2668571Y-2754000D01*
X2668571Y-2825429D01*
X2654286Y-2882571D01*
X2640000Y-2911143D01*
X2625714Y-2925429D01*
X2597143Y-2939714D01*
X2568571Y-2939714D01*
X2540000Y-2925429D01*
X2525714Y-2911143D01*
X2511428Y-2882571D01*
X2497143Y-2825429D01*
X2497143Y-2754000D01*
X2511428Y-2696857D01*
X2525714Y-2668286D01*
X2540000Y-2654000D01*
X2568571Y-2639714D01*
X2768571Y-2639714D02*
X2954285Y-2639714D01*
X2854285Y-2754000D01*
X2897143Y-2754000D01*
X2925714Y-2768286D01*
X2940000Y-2782572D01*
X2954285Y-2811143D01*
X2954285Y-2882571D01*
X2940000Y-2911143D01*
X2925714Y-2925429D01*
X2897143Y-2939714D01*
X2811428Y-2939714D01*
X2782857Y-2925429D01*
X2768571Y-2911143D01*
X3097143Y-2939714D02*
X3154285Y-2939714D01*
X3182857Y-2925429D01*
X3197143Y-2911143D01*
X3225714Y-2868286D01*
X3240000Y-2811143D01*
X3240000Y-2696857D01*
X3225714Y-2668286D01*
X3211428Y-2654000D01*
X3182857Y-2639714D01*
X3125714Y-2639714D01*
X3097143Y-2654000D01*
X3082857Y-2668286D01*
X3068571Y-2696857D01*
X3068571Y-2768286D01*
X3082857Y-2796857D01*
X3097143Y-2811143D01*
X3125714Y-2825429D01*
X3182857Y-2825429D01*
X3211428Y-2811143D01*
X3225714Y-2796857D01*
X3240000Y-2768286D01*
X3354286Y-2639714D02*
X3354286Y-2696857D01*
X3468571Y-2639714D02*
X3468571Y-2696857D01*
X3911428Y-3054000D02*
X3897143Y-3039714D01*
X3868571Y-2996857D01*
X3854285Y-2968286D01*
X3840000Y-2925429D01*
X3825714Y-2854000D01*
X3825714Y-2796857D01*
X3840000Y-2725429D01*
X3854285Y-2682572D01*
X3868571Y-2654000D01*
X3897143Y-2611143D01*
X3911428Y-2596857D01*
X4182857Y-2939714D02*
X4011428Y-2939714D01*
X4097143Y-2939714D02*
X4097143Y-2639714D01*
X4068571Y-2682572D01*
X4040000Y-2711143D01*
X4011428Y-2725429D01*
X4297143Y-2668286D02*
X4311428Y-2654000D01*
X4340000Y-2639714D01*
X4411428Y-2639714D01*
X4440000Y-2654000D01*
X4454286Y-2668286D01*
X4468571Y-2696857D01*
X4468571Y-2725429D01*
X4454286Y-2768286D01*
X4282857Y-2939714D01*
X4468571Y-2939714D01*
X4825714Y-2939714D02*
X4825714Y-2639714D01*
X4954286Y-2939714D02*
X4954286Y-2782572D01*
X4940000Y-2754000D01*
X4911428Y-2739714D01*
X4868571Y-2739714D01*
X4840000Y-2754000D01*
X4825714Y-2768286D01*
X5140000Y-2939714D02*
X5111428Y-2925429D01*
X5097143Y-2911143D01*
X5082857Y-2882571D01*
X5082857Y-2796857D01*
X5097143Y-2768286D01*
X5111428Y-2754000D01*
X5140000Y-2739714D01*
X5182857Y-2739714D01*
X5211428Y-2754000D01*
X5225714Y-2768286D01*
X5240000Y-2796857D01*
X5240000Y-2882571D01*
X5225714Y-2911143D01*
X5211428Y-2925429D01*
X5182857Y-2939714D01*
X5140000Y-2939714D01*
X5411428Y-2939714D02*
X5382857Y-2925429D01*
X5368571Y-2896857D01*
X5368571Y-2639714D01*
X5640000Y-2925429D02*
X5611428Y-2939714D01*
X5554286Y-2939714D01*
X5525714Y-2925429D01*
X5511429Y-2896857D01*
X5511429Y-2782572D01*
X5525714Y-2754000D01*
X5554286Y-2739714D01*
X5611428Y-2739714D01*
X5640000Y-2754000D01*
X5654286Y-2782572D01*
X5654286Y-2811143D01*
X5511429Y-2839714D01*
X5768571Y-2925429D02*
X5797143Y-2939714D01*
X5854286Y-2939714D01*
X5882857Y-2925429D01*
X5897143Y-2896857D01*
X5897143Y-2882571D01*
X5882857Y-2854000D01*
X5854286Y-2839714D01*
X5811428Y-2839714D01*
X5782857Y-2825429D01*
X5768571Y-2796857D01*
X5768571Y-2782572D01*
X5782857Y-2754000D01*
X5811428Y-2739714D01*
X5854286Y-2739714D01*
X5882857Y-2754000D01*
X5997143Y-3054000D02*
X6011428Y-3039714D01*
X6040000Y-2996857D01*
X6054286Y-2968286D01*
X6068571Y-2925429D01*
X6082857Y-2854000D01*
X6082857Y-2796857D01*
X6068571Y-2725429D01*
X6054286Y-2682572D01*
X6040000Y-2654000D01*
X6011428Y-2611143D01*
X5997143Y-2596857D01*
X-861600Y-3149200D02*
X-760000Y-3250800D01*
X-760000Y-3149200D02*
X-861600Y-3250800D01*
X-760000Y-3200000D02*
G75*
G03X-760000Y-3200000I-50800J0D01*
G01*
X-331429Y-3335714D02*
X-502857Y-3335714D01*
X-417143Y-3335714D02*
X-417143Y-3035714D01*
X-445714Y-3078571D01*
X-474286Y-3107143D01*
X-502857Y-3121429D01*
X-202857Y-3307143D02*
X-188571Y-3321429D01*
X-202857Y-3335714D01*
X-217143Y-3321429D01*
X-202857Y-3307143D01*
X-202857Y-3335714D01*
X-2857Y-3035714D02*
X25714Y-3035714D01*
X54286Y-3050000D01*
X68571Y-3064286D01*
X82857Y-3092857D01*
X97143Y-3150000D01*
X97143Y-3221429D01*
X82857Y-3278571D01*
X68571Y-3307143D01*
X54286Y-3321429D01*
X25714Y-3335714D01*
X-2857Y-3335714D01*
X-31429Y-3321429D01*
X-45714Y-3307143D01*
X-60000Y-3278571D01*
X-74286Y-3221429D01*
X-74286Y-3150000D01*
X-60000Y-3092857D01*
X-45714Y-3064286D01*
X-31429Y-3050000D01*
X-2857Y-3035714D01*
X211428Y-3064286D02*
X225714Y-3050000D01*
X254286Y-3035714D01*
X325714Y-3035714D01*
X354286Y-3050000D01*
X368571Y-3064286D01*
X382857Y-3092857D01*
X382857Y-3121429D01*
X368571Y-3164286D01*
X197143Y-3335714D01*
X382857Y-3335714D01*
X511428Y-3335714D02*
X511428Y-3135714D01*
X511428Y-3164286D02*
X525714Y-3150000D01*
X554286Y-3135714D01*
X597143Y-3135714D01*
X625714Y-3150000D01*
X640000Y-3178571D01*
X640000Y-3335714D01*
X640000Y-3178571D02*
X654286Y-3150000D01*
X682857Y-3135714D01*
X725714Y-3135714D01*
X754286Y-3150000D01*
X768571Y-3178571D01*
X768571Y-3335714D01*
X911428Y-3335714D02*
X911428Y-3135714D01*
X911428Y-3164286D02*
X925714Y-3150000D01*
X954286Y-3135714D01*
X997143Y-3135714D01*
X1025714Y-3150000D01*
X1040000Y-3178571D01*
X1040000Y-3335714D01*
X1040000Y-3178571D02*
X1054286Y-3150000D01*
X1082857Y-3135714D01*
X1125714Y-3135714D01*
X1154286Y-3150000D01*
X1168571Y-3178571D01*
X1168571Y-3335714D01*
X1754286Y-3021429D02*
X1497143Y-3407143D01*
X2140000Y-3035714D02*
X2168571Y-3035714D01*
X2197143Y-3050000D01*
X2211428Y-3064286D01*
X2225714Y-3092857D01*
X2240000Y-3150000D01*
X2240000Y-3221429D01*
X2225714Y-3278571D01*
X2211428Y-3307143D01*
X2197143Y-3321429D01*
X2168571Y-3335714D01*
X2140000Y-3335714D01*
X2111428Y-3321429D01*
X2097143Y-3307143D01*
X2082857Y-3278571D01*
X2068571Y-3221429D01*
X2068571Y-3150000D01*
X2082857Y-3092857D01*
X2097143Y-3064286D01*
X2111428Y-3050000D01*
X2140000Y-3035714D01*
X2368571Y-3307143D02*
X2382857Y-3321429D01*
X2368571Y-3335714D01*
X2354286Y-3321429D01*
X2368571Y-3307143D01*
X2368571Y-3335714D01*
X2568571Y-3035714D02*
X2597143Y-3035714D01*
X2625714Y-3050000D01*
X2640000Y-3064286D01*
X2654286Y-3092857D01*
X2668571Y-3150000D01*
X2668571Y-3221429D01*
X2654286Y-3278571D01*
X2640000Y-3307143D01*
X2625714Y-3321429D01*
X2597143Y-3335714D01*
X2568571Y-3335714D01*
X2540000Y-3321429D01*
X2525714Y-3307143D01*
X2511428Y-3278571D01*
X2497143Y-3221429D01*
X2497143Y-3150000D01*
X2511428Y-3092857D01*
X2525714Y-3064286D01*
X2540000Y-3050000D01*
X2568571Y-3035714D01*
X2925714Y-3135714D02*
X2925714Y-3335714D01*
X2854285Y-3021429D02*
X2782857Y-3235714D01*
X2968571Y-3235714D01*
X3140000Y-3035714D02*
X3168571Y-3035714D01*
X3197143Y-3050000D01*
X3211428Y-3064286D01*
X3225714Y-3092857D01*
X3240000Y-3150000D01*
X3240000Y-3221429D01*
X3225714Y-3278571D01*
X3211428Y-3307143D01*
X3197143Y-3321429D01*
X3168571Y-3335714D01*
X3140000Y-3335714D01*
X3111428Y-3321429D01*
X3097143Y-3307143D01*
X3082857Y-3278571D01*
X3068571Y-3221429D01*
X3068571Y-3150000D01*
X3082857Y-3092857D01*
X3097143Y-3064286D01*
X3111428Y-3050000D01*
X3140000Y-3035714D01*
X3354286Y-3035714D02*
X3354286Y-3092857D01*
X3468571Y-3035714D02*
X3468571Y-3092857D01*
X3911428Y-3450000D02*
X3897143Y-3435714D01*
X3868571Y-3392857D01*
X3854285Y-3364286D01*
X3840000Y-3321429D01*
X3825714Y-3250000D01*
X3825714Y-3192857D01*
X3840000Y-3121429D01*
X3854285Y-3078571D01*
X3868571Y-3050000D01*
X3897143Y-3007143D01*
X3911428Y-2992857D01*
X4154285Y-3035714D02*
X4097143Y-3035714D01*
X4068571Y-3050000D01*
X4054285Y-3064286D01*
X4025714Y-3107143D01*
X4011428Y-3164286D01*
X4011428Y-3278571D01*
X4025714Y-3307143D01*
X4040000Y-3321429D01*
X4068571Y-3335714D01*
X4125714Y-3335714D01*
X4154285Y-3321429D01*
X4168571Y-3307143D01*
X4182857Y-3278571D01*
X4182857Y-3207143D01*
X4168571Y-3178571D01*
X4154285Y-3164286D01*
X4125714Y-3150000D01*
X4068571Y-3150000D01*
X4040000Y-3164286D01*
X4025714Y-3178571D01*
X4011428Y-3207143D01*
X4540000Y-3335714D02*
X4540000Y-3035714D01*
X4668571Y-3335714D02*
X4668571Y-3178571D01*
X4654286Y-3150000D01*
X4625714Y-3135714D01*
X4582857Y-3135714D01*
X4554286Y-3150000D01*
X4540000Y-3164286D01*
X4854286Y-3335714D02*
X4825714Y-3321429D01*
X4811428Y-3307143D01*
X4797143Y-3278571D01*
X4797143Y-3192857D01*
X4811428Y-3164286D01*
X4825714Y-3150000D01*
X4854286Y-3135714D01*
X4897143Y-3135714D01*
X4925714Y-3150000D01*
X4940000Y-3164286D01*
X4954286Y-3192857D01*
X4954286Y-3278571D01*
X4940000Y-3307143D01*
X4925714Y-3321429D01*
X4897143Y-3335714D01*
X4854286Y-3335714D01*
X5125714Y-3335714D02*
X5097143Y-3321429D01*
X5082857Y-3292857D01*
X5082857Y-3035714D01*
X5354286Y-3321429D02*
X5325714Y-3335714D01*
X5268571Y-3335714D01*
X5240000Y-3321429D01*
X5225714Y-3292857D01*
X5225714Y-3178571D01*
X5240000Y-3150000D01*
X5268571Y-3135714D01*
X5325714Y-3135714D01*
X5354286Y-3150000D01*
X5368571Y-3178571D01*
X5368571Y-3207143D01*
X5225714Y-3235714D01*
X5482857Y-3321429D02*
X5511429Y-3335714D01*
X5568571Y-3335714D01*
X5597143Y-3321429D01*
X5611428Y-3292857D01*
X5611428Y-3278571D01*
X5597143Y-3250000D01*
X5568571Y-3235714D01*
X5525714Y-3235714D01*
X5497143Y-3221429D01*
X5482857Y-3192857D01*
X5482857Y-3178571D01*
X5497143Y-3150000D01*
X5525714Y-3135714D01*
X5568571Y-3135714D01*
X5597143Y-3150000D01*
X5711428Y-3450000D02*
X5725714Y-3435714D01*
X5754286Y-3392857D01*
X5768571Y-3364286D01*
X5782857Y-3321429D01*
X5797143Y-3250000D01*
X5797143Y-3192857D01*
X5782857Y-3121429D01*
X5768571Y-3078571D01*
X5754286Y-3050000D01*
X5725714Y-3007143D01*
X5711428Y-2992857D01*
X-869728Y-3541136D02*
X-760000Y-3650864D01*
X-760000Y-3541136D02*
X-869728Y-3650864D01*
X-814864Y-3541136D02*
X-814864Y-3650864D01*
X-869728Y-3596000D02*
X-760000Y-3596000D01*
X-331429Y-3731714D02*
X-502857Y-3731714D01*
X-417143Y-3731714D02*
X-417143Y-3431714D01*
X-445714Y-3474571D01*
X-474286Y-3503143D01*
X-502857Y-3517429D01*
X-202857Y-3703143D02*
X-188571Y-3717429D01*
X-202857Y-3731714D01*
X-217143Y-3717429D01*
X-202857Y-3703143D01*
X-202857Y-3731714D01*
X97143Y-3731714D02*
X-74286Y-3731714D01*
X11428Y-3731714D02*
X11428Y-3431714D01*
X-17143Y-3474571D01*
X-45714Y-3503143D01*
X-74286Y-3517429D01*
X282857Y-3431714D02*
X311429Y-3431714D01*
X340000Y-3446000D01*
X354286Y-3460286D01*
X368571Y-3488857D01*
X382857Y-3546000D01*
X382857Y-3617429D01*
X368571Y-3674571D01*
X354286Y-3703143D01*
X340000Y-3717429D01*
X311429Y-3731714D01*
X282857Y-3731714D01*
X254286Y-3717429D01*
X240000Y-3703143D01*
X225714Y-3674571D01*
X211428Y-3617429D01*
X211428Y-3546000D01*
X225714Y-3488857D01*
X240000Y-3460286D01*
X254286Y-3446000D01*
X282857Y-3431714D01*
X511428Y-3731714D02*
X511428Y-3531714D01*
X511428Y-3560286D02*
X525714Y-3546000D01*
X554286Y-3531714D01*
X597143Y-3531714D01*
X625714Y-3546000D01*
X640000Y-3574571D01*
X640000Y-3731714D01*
X640000Y-3574571D02*
X654286Y-3546000D01*
X682857Y-3531714D01*
X725714Y-3531714D01*
X754286Y-3546000D01*
X768571Y-3574571D01*
X768571Y-3731714D01*
X911428Y-3731714D02*
X911428Y-3531714D01*
X911428Y-3560286D02*
X925714Y-3546000D01*
X954286Y-3531714D01*
X997143Y-3531714D01*
X1025714Y-3546000D01*
X1040000Y-3574571D01*
X1040000Y-3731714D01*
X1040000Y-3574571D02*
X1054286Y-3546000D01*
X1082857Y-3531714D01*
X1125714Y-3531714D01*
X1154286Y-3546000D01*
X1168571Y-3574571D01*
X1168571Y-3731714D01*
X1754286Y-3417429D02*
X1497143Y-3803143D01*
X2140000Y-3431714D02*
X2168571Y-3431714D01*
X2197143Y-3446000D01*
X2211428Y-3460286D01*
X2225714Y-3488857D01*
X2240000Y-3546000D01*
X2240000Y-3617429D01*
X2225714Y-3674571D01*
X2211428Y-3703143D01*
X2197143Y-3717429D01*
X2168571Y-3731714D01*
X2140000Y-3731714D01*
X2111428Y-3717429D01*
X2097143Y-3703143D01*
X2082857Y-3674571D01*
X2068571Y-3617429D01*
X2068571Y-3546000D01*
X2082857Y-3488857D01*
X2097143Y-3460286D01*
X2111428Y-3446000D01*
X2140000Y-3431714D01*
X2368571Y-3703143D02*
X2382857Y-3717429D01*
X2368571Y-3731714D01*
X2354286Y-3717429D01*
X2368571Y-3703143D01*
X2368571Y-3731714D01*
X2568571Y-3431714D02*
X2597143Y-3431714D01*
X2625714Y-3446000D01*
X2640000Y-3460286D01*
X2654286Y-3488857D01*
X2668571Y-3546000D01*
X2668571Y-3617429D01*
X2654286Y-3674571D01*
X2640000Y-3703143D01*
X2625714Y-3717429D01*
X2597143Y-3731714D01*
X2568571Y-3731714D01*
X2540000Y-3717429D01*
X2525714Y-3703143D01*
X2511428Y-3674571D01*
X2497143Y-3617429D01*
X2497143Y-3546000D01*
X2511428Y-3488857D01*
X2525714Y-3460286D01*
X2540000Y-3446000D01*
X2568571Y-3431714D01*
X2925714Y-3531714D02*
X2925714Y-3731714D01*
X2854285Y-3417429D02*
X2782857Y-3631714D01*
X2968571Y-3631714D01*
X3054285Y-3431714D02*
X3240000Y-3431714D01*
X3140000Y-3546000D01*
X3182857Y-3546000D01*
X3211428Y-3560286D01*
X3225714Y-3574571D01*
X3240000Y-3603143D01*
X3240000Y-3674571D01*
X3225714Y-3703143D01*
X3211428Y-3717429D01*
X3182857Y-3731714D01*
X3097143Y-3731714D01*
X3068571Y-3717429D01*
X3054285Y-3703143D01*
X3354286Y-3431714D02*
X3354286Y-3488857D01*
X3468571Y-3431714D02*
X3468571Y-3488857D01*
X3911428Y-3846000D02*
X3897143Y-3831714D01*
X3868571Y-3788857D01*
X3854285Y-3760286D01*
X3840000Y-3717429D01*
X3825714Y-3646000D01*
X3825714Y-3588857D01*
X3840000Y-3517429D01*
X3854285Y-3474571D01*
X3868571Y-3446000D01*
X3897143Y-3403143D01*
X3911428Y-3388857D01*
X4182857Y-3731714D02*
X4011428Y-3731714D01*
X4097143Y-3731714D02*
X4097143Y-3431714D01*
X4068571Y-3474571D01*
X4040000Y-3503143D01*
X4011428Y-3517429D01*
X4440000Y-3531714D02*
X4440000Y-3731714D01*
X4368571Y-3417429D02*
X4297143Y-3631714D01*
X4482857Y-3631714D01*
X4825714Y-3731714D02*
X4825714Y-3431714D01*
X4954286Y-3731714D02*
X4954286Y-3574571D01*
X4940000Y-3546000D01*
X4911428Y-3531714D01*
X4868571Y-3531714D01*
X4840000Y-3546000D01*
X4825714Y-3560286D01*
X5140000Y-3731714D02*
X5111428Y-3717429D01*
X5097143Y-3703143D01*
X5082857Y-3674571D01*
X5082857Y-3588857D01*
X5097143Y-3560286D01*
X5111428Y-3546000D01*
X5140000Y-3531714D01*
X5182857Y-3531714D01*
X5211428Y-3546000D01*
X5225714Y-3560286D01*
X5240000Y-3588857D01*
X5240000Y-3674571D01*
X5225714Y-3703143D01*
X5211428Y-3717429D01*
X5182857Y-3731714D01*
X5140000Y-3731714D01*
X5411428Y-3731714D02*
X5382857Y-3717429D01*
X5368571Y-3688857D01*
X5368571Y-3431714D01*
X5640000Y-3717429D02*
X5611428Y-3731714D01*
X5554286Y-3731714D01*
X5525714Y-3717429D01*
X5511429Y-3688857D01*
X5511429Y-3574571D01*
X5525714Y-3546000D01*
X5554286Y-3531714D01*
X5611428Y-3531714D01*
X5640000Y-3546000D01*
X5654286Y-3574571D01*
X5654286Y-3603143D01*
X5511429Y-3631714D01*
X5768571Y-3717429D02*
X5797143Y-3731714D01*
X5854286Y-3731714D01*
X5882857Y-3717429D01*
X5897143Y-3688857D01*
X5897143Y-3674571D01*
X5882857Y-3646000D01*
X5854286Y-3631714D01*
X5811428Y-3631714D01*
X5782857Y-3617429D01*
X5768571Y-3588857D01*
X5768571Y-3574571D01*
X5782857Y-3546000D01*
X5811428Y-3531714D01*
X5854286Y-3531714D01*
X5882857Y-3546000D01*
X5997143Y-3846000D02*
X6011428Y-3831714D01*
X6040000Y-3788857D01*
X6054286Y-3760286D01*
X6068571Y-3717429D01*
X6082857Y-3646000D01*
X6082857Y-3588857D01*
X6068571Y-3517429D01*
X6054286Y-3474571D01*
X6040000Y-3446000D01*
X6011428Y-3403143D01*
X5997143Y-3388857D01*
X-880000Y-3932000D02*
X-760000Y-4052000D01*
X-760000Y-3932000D02*
X-880000Y-4052000D01*
X-777573Y-4034427D02*
X-777573Y-3949573D01*
X-862427Y-3949573D01*
X-862427Y-4034427D01*
X-777573Y-4034427D01*
X-331429Y-4127714D02*
X-502857Y-4127714D01*
X-417143Y-4127714D02*
X-417143Y-3827714D01*
X-445714Y-3870571D01*
X-474286Y-3899143D01*
X-502857Y-3913429D01*
X-202857Y-4099143D02*
X-188571Y-4113429D01*
X-202857Y-4127714D01*
X-217143Y-4113429D01*
X-202857Y-4099143D01*
X-202857Y-4127714D01*
X-74286Y-3856286D02*
X-60000Y-3842000D01*
X-31429Y-3827714D01*
X40000Y-3827714D01*
X68571Y-3842000D01*
X82857Y-3856286D01*
X97143Y-3884857D01*
X97143Y-3913429D01*
X82857Y-3956286D01*
X-88572Y-4127714D01*
X97143Y-4127714D01*
X282857Y-3827714D02*
X311429Y-3827714D01*
X340000Y-3842000D01*
X354286Y-3856286D01*
X368571Y-3884857D01*
X382857Y-3942000D01*
X382857Y-4013429D01*
X368571Y-4070571D01*
X354286Y-4099143D01*
X340000Y-4113429D01*
X311429Y-4127714D01*
X282857Y-4127714D01*
X254286Y-4113429D01*
X240000Y-4099143D01*
X225714Y-4070571D01*
X211428Y-4013429D01*
X211428Y-3942000D01*
X225714Y-3884857D01*
X240000Y-3856286D01*
X254286Y-3842000D01*
X282857Y-3827714D01*
X511428Y-4127714D02*
X511428Y-3927714D01*
X511428Y-3956286D02*
X525714Y-3942000D01*
X554286Y-3927714D01*
X597143Y-3927714D01*
X625714Y-3942000D01*
X640000Y-3970571D01*
X640000Y-4127714D01*
X640000Y-3970571D02*
X654286Y-3942000D01*
X682857Y-3927714D01*
X725714Y-3927714D01*
X754286Y-3942000D01*
X768571Y-3970571D01*
X768571Y-4127714D01*
X911428Y-4127714D02*
X911428Y-3927714D01*
X911428Y-3956286D02*
X925714Y-3942000D01*
X954286Y-3927714D01*
X997143Y-3927714D01*
X1025714Y-3942000D01*
X1040000Y-3970571D01*
X1040000Y-4127714D01*
X1040000Y-3970571D02*
X1054286Y-3942000D01*
X1082857Y-3927714D01*
X1125714Y-3927714D01*
X1154286Y-3942000D01*
X1168571Y-3970571D01*
X1168571Y-4127714D01*
X1754286Y-3813429D02*
X1497143Y-4199143D01*
X2140000Y-3827714D02*
X2168571Y-3827714D01*
X2197143Y-3842000D01*
X2211428Y-3856286D01*
X2225714Y-3884857D01*
X2240000Y-3942000D01*
X2240000Y-4013429D01*
X2225714Y-4070571D01*
X2211428Y-4099143D01*
X2197143Y-4113429D01*
X2168571Y-4127714D01*
X2140000Y-4127714D01*
X2111428Y-4113429D01*
X2097143Y-4099143D01*
X2082857Y-4070571D01*
X2068571Y-4013429D01*
X2068571Y-3942000D01*
X2082857Y-3884857D01*
X2097143Y-3856286D01*
X2111428Y-3842000D01*
X2140000Y-3827714D01*
X2368571Y-4099143D02*
X2382857Y-4113429D01*
X2368571Y-4127714D01*
X2354286Y-4113429D01*
X2368571Y-4099143D01*
X2368571Y-4127714D01*
X2568571Y-3827714D02*
X2597143Y-3827714D01*
X2625714Y-3842000D01*
X2640000Y-3856286D01*
X2654286Y-3884857D01*
X2668571Y-3942000D01*
X2668571Y-4013429D01*
X2654286Y-4070571D01*
X2640000Y-4099143D01*
X2625714Y-4113429D01*
X2597143Y-4127714D01*
X2568571Y-4127714D01*
X2540000Y-4113429D01*
X2525714Y-4099143D01*
X2511428Y-4070571D01*
X2497143Y-4013429D01*
X2497143Y-3942000D01*
X2511428Y-3884857D01*
X2525714Y-3856286D01*
X2540000Y-3842000D01*
X2568571Y-3827714D01*
X2925714Y-3927714D02*
X2925714Y-4127714D01*
X2854285Y-3813429D02*
X2782857Y-4027714D01*
X2968571Y-4027714D01*
X3054285Y-3827714D02*
X3254285Y-3827714D01*
X3125714Y-4127714D01*
X3354286Y-3827714D02*
X3354286Y-3884857D01*
X3468571Y-3827714D02*
X3468571Y-3884857D01*
X3911428Y-4242000D02*
X3897143Y-4227714D01*
X3868571Y-4184857D01*
X3854285Y-4156286D01*
X3840000Y-4113429D01*
X3825714Y-4042000D01*
X3825714Y-3984857D01*
X3840000Y-3913429D01*
X3854285Y-3870571D01*
X3868571Y-3842000D01*
X3897143Y-3799143D01*
X3911428Y-3784857D01*
X4011428Y-3856286D02*
X4025714Y-3842000D01*
X4054285Y-3827714D01*
X4125714Y-3827714D01*
X4154285Y-3842000D01*
X4168571Y-3856286D01*
X4182857Y-3884857D01*
X4182857Y-3913429D01*
X4168571Y-3956286D01*
X3997143Y-4127714D01*
X4182857Y-4127714D01*
X4540000Y-4127714D02*
X4540000Y-3827714D01*
X4668571Y-4127714D02*
X4668571Y-3970571D01*
X4654286Y-3942000D01*
X4625714Y-3927714D01*
X4582857Y-3927714D01*
X4554286Y-3942000D01*
X4540000Y-3956286D01*
X4854286Y-4127714D02*
X4825714Y-4113429D01*
X4811428Y-4099143D01*
X4797143Y-4070571D01*
X4797143Y-3984857D01*
X4811428Y-3956286D01*
X4825714Y-3942000D01*
X4854286Y-3927714D01*
X4897143Y-3927714D01*
X4925714Y-3942000D01*
X4940000Y-3956286D01*
X4954286Y-3984857D01*
X4954286Y-4070571D01*
X4940000Y-4099143D01*
X4925714Y-4113429D01*
X4897143Y-4127714D01*
X4854286Y-4127714D01*
X5125714Y-4127714D02*
X5097143Y-4113429D01*
X5082857Y-4084857D01*
X5082857Y-3827714D01*
X5354286Y-4113429D02*
X5325714Y-4127714D01*
X5268571Y-4127714D01*
X5240000Y-4113429D01*
X5225714Y-4084857D01*
X5225714Y-3970571D01*
X5240000Y-3942000D01*
X5268571Y-3927714D01*
X5325714Y-3927714D01*
X5354286Y-3942000D01*
X5368571Y-3970571D01*
X5368571Y-3999143D01*
X5225714Y-4027714D01*
X5482857Y-4113429D02*
X5511429Y-4127714D01*
X5568571Y-4127714D01*
X5597143Y-4113429D01*
X5611428Y-4084857D01*
X5611428Y-4070571D01*
X5597143Y-4042000D01*
X5568571Y-4027714D01*
X5525714Y-4027714D01*
X5497143Y-4013429D01*
X5482857Y-3984857D01*
X5482857Y-3970571D01*
X5497143Y-3942000D01*
X5525714Y-3927714D01*
X5568571Y-3927714D01*
X5597143Y-3942000D01*
X5711428Y-4242000D02*
X5725714Y-4227714D01*
X5754286Y-4184857D01*
X5768571Y-4156286D01*
X5782857Y-4113429D01*
X5797143Y-4042000D01*
X5797143Y-3984857D01*
X5782857Y-3913429D01*
X5768571Y-3870571D01*
X5754286Y-3842000D01*
X5725714Y-3799143D01*
X5711428Y-3784857D01*
X-1010000Y-4263000D02*
X-760000Y-4513000D01*
X-760000Y-4263000D02*
X-1010000Y-4513000D01*
X-885000Y-4513000D02*
X-760000Y-4388000D01*
X-885000Y-4263000D01*
X-1010000Y-4388000D01*
X-885000Y-4513000D01*
X-502857Y-4252286D02*
X-488571Y-4238000D01*
X-460000Y-4223714D01*
X-388571Y-4223714D01*
X-360000Y-4238000D01*
X-345714Y-4252286D01*
X-331429Y-4280857D01*
X-331429Y-4309429D01*
X-345714Y-4352286D01*
X-517143Y-4523714D01*
X-331429Y-4523714D01*
X-202857Y-4495143D02*
X-188571Y-4509429D01*
X-202857Y-4523714D01*
X-217143Y-4509429D01*
X-202857Y-4495143D01*
X-202857Y-4523714D01*
X82857Y-4223714D02*
X-60000Y-4223714D01*
X-74286Y-4366572D01*
X-60000Y-4352286D01*
X-31429Y-4338000D01*
X40000Y-4338000D01*
X68571Y-4352286D01*
X82857Y-4366572D01*
X97143Y-4395143D01*
X97143Y-4466572D01*
X82857Y-4495143D01*
X68571Y-4509429D01*
X40000Y-4523714D01*
X-31429Y-4523714D01*
X-60000Y-4509429D01*
X-74286Y-4495143D01*
X282857Y-4223714D02*
X311429Y-4223714D01*
X340000Y-4238000D01*
X354286Y-4252286D01*
X368571Y-4280857D01*
X382857Y-4338000D01*
X382857Y-4409429D01*
X368571Y-4466572D01*
X354286Y-4495143D01*
X340000Y-4509429D01*
X311429Y-4523714D01*
X282857Y-4523714D01*
X254286Y-4509429D01*
X240000Y-4495143D01*
X225714Y-4466572D01*
X211428Y-4409429D01*
X211428Y-4338000D01*
X225714Y-4280857D01*
X240000Y-4252286D01*
X254286Y-4238000D01*
X282857Y-4223714D01*
X511428Y-4523714D02*
X511428Y-4323714D01*
X511428Y-4352286D02*
X525714Y-4338000D01*
X554286Y-4323714D01*
X597143Y-4323714D01*
X625714Y-4338000D01*
X640000Y-4366572D01*
X640000Y-4523714D01*
X640000Y-4366572D02*
X654286Y-4338000D01*
X682857Y-4323714D01*
X725714Y-4323714D01*
X754286Y-4338000D01*
X768571Y-4366572D01*
X768571Y-4523714D01*
X911428Y-4523714D02*
X911428Y-4323714D01*
X911428Y-4352286D02*
X925714Y-4338000D01*
X954286Y-4323714D01*
X997143Y-4323714D01*
X1025714Y-4338000D01*
X1040000Y-4366572D01*
X1040000Y-4523714D01*
X1040000Y-4366572D02*
X1054286Y-4338000D01*
X1082857Y-4323714D01*
X1125714Y-4323714D01*
X1154286Y-4338000D01*
X1168571Y-4366572D01*
X1168571Y-4523714D01*
X1754286Y-4209429D02*
X1497143Y-4595143D01*
X2140000Y-4223714D02*
X2168571Y-4223714D01*
X2197143Y-4238000D01*
X2211428Y-4252286D01*
X2225714Y-4280857D01*
X2240000Y-4338000D01*
X2240000Y-4409429D01*
X2225714Y-4466572D01*
X2211428Y-4495143D01*
X2197143Y-4509429D01*
X2168571Y-4523714D01*
X2140000Y-4523714D01*
X2111428Y-4509429D01*
X2097143Y-4495143D01*
X2082857Y-4466572D01*
X2068571Y-4409429D01*
X2068571Y-4338000D01*
X2082857Y-4280857D01*
X2097143Y-4252286D01*
X2111428Y-4238000D01*
X2140000Y-4223714D01*
X2368571Y-4495143D02*
X2382857Y-4509429D01*
X2368571Y-4523714D01*
X2354286Y-4509429D01*
X2368571Y-4495143D01*
X2368571Y-4523714D01*
X2568571Y-4223714D02*
X2597143Y-4223714D01*
X2625714Y-4238000D01*
X2640000Y-4252286D01*
X2654286Y-4280857D01*
X2668571Y-4338000D01*
X2668571Y-4409429D01*
X2654286Y-4466572D01*
X2640000Y-4495143D01*
X2625714Y-4509429D01*
X2597143Y-4523714D01*
X2568571Y-4523714D01*
X2540000Y-4509429D01*
X2525714Y-4495143D01*
X2511428Y-4466572D01*
X2497143Y-4409429D01*
X2497143Y-4338000D01*
X2511428Y-4280857D01*
X2525714Y-4252286D01*
X2540000Y-4238000D01*
X2568571Y-4223714D01*
X2811428Y-4523714D02*
X2868571Y-4523714D01*
X2897143Y-4509429D01*
X2911428Y-4495143D01*
X2940000Y-4452286D01*
X2954285Y-4395143D01*
X2954285Y-4280857D01*
X2940000Y-4252286D01*
X2925714Y-4238000D01*
X2897143Y-4223714D01*
X2840000Y-4223714D01*
X2811428Y-4238000D01*
X2797143Y-4252286D01*
X2782857Y-4280857D01*
X2782857Y-4352286D01*
X2797143Y-4380857D01*
X2811428Y-4395143D01*
X2840000Y-4409429D01*
X2897143Y-4409429D01*
X2925714Y-4395143D01*
X2940000Y-4380857D01*
X2954285Y-4352286D01*
X3125714Y-4352286D02*
X3097143Y-4338000D01*
X3082857Y-4323714D01*
X3068571Y-4295143D01*
X3068571Y-4280857D01*
X3082857Y-4252286D01*
X3097143Y-4238000D01*
X3125714Y-4223714D01*
X3182857Y-4223714D01*
X3211428Y-4238000D01*
X3225714Y-4252286D01*
X3240000Y-4280857D01*
X3240000Y-4295143D01*
X3225714Y-4323714D01*
X3211428Y-4338000D01*
X3182857Y-4352286D01*
X3125714Y-4352286D01*
X3097143Y-4366572D01*
X3082857Y-4380857D01*
X3068571Y-4409429D01*
X3068571Y-4466572D01*
X3082857Y-4495143D01*
X3097143Y-4509429D01*
X3125714Y-4523714D01*
X3182857Y-4523714D01*
X3211428Y-4509429D01*
X3225714Y-4495143D01*
X3240000Y-4466572D01*
X3240000Y-4409429D01*
X3225714Y-4380857D01*
X3211428Y-4366572D01*
X3182857Y-4352286D01*
X3354286Y-4223714D02*
X3354286Y-4280857D01*
X3468571Y-4223714D02*
X3468571Y-4280857D01*
X3911428Y-4638000D02*
X3897143Y-4623714D01*
X3868571Y-4580857D01*
X3854285Y-4552286D01*
X3840000Y-4509429D01*
X3825714Y-4438000D01*
X3825714Y-4380857D01*
X3840000Y-4309429D01*
X3854285Y-4266572D01*
X3868571Y-4238000D01*
X3897143Y-4195143D01*
X3911428Y-4180857D01*
X3997143Y-4223714D02*
X4182857Y-4223714D01*
X4082857Y-4338000D01*
X4125714Y-4338000D01*
X4154285Y-4352286D01*
X4168571Y-4366572D01*
X4182857Y-4395143D01*
X4182857Y-4466572D01*
X4168571Y-4495143D01*
X4154285Y-4509429D01*
X4125714Y-4523714D01*
X4040000Y-4523714D01*
X4011428Y-4509429D01*
X3997143Y-4495143D01*
X4540000Y-4523714D02*
X4540000Y-4223714D01*
X4668571Y-4523714D02*
X4668571Y-4366572D01*
X4654286Y-4338000D01*
X4625714Y-4323714D01*
X4582857Y-4323714D01*
X4554286Y-4338000D01*
X4540000Y-4352286D01*
X4854286Y-4523714D02*
X4825714Y-4509429D01*
X4811428Y-4495143D01*
X4797143Y-4466572D01*
X4797143Y-4380857D01*
X4811428Y-4352286D01*
X4825714Y-4338000D01*
X4854286Y-4323714D01*
X4897143Y-4323714D01*
X4925714Y-4338000D01*
X4940000Y-4352286D01*
X4954286Y-4380857D01*
X4954286Y-4466572D01*
X4940000Y-4495143D01*
X4925714Y-4509429D01*
X4897143Y-4523714D01*
X4854286Y-4523714D01*
X5125714Y-4523714D02*
X5097143Y-4509429D01*
X5082857Y-4480857D01*
X5082857Y-4223714D01*
X5354286Y-4509429D02*
X5325714Y-4523714D01*
X5268571Y-4523714D01*
X5240000Y-4509429D01*
X5225714Y-4480857D01*
X5225714Y-4366572D01*
X5240000Y-4338000D01*
X5268571Y-4323714D01*
X5325714Y-4323714D01*
X5354286Y-4338000D01*
X5368571Y-4366572D01*
X5368571Y-4395143D01*
X5225714Y-4423714D01*
X5482857Y-4509429D02*
X5511429Y-4523714D01*
X5568571Y-4523714D01*
X5597143Y-4509429D01*
X5611428Y-4480857D01*
X5611428Y-4466572D01*
X5597143Y-4438000D01*
X5568571Y-4423714D01*
X5525714Y-4423714D01*
X5497143Y-4409429D01*
X5482857Y-4380857D01*
X5482857Y-4366572D01*
X5497143Y-4338000D01*
X5525714Y-4323714D01*
X5568571Y-4323714D01*
X5597143Y-4338000D01*
X5711428Y-4638000D02*
X5725714Y-4623714D01*
X5754286Y-4580857D01*
X5768571Y-4552286D01*
X5782857Y-4509429D01*
X5797143Y-4438000D01*
X5797143Y-4380857D01*
X5782857Y-4309429D01*
X5768571Y-4266572D01*
X5754286Y-4238000D01*
X5725714Y-4195143D01*
X5711428Y-4180857D01*
X6254286Y-4638000D02*
X6240000Y-4623714D01*
X6211428Y-4580857D01*
X6197143Y-4552286D01*
X6182857Y-4509429D01*
X6168571Y-4438000D01*
X6168571Y-4380857D01*
X6182857Y-4309429D01*
X6197143Y-4266572D01*
X6211428Y-4238000D01*
X6240000Y-4195143D01*
X6254286Y-4180857D01*
X6368571Y-4323714D02*
X6368571Y-4523714D01*
X6368571Y-4352286D02*
X6382857Y-4338000D01*
X6411428Y-4323714D01*
X6454286Y-4323714D01*
X6482857Y-4338000D01*
X6497143Y-4366572D01*
X6497143Y-4523714D01*
X6682857Y-4523714D02*
X6654286Y-4509429D01*
X6640000Y-4495143D01*
X6625714Y-4466572D01*
X6625714Y-4380857D01*
X6640000Y-4352286D01*
X6654286Y-4338000D01*
X6682857Y-4323714D01*
X6725714Y-4323714D01*
X6754286Y-4338000D01*
X6768571Y-4352286D01*
X6782857Y-4380857D01*
X6782857Y-4466572D01*
X6768571Y-4495143D01*
X6754286Y-4509429D01*
X6725714Y-4523714D01*
X6682857Y-4523714D01*
X6868571Y-4323714D02*
X6982857Y-4323714D01*
X6911428Y-4223714D02*
X6911428Y-4480857D01*
X6925714Y-4509429D01*
X6954286Y-4523714D01*
X6982857Y-4523714D01*
X7311428Y-4323714D02*
X7311428Y-4623714D01*
X7311428Y-4338000D02*
X7340000Y-4323714D01*
X7397143Y-4323714D01*
X7425714Y-4338000D01*
X7440000Y-4352286D01*
X7454286Y-4380857D01*
X7454286Y-4466572D01*
X7440000Y-4495143D01*
X7425714Y-4509429D01*
X7397143Y-4523714D01*
X7340000Y-4523714D01*
X7311428Y-4509429D01*
X7625714Y-4523714D02*
X7597143Y-4509429D01*
X7582857Y-4480857D01*
X7582857Y-4223714D01*
X7868571Y-4523714D02*
X7868571Y-4366572D01*
X7854286Y-4338000D01*
X7825714Y-4323714D01*
X7768571Y-4323714D01*
X7740000Y-4338000D01*
X7868571Y-4509429D02*
X7840000Y-4523714D01*
X7768571Y-4523714D01*
X7740000Y-4509429D01*
X7725714Y-4480857D01*
X7725714Y-4452286D01*
X7740000Y-4423714D01*
X7768571Y-4409429D01*
X7840000Y-4409429D01*
X7868571Y-4395143D01*
X7968571Y-4323714D02*
X8082857Y-4323714D01*
X8011429Y-4223714D02*
X8011429Y-4480857D01*
X8025714Y-4509429D01*
X8054286Y-4523714D01*
X8082857Y-4523714D01*
X8297143Y-4509429D02*
X8268571Y-4523714D01*
X8211429Y-4523714D01*
X8182857Y-4509429D01*
X8168571Y-4480857D01*
X8168571Y-4366572D01*
X8182857Y-4338000D01*
X8211429Y-4323714D01*
X8268571Y-4323714D01*
X8297143Y-4338000D01*
X8311429Y-4366572D01*
X8311429Y-4395143D01*
X8168571Y-4423714D01*
X8568572Y-4523714D02*
X8568572Y-4223714D01*
X8568572Y-4509429D02*
X8540000Y-4523714D01*
X8482857Y-4523714D01*
X8454286Y-4509429D01*
X8440000Y-4495143D01*
X8425714Y-4466572D01*
X8425714Y-4380857D01*
X8440000Y-4352286D01*
X8454286Y-4338000D01*
X8482857Y-4323714D01*
X8540000Y-4323714D01*
X8568572Y-4338000D01*
X8682857Y-4638000D02*
X8697143Y-4623714D01*
X8725714Y-4580857D01*
X8740000Y-4552286D01*
X8754286Y-4509429D01*
X8768572Y-4438000D01*
X8768572Y-4380857D01*
X8754286Y-4309429D01*
X8740000Y-4266572D01*
X8725714Y-4238000D01*
X8697143Y-4195143D01*
X8682857Y-4180857D01*
M02*
