G04 #@! TF.FileFunction,Copper,L1,Top,Signal*
%FSLAX46Y46*%
G04 Gerber Fmt 4.6, Leading zero omitted, Abs format (unit mm)*
G04 Created by KiCad (PCBNEW 4.0.7) date 2018 October 22, Monday 01:25:24*
%MOMM*%
%LPD*%
G01*
G04 APERTURE LIST*
%ADD10C,0.050000*%
%ADD11C,1.000000*%
%ADD12R,0.750000X0.800000*%
%ADD13R,0.800000X0.750000*%
%ADD14C,2.400000*%
%ADD15R,2.400000X2.400000*%
%ADD16R,2.032000X2.032000*%
%ADD17O,2.032000X2.032000*%
%ADD18R,0.889000X0.889000*%
%ADD19R,1.700000X1.700000*%
%ADD20O,1.700000X1.700000*%
%ADD21R,0.900000X0.500000*%
%ADD22R,0.500000X0.900000*%
%ADD23O,0.280000X0.850000*%
%ADD24O,0.850000X0.280000*%
%ADD25R,5.100000X5.100000*%
%ADD26R,0.450000X1.500000*%
%ADD27R,1.249680X0.998220*%
%ADD28R,2.450000X5.900000*%
%ADD29R,0.800000X2.900000*%
%ADD30R,0.381000X1.397000*%
%ADD31O,1.998980X1.998980*%
%ADD32R,1.998980X1.998980*%
%ADD33R,2.500000X1.100000*%
%ADD34R,1.270000X0.965200*%
%ADD35R,0.700000X1.200000*%
%ADD36R,4.500000X4.290000*%
%ADD37R,1.550000X1.600000*%
%ADD38R,1.550000X1.200000*%
%ADD39R,2.000000X0.900000*%
%ADD40R,0.250000X0.600000*%
%ADD41C,0.604800*%
%ADD42C,0.609600*%
%ADD43R,0.650000X1.220000*%
%ADD44R,1.220000X0.650000*%
%ADD45R,1.250000X1.000000*%
%ADD46R,1.000000X1.250000*%
%ADD47R,2.550000X2.700000*%
%ADD48R,1.727200X2.032000*%
%ADD49O,1.727200X2.032000*%
%ADD50R,1.350000X1.350000*%
%ADD51R,1.000000X0.550000*%
%ADD52C,0.700000*%
%ADD53C,0.600000*%
%ADD54C,0.400000*%
%ADD55C,1.000000*%
%ADD56C,0.250000*%
%ADD57C,0.200000*%
%ADD58C,0.800000*%
%ADD59C,0.300000*%
%ADD60C,0.600000*%
%ADD61C,1.500000*%
%ADD62C,0.280000*%
%ADD63C,0.350000*%
%ADD64C,0.500000*%
%ADD65C,2.000000*%
%ADD66C,0.254000*%
G04 APERTURE END LIST*
D10*
D11*
X66210000Y5005000D03*
X-1290000Y50005000D03*
D12*
X55000000Y22250000D03*
X55000000Y23750000D03*
D13*
X57500000Y20000000D03*
X59000000Y20000000D03*
X57500000Y18000000D03*
X59000000Y18000000D03*
X56250000Y13705000D03*
X54750000Y13705000D03*
X39000000Y2750000D03*
X40500000Y2750000D03*
X71500000Y31750000D03*
X73000000Y31750000D03*
D12*
X5940000Y19440000D03*
X5940000Y17940000D03*
D13*
X10905000Y22500000D03*
X12405000Y22500000D03*
X10905000Y14880000D03*
X12405000Y14880000D03*
D12*
X16100000Y17940000D03*
X16100000Y19440000D03*
X25500000Y18000000D03*
X25500000Y19500000D03*
X25545000Y11440000D03*
X25545000Y9940000D03*
X23545000Y9940000D03*
X23545000Y11440000D03*
X19545000Y9940000D03*
X19545000Y11440000D03*
D14*
X66690000Y10355000D03*
D15*
X66690000Y13855000D03*
D16*
X62750000Y25250000D03*
D17*
X62750000Y27790000D03*
D18*
X57500000Y22000000D03*
X59024000Y22000000D03*
D19*
X61600000Y330000D03*
D20*
X59060000Y330000D03*
D19*
X48900000Y330000D03*
D20*
X51440000Y330000D03*
D21*
X63890000Y16305000D03*
X63890000Y17805000D03*
X63890000Y13205000D03*
X63890000Y14705000D03*
X73000000Y38750000D03*
X73000000Y37250000D03*
X71000000Y41750000D03*
X71000000Y40250000D03*
X71000000Y37250000D03*
X71000000Y38750000D03*
X48490000Y3455000D03*
X48490000Y4955000D03*
X75490000Y43405000D03*
X75490000Y44905000D03*
X75490000Y41705000D03*
X75490000Y40205000D03*
D22*
X65000000Y31750000D03*
X66500000Y31750000D03*
X68250000Y31750000D03*
X69750000Y31750000D03*
X31940000Y47455000D03*
X33440000Y47455000D03*
X12405000Y17420000D03*
X10905000Y17420000D03*
X12405000Y19960000D03*
X10905000Y19960000D03*
X12405000Y25040000D03*
X10905000Y25040000D03*
X12405000Y12340000D03*
X10905000Y12340000D03*
X16215000Y12340000D03*
X14715000Y12340000D03*
X16215000Y25040000D03*
X14715000Y25040000D03*
X31295000Y23690000D03*
X29795000Y23690000D03*
X31295000Y16010000D03*
X29795000Y16010000D03*
X31295000Y13810000D03*
X29795000Y13810000D03*
X5450000Y31000000D03*
X3950000Y31000000D03*
X12450000Y38500000D03*
X10950000Y38500000D03*
X10950000Y36000000D03*
X12450000Y36000000D03*
X15950000Y38500000D03*
X14450000Y38500000D03*
X14450000Y36000000D03*
X15950000Y36000000D03*
D23*
X51250000Y20975000D03*
X50750000Y20975000D03*
X50250000Y20975000D03*
X49750000Y20975000D03*
X49250000Y20975000D03*
X48750000Y20975000D03*
X48250000Y20975000D03*
X47750000Y20975000D03*
X47250000Y20975000D03*
X46750000Y20975000D03*
X46250000Y20975000D03*
X45750000Y20975000D03*
D24*
X45025000Y20250000D03*
X45025000Y19750000D03*
X45025000Y19250000D03*
X45025000Y18750000D03*
X45025000Y18250000D03*
X45025000Y17750000D03*
X45025000Y17250000D03*
X45025000Y16750000D03*
X45025000Y16250000D03*
X45025000Y15750000D03*
X45025000Y15250000D03*
X45025000Y14750000D03*
D23*
X45750000Y14025000D03*
X46250000Y14025000D03*
X46750000Y14025000D03*
X47250000Y14025000D03*
X47750000Y14025000D03*
X48250000Y14025000D03*
X48750000Y14025000D03*
X49250000Y14025000D03*
X49750000Y14025000D03*
X50250000Y14025000D03*
X50750000Y14025000D03*
X51250000Y14025000D03*
D24*
X51975000Y14750000D03*
X51975000Y15250000D03*
X51975000Y15750000D03*
X51975000Y16250000D03*
X51975000Y16750000D03*
X51975000Y17250000D03*
X51975000Y17750000D03*
X51975000Y18250000D03*
X51975000Y18750000D03*
X51975000Y19250000D03*
X51975000Y19750000D03*
X51975000Y20250000D03*
D25*
X48500000Y17500000D03*
D26*
X22820000Y21640000D03*
X22170000Y21640000D03*
X21520000Y21640000D03*
X20870000Y21640000D03*
X20220000Y21640000D03*
X19570000Y21640000D03*
X18920000Y21640000D03*
X18270000Y21640000D03*
X18270000Y15740000D03*
X18920000Y15740000D03*
X19570000Y15740000D03*
X20220000Y15740000D03*
X20870000Y15740000D03*
X21520000Y15740000D03*
X22170000Y15740000D03*
X22820000Y15740000D03*
D27*
X55000000Y19749300D03*
X55000000Y18250700D03*
D19*
X53980000Y330000D03*
D20*
X56520000Y330000D03*
D12*
X67000000Y37250000D03*
X67000000Y38750000D03*
D13*
X68750000Y41000000D03*
X67250000Y41000000D03*
D12*
X73000000Y40250000D03*
X73000000Y41750000D03*
D28*
X73065000Y26455000D03*
X67515000Y26455000D03*
D29*
X65600000Y53750000D03*
X63400000Y53750000D03*
D21*
X69000000Y37250000D03*
X69000000Y38750000D03*
D30*
X67222500Y49667000D03*
X66587500Y49667000D03*
X65952500Y49667000D03*
X65317500Y49667000D03*
X64682500Y49667000D03*
X64047500Y49667000D03*
X63412500Y49667000D03*
X62777500Y49667000D03*
X62777500Y44333000D03*
X63412500Y44333000D03*
X64047500Y44333000D03*
X64682500Y44333000D03*
X65317500Y44333000D03*
X65952500Y44333000D03*
X66587500Y44333000D03*
X67222500Y44333000D03*
D31*
X20960000Y42760000D03*
D32*
X28580000Y42760000D03*
D31*
X26040000Y42760000D03*
X23500000Y42760000D03*
X18420000Y42760000D03*
X8480000Y14880000D03*
D32*
X8480000Y22500000D03*
D31*
X8480000Y19960000D03*
X8480000Y17420000D03*
X8440000Y33680000D03*
D32*
X8440000Y41300000D03*
D31*
X8440000Y38760000D03*
X8440000Y36220000D03*
X8440000Y31140000D03*
D19*
X17610000Y55500000D03*
D20*
X20150000Y55500000D03*
X22690000Y55500000D03*
X25230000Y55500000D03*
X27770000Y55500000D03*
X30310000Y55500000D03*
D22*
X31940000Y43455000D03*
X33440000Y43455000D03*
D21*
X53090000Y28405000D03*
X53090000Y29905000D03*
X48990000Y28395000D03*
X48990000Y29895000D03*
X51085000Y28395000D03*
X51085000Y29895000D03*
D33*
X36990000Y47455000D03*
X36990000Y43455000D03*
X36990000Y33455000D03*
X52390000Y33455000D03*
X52390000Y35455000D03*
X52390000Y37455000D03*
X52390000Y39455000D03*
X52390000Y45455000D03*
X52390000Y47455000D03*
D34*
X40940000Y28935000D03*
X40940000Y30205000D03*
D35*
X71780000Y11155000D03*
X73050000Y11155000D03*
X74330000Y11155000D03*
X75600000Y11155000D03*
X75600000Y16955000D03*
X74330000Y16955000D03*
X73050000Y16955000D03*
X71780000Y16955000D03*
D36*
X73690000Y14555000D03*
D37*
X72600000Y15305000D03*
X74780000Y15305000D03*
D38*
X72600000Y13305000D03*
X74780000Y13305000D03*
D39*
X70500000Y20000000D03*
D40*
X70750000Y21000000D03*
D41*
X71250000Y20000000D03*
D42*
X69750000Y20000000D03*
D40*
X71750000Y21000000D03*
X71250000Y21000000D03*
X70250000Y21000000D03*
X69750000Y21000000D03*
X69250000Y21000000D03*
X69250000Y19000000D03*
X69750000Y19000000D03*
X70250000Y19000000D03*
X70750000Y19000000D03*
X71250000Y19000000D03*
X71750000Y19000000D03*
D11*
X-1290000Y5000D03*
D43*
X46200000Y8370000D03*
X44300000Y8370000D03*
X45250000Y5750000D03*
X56760000Y30695000D03*
X58660000Y30695000D03*
X57710000Y33315000D03*
D44*
X2885000Y35160000D03*
X2885000Y33260000D03*
X5505000Y34210000D03*
D45*
X73690000Y21805000D03*
X73690000Y19805000D03*
X63500000Y41455000D03*
X63500000Y39455000D03*
X66690000Y21455000D03*
X66690000Y19455000D03*
X59500000Y42000000D03*
X59500000Y40000000D03*
X61500000Y42000000D03*
X61500000Y40000000D03*
D46*
X56500000Y11955000D03*
X54500000Y11955000D03*
D47*
X40810000Y7505000D03*
X34460000Y7505000D03*
D45*
X21545000Y9690000D03*
X21545000Y11690000D03*
D22*
X43110000Y21305000D03*
X41610000Y21305000D03*
D21*
X48500000Y8250000D03*
X48500000Y6750000D03*
D22*
X58460000Y28005000D03*
X56960000Y28005000D03*
D48*
X33420000Y250000D03*
D49*
X35960000Y250000D03*
X38500000Y250000D03*
X41040000Y250000D03*
D50*
X15000000Y55500000D03*
D22*
X46000000Y-750000D03*
X44500000Y-750000D03*
X46000000Y1500000D03*
X44500000Y1500000D03*
D12*
X26500000Y2500000D03*
X26500000Y1000000D03*
X24000000Y2500000D03*
X24000000Y1000000D03*
D21*
X29000000Y4750000D03*
X29000000Y6250000D03*
D51*
X26550000Y4550000D03*
X26550000Y5500000D03*
X26550000Y6450000D03*
X23950000Y6450000D03*
X23950000Y4550000D03*
D52*
X28500000Y3500000D03*
D11*
X34500000Y5000000D03*
X36750000Y6250000D03*
X36750000Y8250000D03*
X42000000Y2750000D03*
X25250000Y5500000D03*
X26500000Y-500000D03*
X24000000Y-500000D03*
D53*
X44010000Y21305000D03*
D11*
X1695000Y34210000D03*
D53*
X21045000Y8960010D03*
X20045000Y8960010D03*
D11*
X17245000Y37690000D03*
X17245000Y35690000D03*
D53*
X63190000Y47955000D03*
X68690000Y41955000D03*
X69690000Y41955000D03*
X69690000Y42955000D03*
X68190000Y43955000D03*
X68690000Y42955000D03*
X67690000Y42955000D03*
X62190000Y50455000D03*
X61690000Y49455000D03*
X62190000Y51455000D03*
X61190000Y50455000D03*
X61190000Y51455000D03*
X65190000Y47955000D03*
X64190000Y47955000D03*
X70190000Y12955000D03*
X69190000Y12955000D03*
X69190000Y13955000D03*
X70190000Y13955000D03*
X70190000Y14955000D03*
X69190000Y14955000D03*
X65190000Y15955000D03*
X66190000Y15955000D03*
X67190000Y15955000D03*
X68190000Y15955000D03*
X69190000Y15955000D03*
X70190000Y15955000D03*
X70190000Y16955000D03*
X69190000Y16955000D03*
X68190000Y16955000D03*
X67190000Y16955000D03*
X66190000Y16955000D03*
X65190000Y16955000D03*
X65190000Y17955000D03*
X66190000Y17955000D03*
X67190000Y17955000D03*
X68190000Y17955000D03*
X68190000Y18955000D03*
X68190000Y19955000D03*
X48500000Y17500000D03*
X53690000Y16955000D03*
X53690000Y17955000D03*
X53690000Y19955000D03*
X48500000Y17500000D03*
X51690000Y12455000D03*
X57690000Y12455000D03*
X57690000Y13455000D03*
X60190000Y18455000D03*
X60190000Y19455000D03*
X54690000Y24955000D03*
X54690000Y27955000D03*
D11*
X55190000Y32455000D03*
X55190000Y34455000D03*
D53*
X20545000Y24190000D03*
X21545000Y23190000D03*
X21045000Y23690000D03*
X24045000Y8690000D03*
X25045000Y8690000D03*
X69690000Y22955000D03*
X70690000Y25955000D03*
X69690000Y25955000D03*
X69690000Y24955000D03*
X70690000Y24955000D03*
X70690000Y23955000D03*
X69690000Y23955000D03*
X72690000Y20755000D03*
X74690000Y19955000D03*
X72690000Y18955000D03*
X72690000Y19955000D03*
X61790000Y39155000D03*
X63790000Y38255000D03*
X62890000Y38255000D03*
X61790000Y38255000D03*
X60890000Y38455000D03*
X60190000Y39155000D03*
X60690000Y43455000D03*
X60690000Y44555000D03*
X61790000Y44555000D03*
X61790000Y43455000D03*
X70390000Y48055000D03*
X69490000Y48755000D03*
X69490000Y48055000D03*
X68490000Y48055000D03*
X68490000Y48755000D03*
X68490000Y49655000D03*
X67190000Y51155000D03*
X75390000Y46055000D03*
X75390000Y39055000D03*
X75590000Y9555000D03*
X72990000Y30755000D03*
X13545000Y22190000D03*
X13545000Y14940000D03*
X70690000Y22955000D03*
D11*
X51000000Y9750000D03*
X54000000Y9750000D03*
X56790000Y43555000D03*
X62690000Y31205000D03*
D53*
X19519990Y23690022D03*
X19545000Y18440000D03*
X36880890Y21291084D03*
X72890000Y45955000D03*
X40190000Y27155004D03*
X74190000Y43455000D03*
X70990000Y45855000D03*
X41470423Y27455078D03*
X37590000Y20355000D03*
X74590000Y42655000D03*
D11*
X27500000Y45500000D03*
X56710000Y45504994D03*
D53*
X43441377Y14657166D03*
X52115078Y13705814D03*
X42700045Y15221096D03*
X52914662Y13679662D03*
X9460000Y43505000D03*
X7460000Y43505000D03*
X60090000Y16355000D03*
X62890000Y16255000D03*
X65210000Y29875000D03*
X74710000Y30005042D03*
X42190000Y26255000D03*
X37640000Y19553544D03*
X66210000Y22505000D03*
X60090000Y15455000D03*
X61690000Y23255000D03*
X63990000Y23155002D03*
X62390012Y15455000D03*
X70090000Y22055000D03*
X42490000Y28655000D03*
X39490000Y22255000D03*
D52*
X35230867Y21438387D03*
X33500000Y19750000D03*
X30500000Y12250000D03*
X28750000Y9750000D03*
X33000000Y12500000D03*
X36750000Y13000000D03*
D53*
X46990000Y23355006D03*
X46955674Y27655011D03*
X38090010Y21541216D03*
X41112665Y26329121D03*
X39209233Y27288477D03*
X36338439Y20005863D03*
X35500000Y20000000D03*
X38409495Y27267555D03*
X23690000Y38705000D03*
X22690000Y38705000D03*
X28790000Y53555000D03*
X54390000Y41654992D03*
X44190000Y42955000D03*
X55117602Y42548893D03*
X45940000Y43005010D03*
X41190000Y32455000D03*
X39690000Y32455000D03*
D52*
X49250000Y12250000D03*
X42250000Y14500000D03*
X37000000Y18000000D03*
D53*
X39665728Y20730728D03*
X18894990Y13689589D03*
X20569998Y19640000D03*
X43440000Y16705000D03*
X54111236Y15304977D03*
X59190000Y9205000D03*
X59190000Y11705000D03*
X60190000Y12455000D03*
X60190000Y9455000D03*
X43215888Y15895132D03*
X54960484Y15204979D03*
D54*
X29000000Y4750000D02*
X29000000Y4000000D01*
X29000000Y4000000D02*
X28500000Y3500000D01*
D55*
X34460000Y7505000D02*
X34460000Y5040000D01*
X34460000Y5040000D02*
X34500000Y5000000D01*
X34460000Y7505000D02*
X35495000Y7505000D01*
X35495000Y7505000D02*
X36750000Y6250000D01*
X34460000Y7505000D02*
X36005000Y7505000D01*
X36005000Y7505000D02*
X36750000Y8250000D01*
X40500000Y2750000D02*
X42000000Y2750000D01*
X40500000Y2750000D02*
X40500000Y790000D01*
X40500000Y790000D02*
X41040000Y250000D01*
D54*
X26550000Y5500000D02*
X25250000Y5500000D01*
X26500000Y1000000D02*
X26500000Y-500000D01*
X24000000Y1000000D02*
X24000000Y-500000D01*
X60190000Y39155000D02*
X60190000Y39025000D01*
X60190000Y39025000D02*
X60210000Y39005000D01*
D56*
X43110000Y21305000D02*
X44010000Y21305000D01*
D54*
X33860000Y8105000D02*
X34460000Y7505000D01*
X34460000Y7505000D02*
X33610000Y7505000D01*
X2885000Y33260000D02*
X2645000Y33260000D01*
X2645000Y33260000D02*
X1695000Y34210000D01*
X21365010Y8960010D02*
X21045000Y8960010D01*
X21545000Y9940000D02*
X21545000Y9140000D01*
X19545000Y9940000D02*
X19545000Y9140000D01*
X19724990Y8960010D02*
X20045000Y8960010D01*
X19545000Y9140000D02*
X19724990Y8960010D01*
X21545000Y9140000D02*
X21365010Y8960010D01*
X71000000Y41750000D02*
X69895000Y41750000D01*
X69895000Y41750000D02*
X69690000Y41955000D01*
X15950000Y38500000D02*
X16435000Y38500000D01*
X16435000Y38500000D02*
X17245000Y37690000D01*
X15950000Y36000000D02*
X16935000Y36000000D01*
X16935000Y36000000D02*
X17245000Y35690000D01*
D57*
X62777500Y48367500D02*
X63190000Y47955000D01*
X68690000Y41955000D02*
X68690000Y42955000D01*
X69690000Y42955000D02*
X69690000Y41955000D01*
X67222500Y44333000D02*
X67812000Y44333000D01*
X67812000Y44333000D02*
X68190000Y43955000D01*
X68690000Y42955000D02*
X68690000Y43455000D01*
X67222500Y44333000D02*
X67222500Y43422500D01*
X67222500Y43422500D02*
X67690000Y42955000D01*
X61690000Y49455000D02*
X61690000Y49955000D01*
X61690000Y49955000D02*
X62190000Y50455000D01*
X61190000Y50455000D02*
X62190000Y51455000D01*
X61790000Y51655000D02*
X61390000Y51655000D01*
X61390000Y51655000D02*
X61190000Y51455000D01*
D54*
X62890001Y48254999D02*
X63190000Y47955000D01*
X62777500Y48367500D02*
X62890001Y48254999D01*
X62777500Y49667000D02*
X62777500Y48367500D01*
X63090000Y47955000D02*
X63190000Y47955000D01*
X65490000Y47955000D02*
X65190000Y47955000D01*
X65190000Y47955000D02*
X64190000Y47955000D01*
D57*
X64090000Y48055000D02*
X64190000Y47955000D01*
D54*
X64190000Y47955000D02*
X63690000Y47955000D01*
D57*
X63390000Y48055000D02*
X64090000Y48055000D01*
X65190000Y18955000D02*
X65190000Y17955000D01*
X65940000Y19705000D02*
X65190000Y18955000D01*
D54*
X66690000Y19705000D02*
X65940000Y19705000D01*
D57*
X69190000Y13955000D02*
X69190000Y12955000D01*
X70190000Y14955000D02*
X70190000Y13955000D01*
X65190000Y15955000D02*
X68190000Y15955000D01*
X68190000Y15955000D02*
X69190000Y14955000D01*
X67190000Y15955000D02*
X66190000Y15955000D01*
X69190000Y15955000D02*
X68190000Y15955000D01*
X69190000Y16955000D02*
X70190000Y16955000D01*
X67190000Y16955000D02*
X68190000Y16955000D01*
X65190000Y16955000D02*
X66190000Y16955000D01*
X66190000Y17955000D02*
X65190000Y17955000D01*
X67190000Y17955000D02*
X66190000Y17955000D01*
X68190000Y18955000D02*
X68190000Y17955000D01*
X68614264Y19955000D02*
X68190000Y19955000D01*
X68690000Y19955000D02*
X68614264Y19955000D01*
X68735000Y20000000D02*
X68690000Y19955000D01*
D54*
X70500000Y20000000D02*
X68735000Y20000000D01*
D57*
X50696011Y19461011D02*
X49190000Y17955000D01*
X48500000Y17500000D02*
X48500000Y16265000D01*
X48196011Y19461011D02*
X46690000Y17955000D01*
X51975000Y16750000D02*
X53485000Y16750000D01*
X53485000Y16750000D02*
X53690000Y16955000D01*
X51975000Y18250000D02*
X53395000Y18250000D01*
X53395000Y18250000D02*
X53690000Y17955000D01*
X51975000Y19750000D02*
X53485000Y19750000D01*
X53485000Y19750000D02*
X53690000Y19955000D01*
X51250000Y12895000D02*
X51690000Y12455000D01*
X51250000Y14025000D02*
X51250000Y12895000D01*
D54*
X56250000Y11955000D02*
X57190000Y11955000D01*
X57190000Y11955000D02*
X57690000Y12455000D01*
X56250000Y13705000D02*
X57440000Y13705000D01*
X57440000Y13705000D02*
X57690000Y13455000D01*
X59000000Y18000000D02*
X59735000Y18000000D01*
X59735000Y18000000D02*
X60190000Y18455000D01*
X59000000Y20000000D02*
X59645000Y20000000D01*
X59645000Y20000000D02*
X60190000Y19455000D01*
X55000000Y23750000D02*
X55000000Y24645000D01*
X55000000Y24645000D02*
X54690000Y24955000D01*
X53090000Y28405000D02*
X54240000Y28405000D01*
X54240000Y28405000D02*
X54690000Y27955000D01*
D58*
X55190000Y32455000D02*
X54190000Y33455000D01*
X51690000Y33455000D02*
X54190000Y33455000D01*
X54190000Y33455000D02*
X55190000Y34455000D01*
D59*
X20220000Y21640000D02*
X20220000Y23865000D01*
X20220000Y23865000D02*
X20545000Y24190000D01*
X21520000Y21640000D02*
X21520000Y23165000D01*
X21520000Y23165000D02*
X21545000Y23190000D01*
D54*
X20870000Y21640000D02*
X20870000Y23515000D01*
X20870000Y23515000D02*
X21045000Y23690000D01*
X23545000Y9940000D02*
X23545000Y9190000D01*
X23545000Y9190000D02*
X24045000Y8690000D01*
X25545000Y9940000D02*
X25545000Y9190000D01*
X25545000Y9190000D02*
X25045000Y8690000D01*
X70690000Y25955000D02*
X70690000Y23955000D01*
X70690000Y23955000D02*
X69690000Y22955000D01*
X69690000Y24955000D02*
X69690000Y25955000D01*
X70690000Y23955000D02*
X70690000Y24955000D01*
X70690000Y22955000D02*
X69690000Y23955000D01*
X72690000Y18955000D02*
X72690000Y20755000D01*
X72690000Y20755000D02*
X72690000Y20955000D01*
X72690000Y19955000D02*
X72690000Y20755000D01*
X73690000Y19705000D02*
X74440000Y19705000D01*
X74440000Y19705000D02*
X74690000Y19955000D01*
X71250000Y20000000D02*
X72645000Y20000000D01*
X72645000Y20000000D02*
X72690000Y19955000D01*
X73690000Y19705000D02*
X72940000Y19705000D01*
X72940000Y19705000D02*
X72690000Y19955000D01*
X63890000Y13205000D02*
X66040000Y13205000D01*
X66040000Y13205000D02*
X66690000Y13855000D01*
D59*
X60490000Y39915000D02*
X60489999Y39454999D01*
X60489999Y39454999D02*
X60190000Y39155000D01*
X61500000Y40250000D02*
X60825000Y40250000D01*
X60825000Y40250000D02*
X60490000Y39915000D01*
X62890000Y38255000D02*
X63790000Y38255000D01*
X60890000Y38455000D02*
X61590000Y38455000D01*
X61590000Y38455000D02*
X61790000Y38255000D01*
X59500000Y40250000D02*
X59500000Y39845000D01*
X59500000Y39845000D02*
X60190000Y39155000D01*
X61790000Y44555000D02*
X60690000Y44555000D01*
X62777500Y44333000D02*
X62668000Y44333000D01*
X62668000Y44333000D02*
X61790000Y43455000D01*
D54*
X69490000Y48055000D02*
X69490000Y48755000D01*
X68490000Y48755000D02*
X68490000Y48055000D01*
X67190000Y51155000D02*
X67190000Y50955000D01*
X67190000Y50955000D02*
X68490000Y49655000D01*
X62777500Y49667000D02*
X62278000Y49667000D01*
X62278000Y49667000D02*
X61690000Y50255000D01*
D59*
X63412500Y49667000D02*
X63412500Y48855000D01*
X63412500Y48855000D02*
X63412500Y48377500D01*
D54*
X63690000Y47955000D02*
X63090000Y47955000D01*
X65861379Y48383629D02*
X65861379Y48326379D01*
X65861379Y48326379D02*
X65490000Y47955000D01*
X63689999Y48055001D02*
X63390000Y48355000D01*
X63690000Y47955000D02*
X63689999Y48055001D01*
X65090000Y48355000D02*
X65790000Y48355000D01*
X65790000Y48355000D02*
X65890000Y48455000D01*
X63390000Y48355000D02*
X65190000Y48355000D01*
X65190000Y48355000D02*
X65290000Y48455000D01*
X61590000Y51255000D02*
X61590000Y50355000D01*
X61590000Y50355000D02*
X61690000Y50255000D01*
X61490000Y50255000D02*
X61490000Y51655000D01*
X62190000Y50955000D02*
X61490000Y50955000D01*
D59*
X63412500Y48377500D02*
X63390000Y48355000D01*
X65317500Y49667000D02*
X65317500Y48482500D01*
X65317500Y48482500D02*
X65290000Y48455000D01*
X65952500Y49667000D02*
X65952500Y48517500D01*
X65952500Y48517500D02*
X65890000Y48455000D01*
X67222500Y49667000D02*
X67222500Y51122500D01*
X67222500Y51122500D02*
X67190000Y51155000D01*
D54*
X62777500Y49667000D02*
X62777500Y50367500D01*
X62777500Y50367500D02*
X62190000Y50955000D01*
X75490000Y44905000D02*
X75490000Y45955000D01*
X75490000Y45955000D02*
X75390000Y46055000D01*
X75490000Y40205000D02*
X75490000Y39155000D01*
X75490000Y39155000D02*
X75390000Y39055000D01*
X75600000Y11155000D02*
X75600000Y9565000D01*
X75600000Y9565000D02*
X75590000Y9555000D01*
X73000000Y31750000D02*
X73000000Y30765000D01*
X73000000Y30765000D02*
X72990000Y30755000D01*
X12405000Y22500000D02*
X13235000Y22500000D01*
X13235000Y22500000D02*
X13545000Y22190000D01*
X12405000Y14880000D02*
X13485000Y14880000D01*
X13485000Y14880000D02*
X13545000Y14940000D01*
D57*
X70750000Y22895000D02*
X70690000Y22955000D01*
X70750000Y21000000D02*
X70750000Y22895000D01*
X70750000Y21000000D02*
X70750000Y20750001D01*
X70750000Y20750001D02*
X70690000Y20750001D01*
D56*
X46245000Y7000000D02*
X45385000Y7000000D01*
X45385000Y7000000D02*
X44300000Y8085000D01*
X44300000Y8085000D02*
X44300000Y8370000D01*
X48490000Y4955000D02*
X48290000Y4955000D01*
X48290000Y4955000D02*
X46245000Y7000000D01*
D54*
X48500000Y8250000D02*
X48500000Y9500000D01*
X48500000Y9500000D02*
X48750000Y9750000D01*
D55*
X51000000Y9750000D02*
X49750000Y9750000D01*
X49750000Y9750000D02*
X48750000Y9750000D01*
D54*
X48490000Y4955000D02*
X48690000Y4955000D01*
D55*
X40810000Y7505000D02*
X43435000Y7505000D01*
X43435000Y7505000D02*
X44300000Y8370000D01*
X41000000Y10250000D02*
X48250000Y10250000D01*
X30250000Y10250000D02*
X41000000Y10250000D01*
X41000000Y10250000D02*
X40810000Y10060000D01*
X40810000Y10060000D02*
X40810000Y7505000D01*
X25545000Y11440000D02*
X29060000Y11440000D01*
X29060000Y11440000D02*
X30250000Y10250000D01*
X48250000Y10250000D02*
X48750000Y9750000D01*
D54*
X26500000Y2500000D02*
X29250000Y2500000D01*
X30750000Y10000000D02*
X30500000Y10250000D01*
X29250000Y2500000D02*
X30750000Y4000000D01*
X30750000Y4000000D02*
X30750000Y10000000D01*
X26500000Y2500000D02*
X26500000Y4500000D01*
X26500000Y4500000D02*
X26550000Y4550000D01*
D55*
X54875000Y10455000D02*
X54705000Y10455000D01*
X54705000Y10455000D02*
X54000000Y9750000D01*
D54*
X58460000Y28005000D02*
X58460000Y30495000D01*
X58460000Y30495000D02*
X58660000Y30695000D01*
D55*
X62750000Y32055000D02*
X62750000Y32565000D01*
X62750000Y32565000D02*
X56790000Y38525000D01*
X56790000Y38525000D02*
X56790000Y43555000D01*
X62690000Y31205000D02*
X62240000Y30755000D01*
X62240000Y30755000D02*
X58720000Y30755000D01*
X58720000Y30755000D02*
X58660000Y30695000D01*
X54750000Y11955000D02*
X54750000Y13705000D01*
X56250000Y10455000D02*
X54875000Y10455000D01*
X54875000Y10455000D02*
X54750000Y10580000D01*
X54750000Y10580000D02*
X54750000Y11955000D01*
X53980000Y330000D02*
X57690000Y4040000D01*
X57690000Y4040000D02*
X57690000Y10455000D01*
X57690000Y10455000D02*
X56250000Y10455000D01*
X60468500Y22000000D02*
X61240002Y21228498D01*
X61240002Y21228498D02*
X61240002Y11950998D01*
X59024000Y22000000D02*
X60468500Y22000000D01*
D54*
X65000000Y31750000D02*
X63235000Y31750000D01*
X63235000Y31750000D02*
X62690000Y31205000D01*
D55*
X62750000Y32055000D02*
X62750000Y31265000D01*
D54*
X63055000Y31750000D02*
X62750000Y32055000D01*
X54750000Y13705000D02*
X54440000Y13705000D01*
X54440000Y13705000D02*
X53690000Y14455000D01*
X53690000Y14455000D02*
X52270000Y14455000D01*
X52270000Y14455000D02*
X52065010Y14659990D01*
D55*
X62750000Y31265000D02*
X62690000Y31205000D01*
X59744004Y10455000D02*
X56250000Y10455000D01*
X61240002Y11950998D02*
X59744004Y10455000D01*
D57*
X23545000Y11440000D02*
X23545000Y11465000D01*
X20870000Y14790000D02*
X20870000Y15740000D01*
X23545000Y11465000D02*
X20870000Y14140000D01*
X20870000Y14140000D02*
X20870000Y14790000D01*
X25545000Y11440000D02*
X23545000Y11440000D01*
X26545000Y11440000D02*
X25545000Y11440000D01*
D55*
X28580000Y43315000D02*
X28580000Y42760000D01*
X62750000Y27790000D02*
X61313160Y27790000D01*
X61313160Y27790000D02*
X59024000Y25500840D01*
X59024000Y25500840D02*
X59024000Y22000000D01*
D54*
X40810000Y7505000D02*
X40810000Y7105000D01*
D56*
X19570000Y15740000D02*
X19570000Y12265000D01*
X19570000Y12265000D02*
X19545000Y12240000D01*
D54*
X23950000Y4550000D02*
X23950000Y2550000D01*
X23950000Y2550000D02*
X24000000Y2500000D01*
X21545000Y11690000D02*
X21670000Y11690000D01*
X21670000Y11690000D02*
X22719999Y10640001D01*
X22719999Y10640001D02*
X22719999Y3805001D01*
X22719999Y3805001D02*
X24000000Y2525000D01*
X24000000Y2525000D02*
X24000000Y2500000D01*
D56*
X14715000Y25040000D02*
X14715000Y25240000D01*
X14715000Y25240000D02*
X15565000Y26090000D01*
X15565000Y26090000D02*
X16695748Y26090000D01*
X16695748Y26090000D02*
X19095726Y23690022D01*
X19095726Y23690022D02*
X19519990Y23690022D01*
X19545000Y18015736D02*
X19545000Y18440000D01*
X19545000Y16525000D02*
X19545000Y18015736D01*
X19570000Y16500000D02*
X19545000Y16525000D01*
X19570000Y16965000D02*
X19570000Y16500000D01*
X25545000Y17740000D02*
X20345000Y17740000D01*
X20345000Y17740000D02*
X19570000Y16965000D01*
X19570000Y16500000D02*
X19570000Y15740000D01*
X14715000Y25040000D02*
X12405000Y25040000D01*
D54*
X21545000Y11415000D02*
X21545000Y11440000D01*
X21545000Y11440000D02*
X19545000Y11440000D01*
D56*
X20220000Y15740000D02*
X20220000Y14604998D01*
D54*
X20220000Y12915000D02*
X20220000Y14604998D01*
X19545000Y12240000D02*
X20220000Y12915000D01*
X19545000Y11440000D02*
X19545000Y12240000D01*
D55*
X66390000Y21505000D02*
X64159996Y21505000D01*
X62750000Y23234000D02*
X62750000Y25250000D01*
X64159996Y21505000D02*
X62750000Y22914996D01*
X62750000Y22914996D02*
X62750000Y23234000D01*
X68140012Y21405012D02*
X68140012Y22405012D01*
X68140012Y22405012D02*
X68440000Y22705000D01*
X67515000Y26455000D02*
X67515000Y22030024D01*
X67515000Y22030024D02*
X68140012Y21405012D01*
X68140012Y21405012D02*
X68940000Y22205000D01*
X66890012Y21405012D02*
X68140012Y21405012D01*
D56*
X69750000Y21479986D02*
X69024986Y22205000D01*
X69024986Y22205000D02*
X68940000Y22205000D01*
X69750000Y21000000D02*
X69750000Y21479986D01*
D55*
X67915000Y26455000D02*
X67915000Y23230000D01*
X67915000Y23230000D02*
X68440000Y22705000D01*
X68440000Y22705000D02*
X68940000Y22205000D01*
D57*
X67795000Y24350000D02*
X67795000Y26335000D01*
X67795000Y26335000D02*
X67915000Y26455000D01*
D54*
X55000000Y22250000D02*
X54225000Y22250000D01*
X54225000Y22250000D02*
X52315010Y20340010D01*
X57500000Y22000000D02*
X55250000Y22000000D01*
X55250000Y22000000D02*
X55000000Y22250000D01*
D57*
X55000000Y19749300D02*
X57249300Y19749300D01*
X57249300Y19749300D02*
X57500000Y20000000D01*
X51975000Y19250000D02*
X54500700Y19250000D01*
X54500700Y19250000D02*
X55000000Y19749300D01*
X55000000Y18250700D02*
X57249300Y18250700D01*
X57249300Y18250700D02*
X57500000Y18000000D01*
X51975000Y18750000D02*
X54500700Y18750000D01*
X54500700Y18750000D02*
X55000000Y18250700D01*
X69750000Y31750000D02*
X71500000Y31750000D01*
D54*
X7855000Y22500000D02*
X8480000Y22500000D01*
X5940000Y19440000D02*
X5940000Y20585000D01*
X5940000Y20585000D02*
X7855000Y22500000D01*
X8480000Y22500000D02*
X10905000Y22500000D01*
X10905000Y25040000D02*
X10905000Y22500000D01*
X8480000Y14880000D02*
X7855000Y14880000D01*
X7855000Y14880000D02*
X5940000Y16795000D01*
X5940000Y16795000D02*
X5940000Y17940000D01*
X8360000Y15000000D02*
X8480000Y14880000D01*
X8480000Y14880000D02*
X10905000Y14880000D01*
X10905000Y14880000D02*
X10905000Y12340000D01*
D56*
X14195000Y17740000D02*
X12725000Y17740000D01*
X12725000Y17740000D02*
X12405000Y17420000D01*
X16100000Y17940000D02*
X15900000Y17740000D01*
X15900000Y17740000D02*
X14195000Y17740000D01*
X18295000Y17940000D02*
X18920000Y17315000D01*
X18920000Y17315000D02*
X18920000Y15740000D01*
X16100000Y17940000D02*
X18295000Y17940000D01*
X14195000Y19640000D02*
X12725000Y19640000D01*
X12725000Y19640000D02*
X12405000Y19960000D01*
X16100000Y19440000D02*
X15900000Y19640000D01*
X15900000Y19640000D02*
X14195000Y19640000D01*
X18295000Y19440000D02*
X18920000Y20065000D01*
X18920000Y20065000D02*
X18920000Y21640000D01*
X16100000Y19440000D02*
X18295000Y19440000D01*
D57*
X45025000Y18750000D02*
X40083004Y18750000D01*
X40083004Y18750000D02*
X37878003Y20955001D01*
X37878003Y20955001D02*
X37216973Y20955001D01*
X37216973Y20955001D02*
X37180889Y20991085D01*
X37180889Y20991085D02*
X36880890Y21291084D01*
X54455689Y43954989D02*
X54790011Y44289311D01*
X54790011Y44289311D02*
X54790011Y46519311D01*
X54790011Y46519311D02*
X55875689Y47604989D01*
X55875689Y47604989D02*
X61040011Y47604989D01*
X42978001Y27954999D02*
X43490001Y28466999D01*
X43490001Y34486401D02*
X52958589Y43954989D01*
X52958589Y43954989D02*
X54455689Y43954989D01*
X72590001Y46254999D02*
X72890000Y45955000D01*
X71940013Y46904987D02*
X72590001Y46254999D01*
X41858506Y27954999D02*
X42978001Y27954999D01*
X40190000Y27155004D02*
X41090076Y28055080D01*
X41090076Y28055080D02*
X41758425Y28055080D01*
X41758425Y28055080D02*
X41858506Y27954999D01*
X43490001Y28466999D02*
X43490001Y34486401D01*
X61740013Y46904987D02*
X71940013Y46904987D01*
X61040011Y47604989D02*
X61740013Y46904987D01*
X74190000Y43455000D02*
X75440000Y43455000D01*
X75440000Y43455000D02*
X75490000Y43405000D01*
X55190022Y46353622D02*
X55190022Y44123622D01*
X70340024Y46504976D02*
X61140024Y46504976D01*
X61140024Y46504976D02*
X60440022Y47204978D01*
X43043780Y27455078D02*
X41894687Y27455078D01*
X53124278Y43554978D02*
X44090012Y34520712D01*
X41894687Y27455078D02*
X41470423Y27455078D01*
X54621378Y43554978D02*
X53124278Y43554978D01*
X44090012Y28501310D02*
X43043780Y27455078D01*
X44090012Y34520712D02*
X44090012Y28501310D01*
X60440022Y47204978D02*
X56041378Y47204978D01*
X70990000Y45855000D02*
X70340024Y46504976D01*
X56041378Y47204978D02*
X55190022Y46353622D01*
X55190022Y44123622D02*
X54621378Y43554978D01*
X39875598Y18250000D02*
X37770598Y20355000D01*
X37770598Y20355000D02*
X37590000Y20355000D01*
X45025000Y18250000D02*
X39875598Y18250000D01*
X74590000Y42655000D02*
X74590000Y42605000D01*
X74590000Y42605000D02*
X75490000Y41705000D01*
D60*
X74330000Y16955000D02*
X74330000Y18125000D01*
X74710000Y18375000D02*
X74690000Y18355000D01*
X74330000Y18125000D02*
X74710000Y18505000D01*
X74710000Y18505000D02*
X74710000Y18375000D01*
X71780000Y16955000D02*
X72730000Y16955000D01*
X72730000Y16955000D02*
X73780000Y18005000D01*
X73780000Y18005000D02*
X74210000Y18005000D01*
D57*
X71750000Y21000000D02*
X71750000Y21515000D01*
X71750000Y21515000D02*
X71875001Y21640001D01*
X71750000Y21000000D02*
X71875001Y21000000D01*
X71250000Y17895000D02*
X71690000Y17895000D01*
X71690000Y17895000D02*
X71750000Y17895000D01*
D54*
X71250000Y17955000D02*
X71630000Y17955000D01*
X71630000Y17955000D02*
X71690000Y17895000D01*
D57*
X71250000Y18500000D02*
X71250000Y17955000D01*
X71250000Y17955000D02*
X71250000Y17895000D01*
D54*
X70750000Y17895000D02*
X71190000Y17895000D01*
X71190000Y17895000D02*
X71250000Y17955000D01*
X70250000Y17895000D02*
X70750000Y17895000D01*
X69750000Y17895000D02*
X70250000Y17895000D01*
D57*
X75890000Y19955000D02*
X76190000Y19955000D01*
X75890000Y19055000D02*
X76090000Y19255000D01*
X75890000Y19955000D02*
X75890000Y19055000D01*
D61*
X76190000Y19955000D02*
X76190000Y32455000D01*
D57*
X76090000Y19255000D02*
X76190000Y19355000D01*
D61*
X76190000Y32455000D02*
X73990002Y34654998D01*
X73990002Y34654998D02*
X66490002Y34654998D01*
X66490002Y34654998D02*
X65190000Y35955000D01*
X65190000Y35955000D02*
X65190000Y37000000D01*
D55*
X73690000Y21805000D02*
X75340000Y21805000D01*
X75340000Y21805000D02*
X75890000Y21255000D01*
X75890000Y20655000D02*
X75890000Y19955000D01*
D60*
X72990000Y17755000D02*
X73190000Y17955000D01*
X73190000Y17955000D02*
X73590000Y18355000D01*
X73790000Y18555000D02*
X73190000Y17955000D01*
X75390000Y18555000D02*
X73790000Y18555000D01*
X73590000Y18355000D02*
X74690000Y18355000D01*
X74690000Y18355000D02*
X75190000Y18355000D01*
X74330000Y16955000D02*
X74330000Y15755000D01*
X74330000Y15755000D02*
X74780000Y15305000D01*
D57*
X71750000Y18155000D02*
X71750000Y17895000D01*
X71750000Y18500000D02*
X71750000Y18155000D01*
D60*
X71750000Y18155000D02*
X71750000Y16985000D01*
X71750000Y16985000D02*
X71780000Y16955000D01*
X75600000Y16955000D02*
X75600000Y18345000D01*
X75600000Y18345000D02*
X75390000Y18555000D01*
D61*
X75390000Y18555000D02*
X75890000Y19055000D01*
D60*
X75190000Y18355000D02*
X75390000Y18555000D01*
X72990000Y17265000D02*
X72990000Y17755000D01*
X73050000Y16955000D02*
X73050000Y17205000D01*
X73050000Y17205000D02*
X72990000Y17265000D01*
D57*
X71750000Y17895000D02*
X71790000Y17855000D01*
X69750000Y17895000D02*
X70750000Y17895000D01*
X70750000Y17895000D02*
X71250000Y17895000D01*
X70750000Y19000000D02*
X70750000Y18500000D01*
X70750000Y18500000D02*
X70750000Y17895000D01*
X71250000Y19000000D02*
X71250000Y18500000D01*
X71750000Y19000000D02*
X71750000Y18500000D01*
X70250000Y19000000D02*
X70250000Y17895000D01*
X69750000Y19000000D02*
X69750000Y17895000D01*
D54*
X73690000Y21455000D02*
X73190000Y21955000D01*
X71875001Y21640001D02*
X71875001Y21000000D01*
X72190000Y21955000D02*
X71875001Y21640001D01*
X73190000Y21955000D02*
X72190000Y21955000D01*
D61*
X65190000Y37000000D02*
X65190000Y41225002D01*
X65190000Y41225002D02*
X64665002Y41750000D01*
D54*
X64682500Y42947500D02*
X64682500Y42447500D01*
X64682500Y42447500D02*
X64665002Y42430002D01*
D62*
X65190000Y41955000D02*
X64395000Y41955000D01*
X64395000Y41955000D02*
X64190000Y41750000D01*
D54*
X64665002Y42930002D02*
X65190000Y42405004D01*
X65190000Y42405004D02*
X65190000Y41955000D01*
X65190000Y41955000D02*
X64690000Y41455000D01*
X64690000Y41455000D02*
X64190000Y41455000D01*
D62*
X65190000Y43455000D02*
X65190000Y41955000D01*
D61*
X63989999Y41155001D02*
X63690000Y41455000D01*
X64715001Y41155001D02*
X63989999Y41155001D01*
X64915002Y40955000D02*
X64715001Y41155001D01*
X65190000Y40955000D02*
X64915002Y40955000D01*
D54*
X65190000Y42955000D02*
X64665002Y42430002D01*
X64665002Y42430002D02*
X64665002Y41750000D01*
X65190000Y42455000D02*
X65190000Y43455000D01*
X65190000Y43455000D02*
X64738001Y43906999D01*
D62*
X64682500Y43354500D02*
X64682500Y42455000D01*
D61*
X64690000Y41955000D02*
X64485000Y41750000D01*
D54*
X64665002Y42930002D02*
X65190000Y43455000D01*
X64682500Y43354500D02*
X64847000Y43354500D01*
X64847000Y43354500D02*
X65190000Y43697500D01*
X64682500Y43354500D02*
X64682500Y42947500D01*
X64682500Y42947500D02*
X64665002Y42930002D01*
D62*
X65190000Y43697500D02*
X65190000Y43455000D01*
X65317500Y44333000D02*
X65317500Y43825000D01*
X65317500Y43825000D02*
X65190000Y43697500D01*
X64682500Y44333000D02*
X64682500Y43354500D01*
D57*
X26040000Y37966996D02*
X26040000Y41346508D01*
X26040000Y41346508D02*
X26040000Y42760000D01*
X41638222Y25180714D02*
X41563868Y25255068D01*
X50750000Y23043940D02*
X48613226Y25180714D01*
X50750000Y20975000D02*
X50750000Y23043940D01*
X48613226Y25180714D02*
X41638222Y25180714D01*
X41563868Y25255068D02*
X38751928Y25255068D01*
X38751928Y25255068D02*
X26040000Y37966996D01*
X46250000Y20975000D02*
X46250000Y21960700D01*
X45430051Y22780649D02*
X40644089Y22780649D01*
X20040000Y39605000D02*
X15355000Y39605000D01*
X15355000Y39605000D02*
X14450000Y38700000D01*
X46250000Y21960700D02*
X45430051Y22780649D01*
X40644089Y22780649D02*
X40569736Y22855002D01*
X40569736Y22855002D02*
X36789998Y22855002D01*
X36789998Y22855002D02*
X20040000Y39605000D01*
X14450000Y38700000D02*
X14450000Y38500000D01*
X12450000Y38500000D02*
X14450000Y38500000D01*
X45025000Y17250000D02*
X44400000Y17250000D01*
X44400000Y17250000D02*
X44344998Y17305002D01*
X44344998Y17305002D02*
X39039998Y17305002D01*
X39039998Y17305002D02*
X36989998Y19355002D01*
X36989998Y19355002D02*
X36989998Y20260002D01*
X36989998Y20260002D02*
X36599311Y20650689D01*
X36599311Y20650689D02*
X35099311Y20650689D01*
X35099311Y20650689D02*
X34349998Y21400002D01*
X34349998Y21400002D02*
X34349998Y24150002D01*
X34349998Y24150002D02*
X24095000Y34405000D01*
X24095000Y34405000D02*
X15845000Y34405000D01*
X15845000Y34405000D02*
X14450000Y35800000D01*
X14450000Y35800000D02*
X14450000Y36000000D01*
X12450000Y36000000D02*
X12900000Y36000000D01*
X12900000Y36000000D02*
X14450000Y36000000D01*
X5450000Y31000000D02*
X5450000Y33360000D01*
X5450000Y33360000D02*
X5640000Y33550000D01*
X5695000Y33550000D02*
X8310000Y33550000D01*
X5505000Y34210000D02*
X5505000Y33685000D01*
X5505000Y33685000D02*
X5640000Y33550000D01*
X5640000Y33550000D02*
X5695000Y33550000D01*
X8310000Y33550000D02*
X8440000Y33680000D01*
D60*
X26792894Y45500000D02*
X27500000Y45500000D01*
X8250000Y45914866D02*
X8664866Y45500000D01*
X8664866Y45500000D02*
X26792894Y45500000D01*
X8250000Y45914866D02*
X6700614Y45914866D01*
X8250000Y45914866D02*
X8440000Y45724866D01*
X8440000Y45724866D02*
X8440000Y41300000D01*
X6700614Y45914866D02*
X644999Y39859251D01*
X644999Y39859251D02*
X644999Y32070001D01*
X644999Y32070001D02*
X1715000Y31000000D01*
X1715000Y31000000D02*
X3950000Y31000000D01*
X57209999Y45004995D02*
X56710000Y45504994D01*
X59500000Y42714994D02*
X57209999Y45004995D01*
X59500000Y41750000D02*
X59500000Y42714994D01*
X59500000Y41750000D02*
X61500000Y41750000D01*
X61500000Y41750000D02*
X61500000Y41795000D01*
X61500000Y41795000D02*
X62660000Y42955000D01*
X62660000Y42955000D02*
X63690000Y42955000D01*
D57*
X67490000Y45855000D02*
X64671000Y45855000D01*
X69239999Y44105001D02*
X67490000Y45855000D01*
X72050001Y44105001D02*
X69239999Y44105001D01*
X74190000Y41965002D02*
X72050001Y44105001D01*
X74190000Y38240000D02*
X74190000Y41965002D01*
X73200000Y37250000D02*
X74190000Y38240000D01*
X73000000Y37250000D02*
X73200000Y37250000D01*
X64047500Y45231500D02*
X64047500Y44333000D01*
X64671000Y45855000D02*
X64047500Y45231500D01*
X59500000Y41725000D02*
X59500000Y41750000D01*
D59*
X71000000Y37250000D02*
X73000000Y37250000D01*
X64047500Y43312500D02*
X63690000Y42955000D01*
X64047500Y44333000D02*
X64047500Y43312500D01*
D57*
X44034211Y15250000D02*
X43741376Y14957165D01*
X43741376Y14957165D02*
X43441377Y14657166D01*
X45025000Y15250000D02*
X44034211Y15250000D01*
X48690000Y3455000D02*
X48490000Y3455000D01*
X50800011Y5565011D02*
X48690000Y3455000D01*
X50800011Y7095011D02*
X50800011Y5565011D01*
X52400011Y12996617D02*
X52400011Y8695011D01*
X52115078Y13281550D02*
X52400011Y12996617D01*
X52400011Y8695011D02*
X50800011Y7095011D01*
X52115078Y13705814D02*
X52115078Y13281550D01*
X48900000Y330000D02*
X48500000Y730000D01*
X48500000Y730000D02*
X48500000Y3445000D01*
X48500000Y3445000D02*
X48490000Y3455000D01*
X52189994Y13704994D02*
X52115898Y13704994D01*
X52115898Y13704994D02*
X52115078Y13705814D01*
X43426468Y15257168D02*
X43160381Y15257168D01*
X43160381Y15257168D02*
X43124309Y15221096D01*
X43919300Y15750000D02*
X43426468Y15257168D01*
X43124309Y15221096D02*
X42700045Y15221096D01*
X45025000Y15750000D02*
X43919300Y15750000D01*
X51440000Y6889300D02*
X52914662Y8363962D01*
X52914662Y13255398D02*
X52914662Y13679662D01*
X52914662Y8363962D02*
X52914662Y13255398D01*
X51440000Y-420000D02*
X51440000Y6889300D01*
X9759999Y43205001D02*
X9460000Y43505000D01*
X12560000Y40405000D02*
X9759999Y43205001D01*
X23036296Y40405000D02*
X12560000Y40405000D01*
X38586239Y24855057D02*
X23036296Y40405000D01*
X41398179Y24855057D02*
X38586239Y24855057D01*
X41472534Y24780704D02*
X41398179Y24855057D01*
X48447536Y24780704D02*
X41472534Y24780704D01*
X50250000Y22978240D02*
X48447536Y24780704D01*
X50250000Y20975000D02*
X50250000Y22978240D01*
X2885000Y40430000D02*
X5750000Y43295000D01*
X7460000Y43505000D02*
X5960000Y43505000D01*
X5960000Y43505000D02*
X5750000Y43295000D01*
X2885000Y35160000D02*
X2885000Y40430000D01*
X59665736Y16355000D02*
X60090000Y16355000D01*
X59615734Y16304998D02*
X59665736Y16355000D01*
X53676409Y16304998D02*
X59615734Y16304998D01*
X53121411Y15750000D02*
X53676409Y16304998D01*
X51975000Y15750000D02*
X53121411Y15750000D01*
X63890000Y16305000D02*
X62940000Y16305000D01*
X63890000Y16305000D02*
X63890000Y14705000D01*
X62940000Y16305000D02*
X62890000Y16255000D01*
X69250000Y21000000D02*
X68925000Y21000000D01*
X68925000Y21000000D02*
X68530001Y20605001D01*
X67740000Y20505000D02*
X65740000Y20505000D01*
X68530001Y20605001D02*
X67840001Y20605001D01*
X67840001Y20605001D02*
X67740000Y20505000D01*
X65740000Y20505000D02*
X63890000Y18655000D01*
X63890000Y18655000D02*
X63890000Y17805000D01*
X47150011Y11650011D02*
X36104989Y11650011D01*
X48750000Y14025000D02*
X48750000Y13250000D01*
X48750000Y13250000D02*
X47150011Y11650011D01*
X31745000Y16010000D02*
X31295000Y16010000D01*
X36104989Y11650011D02*
X31745000Y16010000D01*
X32940000Y13810000D02*
X31745000Y13810000D01*
X47315700Y11250000D02*
X35500000Y11250000D01*
X35500000Y11250000D02*
X32940000Y13810000D01*
X49250000Y14025000D02*
X49250000Y13184300D01*
X49250000Y13184300D02*
X47315700Y11250000D01*
X31745000Y13810000D02*
X31295000Y13810000D01*
X65290000Y29955000D02*
X65210000Y29875000D01*
X65210000Y29875000D02*
X64990001Y29655001D01*
X74710000Y30429306D02*
X74710000Y30005042D01*
X74710000Y31735000D02*
X74710000Y30429306D01*
X73590000Y32855000D02*
X74710000Y31735000D01*
X69155000Y32855000D02*
X73590000Y32855000D01*
X68250000Y31750000D02*
X68250000Y31950000D01*
X68250000Y31950000D02*
X69155000Y32855000D01*
X64990001Y29655001D02*
X61890001Y29655001D01*
X61890001Y29655001D02*
X58490000Y26255000D01*
X58490000Y26255000D02*
X42614264Y26255000D01*
X42614264Y26255000D02*
X42190000Y26255000D01*
X37939999Y19253545D02*
X37640000Y19553544D01*
X39443544Y17750000D02*
X37939999Y19253545D01*
X45025000Y17750000D02*
X39443544Y17750000D01*
X68250000Y31750000D02*
X66500000Y31750000D01*
X66500000Y31750000D02*
X66500000Y31165000D01*
X66500000Y31165000D02*
X65589999Y30254999D01*
X65589999Y30254999D02*
X65290000Y29955000D01*
D56*
X18270000Y15740000D02*
X18270000Y13895000D01*
X18270000Y13895000D02*
X16715000Y12340000D01*
X16715000Y12340000D02*
X16215000Y12340000D01*
X18270000Y21640000D02*
X18270000Y23485000D01*
X18270000Y23485000D02*
X16715000Y25040000D01*
X16715000Y25040000D02*
X16215000Y25040000D01*
D57*
X46250000Y13400000D02*
X46250000Y14025000D01*
X31295000Y23690000D02*
X34750000Y20235000D01*
X45850000Y13000000D02*
X46250000Y13400000D01*
X39906598Y13000000D02*
X45850000Y13000000D01*
X34750000Y18156598D02*
X39906598Y13000000D01*
X34750000Y20235000D02*
X34750000Y18156598D01*
D56*
X22820000Y21640000D02*
X22820000Y22165000D01*
X22820000Y22165000D02*
X24345000Y23690000D01*
X24345000Y23690000D02*
X29295000Y23690000D01*
X29295000Y23690000D02*
X29795000Y23690000D01*
X29795000Y15690000D02*
X22870000Y15690000D01*
X22870000Y15690000D02*
X22820000Y15740000D01*
X23076429Y13408571D02*
X22170000Y14315000D01*
X22170000Y14315000D02*
X22170000Y15740000D01*
X29795000Y13408571D02*
X23076429Y13408571D01*
D57*
X63990000Y23155002D02*
X64640002Y22505000D01*
X65785736Y22505000D02*
X66210000Y22505000D01*
X64640002Y22505000D02*
X65785736Y22505000D01*
X59790001Y15754999D02*
X60090000Y15455000D01*
X59640013Y15904987D02*
X59790001Y15754999D01*
X51975000Y15250000D02*
X53187111Y15250000D01*
X53187111Y15250000D02*
X53842098Y15904987D01*
X53842098Y15904987D02*
X59640013Y15904987D01*
X61690000Y22830736D02*
X61690000Y23255000D01*
X61690000Y22755000D02*
X61690000Y22830736D01*
X62090013Y22354987D02*
X61690000Y22755000D01*
X62090013Y15754999D02*
X62090013Y22354987D01*
X62390012Y15455000D02*
X62090013Y15754999D01*
X70250000Y21000000D02*
X70250000Y21895000D01*
X70250000Y21895000D02*
X70090000Y22055000D01*
X66587500Y49667000D02*
X66587500Y48190496D01*
X66587500Y48190496D02*
X65702002Y47304998D01*
X65702002Y47304998D02*
X62377998Y47304998D01*
X62377998Y47304998D02*
X61677996Y48005000D01*
X61677996Y48005000D02*
X55710000Y48005000D01*
X55710000Y48005000D02*
X54390000Y46685000D01*
X54390000Y46685000D02*
X54390000Y44455000D01*
X54390000Y44455000D02*
X54290000Y44355000D01*
X54290000Y44355000D02*
X52792900Y44355000D01*
X52792900Y44355000D02*
X42490000Y34052100D01*
X42490000Y34052100D02*
X42490000Y29079264D01*
X42490000Y29079264D02*
X42490000Y28655000D01*
X45290000Y22355000D02*
X41310000Y22355000D01*
X41310000Y22355000D02*
X39590000Y22355000D01*
X41610000Y21305000D02*
X41610000Y21955000D01*
X41610000Y21955000D02*
X41310000Y22255000D01*
X41310000Y22255000D02*
X41310000Y22355000D01*
X45750000Y20975000D02*
X45750000Y21895000D01*
X45750000Y21895000D02*
X45290000Y22355000D01*
X39590000Y22355000D02*
X39490000Y22255000D01*
X39889999Y21355001D02*
X39189999Y21355001D01*
X35580866Y21788386D02*
X35230867Y21438387D01*
X40995000Y20250000D02*
X39889999Y21355001D01*
X45025000Y20250000D02*
X40995000Y20250000D01*
X39189999Y21355001D02*
X38403783Y22141217D01*
X38403783Y22141217D02*
X35933697Y22141217D01*
X35933697Y22141217D02*
X35580866Y21788386D01*
X30500000Y16750000D02*
X33150001Y19400001D01*
X30500000Y12250000D02*
X30500000Y16750000D01*
X33150001Y19400001D02*
X33500000Y19750000D01*
X29000000Y6250000D02*
X29000000Y9500000D01*
X29000000Y9500000D02*
X28750000Y9750000D01*
X29000000Y6250000D02*
X26750000Y6250000D01*
X26750000Y6250000D02*
X26550000Y6450000D01*
D56*
X32650001Y12150001D02*
X33000000Y12500000D01*
X32074999Y11574999D02*
X32650001Y12150001D01*
X30175999Y11574999D02*
X32074999Y11574999D01*
X29425999Y12324999D02*
X30175999Y11574999D01*
X23410001Y12324999D02*
X29425999Y12324999D01*
X21520000Y14215000D02*
X23410001Y12324999D01*
X21520000Y15740000D02*
X21520000Y14215000D01*
X46000000Y12500000D02*
X37250000Y12500000D01*
X37250000Y12500000D02*
X36750000Y13000000D01*
D57*
X46750000Y14025000D02*
X46750000Y13250000D01*
D56*
X46750000Y13250000D02*
X46000000Y12500000D01*
D57*
X22170000Y21640000D02*
X22170000Y22590000D01*
X24385000Y24805000D02*
X30110000Y24805000D01*
X22170000Y22590000D02*
X24385000Y24805000D01*
X34250000Y20000000D02*
X34250000Y14537996D01*
X34250000Y14537996D02*
X36737974Y12050022D01*
X36737974Y12050022D02*
X46300022Y12050022D01*
X30110000Y24805000D02*
X30510000Y24405000D01*
X30510000Y24405000D02*
X30510000Y23740000D01*
X30510000Y23740000D02*
X30744999Y23505001D01*
X30744999Y23505001D02*
X30744999Y22999999D01*
X30744999Y22999999D02*
X30804999Y22939999D01*
X30804999Y22939999D02*
X31310001Y22939999D01*
X31310001Y22939999D02*
X34250000Y20000000D01*
X46300022Y12050022D02*
X47250000Y13000000D01*
X47250000Y13000000D02*
X47250000Y13400000D01*
X47250000Y13400000D02*
X47250000Y14025000D01*
D59*
X69000000Y37250000D02*
X67000000Y37250000D01*
X67250000Y41000000D02*
X67250000Y39000000D01*
X67250000Y39000000D02*
X67000000Y38750000D01*
X65952500Y44333000D02*
X65952500Y42272500D01*
X65952500Y42272500D02*
X67225000Y41000000D01*
X67225000Y41000000D02*
X67250000Y41000000D01*
X68608998Y41000000D02*
X68750000Y41000000D01*
X66587500Y43021498D02*
X68608998Y41000000D01*
X66587500Y44333000D02*
X66587500Y43021498D01*
D57*
X71000000Y40250000D02*
X71200000Y40250000D01*
X71200000Y40250000D02*
X72700000Y41750000D01*
X72700000Y41750000D02*
X73000000Y41750000D01*
D59*
X71000000Y38750000D02*
X71000000Y40250000D01*
X69000000Y38750000D02*
X71000000Y38750000D01*
X68750000Y41000000D02*
X68750000Y39000000D01*
X68750000Y39000000D02*
X69000000Y38750000D01*
D57*
X73000000Y40250000D02*
X73000000Y38750000D01*
D55*
X65600000Y53750000D02*
X65600000Y51300000D01*
X65600000Y51300000D02*
X65505000Y51205000D01*
X65505000Y51205000D02*
X65172000Y51205000D01*
D63*
X64682500Y49667000D02*
X64682500Y50715500D01*
X64682500Y50715500D02*
X65172000Y51205000D01*
D55*
X63400000Y53750000D02*
X63400000Y51300000D01*
X63400000Y51300000D02*
X63495000Y51205000D01*
X63495000Y51205000D02*
X63558000Y51205000D01*
D63*
X64047500Y49667000D02*
X64047500Y50715500D01*
X64047500Y50715500D02*
X63558000Y51205000D01*
D57*
X37690000Y47455000D02*
X33440000Y47455000D01*
X46955674Y36820674D02*
X46955674Y28079275D01*
X53289967Y43154967D02*
X46955674Y36820674D01*
X54787067Y43154967D02*
X53289967Y43154967D01*
X56207067Y46804967D02*
X55590033Y46187933D01*
X59340033Y46804967D02*
X56207067Y46804967D01*
X60190000Y45955000D02*
X59340033Y46804967D01*
X55590033Y43957933D02*
X54787067Y43154967D01*
X55590033Y46187933D02*
X55590033Y43957933D01*
X46955674Y28079275D02*
X46955674Y27655011D01*
X47289999Y23055007D02*
X46990000Y23355006D01*
X47750000Y22595006D02*
X47289999Y23055007D01*
X47750000Y20975000D02*
X47750000Y22595006D01*
D59*
X62789000Y45955000D02*
X60190000Y45955000D01*
X63412500Y44333000D02*
X63412500Y45331500D01*
X63412500Y45331500D02*
X62789000Y45955000D01*
D57*
X56760000Y30695000D02*
X56710000Y30645000D01*
X56710000Y30645000D02*
X56710000Y28255000D01*
X56710000Y28255000D02*
X56960000Y28005000D01*
X41112665Y26329121D02*
X41638546Y26855002D01*
X41638546Y26855002D02*
X56560002Y26855002D01*
X56560002Y26855002D02*
X56960000Y27255000D01*
X56960000Y27255000D02*
X56960000Y28005000D01*
X38390009Y21118443D02*
X38390009Y21241217D01*
X40258452Y19250000D02*
X38390009Y21118443D01*
X38390009Y21241217D02*
X38090010Y21541216D01*
X45025000Y19250000D02*
X40258452Y19250000D01*
X44400000Y14750000D02*
X43499998Y13849998D01*
X43499998Y13849998D02*
X40188000Y13849998D01*
X40188000Y13849998D02*
X36338439Y17699559D01*
X36338439Y17699559D02*
X36338439Y19581599D01*
X36338439Y19581599D02*
X36338439Y20005863D01*
X45025000Y14750000D02*
X44400000Y14750000D01*
X40787600Y28935000D02*
X39209233Y27356633D01*
X39209233Y27356633D02*
X39209233Y27288477D01*
X40940000Y28935000D02*
X40787600Y28935000D01*
X35500000Y20000000D02*
X35500000Y17972298D01*
X35500000Y17972298D02*
X40072298Y13400000D01*
X40072298Y13400000D02*
X44785000Y13400000D01*
X44785000Y13400000D02*
X45410000Y14025000D01*
X45410000Y14025000D02*
X45750000Y14025000D01*
X40440000Y31750000D02*
X38409495Y29719495D01*
X38409495Y27691819D02*
X38409495Y27267555D01*
X38409495Y29719495D02*
X38409495Y27691819D01*
X20150000Y55500000D02*
X30539989Y45110011D01*
X30539989Y45110011D02*
X30539989Y35855011D01*
X30539989Y35855011D02*
X34645000Y31750000D01*
X34645000Y31750000D02*
X40440000Y31750000D01*
X40440000Y31750000D02*
X40440000Y36205000D01*
X40440000Y36205000D02*
X51690000Y47455000D01*
D59*
X71350010Y22115010D02*
X71350010Y21943244D01*
X71350010Y21943244D02*
X71250000Y21843234D01*
D64*
X71750000Y22705000D02*
X71750000Y22515000D01*
X71750000Y22515000D02*
X71350010Y22115010D01*
D56*
X71250000Y21000000D02*
X71250000Y21843234D01*
D55*
X73775000Y24730000D02*
X71750000Y22705000D01*
X73465000Y26455000D02*
X73465000Y24730000D01*
D57*
X73465000Y25230000D02*
X73465000Y26455000D01*
D56*
X8480000Y17420000D02*
X10905000Y17420000D01*
X8480000Y19960000D02*
X10905000Y19960000D01*
D57*
X49750000Y20975000D02*
X49750000Y22710700D01*
X37939954Y24455046D02*
X23989999Y38405001D01*
X23989999Y38405001D02*
X23690000Y38705000D01*
X49750000Y22710700D02*
X48080007Y24380693D01*
X41232492Y24455046D02*
X37939954Y24455046D01*
X41306845Y24380693D02*
X41232492Y24455046D01*
X48080007Y24380693D02*
X41306845Y24380693D01*
X49250000Y22083002D02*
X47352320Y23980682D01*
X47352320Y23980682D02*
X41141156Y23980682D01*
X49250000Y20975000D02*
X49250000Y22083002D01*
X41066803Y24055035D02*
X37387065Y24055035D01*
X41141156Y23980682D02*
X41066803Y24055035D01*
X37387065Y24055035D02*
X23037099Y38405001D01*
X22989999Y38405001D02*
X22690000Y38705000D01*
X23037099Y38405001D02*
X22989999Y38405001D01*
X28790000Y53555000D02*
X28890000Y53455000D01*
X28890000Y53455000D02*
X29190000Y53455000D01*
X38490000Y48655000D02*
X43940000Y43205000D01*
X29190000Y53455000D02*
X33990000Y48655000D01*
X33990000Y48655000D02*
X38490000Y48655000D01*
X43940000Y43205000D02*
X44190000Y42955000D01*
X48990000Y37755000D02*
X50690000Y39455000D01*
X50690000Y39455000D02*
X51690000Y39455000D01*
X48990000Y29895000D02*
X48990000Y37755000D01*
X54090001Y41354993D02*
X54390000Y41654992D01*
X51690000Y39455000D02*
X52190008Y39455000D01*
X52190008Y39455000D02*
X54090001Y41354993D01*
D54*
X57710000Y33315000D02*
X57456002Y33315000D01*
X57456002Y33315000D02*
X55210000Y31068998D01*
X55210000Y31068998D02*
X55210000Y30275000D01*
X52045000Y29155000D02*
X51285000Y28395000D01*
X55210000Y30275000D02*
X54090000Y29155000D01*
X54090000Y29155000D02*
X52045000Y29155000D01*
X51285000Y28395000D02*
X51085000Y28395000D01*
X55117602Y42548893D02*
X55210000Y42456495D01*
X55210000Y42456495D02*
X55210000Y36505000D01*
X55210000Y36505000D02*
X57710000Y34005000D01*
X57710000Y34005000D02*
X57710000Y33315000D01*
X51085000Y28395000D02*
X48990000Y28395000D01*
X45640001Y42705011D02*
X45940000Y43005010D01*
X37690000Y33455000D02*
X37690000Y34755010D01*
X37690000Y34755010D02*
X45640001Y42705011D01*
X25230000Y55500000D02*
X25230000Y54665000D01*
X25230000Y54665000D02*
X31940000Y47955000D01*
X31940000Y47955000D02*
X31940000Y47455000D01*
X31940000Y47455000D02*
X31940000Y43455000D01*
X37690000Y33455000D02*
X31940000Y39205000D01*
X31940000Y39205000D02*
X31940000Y43455000D01*
D57*
X27770000Y55500000D02*
X27770000Y53375000D01*
X27770000Y53375000D02*
X32690000Y48455000D01*
X32690000Y48455000D02*
X32690000Y44855000D01*
X32690000Y44855000D02*
X33440000Y44105000D01*
X33440000Y44105000D02*
X33440000Y43455000D01*
X37690000Y43455000D02*
X33440000Y43455000D01*
X53090000Y29905000D02*
X52890000Y29905000D01*
X52890000Y29905000D02*
X50090000Y32705000D01*
X50090000Y32705000D02*
X50090000Y34955000D01*
X50090000Y34955000D02*
X50590000Y35455000D01*
X50590000Y35455000D02*
X51690000Y35455000D01*
X51085000Y29895000D02*
X51085000Y30345000D01*
X51085000Y30345000D02*
X49590000Y31840000D01*
X49590000Y31840000D02*
X49590000Y36655000D01*
X49590000Y36655000D02*
X50390000Y37455000D01*
X50390000Y37455000D02*
X51690000Y37455000D01*
X40940000Y30205000D02*
X40940000Y32205000D01*
X40940000Y32205000D02*
X41190000Y32455000D01*
X22690000Y55500000D02*
X30940000Y47250000D01*
X30940000Y47250000D02*
X30940000Y36205000D01*
X30940000Y36205000D02*
X34940000Y32205000D01*
X34940000Y32205000D02*
X39440000Y32205000D01*
X39440000Y32205000D02*
X39690000Y32455000D01*
X41489999Y32754999D02*
X41489999Y33000000D01*
X41489999Y33000000D02*
X41489999Y35254999D01*
X51690000Y45455000D02*
X42235000Y36000000D01*
X42235000Y36000000D02*
X42000000Y35765000D01*
X41190000Y32455000D02*
X41489999Y32754999D01*
X41489999Y35254999D02*
X42235000Y36000000D01*
X8440000Y38760000D02*
X10690000Y38760000D01*
X10690000Y38760000D02*
X10950000Y38500000D01*
X8440000Y36220000D02*
X10730000Y36220000D01*
X10730000Y36220000D02*
X10950000Y36000000D01*
X49250000Y12250000D02*
X50750000Y12250000D01*
X52000000Y11000000D02*
X52000000Y9250000D01*
X50750000Y12250000D02*
X52000000Y11000000D01*
X52000000Y9250000D02*
X49500000Y6750000D01*
X49500000Y6750000D02*
X48500000Y6750000D01*
X37349999Y17650001D02*
X40500000Y14500000D01*
X40500000Y14500000D02*
X42250000Y14500000D01*
X37000000Y18000000D02*
X37349999Y17650001D01*
X46200000Y8370000D02*
X46200000Y8085000D01*
X47535000Y6750000D02*
X47850000Y6750000D01*
X46200000Y8085000D02*
X47535000Y6750000D01*
X47850000Y6750000D02*
X48500000Y6750000D01*
X39965727Y20430729D02*
X39665728Y20730728D01*
X40646456Y19750000D02*
X39965727Y20430729D01*
X45025000Y19750000D02*
X40646456Y19750000D01*
D65*
X66690000Y10355000D02*
X71890000Y10355000D01*
X71890000Y10355000D02*
X73790000Y10355000D01*
D57*
X71780000Y11155000D02*
X71780000Y10465000D01*
X71780000Y10465000D02*
X71890000Y10355000D01*
X73050000Y11155000D02*
X73050000Y10905000D01*
X73050000Y10905000D02*
X73600000Y10355000D01*
X73600000Y10355000D02*
X73790000Y10355000D01*
X74330000Y11155000D02*
X74330000Y10895000D01*
X74330000Y10895000D02*
X73790000Y10355000D01*
D65*
X73689999Y9155001D02*
X73790000Y9255002D01*
X73790000Y9255002D02*
X73790000Y10355000D01*
X66690000Y10355000D02*
X67889999Y9155001D01*
X67889999Y9155001D02*
X73689999Y9155001D01*
D56*
X14715000Y12340000D02*
X14715000Y12140000D01*
X14715000Y12140000D02*
X15605000Y11250000D01*
X15605000Y11250000D02*
X16455401Y11250000D01*
X16455401Y11250000D02*
X18594991Y13389590D01*
X18594991Y13389590D02*
X18894990Y13689589D01*
X14715000Y12340000D02*
X12405000Y12340000D01*
X25545000Y19640000D02*
X20569998Y19640000D01*
X20569998Y19640000D02*
X19570000Y20640000D01*
X19570000Y20640000D02*
X19570000Y21640000D01*
D57*
X46950000Y-1250000D02*
X57480000Y-1250000D01*
X57480000Y-1250000D02*
X59060000Y330000D01*
X46000000Y-750000D02*
X46450000Y-750000D01*
X46450000Y-750000D02*
X46950000Y-1250000D01*
X43485000Y16750000D02*
X43440000Y16705000D01*
X45025000Y16750000D02*
X43485000Y16750000D01*
X54111236Y14880713D02*
X54111236Y15304977D01*
X59190000Y13705000D02*
X58290022Y14604978D01*
X58290022Y14604978D02*
X54386971Y14604978D01*
X54386971Y14604978D02*
X54111236Y14880713D01*
X59190000Y12129264D02*
X59190000Y11705000D01*
X59190000Y13705000D02*
X59190000Y12129264D01*
X59190000Y-290000D02*
X59190000Y9205000D01*
X59190000Y13705000D02*
X59190000Y11705000D01*
X59060000Y-420000D02*
X59190000Y-290000D01*
X45500000Y-1750000D02*
X60570000Y-1750000D01*
X60570000Y-1750000D02*
X61600000Y-720000D01*
X61600000Y-720000D02*
X61600000Y330000D01*
X45250000Y-1500000D02*
X45500000Y-1750000D01*
X45250000Y100000D02*
X45250000Y-1500000D01*
X46000000Y1500000D02*
X46000000Y850000D01*
X46000000Y850000D02*
X45250000Y100000D01*
X60190000Y9455000D02*
X60190000Y2705000D01*
X61600000Y1295000D02*
X61600000Y-420000D01*
X60190000Y2705000D02*
X61600000Y1295000D01*
X43484107Y15895132D02*
X43215888Y15895132D01*
X45025000Y16250000D02*
X43838975Y16250000D01*
X43838975Y16250000D02*
X43484107Y15895132D01*
X58440021Y15204979D02*
X55384748Y15204979D01*
X60190000Y12455000D02*
X60190000Y13455000D01*
X60190000Y13455000D02*
X58440021Y15204979D01*
X55384748Y15204979D02*
X54960484Y15204979D01*
X39071967Y25680079D02*
X39034921Y25680079D01*
X39034921Y25680079D02*
X30139979Y34575021D01*
X30139979Y34575021D02*
X30139979Y44610021D01*
X30139979Y44610021D02*
X22250000Y52500000D01*
X15750000Y52500000D02*
X15000000Y53250000D01*
X22250000Y52500000D02*
X15750000Y52500000D01*
X15000000Y53250000D02*
X15000000Y55500000D01*
D56*
X51250000Y20975000D02*
X51250000Y23144996D01*
X51250000Y23144996D02*
X48789272Y25605724D01*
X48789272Y25605724D02*
X41814268Y25605724D01*
X41814268Y25605724D02*
X41739913Y25680079D01*
X41739913Y25680079D02*
X39071967Y25680079D01*
D57*
X43050000Y-1750000D02*
X35267600Y-1750000D01*
X35267600Y-1750000D02*
X33420000Y97600D01*
X33420000Y97600D02*
X33420000Y250000D01*
X44500000Y-750000D02*
X44050000Y-750000D01*
X44050000Y-750000D02*
X43050000Y-1750000D01*
X41950000Y-1250000D02*
X37307600Y-1250000D01*
X44500000Y1300000D02*
X41950000Y-1250000D01*
X37307600Y-1250000D02*
X35960000Y97600D01*
X35960000Y97600D02*
X35960000Y250000D01*
X44500000Y1500000D02*
X44500000Y1300000D01*
D55*
X39000000Y2750000D02*
X39000000Y750000D01*
X39000000Y750000D02*
X38500000Y250000D01*
X45250000Y5750000D02*
X43925000Y5750000D01*
X39375000Y4500000D02*
X39000000Y4125000D01*
X43925000Y5750000D02*
X42675000Y4500000D01*
X42675000Y4500000D02*
X39375000Y4500000D01*
X39000000Y4125000D02*
X39000000Y2750000D01*
D66*
G36*
X59627000Y40127000D02*
X61373000Y40127000D01*
X61373000Y40147000D01*
X61627000Y40147000D01*
X61627000Y40127000D01*
X61647000Y40127000D01*
X61647000Y39873000D01*
X61627000Y39873000D01*
X61627000Y39023750D01*
X61785750Y38865000D01*
X62240000Y38865000D01*
X62240000Y38828691D01*
X62336673Y38595302D01*
X62515301Y38416673D01*
X62748690Y38320000D01*
X63214250Y38320000D01*
X63373000Y38478750D01*
X63373000Y39328000D01*
X63353000Y39328000D01*
X63353000Y39582000D01*
X63373000Y39582000D01*
X63373000Y39602000D01*
X63627000Y39602000D01*
X63627000Y39582000D01*
X63647000Y39582000D01*
X63647000Y39328000D01*
X63627000Y39328000D01*
X63627000Y38478750D01*
X63785750Y38320000D01*
X63805000Y38320000D01*
X63805000Y38087154D01*
X58837000Y38130887D01*
X58837000Y38865000D01*
X59214250Y38865000D01*
X59373000Y39023750D01*
X59373000Y39873000D01*
X59627000Y39873000D01*
X59627000Y39023750D01*
X59785750Y38865000D01*
X60251310Y38865000D01*
X60484699Y38961673D01*
X60500000Y38976974D01*
X60515301Y38961673D01*
X60748690Y38865000D01*
X61214250Y38865000D01*
X61373000Y39023750D01*
X61373000Y39873000D01*
X59627000Y39873000D01*
X59373000Y39873000D01*
X59353000Y39873000D01*
X59353000Y40127000D01*
X59373000Y40127000D01*
X59373000Y40147000D01*
X59627000Y40147000D01*
X59627000Y40127000D01*
X59627000Y40127000D01*
G37*
X59627000Y40127000D02*
X61373000Y40127000D01*
X61373000Y40147000D01*
X61627000Y40147000D01*
X61627000Y40127000D01*
X61647000Y40127000D01*
X61647000Y39873000D01*
X61627000Y39873000D01*
X61627000Y39023750D01*
X61785750Y38865000D01*
X62240000Y38865000D01*
X62240000Y38828691D01*
X62336673Y38595302D01*
X62515301Y38416673D01*
X62748690Y38320000D01*
X63214250Y38320000D01*
X63373000Y38478750D01*
X63373000Y39328000D01*
X63353000Y39328000D01*
X63353000Y39582000D01*
X63373000Y39582000D01*
X63373000Y39602000D01*
X63627000Y39602000D01*
X63627000Y39582000D01*
X63647000Y39582000D01*
X63647000Y39328000D01*
X63627000Y39328000D01*
X63627000Y38478750D01*
X63785750Y38320000D01*
X63805000Y38320000D01*
X63805000Y38087154D01*
X58837000Y38130887D01*
X58837000Y38865000D01*
X59214250Y38865000D01*
X59373000Y39023750D01*
X59373000Y39873000D01*
X59627000Y39873000D01*
X59627000Y39023750D01*
X59785750Y38865000D01*
X60251310Y38865000D01*
X60484699Y38961673D01*
X60500000Y38976974D01*
X60515301Y38961673D01*
X60748690Y38865000D01*
X61214250Y38865000D01*
X61373000Y39023750D01*
X61373000Y39873000D01*
X59627000Y39873000D01*
X59373000Y39873000D01*
X59353000Y39873000D01*
X59353000Y40127000D01*
X59373000Y40127000D01*
X59373000Y40147000D01*
X59627000Y40147000D01*
X59627000Y40127000D01*
G36*
X68720275Y43585278D02*
X68958727Y43425950D01*
X69239999Y43370001D01*
X70563000Y43370001D01*
X70563000Y42635000D01*
X70423690Y42635000D01*
X70190301Y42538327D01*
X70011673Y42359698D01*
X69915000Y42126309D01*
X69915000Y42033750D01*
X70073750Y41875000D01*
X70563000Y41875000D01*
X70563000Y41625000D01*
X70073750Y41625000D01*
X69915000Y41466250D01*
X69915000Y41373691D01*
X70011673Y41140302D01*
X70069975Y41082000D01*
X69797440Y41082000D01*
X69797440Y41375000D01*
X69753162Y41610317D01*
X69614090Y41826441D01*
X69401890Y41971431D01*
X69150000Y42022440D01*
X68696716Y42022440D01*
X67666834Y43052322D01*
X67772699Y43096173D01*
X67951327Y43274802D01*
X68048000Y43508191D01*
X68048000Y44047250D01*
X67889252Y44205998D01*
X68048000Y44205998D01*
X68048000Y44257553D01*
X68720275Y43585278D01*
X68720275Y43585278D01*
G37*
X68720275Y43585278D02*
X68958727Y43425950D01*
X69239999Y43370001D01*
X70563000Y43370001D01*
X70563000Y42635000D01*
X70423690Y42635000D01*
X70190301Y42538327D01*
X70011673Y42359698D01*
X69915000Y42126309D01*
X69915000Y42033750D01*
X70073750Y41875000D01*
X70563000Y41875000D01*
X70563000Y41625000D01*
X70073750Y41625000D01*
X69915000Y41466250D01*
X69915000Y41373691D01*
X70011673Y41140302D01*
X70069975Y41082000D01*
X69797440Y41082000D01*
X69797440Y41375000D01*
X69753162Y41610317D01*
X69614090Y41826441D01*
X69401890Y41971431D01*
X69150000Y42022440D01*
X68696716Y42022440D01*
X67666834Y43052322D01*
X67772699Y43096173D01*
X67951327Y43274802D01*
X68048000Y43508191D01*
X68048000Y44047250D01*
X67889252Y44205998D01*
X68048000Y44205998D01*
X68048000Y44257553D01*
X68720275Y43585278D01*
G36*
X59492535Y45613019D02*
X59634921Y45399921D01*
X59889594Y45229755D01*
X60190000Y45170000D01*
X61957050Y45170000D01*
X61952000Y45157809D01*
X61952000Y44618750D01*
X62110750Y44460000D01*
X62574560Y44460000D01*
X62574560Y44206000D01*
X62110750Y44206000D01*
X61952000Y44047250D01*
X61952000Y43569290D01*
X61530150Y43147440D01*
X60875000Y43147440D01*
X60639683Y43103162D01*
X60499273Y43012810D01*
X60376890Y43096431D01*
X60343525Y43103188D01*
X60161145Y43376139D01*
X58837000Y44700284D01*
X58837000Y46069967D01*
X59035587Y46069967D01*
X59492535Y45613019D01*
X59492535Y45613019D01*
G37*
X59492535Y45613019D02*
X59634921Y45399921D01*
X59889594Y45229755D01*
X60190000Y45170000D01*
X61957050Y45170000D01*
X61952000Y45157809D01*
X61952000Y44618750D01*
X62110750Y44460000D01*
X62574560Y44460000D01*
X62574560Y44206000D01*
X62110750Y44206000D01*
X61952000Y44047250D01*
X61952000Y43569290D01*
X61530150Y43147440D01*
X60875000Y43147440D01*
X60639683Y43103162D01*
X60499273Y43012810D01*
X60376890Y43096431D01*
X60343525Y43103188D01*
X60161145Y43376139D01*
X58837000Y44700284D01*
X58837000Y46069967D01*
X59035587Y46069967D01*
X59492535Y45613019D01*
G36*
X67480561Y51735419D02*
X69106355Y49302245D01*
X69302244Y49106356D01*
X70563000Y48263946D01*
X70563000Y47639987D01*
X67076438Y47639987D01*
X67107223Y47670772D01*
X67266551Y47909224D01*
X67272668Y47939978D01*
X67322500Y48190496D01*
X67322500Y48333500D01*
X67349502Y48333500D01*
X67349502Y48460498D01*
X67476500Y48333500D01*
X67539310Y48333500D01*
X67772699Y48430173D01*
X67951327Y48608802D01*
X68048000Y48842191D01*
X68048000Y49381250D01*
X67889250Y49540000D01*
X67425440Y49540000D01*
X67425440Y49794000D01*
X67889250Y49794000D01*
X68048000Y49952750D01*
X68048000Y50491809D01*
X67951327Y50725198D01*
X67772699Y50903827D01*
X67539310Y51000500D01*
X67476500Y51000500D01*
X67317750Y50841750D01*
X67317750Y50699362D01*
X67242090Y50816941D01*
X67029890Y50961931D01*
X67001274Y50967726D01*
X66968500Y51000500D01*
X66905690Y51000500D01*
X66883933Y50991488D01*
X66778000Y51012940D01*
X66677900Y51012940D01*
X66735000Y51300000D01*
X66735000Y51828000D01*
X67442213Y51828000D01*
X67480561Y51735419D01*
X67480561Y51735419D01*
G37*
X67480561Y51735419D02*
X69106355Y49302245D01*
X69302244Y49106356D01*
X70563000Y48263946D01*
X70563000Y47639987D01*
X67076438Y47639987D01*
X67107223Y47670772D01*
X67266551Y47909224D01*
X67272668Y47939978D01*
X67322500Y48190496D01*
X67322500Y48333500D01*
X67349502Y48333500D01*
X67349502Y48460498D01*
X67476500Y48333500D01*
X67539310Y48333500D01*
X67772699Y48430173D01*
X67951327Y48608802D01*
X68048000Y48842191D01*
X68048000Y49381250D01*
X67889250Y49540000D01*
X67425440Y49540000D01*
X67425440Y49794000D01*
X67889250Y49794000D01*
X68048000Y49952750D01*
X68048000Y50491809D01*
X67951327Y50725198D01*
X67772699Y50903827D01*
X67539310Y51000500D01*
X67476500Y51000500D01*
X67317750Y50841750D01*
X67317750Y50699362D01*
X67242090Y50816941D01*
X67029890Y50961931D01*
X67001274Y50967726D01*
X66968500Y51000500D01*
X66905690Y51000500D01*
X66883933Y50991488D01*
X66778000Y51012940D01*
X66677900Y51012940D01*
X66735000Y51300000D01*
X66735000Y51828000D01*
X67442213Y51828000D01*
X67480561Y51735419D01*
G36*
X62683673Y48608802D02*
X62862301Y48430173D01*
X62986111Y48378889D01*
X63031500Y48333500D01*
X63094310Y48333500D01*
X63095000Y48333786D01*
X63095690Y48333500D01*
X63158500Y48333500D01*
X63203889Y48378889D01*
X63327699Y48430173D01*
X63405786Y48508261D01*
X63605110Y48372069D01*
X63633726Y48366274D01*
X63666500Y48333500D01*
X63729310Y48333500D01*
X63751067Y48342512D01*
X63857000Y48321060D01*
X64238000Y48321060D01*
X64369662Y48345834D01*
X64492000Y48321060D01*
X64873000Y48321060D01*
X64981455Y48341467D01*
X65000690Y48333500D01*
X65063500Y48333500D01*
X65092330Y48362330D01*
X65108317Y48365338D01*
X65324441Y48504410D01*
X65325912Y48506563D01*
X65402301Y48430173D01*
X65526111Y48378889D01*
X65571500Y48333500D01*
X65634310Y48333500D01*
X65635000Y48333786D01*
X65635690Y48333500D01*
X65691057Y48333500D01*
X65397556Y48039998D01*
X62682445Y48039998D01*
X62338209Y48384233D01*
X62460690Y48333500D01*
X62523500Y48333500D01*
X62682250Y48492250D01*
X62682250Y48612237D01*
X62683673Y48608802D01*
X62683673Y48608802D01*
G37*
X62683673Y48608802D02*
X62862301Y48430173D01*
X62986111Y48378889D01*
X63031500Y48333500D01*
X63094310Y48333500D01*
X63095000Y48333786D01*
X63095690Y48333500D01*
X63158500Y48333500D01*
X63203889Y48378889D01*
X63327699Y48430173D01*
X63405786Y48508261D01*
X63605110Y48372069D01*
X63633726Y48366274D01*
X63666500Y48333500D01*
X63729310Y48333500D01*
X63751067Y48342512D01*
X63857000Y48321060D01*
X64238000Y48321060D01*
X64369662Y48345834D01*
X64492000Y48321060D01*
X64873000Y48321060D01*
X64981455Y48341467D01*
X65000690Y48333500D01*
X65063500Y48333500D01*
X65092330Y48362330D01*
X65108317Y48365338D01*
X65324441Y48504410D01*
X65325912Y48506563D01*
X65402301Y48430173D01*
X65526111Y48378889D01*
X65571500Y48333500D01*
X65634310Y48333500D01*
X65635000Y48333786D01*
X65635690Y48333500D01*
X65691057Y48333500D01*
X65397556Y48039998D01*
X62682445Y48039998D01*
X62338209Y48384233D01*
X62460690Y48333500D01*
X62523500Y48333500D01*
X62682250Y48492250D01*
X62682250Y48612237D01*
X62683673Y48608802D01*
G36*
X62265000Y51300000D02*
X62334936Y50948411D01*
X62227301Y50903827D01*
X62048673Y50725198D01*
X61952000Y50491809D01*
X61952000Y49952750D01*
X62110750Y49794000D01*
X62682250Y49794000D01*
X62682250Y49814000D01*
X62725750Y49814000D01*
X62745750Y49794000D01*
X62924500Y49794000D01*
X62924500Y49540000D01*
X62745750Y49540000D01*
X62682250Y49476500D01*
X62682250Y49540000D01*
X62110750Y49540000D01*
X61952000Y49381250D01*
X61952000Y48842191D01*
X62039790Y48630248D01*
X61959268Y48684051D01*
X61677996Y48740000D01*
X58837000Y48740000D01*
X58837000Y49474752D01*
X60686794Y49428040D01*
X60736441Y49436796D01*
X60778770Y49464177D01*
X60807112Y49505869D01*
X60817000Y49555000D01*
X60817000Y51828000D01*
X62265000Y51828000D01*
X62265000Y51300000D01*
X62265000Y51300000D01*
G37*
X62265000Y51300000D02*
X62334936Y50948411D01*
X62227301Y50903827D01*
X62048673Y50725198D01*
X61952000Y50491809D01*
X61952000Y49952750D01*
X62110750Y49794000D01*
X62682250Y49794000D01*
X62682250Y49814000D01*
X62725750Y49814000D01*
X62745750Y49794000D01*
X62924500Y49794000D01*
X62924500Y49540000D01*
X62745750Y49540000D01*
X62682250Y49476500D01*
X62682250Y49540000D01*
X62110750Y49540000D01*
X61952000Y49381250D01*
X61952000Y48842191D01*
X62039790Y48630248D01*
X61959268Y48684051D01*
X61677996Y48740000D01*
X58837000Y48740000D01*
X58837000Y49474752D01*
X60686794Y49428040D01*
X60736441Y49436796D01*
X60778770Y49464177D01*
X60807112Y49505869D01*
X60817000Y49555000D01*
X60817000Y51828000D01*
X62265000Y51828000D01*
X62265000Y51300000D01*
G36*
X64017000Y13330000D02*
X64037000Y13330000D01*
X64037000Y13082000D01*
X63817000Y13082000D01*
X63817000Y13352000D01*
X64017000Y13352000D01*
X64017000Y13330000D01*
X64017000Y13330000D01*
G37*
X64017000Y13330000D02*
X64037000Y13330000D01*
X64037000Y13082000D01*
X63817000Y13082000D01*
X63817000Y13352000D01*
X64017000Y13352000D01*
X64017000Y13330000D01*
G36*
X68830775Y19736916D02*
X68750340Y19685158D01*
X68630010Y19509049D01*
X68587676Y19300000D01*
X68587676Y18700000D01*
X68624423Y18504706D01*
X68739842Y18325340D01*
X68915951Y18205010D01*
X69078132Y18172167D01*
X69023000Y17895000D01*
X69078340Y17616789D01*
X69235933Y17380933D01*
X69471789Y17223340D01*
X69750000Y17168000D01*
X70892676Y17168000D01*
X70892676Y16355000D01*
X70902676Y16301854D01*
X70902676Y13082000D01*
X68525000Y13082000D01*
X68525000Y13569250D01*
X68366250Y13728000D01*
X66817000Y13728000D01*
X66817000Y13708000D01*
X66563000Y13708000D01*
X66563000Y13728000D01*
X65013750Y13728000D01*
X64943385Y13657635D01*
X64878327Y13814698D01*
X64699699Y13993327D01*
X64636460Y14019522D01*
X64714660Y14069842D01*
X64834990Y14245951D01*
X64855000Y14344762D01*
X64855000Y14140750D01*
X65013750Y13982000D01*
X66563000Y13982000D01*
X66563000Y15531250D01*
X66817000Y15531250D01*
X66817000Y13982000D01*
X68366250Y13982000D01*
X68525000Y14140750D01*
X68525000Y15181309D01*
X68428327Y15414698D01*
X68249699Y15593327D01*
X68016310Y15690000D01*
X66975750Y15690000D01*
X66817000Y15531250D01*
X66563000Y15531250D01*
X66404250Y15690000D01*
X65363690Y15690000D01*
X65130301Y15593327D01*
X64951673Y15414698D01*
X64855000Y15181309D01*
X64855000Y15073642D01*
X64840577Y15150294D01*
X64725158Y15329660D01*
X64549049Y15449990D01*
X64517000Y15456480D01*
X64517000Y15550981D01*
X64535294Y15554423D01*
X64714660Y15669842D01*
X64834990Y15845951D01*
X64877324Y16055000D01*
X64877324Y16555000D01*
X64840577Y16750294D01*
X64725158Y16929660D01*
X64549049Y17049990D01*
X64531077Y17053629D01*
X64535294Y17054423D01*
X64714660Y17169842D01*
X64834990Y17345951D01*
X64877324Y17555000D01*
X64877324Y18055000D01*
X64840577Y18250294D01*
X64725158Y18429660D01*
X64621915Y18500203D01*
X65449710Y19327998D01*
X65588748Y19327998D01*
X65430000Y19169250D01*
X65430000Y18828691D01*
X65526673Y18595302D01*
X65705301Y18416673D01*
X65938690Y18320000D01*
X66404250Y18320000D01*
X66563000Y18478750D01*
X66563000Y19328000D01*
X66817000Y19328000D01*
X66817000Y18478750D01*
X66975750Y18320000D01*
X67441310Y18320000D01*
X67674699Y18416673D01*
X67853327Y18595302D01*
X67950000Y18828691D01*
X67950000Y19169250D01*
X67791250Y19328000D01*
X66817000Y19328000D01*
X66563000Y19328000D01*
X66543000Y19328000D01*
X66543000Y19582000D01*
X66563000Y19582000D01*
X66563000Y19602000D01*
X66817000Y19602000D01*
X66817000Y19582000D01*
X67791250Y19582000D01*
X67950000Y19740750D01*
X67950000Y19919772D01*
X67979943Y19925728D01*
X68058175Y19978001D01*
X68530001Y19978001D01*
X68769944Y20025729D01*
X68801655Y20046917D01*
X68830775Y19736916D01*
X68830775Y19736916D01*
G37*
X68830775Y19736916D02*
X68750340Y19685158D01*
X68630010Y19509049D01*
X68587676Y19300000D01*
X68587676Y18700000D01*
X68624423Y18504706D01*
X68739842Y18325340D01*
X68915951Y18205010D01*
X69078132Y18172167D01*
X69023000Y17895000D01*
X69078340Y17616789D01*
X69235933Y17380933D01*
X69471789Y17223340D01*
X69750000Y17168000D01*
X70892676Y17168000D01*
X70892676Y16355000D01*
X70902676Y16301854D01*
X70902676Y13082000D01*
X68525000Y13082000D01*
X68525000Y13569250D01*
X68366250Y13728000D01*
X66817000Y13728000D01*
X66817000Y13708000D01*
X66563000Y13708000D01*
X66563000Y13728000D01*
X65013750Y13728000D01*
X64943385Y13657635D01*
X64878327Y13814698D01*
X64699699Y13993327D01*
X64636460Y14019522D01*
X64714660Y14069842D01*
X64834990Y14245951D01*
X64855000Y14344762D01*
X64855000Y14140750D01*
X65013750Y13982000D01*
X66563000Y13982000D01*
X66563000Y15531250D01*
X66817000Y15531250D01*
X66817000Y13982000D01*
X68366250Y13982000D01*
X68525000Y14140750D01*
X68525000Y15181309D01*
X68428327Y15414698D01*
X68249699Y15593327D01*
X68016310Y15690000D01*
X66975750Y15690000D01*
X66817000Y15531250D01*
X66563000Y15531250D01*
X66404250Y15690000D01*
X65363690Y15690000D01*
X65130301Y15593327D01*
X64951673Y15414698D01*
X64855000Y15181309D01*
X64855000Y15073642D01*
X64840577Y15150294D01*
X64725158Y15329660D01*
X64549049Y15449990D01*
X64517000Y15456480D01*
X64517000Y15550981D01*
X64535294Y15554423D01*
X64714660Y15669842D01*
X64834990Y15845951D01*
X64877324Y16055000D01*
X64877324Y16555000D01*
X64840577Y16750294D01*
X64725158Y16929660D01*
X64549049Y17049990D01*
X64531077Y17053629D01*
X64535294Y17054423D01*
X64714660Y17169842D01*
X64834990Y17345951D01*
X64877324Y17555000D01*
X64877324Y18055000D01*
X64840577Y18250294D01*
X64725158Y18429660D01*
X64621915Y18500203D01*
X65449710Y19327998D01*
X65588748Y19327998D01*
X65430000Y19169250D01*
X65430000Y18828691D01*
X65526673Y18595302D01*
X65705301Y18416673D01*
X65938690Y18320000D01*
X66404250Y18320000D01*
X66563000Y18478750D01*
X66563000Y19328000D01*
X66817000Y19328000D01*
X66817000Y18478750D01*
X66975750Y18320000D01*
X67441310Y18320000D01*
X67674699Y18416673D01*
X67853327Y18595302D01*
X67950000Y18828691D01*
X67950000Y19169250D01*
X67791250Y19328000D01*
X66817000Y19328000D01*
X66563000Y19328000D01*
X66543000Y19328000D01*
X66543000Y19582000D01*
X66563000Y19582000D01*
X66563000Y19602000D01*
X66817000Y19602000D01*
X66817000Y19582000D01*
X67791250Y19582000D01*
X67950000Y19740750D01*
X67950000Y19919772D01*
X67979943Y19925728D01*
X68058175Y19978001D01*
X68530001Y19978001D01*
X68769944Y20025729D01*
X68801655Y20046917D01*
X68830775Y19736916D01*
G36*
X72679842Y20930340D02*
X72768735Y20869602D01*
X72705301Y20843327D01*
X72526673Y20664698D01*
X72430000Y20431309D01*
X72430000Y20090750D01*
X72588750Y19932000D01*
X73563000Y19932000D01*
X73563000Y19952000D01*
X73817000Y19952000D01*
X73817000Y19932000D01*
X73837000Y19932000D01*
X73837000Y19678000D01*
X73817000Y19678000D01*
X73817000Y19658000D01*
X73563000Y19658000D01*
X73563000Y19678000D01*
X72588750Y19678000D01*
X72430000Y19519250D01*
X72430000Y19178691D01*
X72526673Y18945302D01*
X72705301Y18766673D01*
X72794975Y18729529D01*
X72605226Y18539780D01*
X72605223Y18539778D01*
X72517843Y18452398D01*
X72514048Y18471479D01*
X72400469Y18641461D01*
X72412324Y18700000D01*
X72412324Y19300000D01*
X72375577Y19495294D01*
X72260158Y19674660D01*
X72153165Y19747765D01*
X72200764Y19902351D01*
X72166895Y20261584D01*
X72249660Y20314842D01*
X72347654Y20458261D01*
X72389068Y20485933D01*
X72546661Y20721789D01*
X72602001Y21000000D01*
X72602001Y21051308D01*
X72679842Y20930340D01*
X72679842Y20930340D01*
G37*
X72679842Y20930340D02*
X72768735Y20869602D01*
X72705301Y20843327D01*
X72526673Y20664698D01*
X72430000Y20431309D01*
X72430000Y20090750D01*
X72588750Y19932000D01*
X73563000Y19932000D01*
X73563000Y19952000D01*
X73817000Y19952000D01*
X73817000Y19932000D01*
X73837000Y19932000D01*
X73837000Y19678000D01*
X73817000Y19678000D01*
X73817000Y19658000D01*
X73563000Y19658000D01*
X73563000Y19678000D01*
X72588750Y19678000D01*
X72430000Y19519250D01*
X72430000Y19178691D01*
X72526673Y18945302D01*
X72705301Y18766673D01*
X72794975Y18729529D01*
X72605226Y18539780D01*
X72605223Y18539778D01*
X72517843Y18452398D01*
X72514048Y18471479D01*
X72400469Y18641461D01*
X72412324Y18700000D01*
X72412324Y19300000D01*
X72375577Y19495294D01*
X72260158Y19674660D01*
X72153165Y19747765D01*
X72200764Y19902351D01*
X72166895Y20261584D01*
X72249660Y20314842D01*
X72347654Y20458261D01*
X72389068Y20485933D01*
X72546661Y20721789D01*
X72602001Y21000000D01*
X72602001Y21051308D01*
X72679842Y20930340D01*
G36*
X71302676Y23710074D02*
X71023801Y23431199D01*
X70801176Y23098016D01*
X70723000Y22705000D01*
X70747017Y22584257D01*
X70740274Y22574166D01*
X70559070Y22755688D01*
X70255222Y22881856D01*
X69926221Y22882143D01*
X69748142Y22808562D01*
X69666199Y22931199D01*
X69246182Y23351216D01*
X69277324Y23505000D01*
X69277324Y26828000D01*
X71302676Y26828000D01*
X71302676Y23710074D01*
X71302676Y23710074D01*
G37*
X71302676Y23710074D02*
X71023801Y23431199D01*
X70801176Y23098016D01*
X70723000Y22705000D01*
X70747017Y22584257D01*
X70740274Y22574166D01*
X70559070Y22755688D01*
X70255222Y22881856D01*
X69926221Y22882143D01*
X69748142Y22808562D01*
X69666199Y22931199D01*
X69246182Y23351216D01*
X69277324Y23505000D01*
X69277324Y26828000D01*
X71302676Y26828000D01*
X71302676Y23710074D01*
M02*
