G04 #@! TF.GenerationSoftware,KiCad,Pcbnew,(2017-06-12 revision 19d5cc754)-master*
G04 #@! TF.CreationDate,2018-05-14T22:42:30+02:00*
G04 #@! TF.ProjectId,RFID_MLX90109,524649445F4D4C5839303130392E6B69,rev?*
G04 #@! TF.FileFunction,Legend,Bot*
G04 #@! TF.FilePolarity,Positive*
%FSLAX46Y46*%
G04 Gerber Fmt 4.6, Leading zero omitted, Abs format (unit mm)*
G04 Created by KiCad (PCBNEW (2017-06-12 revision 19d5cc754)-master) date 2018 May 14, Monday 22:42:30*
%MOMM*%
%LPD*%
G01*
G04 APERTURE LIST*
%ADD10C,0.100000*%
%ADD11C,0.250000*%
%ADD12C,0.300000*%
%ADD13C,0.010000*%
%ADD14C,0.150000*%
G04 APERTURE END LIST*
D10*
D11*
X167616071Y-35792857D02*
X168016071Y-35221428D01*
X168301785Y-35792857D02*
X168301785Y-34592857D01*
X167844642Y-34592857D01*
X167730357Y-34650000D01*
X167673214Y-34707142D01*
X167616071Y-34821428D01*
X167616071Y-34992857D01*
X167673214Y-35107142D01*
X167730357Y-35164285D01*
X167844642Y-35221428D01*
X168301785Y-35221428D01*
X166701785Y-35164285D02*
X167101785Y-35164285D01*
X167101785Y-35792857D02*
X167101785Y-34592857D01*
X166530357Y-34592857D01*
X166073214Y-35792857D02*
X166073214Y-34592857D01*
X165501785Y-35792857D02*
X165501785Y-34592857D01*
X165216071Y-34592857D01*
X165044642Y-34650000D01*
X164930357Y-34764285D01*
X164873214Y-34878571D01*
X164816071Y-35107142D01*
X164816071Y-35278571D01*
X164873214Y-35507142D01*
X164930357Y-35621428D01*
X165044642Y-35735714D01*
X165216071Y-35792857D01*
X165501785Y-35792857D01*
X162701785Y-35792857D02*
X163101785Y-35221428D01*
X163387500Y-35792857D02*
X163387500Y-34592857D01*
X162930357Y-34592857D01*
X162816071Y-34650000D01*
X162758928Y-34707142D01*
X162701785Y-34821428D01*
X162701785Y-34992857D01*
X162758928Y-35107142D01*
X162816071Y-35164285D01*
X162930357Y-35221428D01*
X163387500Y-35221428D01*
X161730357Y-35735714D02*
X161844642Y-35792857D01*
X162073214Y-35792857D01*
X162187500Y-35735714D01*
X162244642Y-35621428D01*
X162244642Y-35164285D01*
X162187500Y-35050000D01*
X162073214Y-34992857D01*
X161844642Y-34992857D01*
X161730357Y-35050000D01*
X161673214Y-35164285D01*
X161673214Y-35278571D01*
X162244642Y-35392857D01*
X160644642Y-35792857D02*
X160644642Y-35164285D01*
X160701785Y-35050000D01*
X160816071Y-34992857D01*
X161044642Y-34992857D01*
X161158928Y-35050000D01*
X160644642Y-35735714D02*
X160758928Y-35792857D01*
X161044642Y-35792857D01*
X161158928Y-35735714D01*
X161216071Y-35621428D01*
X161216071Y-35507142D01*
X161158928Y-35392857D01*
X161044642Y-35335714D01*
X160758928Y-35335714D01*
X160644642Y-35278571D01*
X159558928Y-35792857D02*
X159558928Y-34592857D01*
X159558928Y-35735714D02*
X159673214Y-35792857D01*
X159901785Y-35792857D01*
X160016071Y-35735714D01*
X160073214Y-35678571D01*
X160130357Y-35564285D01*
X160130357Y-35221428D01*
X160073214Y-35107142D01*
X160016071Y-35050000D01*
X159901785Y-34992857D01*
X159673214Y-34992857D01*
X159558928Y-35050000D01*
X158530357Y-35735714D02*
X158644642Y-35792857D01*
X158873214Y-35792857D01*
X158987500Y-35735714D01*
X159044642Y-35621428D01*
X159044642Y-35164285D01*
X158987500Y-35050000D01*
X158873214Y-34992857D01*
X158644642Y-34992857D01*
X158530357Y-35050000D01*
X158473214Y-35164285D01*
X158473214Y-35278571D01*
X159044642Y-35392857D01*
X157958928Y-35792857D02*
X157958928Y-34992857D01*
X157958928Y-35221428D02*
X157901785Y-35107142D01*
X157844642Y-35050000D01*
X157730357Y-34992857D01*
X157616071Y-34992857D01*
X155958928Y-36250000D02*
X156016071Y-36192857D01*
X156130357Y-36021428D01*
X156187500Y-35907142D01*
X156244642Y-35735714D01*
X156301785Y-35450000D01*
X156301785Y-35221428D01*
X156244642Y-34935714D01*
X156187500Y-34764285D01*
X156130357Y-34650000D01*
X156016071Y-34478571D01*
X155958928Y-34421428D01*
X155501785Y-35792857D02*
X155501785Y-34592857D01*
X155101785Y-35450000D01*
X154701785Y-34592857D01*
X154701785Y-35792857D01*
X153558928Y-35792857D02*
X154130357Y-35792857D01*
X154130357Y-34592857D01*
X153273214Y-34592857D02*
X152473214Y-35792857D01*
X152473214Y-34592857D02*
X153273214Y-35792857D01*
X151958928Y-35792857D02*
X151730357Y-35792857D01*
X151616071Y-35735714D01*
X151558928Y-35678571D01*
X151444642Y-35507142D01*
X151387500Y-35278571D01*
X151387500Y-34821428D01*
X151444642Y-34707142D01*
X151501785Y-34650000D01*
X151616071Y-34592857D01*
X151844642Y-34592857D01*
X151958928Y-34650000D01*
X152016071Y-34707142D01*
X152073214Y-34821428D01*
X152073214Y-35107142D01*
X152016071Y-35221428D01*
X151958928Y-35278571D01*
X151844642Y-35335714D01*
X151616071Y-35335714D01*
X151501785Y-35278571D01*
X151444642Y-35221428D01*
X151387500Y-35107142D01*
X150644642Y-34592857D02*
X150530357Y-34592857D01*
X150416071Y-34650000D01*
X150358928Y-34707142D01*
X150301785Y-34821428D01*
X150244642Y-35050000D01*
X150244642Y-35335714D01*
X150301785Y-35564285D01*
X150358928Y-35678571D01*
X150416071Y-35735714D01*
X150530357Y-35792857D01*
X150644642Y-35792857D01*
X150758928Y-35735714D01*
X150816071Y-35678571D01*
X150873214Y-35564285D01*
X150930357Y-35335714D01*
X150930357Y-35050000D01*
X150873214Y-34821428D01*
X150816071Y-34707142D01*
X150758928Y-34650000D01*
X150644642Y-34592857D01*
X149101785Y-35792857D02*
X149787500Y-35792857D01*
X149444642Y-35792857D02*
X149444642Y-34592857D01*
X149558928Y-34764285D01*
X149673214Y-34878571D01*
X149787500Y-34935714D01*
X148358928Y-34592857D02*
X148244642Y-34592857D01*
X148130357Y-34650000D01*
X148073214Y-34707142D01*
X148016071Y-34821428D01*
X147958928Y-35050000D01*
X147958928Y-35335714D01*
X148016071Y-35564285D01*
X148073214Y-35678571D01*
X148130357Y-35735714D01*
X148244642Y-35792857D01*
X148358928Y-35792857D01*
X148473214Y-35735714D01*
X148530357Y-35678571D01*
X148587500Y-35564285D01*
X148644642Y-35335714D01*
X148644642Y-35050000D01*
X148587500Y-34821428D01*
X148530357Y-34707142D01*
X148473214Y-34650000D01*
X148358928Y-34592857D01*
X147387500Y-35792857D02*
X147158928Y-35792857D01*
X147044642Y-35735714D01*
X146987500Y-35678571D01*
X146873214Y-35507142D01*
X146816071Y-35278571D01*
X146816071Y-34821428D01*
X146873214Y-34707142D01*
X146930357Y-34650000D01*
X147044642Y-34592857D01*
X147273214Y-34592857D01*
X147387500Y-34650000D01*
X147444642Y-34707142D01*
X147501785Y-34821428D01*
X147501785Y-35107142D01*
X147444642Y-35221428D01*
X147387500Y-35278571D01*
X147273214Y-35335714D01*
X147044642Y-35335714D01*
X146930357Y-35278571D01*
X146873214Y-35221428D01*
X146816071Y-35107142D01*
X146416071Y-36250000D02*
X146358928Y-36192857D01*
X146244642Y-36021428D01*
X146187500Y-35907142D01*
X146130357Y-35735714D01*
X146073214Y-35450000D01*
X146073214Y-35221428D01*
X146130357Y-34935714D01*
X146187500Y-34764285D01*
X146244642Y-34650000D01*
X146358928Y-34478571D01*
X146416071Y-34421428D01*
X167823214Y-95817857D02*
X167594642Y-95817857D01*
X167480357Y-95875000D01*
X167366071Y-95989285D01*
X167308928Y-96217857D01*
X167308928Y-96617857D01*
X167366071Y-96846428D01*
X167480357Y-96960714D01*
X167594642Y-97017857D01*
X167823214Y-97017857D01*
X167937500Y-96960714D01*
X168051785Y-96846428D01*
X168108928Y-96617857D01*
X168108928Y-96217857D01*
X168051785Y-95989285D01*
X167937500Y-95875000D01*
X167823214Y-95817857D01*
X166280357Y-96960714D02*
X166394642Y-97017857D01*
X166623214Y-97017857D01*
X166737500Y-96960714D01*
X166794642Y-96903571D01*
X166851785Y-96789285D01*
X166851785Y-96446428D01*
X166794642Y-96332142D01*
X166737500Y-96275000D01*
X166623214Y-96217857D01*
X166394642Y-96217857D01*
X166280357Y-96275000D01*
X165937500Y-96217857D02*
X165480357Y-96217857D01*
X165766071Y-95817857D02*
X165766071Y-96846428D01*
X165708928Y-96960714D01*
X165594642Y-97017857D01*
X165480357Y-97017857D01*
X164566071Y-97017857D02*
X164566071Y-96389285D01*
X164623214Y-96275000D01*
X164737500Y-96217857D01*
X164966071Y-96217857D01*
X165080357Y-96275000D01*
X164566071Y-96960714D02*
X164680357Y-97017857D01*
X164966071Y-97017857D01*
X165080357Y-96960714D01*
X165137500Y-96846428D01*
X165137500Y-96732142D01*
X165080357Y-96617857D01*
X164966071Y-96560714D01*
X164680357Y-96560714D01*
X164566071Y-96503571D01*
X163994642Y-96217857D02*
X163994642Y-97017857D01*
X163994642Y-96332142D02*
X163937500Y-96275000D01*
X163823214Y-96217857D01*
X163651785Y-96217857D01*
X163537500Y-96275000D01*
X163480357Y-96389285D01*
X163480357Y-97017857D01*
X162908928Y-97017857D02*
X162908928Y-96217857D01*
X162908928Y-95817857D02*
X162966071Y-95875000D01*
X162908928Y-95932142D01*
X162851785Y-95875000D01*
X162908928Y-95817857D01*
X162908928Y-95932142D01*
X162394642Y-96960714D02*
X162280357Y-97017857D01*
X162051785Y-97017857D01*
X161937500Y-96960714D01*
X161880357Y-96846428D01*
X161880357Y-96789285D01*
X161937500Y-96675000D01*
X162051785Y-96617857D01*
X162223214Y-96617857D01*
X162337500Y-96560714D01*
X162394642Y-96446428D01*
X162394642Y-96389285D01*
X162337500Y-96275000D01*
X162223214Y-96217857D01*
X162051785Y-96217857D01*
X161937500Y-96275000D01*
X160451785Y-97017857D02*
X160451785Y-95817857D01*
X159766071Y-97017857D01*
X159766071Y-95817857D01*
X158737500Y-96960714D02*
X158851785Y-97017857D01*
X159080357Y-97017857D01*
X159194642Y-96960714D01*
X159251785Y-96846428D01*
X159251785Y-96389285D01*
X159194642Y-96275000D01*
X159080357Y-96217857D01*
X158851785Y-96217857D01*
X158737500Y-96275000D01*
X158680357Y-96389285D01*
X158680357Y-96503571D01*
X159251785Y-96617857D01*
X158223214Y-96960714D02*
X158108928Y-97017857D01*
X157880357Y-97017857D01*
X157766071Y-96960714D01*
X157708928Y-96846428D01*
X157708928Y-96789285D01*
X157766071Y-96675000D01*
X157880357Y-96617857D01*
X158051785Y-96617857D01*
X158166071Y-96560714D01*
X158223214Y-96446428D01*
X158223214Y-96389285D01*
X158166071Y-96275000D01*
X158051785Y-96217857D01*
X157880357Y-96217857D01*
X157766071Y-96275000D01*
X157366071Y-96217857D02*
X156908928Y-96217857D01*
X157194642Y-95817857D02*
X157194642Y-96846428D01*
X157137500Y-96960714D01*
X157023214Y-97017857D01*
X156908928Y-97017857D01*
X156508928Y-97017857D02*
X156508928Y-95817857D01*
X156508928Y-96275000D02*
X156394642Y-96217857D01*
X156166071Y-96217857D01*
X156051785Y-96275000D01*
X155994642Y-96332142D01*
X155937500Y-96446428D01*
X155937500Y-96789285D01*
X155994642Y-96903571D01*
X156051785Y-96960714D01*
X156166071Y-97017857D01*
X156394642Y-97017857D01*
X156508928Y-96960714D01*
X155251785Y-97017857D02*
X155366071Y-96960714D01*
X155423214Y-96903571D01*
X155480357Y-96789285D01*
X155480357Y-96446428D01*
X155423214Y-96332142D01*
X155366071Y-96275000D01*
X155251785Y-96217857D01*
X155080357Y-96217857D01*
X154966071Y-96275000D01*
X154908928Y-96332142D01*
X154851785Y-96446428D01*
X154851785Y-96789285D01*
X154908928Y-96903571D01*
X154966071Y-96960714D01*
X155080357Y-97017857D01*
X155251785Y-97017857D01*
X154451785Y-97017857D02*
X153823214Y-96217857D01*
X154451785Y-96217857D02*
X153823214Y-97017857D01*
X152451785Y-97017857D02*
X152451785Y-95817857D01*
X151994642Y-95817857D01*
X151880357Y-95875000D01*
X151823214Y-95932142D01*
X151766071Y-96046428D01*
X151766071Y-96217857D01*
X151823214Y-96332142D01*
X151880357Y-96389285D01*
X151994642Y-96446428D01*
X152451785Y-96446428D01*
X151251785Y-97017857D02*
X151251785Y-96217857D01*
X151251785Y-96446428D02*
X151194642Y-96332142D01*
X151137500Y-96275000D01*
X151023214Y-96217857D01*
X150908928Y-96217857D01*
X150337500Y-97017857D02*
X150451785Y-96960714D01*
X150508928Y-96903571D01*
X150566071Y-96789285D01*
X150566071Y-96446428D01*
X150508928Y-96332142D01*
X150451785Y-96275000D01*
X150337500Y-96217857D01*
X150166071Y-96217857D01*
X150051785Y-96275000D01*
X149994642Y-96332142D01*
X149937500Y-96446428D01*
X149937500Y-96789285D01*
X149994642Y-96903571D01*
X150051785Y-96960714D01*
X150166071Y-97017857D01*
X150337500Y-97017857D01*
X149423214Y-96217857D02*
X149423214Y-97246428D01*
X149480357Y-97360714D01*
X149594642Y-97417857D01*
X149651785Y-97417857D01*
X149423214Y-95817857D02*
X149480357Y-95875000D01*
X149423214Y-95932142D01*
X149366071Y-95875000D01*
X149423214Y-95817857D01*
X149423214Y-95932142D01*
X148394642Y-96960714D02*
X148508928Y-97017857D01*
X148737500Y-97017857D01*
X148851785Y-96960714D01*
X148908928Y-96846428D01*
X148908928Y-96389285D01*
X148851785Y-96275000D01*
X148737500Y-96217857D01*
X148508928Y-96217857D01*
X148394642Y-96275000D01*
X148337500Y-96389285D01*
X148337500Y-96503571D01*
X148908928Y-96617857D01*
X147308928Y-96960714D02*
X147423214Y-97017857D01*
X147651785Y-97017857D01*
X147766071Y-96960714D01*
X147823214Y-96903571D01*
X147880357Y-96789285D01*
X147880357Y-96446428D01*
X147823214Y-96332142D01*
X147766071Y-96275000D01*
X147651785Y-96217857D01*
X147423214Y-96217857D01*
X147308928Y-96275000D01*
X146966071Y-96217857D02*
X146508928Y-96217857D01*
X146794642Y-95817857D02*
X146794642Y-96846428D01*
X146737500Y-96960714D01*
X146623214Y-97017857D01*
X146508928Y-97017857D01*
X168051785Y-99067857D02*
X168051785Y-98267857D01*
X168051785Y-97867857D02*
X168108928Y-97925000D01*
X168051785Y-97982142D01*
X167994642Y-97925000D01*
X168051785Y-97867857D01*
X168051785Y-97982142D01*
X167480357Y-98267857D02*
X167480357Y-99067857D01*
X167480357Y-98382142D02*
X167423214Y-98325000D01*
X167308928Y-98267857D01*
X167137500Y-98267857D01*
X167023214Y-98325000D01*
X166966071Y-98439285D01*
X166966071Y-99067857D01*
X164966071Y-99010714D02*
X165080357Y-99067857D01*
X165308928Y-99067857D01*
X165423214Y-99010714D01*
X165480357Y-98953571D01*
X165537500Y-98839285D01*
X165537500Y-98496428D01*
X165480357Y-98382142D01*
X165423214Y-98325000D01*
X165308928Y-98267857D01*
X165080357Y-98267857D01*
X164966071Y-98325000D01*
X164280357Y-99067857D02*
X164394642Y-99010714D01*
X164451785Y-98953571D01*
X164508928Y-98839285D01*
X164508928Y-98496428D01*
X164451785Y-98382142D01*
X164394642Y-98325000D01*
X164280357Y-98267857D01*
X164108928Y-98267857D01*
X163994642Y-98325000D01*
X163937500Y-98382142D01*
X163880357Y-98496428D01*
X163880357Y-98839285D01*
X163937500Y-98953571D01*
X163994642Y-99010714D01*
X164108928Y-99067857D01*
X164280357Y-99067857D01*
X163194642Y-99067857D02*
X163308928Y-99010714D01*
X163366071Y-98896428D01*
X163366071Y-97867857D01*
X162566071Y-99067857D02*
X162680357Y-99010714D01*
X162737500Y-98896428D01*
X162737500Y-97867857D01*
X161594642Y-99067857D02*
X161594642Y-98439285D01*
X161651785Y-98325000D01*
X161766071Y-98267857D01*
X161994642Y-98267857D01*
X162108928Y-98325000D01*
X161594642Y-99010714D02*
X161708928Y-99067857D01*
X161994642Y-99067857D01*
X162108928Y-99010714D01*
X162166071Y-98896428D01*
X162166071Y-98782142D01*
X162108928Y-98667857D01*
X161994642Y-98610714D01*
X161708928Y-98610714D01*
X161594642Y-98553571D01*
X161023214Y-99067857D02*
X161023214Y-97867857D01*
X161023214Y-98325000D02*
X160908928Y-98267857D01*
X160680357Y-98267857D01*
X160566071Y-98325000D01*
X160508928Y-98382142D01*
X160451785Y-98496428D01*
X160451785Y-98839285D01*
X160508928Y-98953571D01*
X160566071Y-99010714D01*
X160680357Y-99067857D01*
X160908928Y-99067857D01*
X161023214Y-99010714D01*
X159766071Y-99067857D02*
X159880357Y-99010714D01*
X159937500Y-98953571D01*
X159994642Y-98839285D01*
X159994642Y-98496428D01*
X159937500Y-98382142D01*
X159880357Y-98325000D01*
X159766071Y-98267857D01*
X159594642Y-98267857D01*
X159480357Y-98325000D01*
X159423214Y-98382142D01*
X159366071Y-98496428D01*
X159366071Y-98839285D01*
X159423214Y-98953571D01*
X159480357Y-99010714D01*
X159594642Y-99067857D01*
X159766071Y-99067857D01*
X158851785Y-99067857D02*
X158851785Y-98267857D01*
X158851785Y-98496428D02*
X158794642Y-98382142D01*
X158737500Y-98325000D01*
X158623214Y-98267857D01*
X158508928Y-98267857D01*
X157594642Y-99067857D02*
X157594642Y-98439285D01*
X157651785Y-98325000D01*
X157766071Y-98267857D01*
X157994642Y-98267857D01*
X158108928Y-98325000D01*
X157594642Y-99010714D02*
X157708928Y-99067857D01*
X157994642Y-99067857D01*
X158108928Y-99010714D01*
X158166071Y-98896428D01*
X158166071Y-98782142D01*
X158108928Y-98667857D01*
X157994642Y-98610714D01*
X157708928Y-98610714D01*
X157594642Y-98553571D01*
X157194642Y-98267857D02*
X156737500Y-98267857D01*
X157023214Y-97867857D02*
X157023214Y-98896428D01*
X156966071Y-99010714D01*
X156851785Y-99067857D01*
X156737500Y-99067857D01*
X156337500Y-99067857D02*
X156337500Y-98267857D01*
X156337500Y-97867857D02*
X156394642Y-97925000D01*
X156337500Y-97982142D01*
X156280357Y-97925000D01*
X156337500Y-97867857D01*
X156337500Y-97982142D01*
X155594642Y-99067857D02*
X155708928Y-99010714D01*
X155766071Y-98953571D01*
X155823214Y-98839285D01*
X155823214Y-98496428D01*
X155766071Y-98382142D01*
X155708928Y-98325000D01*
X155594642Y-98267857D01*
X155423214Y-98267857D01*
X155308928Y-98325000D01*
X155251785Y-98382142D01*
X155194642Y-98496428D01*
X155194642Y-98839285D01*
X155251785Y-98953571D01*
X155308928Y-99010714D01*
X155423214Y-99067857D01*
X155594642Y-99067857D01*
X154680357Y-98267857D02*
X154680357Y-99067857D01*
X154680357Y-98382142D02*
X154623214Y-98325000D01*
X154508928Y-98267857D01*
X154337500Y-98267857D01*
X154223214Y-98325000D01*
X154166071Y-98439285D01*
X154166071Y-99067857D01*
X152794642Y-98267857D02*
X152566071Y-99067857D01*
X152337500Y-98496428D01*
X152108928Y-99067857D01*
X151880357Y-98267857D01*
X151423214Y-99067857D02*
X151423214Y-98267857D01*
X151423214Y-97867857D02*
X151480357Y-97925000D01*
X151423214Y-97982142D01*
X151366071Y-97925000D01*
X151423214Y-97867857D01*
X151423214Y-97982142D01*
X151023214Y-98267857D02*
X150566071Y-98267857D01*
X150851785Y-97867857D02*
X150851785Y-98896428D01*
X150794642Y-99010714D01*
X150680357Y-99067857D01*
X150566071Y-99067857D01*
X150166071Y-99067857D02*
X150166071Y-97867857D01*
X149651785Y-99067857D02*
X149651785Y-98439285D01*
X149708928Y-98325000D01*
X149823214Y-98267857D01*
X149994642Y-98267857D01*
X150108928Y-98325000D01*
X150166071Y-98382142D01*
X149080357Y-98953571D02*
X149023214Y-99010714D01*
X149080357Y-99067857D01*
X149137500Y-99010714D01*
X149080357Y-98953571D01*
X149080357Y-99067857D01*
X149080357Y-98325000D02*
X149023214Y-98382142D01*
X149080357Y-98439285D01*
X149137500Y-98382142D01*
X149080357Y-98325000D01*
X149080357Y-98439285D01*
D12*
X161964285Y-112642857D02*
X161564285Y-113842857D01*
X161164285Y-112642857D01*
X159164285Y-113728571D02*
X159221428Y-113785714D01*
X159392857Y-113842857D01*
X159507142Y-113842857D01*
X159678571Y-113785714D01*
X159792857Y-113671428D01*
X159850000Y-113557142D01*
X159907142Y-113328571D01*
X159907142Y-113157142D01*
X159850000Y-112928571D01*
X159792857Y-112814285D01*
X159678571Y-112700000D01*
X159507142Y-112642857D01*
X159392857Y-112642857D01*
X159221428Y-112700000D01*
X159164285Y-112757142D01*
X157735714Y-113842857D02*
X157735714Y-112642857D01*
X157450000Y-112642857D01*
X157278571Y-112700000D01*
X157164285Y-112814285D01*
X157107142Y-112928571D01*
X157050000Y-113157142D01*
X157050000Y-113328571D01*
X157107142Y-113557142D01*
X157164285Y-113671428D01*
X157278571Y-113785714D01*
X157450000Y-113842857D01*
X157735714Y-113842857D01*
X155621428Y-113842857D02*
X155621428Y-112642857D01*
X155221428Y-113500000D01*
X154821428Y-112642857D01*
X154821428Y-113842857D01*
X152707142Y-112700000D02*
X152821428Y-112642857D01*
X152992857Y-112642857D01*
X153164285Y-112700000D01*
X153278571Y-112814285D01*
X153335714Y-112928571D01*
X153392857Y-113157142D01*
X153392857Y-113328571D01*
X153335714Y-113557142D01*
X153278571Y-113671428D01*
X153164285Y-113785714D01*
X152992857Y-113842857D01*
X152878571Y-113842857D01*
X152707142Y-113785714D01*
X152650000Y-113728571D01*
X152650000Y-113328571D01*
X152878571Y-113328571D01*
D13*
G36*
X162703641Y-104514986D02*
X162673141Y-104544713D01*
X162664667Y-104578522D01*
X162677962Y-104629042D01*
X162711370Y-104660626D01*
X162755175Y-104670376D01*
X162799659Y-104655392D01*
X162827091Y-104627000D01*
X162845007Y-104593858D01*
X162842109Y-104567799D01*
X162827091Y-104542333D01*
X162791121Y-104511455D01*
X162746469Y-104503120D01*
X162703641Y-104514986D01*
X162703641Y-104514986D01*
G37*
X162703641Y-104514986D02*
X162673141Y-104544713D01*
X162664667Y-104578522D01*
X162677962Y-104629042D01*
X162711370Y-104660626D01*
X162755175Y-104670376D01*
X162799659Y-104655392D01*
X162827091Y-104627000D01*
X162845007Y-104593858D01*
X162842109Y-104567799D01*
X162827091Y-104542333D01*
X162791121Y-104511455D01*
X162746469Y-104503120D01*
X162703641Y-104514986D01*
G36*
X148440667Y-104774701D02*
X148440447Y-104876252D01*
X148439483Y-104948003D01*
X148437324Y-104994015D01*
X148433516Y-105018355D01*
X148427605Y-105025084D01*
X148419139Y-105018268D01*
X148414239Y-105011671D01*
X148362254Y-104964527D01*
X148290072Y-104934149D01*
X148207728Y-104922044D01*
X148125261Y-104929721D01*
X148054449Y-104957613D01*
X148018555Y-104982653D01*
X147990442Y-105011717D01*
X147969179Y-105049052D01*
X147953835Y-105098905D01*
X147943480Y-105165523D01*
X147937183Y-105253155D01*
X147934014Y-105366046D01*
X147933042Y-105508445D01*
X147933039Y-105511766D01*
X147932667Y-105888533D01*
X148149790Y-105888533D01*
X148155616Y-105545633D01*
X148158892Y-105407705D01*
X148163550Y-105301903D01*
X148169714Y-105226505D01*
X148177507Y-105179795D01*
X148183010Y-105164833D01*
X148221950Y-105126516D01*
X148275017Y-105111347D01*
X148331959Y-105118964D01*
X148382523Y-105149009D01*
X148402353Y-105172545D01*
X148413070Y-105193514D01*
X148421341Y-105222799D01*
X148427665Y-105265300D01*
X148432539Y-105325917D01*
X148436463Y-105409552D01*
X148439935Y-105521105D01*
X148440667Y-105549043D01*
X148449133Y-105880066D01*
X148677733Y-105890080D01*
X148677733Y-104500000D01*
X148440667Y-104500000D01*
X148440667Y-104774701D01*
X148440667Y-104774701D01*
G37*
X148440667Y-104774701D02*
X148440447Y-104876252D01*
X148439483Y-104948003D01*
X148437324Y-104994015D01*
X148433516Y-105018355D01*
X148427605Y-105025084D01*
X148419139Y-105018268D01*
X148414239Y-105011671D01*
X148362254Y-104964527D01*
X148290072Y-104934149D01*
X148207728Y-104922044D01*
X148125261Y-104929721D01*
X148054449Y-104957613D01*
X148018555Y-104982653D01*
X147990442Y-105011717D01*
X147969179Y-105049052D01*
X147953835Y-105098905D01*
X147943480Y-105165523D01*
X147937183Y-105253155D01*
X147934014Y-105366046D01*
X147933042Y-105508445D01*
X147933039Y-105511766D01*
X147932667Y-105888533D01*
X148149790Y-105888533D01*
X148155616Y-105545633D01*
X148158892Y-105407705D01*
X148163550Y-105301903D01*
X148169714Y-105226505D01*
X148177507Y-105179795D01*
X148183010Y-105164833D01*
X148221950Y-105126516D01*
X148275017Y-105111347D01*
X148331959Y-105118964D01*
X148382523Y-105149009D01*
X148402353Y-105172545D01*
X148413070Y-105193514D01*
X148421341Y-105222799D01*
X148427665Y-105265300D01*
X148432539Y-105325917D01*
X148436463Y-105409552D01*
X148439935Y-105521105D01*
X148440667Y-105549043D01*
X148449133Y-105880066D01*
X148677733Y-105890080D01*
X148677733Y-104500000D01*
X148440667Y-104500000D01*
X148440667Y-104774701D01*
G36*
X149866542Y-105756509D02*
X149871533Y-105880066D01*
X149977586Y-105885113D01*
X150041180Y-105885864D01*
X150077543Y-105879900D01*
X150092801Y-105866284D01*
X150096951Y-105837145D01*
X150098124Y-105786753D01*
X150096815Y-105742703D01*
X150091667Y-105642999D01*
X149861551Y-105632951D01*
X149866542Y-105756509D01*
X149866542Y-105756509D01*
G37*
X149866542Y-105756509D02*
X149871533Y-105880066D01*
X149977586Y-105885113D01*
X150041180Y-105885864D01*
X150077543Y-105879900D01*
X150092801Y-105866284D01*
X150096951Y-105837145D01*
X150098124Y-105786753D01*
X150096815Y-105742703D01*
X150091667Y-105642999D01*
X149861551Y-105632951D01*
X149866542Y-105756509D01*
G36*
X152098267Y-105033722D02*
X152098894Y-105092761D01*
X152102612Y-105124864D01*
X152112178Y-105136960D01*
X152130349Y-105135976D01*
X152138195Y-105134090D01*
X152192257Y-105135106D01*
X152252824Y-105157292D01*
X152306410Y-105194480D01*
X152329783Y-105221706D01*
X152341109Y-105243145D01*
X152349615Y-105271550D01*
X152355840Y-105312141D01*
X152360321Y-105370136D01*
X152363597Y-105450756D01*
X152366205Y-105559219D01*
X152366582Y-105578720D01*
X152372430Y-105888533D01*
X152589334Y-105888533D01*
X152592626Y-105465199D01*
X152593576Y-105345692D01*
X152594495Y-105234753D01*
X152595337Y-105137739D01*
X152596054Y-105060001D01*
X152596599Y-105006893D01*
X152596859Y-104986833D01*
X152597800Y-104931799D01*
X152394600Y-104931799D01*
X152389542Y-105000714D01*
X152384485Y-105069628D01*
X152311337Y-104996480D01*
X152265434Y-104954092D01*
X152228852Y-104931951D01*
X152189643Y-104923948D01*
X152168228Y-104923333D01*
X152098267Y-104923333D01*
X152098267Y-105033722D01*
X152098267Y-105033722D01*
G37*
X152098267Y-105033722D02*
X152098894Y-105092761D01*
X152102612Y-105124864D01*
X152112178Y-105136960D01*
X152130349Y-105135976D01*
X152138195Y-105134090D01*
X152192257Y-105135106D01*
X152252824Y-105157292D01*
X152306410Y-105194480D01*
X152329783Y-105221706D01*
X152341109Y-105243145D01*
X152349615Y-105271550D01*
X152355840Y-105312141D01*
X152360321Y-105370136D01*
X152363597Y-105450756D01*
X152366205Y-105559219D01*
X152366582Y-105578720D01*
X152372430Y-105888533D01*
X152589334Y-105888533D01*
X152592626Y-105465199D01*
X152593576Y-105345692D01*
X152594495Y-105234753D01*
X152595337Y-105137739D01*
X152596054Y-105060001D01*
X152596599Y-105006893D01*
X152596859Y-104986833D01*
X152597800Y-104931799D01*
X152394600Y-104931799D01*
X152389542Y-105000714D01*
X152384485Y-105069628D01*
X152311337Y-104996480D01*
X152265434Y-104954092D01*
X152228852Y-104931951D01*
X152189643Y-104923948D01*
X152168228Y-104923333D01*
X152098267Y-104923333D01*
X152098267Y-105033722D01*
G36*
X153850823Y-104926607D02*
X153830502Y-104940059D01*
X153825405Y-104969275D01*
X153833421Y-105019353D01*
X153852439Y-105095390D01*
X153861478Y-105129740D01*
X153886287Y-105223823D01*
X153913818Y-105327804D01*
X153942574Y-105436071D01*
X153971058Y-105543015D01*
X153997771Y-105643023D01*
X154021215Y-105730486D01*
X154039894Y-105799791D01*
X154052308Y-105845329D01*
X154056124Y-105858900D01*
X154066083Y-105874544D01*
X154089389Y-105883612D01*
X154133317Y-105887723D01*
X154189158Y-105888533D01*
X154313499Y-105888533D01*
X154347230Y-105740366D01*
X154365201Y-105661393D01*
X154387517Y-105563273D01*
X154411023Y-105459885D01*
X154428035Y-105385031D01*
X154446471Y-105307647D01*
X154463054Y-105244923D01*
X154476102Y-105202753D01*
X154483932Y-105187029D01*
X154484483Y-105187237D01*
X154490836Y-105205875D01*
X154503197Y-105252543D01*
X154520331Y-105322190D01*
X154541003Y-105409764D01*
X154563979Y-105510212D01*
X154570295Y-105538339D01*
X154646733Y-105880066D01*
X154768060Y-105885012D01*
X154828871Y-105885463D01*
X154875377Y-105882018D01*
X154898245Y-105875413D01*
X154898809Y-105874713D01*
X154906260Y-105853589D01*
X154920759Y-105804908D01*
X154940905Y-105733912D01*
X154965297Y-105645840D01*
X154992537Y-105545932D01*
X155021224Y-105439429D01*
X155049958Y-105331571D01*
X155077338Y-105227599D01*
X155101965Y-105132751D01*
X155122438Y-105052269D01*
X155137357Y-104991393D01*
X155145323Y-104955363D01*
X155146267Y-104948550D01*
X155140835Y-104934287D01*
X155119979Y-104926991D01*
X155076862Y-104925361D01*
X155032058Y-104926792D01*
X154917850Y-104931799D01*
X154864277Y-105185799D01*
X154843688Y-105283689D01*
X154823826Y-105378606D01*
X154806569Y-105461544D01*
X154793795Y-105523498D01*
X154790740Y-105538509D01*
X154779131Y-105589401D01*
X154769052Y-105622317D01*
X154763524Y-105629968D01*
X154757846Y-105611899D01*
X154746395Y-105565970D01*
X154730401Y-105497456D01*
X154711095Y-105411629D01*
X154689706Y-105313766D01*
X154689137Y-105311125D01*
X154667375Y-105210349D01*
X154647534Y-105118893D01*
X154630922Y-105042748D01*
X154618846Y-104987907D01*
X154612701Y-104960730D01*
X154605894Y-104941248D01*
X154592077Y-104930093D01*
X154563718Y-104925444D01*
X154513284Y-104925479D01*
X154472668Y-104926863D01*
X154341933Y-104931799D01*
X154266009Y-105292460D01*
X154243692Y-105396562D01*
X154223455Y-105487349D01*
X154206358Y-105560352D01*
X154193463Y-105611105D01*
X154185830Y-105635141D01*
X154184402Y-105636070D01*
X154179388Y-105615004D01*
X154168655Y-105565972D01*
X154153313Y-105494183D01*
X154134471Y-105404842D01*
X154113240Y-105303155D01*
X154107481Y-105275410D01*
X154036245Y-104931799D01*
X153945574Y-104926604D01*
X153888477Y-104923821D01*
X153850823Y-104926607D01*
X153850823Y-104926607D01*
G37*
X153850823Y-104926607D02*
X153830502Y-104940059D01*
X153825405Y-104969275D01*
X153833421Y-105019353D01*
X153852439Y-105095390D01*
X153861478Y-105129740D01*
X153886287Y-105223823D01*
X153913818Y-105327804D01*
X153942574Y-105436071D01*
X153971058Y-105543015D01*
X153997771Y-105643023D01*
X154021215Y-105730486D01*
X154039894Y-105799791D01*
X154052308Y-105845329D01*
X154056124Y-105858900D01*
X154066083Y-105874544D01*
X154089389Y-105883612D01*
X154133317Y-105887723D01*
X154189158Y-105888533D01*
X154313499Y-105888533D01*
X154347230Y-105740366D01*
X154365201Y-105661393D01*
X154387517Y-105563273D01*
X154411023Y-105459885D01*
X154428035Y-105385031D01*
X154446471Y-105307647D01*
X154463054Y-105244923D01*
X154476102Y-105202753D01*
X154483932Y-105187029D01*
X154484483Y-105187237D01*
X154490836Y-105205875D01*
X154503197Y-105252543D01*
X154520331Y-105322190D01*
X154541003Y-105409764D01*
X154563979Y-105510212D01*
X154570295Y-105538339D01*
X154646733Y-105880066D01*
X154768060Y-105885012D01*
X154828871Y-105885463D01*
X154875377Y-105882018D01*
X154898245Y-105875413D01*
X154898809Y-105874713D01*
X154906260Y-105853589D01*
X154920759Y-105804908D01*
X154940905Y-105733912D01*
X154965297Y-105645840D01*
X154992537Y-105545932D01*
X155021224Y-105439429D01*
X155049958Y-105331571D01*
X155077338Y-105227599D01*
X155101965Y-105132751D01*
X155122438Y-105052269D01*
X155137357Y-104991393D01*
X155145323Y-104955363D01*
X155146267Y-104948550D01*
X155140835Y-104934287D01*
X155119979Y-104926991D01*
X155076862Y-104925361D01*
X155032058Y-104926792D01*
X154917850Y-104931799D01*
X154864277Y-105185799D01*
X154843688Y-105283689D01*
X154823826Y-105378606D01*
X154806569Y-105461544D01*
X154793795Y-105523498D01*
X154790740Y-105538509D01*
X154779131Y-105589401D01*
X154769052Y-105622317D01*
X154763524Y-105629968D01*
X154757846Y-105611899D01*
X154746395Y-105565970D01*
X154730401Y-105497456D01*
X154711095Y-105411629D01*
X154689706Y-105313766D01*
X154689137Y-105311125D01*
X154667375Y-105210349D01*
X154647534Y-105118893D01*
X154630922Y-105042748D01*
X154618846Y-104987907D01*
X154612701Y-104960730D01*
X154605894Y-104941248D01*
X154592077Y-104930093D01*
X154563718Y-104925444D01*
X154513284Y-104925479D01*
X154472668Y-104926863D01*
X154341933Y-104931799D01*
X154266009Y-105292460D01*
X154243692Y-105396562D01*
X154223455Y-105487349D01*
X154206358Y-105560352D01*
X154193463Y-105611105D01*
X154185830Y-105635141D01*
X154184402Y-105636070D01*
X154179388Y-105615004D01*
X154168655Y-105565972D01*
X154153313Y-105494183D01*
X154134471Y-105404842D01*
X154113240Y-105303155D01*
X154107481Y-105275410D01*
X154036245Y-104931799D01*
X153945574Y-104926604D01*
X153888477Y-104923821D01*
X153850823Y-104926607D01*
G36*
X155383333Y-105888533D02*
X155603467Y-105888533D01*
X155603467Y-104500000D01*
X155383333Y-104500000D01*
X155383333Y-105888533D01*
X155383333Y-105888533D01*
G37*
X155383333Y-105888533D02*
X155603467Y-105888533D01*
X155603467Y-104500000D01*
X155383333Y-104500000D01*
X155383333Y-105888533D01*
G36*
X159592444Y-105012233D02*
X159579218Y-105060084D01*
X159559622Y-105132425D01*
X159535877Y-105220987D01*
X159510207Y-105317500D01*
X159498231Y-105362796D01*
X159474429Y-105451877D01*
X159453316Y-105528799D01*
X159436495Y-105587881D01*
X159425570Y-105623440D01*
X159422439Y-105631205D01*
X159414671Y-105620741D01*
X159402716Y-105586509D01*
X159396520Y-105564275D01*
X159384639Y-105519199D01*
X159366396Y-105450680D01*
X159344262Y-105367970D01*
X159320707Y-105280320D01*
X159320334Y-105278933D01*
X159296834Y-105191497D01*
X159274774Y-105109065D01*
X159256600Y-105040807D01*
X159244761Y-104995892D01*
X159244607Y-104995299D01*
X159225895Y-104923333D01*
X159116481Y-104923333D01*
X159060616Y-104925456D01*
X159021186Y-104931009D01*
X159007067Y-104938379D01*
X159011634Y-104957805D01*
X159025420Y-105006759D01*
X159048553Y-105085671D01*
X159081161Y-105194968D01*
X159123372Y-105335079D01*
X159175316Y-105506430D01*
X159237118Y-105709452D01*
X159276265Y-105837733D01*
X159284869Y-105858800D01*
X159299896Y-105871794D01*
X159328893Y-105879091D01*
X159379405Y-105883071D01*
X159426178Y-105884962D01*
X159495179Y-105886523D01*
X159537533Y-105884322D01*
X159560366Y-105877121D01*
X159570805Y-105863679D01*
X159572205Y-105859562D01*
X159579440Y-105835566D01*
X159594890Y-105784481D01*
X159616943Y-105711629D01*
X159643987Y-105622330D01*
X159674408Y-105521905D01*
X159706595Y-105415676D01*
X159738935Y-105308962D01*
X159769815Y-105207086D01*
X159797625Y-105115367D01*
X159820750Y-105039128D01*
X159837579Y-104983688D01*
X159846499Y-104954369D01*
X159846929Y-104952966D01*
X159848066Y-104937445D01*
X159835257Y-104928497D01*
X159802012Y-104924376D01*
X159741837Y-104923336D01*
X159736814Y-104923333D01*
X159617613Y-104923333D01*
X159592444Y-105012233D01*
X159592444Y-105012233D01*
G37*
X159592444Y-105012233D02*
X159579218Y-105060084D01*
X159559622Y-105132425D01*
X159535877Y-105220987D01*
X159510207Y-105317500D01*
X159498231Y-105362796D01*
X159474429Y-105451877D01*
X159453316Y-105528799D01*
X159436495Y-105587881D01*
X159425570Y-105623440D01*
X159422439Y-105631205D01*
X159414671Y-105620741D01*
X159402716Y-105586509D01*
X159396520Y-105564275D01*
X159384639Y-105519199D01*
X159366396Y-105450680D01*
X159344262Y-105367970D01*
X159320707Y-105280320D01*
X159320334Y-105278933D01*
X159296834Y-105191497D01*
X159274774Y-105109065D01*
X159256600Y-105040807D01*
X159244761Y-104995892D01*
X159244607Y-104995299D01*
X159225895Y-104923333D01*
X159116481Y-104923333D01*
X159060616Y-104925456D01*
X159021186Y-104931009D01*
X159007067Y-104938379D01*
X159011634Y-104957805D01*
X159025420Y-105006759D01*
X159048553Y-105085671D01*
X159081161Y-105194968D01*
X159123372Y-105335079D01*
X159175316Y-105506430D01*
X159237118Y-105709452D01*
X159276265Y-105837733D01*
X159284869Y-105858800D01*
X159299896Y-105871794D01*
X159328893Y-105879091D01*
X159379405Y-105883071D01*
X159426178Y-105884962D01*
X159495179Y-105886523D01*
X159537533Y-105884322D01*
X159560366Y-105877121D01*
X159570805Y-105863679D01*
X159572205Y-105859562D01*
X159579440Y-105835566D01*
X159594890Y-105784481D01*
X159616943Y-105711629D01*
X159643987Y-105622330D01*
X159674408Y-105521905D01*
X159706595Y-105415676D01*
X159738935Y-105308962D01*
X159769815Y-105207086D01*
X159797625Y-105115367D01*
X159820750Y-105039128D01*
X159837579Y-104983688D01*
X159846499Y-104954369D01*
X159846929Y-104952966D01*
X159848066Y-104937445D01*
X159835257Y-104928497D01*
X159802012Y-104924376D01*
X159741837Y-104923336D01*
X159736814Y-104923333D01*
X159617613Y-104923333D01*
X159592444Y-105012233D01*
G36*
X149073206Y-104924409D02*
X149004266Y-104931805D01*
X148951155Y-104945292D01*
X148921986Y-104964344D01*
X148919920Y-104968282D01*
X148916799Y-104998557D01*
X148919656Y-105046605D01*
X148922080Y-105065251D01*
X148933142Y-105139020D01*
X149004404Y-105114388D01*
X149095870Y-105097440D01*
X149179049Y-105110402D01*
X149248956Y-105151559D01*
X149298736Y-105215592D01*
X149319654Y-105279023D01*
X149329435Y-105360557D01*
X149328214Y-105447446D01*
X149316123Y-105526942D01*
X149294885Y-105583675D01*
X149234572Y-105657676D01*
X149159968Y-105702717D01*
X149075572Y-105717222D01*
X148985879Y-105699614D01*
X148975673Y-105695562D01*
X148919100Y-105671924D01*
X148908992Y-105757269D01*
X148904655Y-105808691D01*
X148904755Y-105845627D01*
X148906931Y-105855633D01*
X148920911Y-105864233D01*
X148955096Y-105873236D01*
X149014005Y-105883585D01*
X149101067Y-105896072D01*
X149144009Y-105896741D01*
X149200919Y-105891557D01*
X149221243Y-105888473D01*
X149316407Y-105862887D01*
X149394330Y-105818293D01*
X149461217Y-105755171D01*
X149518843Y-105668158D01*
X149557012Y-105560716D01*
X149574459Y-105440983D01*
X149569922Y-105317095D01*
X149546043Y-105208911D01*
X149506093Y-105124980D01*
X149445828Y-105047143D01*
X149373740Y-104984317D01*
X149298321Y-104945421D01*
X149293836Y-104944031D01*
X149226105Y-104929996D01*
X149149857Y-104923631D01*
X149073206Y-104924409D01*
X149073206Y-104924409D01*
G37*
X149073206Y-104924409D02*
X149004266Y-104931805D01*
X148951155Y-104945292D01*
X148921986Y-104964344D01*
X148919920Y-104968282D01*
X148916799Y-104998557D01*
X148919656Y-105046605D01*
X148922080Y-105065251D01*
X148933142Y-105139020D01*
X149004404Y-105114388D01*
X149095870Y-105097440D01*
X149179049Y-105110402D01*
X149248956Y-105151559D01*
X149298736Y-105215592D01*
X149319654Y-105279023D01*
X149329435Y-105360557D01*
X149328214Y-105447446D01*
X149316123Y-105526942D01*
X149294885Y-105583675D01*
X149234572Y-105657676D01*
X149159968Y-105702717D01*
X149075572Y-105717222D01*
X148985879Y-105699614D01*
X148975673Y-105695562D01*
X148919100Y-105671924D01*
X148908992Y-105757269D01*
X148904655Y-105808691D01*
X148904755Y-105845627D01*
X148906931Y-105855633D01*
X148920911Y-105864233D01*
X148955096Y-105873236D01*
X149014005Y-105883585D01*
X149101067Y-105896072D01*
X149144009Y-105896741D01*
X149200919Y-105891557D01*
X149221243Y-105888473D01*
X149316407Y-105862887D01*
X149394330Y-105818293D01*
X149461217Y-105755171D01*
X149518843Y-105668158D01*
X149557012Y-105560716D01*
X149574459Y-105440983D01*
X149569922Y-105317095D01*
X149546043Y-105208911D01*
X149506093Y-105124980D01*
X149445828Y-105047143D01*
X149373740Y-104984317D01*
X149298321Y-104945421D01*
X149293836Y-104944031D01*
X149226105Y-104929996D01*
X149149857Y-104923631D01*
X149073206Y-104924409D01*
G36*
X150654967Y-104931633D02*
X150619392Y-104939345D01*
X150543672Y-104981399D01*
X150479742Y-105050727D01*
X150430532Y-105141915D01*
X150398975Y-105249549D01*
X150388000Y-105366673D01*
X150388000Y-105465199D01*
X150658934Y-105465199D01*
X150760260Y-105465404D01*
X150832590Y-105466418D01*
X150880796Y-105468846D01*
X150909749Y-105473289D01*
X150924317Y-105480350D01*
X150929373Y-105490632D01*
X150929867Y-105498723D01*
X150918663Y-105558934D01*
X150890064Y-105621748D01*
X150851589Y-105672820D01*
X150829393Y-105690441D01*
X150768537Y-105711531D01*
X150689420Y-105718759D01*
X150604595Y-105712307D01*
X150526619Y-105692360D01*
X150510767Y-105685789D01*
X150438800Y-105653122D01*
X150438800Y-105718642D01*
X150436409Y-105768004D01*
X150430522Y-105805102D01*
X150429190Y-105809207D01*
X150436734Y-105830651D01*
X150471165Y-105851148D01*
X150525505Y-105869248D01*
X150592779Y-105883497D01*
X150666010Y-105892445D01*
X150738221Y-105894639D01*
X150802435Y-105888628D01*
X150806809Y-105887791D01*
X150923622Y-105850543D01*
X151015896Y-105790278D01*
X151083770Y-105706784D01*
X151127381Y-105599850D01*
X151146870Y-105469266D01*
X151146592Y-105370153D01*
X151133077Y-105273620D01*
X150930671Y-105273620D01*
X150921388Y-105296776D01*
X150888079Y-105308368D01*
X150827091Y-105312376D01*
X150766836Y-105312799D01*
X150603805Y-105312799D01*
X150615292Y-105240833D01*
X150638647Y-105157459D01*
X150677485Y-105103916D01*
X150720792Y-105082036D01*
X150787101Y-105079677D01*
X150842744Y-105109017D01*
X150888572Y-105170526D01*
X150891767Y-105176706D01*
X150919580Y-105234923D01*
X150930671Y-105273620D01*
X151133077Y-105273620D01*
X151127492Y-105233733D01*
X151086410Y-105120509D01*
X151024438Y-105031829D01*
X150942668Y-104969042D01*
X150842193Y-104933495D01*
X150787260Y-104926481D01*
X150719068Y-104925925D01*
X150654967Y-104931633D01*
X150654967Y-104931633D01*
G37*
X150654967Y-104931633D02*
X150619392Y-104939345D01*
X150543672Y-104981399D01*
X150479742Y-105050727D01*
X150430532Y-105141915D01*
X150398975Y-105249549D01*
X150388000Y-105366673D01*
X150388000Y-105465199D01*
X150658934Y-105465199D01*
X150760260Y-105465404D01*
X150832590Y-105466418D01*
X150880796Y-105468846D01*
X150909749Y-105473289D01*
X150924317Y-105480350D01*
X150929373Y-105490632D01*
X150929867Y-105498723D01*
X150918663Y-105558934D01*
X150890064Y-105621748D01*
X150851589Y-105672820D01*
X150829393Y-105690441D01*
X150768537Y-105711531D01*
X150689420Y-105718759D01*
X150604595Y-105712307D01*
X150526619Y-105692360D01*
X150510767Y-105685789D01*
X150438800Y-105653122D01*
X150438800Y-105718642D01*
X150436409Y-105768004D01*
X150430522Y-105805102D01*
X150429190Y-105809207D01*
X150436734Y-105830651D01*
X150471165Y-105851148D01*
X150525505Y-105869248D01*
X150592779Y-105883497D01*
X150666010Y-105892445D01*
X150738221Y-105894639D01*
X150802435Y-105888628D01*
X150806809Y-105887791D01*
X150923622Y-105850543D01*
X151015896Y-105790278D01*
X151083770Y-105706784D01*
X151127381Y-105599850D01*
X151146870Y-105469266D01*
X151146592Y-105370153D01*
X151133077Y-105273620D01*
X150930671Y-105273620D01*
X150921388Y-105296776D01*
X150888079Y-105308368D01*
X150827091Y-105312376D01*
X150766836Y-105312799D01*
X150603805Y-105312799D01*
X150615292Y-105240833D01*
X150638647Y-105157459D01*
X150677485Y-105103916D01*
X150720792Y-105082036D01*
X150787101Y-105079677D01*
X150842744Y-105109017D01*
X150888572Y-105170526D01*
X150891767Y-105176706D01*
X150919580Y-105234923D01*
X150930671Y-105273620D01*
X151133077Y-105273620D01*
X151127492Y-105233733D01*
X151086410Y-105120509D01*
X151024438Y-105031829D01*
X150942668Y-104969042D01*
X150842193Y-104933495D01*
X150787260Y-104926481D01*
X150719068Y-104925925D01*
X150654967Y-104931633D01*
G36*
X151546078Y-104685001D02*
X151541583Y-104725996D01*
X151539517Y-104784286D01*
X151539467Y-104795448D01*
X151539467Y-104921563D01*
X151361667Y-104931799D01*
X151361667Y-105101133D01*
X151539467Y-105111369D01*
X151539467Y-105397755D01*
X151539275Y-105502559D01*
X151538300Y-105578582D01*
X151535939Y-105630907D01*
X151531590Y-105664619D01*
X151524652Y-105684803D01*
X151514523Y-105696543D01*
X151503278Y-105703509D01*
X151461277Y-105714442D01*
X151410675Y-105713721D01*
X151410144Y-105713636D01*
X151353200Y-105704395D01*
X151353200Y-105778935D01*
X151358226Y-105833851D01*
X151374922Y-105863547D01*
X151382834Y-105868775D01*
X151447879Y-105888908D01*
X151527997Y-105894617D01*
X151600236Y-105886217D01*
X151666526Y-105859083D01*
X151718769Y-105819273D01*
X151768067Y-105767859D01*
X151773306Y-105438729D01*
X151778546Y-105109599D01*
X151928934Y-105109599D01*
X151928934Y-104923333D01*
X151778224Y-104923333D01*
X151773145Y-104828218D01*
X151768067Y-104733103D01*
X151666467Y-104701467D01*
X151611460Y-104684890D01*
X151569776Y-104673344D01*
X151552167Y-104669582D01*
X151546078Y-104685001D01*
X151546078Y-104685001D01*
G37*
X151546078Y-104685001D02*
X151541583Y-104725996D01*
X151539517Y-104784286D01*
X151539467Y-104795448D01*
X151539467Y-104921563D01*
X151361667Y-104931799D01*
X151361667Y-105101133D01*
X151539467Y-105111369D01*
X151539467Y-105397755D01*
X151539275Y-105502559D01*
X151538300Y-105578582D01*
X151535939Y-105630907D01*
X151531590Y-105664619D01*
X151524652Y-105684803D01*
X151514523Y-105696543D01*
X151503278Y-105703509D01*
X151461277Y-105714442D01*
X151410675Y-105713721D01*
X151410144Y-105713636D01*
X151353200Y-105704395D01*
X151353200Y-105778935D01*
X151358226Y-105833851D01*
X151374922Y-105863547D01*
X151382834Y-105868775D01*
X151447879Y-105888908D01*
X151527997Y-105894617D01*
X151600236Y-105886217D01*
X151666526Y-105859083D01*
X151718769Y-105819273D01*
X151768067Y-105767859D01*
X151773306Y-105438729D01*
X151778546Y-105109599D01*
X151928934Y-105109599D01*
X151928934Y-104923333D01*
X151778224Y-104923333D01*
X151773145Y-104828218D01*
X151768067Y-104733103D01*
X151666467Y-104701467D01*
X151611460Y-104684890D01*
X151569776Y-104673344D01*
X151552167Y-104669582D01*
X151546078Y-104685001D01*
G36*
X153159615Y-104928647D02*
X153081175Y-104946276D01*
X153020417Y-104978751D01*
X152975285Y-105022136D01*
X152949207Y-105059891D01*
X152929058Y-105106547D01*
X152914181Y-105166515D01*
X152903920Y-105244209D01*
X152897619Y-105344038D01*
X152894621Y-105470416D01*
X152894134Y-105567633D01*
X152894134Y-105888533D01*
X152993922Y-105888533D01*
X153057034Y-105885485D01*
X153093502Y-105872913D01*
X153110267Y-105845671D01*
X153114267Y-105799313D01*
X153115943Y-105777671D01*
X153125766Y-105776799D01*
X153150931Y-105797901D01*
X153160834Y-105807096D01*
X153247400Y-105867230D01*
X153342397Y-105895170D01*
X153443165Y-105890171D01*
X153450854Y-105888454D01*
X153538479Y-105852987D01*
X153601926Y-105794251D01*
X153640322Y-105713548D01*
X153652794Y-105612182D01*
X153652210Y-105593922D01*
X153436000Y-105593922D01*
X153430905Y-105647247D01*
X153411412Y-105682835D01*
X153391383Y-105701037D01*
X153330357Y-105730101D01*
X153262164Y-105733738D01*
X153214929Y-105718698D01*
X153173010Y-105678134D01*
X153141234Y-105608788D01*
X153121417Y-105514706D01*
X153120721Y-105508991D01*
X153115813Y-105459435D01*
X153119070Y-105429308D01*
X153136210Y-105415596D01*
X153172954Y-105415286D01*
X153235021Y-105425363D01*
X153267708Y-105431530D01*
X153350382Y-105455819D01*
X153403805Y-105493334D01*
X153430981Y-105546973D01*
X153436000Y-105593922D01*
X153652210Y-105593922D01*
X153652025Y-105588149D01*
X153635630Y-105493986D01*
X153596929Y-105420029D01*
X153533978Y-105364828D01*
X153444835Y-105326934D01*
X153327557Y-105304897D01*
X153265591Y-105299797D01*
X153111410Y-105291006D01*
X153122676Y-105229936D01*
X153140429Y-105176931D01*
X153167961Y-105132341D01*
X153169390Y-105130766D01*
X153216348Y-105102738D01*
X153283480Y-105091147D01*
X153361364Y-105095964D01*
X153440579Y-105117159D01*
X153473496Y-105131700D01*
X153550598Y-105170734D01*
X153560523Y-105086927D01*
X153564788Y-105035987D01*
X153564590Y-104999615D01*
X153562472Y-104990211D01*
X153534929Y-104970681D01*
X153482076Y-104952321D01*
X153412463Y-104937041D01*
X153334637Y-104926751D01*
X153263106Y-104923333D01*
X153159615Y-104928647D01*
X153159615Y-104928647D01*
G37*
X153159615Y-104928647D02*
X153081175Y-104946276D01*
X153020417Y-104978751D01*
X152975285Y-105022136D01*
X152949207Y-105059891D01*
X152929058Y-105106547D01*
X152914181Y-105166515D01*
X152903920Y-105244209D01*
X152897619Y-105344038D01*
X152894621Y-105470416D01*
X152894134Y-105567633D01*
X152894134Y-105888533D01*
X152993922Y-105888533D01*
X153057034Y-105885485D01*
X153093502Y-105872913D01*
X153110267Y-105845671D01*
X153114267Y-105799313D01*
X153115943Y-105777671D01*
X153125766Y-105776799D01*
X153150931Y-105797901D01*
X153160834Y-105807096D01*
X153247400Y-105867230D01*
X153342397Y-105895170D01*
X153443165Y-105890171D01*
X153450854Y-105888454D01*
X153538479Y-105852987D01*
X153601926Y-105794251D01*
X153640322Y-105713548D01*
X153652794Y-105612182D01*
X153652210Y-105593922D01*
X153436000Y-105593922D01*
X153430905Y-105647247D01*
X153411412Y-105682835D01*
X153391383Y-105701037D01*
X153330357Y-105730101D01*
X153262164Y-105733738D01*
X153214929Y-105718698D01*
X153173010Y-105678134D01*
X153141234Y-105608788D01*
X153121417Y-105514706D01*
X153120721Y-105508991D01*
X153115813Y-105459435D01*
X153119070Y-105429308D01*
X153136210Y-105415596D01*
X153172954Y-105415286D01*
X153235021Y-105425363D01*
X153267708Y-105431530D01*
X153350382Y-105455819D01*
X153403805Y-105493334D01*
X153430981Y-105546973D01*
X153436000Y-105593922D01*
X153652210Y-105593922D01*
X153652025Y-105588149D01*
X153635630Y-105493986D01*
X153596929Y-105420029D01*
X153533978Y-105364828D01*
X153444835Y-105326934D01*
X153327557Y-105304897D01*
X153265591Y-105299797D01*
X153111410Y-105291006D01*
X153122676Y-105229936D01*
X153140429Y-105176931D01*
X153167961Y-105132341D01*
X153169390Y-105130766D01*
X153216348Y-105102738D01*
X153283480Y-105091147D01*
X153361364Y-105095964D01*
X153440579Y-105117159D01*
X153473496Y-105131700D01*
X153550598Y-105170734D01*
X153560523Y-105086927D01*
X153564788Y-105035987D01*
X153564590Y-104999615D01*
X153562472Y-104990211D01*
X153534929Y-104970681D01*
X153482076Y-104952321D01*
X153412463Y-104937041D01*
X153334637Y-104926751D01*
X153263106Y-104923333D01*
X153159615Y-104928647D01*
G36*
X156163330Y-104936569D02*
X156072324Y-104974206D01*
X156001717Y-105033137D01*
X155984094Y-105056618D01*
X155948966Y-105126506D01*
X155919154Y-105215866D01*
X155898625Y-105310332D01*
X155891333Y-105392557D01*
X155891333Y-105465199D01*
X156433200Y-105465199D01*
X156433200Y-105516840D01*
X156418936Y-105590881D01*
X156380541Y-105654822D01*
X156332154Y-105693513D01*
X156269041Y-105712719D01*
X156189020Y-105718901D01*
X156106326Y-105712335D01*
X156035197Y-105693298D01*
X156022574Y-105687495D01*
X155981904Y-105669769D01*
X155955153Y-105663662D01*
X155951260Y-105664917D01*
X155945862Y-105685877D01*
X155942587Y-105728601D01*
X155942133Y-105753834D01*
X155944447Y-105803997D01*
X155954958Y-105831805D01*
X155979024Y-105848647D01*
X155988700Y-105852858D01*
X156023493Y-105863608D01*
X156076467Y-105876223D01*
X156136562Y-105888534D01*
X156192714Y-105898371D01*
X156233863Y-105903565D01*
X156246933Y-105903513D01*
X156267359Y-105899423D01*
X156308436Y-105891271D01*
X156326073Y-105887781D01*
X156418984Y-105860036D01*
X156495693Y-105813394D01*
X156556328Y-105755122D01*
X156607668Y-105684665D01*
X156640498Y-105604037D01*
X156657077Y-105505643D01*
X156660124Y-105405933D01*
X156646937Y-105268792D01*
X156433200Y-105268792D01*
X156433200Y-105312799D01*
X156123996Y-105312799D01*
X156132999Y-105232925D01*
X156151926Y-105165150D01*
X156188159Y-105111895D01*
X156235391Y-105080723D01*
X156264014Y-105075733D01*
X156327903Y-105091345D01*
X156381668Y-105133306D01*
X156418901Y-105194303D01*
X156433192Y-105267021D01*
X156433200Y-105268792D01*
X156646937Y-105268792D01*
X156646385Y-105263062D01*
X156608685Y-105143905D01*
X156546896Y-105048112D01*
X156516257Y-105017027D01*
X156453749Y-104966820D01*
X156395669Y-104938023D01*
X156328101Y-104925382D01*
X156268111Y-104923333D01*
X156163330Y-104936569D01*
X156163330Y-104936569D01*
G37*
X156163330Y-104936569D02*
X156072324Y-104974206D01*
X156001717Y-105033137D01*
X155984094Y-105056618D01*
X155948966Y-105126506D01*
X155919154Y-105215866D01*
X155898625Y-105310332D01*
X155891333Y-105392557D01*
X155891333Y-105465199D01*
X156433200Y-105465199D01*
X156433200Y-105516840D01*
X156418936Y-105590881D01*
X156380541Y-105654822D01*
X156332154Y-105693513D01*
X156269041Y-105712719D01*
X156189020Y-105718901D01*
X156106326Y-105712335D01*
X156035197Y-105693298D01*
X156022574Y-105687495D01*
X155981904Y-105669769D01*
X155955153Y-105663662D01*
X155951260Y-105664917D01*
X155945862Y-105685877D01*
X155942587Y-105728601D01*
X155942133Y-105753834D01*
X155944447Y-105803997D01*
X155954958Y-105831805D01*
X155979024Y-105848647D01*
X155988700Y-105852858D01*
X156023493Y-105863608D01*
X156076467Y-105876223D01*
X156136562Y-105888534D01*
X156192714Y-105898371D01*
X156233863Y-105903565D01*
X156246933Y-105903513D01*
X156267359Y-105899423D01*
X156308436Y-105891271D01*
X156326073Y-105887781D01*
X156418984Y-105860036D01*
X156495693Y-105813394D01*
X156556328Y-105755122D01*
X156607668Y-105684665D01*
X156640498Y-105604037D01*
X156657077Y-105505643D01*
X156660124Y-105405933D01*
X156646937Y-105268792D01*
X156433200Y-105268792D01*
X156433200Y-105312799D01*
X156123996Y-105312799D01*
X156132999Y-105232925D01*
X156151926Y-105165150D01*
X156188159Y-105111895D01*
X156235391Y-105080723D01*
X156264014Y-105075733D01*
X156327903Y-105091345D01*
X156381668Y-105133306D01*
X156418901Y-105194303D01*
X156433192Y-105267021D01*
X156433200Y-105268792D01*
X156646937Y-105268792D01*
X156646385Y-105263062D01*
X156608685Y-105143905D01*
X156546896Y-105048112D01*
X156516257Y-105017027D01*
X156453749Y-104966820D01*
X156395669Y-104938023D01*
X156328101Y-104925382D01*
X156268111Y-104923333D01*
X156163330Y-104936569D01*
G36*
X158335828Y-104926859D02*
X158254385Y-104941677D01*
X158231823Y-104949631D01*
X158140595Y-105005376D01*
X158069063Y-105086455D01*
X158018564Y-105189745D01*
X157990439Y-105312118D01*
X157986026Y-105450451D01*
X157991357Y-105510850D01*
X158017957Y-105629185D01*
X158065165Y-105729500D01*
X158129994Y-105807923D01*
X158209459Y-105860583D01*
X158276699Y-105880815D01*
X158349298Y-105891879D01*
X158399971Y-105896917D01*
X158440050Y-105896301D01*
X158480866Y-105890404D01*
X158493540Y-105887943D01*
X158602614Y-105852770D01*
X158688459Y-105794844D01*
X158751992Y-105712953D01*
X158794131Y-105605883D01*
X158815796Y-105472420D01*
X158816643Y-105460990D01*
X158815988Y-105414399D01*
X158573290Y-105414399D01*
X158568872Y-105518915D01*
X158554921Y-105596328D01*
X158528187Y-105652813D01*
X158485416Y-105694549D01*
X158423356Y-105727710D01*
X158404227Y-105735470D01*
X158388996Y-105731033D01*
X158354477Y-105719384D01*
X158352559Y-105718716D01*
X158298734Y-105684276D01*
X158260839Y-105623127D01*
X158238072Y-105533629D01*
X158231728Y-105472075D01*
X158230505Y-105338234D01*
X158245765Y-105233102D01*
X158277387Y-105156959D01*
X158325251Y-105110088D01*
X158389234Y-105092767D01*
X158395204Y-105092666D01*
X158461620Y-105102945D01*
X158511335Y-105135341D01*
X158545645Y-105192195D01*
X158565846Y-105275848D01*
X158573233Y-105388639D01*
X158573290Y-105414399D01*
X158815988Y-105414399D01*
X158814681Y-105321544D01*
X158789766Y-105197799D01*
X158743405Y-105093170D01*
X158677108Y-105011073D01*
X158593398Y-104955384D01*
X158519875Y-104933944D01*
X158429171Y-104924358D01*
X158335828Y-104926859D01*
X158335828Y-104926859D01*
G37*
X158335828Y-104926859D02*
X158254385Y-104941677D01*
X158231823Y-104949631D01*
X158140595Y-105005376D01*
X158069063Y-105086455D01*
X158018564Y-105189745D01*
X157990439Y-105312118D01*
X157986026Y-105450451D01*
X157991357Y-105510850D01*
X158017957Y-105629185D01*
X158065165Y-105729500D01*
X158129994Y-105807923D01*
X158209459Y-105860583D01*
X158276699Y-105880815D01*
X158349298Y-105891879D01*
X158399971Y-105896917D01*
X158440050Y-105896301D01*
X158480866Y-105890404D01*
X158493540Y-105887943D01*
X158602614Y-105852770D01*
X158688459Y-105794844D01*
X158751992Y-105712953D01*
X158794131Y-105605883D01*
X158815796Y-105472420D01*
X158816643Y-105460990D01*
X158815988Y-105414399D01*
X158573290Y-105414399D01*
X158568872Y-105518915D01*
X158554921Y-105596328D01*
X158528187Y-105652813D01*
X158485416Y-105694549D01*
X158423356Y-105727710D01*
X158404227Y-105735470D01*
X158388996Y-105731033D01*
X158354477Y-105719384D01*
X158352559Y-105718716D01*
X158298734Y-105684276D01*
X158260839Y-105623127D01*
X158238072Y-105533629D01*
X158231728Y-105472075D01*
X158230505Y-105338234D01*
X158245765Y-105233102D01*
X158277387Y-105156959D01*
X158325251Y-105110088D01*
X158389234Y-105092767D01*
X158395204Y-105092666D01*
X158461620Y-105102945D01*
X158511335Y-105135341D01*
X158545645Y-105192195D01*
X158565846Y-105275848D01*
X158573233Y-105388639D01*
X158573290Y-105414399D01*
X158815988Y-105414399D01*
X158814681Y-105321544D01*
X158789766Y-105197799D01*
X158743405Y-105093170D01*
X158677108Y-105011073D01*
X158593398Y-104955384D01*
X158519875Y-104933944D01*
X158429171Y-104924358D01*
X158335828Y-104926859D01*
G36*
X157320986Y-104931690D02*
X157243189Y-104962397D01*
X157187361Y-105018530D01*
X157177205Y-105035772D01*
X157152867Y-105081635D01*
X157135933Y-104931799D01*
X156932733Y-104931799D01*
X156933487Y-105431333D01*
X156934197Y-105594288D01*
X156936188Y-105727378D01*
X156940066Y-105834598D01*
X156946433Y-105919943D01*
X156955896Y-105987406D01*
X156969057Y-106040983D01*
X156986521Y-106084668D01*
X157008893Y-106122457D01*
X157036777Y-106158344D01*
X157044890Y-106167726D01*
X157115775Y-106224551D01*
X157210366Y-106264468D01*
X157322227Y-106286012D01*
X157444923Y-106287717D01*
X157527270Y-106277523D01*
X157609119Y-106261201D01*
X157662265Y-106243570D01*
X157691608Y-106219077D01*
X157702044Y-106182163D01*
X157698471Y-106127273D01*
X157692709Y-106089825D01*
X157682590Y-106028650D01*
X157595529Y-106062375D01*
X157506239Y-106087181D01*
X157413617Y-106096469D01*
X157329046Y-106089959D01*
X157269266Y-106070383D01*
X157219100Y-106025669D01*
X157182880Y-105955872D01*
X157163644Y-105867971D01*
X157161333Y-105822449D01*
X157161333Y-105740117D01*
X157224833Y-105803329D01*
X157300127Y-105857213D01*
X157383272Y-105881110D01*
X157468967Y-105876241D01*
X157551910Y-105843827D01*
X157626800Y-105785089D01*
X157688335Y-105701248D01*
X157691243Y-105695903D01*
X157707246Y-105662141D01*
X157717960Y-105626717D01*
X157724407Y-105581936D01*
X157727607Y-105520101D01*
X157728582Y-105433519D01*
X157728600Y-105414399D01*
X157728397Y-105383641D01*
X157499104Y-105383641D01*
X157496449Y-105474551D01*
X157486483Y-105552726D01*
X157481873Y-105572132D01*
X157461556Y-105623520D01*
X157435146Y-105665197D01*
X157431167Y-105669499D01*
X157382971Y-105696001D01*
X157322440Y-105700252D01*
X157262731Y-105682296D01*
X157241938Y-105668839D01*
X157206188Y-105622315D01*
X157180018Y-105551675D01*
X157164663Y-105465626D01*
X157161363Y-105372875D01*
X157171354Y-105282130D01*
X157181248Y-105241794D01*
X157210464Y-105181724D01*
X157254879Y-105131433D01*
X157305459Y-105099507D01*
X157338149Y-105092666D01*
X157391476Y-105108003D01*
X157440430Y-105148344D01*
X157475721Y-105205187D01*
X157482389Y-105224670D01*
X157494425Y-105295260D01*
X157499104Y-105383641D01*
X157728397Y-105383641D01*
X157727997Y-105323168D01*
X157725370Y-105257321D01*
X157719490Y-105208388D01*
X157709131Y-105167895D01*
X157693063Y-105127371D01*
X157684207Y-105108067D01*
X157634406Y-105023651D01*
X157574654Y-104968197D01*
X157498056Y-104936941D01*
X157421155Y-104926228D01*
X157320986Y-104931690D01*
X157320986Y-104931690D01*
G37*
X157320986Y-104931690D02*
X157243189Y-104962397D01*
X157187361Y-105018530D01*
X157177205Y-105035772D01*
X157152867Y-105081635D01*
X157135933Y-104931799D01*
X156932733Y-104931799D01*
X156933487Y-105431333D01*
X156934197Y-105594288D01*
X156936188Y-105727378D01*
X156940066Y-105834598D01*
X156946433Y-105919943D01*
X156955896Y-105987406D01*
X156969057Y-106040983D01*
X156986521Y-106084668D01*
X157008893Y-106122457D01*
X157036777Y-106158344D01*
X157044890Y-106167726D01*
X157115775Y-106224551D01*
X157210366Y-106264468D01*
X157322227Y-106286012D01*
X157444923Y-106287717D01*
X157527270Y-106277523D01*
X157609119Y-106261201D01*
X157662265Y-106243570D01*
X157691608Y-106219077D01*
X157702044Y-106182163D01*
X157698471Y-106127273D01*
X157692709Y-106089825D01*
X157682590Y-106028650D01*
X157595529Y-106062375D01*
X157506239Y-106087181D01*
X157413617Y-106096469D01*
X157329046Y-106089959D01*
X157269266Y-106070383D01*
X157219100Y-106025669D01*
X157182880Y-105955872D01*
X157163644Y-105867971D01*
X157161333Y-105822449D01*
X157161333Y-105740117D01*
X157224833Y-105803329D01*
X157300127Y-105857213D01*
X157383272Y-105881110D01*
X157468967Y-105876241D01*
X157551910Y-105843827D01*
X157626800Y-105785089D01*
X157688335Y-105701248D01*
X157691243Y-105695903D01*
X157707246Y-105662141D01*
X157717960Y-105626717D01*
X157724407Y-105581936D01*
X157727607Y-105520101D01*
X157728582Y-105433519D01*
X157728600Y-105414399D01*
X157728397Y-105383641D01*
X157499104Y-105383641D01*
X157496449Y-105474551D01*
X157486483Y-105552726D01*
X157481873Y-105572132D01*
X157461556Y-105623520D01*
X157435146Y-105665197D01*
X157431167Y-105669499D01*
X157382971Y-105696001D01*
X157322440Y-105700252D01*
X157262731Y-105682296D01*
X157241938Y-105668839D01*
X157206188Y-105622315D01*
X157180018Y-105551675D01*
X157164663Y-105465626D01*
X157161363Y-105372875D01*
X157171354Y-105282130D01*
X157181248Y-105241794D01*
X157210464Y-105181724D01*
X157254879Y-105131433D01*
X157305459Y-105099507D01*
X157338149Y-105092666D01*
X157391476Y-105108003D01*
X157440430Y-105148344D01*
X157475721Y-105205187D01*
X157482389Y-105224670D01*
X157494425Y-105295260D01*
X157499104Y-105383641D01*
X157728397Y-105383641D01*
X157727997Y-105323168D01*
X157725370Y-105257321D01*
X157719490Y-105208388D01*
X157709131Y-105167895D01*
X157693063Y-105127371D01*
X157684207Y-105108067D01*
X157634406Y-105023651D01*
X157574654Y-104968197D01*
X157498056Y-104936941D01*
X157421155Y-104926228D01*
X157320986Y-104931690D01*
G36*
X163951600Y-101508216D02*
X163659078Y-101532339D01*
X163384474Y-101580653D01*
X163120627Y-101654592D01*
X162996028Y-101699479D01*
X162707417Y-101828560D01*
X162436251Y-101985458D01*
X162184338Y-102168287D01*
X161953489Y-102375159D01*
X161745513Y-102604190D01*
X161562218Y-102853491D01*
X161405415Y-103121176D01*
X161276912Y-103405359D01*
X161226717Y-103544356D01*
X161182236Y-103682772D01*
X161147767Y-103803644D01*
X161122082Y-103915030D01*
X161103953Y-104024987D01*
X161092150Y-104141573D01*
X161085445Y-104272845D01*
X161082609Y-104426861D01*
X161082294Y-104491533D01*
X161082369Y-104623859D01*
X161083565Y-104728975D01*
X161086315Y-104813532D01*
X161091054Y-104884179D01*
X161098217Y-104947568D01*
X161108239Y-105010347D01*
X161120283Y-105072918D01*
X161200315Y-105385777D01*
X161309733Y-105683200D01*
X161447068Y-105963715D01*
X161610854Y-106225850D01*
X161799623Y-106468134D01*
X162011906Y-106689094D01*
X162246235Y-106887259D01*
X162501144Y-107061156D01*
X162775164Y-107209315D01*
X163066826Y-107330263D01*
X163374665Y-107422528D01*
X163489358Y-107448478D01*
X163572002Y-107461491D01*
X163680500Y-107472555D01*
X163806884Y-107481412D01*
X163943183Y-107487804D01*
X164081428Y-107491472D01*
X164213650Y-107492157D01*
X164331877Y-107489601D01*
X164428142Y-107483544D01*
X164459600Y-107479964D01*
X164769802Y-107421057D01*
X165068977Y-107331083D01*
X165355136Y-107211614D01*
X165626292Y-107064222D01*
X165880456Y-106890478D01*
X166115639Y-106691954D01*
X166329855Y-106470222D01*
X166521113Y-106226854D01*
X166687427Y-105963420D01*
X166826808Y-105681494D01*
X166870654Y-105574105D01*
X166963906Y-105286566D01*
X166979837Y-105211199D01*
X166271467Y-105211199D01*
X166254708Y-105397124D01*
X166204936Y-105578749D01*
X166122910Y-105754315D01*
X166009388Y-105922068D01*
X165920210Y-106024882D01*
X165854946Y-106090759D01*
X165787204Y-106154196D01*
X165726016Y-106206979D01*
X165688850Y-106235328D01*
X165597081Y-106298532D01*
X165464374Y-106165233D01*
X165342560Y-106055904D01*
X165221789Y-105975506D01*
X165095321Y-105920010D01*
X165016824Y-105897673D01*
X164883435Y-105877038D01*
X164754531Y-105877392D01*
X164637345Y-105897918D01*
X164539110Y-105937799D01*
X164512700Y-105954628D01*
X164462951Y-106006015D01*
X164421877Y-106077062D01*
X164396555Y-106153601D01*
X164391867Y-106196550D01*
X164405154Y-106288074D01*
X164440854Y-106379428D01*
X164492721Y-106454945D01*
X164496418Y-106458844D01*
X164575160Y-106518418D01*
X164679870Y-106564388D01*
X164804928Y-106595363D01*
X164944714Y-106609956D01*
X165093608Y-106606777D01*
X165094600Y-106606695D01*
X165155950Y-106602594D01*
X165200443Y-106601593D01*
X165220811Y-106603781D01*
X165221054Y-106605162D01*
X165198517Y-106618804D01*
X165150786Y-106641214D01*
X165084542Y-106669714D01*
X165006464Y-106701626D01*
X164923234Y-106734272D01*
X164841531Y-106764974D01*
X164768034Y-106791052D01*
X164713600Y-106808604D01*
X164531943Y-106857430D01*
X164366442Y-106889695D01*
X164206397Y-106906279D01*
X164041104Y-106908067D01*
X163859863Y-106895939D01*
X163771155Y-106886284D01*
X163553857Y-106849104D01*
X163339356Y-106790894D01*
X163131551Y-106713932D01*
X162934338Y-106620501D01*
X162751612Y-106512880D01*
X162587272Y-106393351D01*
X162445213Y-106264194D01*
X162329333Y-106127689D01*
X162247709Y-105994619D01*
X162217492Y-105932274D01*
X162198332Y-105884123D01*
X162187719Y-105838653D01*
X162183138Y-105784350D01*
X162182078Y-105709699D01*
X162182067Y-105693799D01*
X162183079Y-105611748D01*
X162187391Y-105552853D01*
X162196913Y-105506433D01*
X162213554Y-105461805D01*
X162229710Y-105427445D01*
X162299726Y-105321486D01*
X162393106Y-105239144D01*
X162507645Y-105181827D01*
X162641142Y-105150939D01*
X162666993Y-105148297D01*
X162724719Y-105142546D01*
X162766316Y-105136664D01*
X162783162Y-105131882D01*
X162783200Y-105131703D01*
X162774768Y-105108421D01*
X162753528Y-105067728D01*
X162725567Y-105020322D01*
X162696970Y-104976899D01*
X162688735Y-104965666D01*
X162616649Y-104896512D01*
X162517270Y-104839704D01*
X162395572Y-104797297D01*
X162256529Y-104771348D01*
X162207467Y-104766731D01*
X162185411Y-104763675D01*
X162181565Y-104757536D01*
X162199213Y-104746369D01*
X162241639Y-104728229D01*
X162312126Y-104701170D01*
X162328501Y-104695032D01*
X162409321Y-104663834D01*
X162464459Y-104639373D01*
X162500415Y-104617827D01*
X162523685Y-104595377D01*
X162539201Y-104571152D01*
X162597260Y-104493360D01*
X162674704Y-104431739D01*
X162753345Y-104397224D01*
X162793697Y-104388996D01*
X162841365Y-104385394D01*
X162902449Y-104386601D01*
X162983049Y-104392798D01*
X163089262Y-104404168D01*
X163124650Y-104408331D01*
X163181147Y-104413500D01*
X163216615Y-104410131D01*
X163243411Y-104395363D01*
X163264350Y-104375989D01*
X163296838Y-104330820D01*
X163307909Y-104274730D01*
X163308134Y-104262281D01*
X163306675Y-104232189D01*
X163299688Y-104205782D01*
X163283255Y-104177478D01*
X163253458Y-104141699D01*
X163206380Y-104092862D01*
X163150081Y-104037144D01*
X163084169Y-103971538D01*
X163037868Y-103921975D01*
X163006116Y-103881299D01*
X162983851Y-103842354D01*
X162966010Y-103797985D01*
X162953046Y-103758612D01*
X162925688Y-103631254D01*
X162927272Y-103509756D01*
X162958744Y-103391004D01*
X163021051Y-103271887D01*
X163115140Y-103149294D01*
X163150199Y-103110850D01*
X163305445Y-102969743D01*
X163488098Y-102845517D01*
X163695454Y-102739546D01*
X163924812Y-102653208D01*
X164173468Y-102587877D01*
X164180200Y-102586464D01*
X164431558Y-102543987D01*
X164682202Y-102522490D01*
X164938515Y-102522026D01*
X165206878Y-102542649D01*
X165493674Y-102584412D01*
X165568733Y-102598111D01*
X165805800Y-102642978D01*
X165662097Y-102673991D01*
X165457303Y-102727496D01*
X165284185Y-102792828D01*
X165142652Y-102870072D01*
X165032615Y-102959313D01*
X164953982Y-103060640D01*
X164906664Y-103174138D01*
X164890569Y-103299892D01*
X164898774Y-103401313D01*
X164933764Y-103530457D01*
X164998296Y-103669821D01*
X165090787Y-103816273D01*
X165145397Y-103889118D01*
X165212804Y-103977325D01*
X165262066Y-104049489D01*
X165298099Y-104114371D01*
X165325821Y-104180730D01*
X165348148Y-104250406D01*
X165376597Y-104407748D01*
X165373876Y-104573040D01*
X165340399Y-104742004D01*
X165286353Y-104889166D01*
X165261267Y-104946868D01*
X165249521Y-104981979D01*
X165249904Y-105002490D01*
X165261204Y-105016391D01*
X165266449Y-105020399D01*
X165300141Y-105032154D01*
X165358365Y-105039711D01*
X165418935Y-105041866D01*
X165563181Y-105026334D01*
X165694601Y-104981439D01*
X165809724Y-104909735D01*
X165905080Y-104813774D01*
X165977200Y-104696109D01*
X166010790Y-104606417D01*
X166037684Y-104513904D01*
X166079986Y-104576157D01*
X166152204Y-104705152D01*
X166210375Y-104854524D01*
X166250934Y-105012449D01*
X166270315Y-105167099D01*
X166271467Y-105211199D01*
X166979837Y-105211199D01*
X167027200Y-104987141D01*
X167060197Y-104680369D01*
X167062559Y-104370787D01*
X167033945Y-104062932D01*
X166998381Y-103865000D01*
X166916540Y-103562893D01*
X166805448Y-103275553D01*
X166666995Y-103004444D01*
X166503074Y-102751030D01*
X166315577Y-102516773D01*
X166106396Y-102303138D01*
X165877423Y-102111587D01*
X165630550Y-101943586D01*
X165367670Y-101800596D01*
X165090674Y-101684082D01*
X164801454Y-101595508D01*
X164501902Y-101536336D01*
X164193911Y-101508031D01*
X163951600Y-101508216D01*
X163951600Y-101508216D01*
G37*
X163951600Y-101508216D02*
X163659078Y-101532339D01*
X163384474Y-101580653D01*
X163120627Y-101654592D01*
X162996028Y-101699479D01*
X162707417Y-101828560D01*
X162436251Y-101985458D01*
X162184338Y-102168287D01*
X161953489Y-102375159D01*
X161745513Y-102604190D01*
X161562218Y-102853491D01*
X161405415Y-103121176D01*
X161276912Y-103405359D01*
X161226717Y-103544356D01*
X161182236Y-103682772D01*
X161147767Y-103803644D01*
X161122082Y-103915030D01*
X161103953Y-104024987D01*
X161092150Y-104141573D01*
X161085445Y-104272845D01*
X161082609Y-104426861D01*
X161082294Y-104491533D01*
X161082369Y-104623859D01*
X161083565Y-104728975D01*
X161086315Y-104813532D01*
X161091054Y-104884179D01*
X161098217Y-104947568D01*
X161108239Y-105010347D01*
X161120283Y-105072918D01*
X161200315Y-105385777D01*
X161309733Y-105683200D01*
X161447068Y-105963715D01*
X161610854Y-106225850D01*
X161799623Y-106468134D01*
X162011906Y-106689094D01*
X162246235Y-106887259D01*
X162501144Y-107061156D01*
X162775164Y-107209315D01*
X163066826Y-107330263D01*
X163374665Y-107422528D01*
X163489358Y-107448478D01*
X163572002Y-107461491D01*
X163680500Y-107472555D01*
X163806884Y-107481412D01*
X163943183Y-107487804D01*
X164081428Y-107491472D01*
X164213650Y-107492157D01*
X164331877Y-107489601D01*
X164428142Y-107483544D01*
X164459600Y-107479964D01*
X164769802Y-107421057D01*
X165068977Y-107331083D01*
X165355136Y-107211614D01*
X165626292Y-107064222D01*
X165880456Y-106890478D01*
X166115639Y-106691954D01*
X166329855Y-106470222D01*
X166521113Y-106226854D01*
X166687427Y-105963420D01*
X166826808Y-105681494D01*
X166870654Y-105574105D01*
X166963906Y-105286566D01*
X166979837Y-105211199D01*
X166271467Y-105211199D01*
X166254708Y-105397124D01*
X166204936Y-105578749D01*
X166122910Y-105754315D01*
X166009388Y-105922068D01*
X165920210Y-106024882D01*
X165854946Y-106090759D01*
X165787204Y-106154196D01*
X165726016Y-106206979D01*
X165688850Y-106235328D01*
X165597081Y-106298532D01*
X165464374Y-106165233D01*
X165342560Y-106055904D01*
X165221789Y-105975506D01*
X165095321Y-105920010D01*
X165016824Y-105897673D01*
X164883435Y-105877038D01*
X164754531Y-105877392D01*
X164637345Y-105897918D01*
X164539110Y-105937799D01*
X164512700Y-105954628D01*
X164462951Y-106006015D01*
X164421877Y-106077062D01*
X164396555Y-106153601D01*
X164391867Y-106196550D01*
X164405154Y-106288074D01*
X164440854Y-106379428D01*
X164492721Y-106454945D01*
X164496418Y-106458844D01*
X164575160Y-106518418D01*
X164679870Y-106564388D01*
X164804928Y-106595363D01*
X164944714Y-106609956D01*
X165093608Y-106606777D01*
X165094600Y-106606695D01*
X165155950Y-106602594D01*
X165200443Y-106601593D01*
X165220811Y-106603781D01*
X165221054Y-106605162D01*
X165198517Y-106618804D01*
X165150786Y-106641214D01*
X165084542Y-106669714D01*
X165006464Y-106701626D01*
X164923234Y-106734272D01*
X164841531Y-106764974D01*
X164768034Y-106791052D01*
X164713600Y-106808604D01*
X164531943Y-106857430D01*
X164366442Y-106889695D01*
X164206397Y-106906279D01*
X164041104Y-106908067D01*
X163859863Y-106895939D01*
X163771155Y-106886284D01*
X163553857Y-106849104D01*
X163339356Y-106790894D01*
X163131551Y-106713932D01*
X162934338Y-106620501D01*
X162751612Y-106512880D01*
X162587272Y-106393351D01*
X162445213Y-106264194D01*
X162329333Y-106127689D01*
X162247709Y-105994619D01*
X162217492Y-105932274D01*
X162198332Y-105884123D01*
X162187719Y-105838653D01*
X162183138Y-105784350D01*
X162182078Y-105709699D01*
X162182067Y-105693799D01*
X162183079Y-105611748D01*
X162187391Y-105552853D01*
X162196913Y-105506433D01*
X162213554Y-105461805D01*
X162229710Y-105427445D01*
X162299726Y-105321486D01*
X162393106Y-105239144D01*
X162507645Y-105181827D01*
X162641142Y-105150939D01*
X162666993Y-105148297D01*
X162724719Y-105142546D01*
X162766316Y-105136664D01*
X162783162Y-105131882D01*
X162783200Y-105131703D01*
X162774768Y-105108421D01*
X162753528Y-105067728D01*
X162725567Y-105020322D01*
X162696970Y-104976899D01*
X162688735Y-104965666D01*
X162616649Y-104896512D01*
X162517270Y-104839704D01*
X162395572Y-104797297D01*
X162256529Y-104771348D01*
X162207467Y-104766731D01*
X162185411Y-104763675D01*
X162181565Y-104757536D01*
X162199213Y-104746369D01*
X162241639Y-104728229D01*
X162312126Y-104701170D01*
X162328501Y-104695032D01*
X162409321Y-104663834D01*
X162464459Y-104639373D01*
X162500415Y-104617827D01*
X162523685Y-104595377D01*
X162539201Y-104571152D01*
X162597260Y-104493360D01*
X162674704Y-104431739D01*
X162753345Y-104397224D01*
X162793697Y-104388996D01*
X162841365Y-104385394D01*
X162902449Y-104386601D01*
X162983049Y-104392798D01*
X163089262Y-104404168D01*
X163124650Y-104408331D01*
X163181147Y-104413500D01*
X163216615Y-104410131D01*
X163243411Y-104395363D01*
X163264350Y-104375989D01*
X163296838Y-104330820D01*
X163307909Y-104274730D01*
X163308134Y-104262281D01*
X163306675Y-104232189D01*
X163299688Y-104205782D01*
X163283255Y-104177478D01*
X163253458Y-104141699D01*
X163206380Y-104092862D01*
X163150081Y-104037144D01*
X163084169Y-103971538D01*
X163037868Y-103921975D01*
X163006116Y-103881299D01*
X162983851Y-103842354D01*
X162966010Y-103797985D01*
X162953046Y-103758612D01*
X162925688Y-103631254D01*
X162927272Y-103509756D01*
X162958744Y-103391004D01*
X163021051Y-103271887D01*
X163115140Y-103149294D01*
X163150199Y-103110850D01*
X163305445Y-102969743D01*
X163488098Y-102845517D01*
X163695454Y-102739546D01*
X163924812Y-102653208D01*
X164173468Y-102587877D01*
X164180200Y-102586464D01*
X164431558Y-102543987D01*
X164682202Y-102522490D01*
X164938515Y-102522026D01*
X165206878Y-102542649D01*
X165493674Y-102584412D01*
X165568733Y-102598111D01*
X165805800Y-102642978D01*
X165662097Y-102673991D01*
X165457303Y-102727496D01*
X165284185Y-102792828D01*
X165142652Y-102870072D01*
X165032615Y-102959313D01*
X164953982Y-103060640D01*
X164906664Y-103174138D01*
X164890569Y-103299892D01*
X164898774Y-103401313D01*
X164933764Y-103530457D01*
X164998296Y-103669821D01*
X165090787Y-103816273D01*
X165145397Y-103889118D01*
X165212804Y-103977325D01*
X165262066Y-104049489D01*
X165298099Y-104114371D01*
X165325821Y-104180730D01*
X165348148Y-104250406D01*
X165376597Y-104407748D01*
X165373876Y-104573040D01*
X165340399Y-104742004D01*
X165286353Y-104889166D01*
X165261267Y-104946868D01*
X165249521Y-104981979D01*
X165249904Y-105002490D01*
X165261204Y-105016391D01*
X165266449Y-105020399D01*
X165300141Y-105032154D01*
X165358365Y-105039711D01*
X165418935Y-105041866D01*
X165563181Y-105026334D01*
X165694601Y-104981439D01*
X165809724Y-104909735D01*
X165905080Y-104813774D01*
X165977200Y-104696109D01*
X166010790Y-104606417D01*
X166037684Y-104513904D01*
X166079986Y-104576157D01*
X166152204Y-104705152D01*
X166210375Y-104854524D01*
X166250934Y-105012449D01*
X166270315Y-105167099D01*
X166271467Y-105211199D01*
X166979837Y-105211199D01*
X167027200Y-104987141D01*
X167060197Y-104680369D01*
X167062559Y-104370787D01*
X167033945Y-104062932D01*
X166998381Y-103865000D01*
X166916540Y-103562893D01*
X166805448Y-103275553D01*
X166666995Y-103004444D01*
X166503074Y-102751030D01*
X166315577Y-102516773D01*
X166106396Y-102303138D01*
X165877423Y-102111587D01*
X165630550Y-101943586D01*
X165367670Y-101800596D01*
X165090674Y-101684082D01*
X164801454Y-101595508D01*
X164501902Y-101536336D01*
X164193911Y-101508031D01*
X163951600Y-101508216D01*
G36*
X155214729Y-64200129D02*
X155214000Y-64214500D01*
X155262816Y-64275559D01*
X155281248Y-64278000D01*
X155319173Y-64239097D01*
X155309250Y-64214500D01*
X155252189Y-64153922D01*
X155242003Y-64151000D01*
X155214729Y-64200129D01*
X155214729Y-64200129D01*
G37*
X155214729Y-64200129D02*
X155214000Y-64214500D01*
X155262816Y-64275559D01*
X155281248Y-64278000D01*
X155319173Y-64239097D01*
X155309250Y-64214500D01*
X155252189Y-64153922D01*
X155242003Y-64151000D01*
X155214729Y-64200129D01*
G36*
X157627000Y-64182750D02*
X157566423Y-64239811D01*
X157563500Y-64249997D01*
X157612630Y-64277271D01*
X157627000Y-64278000D01*
X157688060Y-64229184D01*
X157690500Y-64210752D01*
X157651598Y-64172827D01*
X157627000Y-64182750D01*
X157627000Y-64182750D01*
G37*
X157627000Y-64182750D02*
X157566423Y-64239811D01*
X157563500Y-64249997D01*
X157612630Y-64277271D01*
X157627000Y-64278000D01*
X157688060Y-64229184D01*
X157690500Y-64210752D01*
X157651598Y-64172827D01*
X157627000Y-64182750D01*
G36*
X157171275Y-56624202D02*
X157140280Y-56684888D01*
X157043697Y-56853714D01*
X156974353Y-56902344D01*
X156935638Y-56830191D01*
X156928500Y-56721500D01*
X156902973Y-56574418D01*
X156826457Y-56531000D01*
X156754738Y-56568870D01*
X156762957Y-56631443D01*
X156788254Y-56758841D01*
X156801099Y-56943808D01*
X156801500Y-56980693D01*
X156826003Y-57162656D01*
X156891855Y-57228534D01*
X156987573Y-57177730D01*
X157101672Y-57009646D01*
X157108427Y-56996646D01*
X157227888Y-56763793D01*
X157271572Y-56996646D01*
X157319434Y-57171581D01*
X157367628Y-57228094D01*
X157406374Y-57174361D01*
X157425892Y-57018558D01*
X157423794Y-56869391D01*
X157394417Y-56627230D01*
X157340329Y-56504208D01*
X157264845Y-56502480D01*
X157171275Y-56624202D01*
X157171275Y-56624202D01*
G37*
X157171275Y-56624202D02*
X157140280Y-56684888D01*
X157043697Y-56853714D01*
X156974353Y-56902344D01*
X156935638Y-56830191D01*
X156928500Y-56721500D01*
X156902973Y-56574418D01*
X156826457Y-56531000D01*
X156754738Y-56568870D01*
X156762957Y-56631443D01*
X156788254Y-56758841D01*
X156801099Y-56943808D01*
X156801500Y-56980693D01*
X156826003Y-57162656D01*
X156891855Y-57228534D01*
X156987573Y-57177730D01*
X157101672Y-57009646D01*
X157108427Y-56996646D01*
X157227888Y-56763793D01*
X157271572Y-56996646D01*
X157319434Y-57171581D01*
X157367628Y-57228094D01*
X157406374Y-57174361D01*
X157425892Y-57018558D01*
X157423794Y-56869391D01*
X157394417Y-56627230D01*
X157340329Y-56504208D01*
X157264845Y-56502480D01*
X157171275Y-56624202D01*
G36*
X157827148Y-56530259D02*
X157729029Y-56658589D01*
X157658869Y-56797278D01*
X157569943Y-57019458D01*
X157544281Y-57158520D01*
X157581300Y-57205146D01*
X157680417Y-57150016D01*
X157680930Y-57149586D01*
X157800880Y-57094118D01*
X157925667Y-57093477D01*
X158002302Y-57144249D01*
X158008000Y-57170656D01*
X158058884Y-57224173D01*
X158094916Y-57229500D01*
X158138831Y-57208995D01*
X158142232Y-57130268D01*
X158103944Y-56967499D01*
X158082655Y-56893574D01*
X157911347Y-56893574D01*
X157872303Y-56953000D01*
X157815886Y-56942752D01*
X157786078Y-56862777D01*
X157797361Y-56809392D01*
X157840629Y-56747887D01*
X157885647Y-56792518D01*
X157911347Y-56893574D01*
X158082655Y-56893574D01*
X158079041Y-56881027D01*
X157993974Y-56639848D01*
X157912736Y-56523468D01*
X157827148Y-56530259D01*
X157827148Y-56530259D01*
G37*
X157827148Y-56530259D02*
X157729029Y-56658589D01*
X157658869Y-56797278D01*
X157569943Y-57019458D01*
X157544281Y-57158520D01*
X157581300Y-57205146D01*
X157680417Y-57150016D01*
X157680930Y-57149586D01*
X157800880Y-57094118D01*
X157925667Y-57093477D01*
X158002302Y-57144249D01*
X158008000Y-57170656D01*
X158058884Y-57224173D01*
X158094916Y-57229500D01*
X158138831Y-57208995D01*
X158142232Y-57130268D01*
X158103944Y-56967499D01*
X158082655Y-56893574D01*
X157911347Y-56893574D01*
X157872303Y-56953000D01*
X157815886Y-56942752D01*
X157786078Y-56862777D01*
X157797361Y-56809392D01*
X157840629Y-56747887D01*
X157885647Y-56792518D01*
X157911347Y-56893574D01*
X158082655Y-56893574D01*
X158079041Y-56881027D01*
X157993974Y-56639848D01*
X157912736Y-56523468D01*
X157827148Y-56530259D01*
G36*
X156485145Y-56671000D02*
X156487837Y-56850022D01*
X156502701Y-56959625D01*
X156549149Y-57178592D01*
X156601098Y-57281311D01*
X156665070Y-57278528D01*
X156685532Y-57260801D01*
X156696090Y-57183389D01*
X156684995Y-57031348D01*
X156659311Y-56853762D01*
X156626098Y-56699714D01*
X156593194Y-56619026D01*
X156521369Y-56589840D01*
X156485145Y-56671000D01*
X156485145Y-56671000D01*
G37*
X156485145Y-56671000D02*
X156487837Y-56850022D01*
X156502701Y-56959625D01*
X156549149Y-57178592D01*
X156601098Y-57281311D01*
X156665070Y-57278528D01*
X156685532Y-57260801D01*
X156696090Y-57183389D01*
X156684995Y-57031348D01*
X156659311Y-56853762D01*
X156626098Y-56699714D01*
X156593194Y-56619026D01*
X156521369Y-56589840D01*
X156485145Y-56671000D01*
G36*
X155997653Y-56716217D02*
X155926154Y-56775788D01*
X155936193Y-56832893D01*
X156031988Y-56819134D01*
X156141747Y-56811593D01*
X156157692Y-56870985D01*
X156074267Y-56972928D01*
X156068186Y-56978043D01*
X155987914Y-57106766D01*
X156006523Y-57239306D01*
X156111306Y-57328724D01*
X156166500Y-57341199D01*
X156327492Y-57330592D01*
X156419970Y-57296218D01*
X156478455Y-57223817D01*
X156443012Y-57163111D01*
X156364511Y-57126191D01*
X156328670Y-57160467D01*
X156234203Y-57222062D01*
X156183434Y-57229500D01*
X156129018Y-57212949D01*
X156160684Y-57148529D01*
X156224679Y-57076414D01*
X156333512Y-56912245D01*
X156336453Y-56780900D01*
X156238002Y-56702724D01*
X156139173Y-56689750D01*
X155997653Y-56716217D01*
X155997653Y-56716217D01*
G37*
X155997653Y-56716217D02*
X155926154Y-56775788D01*
X155936193Y-56832893D01*
X156031988Y-56819134D01*
X156141747Y-56811593D01*
X156157692Y-56870985D01*
X156074267Y-56972928D01*
X156068186Y-56978043D01*
X155987914Y-57106766D01*
X156006523Y-57239306D01*
X156111306Y-57328724D01*
X156166500Y-57341199D01*
X156327492Y-57330592D01*
X156419970Y-57296218D01*
X156478455Y-57223817D01*
X156443012Y-57163111D01*
X156364511Y-57126191D01*
X156328670Y-57160467D01*
X156234203Y-57222062D01*
X156183434Y-57229500D01*
X156129018Y-57212949D01*
X156160684Y-57148529D01*
X156224679Y-57076414D01*
X156333512Y-56912245D01*
X156336453Y-56780900D01*
X156238002Y-56702724D01*
X156139173Y-56689750D01*
X155997653Y-56716217D01*
G36*
X158196235Y-56549196D02*
X158135351Y-56582346D01*
X158135000Y-56586139D01*
X158186499Y-56649311D01*
X158233128Y-56658000D01*
X158295488Y-56684446D01*
X158304449Y-56784036D01*
X158289651Y-56879771D01*
X158271092Y-57065258D01*
X158285556Y-57204112D01*
X158325542Y-57270701D01*
X158383552Y-57239393D01*
X158391444Y-57227720D01*
X158433665Y-57100145D01*
X158451528Y-56927875D01*
X158463210Y-56796888D01*
X158514371Y-56735812D01*
X158631574Y-56735329D01*
X158841384Y-56786123D01*
X158849375Y-56788338D01*
X159010174Y-56849241D01*
X159077751Y-56931492D01*
X159087500Y-57012227D01*
X159040146Y-57160384D01*
X158921017Y-57221275D01*
X158764533Y-57177322D01*
X158654598Y-57138405D01*
X158606059Y-57174399D01*
X158602977Y-57259996D01*
X158689491Y-57319880D01*
X158829874Y-57348911D01*
X158988398Y-57341949D01*
X159129336Y-57293854D01*
X159178215Y-57256714D01*
X159266569Y-57094712D01*
X159256702Y-56920341D01*
X159167644Y-56769622D01*
X159018424Y-56678579D01*
X158869691Y-56672692D01*
X158744006Y-56675590D01*
X158691475Y-56644674D01*
X158623795Y-56596468D01*
X158487400Y-56561195D01*
X158329232Y-56543791D01*
X158196235Y-56549196D01*
X158196235Y-56549196D01*
G37*
X158196235Y-56549196D02*
X158135351Y-56582346D01*
X158135000Y-56586139D01*
X158186499Y-56649311D01*
X158233128Y-56658000D01*
X158295488Y-56684446D01*
X158304449Y-56784036D01*
X158289651Y-56879771D01*
X158271092Y-57065258D01*
X158285556Y-57204112D01*
X158325542Y-57270701D01*
X158383552Y-57239393D01*
X158391444Y-57227720D01*
X158433665Y-57100145D01*
X158451528Y-56927875D01*
X158463210Y-56796888D01*
X158514371Y-56735812D01*
X158631574Y-56735329D01*
X158841384Y-56786123D01*
X158849375Y-56788338D01*
X159010174Y-56849241D01*
X159077751Y-56931492D01*
X159087500Y-57012227D01*
X159040146Y-57160384D01*
X158921017Y-57221275D01*
X158764533Y-57177322D01*
X158654598Y-57138405D01*
X158606059Y-57174399D01*
X158602977Y-57259996D01*
X158689491Y-57319880D01*
X158829874Y-57348911D01*
X158988398Y-57341949D01*
X159129336Y-57293854D01*
X159178215Y-57256714D01*
X159266569Y-57094712D01*
X159256702Y-56920341D01*
X159167644Y-56769622D01*
X159018424Y-56678579D01*
X158869691Y-56672692D01*
X158744006Y-56675590D01*
X158691475Y-56644674D01*
X158623795Y-56596468D01*
X158487400Y-56561195D01*
X158329232Y-56543791D01*
X158196235Y-56549196D01*
G36*
X155233910Y-56957386D02*
X155154740Y-57065029D01*
X155150500Y-57096706D01*
X155179698Y-57219456D01*
X155215036Y-57261890D01*
X155250558Y-57339727D01*
X155241320Y-57363669D01*
X155243771Y-57459983D01*
X155324514Y-57556769D01*
X155443186Y-57609216D01*
X155463639Y-57610500D01*
X155598596Y-57574403D01*
X155693889Y-57520441D01*
X155770280Y-57435160D01*
X155768467Y-57381800D01*
X155689906Y-57376874D01*
X155644742Y-57408358D01*
X155532210Y-57475435D01*
X155487051Y-57483500D01*
X155416747Y-57439552D01*
X155413353Y-57348943D01*
X155477793Y-57273523D01*
X155483875Y-57270815D01*
X155500009Y-57232301D01*
X155420375Y-57194617D01*
X155309524Y-57135833D01*
X155277698Y-57070062D01*
X155341000Y-57031062D01*
X155458854Y-57015711D01*
X155462709Y-57015187D01*
X155553381Y-56974683D01*
X155551792Y-56916420D01*
X155518364Y-56896438D01*
X155372831Y-56891545D01*
X155233910Y-56957386D01*
X155233910Y-56957386D01*
G37*
X155233910Y-56957386D02*
X155154740Y-57065029D01*
X155150500Y-57096706D01*
X155179698Y-57219456D01*
X155215036Y-57261890D01*
X155250558Y-57339727D01*
X155241320Y-57363669D01*
X155243771Y-57459983D01*
X155324514Y-57556769D01*
X155443186Y-57609216D01*
X155463639Y-57610500D01*
X155598596Y-57574403D01*
X155693889Y-57520441D01*
X155770280Y-57435160D01*
X155768467Y-57381800D01*
X155689906Y-57376874D01*
X155644742Y-57408358D01*
X155532210Y-57475435D01*
X155487051Y-57483500D01*
X155416747Y-57439552D01*
X155413353Y-57348943D01*
X155477793Y-57273523D01*
X155483875Y-57270815D01*
X155500009Y-57232301D01*
X155420375Y-57194617D01*
X155309524Y-57135833D01*
X155277698Y-57070062D01*
X155341000Y-57031062D01*
X155458854Y-57015711D01*
X155462709Y-57015187D01*
X155553381Y-56974683D01*
X155551792Y-56916420D01*
X155518364Y-56896438D01*
X155372831Y-56891545D01*
X155233910Y-56957386D01*
G36*
X159473761Y-56968131D02*
X159339136Y-57107464D01*
X159278449Y-57286409D01*
X159278000Y-57302520D01*
X159328055Y-57415755D01*
X159447824Y-57542026D01*
X159591718Y-57641136D01*
X159699314Y-57674000D01*
X159805181Y-57632248D01*
X159913000Y-57547000D01*
X160020511Y-57367450D01*
X160020967Y-57273797D01*
X159869576Y-57273797D01*
X159825192Y-57402331D01*
X159707719Y-57470970D01*
X159638829Y-57471478D01*
X159526573Y-57412536D01*
X159500250Y-57299920D01*
X159540195Y-57147003D01*
X159635999Y-57063395D01*
X159751620Y-57068633D01*
X159819009Y-57127146D01*
X159869576Y-57273797D01*
X160020967Y-57273797D01*
X160021414Y-57182121D01*
X159929939Y-57024318D01*
X159760312Y-56927346D01*
X159641726Y-56912000D01*
X159473761Y-56968131D01*
X159473761Y-56968131D01*
G37*
X159473761Y-56968131D02*
X159339136Y-57107464D01*
X159278449Y-57286409D01*
X159278000Y-57302520D01*
X159328055Y-57415755D01*
X159447824Y-57542026D01*
X159591718Y-57641136D01*
X159699314Y-57674000D01*
X159805181Y-57632248D01*
X159913000Y-57547000D01*
X160020511Y-57367450D01*
X160020967Y-57273797D01*
X159869576Y-57273797D01*
X159825192Y-57402331D01*
X159707719Y-57470970D01*
X159638829Y-57471478D01*
X159526573Y-57412536D01*
X159500250Y-57299920D01*
X159540195Y-57147003D01*
X159635999Y-57063395D01*
X159751620Y-57068633D01*
X159819009Y-57127146D01*
X159869576Y-57273797D01*
X160020967Y-57273797D01*
X160021414Y-57182121D01*
X159929939Y-57024318D01*
X159760312Y-56927346D01*
X159641726Y-56912000D01*
X159473761Y-56968131D01*
G36*
X151277000Y-61833250D02*
X151308750Y-61865000D01*
X151340500Y-61833250D01*
X151308750Y-61801500D01*
X151277000Y-61833250D01*
X151277000Y-61833250D01*
G37*
X151277000Y-61833250D02*
X151308750Y-61865000D01*
X151340500Y-61833250D01*
X151308750Y-61801500D01*
X151277000Y-61833250D01*
G36*
X153134598Y-65785696D02*
X152957634Y-65831633D01*
X152747854Y-65906694D01*
X152660997Y-65972991D01*
X152698181Y-66028423D01*
X152832750Y-66066254D01*
X152944534Y-66144778D01*
X152979843Y-66262917D01*
X153011235Y-66396476D01*
X153067403Y-66421282D01*
X153156057Y-66334280D01*
X153277597Y-66144930D01*
X153378169Y-65945701D01*
X153225408Y-65945701D01*
X153189565Y-66015019D01*
X153182000Y-66024250D01*
X153105912Y-66103168D01*
X153078975Y-66119500D01*
X153057650Y-66067641D01*
X153055000Y-66024250D01*
X153106417Y-65941898D01*
X153158026Y-65929000D01*
X153225408Y-65945701D01*
X153378169Y-65945701D01*
X153381310Y-65939479D01*
X153396628Y-65815607D01*
X153316680Y-65766588D01*
X153134598Y-65785696D01*
X153134598Y-65785696D01*
G37*
X153134598Y-65785696D02*
X152957634Y-65831633D01*
X152747854Y-65906694D01*
X152660997Y-65972991D01*
X152698181Y-66028423D01*
X152832750Y-66066254D01*
X152944534Y-66144778D01*
X152979843Y-66262917D01*
X153011235Y-66396476D01*
X153067403Y-66421282D01*
X153156057Y-66334280D01*
X153277597Y-66144930D01*
X153378169Y-65945701D01*
X153225408Y-65945701D01*
X153189565Y-66015019D01*
X153182000Y-66024250D01*
X153105912Y-66103168D01*
X153078975Y-66119500D01*
X153057650Y-66067641D01*
X153055000Y-66024250D01*
X153106417Y-65941898D01*
X153158026Y-65929000D01*
X153225408Y-65945701D01*
X153378169Y-65945701D01*
X153381310Y-65939479D01*
X153396628Y-65815607D01*
X153316680Y-65766588D01*
X153134598Y-65785696D01*
G36*
X153502983Y-66092531D02*
X153531689Y-66179396D01*
X153597815Y-66249043D01*
X153673099Y-66372906D01*
X153661357Y-66507403D01*
X153572734Y-66601094D01*
X153525694Y-66614689D01*
X153380400Y-66587236D01*
X153311544Y-66535314D01*
X153210004Y-66450396D01*
X153135866Y-66450066D01*
X153118500Y-66500500D01*
X153169508Y-66609915D01*
X153289924Y-66724719D01*
X153430837Y-66804154D01*
X153499500Y-66818000D01*
X153637736Y-66774902D01*
X153753500Y-66691000D01*
X153848638Y-66552764D01*
X153880500Y-66437000D01*
X153837994Y-66305701D01*
X153737648Y-66167936D01*
X153620220Y-66072614D01*
X153563000Y-66056000D01*
X153502983Y-66092531D01*
X153502983Y-66092531D01*
G37*
X153502983Y-66092531D02*
X153531689Y-66179396D01*
X153597815Y-66249043D01*
X153673099Y-66372906D01*
X153661357Y-66507403D01*
X153572734Y-66601094D01*
X153525694Y-66614689D01*
X153380400Y-66587236D01*
X153311544Y-66535314D01*
X153210004Y-66450396D01*
X153135866Y-66450066D01*
X153118500Y-66500500D01*
X153169508Y-66609915D01*
X153289924Y-66724719D01*
X153430837Y-66804154D01*
X153499500Y-66818000D01*
X153637736Y-66774902D01*
X153753500Y-66691000D01*
X153848638Y-66552764D01*
X153880500Y-66437000D01*
X153837994Y-66305701D01*
X153737648Y-66167936D01*
X153620220Y-66072614D01*
X153563000Y-66056000D01*
X153502983Y-66092531D01*
G36*
X161292738Y-66188883D02*
X161337636Y-66354537D01*
X161411196Y-66512233D01*
X161529560Y-66718748D01*
X161615883Y-66804680D01*
X161673342Y-66771464D01*
X161702658Y-66643917D01*
X161762932Y-66492399D01*
X161849750Y-66447254D01*
X161989623Y-66405501D01*
X162009598Y-66348986D01*
X162007103Y-66347157D01*
X161659542Y-66347157D01*
X161654498Y-66381189D01*
X161584772Y-66409544D01*
X161515145Y-66359758D01*
X161500500Y-66308245D01*
X161547169Y-66276461D01*
X161595386Y-66286896D01*
X161659542Y-66347157D01*
X162007103Y-66347157D01*
X161908004Y-66274537D01*
X161714673Y-66190884D01*
X161474898Y-66113790D01*
X161336373Y-66110879D01*
X161292738Y-66188883D01*
X161292738Y-66188883D01*
G37*
X161292738Y-66188883D02*
X161337636Y-66354537D01*
X161411196Y-66512233D01*
X161529560Y-66718748D01*
X161615883Y-66804680D01*
X161673342Y-66771464D01*
X161702658Y-66643917D01*
X161762932Y-66492399D01*
X161849750Y-66447254D01*
X161989623Y-66405501D01*
X162009598Y-66348986D01*
X162007103Y-66347157D01*
X161659542Y-66347157D01*
X161654498Y-66381189D01*
X161584772Y-66409544D01*
X161515145Y-66359758D01*
X161500500Y-66308245D01*
X161547169Y-66276461D01*
X161595386Y-66286896D01*
X161659542Y-66347157D01*
X162007103Y-66347157D01*
X161908004Y-66274537D01*
X161714673Y-66190884D01*
X161474898Y-66113790D01*
X161336373Y-66110879D01*
X161292738Y-66188883D01*
G36*
X154003533Y-66545663D02*
X153888142Y-66656259D01*
X153764666Y-66794941D01*
X153666366Y-66924366D01*
X153626500Y-67006961D01*
X153656978Y-67084678D01*
X153744487Y-67054811D01*
X153883144Y-66920098D01*
X153928125Y-66866670D01*
X154075812Y-66669062D01*
X154130974Y-66549537D01*
X154096127Y-66501935D01*
X154077579Y-66500500D01*
X154003533Y-66545663D01*
X154003533Y-66545663D01*
G37*
X154003533Y-66545663D02*
X153888142Y-66656259D01*
X153764666Y-66794941D01*
X153666366Y-66924366D01*
X153626500Y-67006961D01*
X153656978Y-67084678D01*
X153744487Y-67054811D01*
X153883144Y-66920098D01*
X153928125Y-66866670D01*
X154075812Y-66669062D01*
X154130974Y-66549537D01*
X154096127Y-66501935D01*
X154077579Y-66500500D01*
X154003533Y-66545663D01*
G36*
X161038263Y-66429337D02*
X161031249Y-66523280D01*
X161133700Y-66681616D01*
X161142806Y-66692545D01*
X161239750Y-66829930D01*
X161278674Y-66931637D01*
X161274928Y-66950376D01*
X161181012Y-67007676D01*
X161053207Y-66957924D01*
X160920803Y-66820493D01*
X160805457Y-66699875D01*
X160716310Y-66669613D01*
X160675581Y-66735939D01*
X160675000Y-66751532D01*
X160720090Y-66842685D01*
X160829400Y-66970054D01*
X160963997Y-67095776D01*
X161084945Y-67181987D01*
X161135136Y-67199000D01*
X161246204Y-67155308D01*
X161331909Y-67082874D01*
X161422359Y-66934400D01*
X161410622Y-66780755D01*
X161293336Y-66594107D01*
X161269382Y-66565040D01*
X161133863Y-66435213D01*
X161045138Y-66423451D01*
X161038263Y-66429337D01*
X161038263Y-66429337D01*
G37*
X161038263Y-66429337D02*
X161031249Y-66523280D01*
X161133700Y-66681616D01*
X161142806Y-66692545D01*
X161239750Y-66829930D01*
X161278674Y-66931637D01*
X161274928Y-66950376D01*
X161181012Y-67007676D01*
X161053207Y-66957924D01*
X160920803Y-66820493D01*
X160805457Y-66699875D01*
X160716310Y-66669613D01*
X160675581Y-66735939D01*
X160675000Y-66751532D01*
X160720090Y-66842685D01*
X160829400Y-66970054D01*
X160963997Y-67095776D01*
X161084945Y-67181987D01*
X161135136Y-67199000D01*
X161246204Y-67155308D01*
X161331909Y-67082874D01*
X161422359Y-66934400D01*
X161410622Y-66780755D01*
X161293336Y-66594107D01*
X161269382Y-66565040D01*
X161133863Y-66435213D01*
X161045138Y-66423451D01*
X161038263Y-66429337D01*
G36*
X157156044Y-57408906D02*
X156608293Y-57467332D01*
X156269488Y-57538756D01*
X155499325Y-57807813D01*
X154800826Y-58180659D01*
X154178994Y-58653163D01*
X153638834Y-59221191D01*
X153185350Y-59880610D01*
X152991489Y-60245750D01*
X152757411Y-60785546D01*
X152602118Y-61292373D01*
X152514612Y-61814743D01*
X152483896Y-62401166D01*
X152483500Y-62486502D01*
X152514151Y-63111804D01*
X152613393Y-63681835D01*
X152792162Y-64242182D01*
X153035106Y-64786000D01*
X153175927Y-65055805D01*
X153312654Y-65279574D01*
X153469326Y-65489116D01*
X153669980Y-65716244D01*
X153938653Y-65992770D01*
X153972912Y-66027088D01*
X154256710Y-66304588D01*
X154487659Y-66511459D01*
X154697571Y-66671741D01*
X154918257Y-66809470D01*
X155181529Y-66948684D01*
X155214000Y-66964894D01*
X155534240Y-67111177D01*
X155881476Y-67249173D01*
X156199474Y-67357225D01*
X156319533Y-67390680D01*
X156617393Y-67450562D01*
X156941288Y-67491753D01*
X157262225Y-67513359D01*
X157551207Y-67514489D01*
X157779239Y-67494250D01*
X157917327Y-67451750D01*
X157931800Y-67440300D01*
X157972290Y-67331531D01*
X157998066Y-67107392D01*
X158007934Y-66778791D01*
X158008000Y-66745136D01*
X158008000Y-66126172D01*
X157600191Y-66317009D01*
X157023662Y-66522593D01*
X156443520Y-66604331D01*
X155869183Y-66562132D01*
X155310070Y-66395904D01*
X155185431Y-66340503D01*
X154878065Y-66156485D01*
X154592537Y-65915710D01*
X154350084Y-65643424D01*
X154171940Y-65364871D01*
X154079342Y-65105297D01*
X154071000Y-65015651D01*
X154111094Y-64865925D01*
X154210064Y-64695843D01*
X154235395Y-64663872D01*
X154375873Y-64529168D01*
X154494313Y-64471503D01*
X154567049Y-64498535D01*
X154579000Y-64552681D01*
X154633762Y-64678211D01*
X154772230Y-64807669D01*
X154955683Y-64911217D01*
X155099816Y-64953978D01*
X155370062Y-64941445D01*
X155608522Y-64827781D01*
X155777911Y-64632138D01*
X155795103Y-64596802D01*
X155950133Y-64390396D01*
X156105187Y-64309750D01*
X155468000Y-64309750D01*
X155418855Y-64482232D01*
X155296348Y-64577828D01*
X155137877Y-64581795D01*
X154996286Y-64495714D01*
X154909067Y-64373651D01*
X154917119Y-64244426D01*
X154962235Y-64146825D01*
X155075803Y-64039983D01*
X155222031Y-64024397D01*
X155360897Y-64087175D01*
X155452380Y-64215424D01*
X155468000Y-64309750D01*
X156105187Y-64309750D01*
X156176601Y-64272607D01*
X156443514Y-64256974D01*
X156530911Y-64275343D01*
X156735338Y-64341195D01*
X156857250Y-64416252D01*
X156939059Y-64532559D01*
X156976277Y-64611858D01*
X157120331Y-64795227D01*
X157342396Y-64918310D01*
X157600228Y-64961659D01*
X157712435Y-64950781D01*
X157938685Y-64852325D01*
X158129818Y-64671058D01*
X158217857Y-64512938D01*
X158280667Y-64470866D01*
X158383420Y-64518122D01*
X158499464Y-64635892D01*
X158586503Y-64773169D01*
X158670221Y-64898852D01*
X158730137Y-64915696D01*
X158764095Y-64840005D01*
X158769942Y-64688080D01*
X158745523Y-64476226D01*
X158688683Y-64220745D01*
X158688244Y-64219198D01*
X157850742Y-64219198D01*
X157847214Y-64376245D01*
X157757486Y-64503527D01*
X157618893Y-64576947D01*
X157468774Y-64572413D01*
X157385700Y-64519300D01*
X157316915Y-64373309D01*
X157330178Y-64202331D01*
X157403926Y-64088184D01*
X157549625Y-64038632D01*
X157711816Y-64074154D01*
X157831772Y-64177531D01*
X157850742Y-64219198D01*
X158688244Y-64219198D01*
X158668768Y-64150662D01*
X158520882Y-63833212D01*
X158279321Y-63514717D01*
X157973660Y-63224762D01*
X157755343Y-63075985D01*
X154906028Y-63075985D01*
X154552014Y-63458362D01*
X154387588Y-63644551D01*
X154263519Y-63801390D01*
X154200765Y-63901829D01*
X154197028Y-63916494D01*
X154172331Y-63941809D01*
X154134500Y-63897000D01*
X154102730Y-63787166D01*
X154080154Y-63593755D01*
X154071973Y-63376250D01*
X154081761Y-63108191D01*
X154108864Y-62838846D01*
X154148121Y-62597641D01*
X154194372Y-62413997D01*
X154242457Y-62317338D01*
X154259059Y-62309500D01*
X154315432Y-62361857D01*
X154383866Y-62489023D01*
X154388622Y-62500292D01*
X154487523Y-62663531D01*
X154637604Y-62837432D01*
X154686839Y-62883534D01*
X154906028Y-63075985D01*
X157755343Y-63075985D01*
X157633473Y-62992934D01*
X157404829Y-62886299D01*
X156876787Y-62746514D01*
X156330697Y-62706246D01*
X155810443Y-62768702D01*
X155807093Y-62769486D01*
X155415936Y-62861356D01*
X155336977Y-62696553D01*
X155296885Y-62556979D01*
X155260555Y-62332712D01*
X155234410Y-62066033D01*
X155229918Y-61992000D01*
X155221279Y-61688324D01*
X155236936Y-61458719D01*
X155283348Y-61251516D01*
X155344811Y-61072854D01*
X155548814Y-60681434D01*
X155840357Y-60323576D01*
X156187317Y-60033689D01*
X156451710Y-59887115D01*
X156675669Y-59771781D01*
X156756450Y-59697691D01*
X155849000Y-59697691D01*
X155809327Y-59808295D01*
X155715650Y-59833000D01*
X155577389Y-59882443D01*
X155415403Y-60005737D01*
X155266940Y-60165325D01*
X155169249Y-60323652D01*
X155150500Y-60402806D01*
X155116672Y-60509620D01*
X155051896Y-60520281D01*
X154967075Y-60477356D01*
X154956646Y-60452125D01*
X154959229Y-60357345D01*
X154960000Y-60244817D01*
X155014612Y-60061280D01*
X155155630Y-59871920D01*
X155348831Y-59710632D01*
X155559991Y-59611307D01*
X155610875Y-59600240D01*
X155766627Y-59583643D01*
X155834201Y-59610806D01*
X155848999Y-59696217D01*
X155849000Y-59697691D01*
X156756450Y-59697691D01*
X156797885Y-59659689D01*
X156833981Y-59579000D01*
X156981996Y-59225689D01*
X157108192Y-59062368D01*
X156039500Y-59062368D01*
X155997493Y-59175929D01*
X155928375Y-59198354D01*
X155582352Y-59259888D01*
X155256152Y-59429950D01*
X154968604Y-59690071D01*
X154738537Y-60021783D01*
X154584779Y-60406618D01*
X154553031Y-60547375D01*
X154495553Y-60723898D01*
X154422864Y-60790302D01*
X154358432Y-60745828D01*
X154325722Y-60589718D01*
X154325000Y-60554742D01*
X154385886Y-60133220D01*
X154569050Y-59744475D01*
X154724911Y-59540837D01*
X155072812Y-59227749D01*
X155463773Y-59032607D01*
X155753547Y-58965931D01*
X155929064Y-58947492D01*
X156012906Y-58963352D01*
X156038281Y-59024712D01*
X156039500Y-59062368D01*
X157108192Y-59062368D01*
X157225346Y-58910750D01*
X157536045Y-58659982D01*
X157886106Y-58499186D01*
X158043628Y-58463849D01*
X158390740Y-58470450D01*
X158745321Y-58577555D01*
X159077069Y-58766185D01*
X159355685Y-59017360D01*
X159550867Y-59312100D01*
X159598805Y-59437990D01*
X159674319Y-59690031D01*
X160108701Y-59721111D01*
X160618149Y-59815770D01*
X161065536Y-60020410D01*
X161446154Y-60331698D01*
X161755295Y-60746303D01*
X161871082Y-60968379D01*
X162003889Y-61384982D01*
X162051007Y-61847254D01*
X162012390Y-62310095D01*
X161887991Y-62728405D01*
X161872918Y-62761620D01*
X161594751Y-63222059D01*
X161239440Y-63585230D01*
X160875695Y-63815733D01*
X160651258Y-63913699D01*
X160444582Y-63967805D01*
X160199433Y-63989706D01*
X160024207Y-63992250D01*
X159532164Y-63992250D01*
X159532082Y-65565165D01*
X159532000Y-67138081D01*
X159801875Y-67001100D01*
X160443543Y-66607446D01*
X161032767Y-66111380D01*
X161550042Y-65533144D01*
X161975865Y-64892978D01*
X162139534Y-64575029D01*
X162378073Y-63932077D01*
X162528470Y-63229950D01*
X162587377Y-62504017D01*
X162551446Y-61789649D01*
X162453629Y-61256032D01*
X162198796Y-60495227D01*
X161836865Y-59794899D01*
X161376954Y-59164309D01*
X160828178Y-58612717D01*
X160532394Y-58394671D01*
X156261580Y-58394671D01*
X156251586Y-58452438D01*
X156129212Y-58524680D01*
X155897740Y-58604721D01*
X155791700Y-58633307D01*
X155264253Y-58823911D01*
X154811454Y-59103251D01*
X154443732Y-59460246D01*
X154171514Y-59883815D01*
X154005230Y-60362878D01*
X153970612Y-60568399D01*
X153938165Y-60810302D01*
X153905711Y-60951885D01*
X153862528Y-61019375D01*
X153797896Y-61038999D01*
X153778034Y-61039500D01*
X153723760Y-61024802D01*
X153696714Y-60963347D01*
X153693012Y-60829091D01*
X153708768Y-60595992D01*
X153709877Y-60582703D01*
X153816478Y-60047093D01*
X154038539Y-59556827D01*
X154368556Y-59127436D01*
X154453140Y-59044328D01*
X154797667Y-58773474D01*
X155183037Y-58555749D01*
X155572212Y-58408570D01*
X155928152Y-58349354D01*
X155931307Y-58349268D01*
X156155914Y-58358056D01*
X156261580Y-58394671D01*
X160532394Y-58394671D01*
X160199654Y-58149383D01*
X159500499Y-57783566D01*
X158794013Y-57538756D01*
X158298401Y-57444618D01*
X157735912Y-57401334D01*
X157156044Y-57408906D01*
X157156044Y-57408906D01*
G37*
X157156044Y-57408906D02*
X156608293Y-57467332D01*
X156269488Y-57538756D01*
X155499325Y-57807813D01*
X154800826Y-58180659D01*
X154178994Y-58653163D01*
X153638834Y-59221191D01*
X153185350Y-59880610D01*
X152991489Y-60245750D01*
X152757411Y-60785546D01*
X152602118Y-61292373D01*
X152514612Y-61814743D01*
X152483896Y-62401166D01*
X152483500Y-62486502D01*
X152514151Y-63111804D01*
X152613393Y-63681835D01*
X152792162Y-64242182D01*
X153035106Y-64786000D01*
X153175927Y-65055805D01*
X153312654Y-65279574D01*
X153469326Y-65489116D01*
X153669980Y-65716244D01*
X153938653Y-65992770D01*
X153972912Y-66027088D01*
X154256710Y-66304588D01*
X154487659Y-66511459D01*
X154697571Y-66671741D01*
X154918257Y-66809470D01*
X155181529Y-66948684D01*
X155214000Y-66964894D01*
X155534240Y-67111177D01*
X155881476Y-67249173D01*
X156199474Y-67357225D01*
X156319533Y-67390680D01*
X156617393Y-67450562D01*
X156941288Y-67491753D01*
X157262225Y-67513359D01*
X157551207Y-67514489D01*
X157779239Y-67494250D01*
X157917327Y-67451750D01*
X157931800Y-67440300D01*
X157972290Y-67331531D01*
X157998066Y-67107392D01*
X158007934Y-66778791D01*
X158008000Y-66745136D01*
X158008000Y-66126172D01*
X157600191Y-66317009D01*
X157023662Y-66522593D01*
X156443520Y-66604331D01*
X155869183Y-66562132D01*
X155310070Y-66395904D01*
X155185431Y-66340503D01*
X154878065Y-66156485D01*
X154592537Y-65915710D01*
X154350084Y-65643424D01*
X154171940Y-65364871D01*
X154079342Y-65105297D01*
X154071000Y-65015651D01*
X154111094Y-64865925D01*
X154210064Y-64695843D01*
X154235395Y-64663872D01*
X154375873Y-64529168D01*
X154494313Y-64471503D01*
X154567049Y-64498535D01*
X154579000Y-64552681D01*
X154633762Y-64678211D01*
X154772230Y-64807669D01*
X154955683Y-64911217D01*
X155099816Y-64953978D01*
X155370062Y-64941445D01*
X155608522Y-64827781D01*
X155777911Y-64632138D01*
X155795103Y-64596802D01*
X155950133Y-64390396D01*
X156105187Y-64309750D01*
X155468000Y-64309750D01*
X155418855Y-64482232D01*
X155296348Y-64577828D01*
X155137877Y-64581795D01*
X154996286Y-64495714D01*
X154909067Y-64373651D01*
X154917119Y-64244426D01*
X154962235Y-64146825D01*
X155075803Y-64039983D01*
X155222031Y-64024397D01*
X155360897Y-64087175D01*
X155452380Y-64215424D01*
X155468000Y-64309750D01*
X156105187Y-64309750D01*
X156176601Y-64272607D01*
X156443514Y-64256974D01*
X156530911Y-64275343D01*
X156735338Y-64341195D01*
X156857250Y-64416252D01*
X156939059Y-64532559D01*
X156976277Y-64611858D01*
X157120331Y-64795227D01*
X157342396Y-64918310D01*
X157600228Y-64961659D01*
X157712435Y-64950781D01*
X157938685Y-64852325D01*
X158129818Y-64671058D01*
X158217857Y-64512938D01*
X158280667Y-64470866D01*
X158383420Y-64518122D01*
X158499464Y-64635892D01*
X158586503Y-64773169D01*
X158670221Y-64898852D01*
X158730137Y-64915696D01*
X158764095Y-64840005D01*
X158769942Y-64688080D01*
X158745523Y-64476226D01*
X158688683Y-64220745D01*
X158688244Y-64219198D01*
X157850742Y-64219198D01*
X157847214Y-64376245D01*
X157757486Y-64503527D01*
X157618893Y-64576947D01*
X157468774Y-64572413D01*
X157385700Y-64519300D01*
X157316915Y-64373309D01*
X157330178Y-64202331D01*
X157403926Y-64088184D01*
X157549625Y-64038632D01*
X157711816Y-64074154D01*
X157831772Y-64177531D01*
X157850742Y-64219198D01*
X158688244Y-64219198D01*
X158668768Y-64150662D01*
X158520882Y-63833212D01*
X158279321Y-63514717D01*
X157973660Y-63224762D01*
X157755343Y-63075985D01*
X154906028Y-63075985D01*
X154552014Y-63458362D01*
X154387588Y-63644551D01*
X154263519Y-63801390D01*
X154200765Y-63901829D01*
X154197028Y-63916494D01*
X154172331Y-63941809D01*
X154134500Y-63897000D01*
X154102730Y-63787166D01*
X154080154Y-63593755D01*
X154071973Y-63376250D01*
X154081761Y-63108191D01*
X154108864Y-62838846D01*
X154148121Y-62597641D01*
X154194372Y-62413997D01*
X154242457Y-62317338D01*
X154259059Y-62309500D01*
X154315432Y-62361857D01*
X154383866Y-62489023D01*
X154388622Y-62500292D01*
X154487523Y-62663531D01*
X154637604Y-62837432D01*
X154686839Y-62883534D01*
X154906028Y-63075985D01*
X157755343Y-63075985D01*
X157633473Y-62992934D01*
X157404829Y-62886299D01*
X156876787Y-62746514D01*
X156330697Y-62706246D01*
X155810443Y-62768702D01*
X155807093Y-62769486D01*
X155415936Y-62861356D01*
X155336977Y-62696553D01*
X155296885Y-62556979D01*
X155260555Y-62332712D01*
X155234410Y-62066033D01*
X155229918Y-61992000D01*
X155221279Y-61688324D01*
X155236936Y-61458719D01*
X155283348Y-61251516D01*
X155344811Y-61072854D01*
X155548814Y-60681434D01*
X155840357Y-60323576D01*
X156187317Y-60033689D01*
X156451710Y-59887115D01*
X156675669Y-59771781D01*
X156756450Y-59697691D01*
X155849000Y-59697691D01*
X155809327Y-59808295D01*
X155715650Y-59833000D01*
X155577389Y-59882443D01*
X155415403Y-60005737D01*
X155266940Y-60165325D01*
X155169249Y-60323652D01*
X155150500Y-60402806D01*
X155116672Y-60509620D01*
X155051896Y-60520281D01*
X154967075Y-60477356D01*
X154956646Y-60452125D01*
X154959229Y-60357345D01*
X154960000Y-60244817D01*
X155014612Y-60061280D01*
X155155630Y-59871920D01*
X155348831Y-59710632D01*
X155559991Y-59611307D01*
X155610875Y-59600240D01*
X155766627Y-59583643D01*
X155834201Y-59610806D01*
X155848999Y-59696217D01*
X155849000Y-59697691D01*
X156756450Y-59697691D01*
X156797885Y-59659689D01*
X156833981Y-59579000D01*
X156981996Y-59225689D01*
X157108192Y-59062368D01*
X156039500Y-59062368D01*
X155997493Y-59175929D01*
X155928375Y-59198354D01*
X155582352Y-59259888D01*
X155256152Y-59429950D01*
X154968604Y-59690071D01*
X154738537Y-60021783D01*
X154584779Y-60406618D01*
X154553031Y-60547375D01*
X154495553Y-60723898D01*
X154422864Y-60790302D01*
X154358432Y-60745828D01*
X154325722Y-60589718D01*
X154325000Y-60554742D01*
X154385886Y-60133220D01*
X154569050Y-59744475D01*
X154724911Y-59540837D01*
X155072812Y-59227749D01*
X155463773Y-59032607D01*
X155753547Y-58965931D01*
X155929064Y-58947492D01*
X156012906Y-58963352D01*
X156038281Y-59024712D01*
X156039500Y-59062368D01*
X157108192Y-59062368D01*
X157225346Y-58910750D01*
X157536045Y-58659982D01*
X157886106Y-58499186D01*
X158043628Y-58463849D01*
X158390740Y-58470450D01*
X158745321Y-58577555D01*
X159077069Y-58766185D01*
X159355685Y-59017360D01*
X159550867Y-59312100D01*
X159598805Y-59437990D01*
X159674319Y-59690031D01*
X160108701Y-59721111D01*
X160618149Y-59815770D01*
X161065536Y-60020410D01*
X161446154Y-60331698D01*
X161755295Y-60746303D01*
X161871082Y-60968379D01*
X162003889Y-61384982D01*
X162051007Y-61847254D01*
X162012390Y-62310095D01*
X161887991Y-62728405D01*
X161872918Y-62761620D01*
X161594751Y-63222059D01*
X161239440Y-63585230D01*
X160875695Y-63815733D01*
X160651258Y-63913699D01*
X160444582Y-63967805D01*
X160199433Y-63989706D01*
X160024207Y-63992250D01*
X159532164Y-63992250D01*
X159532082Y-65565165D01*
X159532000Y-67138081D01*
X159801875Y-67001100D01*
X160443543Y-66607446D01*
X161032767Y-66111380D01*
X161550042Y-65533144D01*
X161975865Y-64892978D01*
X162139534Y-64575029D01*
X162378073Y-63932077D01*
X162528470Y-63229950D01*
X162587377Y-62504017D01*
X162551446Y-61789649D01*
X162453629Y-61256032D01*
X162198796Y-60495227D01*
X161836865Y-59794899D01*
X161376954Y-59164309D01*
X160828178Y-58612717D01*
X160532394Y-58394671D01*
X156261580Y-58394671D01*
X156251586Y-58452438D01*
X156129212Y-58524680D01*
X155897740Y-58604721D01*
X155791700Y-58633307D01*
X155264253Y-58823911D01*
X154811454Y-59103251D01*
X154443732Y-59460246D01*
X154171514Y-59883815D01*
X154005230Y-60362878D01*
X153970612Y-60568399D01*
X153938165Y-60810302D01*
X153905711Y-60951885D01*
X153862528Y-61019375D01*
X153797896Y-61038999D01*
X153778034Y-61039500D01*
X153723760Y-61024802D01*
X153696714Y-60963347D01*
X153693012Y-60829091D01*
X153708768Y-60595992D01*
X153709877Y-60582703D01*
X153816478Y-60047093D01*
X154038539Y-59556827D01*
X154368556Y-59127436D01*
X154453140Y-59044328D01*
X154797667Y-58773474D01*
X155183037Y-58555749D01*
X155572212Y-58408570D01*
X155928152Y-58349354D01*
X155931307Y-58349268D01*
X156155914Y-58358056D01*
X156261580Y-58394671D01*
X160532394Y-58394671D01*
X160199654Y-58149383D01*
X159500499Y-57783566D01*
X158794013Y-57538756D01*
X158298401Y-57444618D01*
X157735912Y-57401334D01*
X157156044Y-57408906D01*
G36*
X160413942Y-66886525D02*
X160266154Y-67028584D01*
X160244000Y-67155981D01*
X160347202Y-67270641D01*
X160357500Y-67277236D01*
X160458629Y-67397333D01*
X160484500Y-67500024D01*
X160513199Y-67621410D01*
X160587284Y-67635288D01*
X160632667Y-67601166D01*
X160665539Y-67511333D01*
X160677020Y-67394791D01*
X160683999Y-67282130D01*
X160717561Y-67285712D01*
X160772508Y-67354337D01*
X160869260Y-67433675D01*
X160926890Y-67417010D01*
X160931520Y-67325474D01*
X160853157Y-67154607D01*
X160839246Y-67131956D01*
X160583530Y-67131956D01*
X160567441Y-67158393D01*
X160475263Y-67197021D01*
X160422844Y-67129055D01*
X160421000Y-67103750D01*
X160453300Y-67019216D01*
X160480753Y-67008500D01*
X160563672Y-67050515D01*
X160583530Y-67131956D01*
X160839246Y-67131956D01*
X160792594Y-67055999D01*
X160597384Y-66755903D01*
X160413942Y-66886525D01*
X160413942Y-66886525D01*
G37*
X160413942Y-66886525D02*
X160266154Y-67028584D01*
X160244000Y-67155981D01*
X160347202Y-67270641D01*
X160357500Y-67277236D01*
X160458629Y-67397333D01*
X160484500Y-67500024D01*
X160513199Y-67621410D01*
X160587284Y-67635288D01*
X160632667Y-67601166D01*
X160665539Y-67511333D01*
X160677020Y-67394791D01*
X160683999Y-67282130D01*
X160717561Y-67285712D01*
X160772508Y-67354337D01*
X160869260Y-67433675D01*
X160926890Y-67417010D01*
X160931520Y-67325474D01*
X160853157Y-67154607D01*
X160839246Y-67131956D01*
X160583530Y-67131956D01*
X160567441Y-67158393D01*
X160475263Y-67197021D01*
X160422844Y-67129055D01*
X160421000Y-67103750D01*
X160453300Y-67019216D01*
X160480753Y-67008500D01*
X160563672Y-67050515D01*
X160583530Y-67131956D01*
X160839246Y-67131956D01*
X160792594Y-67055999D01*
X160597384Y-66755903D01*
X160413942Y-66886525D01*
G36*
X159820186Y-67215582D02*
X159684926Y-67357727D01*
X159624696Y-67473444D01*
X159631565Y-67578121D01*
X159688248Y-67702161D01*
X159825090Y-67853161D01*
X160002744Y-67901694D01*
X160182856Y-67842375D01*
X160252409Y-67781374D01*
X160347594Y-67598413D01*
X160343309Y-67504109D01*
X160208027Y-67504109D01*
X160196389Y-67632579D01*
X160171418Y-67669927D01*
X160038489Y-67762582D01*
X159905337Y-67729764D01*
X159852032Y-67678300D01*
X159791478Y-67536877D01*
X159829275Y-67416613D01*
X159950251Y-67358582D01*
X159970449Y-67357750D01*
X160124920Y-67400393D01*
X160208027Y-67504109D01*
X160343309Y-67504109D01*
X160338858Y-67406180D01*
X160230107Y-67247551D01*
X160201860Y-67226947D01*
X160004606Y-67159875D01*
X159820186Y-67215582D01*
X159820186Y-67215582D01*
G37*
X159820186Y-67215582D02*
X159684926Y-67357727D01*
X159624696Y-67473444D01*
X159631565Y-67578121D01*
X159688248Y-67702161D01*
X159825090Y-67853161D01*
X160002744Y-67901694D01*
X160182856Y-67842375D01*
X160252409Y-67781374D01*
X160347594Y-67598413D01*
X160343309Y-67504109D01*
X160208027Y-67504109D01*
X160196389Y-67632579D01*
X160171418Y-67669927D01*
X160038489Y-67762582D01*
X159905337Y-67729764D01*
X159852032Y-67678300D01*
X159791478Y-67536877D01*
X159829275Y-67416613D01*
X159950251Y-67358582D01*
X159970449Y-67357750D01*
X160124920Y-67400393D01*
X160208027Y-67504109D01*
X160343309Y-67504109D01*
X160338858Y-67406180D01*
X160230107Y-67247551D01*
X160201860Y-67226947D01*
X160004606Y-67159875D01*
X159820186Y-67215582D01*
G36*
X154167616Y-66719746D02*
X154053858Y-66847475D01*
X153900701Y-67058106D01*
X153833361Y-67189960D01*
X153851116Y-67245453D01*
X153932922Y-67217956D01*
X154053215Y-67106129D01*
X154154929Y-66991584D01*
X154191107Y-66969869D01*
X154177783Y-67036473D01*
X154166099Y-67074379D01*
X154118001Y-67222491D01*
X154089708Y-67303701D01*
X154092443Y-67395054D01*
X154170492Y-67420221D01*
X154289427Y-67376936D01*
X154361451Y-67321583D01*
X154473162Y-67237019D01*
X154512804Y-67249921D01*
X154474460Y-67349347D01*
X154421289Y-67432247D01*
X154365732Y-67533595D01*
X154395713Y-67604682D01*
X154489038Y-67672875D01*
X154640489Y-67739532D01*
X154728255Y-67714880D01*
X154839816Y-67689387D01*
X154948431Y-67745520D01*
X154991750Y-67842267D01*
X155042263Y-67930246D01*
X155071125Y-67945125D01*
X155134334Y-67914964D01*
X155151199Y-67823416D01*
X155162165Y-67659484D01*
X155176856Y-67544502D01*
X155023500Y-67544502D01*
X155002574Y-67636249D01*
X154947590Y-67608746D01*
X154930962Y-67584387D01*
X154938925Y-67502832D01*
X154958965Y-67485390D01*
X155014187Y-67499186D01*
X155023500Y-67544502D01*
X155176856Y-67544502D01*
X155187976Y-67457476D01*
X155191258Y-67437125D01*
X155208434Y-67280807D01*
X155181796Y-67212956D01*
X155107766Y-67199000D01*
X154992817Y-67242418D01*
X154842161Y-67352419D01*
X154770422Y-67420298D01*
X154642574Y-67544255D01*
X154555128Y-67614208D01*
X154534789Y-67620455D01*
X154550983Y-67558304D01*
X154615355Y-67421740D01*
X154674667Y-67311215D01*
X154764808Y-67140447D01*
X154793223Y-67046741D01*
X154765103Y-66999219D01*
X154729911Y-66982528D01*
X154599279Y-66986693D01*
X154522192Y-67029060D01*
X154380099Y-67140304D01*
X154314843Y-67156588D01*
X154315025Y-67074293D01*
X154343000Y-66972182D01*
X154380687Y-66810786D01*
X154361488Y-66722871D01*
X154321210Y-66688004D01*
X154250955Y-66671675D01*
X154167616Y-66719746D01*
X154167616Y-66719746D01*
G37*
X154167616Y-66719746D02*
X154053858Y-66847475D01*
X153900701Y-67058106D01*
X153833361Y-67189960D01*
X153851116Y-67245453D01*
X153932922Y-67217956D01*
X154053215Y-67106129D01*
X154154929Y-66991584D01*
X154191107Y-66969869D01*
X154177783Y-67036473D01*
X154166099Y-67074379D01*
X154118001Y-67222491D01*
X154089708Y-67303701D01*
X154092443Y-67395054D01*
X154170492Y-67420221D01*
X154289427Y-67376936D01*
X154361451Y-67321583D01*
X154473162Y-67237019D01*
X154512804Y-67249921D01*
X154474460Y-67349347D01*
X154421289Y-67432247D01*
X154365732Y-67533595D01*
X154395713Y-67604682D01*
X154489038Y-67672875D01*
X154640489Y-67739532D01*
X154728255Y-67714880D01*
X154839816Y-67689387D01*
X154948431Y-67745520D01*
X154991750Y-67842267D01*
X155042263Y-67930246D01*
X155071125Y-67945125D01*
X155134334Y-67914964D01*
X155151199Y-67823416D01*
X155162165Y-67659484D01*
X155176856Y-67544502D01*
X155023500Y-67544502D01*
X155002574Y-67636249D01*
X154947590Y-67608746D01*
X154930962Y-67584387D01*
X154938925Y-67502832D01*
X154958965Y-67485390D01*
X155014187Y-67499186D01*
X155023500Y-67544502D01*
X155176856Y-67544502D01*
X155187976Y-67457476D01*
X155191258Y-67437125D01*
X155208434Y-67280807D01*
X155181796Y-67212956D01*
X155107766Y-67199000D01*
X154992817Y-67242418D01*
X154842161Y-67352419D01*
X154770422Y-67420298D01*
X154642574Y-67544255D01*
X154555128Y-67614208D01*
X154534789Y-67620455D01*
X154550983Y-67558304D01*
X154615355Y-67421740D01*
X154674667Y-67311215D01*
X154764808Y-67140447D01*
X154793223Y-67046741D01*
X154765103Y-66999219D01*
X154729911Y-66982528D01*
X154599279Y-66986693D01*
X154522192Y-67029060D01*
X154380099Y-67140304D01*
X154314843Y-67156588D01*
X154315025Y-67074293D01*
X154343000Y-66972182D01*
X154380687Y-66810786D01*
X154361488Y-66722871D01*
X154321210Y-66688004D01*
X154250955Y-66671675D01*
X154167616Y-66719746D01*
G36*
X155612700Y-67481354D02*
X155554144Y-67538316D01*
X155596421Y-67593953D01*
X155678857Y-67610940D01*
X155771467Y-67639747D01*
X155767441Y-67699988D01*
X155678647Y-67757090D01*
X155623926Y-67770989D01*
X155470983Y-67840243D01*
X155410507Y-67956552D01*
X155454284Y-68084199D01*
X155504982Y-68131427D01*
X155653844Y-68202788D01*
X155780765Y-68203613D01*
X155846600Y-68136002D01*
X155849000Y-68112956D01*
X155809690Y-68040539D01*
X155763867Y-68043581D01*
X155638238Y-68042505D01*
X155591022Y-68022040D01*
X155548486Y-67970808D01*
X155613103Y-67928183D01*
X155794338Y-67888418D01*
X155817250Y-67884694D01*
X155930598Y-67817443D01*
X155964988Y-67696691D01*
X155916343Y-67571513D01*
X155847892Y-67515906D01*
X155702500Y-67473354D01*
X155612700Y-67481354D01*
X155612700Y-67481354D01*
G37*
X155612700Y-67481354D02*
X155554144Y-67538316D01*
X155596421Y-67593953D01*
X155678857Y-67610940D01*
X155771467Y-67639747D01*
X155767441Y-67699988D01*
X155678647Y-67757090D01*
X155623926Y-67770989D01*
X155470983Y-67840243D01*
X155410507Y-67956552D01*
X155454284Y-68084199D01*
X155504982Y-68131427D01*
X155653844Y-68202788D01*
X155780765Y-68203613D01*
X155846600Y-68136002D01*
X155849000Y-68112956D01*
X155809690Y-68040539D01*
X155763867Y-68043581D01*
X155638238Y-68042505D01*
X155591022Y-68022040D01*
X155548486Y-67970808D01*
X155613103Y-67928183D01*
X155794338Y-67888418D01*
X155817250Y-67884694D01*
X155930598Y-67817443D01*
X155964988Y-67696691D01*
X155916343Y-67571513D01*
X155847892Y-67515906D01*
X155702500Y-67473354D01*
X155612700Y-67481354D01*
G36*
X156072561Y-67732556D02*
X156040988Y-67841797D01*
X155991728Y-68028783D01*
X155952444Y-68169046D01*
X155943108Y-68199125D01*
X155966746Y-68270311D01*
X156001491Y-68278500D01*
X156067064Y-68222832D01*
X156137192Y-68081506D01*
X156167473Y-67989275D01*
X156211941Y-67778094D01*
X156198246Y-67656836D01*
X156180348Y-67631947D01*
X156126035Y-67626889D01*
X156072561Y-67732556D01*
X156072561Y-67732556D01*
G37*
X156072561Y-67732556D02*
X156040988Y-67841797D01*
X155991728Y-68028783D01*
X155952444Y-68169046D01*
X155943108Y-68199125D01*
X155966746Y-68270311D01*
X156001491Y-68278500D01*
X156067064Y-68222832D01*
X156137192Y-68081506D01*
X156167473Y-67989275D01*
X156211941Y-67778094D01*
X156198246Y-67656836D01*
X156180348Y-67631947D01*
X156126035Y-67626889D01*
X156072561Y-67732556D01*
G36*
X156354797Y-67698196D02*
X156294012Y-67768731D01*
X156293500Y-67777293D01*
X156348241Y-67818740D01*
X156464950Y-67834000D01*
X156568937Y-67854351D01*
X156567498Y-67900681D01*
X156472760Y-67950905D01*
X156389480Y-67971440D01*
X156273921Y-68044372D01*
X156239332Y-68175859D01*
X156296032Y-68313300D01*
X156405130Y-68384470D01*
X156537593Y-68403802D01*
X156643161Y-68371602D01*
X156674500Y-68310998D01*
X156624181Y-68238070D01*
X156563375Y-68231623D01*
X156455214Y-68216606D01*
X156441338Y-68157473D01*
X156522828Y-68096371D01*
X156559628Y-68085396D01*
X156685994Y-68006566D01*
X156727796Y-67880405D01*
X156677228Y-67755696D01*
X156619454Y-67711524D01*
X156480563Y-67675639D01*
X156354797Y-67698196D01*
X156354797Y-67698196D01*
G37*
X156354797Y-67698196D02*
X156294012Y-67768731D01*
X156293500Y-67777293D01*
X156348241Y-67818740D01*
X156464950Y-67834000D01*
X156568937Y-67854351D01*
X156567498Y-67900681D01*
X156472760Y-67950905D01*
X156389480Y-67971440D01*
X156273921Y-68044372D01*
X156239332Y-68175859D01*
X156296032Y-68313300D01*
X156405130Y-68384470D01*
X156537593Y-68403802D01*
X156643161Y-68371602D01*
X156674500Y-68310998D01*
X156624181Y-68238070D01*
X156563375Y-68231623D01*
X156455214Y-68216606D01*
X156441338Y-68157473D01*
X156522828Y-68096371D01*
X156559628Y-68085396D01*
X156685994Y-68006566D01*
X156727796Y-67880405D01*
X156677228Y-67755696D01*
X156619454Y-67711524D01*
X156480563Y-67675639D01*
X156354797Y-67698196D01*
G36*
X159374365Y-67429427D02*
X159194527Y-67521869D01*
X159096614Y-67647762D01*
X159092052Y-67778709D01*
X159190843Y-67885522D01*
X159259099Y-67961853D01*
X159230239Y-68057621D01*
X159184607Y-68113511D01*
X159130939Y-68095422D01*
X159062756Y-68009692D01*
X158870385Y-68009692D01*
X158861899Y-68029923D01*
X158784808Y-68061384D01*
X158764577Y-68052898D01*
X158733116Y-67975807D01*
X158741602Y-67955576D01*
X158818693Y-67924115D01*
X158838924Y-67932601D01*
X158870385Y-68009692D01*
X159062756Y-68009692D01*
X159046225Y-67988907D01*
X158991459Y-67907693D01*
X158848218Y-67728773D01*
X158726499Y-67648350D01*
X158639665Y-67672977D01*
X158614651Y-67722875D01*
X158577634Y-67890803D01*
X158555273Y-68082816D01*
X158549459Y-68258525D01*
X158562081Y-68377543D01*
X158582708Y-68405500D01*
X158659734Y-68355002D01*
X158681653Y-68315159D01*
X158778700Y-68205658D01*
X158917646Y-68183428D01*
X159002179Y-68223240D01*
X159131168Y-68260040D01*
X159274776Y-68214351D01*
X159380863Y-68111723D01*
X159405000Y-68025861D01*
X159431340Y-67921939D01*
X159468500Y-67897500D01*
X159524836Y-67948932D01*
X159532000Y-67992750D01*
X159582830Y-68076936D01*
X159627250Y-68088000D01*
X159691093Y-68081636D01*
X159714751Y-68044566D01*
X159697197Y-67949821D01*
X159637406Y-67770433D01*
X159612490Y-67700053D01*
X159602540Y-67675250D01*
X159405000Y-67675250D01*
X159372781Y-67754280D01*
X159336738Y-67758329D01*
X159271132Y-67692772D01*
X159268475Y-67675250D01*
X159317912Y-67600794D01*
X159336738Y-67592170D01*
X159394640Y-67622823D01*
X159405000Y-67675250D01*
X159602540Y-67675250D01*
X159539267Y-67517540D01*
X159475537Y-67433401D01*
X159399547Y-67422916D01*
X159374365Y-67429427D01*
X159374365Y-67429427D01*
G37*
X159374365Y-67429427D02*
X159194527Y-67521869D01*
X159096614Y-67647762D01*
X159092052Y-67778709D01*
X159190843Y-67885522D01*
X159259099Y-67961853D01*
X159230239Y-68057621D01*
X159184607Y-68113511D01*
X159130939Y-68095422D01*
X159062756Y-68009692D01*
X158870385Y-68009692D01*
X158861899Y-68029923D01*
X158784808Y-68061384D01*
X158764577Y-68052898D01*
X158733116Y-67975807D01*
X158741602Y-67955576D01*
X158818693Y-67924115D01*
X158838924Y-67932601D01*
X158870385Y-68009692D01*
X159062756Y-68009692D01*
X159046225Y-67988907D01*
X158991459Y-67907693D01*
X158848218Y-67728773D01*
X158726499Y-67648350D01*
X158639665Y-67672977D01*
X158614651Y-67722875D01*
X158577634Y-67890803D01*
X158555273Y-68082816D01*
X158549459Y-68258525D01*
X158562081Y-68377543D01*
X158582708Y-68405500D01*
X158659734Y-68355002D01*
X158681653Y-68315159D01*
X158778700Y-68205658D01*
X158917646Y-68183428D01*
X159002179Y-68223240D01*
X159131168Y-68260040D01*
X159274776Y-68214351D01*
X159380863Y-68111723D01*
X159405000Y-68025861D01*
X159431340Y-67921939D01*
X159468500Y-67897500D01*
X159524836Y-67948932D01*
X159532000Y-67992750D01*
X159582830Y-68076936D01*
X159627250Y-68088000D01*
X159691093Y-68081636D01*
X159714751Y-68044566D01*
X159697197Y-67949821D01*
X159637406Y-67770433D01*
X159612490Y-67700053D01*
X159602540Y-67675250D01*
X159405000Y-67675250D01*
X159372781Y-67754280D01*
X159336738Y-67758329D01*
X159271132Y-67692772D01*
X159268475Y-67675250D01*
X159317912Y-67600794D01*
X159336738Y-67592170D01*
X159394640Y-67622823D01*
X159405000Y-67675250D01*
X159602540Y-67675250D01*
X159539267Y-67517540D01*
X159475537Y-67433401D01*
X159399547Y-67422916D01*
X159374365Y-67429427D01*
G36*
X156852017Y-67800587D02*
X156823528Y-67915495D01*
X156813178Y-68073857D01*
X156822862Y-68234307D01*
X156854477Y-68355480D01*
X156868895Y-68378442D01*
X156999566Y-68454363D01*
X157163299Y-68459765D01*
X157293035Y-68392891D01*
X157295804Y-68389625D01*
X157350140Y-68269246D01*
X157379299Y-68100950D01*
X157380969Y-67932949D01*
X157352842Y-67813453D01*
X157324714Y-67786154D01*
X157264722Y-67819010D01*
X157246000Y-67950514D01*
X157233464Y-68123542D01*
X157207457Y-68241556D01*
X157135212Y-68323424D01*
X157043529Y-68336335D01*
X156988087Y-68274978D01*
X156986530Y-68262625D01*
X156979241Y-68144323D01*
X156970655Y-67992750D01*
X156944144Y-67847361D01*
X156896750Y-67770500D01*
X156852017Y-67800587D01*
X156852017Y-67800587D01*
G37*
X156852017Y-67800587D02*
X156823528Y-67915495D01*
X156813178Y-68073857D01*
X156822862Y-68234307D01*
X156854477Y-68355480D01*
X156868895Y-68378442D01*
X156999566Y-68454363D01*
X157163299Y-68459765D01*
X157293035Y-68392891D01*
X157295804Y-68389625D01*
X157350140Y-68269246D01*
X157379299Y-68100950D01*
X157380969Y-67932949D01*
X157352842Y-67813453D01*
X157324714Y-67786154D01*
X157264722Y-67819010D01*
X157246000Y-67950514D01*
X157233464Y-68123542D01*
X157207457Y-68241556D01*
X157135212Y-68323424D01*
X157043529Y-68336335D01*
X156988087Y-68274978D01*
X156986530Y-68262625D01*
X156979241Y-68144323D01*
X156970655Y-67992750D01*
X156944144Y-67847361D01*
X156896750Y-67770500D01*
X156852017Y-67800587D01*
G36*
X157998266Y-67784348D02*
X157925262Y-67961097D01*
X157866251Y-68183250D01*
X157766855Y-67976875D01*
X157668888Y-67828198D01*
X157577678Y-67775784D01*
X157515083Y-67824186D01*
X157500000Y-67921312D01*
X157487172Y-68096236D01*
X157460313Y-68270562D01*
X157445902Y-68411217D01*
X157487247Y-68464851D01*
X157523813Y-68469000D01*
X157602352Y-68423626D01*
X157631758Y-68275960D01*
X157632180Y-68262625D01*
X157637360Y-68056250D01*
X157727613Y-68262625D01*
X157803160Y-68399667D01*
X157871140Y-68467443D01*
X157879367Y-68469000D01*
X157935537Y-68414374D01*
X157990856Y-68281016D01*
X157996014Y-68262625D01*
X158051159Y-68056250D01*
X158098125Y-68262625D01*
X158151622Y-68411504D01*
X158210004Y-68465409D01*
X158252324Y-68416187D01*
X158261302Y-68326125D01*
X158250404Y-68166910D01*
X158224683Y-67966555D01*
X158220762Y-67942161D01*
X158164640Y-67771238D01*
X158084484Y-67719018D01*
X157998266Y-67784348D01*
X157998266Y-67784348D01*
G37*
X157998266Y-67784348D02*
X157925262Y-67961097D01*
X157866251Y-68183250D01*
X157766855Y-67976875D01*
X157668888Y-67828198D01*
X157577678Y-67775784D01*
X157515083Y-67824186D01*
X157500000Y-67921312D01*
X157487172Y-68096236D01*
X157460313Y-68270562D01*
X157445902Y-68411217D01*
X157487247Y-68464851D01*
X157523813Y-68469000D01*
X157602352Y-68423626D01*
X157631758Y-68275960D01*
X157632180Y-68262625D01*
X157637360Y-68056250D01*
X157727613Y-68262625D01*
X157803160Y-68399667D01*
X157871140Y-68467443D01*
X157879367Y-68469000D01*
X157935537Y-68414374D01*
X157990856Y-68281016D01*
X157996014Y-68262625D01*
X158051159Y-68056250D01*
X158098125Y-68262625D01*
X158151622Y-68411504D01*
X158210004Y-68465409D01*
X158252324Y-68416187D01*
X158261302Y-68326125D01*
X158250404Y-68166910D01*
X158224683Y-67966555D01*
X158220762Y-67942161D01*
X158164640Y-67771238D01*
X158084484Y-67719018D01*
X157998266Y-67784348D01*
D14*
X148400000Y-90700000D02*
X148400000Y-90700000D01*
X148400000Y-90700000D02*
X148400000Y-90700000D01*
X148400000Y-90700000D02*
X148400000Y-90700000D01*
X132166666Y-62233333D02*
X132166666Y-62709523D01*
X132452380Y-62138095D02*
X131452380Y-62471428D01*
X132452380Y-62804761D01*
X131928571Y-63138095D02*
X131928571Y-63471428D01*
X132452380Y-63614285D02*
X132452380Y-63138095D01*
X131452380Y-63138095D01*
X131452380Y-63614285D01*
X132452380Y-64566666D02*
X132452380Y-63995238D01*
X132452380Y-64280952D02*
X131452380Y-64280952D01*
X131595238Y-64185714D01*
X131690476Y-64090476D01*
X131738095Y-63995238D01*
M02*
