G04 #@! TF.GenerationSoftware,KiCad,Pcbnew,(2017-06-12 revision 19d5cc754)-master*
G04 #@! TF.CreationDate,2018-05-14T22:42:30+02:00*
G04 #@! TF.ProjectId,RFID_MLX90109,524649445F4D4C5839303130392E6B69,rev?*
G04 #@! TF.FileFunction,Profile,NP*
%FSLAX46Y46*%
G04 Gerber Fmt 4.6, Leading zero omitted, Abs format (unit mm)*
G04 Created by KiCad (PCBNEW (2017-06-12 revision 19d5cc754)-master) date 2018 May 14, Monday 22:42:30*
%MOMM*%
%LPD*%
G01*
G04 APERTURE LIST*
%ADD10C,0.100000*%
%ADD11C,0.150000*%
%ADD12C,0.200000*%
G04 APERTURE END LIST*
D10*
D11*
X184000000Y-36000000D02*
X184000000Y-36000000D01*
X172000000Y-36000000D02*
X184000000Y-36000000D01*
X130000000Y-36000000D02*
X130000000Y-36000000D01*
X143000000Y-36000000D02*
X130000000Y-36000000D01*
X145000000Y-34000000D02*
X143000000Y-36000000D01*
X145000000Y-28000000D02*
X145000000Y-34000000D01*
X170000000Y-28000000D02*
X145000000Y-28000000D01*
X170000000Y-34000000D02*
X170000000Y-28000000D01*
X172000000Y-36000000D02*
X170000000Y-34000000D01*
X145000000Y-95000000D02*
X145000000Y-95000000D01*
X145000000Y-119000000D02*
X145000000Y-95000000D01*
X170000000Y-119000000D02*
X145000000Y-119000000D01*
X170000000Y-95000000D02*
X170000000Y-119000000D01*
X184000000Y-36000000D02*
X184000000Y-36000000D01*
X153000000Y-28000000D02*
X161000000Y-28000000D01*
X184000000Y-36000000D02*
X184000000Y-36000000D01*
X184000000Y-81000000D02*
X184000000Y-36000000D01*
X170000000Y-95000000D02*
X184000000Y-81000000D01*
X151000000Y-119000000D02*
X164000000Y-119000000D01*
X130000000Y-80000000D02*
X145000000Y-95000000D01*
X130000000Y-36000000D02*
X130000000Y-80000000D01*
D12*
X132000000Y-36000000D02*
X132000000Y-36000000D01*
X130000000Y-36000000D02*
X132000000Y-36000000D01*
D11*
X133604000Y-130556000D02*
X133604000Y-130556000D01*
M02*
