G04 #@! TF.GenerationSoftware,KiCad,Pcbnew,(2017-06-12 revision 19d5cc754)-master*
G04 #@! TF.CreationDate,2018-05-14T22:42:30+02:00*
G04 #@! TF.ProjectId,RFID_MLX90109,524649445F4D4C5839303130392E6B69,rev?*
G04 #@! TF.FileFunction,Legend,Top*
G04 #@! TF.FilePolarity,Positive*
%FSLAX46Y46*%
G04 Gerber Fmt 4.6, Leading zero omitted, Abs format (unit mm)*
G04 Created by KiCad (PCBNEW (2017-06-12 revision 19d5cc754)-master) date 2018 May 14, Monday 22:42:30*
%MOMM*%
%LPD*%
G01*
G04 APERTURE LIST*
%ADD10C,0.100000*%
%ADD11C,0.150000*%
%ADD12C,0.120000*%
%ADD13C,0.101600*%
G04 APERTURE END LIST*
D10*
D11*
X157850000Y-98100000D02*
X157150000Y-98100000D01*
X157150000Y-96900000D02*
X157850000Y-96900000D01*
X158100000Y-107150000D02*
X158100000Y-107850000D01*
X156900000Y-107850000D02*
X156900000Y-107150000D01*
X157150000Y-94400000D02*
X157850000Y-94400000D01*
X157850000Y-95600000D02*
X157150000Y-95600000D01*
X157150000Y-91900000D02*
X157850000Y-91900000D01*
X157850000Y-93100000D02*
X157150000Y-93100000D01*
X159325000Y-108000000D02*
X159325000Y-107000000D01*
X160675000Y-107000000D02*
X160675000Y-108000000D01*
X163175000Y-107000000D02*
X163175000Y-108000000D01*
X161825000Y-108000000D02*
X161825000Y-107000000D01*
X161825000Y-103000000D02*
X161825000Y-102000000D01*
X163175000Y-102000000D02*
X163175000Y-103000000D01*
X154325000Y-108000000D02*
X154325000Y-107000000D01*
X155675000Y-107000000D02*
X155675000Y-108000000D01*
X151825000Y-103000000D02*
X151825000Y-102000000D01*
X153175000Y-102000000D02*
X153175000Y-103000000D01*
X151825000Y-108000000D02*
X151825000Y-107000000D01*
X153175000Y-107000000D02*
X153175000Y-108000000D01*
X166000000Y-90700000D02*
X166000000Y-90700000D01*
X166000000Y-90700000D02*
X166000000Y-90700000D01*
X166000000Y-90700000D02*
X166000000Y-90700000D01*
D12*
X157260000Y-113080000D02*
X155800000Y-113080000D01*
X157260000Y-109920000D02*
X154100000Y-109920000D01*
X157260000Y-109920000D02*
X157260000Y-110850000D01*
X157260000Y-113080000D02*
X157260000Y-112150000D01*
D11*
X163600000Y-117100000D02*
X163600000Y-113250000D01*
X163600000Y-113250000D02*
X151400000Y-113250000D01*
X151400000Y-113250000D02*
X151400000Y-117100000D01*
X151400000Y-117100000D02*
X163600000Y-117100000D01*
X161500000Y-117500000D02*
X161800000Y-118100000D01*
X161800000Y-118100000D02*
X161200000Y-118100000D01*
X161200000Y-118100000D02*
X161500000Y-117500000D01*
X163600000Y-114700000D02*
X163200000Y-114700000D01*
X151400000Y-114700000D02*
X151800000Y-114700000D01*
X157500000Y-116700000D02*
X163200000Y-116700000D01*
X163200000Y-116700000D02*
X163200000Y-115500000D01*
X163200000Y-115500000D02*
X162800000Y-115500000D01*
X162800000Y-115500000D02*
X162800000Y-115100000D01*
X162800000Y-115100000D02*
X163200000Y-115100000D01*
X163200000Y-115100000D02*
X163200000Y-113250000D01*
X157500000Y-116700000D02*
X151800000Y-116700000D01*
X151800000Y-116700000D02*
X151800000Y-115500000D01*
X151800000Y-115500000D02*
X152200000Y-115500000D01*
X152200000Y-115500000D02*
X152200000Y-115100000D01*
X152200000Y-115100000D02*
X151800000Y-115100000D01*
X151800000Y-115100000D02*
X151800000Y-113250000D01*
X160583333Y-97857142D02*
X160535714Y-97904761D01*
X160392857Y-97952380D01*
X160297619Y-97952380D01*
X160154761Y-97904761D01*
X160059523Y-97809523D01*
X160011904Y-97714285D01*
X159964285Y-97523809D01*
X159964285Y-97380952D01*
X160011904Y-97190476D01*
X160059523Y-97095238D01*
X160154761Y-97000000D01*
X160297619Y-96952380D01*
X160392857Y-96952380D01*
X160535714Y-97000000D01*
X160583333Y-97047619D01*
X160916666Y-96952380D02*
X161535714Y-96952380D01*
X161202380Y-97333333D01*
X161345238Y-97333333D01*
X161440476Y-97380952D01*
X161488095Y-97428571D01*
X161535714Y-97523809D01*
X161535714Y-97761904D01*
X161488095Y-97857142D01*
X161440476Y-97904761D01*
X161345238Y-97952380D01*
X161059523Y-97952380D01*
X160964285Y-97904761D01*
X160916666Y-97857142D01*
X164607142Y-107416666D02*
X164654761Y-107464285D01*
X164702380Y-107607142D01*
X164702380Y-107702380D01*
X164654761Y-107845238D01*
X164559523Y-107940476D01*
X164464285Y-107988095D01*
X164273809Y-108035714D01*
X164130952Y-108035714D01*
X163940476Y-107988095D01*
X163845238Y-107940476D01*
X163750000Y-107845238D01*
X163702380Y-107702380D01*
X163702380Y-107607142D01*
X163750000Y-107464285D01*
X163797619Y-107416666D01*
X164702380Y-106464285D02*
X164702380Y-107035714D01*
X164702380Y-106750000D02*
X163702380Y-106750000D01*
X163845238Y-106845238D01*
X163940476Y-106940476D01*
X163988095Y-107035714D01*
X160583333Y-95357142D02*
X160535714Y-95404761D01*
X160392857Y-95452380D01*
X160297619Y-95452380D01*
X160154761Y-95404761D01*
X160059523Y-95309523D01*
X160011904Y-95214285D01*
X159964285Y-95023809D01*
X159964285Y-94880952D01*
X160011904Y-94690476D01*
X160059523Y-94595238D01*
X160154761Y-94500000D01*
X160297619Y-94452380D01*
X160392857Y-94452380D01*
X160535714Y-94500000D01*
X160583333Y-94547619D01*
X161440476Y-94785714D02*
X161440476Y-95452380D01*
X161202380Y-94404761D02*
X160964285Y-95119047D01*
X161583333Y-95119047D01*
X160583333Y-93107142D02*
X160535714Y-93154761D01*
X160392857Y-93202380D01*
X160297619Y-93202380D01*
X160154761Y-93154761D01*
X160059523Y-93059523D01*
X160011904Y-92964285D01*
X159964285Y-92773809D01*
X159964285Y-92630952D01*
X160011904Y-92440476D01*
X160059523Y-92345238D01*
X160154761Y-92250000D01*
X160297619Y-92202380D01*
X160392857Y-92202380D01*
X160535714Y-92250000D01*
X160583333Y-92297619D01*
X160964285Y-92297619D02*
X161011904Y-92250000D01*
X161107142Y-92202380D01*
X161345238Y-92202380D01*
X161440476Y-92250000D01*
X161488095Y-92297619D01*
X161535714Y-92392857D01*
X161535714Y-92488095D01*
X161488095Y-92630952D01*
X160916666Y-93202380D01*
X161535714Y-93202380D01*
X166202380Y-107416666D02*
X165726190Y-107750000D01*
X166202380Y-107988095D02*
X165202380Y-107988095D01*
X165202380Y-107607142D01*
X165250000Y-107511904D01*
X165297619Y-107464285D01*
X165392857Y-107416666D01*
X165535714Y-107416666D01*
X165630952Y-107464285D01*
X165678571Y-107511904D01*
X165726190Y-107607142D01*
X165726190Y-107988095D01*
X165535714Y-106559523D02*
X166202380Y-106559523D01*
X165154761Y-106797619D02*
X165869047Y-107035714D01*
X165869047Y-106416666D01*
X167702380Y-107416666D02*
X167226190Y-107750000D01*
X167702380Y-107988095D02*
X166702380Y-107988095D01*
X166702380Y-107607142D01*
X166750000Y-107511904D01*
X166797619Y-107464285D01*
X166892857Y-107416666D01*
X167035714Y-107416666D01*
X167130952Y-107464285D01*
X167178571Y-107511904D01*
X167226190Y-107607142D01*
X167226190Y-107988095D01*
X166702380Y-106511904D02*
X166702380Y-106988095D01*
X167178571Y-107035714D01*
X167130952Y-106988095D01*
X167083333Y-106892857D01*
X167083333Y-106654761D01*
X167130952Y-106559523D01*
X167178571Y-106511904D01*
X167273809Y-106464285D01*
X167511904Y-106464285D01*
X167607142Y-106511904D01*
X167654761Y-106559523D01*
X167702380Y-106654761D01*
X167702380Y-106892857D01*
X167654761Y-106988095D01*
X167607142Y-107035714D01*
X164702380Y-102666666D02*
X164226190Y-103000000D01*
X164702380Y-103238095D02*
X163702380Y-103238095D01*
X163702380Y-102857142D01*
X163750000Y-102761904D01*
X163797619Y-102714285D01*
X163892857Y-102666666D01*
X164035714Y-102666666D01*
X164130952Y-102714285D01*
X164178571Y-102761904D01*
X164226190Y-102857142D01*
X164226190Y-103238095D01*
X163702380Y-101809523D02*
X163702380Y-102000000D01*
X163750000Y-102095238D01*
X163797619Y-102142857D01*
X163940476Y-102238095D01*
X164130952Y-102285714D01*
X164511904Y-102285714D01*
X164607142Y-102238095D01*
X164654761Y-102190476D01*
X164702380Y-102095238D01*
X164702380Y-101904761D01*
X164654761Y-101809523D01*
X164607142Y-101761904D01*
X164511904Y-101714285D01*
X164273809Y-101714285D01*
X164178571Y-101761904D01*
X164130952Y-101809523D01*
X164083333Y-101904761D01*
X164083333Y-102095238D01*
X164130952Y-102190476D01*
X164178571Y-102238095D01*
X164273809Y-102285714D01*
X151202380Y-107416666D02*
X150726190Y-107750000D01*
X151202380Y-107988095D02*
X150202380Y-107988095D01*
X150202380Y-107607142D01*
X150250000Y-107511904D01*
X150297619Y-107464285D01*
X150392857Y-107416666D01*
X150535714Y-107416666D01*
X150630952Y-107464285D01*
X150678571Y-107511904D01*
X150726190Y-107607142D01*
X150726190Y-107988095D01*
X150202380Y-107083333D02*
X150202380Y-106464285D01*
X150583333Y-106797619D01*
X150583333Y-106654761D01*
X150630952Y-106559523D01*
X150678571Y-106511904D01*
X150773809Y-106464285D01*
X151011904Y-106464285D01*
X151107142Y-106511904D01*
X151154761Y-106559523D01*
X151202380Y-106654761D01*
X151202380Y-106940476D01*
X151154761Y-107035714D01*
X151107142Y-107083333D01*
X151052380Y-102666666D02*
X150576190Y-103000000D01*
X151052380Y-103238095D02*
X150052380Y-103238095D01*
X150052380Y-102857142D01*
X150100000Y-102761904D01*
X150147619Y-102714285D01*
X150242857Y-102666666D01*
X150385714Y-102666666D01*
X150480952Y-102714285D01*
X150528571Y-102761904D01*
X150576190Y-102857142D01*
X150576190Y-103238095D01*
X151052380Y-101714285D02*
X151052380Y-102285714D01*
X151052380Y-102000000D02*
X150052380Y-102000000D01*
X150195238Y-102095238D01*
X150290476Y-102190476D01*
X150338095Y-102285714D01*
X149452380Y-107416666D02*
X148976190Y-107750000D01*
X149452380Y-107988095D02*
X148452380Y-107988095D01*
X148452380Y-107607142D01*
X148500000Y-107511904D01*
X148547619Y-107464285D01*
X148642857Y-107416666D01*
X148785714Y-107416666D01*
X148880952Y-107464285D01*
X148928571Y-107511904D01*
X148976190Y-107607142D01*
X148976190Y-107988095D01*
X148547619Y-107035714D02*
X148500000Y-106988095D01*
X148452380Y-106892857D01*
X148452380Y-106654761D01*
X148500000Y-106559523D01*
X148547619Y-106511904D01*
X148642857Y-106464285D01*
X148738095Y-106464285D01*
X148880952Y-106511904D01*
X149452380Y-107083333D01*
X149452380Y-106464285D01*
X160404761Y-112047619D02*
X160309523Y-112000000D01*
X160214285Y-111904761D01*
X160071428Y-111761904D01*
X159976190Y-111714285D01*
X159880952Y-111714285D01*
X159928571Y-111952380D02*
X159833333Y-111904761D01*
X159738095Y-111809523D01*
X159690476Y-111619047D01*
X159690476Y-111285714D01*
X159738095Y-111095238D01*
X159833333Y-111000000D01*
X159928571Y-110952380D01*
X160119047Y-110952380D01*
X160214285Y-111000000D01*
X160309523Y-111095238D01*
X160357142Y-111285714D01*
X160357142Y-111619047D01*
X160309523Y-111809523D01*
X160214285Y-111904761D01*
X160119047Y-111952380D01*
X159928571Y-111952380D01*
X161309523Y-111952380D02*
X160738095Y-111952380D01*
X161023809Y-111952380D02*
X161023809Y-110952380D01*
X160928571Y-111095238D01*
X160833333Y-111190476D01*
X160738095Y-111238095D01*
X164666666Y-114952380D02*
X164666666Y-115666666D01*
X164619047Y-115809523D01*
X164523809Y-115904761D01*
X164380952Y-115952380D01*
X164285714Y-115952380D01*
X165666666Y-115952380D02*
X165095238Y-115952380D01*
X165380952Y-115952380D02*
X165380952Y-114952380D01*
X165285714Y-115095238D01*
X165190476Y-115190476D01*
X165095238Y-115238095D01*
D13*
X151853301Y-98486047D02*
X151853301Y-99462738D01*
X151910754Y-99577642D01*
X151968206Y-99635095D01*
X152083111Y-99692547D01*
X152312920Y-99692547D01*
X152427825Y-99635095D01*
X152485278Y-99577642D01*
X152542730Y-99462738D01*
X152542730Y-98486047D01*
X153749230Y-99692547D02*
X153059801Y-99692547D01*
X153404516Y-99692547D02*
X153404516Y-98486047D01*
X153289611Y-98658404D01*
X153174706Y-98773309D01*
X153059801Y-98830761D01*
M02*
