%TF.GenerationSoftware,KiCad,Pcbnew,4.0.7*%
%TF.CreationDate,2018-10-20T21:32:18+02:00*%
%TF.ProjectId,RFID_board_PANNEL,524649445F626F6172645F50414E4E45,rev?*%
%TF.FileFunction,Paste,Top*%
%FSLAX46Y46*%
G04 Gerber Fmt 4.6, Leading zero omitted, Abs format (unit mm)*
G04 Created by KiCad (PCBNEW 4.0.7) date 2018 October 20, Saturday 21:32:18*
%MOMM*%
%LPD*%
G01*
G04 APERTURE LIST*
%ADD10C,0.100000*%
%ADD11R,0.750000X0.800000*%
%ADD12R,0.900000X0.500000*%
%ADD13R,0.800000X0.750000*%
%ADD14R,1.000000X1.250000*%
%ADD15R,0.600000X1.500000*%
%ADD16R,1.250000X1.000000*%
G04 APERTURE END LIST*
D10*
D11*
X235000000Y-72250000D03*
X235000000Y-73750000D03*
X237000000Y-73750000D03*
X237000000Y-72250000D03*
D12*
X231000000Y-73750000D03*
X231000000Y-72250000D03*
D11*
X229000000Y-73750000D03*
X229000000Y-72250000D03*
D13*
X225750000Y-72000000D03*
X227250000Y-72000000D03*
X228250000Y-86500000D03*
X226750000Y-86500000D03*
D14*
X222000000Y-97500000D03*
X224000000Y-97500000D03*
D13*
X225750000Y-102500000D03*
X227250000Y-102500000D03*
X222250000Y-99500000D03*
X223750000Y-99500000D03*
D15*
X235445000Y-94700000D03*
X234175000Y-94700000D03*
X232905000Y-94700000D03*
X231635000Y-94700000D03*
X230365000Y-94700000D03*
X229095000Y-94700000D03*
X227825000Y-94700000D03*
X226555000Y-94700000D03*
X226555000Y-100100000D03*
X227825000Y-100100000D03*
X229095000Y-100100000D03*
X230365000Y-100100000D03*
X231635000Y-100100000D03*
X232905000Y-100100000D03*
X234175000Y-100100000D03*
X235445000Y-100100000D03*
D11*
X229000000Y-104250000D03*
X229000000Y-102750000D03*
D14*
X232500000Y-90300000D03*
X230500000Y-90300000D03*
D11*
X224000000Y-94250000D03*
X224000000Y-92750000D03*
D14*
X226500000Y-88500000D03*
X228500000Y-88500000D03*
D13*
X232250000Y-92000000D03*
X230750000Y-92000000D03*
D16*
X224000000Y-90500000D03*
X224000000Y-88500000D03*
D14*
X228500000Y-90500000D03*
X226500000Y-90500000D03*
D11*
X235000000Y-102750000D03*
X235000000Y-104250000D03*
X237000000Y-104250000D03*
X237000000Y-102750000D03*
D12*
X231000000Y-104250000D03*
X231000000Y-102750000D03*
D15*
X235445000Y-64200000D03*
X234175000Y-64200000D03*
X232905000Y-64200000D03*
X231635000Y-64200000D03*
X230365000Y-64200000D03*
X229095000Y-64200000D03*
X227825000Y-64200000D03*
X226555000Y-64200000D03*
X226555000Y-69600000D03*
X227825000Y-69600000D03*
X229095000Y-69600000D03*
X230365000Y-69600000D03*
X231635000Y-69600000D03*
X232905000Y-69600000D03*
X234175000Y-69600000D03*
X235445000Y-69600000D03*
D14*
X222000000Y-67000000D03*
X224000000Y-67000000D03*
D13*
X222250000Y-69000000D03*
X223750000Y-69000000D03*
D11*
X224000000Y-63750000D03*
X224000000Y-62250000D03*
D13*
X228250000Y-56000000D03*
X226750000Y-56000000D03*
D14*
X228500000Y-60000000D03*
X226500000Y-60000000D03*
D16*
X224000000Y-60000000D03*
X224000000Y-58000000D03*
D14*
X226500000Y-58000000D03*
X228500000Y-58000000D03*
X232500000Y-59800000D03*
X230500000Y-59800000D03*
D13*
X232250000Y-61500000D03*
X230750000Y-61500000D03*
D11*
X229000000Y-43250000D03*
X229000000Y-41750000D03*
D12*
X231000000Y-43250000D03*
X231000000Y-41750000D03*
D11*
X237000000Y-43250000D03*
X237000000Y-41750000D03*
D13*
X225750000Y-41500000D03*
X227250000Y-41500000D03*
D11*
X235000000Y-41750000D03*
X235000000Y-43250000D03*
D14*
X232500000Y-29300000D03*
X230500000Y-29300000D03*
D15*
X235445000Y-33700000D03*
X234175000Y-33700000D03*
X232905000Y-33700000D03*
X231635000Y-33700000D03*
X230365000Y-33700000D03*
X229095000Y-33700000D03*
X227825000Y-33700000D03*
X226555000Y-33700000D03*
X226555000Y-39100000D03*
X227825000Y-39100000D03*
X229095000Y-39100000D03*
X230365000Y-39100000D03*
X231635000Y-39100000D03*
X232905000Y-39100000D03*
X234175000Y-39100000D03*
X235445000Y-39100000D03*
D13*
X222250000Y-38500000D03*
X223750000Y-38500000D03*
X232250000Y-31000000D03*
X230750000Y-31000000D03*
D11*
X224000000Y-33250000D03*
X224000000Y-31750000D03*
D14*
X222000000Y-36500000D03*
X224000000Y-36500000D03*
X228500000Y-29500000D03*
X226500000Y-29500000D03*
D13*
X228250000Y-25500000D03*
X226750000Y-25500000D03*
D16*
X224000000Y-29500000D03*
X224000000Y-27500000D03*
D14*
X226500000Y-27500000D03*
X228500000Y-27500000D03*
D11*
X213000000Y-72250000D03*
X213000000Y-73750000D03*
X215000000Y-73750000D03*
X215000000Y-72250000D03*
D12*
X209000000Y-73750000D03*
X209000000Y-72250000D03*
D11*
X207000000Y-73750000D03*
X207000000Y-72250000D03*
D13*
X203750000Y-72000000D03*
X205250000Y-72000000D03*
X206250000Y-86500000D03*
X204750000Y-86500000D03*
D14*
X200000000Y-97500000D03*
X202000000Y-97500000D03*
D13*
X203750000Y-102500000D03*
X205250000Y-102500000D03*
X200250000Y-99500000D03*
X201750000Y-99500000D03*
D15*
X213445000Y-94700000D03*
X212175000Y-94700000D03*
X210905000Y-94700000D03*
X209635000Y-94700000D03*
X208365000Y-94700000D03*
X207095000Y-94700000D03*
X205825000Y-94700000D03*
X204555000Y-94700000D03*
X204555000Y-100100000D03*
X205825000Y-100100000D03*
X207095000Y-100100000D03*
X208365000Y-100100000D03*
X209635000Y-100100000D03*
X210905000Y-100100000D03*
X212175000Y-100100000D03*
X213445000Y-100100000D03*
D11*
X207000000Y-104250000D03*
X207000000Y-102750000D03*
D14*
X210500000Y-90300000D03*
X208500000Y-90300000D03*
D11*
X202000000Y-94250000D03*
X202000000Y-92750000D03*
D14*
X204500000Y-88500000D03*
X206500000Y-88500000D03*
D13*
X210250000Y-92000000D03*
X208750000Y-92000000D03*
D16*
X202000000Y-90500000D03*
X202000000Y-88500000D03*
D14*
X206500000Y-90500000D03*
X204500000Y-90500000D03*
D11*
X213000000Y-102750000D03*
X213000000Y-104250000D03*
X215000000Y-104250000D03*
X215000000Y-102750000D03*
D12*
X209000000Y-104250000D03*
X209000000Y-102750000D03*
D15*
X213445000Y-64200000D03*
X212175000Y-64200000D03*
X210905000Y-64200000D03*
X209635000Y-64200000D03*
X208365000Y-64200000D03*
X207095000Y-64200000D03*
X205825000Y-64200000D03*
X204555000Y-64200000D03*
X204555000Y-69600000D03*
X205825000Y-69600000D03*
X207095000Y-69600000D03*
X208365000Y-69600000D03*
X209635000Y-69600000D03*
X210905000Y-69600000D03*
X212175000Y-69600000D03*
X213445000Y-69600000D03*
D14*
X200000000Y-67000000D03*
X202000000Y-67000000D03*
D13*
X200250000Y-69000000D03*
X201750000Y-69000000D03*
D11*
X202000000Y-63750000D03*
X202000000Y-62250000D03*
D13*
X206250000Y-56000000D03*
X204750000Y-56000000D03*
D14*
X206500000Y-60000000D03*
X204500000Y-60000000D03*
D16*
X202000000Y-60000000D03*
X202000000Y-58000000D03*
D14*
X204500000Y-58000000D03*
X206500000Y-58000000D03*
X210500000Y-59800000D03*
X208500000Y-59800000D03*
D13*
X210250000Y-61500000D03*
X208750000Y-61500000D03*
D11*
X207000000Y-43250000D03*
X207000000Y-41750000D03*
D12*
X209000000Y-43250000D03*
X209000000Y-41750000D03*
D11*
X215000000Y-43250000D03*
X215000000Y-41750000D03*
D13*
X203750000Y-41500000D03*
X205250000Y-41500000D03*
D11*
X213000000Y-41750000D03*
X213000000Y-43250000D03*
D14*
X210500000Y-29300000D03*
X208500000Y-29300000D03*
D15*
X213445000Y-33700000D03*
X212175000Y-33700000D03*
X210905000Y-33700000D03*
X209635000Y-33700000D03*
X208365000Y-33700000D03*
X207095000Y-33700000D03*
X205825000Y-33700000D03*
X204555000Y-33700000D03*
X204555000Y-39100000D03*
X205825000Y-39100000D03*
X207095000Y-39100000D03*
X208365000Y-39100000D03*
X209635000Y-39100000D03*
X210905000Y-39100000D03*
X212175000Y-39100000D03*
X213445000Y-39100000D03*
D13*
X200250000Y-38500000D03*
X201750000Y-38500000D03*
X210250000Y-31000000D03*
X208750000Y-31000000D03*
D11*
X202000000Y-33250000D03*
X202000000Y-31750000D03*
D14*
X200000000Y-36500000D03*
X202000000Y-36500000D03*
X206500000Y-29500000D03*
X204500000Y-29500000D03*
D13*
X206250000Y-25500000D03*
X204750000Y-25500000D03*
D16*
X202000000Y-29500000D03*
X202000000Y-27500000D03*
D14*
X204500000Y-27500000D03*
X206500000Y-27500000D03*
D11*
X185000000Y-43250000D03*
X185000000Y-41750000D03*
D13*
X181750000Y-41500000D03*
X183250000Y-41500000D03*
D11*
X191000000Y-41750000D03*
X191000000Y-43250000D03*
D12*
X187000000Y-43250000D03*
X187000000Y-41750000D03*
D11*
X193000000Y-43250000D03*
X193000000Y-41750000D03*
D14*
X184500000Y-29500000D03*
X182500000Y-29500000D03*
D16*
X180000000Y-29500000D03*
X180000000Y-27500000D03*
D14*
X178000000Y-36500000D03*
X180000000Y-36500000D03*
D13*
X178250000Y-38500000D03*
X179750000Y-38500000D03*
X188250000Y-31000000D03*
X186750000Y-31000000D03*
D14*
X188500000Y-29300000D03*
X186500000Y-29300000D03*
D11*
X180000000Y-33250000D03*
X180000000Y-31750000D03*
D15*
X191445000Y-33700000D03*
X190175000Y-33700000D03*
X188905000Y-33700000D03*
X187635000Y-33700000D03*
X186365000Y-33700000D03*
X185095000Y-33700000D03*
X183825000Y-33700000D03*
X182555000Y-33700000D03*
X182555000Y-39100000D03*
X183825000Y-39100000D03*
X185095000Y-39100000D03*
X186365000Y-39100000D03*
X187635000Y-39100000D03*
X188905000Y-39100000D03*
X190175000Y-39100000D03*
X191445000Y-39100000D03*
D13*
X184250000Y-56000000D03*
X182750000Y-56000000D03*
D14*
X184500000Y-60000000D03*
X182500000Y-60000000D03*
X182500000Y-58000000D03*
X184500000Y-58000000D03*
D16*
X180000000Y-60000000D03*
X180000000Y-58000000D03*
D11*
X180000000Y-63750000D03*
X180000000Y-62250000D03*
D14*
X178000000Y-67000000D03*
X180000000Y-67000000D03*
D15*
X191445000Y-64200000D03*
X190175000Y-64200000D03*
X188905000Y-64200000D03*
X187635000Y-64200000D03*
X186365000Y-64200000D03*
X185095000Y-64200000D03*
X183825000Y-64200000D03*
X182555000Y-64200000D03*
X182555000Y-69600000D03*
X183825000Y-69600000D03*
X185095000Y-69600000D03*
X186365000Y-69600000D03*
X187635000Y-69600000D03*
X188905000Y-69600000D03*
X190175000Y-69600000D03*
X191445000Y-69600000D03*
D13*
X178250000Y-69000000D03*
X179750000Y-69000000D03*
D11*
X191000000Y-72250000D03*
X191000000Y-73750000D03*
X193000000Y-73750000D03*
X193000000Y-72250000D03*
X185000000Y-73750000D03*
X185000000Y-72250000D03*
D13*
X181750000Y-72000000D03*
X183250000Y-72000000D03*
D12*
X187000000Y-73750000D03*
X187000000Y-72250000D03*
D13*
X188250000Y-61500000D03*
X186750000Y-61500000D03*
D14*
X188500000Y-59800000D03*
X186500000Y-59800000D03*
X182500000Y-27500000D03*
X184500000Y-27500000D03*
D13*
X184250000Y-25500000D03*
X182750000Y-25500000D03*
D11*
X180000000Y-94250000D03*
X180000000Y-92750000D03*
D16*
X180000000Y-90500000D03*
X180000000Y-88500000D03*
D13*
X178250000Y-99500000D03*
X179750000Y-99500000D03*
D14*
X178000000Y-97500000D03*
X180000000Y-97500000D03*
X188500000Y-90300000D03*
X186500000Y-90300000D03*
D13*
X181750000Y-102500000D03*
X183250000Y-102500000D03*
D11*
X185000000Y-104250000D03*
X185000000Y-102750000D03*
X193000000Y-104250000D03*
X193000000Y-102750000D03*
D15*
X191445000Y-94700000D03*
X190175000Y-94700000D03*
X188905000Y-94700000D03*
X187635000Y-94700000D03*
X186365000Y-94700000D03*
X185095000Y-94700000D03*
X183825000Y-94700000D03*
X182555000Y-94700000D03*
X182555000Y-100100000D03*
X183825000Y-100100000D03*
X185095000Y-100100000D03*
X186365000Y-100100000D03*
X187635000Y-100100000D03*
X188905000Y-100100000D03*
X190175000Y-100100000D03*
X191445000Y-100100000D03*
D12*
X187000000Y-104250000D03*
X187000000Y-102750000D03*
D11*
X191000000Y-102750000D03*
X191000000Y-104250000D03*
D13*
X188250000Y-92000000D03*
X186750000Y-92000000D03*
D14*
X184500000Y-90500000D03*
X182500000Y-90500000D03*
X182500000Y-88500000D03*
X184500000Y-88500000D03*
D13*
X184250000Y-86500000D03*
X182750000Y-86500000D03*
D14*
X156000000Y-36500000D03*
X158000000Y-36500000D03*
X166500000Y-29300000D03*
X164500000Y-29300000D03*
D13*
X166250000Y-31000000D03*
X164750000Y-31000000D03*
X162250000Y-25500000D03*
X160750000Y-25500000D03*
D12*
X165000000Y-43250000D03*
X165000000Y-41750000D03*
D14*
X162500000Y-29500000D03*
X160500000Y-29500000D03*
X160500000Y-27500000D03*
X162500000Y-27500000D03*
D11*
X158000000Y-33250000D03*
X158000000Y-31750000D03*
D16*
X158000000Y-29500000D03*
X158000000Y-27500000D03*
D13*
X159750000Y-41500000D03*
X161250000Y-41500000D03*
X156250000Y-38500000D03*
X157750000Y-38500000D03*
D15*
X169445000Y-33700000D03*
X168175000Y-33700000D03*
X166905000Y-33700000D03*
X165635000Y-33700000D03*
X164365000Y-33700000D03*
X163095000Y-33700000D03*
X161825000Y-33700000D03*
X160555000Y-33700000D03*
X160555000Y-39100000D03*
X161825000Y-39100000D03*
X163095000Y-39100000D03*
X164365000Y-39100000D03*
X165635000Y-39100000D03*
X166905000Y-39100000D03*
X168175000Y-39100000D03*
X169445000Y-39100000D03*
D11*
X163000000Y-43250000D03*
X163000000Y-41750000D03*
X169000000Y-41750000D03*
X169000000Y-43250000D03*
X171000000Y-43250000D03*
X171000000Y-41750000D03*
X171000000Y-104250000D03*
X171000000Y-102750000D03*
X169000000Y-102750000D03*
X169000000Y-104250000D03*
X163000000Y-104250000D03*
X163000000Y-102750000D03*
D15*
X169445000Y-94700000D03*
X168175000Y-94700000D03*
X166905000Y-94700000D03*
X165635000Y-94700000D03*
X164365000Y-94700000D03*
X163095000Y-94700000D03*
X161825000Y-94700000D03*
X160555000Y-94700000D03*
X160555000Y-100100000D03*
X161825000Y-100100000D03*
X163095000Y-100100000D03*
X164365000Y-100100000D03*
X165635000Y-100100000D03*
X166905000Y-100100000D03*
X168175000Y-100100000D03*
X169445000Y-100100000D03*
D13*
X156250000Y-99500000D03*
X157750000Y-99500000D03*
X159750000Y-102500000D03*
X161250000Y-102500000D03*
D16*
X158000000Y-90500000D03*
X158000000Y-88500000D03*
D11*
X158000000Y-94250000D03*
X158000000Y-92750000D03*
D14*
X160500000Y-88500000D03*
X162500000Y-88500000D03*
X162500000Y-90500000D03*
X160500000Y-90500000D03*
D12*
X165000000Y-104250000D03*
X165000000Y-102750000D03*
D13*
X162250000Y-86500000D03*
X160750000Y-86500000D03*
X166250000Y-92000000D03*
X164750000Y-92000000D03*
D14*
X166500000Y-90300000D03*
X164500000Y-90300000D03*
X156000000Y-97500000D03*
X158000000Y-97500000D03*
D11*
X171000000Y-73750000D03*
X171000000Y-72250000D03*
X169000000Y-72250000D03*
X169000000Y-73750000D03*
X163000000Y-73750000D03*
X163000000Y-72250000D03*
D15*
X169445000Y-64200000D03*
X168175000Y-64200000D03*
X166905000Y-64200000D03*
X165635000Y-64200000D03*
X164365000Y-64200000D03*
X163095000Y-64200000D03*
X161825000Y-64200000D03*
X160555000Y-64200000D03*
X160555000Y-69600000D03*
X161825000Y-69600000D03*
X163095000Y-69600000D03*
X164365000Y-69600000D03*
X165635000Y-69600000D03*
X166905000Y-69600000D03*
X168175000Y-69600000D03*
X169445000Y-69600000D03*
D13*
X156250000Y-69000000D03*
X157750000Y-69000000D03*
X159750000Y-72000000D03*
X161250000Y-72000000D03*
D16*
X158000000Y-60000000D03*
X158000000Y-58000000D03*
D11*
X158000000Y-63750000D03*
X158000000Y-62250000D03*
D14*
X160500000Y-58000000D03*
X162500000Y-58000000D03*
X162500000Y-60000000D03*
X160500000Y-60000000D03*
D12*
X165000000Y-73750000D03*
X165000000Y-72250000D03*
D13*
X162250000Y-56000000D03*
X160750000Y-56000000D03*
X166250000Y-61500000D03*
X164750000Y-61500000D03*
D14*
X166500000Y-59800000D03*
X164500000Y-59800000D03*
X156000000Y-67000000D03*
X158000000Y-67000000D03*
M02*
