M48
;DRILL file {KiCad 4.0.7} date 2018 October 20, Saturday 21:32:23
;FORMAT={-:-/ absolute / metric / decimal}
FMAT,2
METRIC,TZ
T1C0.400
T2C0.600
T3C1.000
T4C0.500
T5C2.200
%
G90
G05
M71
T1
X156.2Y-34.9
X156.2Y-40.3
X156.2Y-65.4
X156.2Y-70.8
X156.2Y-95.9
X156.2Y-101.3
X158.Y-34.5
X158.Y-65.
X158.Y-95.5
X163.Y-44.5
X163.Y-75.
X163.Y-105.5
X164.5Y-32.
X164.5Y-62.5
X164.5Y-93.
X165.Y-28.5
X165.Y-44.5
X165.Y-59.
X165.Y-75.
X165.Y-89.5
X165.Y-105.5
X166.Y-28.5
X166.Y-59.
X166.Y-89.5
X169.Y-44.5
X169.Y-75.
X169.Y-105.5
X171.Y-44.5
X171.Y-75.
X171.Y-105.5
X178.2Y-34.9
X178.2Y-40.3
X178.2Y-65.4
X178.2Y-70.8
X178.2Y-95.9
X178.2Y-101.3
X180.Y-34.5
X180.Y-65.
X180.Y-95.5
X185.Y-44.5
X185.Y-75.
X185.Y-105.5
X186.5Y-32.
X186.5Y-62.5
X186.5Y-93.
X187.Y-28.5
X187.Y-44.5
X187.Y-59.
X187.Y-75.
X187.Y-89.5
X187.Y-105.5
X188.Y-28.5
X188.Y-59.
X188.Y-89.5
X191.Y-44.5
X191.Y-75.
X191.Y-105.5
X193.Y-44.5
X193.Y-75.
X193.Y-105.5
X200.2Y-34.9
X200.2Y-40.3
X200.2Y-65.4
X200.2Y-70.8
X200.2Y-95.9
X200.2Y-101.3
X202.Y-34.5
X202.Y-65.
X202.Y-95.5
X207.Y-44.5
X207.Y-75.
X207.Y-105.5
X208.5Y-32.
X208.5Y-62.5
X208.5Y-93.
X209.Y-28.5
X209.Y-44.5
X209.Y-59.
X209.Y-75.
X209.Y-89.5
X209.Y-105.5
X210.Y-28.5
X210.Y-59.
X210.Y-89.5
X213.Y-44.5
X213.Y-75.
X213.Y-105.5
X215.Y-44.5
X215.Y-75.
X215.Y-105.5
X222.2Y-34.9
X222.2Y-40.3
X222.2Y-65.4
X222.2Y-70.8
X222.2Y-95.9
X222.2Y-101.3
X224.Y-34.5
X224.Y-65.
X224.Y-95.5
X229.Y-44.5
X229.Y-75.
X229.Y-105.5
X230.5Y-32.
X230.5Y-62.5
X230.5Y-93.
X231.Y-28.5
X231.Y-44.5
X231.Y-59.
X231.Y-75.
X231.Y-89.5
X231.Y-105.5
X232.Y-28.5
X232.Y-59.
X232.Y-89.5
X235.Y-44.5
X235.Y-75.
X235.Y-105.5
X237.Y-44.5
X237.Y-75.
X237.Y-105.5
T2
X167.5Y-36.5
X167.5Y-67.
X167.5Y-97.5
X189.5Y-36.5
X189.5Y-67.
X189.5Y-97.5
X211.5Y-36.5
X211.5Y-67.
X211.5Y-97.5
X233.5Y-36.5
X233.5Y-67.
X233.5Y-97.5
T3
X159.88Y-47.5
X159.88Y-78.
X159.88Y-108.5
X162.42Y-47.5
X162.42Y-78.
X162.42Y-108.5
X164.96Y-47.5
X164.96Y-78.
X164.96Y-108.5
X167.5Y-47.5
X167.5Y-78.
X167.5Y-108.5
X170.04Y-47.5
X170.04Y-78.
X170.04Y-108.5
X181.88Y-47.5
X181.88Y-78.
X181.88Y-108.5
X184.42Y-47.5
X184.42Y-78.
X184.42Y-108.5
X186.96Y-47.5
X186.96Y-78.
X186.96Y-108.5
X189.5Y-47.5
X189.5Y-78.
X189.5Y-108.5
X192.04Y-47.5
X192.04Y-78.
X192.04Y-108.5
X203.88Y-47.5
X203.88Y-78.
X203.88Y-108.5
X206.42Y-47.5
X206.42Y-78.
X206.42Y-108.5
X208.96Y-47.5
X208.96Y-78.
X208.96Y-108.5
X211.5Y-47.5
X211.5Y-78.
X211.5Y-108.5
X214.04Y-47.5
X214.04Y-78.
X214.04Y-108.5
X225.88Y-47.5
X225.88Y-78.
X225.88Y-108.5
X228.42Y-47.5
X228.42Y-78.
X228.42Y-108.5
X230.96Y-47.5
X230.96Y-78.
X230.96Y-108.5
X233.5Y-47.5
X233.5Y-78.
X233.5Y-108.5
X236.04Y-47.5
X236.04Y-78.
X236.04Y-108.5
T4
X149.75Y-20.25
X149.75Y-21.75
X149.75Y-111.75
X149.75Y-113.25
X150.5Y-20.25
X150.5Y-21.75
X150.5Y-111.75
X150.5Y-113.25
X151.25Y-20.25
X151.25Y-21.75
X151.25Y-111.75
X151.25Y-113.25
X163.25Y-20.25
X163.25Y-21.75
X163.25Y-50.75
X163.25Y-52.25
X163.25Y-81.25
X163.25Y-82.75
X163.25Y-111.75
X163.25Y-113.25
X164.Y-20.25
X164.Y-21.75
X164.Y-50.75
X164.Y-52.25
X164.Y-81.25
X164.Y-82.75
X164.Y-111.75
X164.Y-113.25
X164.75Y-20.25
X164.75Y-21.75
X164.75Y-50.75
X164.75Y-52.25
X164.75Y-81.25
X164.75Y-82.75
X164.75Y-111.75
X164.75Y-113.25
X185.25Y-20.25
X185.25Y-21.75
X185.25Y-50.75
X185.25Y-52.25
X185.25Y-81.25
X185.25Y-82.75
X185.25Y-111.75
X185.25Y-113.25
X186.Y-20.25
X186.Y-21.75
X186.Y-50.75
X186.Y-52.25
X186.Y-81.25
X186.Y-82.75
X186.Y-111.75
X186.Y-113.25
X186.75Y-20.25
X186.75Y-21.75
X186.75Y-50.75
X186.75Y-52.25
X186.75Y-81.25
X186.75Y-82.75
X186.75Y-111.75
X186.75Y-113.25
X207.25Y-20.25
X207.25Y-21.75
X207.25Y-50.75
X207.25Y-52.25
X207.25Y-81.25
X207.25Y-82.75
X207.25Y-111.75
X207.25Y-113.25
X208.Y-20.25
X208.Y-21.75
X208.Y-50.75
X208.Y-52.25
X208.Y-81.25
X208.Y-82.75
X208.Y-111.75
X208.Y-113.25
X208.75Y-20.25
X208.75Y-21.75
X208.75Y-50.75
X208.75Y-52.25
X208.75Y-81.25
X208.75Y-82.75
X208.75Y-111.75
X208.75Y-113.25
X229.25Y-20.25
X229.25Y-21.75
X229.25Y-50.75
X229.25Y-52.25
X229.25Y-81.25
X229.25Y-82.75
X229.25Y-111.75
X229.25Y-113.25
X230.Y-20.25
X230.Y-21.75
X230.Y-50.75
X230.Y-52.25
X230.Y-81.25
X230.Y-82.75
X230.Y-111.75
X230.Y-113.25
X230.75Y-20.25
X230.75Y-21.75
X230.75Y-50.75
X230.75Y-52.25
X230.75Y-81.25
X230.75Y-82.75
X230.75Y-111.75
X230.75Y-113.25
X242.75Y-20.25
X242.75Y-21.75
X242.75Y-111.75
X242.75Y-113.25
X243.5Y-20.25
X243.5Y-21.75
X243.5Y-111.75
X243.5Y-113.25
X244.25Y-20.25
X244.25Y-21.75
X244.25Y-111.75
X244.25Y-113.25
T5
X150.5Y-18.5
X150.5Y-115.
X243.5Y-18.5
X243.5Y-115.
T0
M30
