%TF.GenerationSoftware,KiCad,Pcbnew,4.0.7*%
%TF.CreationDate,2018-10-20T21:32:18+02:00*%
%TF.ProjectId,RFID_board_PANNEL,524649445F626F6172645F50414E4E45,rev?*%
%TF.FileFunction,Profile,NP*%
%FSLAX46Y46*%
G04 Gerber Fmt 4.6, Leading zero omitted, Abs format (unit mm)*
G04 Created by KiCad (PCBNEW 4.0.7) date 2018 October 20, Saturday 21:32:18*
%MOMM*%
%LPD*%
G01*
G04 APERTURE LIST*
%ADD10C,0.100000*%
%ADD11C,0.150000*%
G04 APERTURE END LIST*
D10*
D11*
X148500000Y-20000000D02*
X148500000Y-16500000D01*
X148500000Y-20000000D02*
G75*
G02X148500000Y-22000000I0J-1000000D01*
G01*
X152000000Y-21500000D02*
G75*
G02X152000000Y-20500000I0J500000D01*
G01*
X152000000Y-20500000D02*
X152000000Y-20000000D01*
X245500000Y-113500000D02*
G75*
G02X245500000Y-111500000I0J1000000D01*
G01*
X242000000Y-112000000D02*
G75*
G02X242000000Y-113000000I0J-500000D01*
G01*
X242000000Y-113000000D02*
X242000000Y-113500000D01*
X245500000Y-113500000D02*
X245500000Y-116500000D01*
X245500000Y-20000000D02*
G75*
G03X245500000Y-22000000I0J-1000000D01*
G01*
X245500000Y-20000000D02*
X245500000Y-16500000D01*
X242000000Y-21500000D02*
G75*
G03X242000000Y-20500000I0J500000D01*
G01*
X242000000Y-20500000D02*
X242000000Y-20000000D01*
X152000000Y-113000000D02*
X152000000Y-113500000D01*
X152000000Y-112000000D02*
G75*
G03X152000000Y-113000000I0J-500000D01*
G01*
X148500000Y-113500000D02*
X148500000Y-116500000D01*
X148500000Y-113500000D02*
G75*
G03X148500000Y-111500000I0J1000000D01*
G01*
X242000000Y-20000000D02*
X232000000Y-20000000D01*
X242000000Y-112000000D02*
X242000000Y-21500000D01*
X232000000Y-113500000D02*
X242000000Y-113500000D01*
X148500000Y-22000000D02*
X148500000Y-111500000D01*
X245500000Y-16500000D02*
X148500000Y-16500000D01*
X245500000Y-111500000D02*
X245500000Y-22000000D01*
X148500000Y-116500000D02*
X245500000Y-116500000D01*
X210000000Y-20000000D02*
X228000000Y-20000000D01*
X210000000Y-113500000D02*
X228000000Y-113500000D01*
X228000000Y-52500000D02*
G75*
G03X228000000Y-50500000I0J1000000D01*
G01*
X228000000Y-52500000D02*
X220000000Y-52500000D01*
X232000000Y-50500000D02*
G75*
G03X232000000Y-52500000I0J-1000000D01*
G01*
X240000000Y-50500000D02*
X232000000Y-50500000D01*
X240000000Y-52500000D02*
X232000000Y-52500000D01*
X228000000Y-50500000D02*
X220000000Y-50500000D01*
X232000000Y-20000000D02*
G75*
G03X232000000Y-22000000I0J-1000000D01*
G01*
X228000000Y-22000000D02*
G75*
G03X228000000Y-20000000I0J1000000D01*
G01*
X240000000Y-22000000D02*
X232000000Y-22000000D01*
X240000000Y-50500000D02*
X240000000Y-22000000D01*
X220000000Y-22000000D02*
X220000000Y-50500000D01*
X228000000Y-22000000D02*
X220000000Y-22000000D01*
X220000000Y-83000000D02*
X220000000Y-111500000D01*
X228000000Y-113500000D02*
G75*
G03X228000000Y-111500000I0J1000000D01*
G01*
X240000000Y-111500000D02*
X240000000Y-83000000D01*
X228000000Y-111500000D02*
X220000000Y-111500000D01*
X240000000Y-111500000D02*
X232000000Y-111500000D01*
X232000000Y-111500000D02*
G75*
G03X232000000Y-113500000I0J-1000000D01*
G01*
X240000000Y-81000000D02*
X240000000Y-52500000D01*
X228000000Y-81000000D02*
X220000000Y-81000000D01*
X240000000Y-81000000D02*
X232000000Y-81000000D01*
X228000000Y-83000000D02*
X220000000Y-83000000D01*
X232000000Y-81000000D02*
G75*
G03X232000000Y-83000000I0J-1000000D01*
G01*
X240000000Y-83000000D02*
X232000000Y-83000000D01*
X228000000Y-83000000D02*
G75*
G03X228000000Y-81000000I0J1000000D01*
G01*
X220000000Y-52500000D02*
X220000000Y-81000000D01*
X188000000Y-20000000D02*
X206000000Y-20000000D01*
X188000000Y-113500000D02*
X206000000Y-113500000D01*
X206000000Y-52500000D02*
G75*
G03X206000000Y-50500000I0J1000000D01*
G01*
X206000000Y-52500000D02*
X198000000Y-52500000D01*
X210000000Y-50500000D02*
G75*
G03X210000000Y-52500000I0J-1000000D01*
G01*
X218000000Y-50500000D02*
X210000000Y-50500000D01*
X218000000Y-52500000D02*
X210000000Y-52500000D01*
X206000000Y-50500000D02*
X198000000Y-50500000D01*
X210000000Y-20000000D02*
G75*
G03X210000000Y-22000000I0J-1000000D01*
G01*
X206000000Y-22000000D02*
G75*
G03X206000000Y-20000000I0J1000000D01*
G01*
X218000000Y-22000000D02*
X210000000Y-22000000D01*
X218000000Y-50500000D02*
X218000000Y-22000000D01*
X198000000Y-22000000D02*
X198000000Y-50500000D01*
X206000000Y-22000000D02*
X198000000Y-22000000D01*
X198000000Y-83000000D02*
X198000000Y-111500000D01*
X206000000Y-113500000D02*
G75*
G03X206000000Y-111500000I0J1000000D01*
G01*
X218000000Y-111500000D02*
X218000000Y-83000000D01*
X206000000Y-111500000D02*
X198000000Y-111500000D01*
X218000000Y-111500000D02*
X210000000Y-111500000D01*
X210000000Y-111500000D02*
G75*
G03X210000000Y-113500000I0J-1000000D01*
G01*
X218000000Y-81000000D02*
X218000000Y-52500000D01*
X206000000Y-81000000D02*
X198000000Y-81000000D01*
X218000000Y-81000000D02*
X210000000Y-81000000D01*
X206000000Y-83000000D02*
X198000000Y-83000000D01*
X210000000Y-81000000D02*
G75*
G03X210000000Y-83000000I0J-1000000D01*
G01*
X218000000Y-83000000D02*
X210000000Y-83000000D01*
X206000000Y-83000000D02*
G75*
G03X206000000Y-81000000I0J1000000D01*
G01*
X198000000Y-52500000D02*
X198000000Y-81000000D01*
X166000000Y-113500000D02*
X184000000Y-113500000D01*
X166000000Y-20000000D02*
X184000000Y-20000000D01*
X184000000Y-113500000D02*
G75*
G03X184000000Y-111500000I0J1000000D01*
G01*
X188000000Y-111500000D02*
G75*
G03X188000000Y-113500000I0J-1000000D01*
G01*
X166000000Y-111500000D02*
G75*
G03X166000000Y-113500000I0J-1000000D01*
G01*
X162000000Y-113500000D02*
G75*
G03X162000000Y-111500000I0J1000000D01*
G01*
X152000000Y-113500000D02*
X162000000Y-113500000D01*
X152000000Y-21500000D02*
X152000000Y-112000000D01*
X162000000Y-20000000D02*
X152000000Y-20000000D01*
X184000000Y-111500000D02*
X176000000Y-111500000D01*
X196000000Y-111500000D02*
X188000000Y-111500000D01*
X196000000Y-111500000D02*
X196000000Y-83000000D01*
X176000000Y-83000000D02*
X176000000Y-111500000D01*
X196000000Y-52500000D02*
X188000000Y-52500000D01*
X196000000Y-81000000D02*
X188000000Y-81000000D01*
X184000000Y-81000000D02*
X176000000Y-81000000D01*
X188000000Y-50500000D02*
G75*
G03X188000000Y-52500000I0J-1000000D01*
G01*
X184000000Y-52500000D02*
X176000000Y-52500000D01*
X184000000Y-52500000D02*
G75*
G03X184000000Y-50500000I0J1000000D01*
G01*
X196000000Y-81000000D02*
X196000000Y-52500000D01*
X176000000Y-52500000D02*
X176000000Y-81000000D01*
X184000000Y-50500000D02*
X176000000Y-50500000D01*
X188000000Y-20000000D02*
G75*
G03X188000000Y-22000000I0J-1000000D01*
G01*
X184000000Y-22000000D02*
X176000000Y-22000000D01*
X184000000Y-22000000D02*
G75*
G03X184000000Y-20000000I0J1000000D01*
G01*
X176000000Y-22000000D02*
X176000000Y-50500000D01*
X196000000Y-22000000D02*
X188000000Y-22000000D01*
X196000000Y-50500000D02*
X196000000Y-22000000D01*
X196000000Y-50500000D02*
X188000000Y-50500000D01*
X184000000Y-83000000D02*
X176000000Y-83000000D01*
X188000000Y-81000000D02*
G75*
G03X188000000Y-83000000I0J-1000000D01*
G01*
X196000000Y-83000000D02*
X188000000Y-83000000D01*
X184000000Y-83000000D02*
G75*
G03X184000000Y-81000000I0J1000000D01*
G01*
X174000000Y-50500000D02*
X174000000Y-22000000D01*
X162000000Y-22000000D02*
X154000000Y-22000000D01*
X154000000Y-22000000D02*
X154000000Y-50500000D01*
X174000000Y-22000000D02*
X166000000Y-22000000D01*
X166000000Y-20000000D02*
G75*
G03X166000000Y-22000000I0J-1000000D01*
G01*
X162000000Y-22000000D02*
G75*
G03X162000000Y-20000000I0J1000000D01*
G01*
X162000000Y-50500000D02*
X154000000Y-50500000D01*
X174000000Y-50500000D02*
X166000000Y-50500000D01*
X174000000Y-111500000D02*
X166000000Y-111500000D01*
X162000000Y-111500000D02*
X154000000Y-111500000D01*
X162000000Y-83000000D02*
G75*
G03X162000000Y-81000000I0J1000000D01*
G01*
X166000000Y-81000000D02*
G75*
G03X166000000Y-83000000I0J-1000000D01*
G01*
X174000000Y-83000000D02*
X166000000Y-83000000D01*
X154000000Y-83000000D02*
X154000000Y-111500000D01*
X162000000Y-83000000D02*
X154000000Y-83000000D01*
X174000000Y-111500000D02*
X174000000Y-83000000D01*
X174000000Y-81000000D02*
X166000000Y-81000000D01*
X162000000Y-81000000D02*
X154000000Y-81000000D01*
X162000000Y-52500000D02*
G75*
G03X162000000Y-50500000I0J1000000D01*
G01*
X166000000Y-50500000D02*
G75*
G03X166000000Y-52500000I0J-1000000D01*
G01*
X174000000Y-52500000D02*
X166000000Y-52500000D01*
X154000000Y-52500000D02*
X154000000Y-81000000D01*
X162000000Y-52500000D02*
X154000000Y-52500000D01*
X174000000Y-81000000D02*
X174000000Y-52500000D01*
M02*
