%TF.GenerationSoftware,KiCad,Pcbnew,4.0.7*%
%TF.CreationDate,2018-10-20T21:32:18+02:00*%
%TF.ProjectId,RFID_board_PANNEL,524649445F626F6172645F50414E4E45,rev?*%
%TF.FileFunction,Copper,L1,Top,Signal*%
%FSLAX46Y46*%
G04 Gerber Fmt 4.6, Leading zero omitted, Abs format (unit mm)*
G04 Created by KiCad (PCBNEW 4.0.7) date 2018 October 20, Saturday 21:32:18*
%MOMM*%
%LPD*%
G01*
G04 APERTURE LIST*
%ADD10C,0.100000*%
%ADD11C,1.000000*%
%ADD12R,0.750000X0.800000*%
%ADD13R,0.900000X0.500000*%
%ADD14R,1.700000X1.700000*%
%ADD15O,1.700000X1.700000*%
%ADD16R,0.800000X0.750000*%
%ADD17R,1.500000X1.500000*%
%ADD18R,1.000000X1.250000*%
%ADD19R,0.600000X1.500000*%
%ADD20R,1.250000X1.000000*%
%ADD21C,0.800000*%
%ADD22C,0.400000*%
%ADD23C,0.250000*%
%ADD24C,0.600000*%
%ADD25C,1.000000*%
%ADD26C,0.500000*%
G04 APERTURE END LIST*
D10*
D11*
X239000000Y-18000000D03*
X154500000Y-18000000D03*
X154500000Y-115000000D03*
D12*
X235000000Y-72250000D03*
X235000000Y-73750000D03*
X237000000Y-73750000D03*
X237000000Y-72250000D03*
D13*
X231000000Y-73750000D03*
X231000000Y-72250000D03*
D14*
X225880000Y-78000000D03*
D15*
X228420000Y-78000000D03*
X230960000Y-78000000D03*
X233500000Y-78000000D03*
X236040000Y-78000000D03*
D12*
X229000000Y-73750000D03*
X229000000Y-72250000D03*
D16*
X225750000Y-72000000D03*
X227250000Y-72000000D03*
D17*
X233500000Y-84500000D03*
D11*
X238000000Y-85000000D03*
D17*
X226400000Y-84500000D03*
D16*
X228250000Y-86500000D03*
X226750000Y-86500000D03*
D18*
X222000000Y-97500000D03*
X224000000Y-97500000D03*
D16*
X225750000Y-102500000D03*
X227250000Y-102500000D03*
X222250000Y-99500000D03*
X223750000Y-99500000D03*
D19*
X235445000Y-94700000D03*
X234175000Y-94700000D03*
X232905000Y-94700000D03*
X231635000Y-94700000D03*
X230365000Y-94700000D03*
X229095000Y-94700000D03*
X227825000Y-94700000D03*
X226555000Y-94700000D03*
X226555000Y-100100000D03*
X227825000Y-100100000D03*
X229095000Y-100100000D03*
X230365000Y-100100000D03*
X231635000Y-100100000D03*
X232905000Y-100100000D03*
X234175000Y-100100000D03*
X235445000Y-100100000D03*
D12*
X229000000Y-104250000D03*
X229000000Y-102750000D03*
D18*
X232500000Y-90300000D03*
X230500000Y-90300000D03*
D12*
X224000000Y-94250000D03*
X224000000Y-92750000D03*
D18*
X226500000Y-88500000D03*
X228500000Y-88500000D03*
D16*
X232250000Y-92000000D03*
X230750000Y-92000000D03*
D20*
X224000000Y-90500000D03*
X224000000Y-88500000D03*
D18*
X228500000Y-90500000D03*
X226500000Y-90500000D03*
D12*
X235000000Y-102750000D03*
X235000000Y-104250000D03*
X237000000Y-104250000D03*
X237000000Y-102750000D03*
D14*
X225880000Y-108500000D03*
D15*
X228420000Y-108500000D03*
X230960000Y-108500000D03*
X233500000Y-108500000D03*
X236040000Y-108500000D03*
D13*
X231000000Y-104250000D03*
X231000000Y-102750000D03*
D19*
X235445000Y-64200000D03*
X234175000Y-64200000D03*
X232905000Y-64200000D03*
X231635000Y-64200000D03*
X230365000Y-64200000D03*
X229095000Y-64200000D03*
X227825000Y-64200000D03*
X226555000Y-64200000D03*
X226555000Y-69600000D03*
X227825000Y-69600000D03*
X229095000Y-69600000D03*
X230365000Y-69600000D03*
X231635000Y-69600000D03*
X232905000Y-69600000D03*
X234175000Y-69600000D03*
X235445000Y-69600000D03*
D18*
X222000000Y-67000000D03*
X224000000Y-67000000D03*
D16*
X222250000Y-69000000D03*
X223750000Y-69000000D03*
D12*
X224000000Y-63750000D03*
X224000000Y-62250000D03*
D17*
X226400000Y-54000000D03*
D11*
X238000000Y-54500000D03*
D17*
X233500000Y-54000000D03*
D16*
X228250000Y-56000000D03*
X226750000Y-56000000D03*
D18*
X228500000Y-60000000D03*
X226500000Y-60000000D03*
D20*
X224000000Y-60000000D03*
X224000000Y-58000000D03*
D18*
X226500000Y-58000000D03*
X228500000Y-58000000D03*
X232500000Y-59800000D03*
X230500000Y-59800000D03*
D16*
X232250000Y-61500000D03*
X230750000Y-61500000D03*
D12*
X229000000Y-43250000D03*
X229000000Y-41750000D03*
D13*
X231000000Y-43250000D03*
X231000000Y-41750000D03*
D12*
X237000000Y-43250000D03*
X237000000Y-41750000D03*
D16*
X225750000Y-41500000D03*
X227250000Y-41500000D03*
D14*
X225880000Y-47500000D03*
D15*
X228420000Y-47500000D03*
X230960000Y-47500000D03*
X233500000Y-47500000D03*
X236040000Y-47500000D03*
D12*
X235000000Y-41750000D03*
X235000000Y-43250000D03*
D18*
X232500000Y-29300000D03*
X230500000Y-29300000D03*
D19*
X235445000Y-33700000D03*
X234175000Y-33700000D03*
X232905000Y-33700000D03*
X231635000Y-33700000D03*
X230365000Y-33700000D03*
X229095000Y-33700000D03*
X227825000Y-33700000D03*
X226555000Y-33700000D03*
X226555000Y-39100000D03*
X227825000Y-39100000D03*
X229095000Y-39100000D03*
X230365000Y-39100000D03*
X231635000Y-39100000D03*
X232905000Y-39100000D03*
X234175000Y-39100000D03*
X235445000Y-39100000D03*
D16*
X222250000Y-38500000D03*
X223750000Y-38500000D03*
X232250000Y-31000000D03*
X230750000Y-31000000D03*
D12*
X224000000Y-33250000D03*
X224000000Y-31750000D03*
D18*
X222000000Y-36500000D03*
X224000000Y-36500000D03*
D11*
X238000000Y-24000000D03*
D17*
X233500000Y-23500000D03*
D18*
X228500000Y-29500000D03*
X226500000Y-29500000D03*
D16*
X228250000Y-25500000D03*
X226750000Y-25500000D03*
D20*
X224000000Y-29500000D03*
X224000000Y-27500000D03*
D17*
X226400000Y-23500000D03*
D18*
X226500000Y-27500000D03*
X228500000Y-27500000D03*
D12*
X213000000Y-72250000D03*
X213000000Y-73750000D03*
X215000000Y-73750000D03*
X215000000Y-72250000D03*
D13*
X209000000Y-73750000D03*
X209000000Y-72250000D03*
D14*
X203880000Y-78000000D03*
D15*
X206420000Y-78000000D03*
X208960000Y-78000000D03*
X211500000Y-78000000D03*
X214040000Y-78000000D03*
D12*
X207000000Y-73750000D03*
X207000000Y-72250000D03*
D16*
X203750000Y-72000000D03*
X205250000Y-72000000D03*
D17*
X211500000Y-84500000D03*
D11*
X216000000Y-85000000D03*
D17*
X204400000Y-84500000D03*
D16*
X206250000Y-86500000D03*
X204750000Y-86500000D03*
D18*
X200000000Y-97500000D03*
X202000000Y-97500000D03*
D16*
X203750000Y-102500000D03*
X205250000Y-102500000D03*
X200250000Y-99500000D03*
X201750000Y-99500000D03*
D19*
X213445000Y-94700000D03*
X212175000Y-94700000D03*
X210905000Y-94700000D03*
X209635000Y-94700000D03*
X208365000Y-94700000D03*
X207095000Y-94700000D03*
X205825000Y-94700000D03*
X204555000Y-94700000D03*
X204555000Y-100100000D03*
X205825000Y-100100000D03*
X207095000Y-100100000D03*
X208365000Y-100100000D03*
X209635000Y-100100000D03*
X210905000Y-100100000D03*
X212175000Y-100100000D03*
X213445000Y-100100000D03*
D12*
X207000000Y-104250000D03*
X207000000Y-102750000D03*
D18*
X210500000Y-90300000D03*
X208500000Y-90300000D03*
D12*
X202000000Y-94250000D03*
X202000000Y-92750000D03*
D18*
X204500000Y-88500000D03*
X206500000Y-88500000D03*
D16*
X210250000Y-92000000D03*
X208750000Y-92000000D03*
D20*
X202000000Y-90500000D03*
X202000000Y-88500000D03*
D18*
X206500000Y-90500000D03*
X204500000Y-90500000D03*
D12*
X213000000Y-102750000D03*
X213000000Y-104250000D03*
X215000000Y-104250000D03*
X215000000Y-102750000D03*
D14*
X203880000Y-108500000D03*
D15*
X206420000Y-108500000D03*
X208960000Y-108500000D03*
X211500000Y-108500000D03*
X214040000Y-108500000D03*
D13*
X209000000Y-104250000D03*
X209000000Y-102750000D03*
D19*
X213445000Y-64200000D03*
X212175000Y-64200000D03*
X210905000Y-64200000D03*
X209635000Y-64200000D03*
X208365000Y-64200000D03*
X207095000Y-64200000D03*
X205825000Y-64200000D03*
X204555000Y-64200000D03*
X204555000Y-69600000D03*
X205825000Y-69600000D03*
X207095000Y-69600000D03*
X208365000Y-69600000D03*
X209635000Y-69600000D03*
X210905000Y-69600000D03*
X212175000Y-69600000D03*
X213445000Y-69600000D03*
D18*
X200000000Y-67000000D03*
X202000000Y-67000000D03*
D16*
X200250000Y-69000000D03*
X201750000Y-69000000D03*
D12*
X202000000Y-63750000D03*
X202000000Y-62250000D03*
D17*
X204400000Y-54000000D03*
D11*
X216000000Y-54500000D03*
D17*
X211500000Y-54000000D03*
D16*
X206250000Y-56000000D03*
X204750000Y-56000000D03*
D18*
X206500000Y-60000000D03*
X204500000Y-60000000D03*
D20*
X202000000Y-60000000D03*
X202000000Y-58000000D03*
D18*
X204500000Y-58000000D03*
X206500000Y-58000000D03*
X210500000Y-59800000D03*
X208500000Y-59800000D03*
D16*
X210250000Y-61500000D03*
X208750000Y-61500000D03*
D12*
X207000000Y-43250000D03*
X207000000Y-41750000D03*
D13*
X209000000Y-43250000D03*
X209000000Y-41750000D03*
D12*
X215000000Y-43250000D03*
X215000000Y-41750000D03*
D16*
X203750000Y-41500000D03*
X205250000Y-41500000D03*
D14*
X203880000Y-47500000D03*
D15*
X206420000Y-47500000D03*
X208960000Y-47500000D03*
X211500000Y-47500000D03*
X214040000Y-47500000D03*
D12*
X213000000Y-41750000D03*
X213000000Y-43250000D03*
D18*
X210500000Y-29300000D03*
X208500000Y-29300000D03*
D19*
X213445000Y-33700000D03*
X212175000Y-33700000D03*
X210905000Y-33700000D03*
X209635000Y-33700000D03*
X208365000Y-33700000D03*
X207095000Y-33700000D03*
X205825000Y-33700000D03*
X204555000Y-33700000D03*
X204555000Y-39100000D03*
X205825000Y-39100000D03*
X207095000Y-39100000D03*
X208365000Y-39100000D03*
X209635000Y-39100000D03*
X210905000Y-39100000D03*
X212175000Y-39100000D03*
X213445000Y-39100000D03*
D16*
X200250000Y-38500000D03*
X201750000Y-38500000D03*
X210250000Y-31000000D03*
X208750000Y-31000000D03*
D12*
X202000000Y-33250000D03*
X202000000Y-31750000D03*
D18*
X200000000Y-36500000D03*
X202000000Y-36500000D03*
D11*
X216000000Y-24000000D03*
D17*
X211500000Y-23500000D03*
D18*
X206500000Y-29500000D03*
X204500000Y-29500000D03*
D16*
X206250000Y-25500000D03*
X204750000Y-25500000D03*
D20*
X202000000Y-29500000D03*
X202000000Y-27500000D03*
D17*
X204400000Y-23500000D03*
D18*
X204500000Y-27500000D03*
X206500000Y-27500000D03*
D17*
X182400000Y-54000000D03*
D12*
X185000000Y-43250000D03*
X185000000Y-41750000D03*
D16*
X181750000Y-41500000D03*
X183250000Y-41500000D03*
D14*
X181880000Y-47500000D03*
D15*
X184420000Y-47500000D03*
X186960000Y-47500000D03*
X189500000Y-47500000D03*
X192040000Y-47500000D03*
D12*
X191000000Y-41750000D03*
X191000000Y-43250000D03*
D13*
X187000000Y-43250000D03*
X187000000Y-41750000D03*
D12*
X193000000Y-43250000D03*
X193000000Y-41750000D03*
D18*
X184500000Y-29500000D03*
X182500000Y-29500000D03*
D20*
X180000000Y-29500000D03*
X180000000Y-27500000D03*
D18*
X178000000Y-36500000D03*
X180000000Y-36500000D03*
D16*
X178250000Y-38500000D03*
X179750000Y-38500000D03*
X188250000Y-31000000D03*
X186750000Y-31000000D03*
D18*
X188500000Y-29300000D03*
X186500000Y-29300000D03*
D12*
X180000000Y-33250000D03*
X180000000Y-31750000D03*
D19*
X191445000Y-33700000D03*
X190175000Y-33700000D03*
X188905000Y-33700000D03*
X187635000Y-33700000D03*
X186365000Y-33700000D03*
X185095000Y-33700000D03*
X183825000Y-33700000D03*
X182555000Y-33700000D03*
X182555000Y-39100000D03*
X183825000Y-39100000D03*
X185095000Y-39100000D03*
X186365000Y-39100000D03*
X187635000Y-39100000D03*
X188905000Y-39100000D03*
X190175000Y-39100000D03*
X191445000Y-39100000D03*
D16*
X184250000Y-56000000D03*
X182750000Y-56000000D03*
D18*
X184500000Y-60000000D03*
X182500000Y-60000000D03*
X182500000Y-58000000D03*
X184500000Y-58000000D03*
D20*
X180000000Y-60000000D03*
X180000000Y-58000000D03*
D12*
X180000000Y-63750000D03*
X180000000Y-62250000D03*
D18*
X178000000Y-67000000D03*
X180000000Y-67000000D03*
D19*
X191445000Y-64200000D03*
X190175000Y-64200000D03*
X188905000Y-64200000D03*
X187635000Y-64200000D03*
X186365000Y-64200000D03*
X185095000Y-64200000D03*
X183825000Y-64200000D03*
X182555000Y-64200000D03*
X182555000Y-69600000D03*
X183825000Y-69600000D03*
X185095000Y-69600000D03*
X186365000Y-69600000D03*
X187635000Y-69600000D03*
X188905000Y-69600000D03*
X190175000Y-69600000D03*
X191445000Y-69600000D03*
D16*
X178250000Y-69000000D03*
X179750000Y-69000000D03*
D12*
X191000000Y-72250000D03*
X191000000Y-73750000D03*
X193000000Y-73750000D03*
X193000000Y-72250000D03*
X185000000Y-73750000D03*
X185000000Y-72250000D03*
D16*
X181750000Y-72000000D03*
X183250000Y-72000000D03*
D13*
X187000000Y-73750000D03*
X187000000Y-72250000D03*
D14*
X181880000Y-78000000D03*
D15*
X184420000Y-78000000D03*
X186960000Y-78000000D03*
X189500000Y-78000000D03*
X192040000Y-78000000D03*
D16*
X188250000Y-61500000D03*
X186750000Y-61500000D03*
D18*
X188500000Y-59800000D03*
X186500000Y-59800000D03*
D11*
X194000000Y-54500000D03*
D17*
X189500000Y-54000000D03*
D18*
X182500000Y-27500000D03*
X184500000Y-27500000D03*
D16*
X184250000Y-25500000D03*
X182750000Y-25500000D03*
D17*
X189500000Y-23500000D03*
X182400000Y-23500000D03*
D11*
X194000000Y-24000000D03*
D12*
X180000000Y-94250000D03*
X180000000Y-92750000D03*
D20*
X180000000Y-90500000D03*
X180000000Y-88500000D03*
D16*
X178250000Y-99500000D03*
X179750000Y-99500000D03*
D18*
X178000000Y-97500000D03*
X180000000Y-97500000D03*
X188500000Y-90300000D03*
X186500000Y-90300000D03*
D11*
X194000000Y-85000000D03*
D17*
X189500000Y-84500000D03*
D16*
X181750000Y-102500000D03*
X183250000Y-102500000D03*
D12*
X185000000Y-104250000D03*
X185000000Y-102750000D03*
D14*
X181880000Y-108500000D03*
D15*
X184420000Y-108500000D03*
X186960000Y-108500000D03*
X189500000Y-108500000D03*
X192040000Y-108500000D03*
D12*
X193000000Y-104250000D03*
X193000000Y-102750000D03*
D19*
X191445000Y-94700000D03*
X190175000Y-94700000D03*
X188905000Y-94700000D03*
X187635000Y-94700000D03*
X186365000Y-94700000D03*
X185095000Y-94700000D03*
X183825000Y-94700000D03*
X182555000Y-94700000D03*
X182555000Y-100100000D03*
X183825000Y-100100000D03*
X185095000Y-100100000D03*
X186365000Y-100100000D03*
X187635000Y-100100000D03*
X188905000Y-100100000D03*
X190175000Y-100100000D03*
X191445000Y-100100000D03*
D13*
X187000000Y-104250000D03*
X187000000Y-102750000D03*
D12*
X191000000Y-102750000D03*
X191000000Y-104250000D03*
D16*
X188250000Y-92000000D03*
X186750000Y-92000000D03*
D18*
X184500000Y-90500000D03*
X182500000Y-90500000D03*
X182500000Y-88500000D03*
X184500000Y-88500000D03*
D16*
X184250000Y-86500000D03*
X182750000Y-86500000D03*
D17*
X182400000Y-84500000D03*
D11*
X172000000Y-24000000D03*
D18*
X156000000Y-36500000D03*
X158000000Y-36500000D03*
X166500000Y-29300000D03*
X164500000Y-29300000D03*
D17*
X160400000Y-23500000D03*
X167500000Y-23500000D03*
D16*
X166250000Y-31000000D03*
X164750000Y-31000000D03*
X162250000Y-25500000D03*
X160750000Y-25500000D03*
D13*
X165000000Y-43250000D03*
X165000000Y-41750000D03*
D14*
X159880000Y-47500000D03*
D15*
X162420000Y-47500000D03*
X164960000Y-47500000D03*
X167500000Y-47500000D03*
X170040000Y-47500000D03*
D18*
X162500000Y-29500000D03*
X160500000Y-29500000D03*
X160500000Y-27500000D03*
X162500000Y-27500000D03*
D12*
X158000000Y-33250000D03*
X158000000Y-31750000D03*
D20*
X158000000Y-29500000D03*
X158000000Y-27500000D03*
D16*
X159750000Y-41500000D03*
X161250000Y-41500000D03*
X156250000Y-38500000D03*
X157750000Y-38500000D03*
D19*
X169445000Y-33700000D03*
X168175000Y-33700000D03*
X166905000Y-33700000D03*
X165635000Y-33700000D03*
X164365000Y-33700000D03*
X163095000Y-33700000D03*
X161825000Y-33700000D03*
X160555000Y-33700000D03*
X160555000Y-39100000D03*
X161825000Y-39100000D03*
X163095000Y-39100000D03*
X164365000Y-39100000D03*
X165635000Y-39100000D03*
X166905000Y-39100000D03*
X168175000Y-39100000D03*
X169445000Y-39100000D03*
D12*
X163000000Y-43250000D03*
X163000000Y-41750000D03*
X169000000Y-41750000D03*
X169000000Y-43250000D03*
X171000000Y-43250000D03*
X171000000Y-41750000D03*
X171000000Y-104250000D03*
X171000000Y-102750000D03*
X169000000Y-102750000D03*
X169000000Y-104250000D03*
X163000000Y-104250000D03*
X163000000Y-102750000D03*
D19*
X169445000Y-94700000D03*
X168175000Y-94700000D03*
X166905000Y-94700000D03*
X165635000Y-94700000D03*
X164365000Y-94700000D03*
X163095000Y-94700000D03*
X161825000Y-94700000D03*
X160555000Y-94700000D03*
X160555000Y-100100000D03*
X161825000Y-100100000D03*
X163095000Y-100100000D03*
X164365000Y-100100000D03*
X165635000Y-100100000D03*
X166905000Y-100100000D03*
X168175000Y-100100000D03*
X169445000Y-100100000D03*
D16*
X156250000Y-99500000D03*
X157750000Y-99500000D03*
X159750000Y-102500000D03*
X161250000Y-102500000D03*
D20*
X158000000Y-90500000D03*
X158000000Y-88500000D03*
D12*
X158000000Y-94250000D03*
X158000000Y-92750000D03*
D18*
X160500000Y-88500000D03*
X162500000Y-88500000D03*
X162500000Y-90500000D03*
X160500000Y-90500000D03*
D14*
X159880000Y-108500000D03*
D15*
X162420000Y-108500000D03*
X164960000Y-108500000D03*
X167500000Y-108500000D03*
X170040000Y-108500000D03*
D13*
X165000000Y-104250000D03*
X165000000Y-102750000D03*
D16*
X162250000Y-86500000D03*
X160750000Y-86500000D03*
X166250000Y-92000000D03*
X164750000Y-92000000D03*
D17*
X167500000Y-84500000D03*
X160400000Y-84500000D03*
D18*
X166500000Y-90300000D03*
X164500000Y-90300000D03*
X156000000Y-97500000D03*
X158000000Y-97500000D03*
D11*
X172000000Y-85000000D03*
D12*
X171000000Y-73750000D03*
X171000000Y-72250000D03*
X169000000Y-72250000D03*
X169000000Y-73750000D03*
X163000000Y-73750000D03*
X163000000Y-72250000D03*
D19*
X169445000Y-64200000D03*
X168175000Y-64200000D03*
X166905000Y-64200000D03*
X165635000Y-64200000D03*
X164365000Y-64200000D03*
X163095000Y-64200000D03*
X161825000Y-64200000D03*
X160555000Y-64200000D03*
X160555000Y-69600000D03*
X161825000Y-69600000D03*
X163095000Y-69600000D03*
X164365000Y-69600000D03*
X165635000Y-69600000D03*
X166905000Y-69600000D03*
X168175000Y-69600000D03*
X169445000Y-69600000D03*
D16*
X156250000Y-69000000D03*
X157750000Y-69000000D03*
X159750000Y-72000000D03*
X161250000Y-72000000D03*
D20*
X158000000Y-60000000D03*
X158000000Y-58000000D03*
D12*
X158000000Y-63750000D03*
X158000000Y-62250000D03*
D18*
X160500000Y-58000000D03*
X162500000Y-58000000D03*
X162500000Y-60000000D03*
X160500000Y-60000000D03*
D14*
X159880000Y-78000000D03*
D15*
X162420000Y-78000000D03*
X164960000Y-78000000D03*
X167500000Y-78000000D03*
X170040000Y-78000000D03*
D13*
X165000000Y-73750000D03*
X165000000Y-72250000D03*
D16*
X162250000Y-56000000D03*
X160750000Y-56000000D03*
X166250000Y-61500000D03*
X164750000Y-61500000D03*
D17*
X167500000Y-54000000D03*
X160400000Y-54000000D03*
D18*
X166500000Y-59800000D03*
X164500000Y-59800000D03*
X156000000Y-67000000D03*
X158000000Y-67000000D03*
D11*
X172000000Y-54500000D03*
D21*
X235000000Y-44500000D03*
X229000000Y-44500000D03*
X237000000Y-44500000D03*
X231000000Y-44500000D03*
D11*
X233500000Y-36500000D03*
D21*
X230500000Y-32000000D03*
X222200000Y-40300000D03*
X224000000Y-34500000D03*
X222200000Y-34900000D03*
X231000000Y-28500000D03*
X230500000Y-62500000D03*
X231000000Y-59000000D03*
X231000000Y-105500000D03*
X235000000Y-105500000D03*
X237000000Y-105500000D03*
X229000000Y-105500000D03*
X231000000Y-75000000D03*
X231000000Y-89500000D03*
X229000000Y-75000000D03*
X235000000Y-75000000D03*
D11*
X233500000Y-67000000D03*
D21*
X237000000Y-75000000D03*
X224000000Y-65000000D03*
X222200000Y-70800000D03*
X222200000Y-65400000D03*
X224000000Y-95500000D03*
D11*
X233500000Y-97500000D03*
D21*
X222200000Y-101300000D03*
X222200000Y-95900000D03*
X230500000Y-93000000D03*
X213000000Y-44500000D03*
X207000000Y-44500000D03*
X215000000Y-44500000D03*
X209000000Y-44500000D03*
D11*
X211500000Y-36500000D03*
D21*
X208500000Y-32000000D03*
X200200000Y-40300000D03*
X202000000Y-34500000D03*
X200200000Y-34900000D03*
X209000000Y-28500000D03*
X208500000Y-62500000D03*
X209000000Y-59000000D03*
X209000000Y-105500000D03*
X213000000Y-105500000D03*
X215000000Y-105500000D03*
X207000000Y-105500000D03*
X209000000Y-75000000D03*
X209000000Y-89500000D03*
X207000000Y-75000000D03*
X213000000Y-75000000D03*
D11*
X211500000Y-67000000D03*
D21*
X215000000Y-75000000D03*
X202000000Y-65000000D03*
X200200000Y-70800000D03*
X200200000Y-65400000D03*
X202000000Y-95500000D03*
D11*
X211500000Y-97500000D03*
D21*
X200200000Y-101300000D03*
X200200000Y-95900000D03*
X208500000Y-93000000D03*
X193000000Y-44500000D03*
X185000000Y-44500000D03*
X187000000Y-44500000D03*
X191000000Y-44500000D03*
X191000000Y-75000000D03*
X187000000Y-75000000D03*
X185000000Y-75000000D03*
X193000000Y-75000000D03*
X180000000Y-34500000D03*
X178200000Y-40300000D03*
X178200000Y-34900000D03*
D11*
X189500000Y-36500000D03*
D21*
X187000000Y-28500000D03*
X186500000Y-32000000D03*
X187000000Y-105500000D03*
X185000000Y-105500000D03*
X193000000Y-105500000D03*
X191000000Y-105500000D03*
X178200000Y-65400000D03*
X178200000Y-70800000D03*
X180000000Y-65000000D03*
X187000000Y-59000000D03*
X186500000Y-62500000D03*
D11*
X189500000Y-67000000D03*
D21*
X186500000Y-93000000D03*
X187000000Y-89500000D03*
X178200000Y-101300000D03*
D11*
X189500000Y-97500000D03*
D21*
X178200000Y-95900000D03*
X180000000Y-95500000D03*
X164500000Y-32000000D03*
X158000000Y-34500000D03*
X163000000Y-44500000D03*
X165000000Y-44500000D03*
X169000000Y-44500000D03*
X171000000Y-44500000D03*
D11*
X167500000Y-36500000D03*
D21*
X165000000Y-28500000D03*
X156200000Y-34900000D03*
X156200000Y-40300000D03*
X156200000Y-101300000D03*
X156200000Y-95900000D03*
X165000000Y-89500000D03*
D11*
X167500000Y-97500000D03*
D21*
X171000000Y-105500000D03*
X169000000Y-105500000D03*
X165000000Y-105500000D03*
X163000000Y-105500000D03*
X158000000Y-95500000D03*
X164500000Y-93000000D03*
X156200000Y-70800000D03*
X156200000Y-65400000D03*
X165000000Y-59000000D03*
D11*
X167500000Y-67000000D03*
D21*
X171000000Y-75000000D03*
X169000000Y-75000000D03*
X165000000Y-75000000D03*
X163000000Y-75000000D03*
X158000000Y-65000000D03*
X164500000Y-62500000D03*
X232000000Y-28500000D03*
X232000000Y-59000000D03*
X232000000Y-89500000D03*
X210000000Y-28500000D03*
X210000000Y-59000000D03*
X210000000Y-89500000D03*
X188000000Y-28500000D03*
X188000000Y-59000000D03*
X188000000Y-89500000D03*
X166000000Y-28500000D03*
X166000000Y-89500000D03*
X166000000Y-59000000D03*
D22*
X230750000Y-90500000D02*
X230750000Y-89750000D01*
X230750000Y-90500000D02*
X230750000Y-92000000D01*
D23*
X230365000Y-93135000D02*
X230500000Y-93000000D01*
D22*
X230365000Y-94700000D02*
X230365000Y-93135000D01*
X230750000Y-92000000D02*
X230750000Y-92750000D01*
X230750000Y-92750000D02*
X230500000Y-93000000D01*
D24*
X224000000Y-94250000D02*
X224000000Y-95500000D01*
D25*
X234207106Y-97500000D02*
X233500000Y-97500000D01*
X235445000Y-96450000D02*
X234395000Y-97500000D01*
X234395000Y-97500000D02*
X234207106Y-97500000D01*
D22*
X235000000Y-104250000D02*
X235000000Y-105500000D01*
X237000000Y-104250000D02*
X237000000Y-105500000D01*
D25*
X235445000Y-94700000D02*
X235445000Y-96450000D01*
X222200000Y-95900000D02*
X222200000Y-97300000D01*
X222250000Y-99500000D02*
X222250000Y-95950000D01*
X222200000Y-97300000D02*
X222000000Y-97500000D01*
X222250000Y-95950000D02*
X222200000Y-95900000D01*
X222065685Y-101000000D02*
X222200000Y-101134315D01*
X222250000Y-100815685D02*
X222065685Y-101000000D01*
X222250000Y-99500000D02*
X222250000Y-100875000D01*
X222250000Y-100875000D02*
X222125000Y-101000000D01*
X222125000Y-101000000D02*
X222065685Y-101000000D01*
X222250000Y-100750000D02*
X222250000Y-100815685D01*
X222200000Y-101134315D02*
X222200000Y-101300000D01*
D22*
X231000000Y-104250000D02*
X231000000Y-105500000D01*
X229000000Y-104250000D02*
X229000000Y-105500000D01*
D25*
X234395000Y-67000000D02*
X234207106Y-67000000D01*
X234207106Y-67000000D02*
X233500000Y-67000000D01*
D22*
X230750000Y-61500000D02*
X230750000Y-62250000D01*
X230750000Y-62250000D02*
X230500000Y-62500000D01*
D23*
X230365000Y-62635000D02*
X230500000Y-62500000D01*
D22*
X230365000Y-64200000D02*
X230365000Y-62635000D01*
D25*
X235445000Y-65950000D02*
X234395000Y-67000000D01*
X235445000Y-64200000D02*
X235445000Y-65950000D01*
D22*
X235000000Y-73750000D02*
X235000000Y-75000000D01*
X229000000Y-73750000D02*
X229000000Y-75000000D01*
X231000000Y-73750000D02*
X231000000Y-75000000D01*
X237000000Y-73750000D02*
X237000000Y-75000000D01*
D25*
X222250000Y-69000000D02*
X222250000Y-70375000D01*
X222250000Y-70375000D02*
X222125000Y-70500000D01*
X222250000Y-70315685D02*
X222065685Y-70500000D01*
X222065685Y-70500000D02*
X222200000Y-70634315D01*
X222250000Y-70250000D02*
X222250000Y-70315685D01*
X222125000Y-70500000D02*
X222065685Y-70500000D01*
X222250000Y-65450000D02*
X222200000Y-65400000D01*
X222200000Y-65400000D02*
X222200000Y-66800000D01*
X222200000Y-70634315D02*
X222200000Y-70800000D01*
X222200000Y-66800000D02*
X222000000Y-67000000D01*
X222250000Y-69000000D02*
X222250000Y-65450000D01*
D24*
X224000000Y-63750000D02*
X224000000Y-65000000D01*
D22*
X230750000Y-89750000D02*
X231000000Y-89500000D01*
X230750000Y-59250000D02*
X231000000Y-59000000D01*
X230750000Y-60000000D02*
X230750000Y-61500000D01*
X230750000Y-60000000D02*
X230750000Y-59250000D01*
D25*
X222200000Y-36300000D02*
X222000000Y-36500000D01*
X222200000Y-34900000D02*
X222200000Y-36300000D01*
X222250000Y-34950000D02*
X222200000Y-34900000D01*
X222250000Y-38500000D02*
X222250000Y-34950000D01*
X222250000Y-38500000D02*
X222250000Y-39875000D01*
X222125000Y-40000000D02*
X222065685Y-40000000D01*
X222065685Y-40000000D02*
X222200000Y-40134315D01*
X222250000Y-39815685D02*
X222065685Y-40000000D01*
X222250000Y-39750000D02*
X222250000Y-39815685D01*
X222250000Y-39875000D02*
X222125000Y-40000000D01*
X222200000Y-40134315D02*
X222200000Y-40300000D01*
D24*
X224000000Y-33250000D02*
X224000000Y-34500000D01*
D25*
X235445000Y-33700000D02*
X235445000Y-35450000D01*
X235445000Y-35450000D02*
X234395000Y-36500000D01*
X234395000Y-36500000D02*
X234207106Y-36500000D01*
X234207106Y-36500000D02*
X233500000Y-36500000D01*
D22*
X230750000Y-31000000D02*
X230750000Y-31750000D01*
D23*
X230365000Y-32135000D02*
X230500000Y-32000000D01*
D22*
X230750000Y-29500000D02*
X230750000Y-31000000D01*
X230750000Y-31750000D02*
X230500000Y-32000000D01*
X230365000Y-33700000D02*
X230365000Y-32135000D01*
X230750000Y-29500000D02*
X230750000Y-28750000D01*
X230750000Y-28750000D02*
X231000000Y-28500000D01*
X235000000Y-43250000D02*
X235000000Y-44500000D01*
X237000000Y-43250000D02*
X237000000Y-44500000D01*
X229000000Y-43250000D02*
X229000000Y-44500000D01*
X231000000Y-43250000D02*
X231000000Y-44500000D01*
X208750000Y-90500000D02*
X208750000Y-89750000D01*
X208750000Y-90500000D02*
X208750000Y-92000000D01*
D23*
X208365000Y-93135000D02*
X208500000Y-93000000D01*
D22*
X208365000Y-94700000D02*
X208365000Y-93135000D01*
X208750000Y-92000000D02*
X208750000Y-92750000D01*
X208750000Y-92750000D02*
X208500000Y-93000000D01*
D24*
X202000000Y-94250000D02*
X202000000Y-95500000D01*
D25*
X212207106Y-97500000D02*
X211500000Y-97500000D01*
X213445000Y-96450000D02*
X212395000Y-97500000D01*
X212395000Y-97500000D02*
X212207106Y-97500000D01*
D22*
X213000000Y-104250000D02*
X213000000Y-105500000D01*
X215000000Y-104250000D02*
X215000000Y-105500000D01*
D25*
X213445000Y-94700000D02*
X213445000Y-96450000D01*
X200200000Y-95900000D02*
X200200000Y-97300000D01*
X200250000Y-99500000D02*
X200250000Y-95950000D01*
X200200000Y-97300000D02*
X200000000Y-97500000D01*
X200250000Y-95950000D02*
X200200000Y-95900000D01*
X200065685Y-101000000D02*
X200200000Y-101134315D01*
X200250000Y-100815685D02*
X200065685Y-101000000D01*
X200250000Y-99500000D02*
X200250000Y-100875000D01*
X200250000Y-100875000D02*
X200125000Y-101000000D01*
X200125000Y-101000000D02*
X200065685Y-101000000D01*
X200250000Y-100750000D02*
X200250000Y-100815685D01*
X200200000Y-101134315D02*
X200200000Y-101300000D01*
D22*
X209000000Y-104250000D02*
X209000000Y-105500000D01*
X207000000Y-104250000D02*
X207000000Y-105500000D01*
D25*
X212395000Y-67000000D02*
X212207106Y-67000000D01*
X212207106Y-67000000D02*
X211500000Y-67000000D01*
D22*
X208750000Y-61500000D02*
X208750000Y-62250000D01*
X208750000Y-62250000D02*
X208500000Y-62500000D01*
D23*
X208365000Y-62635000D02*
X208500000Y-62500000D01*
D22*
X208365000Y-64200000D02*
X208365000Y-62635000D01*
D25*
X213445000Y-65950000D02*
X212395000Y-67000000D01*
X213445000Y-64200000D02*
X213445000Y-65950000D01*
D22*
X213000000Y-73750000D02*
X213000000Y-75000000D01*
X207000000Y-73750000D02*
X207000000Y-75000000D01*
X209000000Y-73750000D02*
X209000000Y-75000000D01*
X215000000Y-73750000D02*
X215000000Y-75000000D01*
D25*
X200250000Y-69000000D02*
X200250000Y-70375000D01*
X200250000Y-70375000D02*
X200125000Y-70500000D01*
X200250000Y-70315685D02*
X200065685Y-70500000D01*
X200065685Y-70500000D02*
X200200000Y-70634315D01*
X200250000Y-70250000D02*
X200250000Y-70315685D01*
X200125000Y-70500000D02*
X200065685Y-70500000D01*
X200250000Y-65450000D02*
X200200000Y-65400000D01*
X200200000Y-65400000D02*
X200200000Y-66800000D01*
X200200000Y-70634315D02*
X200200000Y-70800000D01*
X200200000Y-66800000D02*
X200000000Y-67000000D01*
X200250000Y-69000000D02*
X200250000Y-65450000D01*
D24*
X202000000Y-63750000D02*
X202000000Y-65000000D01*
D22*
X208750000Y-89750000D02*
X209000000Y-89500000D01*
X208750000Y-59250000D02*
X209000000Y-59000000D01*
X208750000Y-60000000D02*
X208750000Y-61500000D01*
X208750000Y-60000000D02*
X208750000Y-59250000D01*
D25*
X200200000Y-36300000D02*
X200000000Y-36500000D01*
X200200000Y-34900000D02*
X200200000Y-36300000D01*
X200250000Y-34950000D02*
X200200000Y-34900000D01*
X200250000Y-38500000D02*
X200250000Y-34950000D01*
X200250000Y-38500000D02*
X200250000Y-39875000D01*
X200125000Y-40000000D02*
X200065685Y-40000000D01*
X200065685Y-40000000D02*
X200200000Y-40134315D01*
X200250000Y-39815685D02*
X200065685Y-40000000D01*
X200250000Y-39750000D02*
X200250000Y-39815685D01*
X200250000Y-39875000D02*
X200125000Y-40000000D01*
X200200000Y-40134315D02*
X200200000Y-40300000D01*
D24*
X202000000Y-33250000D02*
X202000000Y-34500000D01*
D25*
X213445000Y-33700000D02*
X213445000Y-35450000D01*
X213445000Y-35450000D02*
X212395000Y-36500000D01*
X212395000Y-36500000D02*
X212207106Y-36500000D01*
X212207106Y-36500000D02*
X211500000Y-36500000D01*
D22*
X208750000Y-31000000D02*
X208750000Y-31750000D01*
D23*
X208365000Y-32135000D02*
X208500000Y-32000000D01*
D22*
X208750000Y-29500000D02*
X208750000Y-31000000D01*
X208750000Y-31750000D02*
X208500000Y-32000000D01*
X208365000Y-33700000D02*
X208365000Y-32135000D01*
X208750000Y-29500000D02*
X208750000Y-28750000D01*
X208750000Y-28750000D02*
X209000000Y-28500000D01*
X213000000Y-43250000D02*
X213000000Y-44500000D01*
X215000000Y-43250000D02*
X215000000Y-44500000D01*
X207000000Y-43250000D02*
X207000000Y-44500000D01*
X209000000Y-43250000D02*
X209000000Y-44500000D01*
D25*
X178250000Y-69000000D02*
X178250000Y-70375000D01*
X178250000Y-70315685D02*
X178065685Y-70500000D01*
X178250000Y-70250000D02*
X178250000Y-70315685D01*
X178065685Y-70500000D02*
X178200000Y-70634315D01*
X178125000Y-70500000D02*
X178065685Y-70500000D01*
X178200000Y-70634315D02*
X178200000Y-70800000D01*
X178250000Y-70375000D02*
X178125000Y-70500000D01*
X178250000Y-69000000D02*
X178250000Y-65450000D01*
X178200000Y-65400000D02*
X178200000Y-66800000D01*
X178200000Y-66800000D02*
X178000000Y-67000000D01*
X178250000Y-65450000D02*
X178200000Y-65400000D01*
X190207106Y-67000000D02*
X189500000Y-67000000D01*
X191445000Y-65950000D02*
X190395000Y-67000000D01*
X190395000Y-67000000D02*
X190207106Y-67000000D01*
D22*
X187000000Y-73750000D02*
X187000000Y-75000000D01*
X185000000Y-73750000D02*
X185000000Y-75000000D01*
X191000000Y-73750000D02*
X191000000Y-75000000D01*
X193000000Y-73750000D02*
X193000000Y-75000000D01*
X193000000Y-104250000D02*
X193000000Y-105500000D01*
X191000000Y-104250000D02*
X191000000Y-105500000D01*
X187000000Y-104250000D02*
X187000000Y-105500000D01*
X185000000Y-104250000D02*
X185000000Y-105500000D01*
D25*
X178250000Y-99500000D02*
X178250000Y-95950000D01*
X178250000Y-95950000D02*
X178200000Y-95900000D01*
X178200000Y-97300000D02*
X178000000Y-97500000D01*
X178200000Y-95900000D02*
X178200000Y-97300000D01*
D24*
X180000000Y-94250000D02*
X180000000Y-95500000D01*
D25*
X178250000Y-99500000D02*
X178250000Y-100875000D01*
X178250000Y-100815685D02*
X178065685Y-101000000D01*
X178250000Y-100750000D02*
X178250000Y-100815685D01*
X178200000Y-101134315D02*
X178200000Y-101300000D01*
X178125000Y-101000000D02*
X178065685Y-101000000D01*
X178250000Y-100875000D02*
X178125000Y-101000000D01*
X178065685Y-101000000D02*
X178200000Y-101134315D01*
D22*
X186365000Y-94700000D02*
X186365000Y-93135000D01*
X186750000Y-92750000D02*
X186500000Y-93000000D01*
X186750000Y-92000000D02*
X186750000Y-92750000D01*
D23*
X186365000Y-93135000D02*
X186500000Y-93000000D01*
D22*
X186750000Y-90500000D02*
X186750000Y-92000000D01*
X186750000Y-90500000D02*
X186750000Y-89750000D01*
X186750000Y-89750000D02*
X187000000Y-89500000D01*
D25*
X191445000Y-96450000D02*
X190395000Y-97500000D01*
X190395000Y-97500000D02*
X190207106Y-97500000D01*
X190207106Y-97500000D02*
X189500000Y-97500000D01*
X191445000Y-94700000D02*
X191445000Y-96450000D01*
D24*
X180000000Y-63750000D02*
X180000000Y-65000000D01*
D25*
X191445000Y-64200000D02*
X191445000Y-65950000D01*
D23*
X186365000Y-62635000D02*
X186500000Y-62500000D01*
D22*
X186750000Y-62250000D02*
X186500000Y-62500000D01*
X186365000Y-64200000D02*
X186365000Y-62635000D01*
X186750000Y-60000000D02*
X186750000Y-61500000D01*
X186750000Y-61500000D02*
X186750000Y-62250000D01*
X186750000Y-60000000D02*
X186750000Y-59250000D01*
X186750000Y-59250000D02*
X187000000Y-59000000D01*
X186750000Y-28750000D02*
X187000000Y-28500000D01*
X186750000Y-29500000D02*
X186750000Y-28750000D01*
D24*
X180000000Y-33250000D02*
X180000000Y-34500000D01*
D22*
X193000000Y-43250000D02*
X193000000Y-44500000D01*
X187000000Y-43250000D02*
X187000000Y-44500000D01*
X185000000Y-43250000D02*
X185000000Y-44500000D01*
X191000000Y-43250000D02*
X191000000Y-44500000D01*
X186750000Y-29500000D02*
X186750000Y-31000000D01*
D23*
X186365000Y-32135000D02*
X186500000Y-32000000D01*
D22*
X186365000Y-33700000D02*
X186365000Y-32135000D01*
X186750000Y-31750000D02*
X186500000Y-32000000D01*
X186750000Y-31000000D02*
X186750000Y-31750000D01*
D25*
X190207106Y-36500000D02*
X189500000Y-36500000D01*
X191445000Y-35450000D02*
X190395000Y-36500000D01*
X190395000Y-36500000D02*
X190207106Y-36500000D01*
X191445000Y-33700000D02*
X191445000Y-35450000D01*
X178200000Y-40134315D02*
X178200000Y-40300000D01*
X178065685Y-40000000D02*
X178200000Y-40134315D01*
X178250000Y-38500000D02*
X178250000Y-34950000D01*
X178250000Y-34950000D02*
X178200000Y-34900000D01*
X178200000Y-34900000D02*
X178200000Y-36300000D01*
X178200000Y-36300000D02*
X178000000Y-36500000D01*
X178125000Y-40000000D02*
X178065685Y-40000000D01*
X178250000Y-39815685D02*
X178065685Y-40000000D01*
X178250000Y-39750000D02*
X178250000Y-39815685D01*
X178250000Y-39875000D02*
X178125000Y-40000000D01*
X178250000Y-38500000D02*
X178250000Y-39875000D01*
D23*
X164365000Y-32135000D02*
X164500000Y-32000000D01*
D24*
X158000000Y-33250000D02*
X158000000Y-34500000D01*
D25*
X156250000Y-39750000D02*
X156250000Y-39815685D01*
X156250000Y-39815685D02*
X156065685Y-40000000D01*
X156250000Y-38500000D02*
X156250000Y-39875000D01*
X156250000Y-39875000D02*
X156125000Y-40000000D01*
X156125000Y-40000000D02*
X156065685Y-40000000D01*
D22*
X163000000Y-43250000D02*
X163000000Y-44500000D01*
X165000000Y-43250000D02*
X165000000Y-44500000D01*
X169000000Y-43250000D02*
X169000000Y-44500000D01*
X171000000Y-43250000D02*
X171000000Y-44500000D01*
D25*
X169445000Y-33700000D02*
X169445000Y-35450000D01*
X169445000Y-35450000D02*
X168395000Y-36500000D01*
X168395000Y-36500000D02*
X168207106Y-36500000D01*
X168207106Y-36500000D02*
X167500000Y-36500000D01*
D22*
X164750000Y-29500000D02*
X164750000Y-28750000D01*
X164750000Y-28750000D02*
X165000000Y-28500000D01*
X164365000Y-33700000D02*
X164365000Y-32135000D01*
X164750000Y-31750000D02*
X164500000Y-32000000D01*
X164750000Y-31000000D02*
X164750000Y-31750000D01*
X164750000Y-29500000D02*
X164750000Y-31000000D01*
D25*
X156250000Y-38500000D02*
X156250000Y-34950000D01*
X156250000Y-34950000D02*
X156200000Y-34900000D01*
X156065685Y-40000000D02*
X156200000Y-40134315D01*
X156200000Y-40134315D02*
X156200000Y-40300000D01*
X156200000Y-36300000D02*
X156000000Y-36500000D01*
X156200000Y-34900000D02*
X156200000Y-36300000D01*
X156200000Y-95900000D02*
X156200000Y-97300000D01*
X156200000Y-97300000D02*
X156000000Y-97500000D01*
X156200000Y-101134315D02*
X156200000Y-101300000D01*
X156065685Y-101000000D02*
X156200000Y-101134315D01*
X156250000Y-95950000D02*
X156200000Y-95900000D01*
X156250000Y-99500000D02*
X156250000Y-95950000D01*
D22*
X164750000Y-90500000D02*
X164750000Y-92000000D01*
X164750000Y-92000000D02*
X164750000Y-92750000D01*
X164750000Y-92750000D02*
X164500000Y-93000000D01*
X164365000Y-94700000D02*
X164365000Y-93135000D01*
X164750000Y-89750000D02*
X165000000Y-89500000D01*
X164750000Y-90500000D02*
X164750000Y-89750000D01*
D25*
X168207106Y-97500000D02*
X167500000Y-97500000D01*
X168395000Y-97500000D02*
X168207106Y-97500000D01*
X169445000Y-96450000D02*
X168395000Y-97500000D01*
X169445000Y-94700000D02*
X169445000Y-96450000D01*
D22*
X171000000Y-104250000D02*
X171000000Y-105500000D01*
X169000000Y-104250000D02*
X169000000Y-105500000D01*
X165000000Y-104250000D02*
X165000000Y-105500000D01*
X163000000Y-104250000D02*
X163000000Y-105500000D01*
D25*
X156125000Y-101000000D02*
X156065685Y-101000000D01*
X156250000Y-100875000D02*
X156125000Y-101000000D01*
X156250000Y-99500000D02*
X156250000Y-100875000D01*
X156250000Y-100815685D02*
X156065685Y-101000000D01*
X156250000Y-100750000D02*
X156250000Y-100815685D01*
D24*
X158000000Y-94250000D02*
X158000000Y-95500000D01*
D23*
X164365000Y-93135000D02*
X164500000Y-93000000D01*
D25*
X156200000Y-65400000D02*
X156200000Y-66800000D01*
X156200000Y-66800000D02*
X156000000Y-67000000D01*
X156200000Y-70634315D02*
X156200000Y-70800000D01*
X156065685Y-70500000D02*
X156200000Y-70634315D01*
X156250000Y-65450000D02*
X156200000Y-65400000D01*
X156250000Y-69000000D02*
X156250000Y-65450000D01*
D22*
X164750000Y-60000000D02*
X164750000Y-61500000D01*
X164750000Y-61500000D02*
X164750000Y-62250000D01*
X164750000Y-62250000D02*
X164500000Y-62500000D01*
X164365000Y-64200000D02*
X164365000Y-62635000D01*
X164750000Y-59250000D02*
X165000000Y-59000000D01*
X164750000Y-60000000D02*
X164750000Y-59250000D01*
D25*
X168207106Y-67000000D02*
X167500000Y-67000000D01*
X168395000Y-67000000D02*
X168207106Y-67000000D01*
X169445000Y-65950000D02*
X168395000Y-67000000D01*
X169445000Y-64200000D02*
X169445000Y-65950000D01*
D22*
X171000000Y-73750000D02*
X171000000Y-75000000D01*
X169000000Y-73750000D02*
X169000000Y-75000000D01*
X165000000Y-73750000D02*
X165000000Y-75000000D01*
X163000000Y-73750000D02*
X163000000Y-75000000D01*
D25*
X156125000Y-70500000D02*
X156065685Y-70500000D01*
X156250000Y-70375000D02*
X156125000Y-70500000D01*
X156250000Y-69000000D02*
X156250000Y-70375000D01*
X156250000Y-70315685D02*
X156065685Y-70500000D01*
X156250000Y-70250000D02*
X156250000Y-70315685D01*
D24*
X158000000Y-63750000D02*
X158000000Y-65000000D01*
D23*
X164365000Y-62635000D02*
X164500000Y-62500000D01*
D22*
X232250000Y-90500000D02*
X232250000Y-92000000D01*
X232250000Y-90500000D02*
X232250000Y-89750000D01*
X231635000Y-94700000D02*
X231635000Y-92615000D01*
D26*
X231635000Y-95150000D02*
X231700000Y-95215000D01*
X231635000Y-94700000D02*
X231635000Y-95150000D01*
D22*
X231635000Y-92615000D02*
X232250000Y-92000000D01*
D25*
X223750000Y-98000000D02*
X223750000Y-97500000D01*
X226775000Y-97500000D02*
X223750000Y-97500000D01*
X227825000Y-96450000D02*
X226775000Y-97500000D01*
X223750000Y-98000000D02*
X223750000Y-97750000D01*
X227825000Y-94700000D02*
X227825000Y-96450000D01*
X225880000Y-105380000D02*
X225880000Y-108500000D01*
X223750000Y-98000000D02*
X223750000Y-99500000D01*
X223750000Y-99500000D02*
X223750000Y-103250000D01*
X223750000Y-103250000D02*
X225880000Y-105380000D01*
D22*
X231635000Y-62115000D02*
X232250000Y-61500000D01*
D26*
X231635000Y-64650000D02*
X231700000Y-64715000D01*
X231635000Y-64200000D02*
X231635000Y-64650000D01*
D22*
X231635000Y-64200000D02*
X231635000Y-62115000D01*
D25*
X223750000Y-67500000D02*
X223750000Y-69000000D01*
X226775000Y-67000000D02*
X223750000Y-67000000D01*
X223750000Y-67500000D02*
X223750000Y-67000000D01*
X223750000Y-67500000D02*
X223750000Y-67250000D01*
X225880000Y-74880000D02*
X225880000Y-78000000D01*
X223750000Y-72750000D02*
X225880000Y-74880000D01*
X223750000Y-69000000D02*
X223750000Y-72750000D01*
X227825000Y-64200000D02*
X227825000Y-65950000D01*
X227825000Y-65950000D02*
X226775000Y-67000000D01*
D22*
X232250000Y-89750000D02*
X232000000Y-89500000D01*
X232250000Y-59250000D02*
X232000000Y-59000000D01*
X232250000Y-60000000D02*
X232250000Y-61500000D01*
X232250000Y-60000000D02*
X232250000Y-59250000D01*
D25*
X226775000Y-36500000D02*
X223750000Y-36500000D01*
X227825000Y-35450000D02*
X226775000Y-36500000D01*
X223750000Y-37000000D02*
X223750000Y-36500000D01*
X223750000Y-37000000D02*
X223750000Y-36750000D01*
X223750000Y-37000000D02*
X223750000Y-38500000D01*
X223750000Y-38500000D02*
X223750000Y-42250000D01*
X223750000Y-42250000D02*
X225880000Y-44380000D01*
X227825000Y-33700000D02*
X227825000Y-35450000D01*
D26*
X231635000Y-34150000D02*
X231700000Y-34215000D01*
D22*
X231635000Y-33700000D02*
X231635000Y-31615000D01*
X231635000Y-31615000D02*
X232250000Y-31000000D01*
D26*
X231635000Y-33700000D02*
X231635000Y-34150000D01*
D22*
X232250000Y-29500000D02*
X232250000Y-31000000D01*
X232250000Y-29500000D02*
X232250000Y-28750000D01*
X232250000Y-28750000D02*
X232000000Y-28500000D01*
D25*
X225880000Y-44380000D02*
X225880000Y-47500000D01*
D22*
X210250000Y-90500000D02*
X210250000Y-92000000D01*
X210250000Y-90500000D02*
X210250000Y-89750000D01*
X209635000Y-94700000D02*
X209635000Y-92615000D01*
D26*
X209635000Y-95150000D02*
X209700000Y-95215000D01*
X209635000Y-94700000D02*
X209635000Y-95150000D01*
D22*
X209635000Y-92615000D02*
X210250000Y-92000000D01*
D25*
X201750000Y-98000000D02*
X201750000Y-97500000D01*
X204775000Y-97500000D02*
X201750000Y-97500000D01*
X205825000Y-96450000D02*
X204775000Y-97500000D01*
X201750000Y-98000000D02*
X201750000Y-97750000D01*
X205825000Y-94700000D02*
X205825000Y-96450000D01*
X203880000Y-105380000D02*
X203880000Y-108500000D01*
X201750000Y-98000000D02*
X201750000Y-99500000D01*
X201750000Y-99500000D02*
X201750000Y-103250000D01*
X201750000Y-103250000D02*
X203880000Y-105380000D01*
D22*
X209635000Y-62115000D02*
X210250000Y-61500000D01*
D26*
X209635000Y-64650000D02*
X209700000Y-64715000D01*
X209635000Y-64200000D02*
X209635000Y-64650000D01*
D22*
X209635000Y-64200000D02*
X209635000Y-62115000D01*
D25*
X201750000Y-67500000D02*
X201750000Y-69000000D01*
X204775000Y-67000000D02*
X201750000Y-67000000D01*
X201750000Y-67500000D02*
X201750000Y-67000000D01*
X201750000Y-67500000D02*
X201750000Y-67250000D01*
X203880000Y-74880000D02*
X203880000Y-78000000D01*
X201750000Y-72750000D02*
X203880000Y-74880000D01*
X201750000Y-69000000D02*
X201750000Y-72750000D01*
X205825000Y-64200000D02*
X205825000Y-65950000D01*
X205825000Y-65950000D02*
X204775000Y-67000000D01*
D22*
X210250000Y-89750000D02*
X210000000Y-89500000D01*
X210250000Y-59250000D02*
X210000000Y-59000000D01*
X210250000Y-60000000D02*
X210250000Y-61500000D01*
X210250000Y-60000000D02*
X210250000Y-59250000D01*
D25*
X204775000Y-36500000D02*
X201750000Y-36500000D01*
X205825000Y-35450000D02*
X204775000Y-36500000D01*
X201750000Y-37000000D02*
X201750000Y-36500000D01*
X201750000Y-37000000D02*
X201750000Y-36750000D01*
X201750000Y-37000000D02*
X201750000Y-38500000D01*
X201750000Y-38500000D02*
X201750000Y-42250000D01*
X201750000Y-42250000D02*
X203880000Y-44380000D01*
X205825000Y-33700000D02*
X205825000Y-35450000D01*
D26*
X209635000Y-34150000D02*
X209700000Y-34215000D01*
D22*
X209635000Y-33700000D02*
X209635000Y-31615000D01*
X209635000Y-31615000D02*
X210250000Y-31000000D01*
D26*
X209635000Y-33700000D02*
X209635000Y-34150000D01*
D22*
X210250000Y-29500000D02*
X210250000Y-31000000D01*
X210250000Y-29500000D02*
X210250000Y-28750000D01*
X210250000Y-28750000D02*
X210000000Y-28500000D01*
D25*
X203880000Y-44380000D02*
X203880000Y-47500000D01*
X181880000Y-74880000D02*
X181880000Y-78000000D01*
X179750000Y-72750000D02*
X181880000Y-74880000D01*
X179750000Y-69000000D02*
X179750000Y-72750000D01*
X179750000Y-67500000D02*
X179750000Y-67250000D01*
X183825000Y-65950000D02*
X182775000Y-67000000D01*
X182775000Y-67000000D02*
X179750000Y-67000000D01*
X179750000Y-67500000D02*
X179750000Y-67000000D01*
X179750000Y-67500000D02*
X179750000Y-69000000D01*
D26*
X187635000Y-64650000D02*
X187700000Y-64715000D01*
D25*
X181880000Y-105380000D02*
X181880000Y-108500000D01*
X179750000Y-103250000D02*
X181880000Y-105380000D01*
X179750000Y-99500000D02*
X179750000Y-103250000D01*
X179750000Y-98000000D02*
X179750000Y-97750000D01*
X179750000Y-98000000D02*
X179750000Y-99500000D01*
X183825000Y-94700000D02*
X183825000Y-96450000D01*
X183825000Y-96450000D02*
X182775000Y-97500000D01*
X182775000Y-97500000D02*
X179750000Y-97500000D01*
X179750000Y-98000000D02*
X179750000Y-97500000D01*
D22*
X187635000Y-92615000D02*
X188250000Y-92000000D01*
X188250000Y-90500000D02*
X188250000Y-89750000D01*
X188250000Y-90500000D02*
X188250000Y-92000000D01*
X188250000Y-89750000D02*
X188000000Y-89500000D01*
D26*
X187635000Y-94700000D02*
X187635000Y-95150000D01*
X187635000Y-95150000D02*
X187700000Y-95215000D01*
D22*
X187635000Y-94700000D02*
X187635000Y-92615000D01*
D25*
X183825000Y-64200000D02*
X183825000Y-65950000D01*
D22*
X187635000Y-64200000D02*
X187635000Y-62115000D01*
D26*
X187635000Y-64200000D02*
X187635000Y-64650000D01*
D22*
X187635000Y-62115000D02*
X188250000Y-61500000D01*
X188250000Y-60000000D02*
X188250000Y-61500000D01*
X188250000Y-60000000D02*
X188250000Y-59250000D01*
X188250000Y-59250000D02*
X188000000Y-59000000D01*
X188250000Y-28750000D02*
X188000000Y-28500000D01*
X188250000Y-29500000D02*
X188250000Y-28750000D01*
D25*
X183825000Y-35450000D02*
X182775000Y-36500000D01*
X183825000Y-33700000D02*
X183825000Y-35450000D01*
X181880000Y-44380000D02*
X181880000Y-47500000D01*
D22*
X187635000Y-33700000D02*
X187635000Y-31615000D01*
D26*
X187635000Y-33700000D02*
X187635000Y-34150000D01*
X187635000Y-34150000D02*
X187700000Y-34215000D01*
D22*
X187635000Y-31615000D02*
X188250000Y-31000000D01*
X188250000Y-29500000D02*
X188250000Y-31000000D01*
D25*
X179750000Y-42250000D02*
X181880000Y-44380000D01*
X179750000Y-38500000D02*
X179750000Y-42250000D01*
X179750000Y-37000000D02*
X179750000Y-36750000D01*
X179750000Y-37000000D02*
X179750000Y-36500000D01*
X179750000Y-37000000D02*
X179750000Y-38500000D01*
X182775000Y-36500000D02*
X179750000Y-36500000D01*
D26*
X165635000Y-34150000D02*
X165700000Y-34215000D01*
X165635000Y-33700000D02*
X165635000Y-34150000D01*
D25*
X157750000Y-37000000D02*
X157750000Y-36750000D01*
X157750000Y-37000000D02*
X157750000Y-36500000D01*
X157750000Y-37000000D02*
X157750000Y-38500000D01*
D22*
X166250000Y-28750000D02*
X166000000Y-28500000D01*
X166250000Y-29500000D02*
X166250000Y-28750000D01*
D25*
X160775000Y-36500000D02*
X157750000Y-36500000D01*
X161825000Y-35450000D02*
X160775000Y-36500000D01*
X161825000Y-33700000D02*
X161825000Y-35450000D01*
D22*
X166250000Y-29500000D02*
X166250000Y-31000000D01*
X165635000Y-31615000D02*
X166250000Y-31000000D01*
X165635000Y-33700000D02*
X165635000Y-31615000D01*
D25*
X157750000Y-38500000D02*
X157750000Y-42250000D01*
X159880000Y-44380000D02*
X159880000Y-47500000D01*
X157750000Y-42250000D02*
X159880000Y-44380000D01*
X157750000Y-103250000D02*
X159880000Y-105380000D01*
X159880000Y-105380000D02*
X159880000Y-108500000D01*
X157750000Y-99500000D02*
X157750000Y-103250000D01*
D22*
X165635000Y-94700000D02*
X165635000Y-92615000D01*
X165635000Y-92615000D02*
X166250000Y-92000000D01*
X166250000Y-90500000D02*
X166250000Y-92000000D01*
D25*
X161825000Y-94700000D02*
X161825000Y-96450000D01*
X161825000Y-96450000D02*
X160775000Y-97500000D01*
X160775000Y-97500000D02*
X157750000Y-97500000D01*
D22*
X166250000Y-90500000D02*
X166250000Y-89750000D01*
X166250000Y-89750000D02*
X166000000Y-89500000D01*
D25*
X157750000Y-98000000D02*
X157750000Y-99500000D01*
X157750000Y-98000000D02*
X157750000Y-97500000D01*
X157750000Y-98000000D02*
X157750000Y-97750000D01*
D26*
X165635000Y-94700000D02*
X165635000Y-95150000D01*
X165635000Y-95150000D02*
X165700000Y-95215000D01*
D25*
X157750000Y-72750000D02*
X159880000Y-74880000D01*
X159880000Y-74880000D02*
X159880000Y-78000000D01*
X157750000Y-69000000D02*
X157750000Y-72750000D01*
D22*
X165635000Y-64200000D02*
X165635000Y-62115000D01*
X165635000Y-62115000D02*
X166250000Y-61500000D01*
X166250000Y-60000000D02*
X166250000Y-61500000D01*
D25*
X161825000Y-64200000D02*
X161825000Y-65950000D01*
X161825000Y-65950000D02*
X160775000Y-67000000D01*
X160775000Y-67000000D02*
X157750000Y-67000000D01*
D22*
X166250000Y-60000000D02*
X166250000Y-59250000D01*
X166250000Y-59250000D02*
X166000000Y-59000000D01*
D25*
X157750000Y-67500000D02*
X157750000Y-69000000D01*
X157750000Y-67500000D02*
X157750000Y-67000000D01*
X157750000Y-67500000D02*
X157750000Y-67250000D01*
D26*
X165635000Y-64200000D02*
X165635000Y-64650000D01*
X165635000Y-64650000D02*
X165700000Y-64715000D01*
D23*
X226400000Y-85150000D02*
X226750000Y-85500000D01*
X226400000Y-84500000D02*
X226400000Y-85150000D01*
D24*
X226750000Y-86500000D02*
X226000000Y-86500000D01*
D25*
X226750000Y-85500000D02*
X226750000Y-85000000D01*
D24*
X226000000Y-86500000D02*
X224000000Y-88500000D01*
D25*
X226750000Y-86500000D02*
X226750000Y-85500000D01*
D24*
X226000000Y-56000000D02*
X224000000Y-58000000D01*
D25*
X226750000Y-55000000D02*
X226750000Y-54500000D01*
D23*
X226400000Y-54000000D02*
X226400000Y-54650000D01*
X226400000Y-54650000D02*
X226750000Y-55000000D01*
D25*
X226750000Y-56000000D02*
X226750000Y-55000000D01*
D24*
X226750000Y-56000000D02*
X226000000Y-56000000D01*
D25*
X226750000Y-24500000D02*
X226750000Y-24000000D01*
X226750000Y-25500000D02*
X226750000Y-24500000D01*
D24*
X226750000Y-25500000D02*
X226000000Y-25500000D01*
D23*
X226400000Y-23500000D02*
X226400000Y-24150000D01*
X226400000Y-24150000D02*
X226750000Y-24500000D01*
D24*
X226000000Y-25500000D02*
X224000000Y-27500000D01*
D23*
X204400000Y-85150000D02*
X204750000Y-85500000D01*
X204400000Y-84500000D02*
X204400000Y-85150000D01*
D24*
X204750000Y-86500000D02*
X204000000Y-86500000D01*
D25*
X204750000Y-85500000D02*
X204750000Y-85000000D01*
D24*
X204000000Y-86500000D02*
X202000000Y-88500000D01*
D25*
X204750000Y-86500000D02*
X204750000Y-85500000D01*
D24*
X204000000Y-56000000D02*
X202000000Y-58000000D01*
D25*
X204750000Y-55000000D02*
X204750000Y-54500000D01*
D23*
X204400000Y-54000000D02*
X204400000Y-54650000D01*
X204400000Y-54650000D02*
X204750000Y-55000000D01*
D25*
X204750000Y-56000000D02*
X204750000Y-55000000D01*
D24*
X204750000Y-56000000D02*
X204000000Y-56000000D01*
D25*
X204750000Y-24500000D02*
X204750000Y-24000000D01*
X204750000Y-25500000D02*
X204750000Y-24500000D01*
D24*
X204750000Y-25500000D02*
X204000000Y-25500000D01*
D23*
X204400000Y-23500000D02*
X204400000Y-24150000D01*
X204400000Y-24150000D02*
X204750000Y-24500000D01*
D24*
X204000000Y-25500000D02*
X202000000Y-27500000D01*
X182000000Y-86500000D02*
X180000000Y-88500000D01*
D25*
X182750000Y-85500000D02*
X182750000Y-85000000D01*
D24*
X182750000Y-86500000D02*
X182000000Y-86500000D01*
D23*
X182400000Y-84500000D02*
X182400000Y-85150000D01*
D25*
X182750000Y-86500000D02*
X182750000Y-85500000D01*
D23*
X182400000Y-85150000D02*
X182750000Y-85500000D01*
X182400000Y-54000000D02*
X182400000Y-54650000D01*
X182400000Y-54650000D02*
X182750000Y-55000000D01*
D25*
X182750000Y-55000000D02*
X182750000Y-54500000D01*
D24*
X182750000Y-56000000D02*
X182000000Y-56000000D01*
D25*
X182750000Y-56000000D02*
X182750000Y-55000000D01*
D24*
X182000000Y-56000000D02*
X180000000Y-58000000D01*
X182000000Y-25500000D02*
X180000000Y-27500000D01*
X182750000Y-25500000D02*
X182000000Y-25500000D01*
D23*
X182400000Y-23500000D02*
X182400000Y-24150000D01*
X182400000Y-24150000D02*
X182750000Y-24500000D01*
D25*
X182750000Y-25500000D02*
X182750000Y-24500000D01*
X182750000Y-24500000D02*
X182750000Y-24000000D01*
D24*
X160000000Y-25500000D02*
X158000000Y-27500000D01*
X160750000Y-25500000D02*
X160000000Y-25500000D01*
D23*
X160400000Y-24150000D02*
X160750000Y-24500000D01*
X160400000Y-23500000D02*
X160400000Y-24150000D01*
D25*
X160750000Y-24500000D02*
X160750000Y-24000000D01*
X160750000Y-25500000D02*
X160750000Y-24500000D01*
X160750000Y-86500000D02*
X160750000Y-85500000D01*
X160750000Y-85500000D02*
X160750000Y-85000000D01*
D23*
X160400000Y-84500000D02*
X160400000Y-85150000D01*
X160400000Y-85150000D02*
X160750000Y-85500000D01*
D24*
X160750000Y-86500000D02*
X160000000Y-86500000D01*
X160000000Y-86500000D02*
X158000000Y-88500000D01*
D25*
X160750000Y-56000000D02*
X160750000Y-55000000D01*
X160750000Y-55000000D02*
X160750000Y-54500000D01*
D23*
X160400000Y-54000000D02*
X160400000Y-54650000D01*
X160400000Y-54650000D02*
X160750000Y-55000000D01*
D24*
X160750000Y-56000000D02*
X160000000Y-56000000D01*
X160000000Y-56000000D02*
X158000000Y-58000000D01*
D22*
X235000000Y-102000000D02*
X235000000Y-102750000D01*
X234175000Y-101175000D02*
X235000000Y-102000000D01*
X234175000Y-100100000D02*
X234175000Y-101175000D01*
X234175000Y-70675000D02*
X235000000Y-71500000D01*
X234175000Y-69600000D02*
X234175000Y-70675000D01*
X235000000Y-71500000D02*
X235000000Y-72250000D01*
X234175000Y-40175000D02*
X235000000Y-41000000D01*
X235000000Y-41000000D02*
X235000000Y-41750000D01*
X234175000Y-39100000D02*
X234175000Y-40175000D01*
X213000000Y-102000000D02*
X213000000Y-102750000D01*
X212175000Y-101175000D02*
X213000000Y-102000000D01*
X212175000Y-100100000D02*
X212175000Y-101175000D01*
X212175000Y-70675000D02*
X213000000Y-71500000D01*
X212175000Y-69600000D02*
X212175000Y-70675000D01*
X213000000Y-71500000D02*
X213000000Y-72250000D01*
X212175000Y-40175000D02*
X213000000Y-41000000D01*
X213000000Y-41000000D02*
X213000000Y-41750000D01*
X212175000Y-39100000D02*
X212175000Y-40175000D01*
X190175000Y-69600000D02*
X190175000Y-70675000D01*
X191000000Y-71500000D02*
X191000000Y-72250000D01*
X190175000Y-70675000D02*
X191000000Y-71500000D01*
X190175000Y-101175000D02*
X191000000Y-102000000D01*
X190175000Y-100100000D02*
X190175000Y-101175000D01*
X191000000Y-102000000D02*
X191000000Y-102750000D01*
X191000000Y-41000000D02*
X191000000Y-41750000D01*
X190175000Y-39100000D02*
X190175000Y-40175000D01*
X190175000Y-40175000D02*
X191000000Y-41000000D01*
X169000000Y-41000000D02*
X169000000Y-41750000D01*
X168175000Y-40175000D02*
X169000000Y-41000000D01*
X168175000Y-39100000D02*
X168175000Y-40175000D01*
X168175000Y-100100000D02*
X168175000Y-101175000D01*
X168175000Y-101175000D02*
X169000000Y-102000000D01*
X169000000Y-102000000D02*
X169000000Y-102750000D01*
X168175000Y-69600000D02*
X168175000Y-70675000D01*
X168175000Y-70675000D02*
X169000000Y-71500000D01*
X169000000Y-71500000D02*
X169000000Y-72250000D01*
X229000000Y-102750000D02*
X229000000Y-100195000D01*
X229000000Y-100195000D02*
X229095000Y-100100000D01*
X229000000Y-72250000D02*
X229000000Y-69695000D01*
X229000000Y-69695000D02*
X229095000Y-69600000D01*
X229000000Y-39195000D02*
X229095000Y-39100000D01*
X229000000Y-41750000D02*
X229000000Y-39195000D01*
X207000000Y-102750000D02*
X207000000Y-100195000D01*
X207000000Y-100195000D02*
X207095000Y-100100000D01*
X207000000Y-72250000D02*
X207000000Y-69695000D01*
X207000000Y-69695000D02*
X207095000Y-69600000D01*
X207000000Y-39195000D02*
X207095000Y-39100000D01*
X207000000Y-41750000D02*
X207000000Y-39195000D01*
X185000000Y-72250000D02*
X185000000Y-69695000D01*
X185000000Y-69695000D02*
X185095000Y-69600000D01*
X185000000Y-100195000D02*
X185095000Y-100100000D01*
X185000000Y-102750000D02*
X185000000Y-100195000D01*
X185000000Y-39195000D02*
X185095000Y-39100000D01*
X185000000Y-41750000D02*
X185000000Y-39195000D01*
X163000000Y-39195000D02*
X163095000Y-39100000D01*
X163000000Y-41750000D02*
X163000000Y-39195000D01*
X163000000Y-102750000D02*
X163000000Y-100195000D01*
X163000000Y-100195000D02*
X163095000Y-100100000D01*
X163000000Y-72250000D02*
X163000000Y-69695000D01*
X163000000Y-69695000D02*
X163095000Y-69600000D01*
X227825000Y-101925000D02*
X227825000Y-100100000D01*
X227250000Y-102500000D02*
X227825000Y-101925000D01*
X227825000Y-71425000D02*
X227825000Y-69600000D01*
X227250000Y-72000000D02*
X227825000Y-71425000D01*
X227250000Y-41500000D02*
X227825000Y-40925000D01*
X227825000Y-40925000D02*
X227825000Y-39100000D01*
X205825000Y-101925000D02*
X205825000Y-100100000D01*
X205250000Y-102500000D02*
X205825000Y-101925000D01*
X205825000Y-71425000D02*
X205825000Y-69600000D01*
X205250000Y-72000000D02*
X205825000Y-71425000D01*
X205250000Y-41500000D02*
X205825000Y-40925000D01*
X205825000Y-40925000D02*
X205825000Y-39100000D01*
X183250000Y-72000000D02*
X183825000Y-71425000D01*
X183825000Y-71425000D02*
X183825000Y-69600000D01*
X183825000Y-101925000D02*
X183825000Y-100100000D01*
X183250000Y-102500000D02*
X183825000Y-101925000D01*
X183250000Y-41500000D02*
X183825000Y-40925000D01*
X183825000Y-40925000D02*
X183825000Y-39100000D01*
X161825000Y-40925000D02*
X161825000Y-39100000D01*
X161250000Y-41500000D02*
X161825000Y-40925000D01*
X161250000Y-102500000D02*
X161825000Y-101925000D01*
X161825000Y-101925000D02*
X161825000Y-100100000D01*
X161250000Y-72000000D02*
X161825000Y-71425000D01*
X161825000Y-71425000D02*
X161825000Y-69600000D01*
X239000000Y-108500000D02*
X239000000Y-95000000D01*
X237000000Y-93000000D02*
X235425000Y-93000000D01*
X234175000Y-94250000D02*
X234175000Y-94700000D01*
X235425000Y-93000000D02*
X234175000Y-94250000D01*
X239000000Y-95000000D02*
X237000000Y-93000000D01*
X233500000Y-110500000D02*
X237000000Y-110500000D01*
X233500000Y-110500000D02*
X232960000Y-110500000D01*
X237000000Y-110500000D02*
X239000000Y-108500000D01*
X232960000Y-110500000D02*
X230960000Y-108500000D01*
X239000000Y-64500000D02*
X237000000Y-62500000D01*
X235425000Y-62500000D02*
X234175000Y-63750000D01*
X237000000Y-62500000D02*
X235425000Y-62500000D01*
X234175000Y-63750000D02*
X234175000Y-64200000D01*
X239000000Y-78000000D02*
X239000000Y-64500000D01*
X233500000Y-80000000D02*
X237000000Y-80000000D01*
X233500000Y-80000000D02*
X232960000Y-80000000D01*
X237000000Y-80000000D02*
X239000000Y-78000000D01*
X232960000Y-80000000D02*
X230960000Y-78000000D01*
X237000000Y-32000000D02*
X235425000Y-32000000D01*
X239000000Y-34000000D02*
X237000000Y-32000000D01*
X235425000Y-32000000D02*
X234175000Y-33250000D01*
X234175000Y-33250000D02*
X234175000Y-33700000D01*
X233500000Y-49500000D02*
X237000000Y-49500000D01*
X237000000Y-49500000D02*
X239000000Y-47500000D01*
X233500000Y-49500000D02*
X232960000Y-49500000D01*
X239000000Y-47500000D02*
X239000000Y-34000000D01*
X232960000Y-49500000D02*
X230960000Y-47500000D01*
X217000000Y-108500000D02*
X217000000Y-95000000D01*
X215000000Y-93000000D02*
X213425000Y-93000000D01*
X212175000Y-94250000D02*
X212175000Y-94700000D01*
X213425000Y-93000000D02*
X212175000Y-94250000D01*
X217000000Y-95000000D02*
X215000000Y-93000000D01*
X211500000Y-110500000D02*
X215000000Y-110500000D01*
X211500000Y-110500000D02*
X210960000Y-110500000D01*
X215000000Y-110500000D02*
X217000000Y-108500000D01*
X210960000Y-110500000D02*
X208960000Y-108500000D01*
X217000000Y-64500000D02*
X215000000Y-62500000D01*
X213425000Y-62500000D02*
X212175000Y-63750000D01*
X215000000Y-62500000D02*
X213425000Y-62500000D01*
X212175000Y-63750000D02*
X212175000Y-64200000D01*
X217000000Y-78000000D02*
X217000000Y-64500000D01*
X211500000Y-80000000D02*
X215000000Y-80000000D01*
X211500000Y-80000000D02*
X210960000Y-80000000D01*
X215000000Y-80000000D02*
X217000000Y-78000000D01*
X210960000Y-80000000D02*
X208960000Y-78000000D01*
X215000000Y-32000000D02*
X213425000Y-32000000D01*
X217000000Y-34000000D02*
X215000000Y-32000000D01*
X213425000Y-32000000D02*
X212175000Y-33250000D01*
X212175000Y-33250000D02*
X212175000Y-33700000D01*
X211500000Y-49500000D02*
X215000000Y-49500000D01*
X215000000Y-49500000D02*
X217000000Y-47500000D01*
X211500000Y-49500000D02*
X210960000Y-49500000D01*
X217000000Y-47500000D02*
X217000000Y-34000000D01*
X210960000Y-49500000D02*
X208960000Y-47500000D01*
X188960000Y-80000000D02*
X186960000Y-78000000D01*
X189500000Y-80000000D02*
X188960000Y-80000000D01*
X189500000Y-80000000D02*
X193000000Y-80000000D01*
X193000000Y-80000000D02*
X195000000Y-78000000D01*
X195000000Y-78000000D02*
X195000000Y-64500000D01*
X189500000Y-110500000D02*
X188960000Y-110500000D01*
X188960000Y-110500000D02*
X186960000Y-108500000D01*
X193000000Y-110500000D02*
X195000000Y-108500000D01*
X189500000Y-110500000D02*
X193000000Y-110500000D01*
X190175000Y-94250000D02*
X190175000Y-94700000D01*
X195000000Y-95000000D02*
X193000000Y-93000000D01*
X191425000Y-93000000D02*
X190175000Y-94250000D01*
X193000000Y-93000000D02*
X191425000Y-93000000D01*
X195000000Y-108500000D02*
X195000000Y-95000000D01*
X193000000Y-62500000D02*
X191425000Y-62500000D01*
X191425000Y-62500000D02*
X190175000Y-63750000D01*
X190175000Y-63750000D02*
X190175000Y-64200000D01*
X195000000Y-64500000D02*
X193000000Y-62500000D01*
X193000000Y-49500000D02*
X195000000Y-47500000D01*
X189500000Y-49500000D02*
X193000000Y-49500000D01*
X188960000Y-49500000D02*
X186960000Y-47500000D01*
X189500000Y-49500000D02*
X188960000Y-49500000D01*
X195000000Y-47500000D02*
X195000000Y-34000000D01*
X190175000Y-33250000D02*
X190175000Y-33700000D01*
X195000000Y-34000000D02*
X193000000Y-32000000D01*
X191425000Y-32000000D02*
X190175000Y-33250000D01*
X193000000Y-32000000D02*
X191425000Y-32000000D01*
X168175000Y-33250000D02*
X168175000Y-33700000D01*
X171000000Y-32000000D02*
X169425000Y-32000000D01*
X169425000Y-32000000D02*
X168175000Y-33250000D01*
X173000000Y-34000000D02*
X171000000Y-32000000D01*
X173000000Y-47500000D02*
X173000000Y-34000000D01*
X171000000Y-49500000D02*
X173000000Y-47500000D01*
X166960000Y-49500000D02*
X164960000Y-47500000D01*
X167500000Y-49500000D02*
X166960000Y-49500000D01*
X167500000Y-49500000D02*
X171000000Y-49500000D01*
X167500000Y-110500000D02*
X171000000Y-110500000D01*
X167500000Y-110500000D02*
X166960000Y-110500000D01*
X166960000Y-110500000D02*
X164960000Y-108500000D01*
X171000000Y-110500000D02*
X173000000Y-108500000D01*
X173000000Y-108500000D02*
X173000000Y-95000000D01*
X173000000Y-95000000D02*
X171000000Y-93000000D01*
X169425000Y-93000000D02*
X168175000Y-94250000D01*
X171000000Y-93000000D02*
X169425000Y-93000000D01*
X168175000Y-94250000D02*
X168175000Y-94700000D01*
X167500000Y-80000000D02*
X171000000Y-80000000D01*
X167500000Y-80000000D02*
X166960000Y-80000000D01*
X166960000Y-80000000D02*
X164960000Y-78000000D01*
X171000000Y-80000000D02*
X173000000Y-78000000D01*
X173000000Y-78000000D02*
X173000000Y-64500000D01*
X173000000Y-64500000D02*
X171000000Y-62500000D01*
X169425000Y-62500000D02*
X168175000Y-63750000D01*
X171000000Y-62500000D02*
X169425000Y-62500000D01*
X168175000Y-63750000D02*
X168175000Y-64200000D01*
X230420000Y-106500000D02*
X228420000Y-108500000D01*
X231500000Y-106500000D02*
X230420000Y-106500000D01*
X232500000Y-105500000D02*
X231500000Y-106500000D01*
X231635000Y-100100000D02*
X231635000Y-101635000D01*
X231635000Y-101635000D02*
X232500000Y-102500000D01*
X232500000Y-102500000D02*
X232500000Y-105500000D01*
X232500000Y-72000000D02*
X232500000Y-75000000D01*
X231500000Y-76000000D02*
X230420000Y-76000000D01*
X232500000Y-75000000D02*
X231500000Y-76000000D01*
X230420000Y-76000000D02*
X228420000Y-78000000D01*
X231635000Y-71135000D02*
X232500000Y-72000000D01*
X231635000Y-69600000D02*
X231635000Y-71135000D01*
X232500000Y-41500000D02*
X232500000Y-44500000D01*
X231635000Y-39100000D02*
X231635000Y-40635000D01*
X231635000Y-40635000D02*
X232500000Y-41500000D01*
X231500000Y-45500000D02*
X230420000Y-45500000D01*
X232500000Y-44500000D02*
X231500000Y-45500000D01*
X230420000Y-45500000D02*
X228420000Y-47500000D01*
X208420000Y-106500000D02*
X206420000Y-108500000D01*
X209500000Y-106500000D02*
X208420000Y-106500000D01*
X210500000Y-105500000D02*
X209500000Y-106500000D01*
X209635000Y-100100000D02*
X209635000Y-101635000D01*
X209635000Y-101635000D02*
X210500000Y-102500000D01*
X210500000Y-102500000D02*
X210500000Y-105500000D01*
X210500000Y-72000000D02*
X210500000Y-75000000D01*
X209500000Y-76000000D02*
X208420000Y-76000000D01*
X210500000Y-75000000D02*
X209500000Y-76000000D01*
X208420000Y-76000000D02*
X206420000Y-78000000D01*
X209635000Y-71135000D02*
X210500000Y-72000000D01*
X209635000Y-69600000D02*
X209635000Y-71135000D01*
X210500000Y-41500000D02*
X210500000Y-44500000D01*
X209635000Y-39100000D02*
X209635000Y-40635000D01*
X209635000Y-40635000D02*
X210500000Y-41500000D01*
X209500000Y-45500000D02*
X208420000Y-45500000D01*
X210500000Y-44500000D02*
X209500000Y-45500000D01*
X208420000Y-45500000D02*
X206420000Y-47500000D01*
X187635000Y-71135000D02*
X188500000Y-72000000D01*
X187635000Y-69600000D02*
X187635000Y-71135000D01*
X186420000Y-76000000D02*
X184420000Y-78000000D01*
X188500000Y-75000000D02*
X187500000Y-76000000D01*
X187500000Y-76000000D02*
X186420000Y-76000000D01*
X188500000Y-72000000D02*
X188500000Y-75000000D01*
X188500000Y-102500000D02*
X188500000Y-105500000D01*
X187500000Y-106500000D02*
X186420000Y-106500000D01*
X188500000Y-105500000D02*
X187500000Y-106500000D01*
X186420000Y-106500000D02*
X184420000Y-108500000D01*
X187635000Y-101635000D02*
X188500000Y-102500000D01*
X187635000Y-100100000D02*
X187635000Y-101635000D01*
X188500000Y-44500000D02*
X187500000Y-45500000D01*
X186420000Y-45500000D02*
X184420000Y-47500000D01*
X187500000Y-45500000D02*
X186420000Y-45500000D01*
X188500000Y-41500000D02*
X188500000Y-44500000D01*
X187635000Y-40635000D02*
X188500000Y-41500000D01*
X187635000Y-39100000D02*
X187635000Y-40635000D01*
X166500000Y-44500000D02*
X165500000Y-45500000D01*
X166500000Y-41500000D02*
X166500000Y-44500000D01*
X165635000Y-40635000D02*
X166500000Y-41500000D01*
X165635000Y-39100000D02*
X165635000Y-40635000D01*
X164420000Y-45500000D02*
X162420000Y-47500000D01*
X165500000Y-45500000D02*
X164420000Y-45500000D01*
X165500000Y-106500000D02*
X164420000Y-106500000D01*
X164420000Y-106500000D02*
X162420000Y-108500000D01*
X165635000Y-100100000D02*
X165635000Y-101635000D01*
X165635000Y-101635000D02*
X166500000Y-102500000D01*
X166500000Y-102500000D02*
X166500000Y-105500000D01*
X166500000Y-105500000D02*
X165500000Y-106500000D01*
X165500000Y-76000000D02*
X164420000Y-76000000D01*
X164420000Y-76000000D02*
X162420000Y-78000000D01*
X165635000Y-69600000D02*
X165635000Y-71135000D01*
X165635000Y-71135000D02*
X166500000Y-72000000D01*
X166500000Y-72000000D02*
X166500000Y-75000000D01*
X166500000Y-75000000D02*
X165500000Y-76000000D01*
X232905000Y-100100000D02*
X232905000Y-101405000D01*
X232905000Y-101405000D02*
X233500000Y-102000000D01*
X233500000Y-102000000D02*
X233500000Y-106080000D01*
X233500000Y-106080000D02*
X233500000Y-108500000D01*
X233500000Y-71500000D02*
X233500000Y-75580000D01*
X233500000Y-75580000D02*
X233500000Y-78000000D01*
X232905000Y-70905000D02*
X233500000Y-71500000D01*
X232905000Y-69600000D02*
X232905000Y-70905000D01*
X233500000Y-41000000D02*
X233500000Y-45080000D01*
X232905000Y-40405000D02*
X233500000Y-41000000D01*
X232905000Y-39100000D02*
X232905000Y-40405000D01*
X233500000Y-45080000D02*
X233500000Y-47500000D01*
X210905000Y-100100000D02*
X210905000Y-101405000D01*
X210905000Y-101405000D02*
X211500000Y-102000000D01*
X211500000Y-102000000D02*
X211500000Y-106080000D01*
X211500000Y-106080000D02*
X211500000Y-108500000D01*
X211500000Y-71500000D02*
X211500000Y-75580000D01*
X211500000Y-75580000D02*
X211500000Y-78000000D01*
X210905000Y-70905000D02*
X211500000Y-71500000D01*
X210905000Y-69600000D02*
X210905000Y-70905000D01*
X211500000Y-41000000D02*
X211500000Y-45080000D01*
X210905000Y-40405000D02*
X211500000Y-41000000D01*
X210905000Y-39100000D02*
X210905000Y-40405000D01*
X211500000Y-45080000D02*
X211500000Y-47500000D01*
X188905000Y-69600000D02*
X188905000Y-70905000D01*
X188905000Y-70905000D02*
X189500000Y-71500000D01*
X189500000Y-71500000D02*
X189500000Y-75580000D01*
X189500000Y-75580000D02*
X189500000Y-78000000D01*
X189500000Y-106080000D02*
X189500000Y-108500000D01*
X189500000Y-102000000D02*
X189500000Y-106080000D01*
X188905000Y-100100000D02*
X188905000Y-101405000D01*
X188905000Y-101405000D02*
X189500000Y-102000000D01*
X189500000Y-45080000D02*
X189500000Y-47500000D01*
X189500000Y-41000000D02*
X189500000Y-45080000D01*
X188905000Y-40405000D02*
X189500000Y-41000000D01*
X188905000Y-39100000D02*
X188905000Y-40405000D01*
X167500000Y-41000000D02*
X167500000Y-45080000D01*
X166905000Y-40405000D02*
X167500000Y-41000000D01*
X166905000Y-39100000D02*
X166905000Y-40405000D01*
X167500000Y-45080000D02*
X167500000Y-47500000D01*
X167500000Y-106080000D02*
X167500000Y-108500000D01*
X166905000Y-100100000D02*
X166905000Y-101405000D01*
X166905000Y-101405000D02*
X167500000Y-102000000D01*
X167500000Y-102000000D02*
X167500000Y-106080000D01*
X167500000Y-75580000D02*
X167500000Y-78000000D01*
X166905000Y-69600000D02*
X166905000Y-70905000D01*
X166905000Y-70905000D02*
X167500000Y-71500000D01*
X167500000Y-71500000D02*
X167500000Y-75580000D01*
D24*
X224000000Y-90500000D02*
X224000000Y-91500000D01*
X224000000Y-91695000D02*
X226555000Y-94250000D01*
X224000000Y-91500000D02*
X224000000Y-92750000D01*
X224000000Y-91500000D02*
X224000000Y-91695000D01*
D26*
X226505000Y-94750000D02*
X226555000Y-94700000D01*
D24*
X226555000Y-94250000D02*
X226555000Y-94700000D01*
X224000000Y-61000000D02*
X224000000Y-61195000D01*
X226555000Y-63750000D02*
X226555000Y-64200000D01*
X224000000Y-61000000D02*
X224000000Y-62250000D01*
X224000000Y-61195000D02*
X226555000Y-63750000D01*
D26*
X226505000Y-64250000D02*
X226555000Y-64200000D01*
D24*
X224000000Y-60000000D02*
X224000000Y-61000000D01*
X224000000Y-30500000D02*
X224000000Y-31750000D01*
X224000000Y-29500000D02*
X224000000Y-30500000D01*
X224000000Y-30500000D02*
X224000000Y-30695000D01*
X226555000Y-33250000D02*
X226555000Y-33700000D01*
X224000000Y-30695000D02*
X226555000Y-33250000D01*
D26*
X226505000Y-33750000D02*
X226555000Y-33700000D01*
D24*
X202000000Y-90500000D02*
X202000000Y-91500000D01*
X202000000Y-91695000D02*
X204555000Y-94250000D01*
X202000000Y-91500000D02*
X202000000Y-92750000D01*
X202000000Y-91500000D02*
X202000000Y-91695000D01*
D26*
X204505000Y-94750000D02*
X204555000Y-94700000D01*
D24*
X204555000Y-94250000D02*
X204555000Y-94700000D01*
X202000000Y-61000000D02*
X202000000Y-61195000D01*
X204555000Y-63750000D02*
X204555000Y-64200000D01*
X202000000Y-61000000D02*
X202000000Y-62250000D01*
X202000000Y-61195000D02*
X204555000Y-63750000D01*
D26*
X204505000Y-64250000D02*
X204555000Y-64200000D01*
D24*
X202000000Y-60000000D02*
X202000000Y-61000000D01*
X202000000Y-30500000D02*
X202000000Y-31750000D01*
X202000000Y-29500000D02*
X202000000Y-30500000D01*
X202000000Y-30500000D02*
X202000000Y-30695000D01*
X204555000Y-33250000D02*
X204555000Y-33700000D01*
X202000000Y-30695000D02*
X204555000Y-33250000D01*
D26*
X204505000Y-33750000D02*
X204555000Y-33700000D01*
D24*
X182555000Y-94250000D02*
X182555000Y-94700000D01*
D26*
X182505000Y-94750000D02*
X182555000Y-94700000D01*
D24*
X180000000Y-91500000D02*
X180000000Y-91695000D01*
X180000000Y-91500000D02*
X180000000Y-92750000D01*
X180000000Y-91695000D02*
X182555000Y-94250000D01*
X180000000Y-90500000D02*
X180000000Y-91500000D01*
D26*
X182505000Y-64250000D02*
X182555000Y-64200000D01*
D24*
X180000000Y-61195000D02*
X182555000Y-63750000D01*
X182555000Y-63750000D02*
X182555000Y-64200000D01*
X180000000Y-61000000D02*
X180000000Y-62250000D01*
X180000000Y-61000000D02*
X180000000Y-61195000D01*
X180000000Y-60000000D02*
X180000000Y-61000000D01*
X180000000Y-29500000D02*
X180000000Y-30500000D01*
X182555000Y-33250000D02*
X182555000Y-33700000D01*
D26*
X182505000Y-33750000D02*
X182555000Y-33700000D01*
D24*
X180000000Y-30695000D02*
X182555000Y-33250000D01*
X180000000Y-30500000D02*
X180000000Y-30695000D01*
X180000000Y-30500000D02*
X180000000Y-31750000D01*
D26*
X160505000Y-33750000D02*
X160555000Y-33700000D01*
D24*
X160555000Y-33250000D02*
X160555000Y-33700000D01*
X158000000Y-30500000D02*
X158000000Y-30695000D01*
X158000000Y-29500000D02*
X158000000Y-30500000D01*
X158000000Y-30695000D02*
X160555000Y-33250000D01*
X158000000Y-30500000D02*
X158000000Y-31750000D01*
X158000000Y-91500000D02*
X158000000Y-92750000D01*
X158000000Y-91695000D02*
X160555000Y-94250000D01*
X158000000Y-90500000D02*
X158000000Y-91500000D01*
X158000000Y-91500000D02*
X158000000Y-91695000D01*
X160555000Y-94250000D02*
X160555000Y-94700000D01*
D26*
X160505000Y-94750000D02*
X160555000Y-94700000D01*
D24*
X158000000Y-61000000D02*
X158000000Y-62250000D01*
X158000000Y-61195000D02*
X160555000Y-63750000D01*
X158000000Y-60000000D02*
X158000000Y-61000000D01*
X158000000Y-61000000D02*
X158000000Y-61195000D01*
X160555000Y-63750000D02*
X160555000Y-64200000D01*
D26*
X160505000Y-64250000D02*
X160555000Y-64200000D01*
D22*
X235445000Y-100945000D02*
X235445000Y-100100000D01*
X237000000Y-102500000D02*
X235445000Y-100945000D01*
X237000000Y-102750000D02*
X237000000Y-102500000D01*
X235445000Y-70445000D02*
X235445000Y-69600000D01*
X237000000Y-72250000D02*
X237000000Y-72000000D01*
X237000000Y-72000000D02*
X235445000Y-70445000D01*
X237000000Y-41500000D02*
X235445000Y-39945000D01*
X235445000Y-39945000D02*
X235445000Y-39100000D01*
X237000000Y-41750000D02*
X237000000Y-41500000D01*
X213445000Y-100945000D02*
X213445000Y-100100000D01*
X215000000Y-102500000D02*
X213445000Y-100945000D01*
X215000000Y-102750000D02*
X215000000Y-102500000D01*
X213445000Y-70445000D02*
X213445000Y-69600000D01*
X215000000Y-72250000D02*
X215000000Y-72000000D01*
X215000000Y-72000000D02*
X213445000Y-70445000D01*
X215000000Y-41500000D02*
X213445000Y-39945000D01*
X213445000Y-39945000D02*
X213445000Y-39100000D01*
X215000000Y-41750000D02*
X215000000Y-41500000D01*
X193000000Y-72250000D02*
X193000000Y-72000000D01*
X193000000Y-72000000D02*
X191445000Y-70445000D01*
X191445000Y-70445000D02*
X191445000Y-69600000D01*
X193000000Y-102750000D02*
X193000000Y-102500000D01*
X193000000Y-102500000D02*
X191445000Y-100945000D01*
X191445000Y-100945000D02*
X191445000Y-100100000D01*
X193000000Y-41500000D02*
X191445000Y-39945000D01*
X191445000Y-39945000D02*
X191445000Y-39100000D01*
X193000000Y-41750000D02*
X193000000Y-41500000D01*
X169445000Y-39945000D02*
X169445000Y-39100000D01*
X171000000Y-41500000D02*
X169445000Y-39945000D01*
X171000000Y-41750000D02*
X171000000Y-41500000D01*
X171000000Y-102750000D02*
X171000000Y-102500000D01*
X171000000Y-102500000D02*
X169445000Y-100945000D01*
X169445000Y-100945000D02*
X169445000Y-100100000D01*
X171000000Y-72250000D02*
X171000000Y-72000000D01*
X171000000Y-72000000D02*
X169445000Y-70445000D01*
X169445000Y-70445000D02*
X169445000Y-69600000D01*
X225750000Y-100905000D02*
X226555000Y-100100000D01*
X225750000Y-102500000D02*
X225750000Y-100905000D01*
X225750000Y-72000000D02*
X225750000Y-70405000D01*
X225750000Y-70405000D02*
X226555000Y-69600000D01*
X225750000Y-39905000D02*
X226555000Y-39100000D01*
X225750000Y-41500000D02*
X225750000Y-39905000D01*
X203750000Y-100905000D02*
X204555000Y-100100000D01*
X203750000Y-102500000D02*
X203750000Y-100905000D01*
X203750000Y-72000000D02*
X203750000Y-70405000D01*
X203750000Y-70405000D02*
X204555000Y-69600000D01*
X203750000Y-39905000D02*
X204555000Y-39100000D01*
X203750000Y-41500000D02*
X203750000Y-39905000D01*
X181750000Y-70405000D02*
X182555000Y-69600000D01*
X181750000Y-72000000D02*
X181750000Y-70405000D01*
X181750000Y-102500000D02*
X181750000Y-100905000D01*
X181750000Y-100905000D02*
X182555000Y-100100000D01*
X181750000Y-39905000D02*
X182555000Y-39100000D01*
X181750000Y-41500000D02*
X181750000Y-39905000D01*
X159750000Y-39905000D02*
X160555000Y-39100000D01*
X159750000Y-41500000D02*
X159750000Y-39905000D01*
X159750000Y-102500000D02*
X159750000Y-100905000D01*
X159750000Y-100905000D02*
X160555000Y-100100000D01*
X159750000Y-72000000D02*
X159750000Y-70405000D01*
X159750000Y-70405000D02*
X160555000Y-69600000D01*
D24*
X228750000Y-88250000D02*
X228500000Y-88500000D01*
X228250000Y-88250000D02*
X228500000Y-88500000D01*
X228250000Y-86500000D02*
X228250000Y-88250000D01*
X228250000Y-56000000D02*
X228250000Y-57750000D01*
X228250000Y-57750000D02*
X228500000Y-58000000D01*
X228750000Y-57750000D02*
X228500000Y-58000000D01*
X228250000Y-25500000D02*
X228250000Y-27250000D01*
X228750000Y-27250000D02*
X228500000Y-27500000D01*
X228250000Y-27250000D02*
X228500000Y-27500000D01*
X206750000Y-88250000D02*
X206500000Y-88500000D01*
X206250000Y-88250000D02*
X206500000Y-88500000D01*
X206250000Y-86500000D02*
X206250000Y-88250000D01*
X206250000Y-56000000D02*
X206250000Y-57750000D01*
X206250000Y-57750000D02*
X206500000Y-58000000D01*
X206750000Y-57750000D02*
X206500000Y-58000000D01*
X206250000Y-25500000D02*
X206250000Y-27250000D01*
X206750000Y-27250000D02*
X206500000Y-27500000D01*
X206250000Y-27250000D02*
X206500000Y-27500000D01*
X184250000Y-88250000D02*
X184500000Y-88500000D01*
X184750000Y-88250000D02*
X184500000Y-88500000D01*
X184250000Y-86500000D02*
X184250000Y-88250000D01*
X184750000Y-57750000D02*
X184500000Y-58000000D01*
X184250000Y-57750000D02*
X184500000Y-58000000D01*
X184250000Y-56000000D02*
X184250000Y-57750000D01*
X184250000Y-25500000D02*
X184250000Y-27250000D01*
X184750000Y-27250000D02*
X184500000Y-27500000D01*
X184250000Y-27250000D02*
X184500000Y-27500000D01*
X162750000Y-27250000D02*
X162500000Y-27500000D01*
X162250000Y-27250000D02*
X162500000Y-27500000D01*
X162250000Y-25500000D02*
X162250000Y-27250000D01*
X162250000Y-86500000D02*
X162250000Y-88250000D01*
X162250000Y-88250000D02*
X162500000Y-88500000D01*
X162750000Y-88250000D02*
X162500000Y-88500000D01*
X162250000Y-56000000D02*
X162250000Y-57750000D01*
X162250000Y-57750000D02*
X162500000Y-58000000D01*
X162750000Y-57750000D02*
X162500000Y-58000000D01*
X226500000Y-88500000D02*
X226500000Y-90500000D01*
X226500000Y-58000000D02*
X226500000Y-60000000D01*
X226500000Y-27500000D02*
X226500000Y-29500000D01*
X204500000Y-88500000D02*
X204500000Y-90500000D01*
X204500000Y-58000000D02*
X204500000Y-60000000D01*
X204500000Y-27500000D02*
X204500000Y-29500000D01*
X182500000Y-88500000D02*
X182500000Y-90500000D01*
X182500000Y-58000000D02*
X182500000Y-60000000D01*
X182500000Y-27500000D02*
X182500000Y-29500000D01*
X160500000Y-27500000D02*
X160500000Y-29500000D01*
X160500000Y-88500000D02*
X160500000Y-90500000D01*
X160500000Y-58000000D02*
X160500000Y-60000000D01*
X228500000Y-90500000D02*
X229095000Y-91095000D01*
X229095000Y-91095000D02*
X229095000Y-94700000D01*
X229095000Y-60595000D02*
X229095000Y-64200000D01*
X228500000Y-60000000D02*
X229095000Y-60595000D01*
X229095000Y-30095000D02*
X229095000Y-33700000D01*
X228500000Y-29500000D02*
X229095000Y-30095000D01*
X206500000Y-90500000D02*
X207095000Y-91095000D01*
X207095000Y-91095000D02*
X207095000Y-94700000D01*
X207095000Y-60595000D02*
X207095000Y-64200000D01*
X206500000Y-60000000D02*
X207095000Y-60595000D01*
X207095000Y-30095000D02*
X207095000Y-33700000D01*
X206500000Y-29500000D02*
X207095000Y-30095000D01*
X185095000Y-91095000D02*
X185095000Y-94700000D01*
X184500000Y-90500000D02*
X185095000Y-91095000D01*
X185095000Y-60595000D02*
X185095000Y-64200000D01*
X184500000Y-60000000D02*
X185095000Y-60595000D01*
X185095000Y-30095000D02*
X185095000Y-33700000D01*
X184500000Y-29500000D02*
X185095000Y-30095000D01*
X163095000Y-30095000D02*
X163095000Y-33700000D01*
X162500000Y-29500000D02*
X163095000Y-30095000D01*
X162500000Y-90500000D02*
X163095000Y-91095000D01*
X163095000Y-91095000D02*
X163095000Y-94700000D01*
X162500000Y-60000000D02*
X163095000Y-60595000D01*
X163095000Y-60595000D02*
X163095000Y-64200000D01*
D22*
X230365000Y-102115000D02*
X230365000Y-100100000D01*
X231000000Y-102750000D02*
X230365000Y-102115000D01*
X230365000Y-71615000D02*
X230365000Y-69600000D01*
X231000000Y-72250000D02*
X230365000Y-71615000D01*
X231000000Y-41750000D02*
X230365000Y-41115000D01*
X230365000Y-41115000D02*
X230365000Y-39100000D01*
X208365000Y-102115000D02*
X208365000Y-100100000D01*
X209000000Y-102750000D02*
X208365000Y-102115000D01*
X208365000Y-71615000D02*
X208365000Y-69600000D01*
X209000000Y-72250000D02*
X208365000Y-71615000D01*
X209000000Y-41750000D02*
X208365000Y-41115000D01*
X208365000Y-41115000D02*
X208365000Y-39100000D01*
X187000000Y-72250000D02*
X186365000Y-71615000D01*
X186365000Y-71615000D02*
X186365000Y-69600000D01*
X187000000Y-102750000D02*
X186365000Y-102115000D01*
X186365000Y-102115000D02*
X186365000Y-100100000D01*
X187000000Y-41750000D02*
X186365000Y-41115000D01*
X186365000Y-41115000D02*
X186365000Y-39100000D01*
X164365000Y-41115000D02*
X164365000Y-39100000D01*
X165000000Y-41750000D02*
X164365000Y-41115000D01*
X165000000Y-102750000D02*
X164365000Y-102115000D01*
X164365000Y-102115000D02*
X164365000Y-100100000D01*
X165000000Y-72250000D02*
X164365000Y-71615000D01*
X164365000Y-71615000D02*
X164365000Y-69600000D01*
D24*
X232905000Y-94700000D02*
X232905000Y-93105035D01*
X232905000Y-93105035D02*
X234000000Y-92010035D01*
X232905000Y-62605035D02*
X234000000Y-61510035D01*
X232905000Y-64200000D02*
X232905000Y-62605035D01*
X234000000Y-92010035D02*
X234000000Y-84500000D01*
X234000000Y-84500000D02*
X233500000Y-84500000D01*
X234000000Y-61510035D02*
X234000000Y-54000000D01*
X234000000Y-54000000D02*
X233500000Y-54000000D01*
X232905000Y-33700000D02*
X232905000Y-32105035D01*
X232905000Y-32105035D02*
X234000000Y-31010035D01*
X234000000Y-23500000D02*
X233500000Y-23500000D01*
X234000000Y-31010035D02*
X234000000Y-23500000D01*
X210905000Y-94700000D02*
X210905000Y-93105035D01*
X210905000Y-93105035D02*
X212000000Y-92010035D01*
X210905000Y-62605035D02*
X212000000Y-61510035D01*
X210905000Y-64200000D02*
X210905000Y-62605035D01*
X212000000Y-92010035D02*
X212000000Y-84500000D01*
X212000000Y-84500000D02*
X211500000Y-84500000D01*
X212000000Y-61510035D02*
X212000000Y-54000000D01*
X212000000Y-54000000D02*
X211500000Y-54000000D01*
X210905000Y-33700000D02*
X210905000Y-32105035D01*
X210905000Y-32105035D02*
X212000000Y-31010035D01*
X212000000Y-23500000D02*
X211500000Y-23500000D01*
X212000000Y-31010035D02*
X212000000Y-23500000D01*
X188905000Y-93105035D02*
X190000000Y-92010035D01*
X190000000Y-84500000D02*
X189500000Y-84500000D01*
X190000000Y-92010035D02*
X190000000Y-84500000D01*
X188905000Y-94700000D02*
X188905000Y-93105035D01*
X188905000Y-64200000D02*
X188905000Y-62605035D01*
X188905000Y-62605035D02*
X190000000Y-61510035D01*
X190000000Y-61510035D02*
X190000000Y-54000000D01*
X190000000Y-54000000D02*
X189500000Y-54000000D01*
X190000000Y-23500000D02*
X189500000Y-23500000D01*
X190000000Y-31010035D02*
X190000000Y-23500000D01*
X188905000Y-32105035D02*
X190000000Y-31010035D01*
X188905000Y-33700000D02*
X188905000Y-32105035D01*
X168000000Y-23500000D02*
X167500000Y-23500000D01*
X166905000Y-32105035D02*
X168000000Y-31010035D01*
X166905000Y-33700000D02*
X166905000Y-32105035D01*
X168000000Y-31010035D02*
X168000000Y-23500000D01*
X168000000Y-92010035D02*
X168000000Y-84500000D01*
X166905000Y-94700000D02*
X166905000Y-93105035D01*
X166905000Y-93105035D02*
X168000000Y-92010035D01*
X168000000Y-84500000D02*
X167500000Y-84500000D01*
X168000000Y-61510035D02*
X168000000Y-54000000D01*
X166905000Y-64200000D02*
X166905000Y-62605035D01*
X166905000Y-62605035D02*
X168000000Y-61510035D01*
X168000000Y-54000000D02*
X167500000Y-54000000D01*
M02*
