G04 #@! TF.FileFunction,Copper,L2,Bot,Signal*
%FSLAX46Y46*%
G04 Gerber Fmt 4.6, Leading zero omitted, Abs format (unit mm)*
G04 Created by KiCad (PCBNEW 4.0.7) date 2018 June 20, Wednesday 04:28:19*
%MOMM*%
%LPD*%
G01*
G04 APERTURE LIST*
%ADD10C,0.050000*%
%ADD11R,0.889000X0.762000*%
%ADD12C,2.400000*%
%ADD13R,2.400000X2.400000*%
%ADD14R,2.032000X2.032000*%
%ADD15O,2.032000X2.032000*%
%ADD16R,1.700000X1.700000*%
%ADD17O,1.700000X1.700000*%
%ADD18R,1.550000X1.300000*%
%ADD19R,2.032000X1.727200*%
%ADD20O,2.032000X1.727200*%
%ADD21O,1.998980X1.998980*%
%ADD22R,1.998980X1.998980*%
%ADD23C,0.604800*%
%ADD24C,0.609600*%
%ADD25R,0.698500X1.597660*%
%ADD26R,1.399540X1.597660*%
%ADD27R,1.399540X2.199640*%
%ADD28R,1.798320X1.399540*%
%ADD29C,1.000000*%
%ADD30R,1.350000X1.350000*%
%ADD31C,0.600000*%
%ADD32C,0.200000*%
%ADD33C,0.250000*%
%ADD34C,0.400000*%
%ADD35C,0.800000*%
%ADD36C,0.300000*%
%ADD37C,1.000000*%
%ADD38C,0.600000*%
%ADD39C,0.254000*%
G04 APERTURE END LIST*
D10*
D11*
X72990000Y44917000D03*
X72990000Y43393000D03*
X70990000Y44917000D03*
X70990000Y43393000D03*
D12*
X66690000Y10355000D03*
D13*
X66690000Y13855000D03*
D14*
X62750000Y25250000D03*
D15*
X62750000Y27790000D03*
D16*
X6230000Y55455000D03*
D17*
X3690000Y55455000D03*
X1150000Y55455000D03*
D16*
X61600000Y330000D03*
D17*
X59060000Y330000D03*
D16*
X48900000Y330000D03*
D17*
X51440000Y330000D03*
D18*
X67760000Y23505000D03*
X75710000Y23505000D03*
X67760000Y28005000D03*
X75710000Y28005000D03*
D19*
X690000Y15915000D03*
D20*
X690000Y18455000D03*
X690000Y20995000D03*
D16*
X53980000Y330000D03*
D17*
X56520000Y330000D03*
D16*
X64140000Y330000D03*
D21*
X640000Y27520000D03*
D22*
X8260000Y27520000D03*
D21*
X5720000Y27520000D03*
X3180000Y27520000D03*
X20960000Y42760000D03*
D22*
X28580000Y42760000D03*
D21*
X26040000Y42760000D03*
X23500000Y42760000D03*
X18420000Y42760000D03*
X15880000Y27520000D03*
D22*
X23500000Y27520000D03*
D21*
X20960000Y27520000D03*
X18420000Y27520000D03*
X3180000Y42760000D03*
D22*
X10800000Y42760000D03*
D21*
X8260000Y42760000D03*
X5720000Y42760000D03*
X640000Y42760000D03*
D16*
X17610000Y55500000D03*
D17*
X20150000Y55500000D03*
X22690000Y55500000D03*
X25230000Y55500000D03*
X27770000Y55500000D03*
X30310000Y55500000D03*
D23*
X71250000Y20000000D03*
D24*
X69750000Y20000000D03*
D25*
X44309300Y2505960D03*
X43209480Y2505960D03*
X42109660Y2505960D03*
X41012380Y2505960D03*
X39912560Y2505960D03*
X38812740Y2505960D03*
X37712920Y2505960D03*
X36613100Y2505960D03*
X35513280Y2505960D03*
D26*
X34212800Y3105400D03*
D27*
X34212800Y12605000D03*
X49910000Y12605000D03*
D28*
X49010840Y3003800D03*
D29*
X45061400Y13005960D03*
X37061400Y13005960D03*
D30*
X36610000Y30005000D03*
D31*
X34810000Y14505000D03*
X-1690000Y24905000D03*
X44010000Y21305000D03*
D29*
X32010000Y8105000D03*
X32210000Y6105000D03*
X6710000Y14005000D03*
X3710000Y49505000D03*
X27710000Y13005000D03*
D31*
X9960010Y14955000D03*
X9960010Y15955000D03*
D29*
X7190000Y33955000D03*
X5190000Y33955000D03*
D31*
X63190000Y47955000D03*
X68690000Y41955000D03*
X69690000Y41955000D03*
X69690000Y42955000D03*
X68190000Y43955000D03*
X68690000Y42955000D03*
X67690000Y42955000D03*
X62190000Y50455000D03*
X61690000Y49455000D03*
X62190000Y51455000D03*
X61190000Y50455000D03*
X61190000Y51455000D03*
X65190000Y47955000D03*
X64190000Y47955000D03*
X70190000Y12955000D03*
X69190000Y12955000D03*
X69190000Y13955000D03*
X70190000Y13955000D03*
X70190000Y14955000D03*
X69190000Y14955000D03*
X65190000Y15955000D03*
X66190000Y15955000D03*
X67190000Y15955000D03*
X68190000Y15955000D03*
X69190000Y15955000D03*
X70190000Y15955000D03*
X70190000Y16955000D03*
X69190000Y16955000D03*
X68190000Y16955000D03*
X67190000Y16955000D03*
X66190000Y16955000D03*
X65190000Y16955000D03*
X65190000Y17955000D03*
X66190000Y17955000D03*
X67190000Y17955000D03*
X68190000Y17955000D03*
X68190000Y18955000D03*
X68190000Y19955000D03*
X48500000Y17500000D03*
X53690000Y16955000D03*
X53690000Y17955000D03*
X53690000Y19955000D03*
X48500000Y17500000D03*
X51690000Y12455000D03*
X57690000Y12455000D03*
X57690000Y13455000D03*
X60190000Y18455000D03*
X60190000Y19455000D03*
X54690000Y24955000D03*
X54690000Y27955000D03*
D29*
X55190000Y32455000D03*
X55190000Y34455000D03*
D31*
X22190000Y33455000D03*
X19690000Y22955000D03*
X19690000Y9455000D03*
X19690000Y11955000D03*
X25190000Y15455000D03*
X24190000Y14455000D03*
X24690000Y14955000D03*
X-3310000Y18455000D03*
X-3810000Y21455000D03*
X-4310000Y15955000D03*
X-4310000Y12955000D03*
X9690000Y11955000D03*
X9690000Y10955000D03*
X42890000Y455000D03*
X69690000Y22955000D03*
X70690000Y25955000D03*
X69690000Y25955000D03*
X69690000Y24955000D03*
X70690000Y24955000D03*
X70690000Y23955000D03*
X69690000Y23955000D03*
X72690000Y20755000D03*
X74690000Y19955000D03*
X72690000Y18955000D03*
X72690000Y19955000D03*
X61790000Y39155000D03*
X63790000Y38255000D03*
X62890000Y38255000D03*
X61790000Y38255000D03*
X60890000Y38455000D03*
X60190000Y39155000D03*
X60690000Y43455000D03*
X60690000Y44555000D03*
X61790000Y44555000D03*
X61790000Y43455000D03*
X70390000Y48055000D03*
X69490000Y48755000D03*
X69490000Y48055000D03*
X68490000Y48055000D03*
X68490000Y48755000D03*
X68490000Y49655000D03*
X67190000Y51155000D03*
X75390000Y46055000D03*
X75390000Y39055000D03*
X75590000Y9555000D03*
X72990000Y30755000D03*
X23190000Y22455000D03*
X15940000Y22455000D03*
X19690000Y20705000D03*
X70690000Y22955000D03*
X25410000Y-1795006D03*
X25410000Y305023D03*
X43541333Y5923457D03*
X45610000Y3605000D03*
D29*
X56790000Y43555000D03*
X62690000Y31205000D03*
X4310000Y17505000D03*
X27290000Y16555000D03*
X12290000Y17580002D03*
X42510000Y5405000D03*
X41210000Y5405000D03*
D31*
X41290000Y1855000D03*
X24690022Y16480010D03*
X19440000Y16455000D03*
X20640000Y15430002D03*
X14940000Y16705000D03*
X42290000Y1855000D03*
X40190000Y1855000D03*
X37913478Y1805002D03*
X72890000Y45955000D03*
X40190000Y27155004D03*
X36789990Y21288198D03*
X74190000Y43455000D03*
X70990000Y45855000D03*
X41470423Y27455078D03*
X37590000Y20355000D03*
X74590000Y42655000D03*
D29*
X56744760Y46059362D03*
X29411930Y45030974D03*
X8190000Y53455000D03*
D31*
X13989999Y37755019D03*
X11390000Y35155000D03*
X9998026Y34641879D03*
X12590000Y37455006D03*
X22440000Y34455000D03*
X27690000Y37205000D03*
D29*
X56640032Y47304979D03*
X28528038Y45914866D03*
D31*
X52115078Y13705814D03*
X43190000Y14455000D03*
X52914662Y13679662D03*
X42690000Y15205000D03*
X9190000Y44955000D03*
X11690000Y44955000D03*
X60090000Y16355000D03*
X62890000Y16255000D03*
X65210000Y29875000D03*
X74710000Y30005042D03*
X42190000Y26255000D03*
X37640000Y19553544D03*
X47190000Y-1745000D03*
X46290000Y-345000D03*
X38640012Y4218308D03*
X35210000Y4505000D03*
X66210000Y22505000D03*
X60090000Y15455000D03*
X61690000Y23255000D03*
X63990000Y23155002D03*
X62390012Y15455000D03*
X70090000Y22055000D03*
X42490000Y28655000D03*
X39490000Y22255000D03*
X-4309988Y20756150D03*
X-5810000Y23954990D03*
X9560571Y36154988D03*
X9108030Y34723944D03*
X40310000Y10005000D03*
X37551343Y10261429D03*
X46990000Y23355006D03*
X46955674Y27655011D03*
X38090010Y21541216D03*
X41112665Y26329121D03*
X39209233Y27288477D03*
X36338439Y20005863D03*
X38409495Y27267555D03*
X35482042Y21113625D03*
X60190000Y12455000D03*
X60190000Y9455000D03*
X43215888Y15895132D03*
X54960484Y15204979D03*
X43440000Y16705000D03*
X54111236Y15304977D03*
X59190000Y9205000D03*
X59190000Y11705000D03*
X16940000Y30455000D03*
X22440000Y30455008D03*
X23690000Y38705000D03*
X22690000Y38705000D03*
X28790000Y53555000D03*
X54390000Y41654992D03*
X44190000Y42955000D03*
X55117602Y42548893D03*
X45940000Y43005010D03*
X42810000Y9405000D03*
X41909998Y10405000D03*
X38456619Y11611198D03*
X41193313Y9949503D03*
X38087928Y10901208D03*
X34210000Y5000D03*
X18190000Y1455000D03*
X44190000Y-345000D03*
X13250782Y404252D03*
X3190000Y7955000D03*
X3190000Y9955000D03*
X18252868Y508234D03*
X34210000Y-995000D03*
X14490000Y654998D03*
X4190000Y7955000D03*
X4190000Y9955000D03*
X45190000Y-345000D03*
X41190000Y32455000D03*
X39690000Y32455000D03*
X32810000Y2105004D03*
X32910000Y4805000D03*
X36589998Y17555000D03*
X39665728Y20730728D03*
D32*
X69750000Y19568948D02*
X69750000Y18715000D01*
X69750000Y19568948D02*
X69690000Y19508948D01*
D33*
X32610000Y12705000D02*
X34110001Y14205001D01*
X34110001Y14205001D02*
X34510001Y14205001D01*
X34510001Y14205001D02*
X34810000Y14505000D01*
D34*
X39810000Y4194998D02*
X39810000Y4505000D01*
X39099940Y3484938D02*
X39810000Y4194998D01*
X39099940Y2900960D02*
X39099940Y3484938D01*
X38910000Y1209870D02*
X38910000Y905000D01*
X38812740Y2505960D02*
X38812740Y1307130D01*
X38812740Y1307130D02*
X38910000Y1209870D01*
X34846570Y1955000D02*
X34846570Y1705000D01*
X34846570Y1705000D02*
X34846570Y1511570D01*
X35800480Y2495480D02*
X35010000Y1705000D01*
X35010000Y1705000D02*
X34846570Y1705000D01*
X35800480Y2900960D02*
X35800480Y2495480D01*
X33710000Y5505000D02*
X33710000Y1605000D01*
X33710000Y3805000D02*
X33710000Y5505000D01*
X34014600Y3500400D02*
X33710000Y3805000D01*
X34500000Y3500400D02*
X34014600Y3500400D01*
X32210000Y6105000D02*
X32210000Y7905000D01*
X32210000Y7905000D02*
X32010000Y8105000D01*
X56520000Y330000D02*
X56520000Y-1415000D01*
X56520000Y330000D02*
X56520000Y1532081D01*
X56520000Y1532081D02*
X56490000Y1562081D01*
X640000Y42760000D02*
X-773492Y42760000D01*
X-773492Y42760000D02*
X-778492Y42755000D01*
X640000Y42760000D02*
X640000Y40805000D01*
X640000Y42760000D02*
X640000Y44305000D01*
D32*
X69690000Y41955000D02*
X68690000Y41955000D01*
X68190000Y43955000D02*
X68690000Y43955000D01*
X68690000Y43955000D02*
X69690000Y42955000D01*
X67690000Y42955000D02*
X68690000Y42955000D01*
X61190000Y50455000D02*
X61190000Y49955000D01*
X61190000Y49955000D02*
X61690000Y49455000D01*
X61190000Y51455000D02*
X61190000Y50455000D01*
X69190000Y12955000D02*
X70190000Y12955000D01*
X70190000Y13955000D02*
X69190000Y13955000D01*
X69190000Y14955000D02*
X70190000Y14955000D01*
X66190000Y15955000D02*
X65190000Y15955000D01*
X68190000Y15955000D02*
X67190000Y15955000D01*
X70190000Y15955000D02*
X69190000Y15955000D01*
X70190000Y16955000D02*
X70190000Y15955000D01*
X68190000Y16955000D02*
X69190000Y16955000D01*
X66190000Y16955000D02*
X67190000Y16955000D01*
X65190000Y17955000D02*
X65190000Y16955000D01*
X68190000Y17955000D02*
X67190000Y17955000D01*
X68190000Y19955000D02*
X68190000Y18955000D01*
X53690000Y16955000D02*
X53690000Y17955000D01*
X53690000Y19955000D02*
X53690000Y17955000D01*
D34*
X57690000Y13455000D02*
X57690000Y12455000D01*
X60190000Y19455000D02*
X60190000Y18455000D01*
D35*
X55190000Y34455000D02*
X55190000Y32455000D01*
D34*
X-4310000Y12955000D02*
X-4310000Y15955000D01*
X9690000Y10955000D02*
X9690000Y11955000D01*
X34500000Y3500400D02*
X35201040Y3500400D01*
X35201040Y3500400D02*
X35800480Y2900960D01*
X34846570Y1511570D02*
X34500000Y1858140D01*
X34500000Y1858140D02*
X34500000Y3500400D01*
X34500000Y3500400D02*
X34500000Y2301570D01*
X34500000Y2301570D02*
X34846570Y1955000D01*
X35790000Y1691650D02*
X35790000Y1155000D01*
X35800480Y2900960D02*
X35800480Y1702130D01*
X35800480Y1702130D02*
X35790000Y1691650D01*
X69690000Y22955000D02*
X70690000Y22955000D01*
X69690000Y25955000D02*
X70690000Y25955000D01*
X70690000Y24955000D02*
X69690000Y24955000D01*
X69690000Y23955000D02*
X70690000Y23955000D01*
X72690000Y19955000D02*
X72690000Y18955000D01*
D36*
X63790000Y38255000D02*
X62690000Y38255000D01*
X62690000Y38255000D02*
X61790000Y39155000D01*
X61790000Y38255000D02*
X62890000Y38255000D01*
X60190000Y39155000D02*
X60890000Y38455000D01*
X60690000Y44555000D02*
X60690000Y43455000D01*
X61790000Y43455000D02*
X61790000Y44555000D01*
D34*
X69490000Y48755000D02*
X69690000Y48755000D01*
X69690000Y48755000D02*
X70390000Y48055000D01*
X68490000Y48055000D02*
X69490000Y48055000D01*
X68490000Y49655000D02*
X68490000Y48755000D01*
X61690000Y50255000D02*
X61190000Y50255000D01*
X61190000Y50255000D02*
X60990000Y50055000D01*
X61490000Y51655000D02*
X62090000Y51655000D01*
X61490000Y50955000D02*
X61490000Y50255000D01*
X22690000Y22455000D02*
X23190000Y22455000D01*
X15940000Y22455000D02*
X22690000Y22455000D01*
X19690000Y20705000D02*
X20440000Y20705000D01*
D32*
X70690000Y23379264D02*
X70690000Y22955000D01*
X70940000Y23705000D02*
X70690000Y23455000D01*
X70690000Y23455000D02*
X70690000Y23379264D01*
D34*
X25410000Y305023D02*
X25410000Y-1795006D01*
D33*
X45610000Y3854790D02*
X45610000Y3605000D01*
X43541333Y5923457D02*
X45610000Y3854790D01*
D37*
X56140000Y44205000D02*
X56290001Y44054999D01*
X32024490Y44205000D02*
X56140000Y44205000D01*
X30579490Y42760000D02*
X32024490Y44205000D01*
X28580000Y42760000D02*
X30579490Y42760000D01*
X56290001Y44054999D02*
X56790000Y43555000D01*
X62690000Y31205000D02*
X62690000Y27850000D01*
X62690000Y27850000D02*
X62750000Y27790000D01*
D34*
X4310000Y17505000D02*
X1640000Y17505000D01*
X1640000Y17505000D02*
X690000Y18455000D01*
X26264998Y17580002D02*
X26790001Y17054999D01*
X26790001Y17054999D02*
X27290000Y16555000D01*
X12290000Y17580002D02*
X26264998Y17580002D01*
X42510000Y5405000D02*
X41299580Y4194580D01*
X41299580Y4194580D02*
X41299580Y2900960D01*
X41210000Y5405000D02*
X41210000Y2990540D01*
X41210000Y2990540D02*
X41299580Y2900960D01*
X41290000Y1855000D02*
X41290000Y2891380D01*
X41290000Y2891380D02*
X41299580Y2900960D01*
D33*
X24665012Y16455000D02*
X24690022Y16480010D01*
X19440000Y16455000D02*
X24665012Y16455000D01*
X14940000Y16705000D02*
X17690000Y16705000D01*
X17690000Y16705000D02*
X18964998Y15430002D01*
X18964998Y15430002D02*
X20640000Y15430002D01*
D32*
X42349730Y1855000D02*
X42290000Y1855000D01*
X42396860Y1902130D02*
X42349730Y1855000D01*
X42396860Y2900960D02*
X42396860Y1902130D01*
X40190000Y1855000D02*
X40190000Y2891200D01*
X40190000Y2891200D02*
X40199760Y2900960D01*
X38000120Y1891644D02*
X37913478Y1805002D01*
X38000120Y1902130D02*
X38000120Y1891644D01*
X72890000Y45955000D02*
X72890000Y45017000D01*
X72890000Y45017000D02*
X72990000Y44917000D01*
X39890001Y26855005D02*
X40190000Y27155004D01*
X36789990Y23754994D02*
X39890001Y26855005D01*
X36789990Y21288198D02*
X36789990Y23754994D01*
X72990000Y43393000D02*
X74128000Y43393000D01*
X74128000Y43393000D02*
X74190000Y43455000D01*
X70990000Y44917000D02*
X70990000Y45855000D01*
X40790000Y26855000D02*
X41390000Y27455000D01*
X41390000Y27455000D02*
X41470345Y27455000D01*
X41470345Y27455000D02*
X41470423Y27455078D01*
X37590000Y20355000D02*
X37590000Y20779264D01*
X37590000Y20779264D02*
X37490000Y20879264D01*
X37490000Y20879264D02*
X37490000Y23555000D01*
X37490000Y23555000D02*
X40765736Y26830736D01*
X70990000Y43393000D02*
X71634500Y43393000D01*
X71634500Y43393000D02*
X72372500Y42655000D01*
X72372500Y42655000D02*
X74590000Y42655000D01*
D38*
X30440318Y46059362D02*
X56037654Y46059362D01*
X29411930Y45030974D02*
X30440318Y46059362D01*
X56037654Y46059362D02*
X56744760Y46059362D01*
X1150000Y55455000D02*
X3150000Y53455000D01*
X3150000Y53455000D02*
X8190000Y53455000D01*
D32*
X13989999Y37754999D02*
X13989999Y37755019D01*
X11390000Y35155000D02*
X13989999Y37754999D01*
X9998026Y34863032D02*
X9998026Y34641879D01*
X12590000Y37455006D02*
X9998026Y34863032D01*
D33*
X27690000Y37205000D02*
X27690000Y37155000D01*
X27690000Y37155000D02*
X24990000Y34455000D01*
X24990000Y34455000D02*
X22440000Y34455000D01*
D38*
X29918151Y47304979D02*
X55932926Y47304979D01*
X28528038Y45914866D02*
X29918151Y47304979D01*
X55932926Y47304979D02*
X56640032Y47304979D01*
D32*
X43614264Y14455000D02*
X43664288Y14404976D01*
X51815079Y14005813D02*
X52115078Y13705814D01*
X43190000Y14455000D02*
X43614264Y14455000D01*
X51415916Y14404976D02*
X51815079Y14005813D01*
X43664288Y14404976D02*
X51415916Y14404976D01*
X52914662Y13848938D02*
X52914662Y13679662D01*
X51708611Y15054989D02*
X52914662Y13848938D01*
X42690000Y15205000D02*
X43340320Y15205000D01*
X43340320Y15205000D02*
X43490331Y15054989D01*
X43490331Y15054989D02*
X51708611Y15054989D01*
X11690000Y44955000D02*
X9190000Y44955000D01*
X60090000Y16355000D02*
X62790000Y16355000D01*
X62790000Y16355000D02*
X62890000Y16255000D01*
X67760000Y28005000D02*
X67635000Y28005000D01*
X67635000Y28005000D02*
X65765000Y29875000D01*
X65765000Y29875000D02*
X65210000Y29875000D01*
X75009999Y29705043D02*
X74710000Y30005042D01*
X75710000Y29005042D02*
X75009999Y29705043D01*
X75710000Y28005000D02*
X75710000Y29005042D01*
X38790000Y20703544D02*
X38790000Y22855000D01*
X38790000Y22855000D02*
X41890001Y25955001D01*
X41890001Y25955001D02*
X42190000Y26255000D01*
X37640000Y19553544D02*
X38790000Y20703544D01*
X46290000Y-345000D02*
X47190000Y-1245000D01*
X47190000Y-1245000D02*
X47190000Y-1320736D01*
X47190000Y-1320736D02*
X47190000Y-1745000D01*
X35210000Y4505000D02*
X35810000Y3905000D01*
X35810000Y3905000D02*
X38326704Y3905000D01*
X38326704Y3905000D02*
X38640012Y4218308D01*
X66509999Y22205001D02*
X66210000Y22505000D01*
X66660000Y22055000D02*
X66509999Y22205001D01*
X70090000Y22055000D02*
X66660000Y22055000D01*
X60090000Y15455000D02*
X62390012Y15455000D01*
X61789998Y23155002D02*
X61690000Y23255000D01*
X63990000Y23155002D02*
X61789998Y23155002D01*
X42889999Y25654999D02*
X42889999Y28255001D01*
X42889999Y28255001D02*
X42789999Y28355001D01*
X42789999Y28355001D02*
X42490000Y28655000D01*
X39490000Y22255000D02*
X42889999Y25654999D01*
X-5810000Y22256162D02*
X-5810000Y23530726D01*
X-5810000Y23530726D02*
X-5810000Y23954990D01*
X-4309988Y20756150D02*
X-5810000Y22256162D01*
X9560571Y35176485D02*
X9560571Y35730724D01*
X9560571Y35730724D02*
X9560571Y36154988D01*
X9108030Y34723944D02*
X9560571Y35176485D01*
X37551343Y10261429D02*
X40053571Y10261429D01*
X40053571Y10261429D02*
X40310000Y10005000D01*
X46955674Y23389332D02*
X46990000Y23355006D01*
X46955674Y27655011D02*
X46955674Y23389332D01*
X40812666Y26029122D02*
X41112665Y26329121D01*
X38090010Y23306466D02*
X40812666Y26029122D01*
X38090010Y21541216D02*
X38090010Y23306466D01*
X36189989Y24069233D02*
X39209233Y27088477D01*
X39209233Y27088477D02*
X39209233Y27288477D01*
X36338439Y20005863D02*
X36338439Y20430127D01*
X36338439Y20430127D02*
X36189989Y20578577D01*
X36189989Y20578577D02*
X36189989Y24069233D01*
X38109496Y26967556D02*
X38409495Y27267555D01*
X35482042Y24340102D02*
X38109496Y26967556D01*
X35482042Y21113625D02*
X35482042Y24340102D01*
X43656020Y15455000D02*
X51874300Y15455000D01*
X60190000Y12455000D02*
X60190000Y9455000D01*
X54660485Y14904980D02*
X54960484Y15204979D01*
X54460481Y14704976D02*
X54660485Y14904980D01*
X52624324Y14704976D02*
X54460481Y14704976D01*
X51874300Y15455000D02*
X52624324Y14704976D01*
X43215888Y15895132D02*
X43656020Y15455000D01*
X43440000Y16705000D02*
X44190000Y15955000D01*
X52540024Y15604976D02*
X53811237Y15604976D01*
X52190000Y15955000D02*
X52540024Y15604976D01*
X53811237Y15604976D02*
X54111236Y15304977D01*
X44190000Y15955000D02*
X52190000Y15955000D01*
X59190000Y9205000D02*
X59190000Y11705000D01*
D33*
X16940000Y30455000D02*
X16940000Y29000000D01*
X16940000Y29000000D02*
X18420000Y27520000D01*
X20960000Y27520000D02*
X20960000Y28225000D01*
X20960000Y28225000D02*
X22440000Y29705000D01*
X22440000Y29705000D02*
X22440000Y30030744D01*
X22440000Y30030744D02*
X22440000Y30455008D01*
X22440000Y30205000D02*
X22440000Y30455008D01*
D32*
X23690000Y38705000D02*
X23190000Y39205000D01*
X23190000Y39205000D02*
X23190000Y42450000D01*
X23190000Y42450000D02*
X23500000Y42760000D01*
X22690000Y38705000D02*
X20960000Y40435000D01*
X20960000Y40435000D02*
X20960000Y42760000D01*
X18005000Y54055000D02*
X28290000Y54055000D01*
X28290000Y54055000D02*
X28790000Y53555000D01*
X17610000Y55500000D02*
X17610000Y54450000D01*
X17610000Y54450000D02*
X18005000Y54055000D01*
X44190000Y42955000D02*
X44790000Y42355000D01*
X54390000Y42155000D02*
X54390000Y41654992D01*
X44790000Y42355000D02*
X54190000Y42355000D01*
X54190000Y42355000D02*
X54390000Y42155000D01*
D34*
X46364264Y43005010D02*
X45940000Y43005010D01*
X54661485Y43005010D02*
X46364264Y43005010D01*
X55117602Y42548893D02*
X54661485Y43005010D01*
D33*
X42810000Y9504998D02*
X42810000Y9405000D01*
X41909998Y10405000D02*
X42810000Y9504998D01*
D32*
X41609999Y10704999D02*
X41909998Y10405000D01*
X40703800Y11611198D02*
X41609999Y10704999D01*
X38456619Y11611198D02*
X40703800Y11611198D01*
D33*
X41193313Y10373767D02*
X41193313Y9949503D01*
X40665872Y10901208D02*
X41193313Y10373767D01*
X38087928Y10901208D02*
X40665872Y10901208D01*
X44190000Y-345000D02*
X43240000Y-1295000D01*
X43240000Y-1295000D02*
X35510000Y-1295000D01*
X35510000Y-1295000D02*
X34509999Y-294999D01*
X34509999Y-294999D02*
X34210000Y5000D01*
X14301530Y1455000D02*
X13550781Y704251D01*
X13550781Y704251D02*
X13250782Y404252D01*
X18190000Y1455000D02*
X14301530Y1455000D01*
X3190000Y9955000D02*
X3190000Y7955000D01*
X43789989Y-1745011D02*
X34960011Y-1745011D01*
X34960011Y-1745011D02*
X34509999Y-1294999D01*
X45190000Y-345000D02*
X43789989Y-1745011D01*
X34509999Y-1294999D02*
X34210000Y-995000D01*
X18106104Y654998D02*
X18252868Y508234D01*
X14490000Y654998D02*
X18106104Y654998D01*
X4190000Y9955000D02*
X4190000Y7955000D01*
D32*
X39690000Y32455000D02*
X41190000Y32455000D01*
X32910000Y2205004D02*
X32810000Y2105004D01*
X32910000Y4805000D02*
X32910000Y2205004D01*
X36589998Y17654998D02*
X36589998Y17555000D01*
X39665728Y20730728D02*
X36589998Y17654998D01*
D39*
G36*
X99946Y56534147D02*
X-221961Y56052378D01*
X-335000Y55484093D01*
X-335000Y55425907D01*
X-221961Y54857622D01*
X99946Y54375853D01*
X581715Y54053946D01*
X1150000Y53940907D01*
X1309981Y53972729D01*
X2488855Y52793855D01*
X2792191Y52591173D01*
X3150000Y52520000D01*
X7519636Y52520000D01*
X7546235Y52493355D01*
X7963244Y52320197D01*
X8414775Y52319803D01*
X8832086Y52492233D01*
X9151645Y52811235D01*
X9324803Y53228244D01*
X9325197Y53679775D01*
X9152767Y54097086D01*
X8833765Y54416645D01*
X8416756Y54589803D01*
X7965225Y54590197D01*
X7702455Y54481622D01*
X7727440Y54605000D01*
X7727440Y56305000D01*
X7683162Y56540317D01*
X7544090Y56756441D01*
X7494975Y56790000D01*
X16292099Y56790000D01*
X16163569Y56601890D01*
X16112560Y56350000D01*
X16112560Y54650000D01*
X16156838Y54414683D01*
X16295910Y54198559D01*
X16508110Y54053569D01*
X16760000Y54002560D01*
X17041979Y54002560D01*
X17090277Y53930277D01*
X17485276Y53535277D01*
X17723728Y53375949D01*
X18005000Y53320000D01*
X27875429Y53320000D01*
X27996883Y53026057D01*
X28259673Y52762808D01*
X28603201Y52620162D01*
X28975167Y52619838D01*
X29318943Y52761883D01*
X29582192Y53024673D01*
X29724838Y53368201D01*
X29725162Y53740167D01*
X29583117Y54083943D01*
X29320327Y54347192D01*
X28976799Y54489838D01*
X28894537Y54489910D01*
X28877548Y54506899D01*
X29047702Y54761553D01*
X29114817Y54618642D01*
X29543076Y54228355D01*
X29953110Y54058524D01*
X30183000Y54179845D01*
X30183000Y55373000D01*
X30437000Y55373000D01*
X30437000Y54179845D01*
X30666890Y54058524D01*
X31076924Y54228355D01*
X31505183Y54618642D01*
X31751486Y55143108D01*
X31630819Y55373000D01*
X30437000Y55373000D01*
X30183000Y55373000D01*
X30163000Y55373000D01*
X30163000Y55627000D01*
X30183000Y55627000D01*
X30183000Y55647000D01*
X30437000Y55647000D01*
X30437000Y55627000D01*
X31630819Y55627000D01*
X31751486Y55856892D01*
X31505183Y56381358D01*
X31076924Y56771645D01*
X31032608Y56790000D01*
X32563000Y56790000D01*
X32563000Y48239979D01*
X29918151Y48239979D01*
X29560342Y48168806D01*
X29257006Y47966124D01*
X28340912Y47050030D01*
X28303263Y47050063D01*
X27885952Y46877633D01*
X27566393Y46558631D01*
X27393235Y46141622D01*
X27392841Y45690091D01*
X27565271Y45272780D01*
X27884273Y44953221D01*
X28284685Y44786955D01*
X28441708Y44406930D01*
X27580510Y44406930D01*
X27345193Y44362652D01*
X27129069Y44223580D01*
X27015610Y44057527D01*
X26697514Y44270072D01*
X26072022Y44394490D01*
X26007978Y44394490D01*
X25382486Y44270072D01*
X24852219Y43915759D01*
X24770000Y43792710D01*
X24687781Y43915759D01*
X24157514Y44270072D01*
X23532022Y44394490D01*
X23467978Y44394490D01*
X22842486Y44270072D01*
X22312219Y43915759D01*
X22230000Y43792710D01*
X22147781Y43915759D01*
X21617514Y44270072D01*
X20992022Y44394490D01*
X20927978Y44394490D01*
X20302486Y44270072D01*
X19772219Y43915759D01*
X19672621Y43766700D01*
X19379726Y44083068D01*
X18800355Y44349627D01*
X18547000Y44230807D01*
X18547000Y42887000D01*
X18567000Y42887000D01*
X18567000Y42633000D01*
X18547000Y42633000D01*
X18547000Y41289193D01*
X18800355Y41170373D01*
X19379726Y41436932D01*
X19672621Y41753300D01*
X19772219Y41604241D01*
X20225000Y41301702D01*
X20225000Y40435000D01*
X20280949Y40153728D01*
X20440277Y39915277D01*
X21754908Y38600645D01*
X21754838Y38519833D01*
X21896883Y38176057D01*
X22159673Y37912808D01*
X22503201Y37770162D01*
X22875167Y37769838D01*
X23190351Y37900069D01*
X23503201Y37770162D01*
X23875167Y37769838D01*
X24218943Y37911883D01*
X24482192Y38174673D01*
X24624838Y38518201D01*
X24625162Y38890167D01*
X24483117Y39233943D01*
X24220327Y39497192D01*
X23925000Y39619823D01*
X23925000Y41203678D01*
X24157514Y41249928D01*
X24687781Y41604241D01*
X24770000Y41727290D01*
X24852219Y41604241D01*
X25382486Y41249928D01*
X26007978Y41125510D01*
X26072022Y41125510D01*
X26697514Y41249928D01*
X27017077Y41463453D01*
X27116420Y41309069D01*
X27328620Y41164079D01*
X27580510Y41113070D01*
X29579490Y41113070D01*
X29814807Y41157348D01*
X30030931Y41296420D01*
X30175921Y41508620D01*
X30199489Y41625000D01*
X30579490Y41625000D01*
X31013836Y41711397D01*
X31382056Y41957434D01*
X32494622Y43070000D01*
X43255099Y43070000D01*
X43254838Y42769833D01*
X43396883Y42426057D01*
X43659673Y42162808D01*
X44003201Y42020162D01*
X44085463Y42020090D01*
X44270276Y41835277D01*
X44451941Y41713893D01*
X44508728Y41675949D01*
X44790000Y41620000D01*
X53454969Y41620000D01*
X53454838Y41469825D01*
X53596883Y41126049D01*
X53859673Y40862800D01*
X54203201Y40720154D01*
X54575167Y40719830D01*
X54918943Y40861875D01*
X55182192Y41124665D01*
X55324838Y41468193D01*
X55324973Y41622905D01*
X55646545Y41755776D01*
X55909794Y42018566D01*
X56052440Y42362094D01*
X56052723Y42687030D01*
X56146235Y42593355D01*
X56563244Y42420197D01*
X57014775Y42419803D01*
X57432086Y42592233D01*
X57751645Y42911235D01*
X57924803Y43328244D01*
X57925197Y43779775D01*
X57752767Y44197086D01*
X57433765Y44516645D01*
X57433290Y44516842D01*
X57092569Y44857563D01*
X57092567Y44857566D01*
X57009468Y44940665D01*
X57386846Y45096595D01*
X57588602Y45298000D01*
X69898060Y45298000D01*
X69898060Y44536000D01*
X69942338Y44300683D01*
X70036666Y44154093D01*
X69949069Y44025890D01*
X69898060Y43774000D01*
X69898060Y43012000D01*
X69942338Y42776683D01*
X70081410Y42560559D01*
X70293610Y42415569D01*
X70545500Y42364560D01*
X71434500Y42364560D01*
X71593563Y42394490D01*
X71852777Y42135276D01*
X72027447Y42018566D01*
X72091228Y41975949D01*
X72372500Y41920000D01*
X74002581Y41920000D01*
X74059673Y41862808D01*
X74403201Y41720162D01*
X74775167Y41719838D01*
X75118943Y41861883D01*
X75382192Y42124673D01*
X75524838Y42468201D01*
X75525162Y42840167D01*
X75383117Y43183943D01*
X75124990Y43442521D01*
X75125162Y43640167D01*
X74983117Y43983943D01*
X74720327Y44247192D01*
X74376799Y44389838D01*
X74052399Y44390121D01*
X74081940Y44536000D01*
X74081940Y45298000D01*
X74037662Y45533317D01*
X73898590Y45749441D01*
X73824866Y45799815D01*
X73825162Y46140167D01*
X73683117Y46483943D01*
X73420327Y46747192D01*
X73076799Y46889838D01*
X72704833Y46890162D01*
X72361057Y46748117D01*
X72097808Y46485327D01*
X71955162Y46141799D01*
X71954838Y45769833D01*
X72009296Y45638035D01*
X71989202Y45608626D01*
X71924873Y45708596D01*
X71925162Y46040167D01*
X71783117Y46383943D01*
X71520327Y46647192D01*
X71176799Y46789838D01*
X70804833Y46790162D01*
X70461057Y46648117D01*
X70197808Y46385327D01*
X70055162Y46041799D01*
X70054868Y45704733D01*
X69949069Y45549890D01*
X69898060Y45298000D01*
X57588602Y45298000D01*
X57706405Y45415597D01*
X57879563Y45832606D01*
X57879957Y46284137D01*
X57707527Y46701448D01*
X57644571Y46764514D01*
X57774835Y47078223D01*
X57775229Y47529754D01*
X57651996Y47828000D01*
X60690000Y47828000D01*
X60736159Y47836685D01*
X60778553Y47863965D01*
X60806994Y47905590D01*
X60817000Y47955000D01*
X60817000Y56790000D01*
X64830350Y56790000D01*
X64856609Y56779123D01*
X65669926Y56617344D01*
X66237862Y56237861D01*
X66617344Y55669926D01*
X66779123Y54856609D01*
X66828161Y54738221D01*
X67374546Y51991360D01*
X67449510Y51810383D01*
X67480561Y51735419D01*
X69106355Y49302245D01*
X69302244Y49106356D01*
X71735419Y47480561D01*
X71991360Y47374546D01*
X74738216Y46828163D01*
X74856609Y46779123D01*
X75669926Y46617344D01*
X76237862Y46237861D01*
X76617344Y45669926D01*
X76779123Y44856609D01*
X76790000Y44830350D01*
X76790000Y29215143D01*
X76736890Y29251431D01*
X76485000Y29302440D01*
X76378276Y29302440D01*
X76229724Y29524765D01*
X75645092Y30109397D01*
X75645162Y30190209D01*
X75503117Y30533985D01*
X75240327Y30797234D01*
X74896799Y30939880D01*
X74524833Y30940204D01*
X74181057Y30798159D01*
X73917808Y30535369D01*
X73775162Y30191841D01*
X73774838Y29819875D01*
X73916883Y29476099D01*
X74179673Y29212850D01*
X74466300Y29093831D01*
X74338569Y28906890D01*
X74287560Y28655000D01*
X74287560Y27355000D01*
X74331838Y27119683D01*
X74470910Y26903559D01*
X74683110Y26758569D01*
X74935000Y26707560D01*
X76485000Y26707560D01*
X76720317Y26751838D01*
X76790000Y26796678D01*
X76790000Y24715984D01*
X76611309Y24790000D01*
X75995750Y24790000D01*
X75837000Y24631250D01*
X75837000Y23632000D01*
X75857000Y23632000D01*
X75857000Y23378000D01*
X75837000Y23378000D01*
X75837000Y22378750D01*
X75995750Y22220000D01*
X76611309Y22220000D01*
X76790000Y22294016D01*
X76790000Y10169650D01*
X76779123Y10143391D01*
X76617344Y9330074D01*
X76237862Y8762139D01*
X75669926Y8382656D01*
X74856609Y8220877D01*
X74738216Y8171837D01*
X71991360Y7625454D01*
X71735419Y7519439D01*
X69302244Y5893644D01*
X69106355Y5697755D01*
X67480561Y3264581D01*
X67480561Y3264580D01*
X67374546Y3008640D01*
X66828161Y261779D01*
X66779123Y143391D01*
X66617344Y-669926D01*
X66237862Y-1237861D01*
X65669926Y-1617344D01*
X64856609Y-1779123D01*
X64830350Y-1790000D01*
X48124962Y-1790000D01*
X48125162Y-1559833D01*
X47983117Y-1216057D01*
X47905342Y-1138146D01*
X48050000Y-1167440D01*
X49750000Y-1167440D01*
X49985317Y-1123162D01*
X50201441Y-984090D01*
X50346431Y-771890D01*
X50360086Y-704459D01*
X50389946Y-749147D01*
X50871715Y-1071054D01*
X51440000Y-1184093D01*
X52008285Y-1071054D01*
X52490054Y-749147D01*
X52517850Y-707548D01*
X52526838Y-755317D01*
X52665910Y-971441D01*
X52878110Y-1116431D01*
X53130000Y-1167440D01*
X54830000Y-1167440D01*
X55065317Y-1123162D01*
X55281441Y-984090D01*
X55426431Y-771890D01*
X55448301Y-663893D01*
X55753076Y-941645D01*
X56163110Y-1111476D01*
X56393000Y-990155D01*
X56393000Y203000D01*
X56373000Y203000D01*
X56373000Y457000D01*
X56393000Y457000D01*
X56393000Y1650155D01*
X56647000Y1650155D01*
X56647000Y457000D01*
X56667000Y457000D01*
X56667000Y203000D01*
X56647000Y203000D01*
X56647000Y-990155D01*
X56876890Y-1111476D01*
X57286924Y-941645D01*
X57715183Y-551358D01*
X57782298Y-408447D01*
X58009946Y-749147D01*
X58491715Y-1071054D01*
X59060000Y-1184093D01*
X59628285Y-1071054D01*
X60110054Y-749147D01*
X60137850Y-707548D01*
X60146838Y-755317D01*
X60285910Y-971441D01*
X60498110Y-1116431D01*
X60750000Y-1167440D01*
X62450000Y-1167440D01*
X62685317Y-1123162D01*
X62872077Y-1002985D01*
X63038110Y-1116431D01*
X63290000Y-1167440D01*
X64990000Y-1167440D01*
X65225317Y-1123162D01*
X65441441Y-984090D01*
X65586431Y-771890D01*
X65637440Y-520000D01*
X65637440Y1180000D01*
X65593162Y1415317D01*
X65454090Y1631441D01*
X65241890Y1776431D01*
X64990000Y1827440D01*
X63290000Y1827440D01*
X63054683Y1783162D01*
X62867923Y1662985D01*
X62701890Y1776431D01*
X62450000Y1827440D01*
X60750000Y1827440D01*
X60514683Y1783162D01*
X60298559Y1644090D01*
X60153569Y1431890D01*
X60139914Y1364459D01*
X60110054Y1409147D01*
X59628285Y1731054D01*
X59060000Y1844093D01*
X58491715Y1731054D01*
X58009946Y1409147D01*
X57782298Y1068447D01*
X57715183Y1211358D01*
X57286924Y1601645D01*
X56876890Y1771476D01*
X56647000Y1650155D01*
X56393000Y1650155D01*
X56163110Y1771476D01*
X55753076Y1601645D01*
X55450063Y1325499D01*
X55433162Y1415317D01*
X55294090Y1631441D01*
X55081890Y1776431D01*
X54830000Y1827440D01*
X53130000Y1827440D01*
X52894683Y1783162D01*
X52678559Y1644090D01*
X52533569Y1431890D01*
X52519914Y1364459D01*
X52490054Y1409147D01*
X52008285Y1731054D01*
X51440000Y1844093D01*
X50871715Y1731054D01*
X50389946Y1409147D01*
X50362150Y1367548D01*
X50353162Y1415317D01*
X50214090Y1631441D01*
X50112742Y1700689D01*
X50269699Y1765703D01*
X50448327Y1944332D01*
X50545000Y2177721D01*
X50545000Y2718050D01*
X50386250Y2876800D01*
X49137840Y2876800D01*
X49137840Y2856800D01*
X48883840Y2856800D01*
X48883840Y2876800D01*
X47635430Y2876800D01*
X47476680Y2718050D01*
X47476680Y2177721D01*
X47573353Y1944332D01*
X47751981Y1765703D01*
X47773621Y1756739D01*
X47598559Y1644090D01*
X47453569Y1431890D01*
X47402560Y1180000D01*
X47402560Y-418113D01*
X47225092Y-240645D01*
X47225162Y-159833D01*
X47083117Y183943D01*
X46820327Y447192D01*
X46476799Y589838D01*
X46104833Y590162D01*
X45761057Y448117D01*
X45740194Y427290D01*
X45720327Y447192D01*
X45376799Y589838D01*
X45004833Y590162D01*
X44689649Y459931D01*
X44376799Y589838D01*
X44004833Y590162D01*
X43661057Y448117D01*
X43397808Y185327D01*
X43255162Y-158201D01*
X43255121Y-205077D01*
X42925198Y-535000D01*
X35824802Y-535000D01*
X35145122Y144680D01*
X35145162Y190167D01*
X35003117Y533943D01*
X34740327Y797192D01*
X34396799Y939838D01*
X34024833Y940162D01*
X33681057Y798117D01*
X33417808Y535327D01*
X33275162Y191799D01*
X33274838Y-180167D01*
X33405069Y-495351D01*
X33275162Y-808201D01*
X33274838Y-1180167D01*
X33416883Y-1523943D01*
X33679673Y-1787192D01*
X33686435Y-1790000D01*
X26345005Y-1790000D01*
X26345162Y-1609839D01*
X26245000Y-1367428D01*
X26245000Y-122211D01*
X26344838Y118224D01*
X26345162Y490190D01*
X26203117Y833966D01*
X25940327Y1097215D01*
X25596799Y1239861D01*
X25224833Y1240185D01*
X24881057Y1098140D01*
X24617808Y835350D01*
X24475162Y491822D01*
X24474838Y119856D01*
X24575000Y-122555D01*
X24575000Y-1367772D01*
X24475162Y-1608207D01*
X24475004Y-1790000D01*
X-2330350Y-1790000D01*
X-2356609Y-1779123D01*
X-3169926Y-1617344D01*
X-3737861Y-1237862D01*
X-4117344Y-669926D01*
X-4265000Y72390D01*
X-4265000Y219085D01*
X12315620Y219085D01*
X12457665Y-124691D01*
X12720455Y-387940D01*
X13063983Y-530586D01*
X13435949Y-530910D01*
X13779725Y-388865D01*
X14010637Y-158356D01*
X14303201Y-279840D01*
X14675167Y-280164D01*
X15018943Y-138119D01*
X15052118Y-105002D01*
X17543897Y-105002D01*
X17722541Y-283958D01*
X18066069Y-426604D01*
X18438035Y-426928D01*
X18781811Y-284883D01*
X19045060Y-22093D01*
X19187706Y321435D01*
X19188030Y693401D01*
X19045985Y1037177D01*
X19033925Y1049258D01*
X19124838Y1268201D01*
X19125162Y1640167D01*
X19009605Y1919837D01*
X31874838Y1919837D01*
X32016883Y1576061D01*
X32279673Y1312812D01*
X32623201Y1170166D01*
X32995167Y1169842D01*
X33338943Y1311887D01*
X33602192Y1574677D01*
X33642426Y1671570D01*
X33927050Y1671570D01*
X34085800Y1830320D01*
X34085800Y2978400D01*
X34065800Y2978400D01*
X34065800Y3232400D01*
X34085800Y3232400D01*
X34085800Y4319833D01*
X34274838Y4319833D01*
X34339800Y4162613D01*
X34339800Y3232400D01*
X34529030Y3232400D01*
X34529030Y2978400D01*
X34339800Y2978400D01*
X34339800Y1830320D01*
X34498550Y1671570D01*
X34529030Y1671570D01*
X34529030Y1580821D01*
X34625703Y1347432D01*
X34804331Y1168803D01*
X35037720Y1072130D01*
X35227530Y1072130D01*
X35386280Y1230880D01*
X35386280Y1882255D01*
X35450897Y1946872D01*
X35547570Y2180261D01*
X35547570Y2652960D01*
X35616410Y2652960D01*
X35616410Y1707130D01*
X35640280Y1580272D01*
X35640280Y1230880D01*
X35799030Y1072130D01*
X35988840Y1072130D01*
X36058971Y1101179D01*
X36263850Y1059690D01*
X36962350Y1059690D01*
X37170376Y1098833D01*
X37329431Y1066624D01*
X37383151Y1012810D01*
X37726679Y870164D01*
X38098645Y869840D01*
X38442421Y1011885D01*
X38502771Y1072130D01*
X38526990Y1072130D01*
X38685740Y1230880D01*
X38685740Y1254780D01*
X38705670Y1274675D01*
X38848316Y1618203D01*
X38848640Y1990169D01*
X38709610Y2326648D01*
X38709610Y2652960D01*
X38915870Y2652960D01*
X38915870Y1707130D01*
X38939740Y1580272D01*
X38939740Y1230880D01*
X39098490Y1072130D01*
X39288300Y1072130D01*
X39358431Y1101179D01*
X39563310Y1059690D01*
X39667182Y1059690D01*
X40003201Y920162D01*
X40375167Y919838D01*
X40713636Y1059690D01*
X40767182Y1059690D01*
X41103201Y920162D01*
X41475167Y919838D01*
X41790351Y1050069D01*
X42103201Y920162D01*
X42475167Y919838D01*
X42818943Y1061883D01*
X42824080Y1067011D01*
X42860230Y1059690D01*
X43558730Y1059690D01*
X43766756Y1098833D01*
X43960050Y1059690D01*
X44658550Y1059690D01*
X44893867Y1103968D01*
X45109991Y1243040D01*
X45254981Y1455240D01*
X45305990Y1707130D01*
X45305990Y2718833D01*
X45423201Y2670162D01*
X45795167Y2669838D01*
X46138943Y2811883D01*
X46402192Y3074673D01*
X46544838Y3418201D01*
X46545162Y3790167D01*
X46528754Y3829879D01*
X47476680Y3829879D01*
X47476680Y3289550D01*
X47635430Y3130800D01*
X48883840Y3130800D01*
X48883840Y4179820D01*
X49137840Y4179820D01*
X49137840Y3130800D01*
X50386250Y3130800D01*
X50545000Y3289550D01*
X50545000Y3829879D01*
X50448327Y4063268D01*
X50269699Y4241897D01*
X50036310Y4338570D01*
X49296590Y4338570D01*
X49137840Y4179820D01*
X48883840Y4179820D01*
X48725090Y4338570D01*
X47985370Y4338570D01*
X47751981Y4241897D01*
X47573353Y4063268D01*
X47476680Y3829879D01*
X46528754Y3829879D01*
X46403117Y4133943D01*
X46151615Y4385884D01*
X46147401Y4392191D01*
X45912897Y4626695D01*
X51864674Y4626695D01*
X52151043Y3933628D01*
X52680839Y3402907D01*
X53373405Y3115328D01*
X54123305Y3114674D01*
X54816372Y3401043D01*
X55347093Y3930839D01*
X55634672Y4623405D01*
X55635326Y5373305D01*
X55348957Y6066372D01*
X54819161Y6597093D01*
X54126595Y6884672D01*
X53376695Y6885326D01*
X52683628Y6598957D01*
X52152907Y6069161D01*
X51865328Y5376595D01*
X51864674Y4626695D01*
X45912897Y4626695D01*
X44476455Y6063137D01*
X44476495Y6108624D01*
X44334450Y6452400D01*
X44071660Y6715649D01*
X43728132Y6858295D01*
X43356166Y6858619D01*
X43012390Y6716574D01*
X42806358Y6510901D01*
X42736756Y6539803D01*
X42285225Y6540197D01*
X41867914Y6367767D01*
X41860266Y6360132D01*
X41853765Y6366645D01*
X41436756Y6539803D01*
X40985225Y6540197D01*
X40567914Y6367767D01*
X40248355Y6048765D01*
X40075197Y5631756D01*
X40074803Y5180225D01*
X40247233Y4762914D01*
X40375000Y4634924D01*
X40375000Y3929308D01*
X40261810Y3952230D01*
X39563310Y3952230D01*
X39540118Y3947866D01*
X39574850Y4031509D01*
X39575174Y4403475D01*
X39433129Y4747251D01*
X39170339Y5010500D01*
X38826811Y5153146D01*
X38454845Y5153470D01*
X38111069Y5011425D01*
X37847820Y4748635D01*
X37802711Y4640000D01*
X36145118Y4640000D01*
X36145162Y4690167D01*
X36003117Y5033943D01*
X35740327Y5297192D01*
X35396799Y5439838D01*
X35024833Y5440162D01*
X34681057Y5298117D01*
X34417808Y5035327D01*
X34275162Y4691799D01*
X34274838Y4319833D01*
X34085800Y4319833D01*
X34085800Y4380480D01*
X33927050Y4539230D01*
X33812046Y4539230D01*
X33844838Y4618201D01*
X33845162Y4990167D01*
X33703117Y5333943D01*
X33440327Y5597192D01*
X33096799Y5739838D01*
X32724833Y5740162D01*
X32381057Y5598117D01*
X32117808Y5335327D01*
X31975162Y4991799D01*
X31974838Y4619833D01*
X32116883Y4276057D01*
X32175000Y4217838D01*
X32175000Y2792249D01*
X32017808Y2635331D01*
X31875162Y2291803D01*
X31874838Y1919837D01*
X19009605Y1919837D01*
X18983117Y1983943D01*
X18720327Y2247192D01*
X18376799Y2389838D01*
X18004833Y2390162D01*
X17661057Y2248117D01*
X17627882Y2215000D01*
X14301530Y2215000D01*
X14058944Y2166746D01*
X14010690Y2157148D01*
X13764129Y1992401D01*
X13111102Y1339374D01*
X13065615Y1339414D01*
X12721839Y1197369D01*
X12458590Y934579D01*
X12315944Y591051D01*
X12315620Y219085D01*
X-4265000Y219085D01*
X-4265000Y4626695D01*
X8304674Y4626695D01*
X8591043Y3933628D01*
X9120839Y3402907D01*
X9813405Y3115328D01*
X10563305Y3114674D01*
X11256372Y3401043D01*
X11787093Y3930839D01*
X12074672Y4623405D01*
X12075326Y5373305D01*
X11788957Y6066372D01*
X11259161Y6597093D01*
X10566595Y6884672D01*
X9816695Y6885326D01*
X9123628Y6598957D01*
X8592907Y6069161D01*
X8305328Y5376595D01*
X8304674Y4626695D01*
X-4265000Y4626695D01*
X-4265000Y5000000D01*
X-4320949Y5281272D01*
X-4349982Y5324723D01*
X-4480276Y5519723D01*
X-6765000Y7804446D01*
X-6765000Y9769833D01*
X2254838Y9769833D01*
X2396883Y9426057D01*
X2430000Y9392882D01*
X2430000Y8517463D01*
X2397808Y8485327D01*
X2255162Y8141799D01*
X2254838Y7769833D01*
X2396883Y7426057D01*
X2659673Y7162808D01*
X3003201Y7020162D01*
X3375167Y7019838D01*
X3690351Y7150069D01*
X4003201Y7020162D01*
X4375167Y7019838D01*
X4718943Y7161883D01*
X4982192Y7424673D01*
X5124838Y7768201D01*
X5125162Y8140167D01*
X4983117Y8483943D01*
X4950000Y8517118D01*
X4950000Y9392537D01*
X4982192Y9424673D01*
X5124838Y9768201D01*
X5125162Y10140167D01*
X4983117Y10483943D01*
X4720327Y10747192D01*
X4376799Y10889838D01*
X4004833Y10890162D01*
X3689649Y10759931D01*
X3376799Y10889838D01*
X3004833Y10890162D01*
X2661057Y10748117D01*
X2397808Y10485327D01*
X2255162Y10141799D01*
X2254838Y9769833D01*
X-6765000Y9769833D01*
X-6765000Y12319250D01*
X32878030Y12319250D01*
X32878030Y11378871D01*
X32974703Y11145482D01*
X33153331Y10966853D01*
X33386720Y10870180D01*
X33927050Y10870180D01*
X34085800Y11028930D01*
X34085800Y12478000D01*
X34339800Y12478000D01*
X34339800Y11028930D01*
X34498550Y10870180D01*
X35038880Y10870180D01*
X35272269Y10966853D01*
X35450897Y11145482D01*
X35547570Y11378871D01*
X35547570Y12319250D01*
X35388820Y12478000D01*
X34339800Y12478000D01*
X34085800Y12478000D01*
X33036780Y12478000D01*
X32878030Y12319250D01*
X-6765000Y12319250D01*
X-6765000Y13831129D01*
X32878030Y13831129D01*
X32878030Y12890750D01*
X33036780Y12732000D01*
X34085800Y12732000D01*
X34085800Y14181070D01*
X34339800Y14181070D01*
X34339800Y12732000D01*
X35388820Y12732000D01*
X35438005Y12781185D01*
X35926203Y12781185D01*
X36098633Y12363874D01*
X36417635Y12044315D01*
X36834644Y11871157D01*
X37286175Y11870763D01*
X37607050Y12003346D01*
X37521781Y11797997D01*
X37521658Y11657063D01*
X37295736Y11431535D01*
X37163385Y11112800D01*
X37022400Y11054546D01*
X36759151Y10791756D01*
X36616505Y10448228D01*
X36616181Y10076262D01*
X36758226Y9732486D01*
X37021016Y9469237D01*
X37364544Y9326591D01*
X37736510Y9326267D01*
X38080286Y9468312D01*
X38138505Y9526429D01*
X39496070Y9526429D01*
X39516883Y9476057D01*
X39779673Y9212808D01*
X40123201Y9070162D01*
X40495167Y9069838D01*
X40684873Y9148223D01*
X41006514Y9014665D01*
X41378480Y9014341D01*
X41722256Y9156386D01*
X41874915Y9308779D01*
X41874838Y9219833D01*
X42016883Y8876057D01*
X42279673Y8612808D01*
X42623201Y8470162D01*
X42995167Y8469838D01*
X43338943Y8611883D01*
X43602192Y8874673D01*
X43744838Y9218201D01*
X43745162Y9590167D01*
X43603117Y9933943D01*
X43340327Y10197192D01*
X43087713Y10302087D01*
X42845120Y10544680D01*
X42845160Y10590167D01*
X42703115Y10933943D01*
X42440325Y11197192D01*
X42096797Y11339838D01*
X42014535Y11339910D01*
X41223523Y12130921D01*
X40985072Y12290249D01*
X40959669Y12295302D01*
X40703800Y12346198D01*
X39044038Y12346198D01*
X38986946Y12403390D01*
X38643418Y12546036D01*
X38271452Y12546360D01*
X38063909Y12460605D01*
X38196203Y12779204D01*
X38196597Y13230735D01*
X38024167Y13648046D01*
X37705165Y13967605D01*
X37288156Y14140763D01*
X36836625Y14141157D01*
X36419314Y13968727D01*
X36099755Y13649725D01*
X35926597Y13232716D01*
X35926203Y12781185D01*
X35438005Y12781185D01*
X35547570Y12890750D01*
X35547570Y13831129D01*
X35450897Y14064518D01*
X35272269Y14243147D01*
X35038880Y14339820D01*
X34498550Y14339820D01*
X34339800Y14181070D01*
X34085800Y14181070D01*
X33927050Y14339820D01*
X33386720Y14339820D01*
X33153331Y14243147D01*
X32974703Y14064518D01*
X32878030Y13831129D01*
X-6765000Y13831129D01*
X-6765000Y23769823D01*
X-6745162Y23769823D01*
X-6603117Y23426047D01*
X-6545000Y23367828D01*
X-6545000Y22256162D01*
X-6491117Y21985277D01*
X-6489051Y21974890D01*
X-6329723Y21736439D01*
X-5245080Y20651795D01*
X-5245150Y20570983D01*
X-5103105Y20227207D01*
X-4840315Y19963958D01*
X-4496787Y19821312D01*
X-4124821Y19820988D01*
X-3781045Y19963033D01*
X-3517796Y20225823D01*
X-3375150Y20569351D01*
X-3374826Y20941317D01*
X-3397007Y20995000D01*
X-993345Y20995000D01*
X-879271Y20421511D01*
X-554415Y19935330D01*
X-239634Y19725000D01*
X-554415Y19514670D01*
X-879271Y19028489D01*
X-993345Y18455000D01*
X-879271Y17881511D01*
X-554415Y17395330D01*
X-540087Y17385757D01*
X-561317Y17381762D01*
X-777441Y17242690D01*
X-922431Y17030490D01*
X-973440Y16778600D01*
X-973440Y15051400D01*
X-929162Y14816083D01*
X-790090Y14599959D01*
X-577890Y14454969D01*
X-326000Y14403960D01*
X1706000Y14403960D01*
X1941317Y14448238D01*
X2157441Y14587310D01*
X2302431Y14799510D01*
X2353440Y15051400D01*
X2353440Y16670000D01*
X3539811Y16670000D01*
X3666235Y16543355D01*
X4083244Y16370197D01*
X4534775Y16369803D01*
X4952086Y16542233D01*
X5271645Y16861235D01*
X5444803Y17278244D01*
X5444870Y17355227D01*
X11154803Y17355227D01*
X11327233Y16937916D01*
X11646235Y16618357D01*
X12063244Y16445199D01*
X12514775Y16444805D01*
X12932086Y16617235D01*
X13060076Y16745002D01*
X14005034Y16745002D01*
X14004838Y16519833D01*
X14146883Y16176057D01*
X14409673Y15912808D01*
X14753201Y15770162D01*
X15125167Y15769838D01*
X15468943Y15911883D01*
X15502118Y15945000D01*
X17375198Y15945000D01*
X18427597Y14892601D01*
X18674158Y14727854D01*
X18713643Y14720000D01*
X18964998Y14670002D01*
X20077537Y14670002D01*
X20109673Y14637810D01*
X20453201Y14495164D01*
X20825167Y14494840D01*
X21168943Y14636885D01*
X21432192Y14899675D01*
X21482086Y15019833D01*
X41754838Y15019833D01*
X41896883Y14676057D01*
X42159673Y14412808D01*
X42254928Y14373254D01*
X42254838Y14269833D01*
X42396883Y13926057D01*
X42659673Y13662808D01*
X43003201Y13520162D01*
X43375167Y13519838D01*
X43718943Y13661883D01*
X43727050Y13669976D01*
X44120041Y13669976D01*
X44099755Y13649725D01*
X43926597Y13232716D01*
X43926203Y12781185D01*
X44098633Y12363874D01*
X44417635Y12044315D01*
X44834644Y11871157D01*
X45286175Y11870763D01*
X45703486Y12043193D01*
X45980025Y12319250D01*
X48575230Y12319250D01*
X48575230Y11378871D01*
X48671903Y11145482D01*
X48850531Y10966853D01*
X49083920Y10870180D01*
X49624250Y10870180D01*
X49783000Y11028930D01*
X49783000Y12478000D01*
X50037000Y12478000D01*
X50037000Y11028930D01*
X50195750Y10870180D01*
X50736080Y10870180D01*
X50969469Y10966853D01*
X51148097Y11145482D01*
X51244770Y11378871D01*
X51244770Y11519833D01*
X58254838Y11519833D01*
X58396883Y11176057D01*
X58455000Y11117838D01*
X58455000Y9792419D01*
X58397808Y9735327D01*
X58255162Y9391799D01*
X58254838Y9019833D01*
X58396883Y8676057D01*
X58659673Y8412808D01*
X59003201Y8270162D01*
X59375167Y8269838D01*
X59718943Y8411883D01*
X59879052Y8571713D01*
X60003201Y8520162D01*
X60375167Y8519838D01*
X60718943Y8661883D01*
X60982192Y8924673D01*
X61124838Y9268201D01*
X61125162Y9640167D01*
X60983117Y9983943D01*
X60975477Y9991597D01*
X64854682Y9991597D01*
X65133455Y9316914D01*
X65649199Y8800270D01*
X66323395Y8520319D01*
X67053403Y8519682D01*
X67728086Y8798455D01*
X68244730Y9314199D01*
X68524681Y9988395D01*
X68525318Y10718403D01*
X68246545Y11393086D01*
X67730801Y11909730D01*
X67465242Y12020000D01*
X68016310Y12020000D01*
X68249699Y12116673D01*
X68428327Y12295302D01*
X68525000Y12528691D01*
X68525000Y13569250D01*
X68366250Y13728000D01*
X66817000Y13728000D01*
X66817000Y13708000D01*
X66563000Y13708000D01*
X66563000Y13728000D01*
X65013750Y13728000D01*
X64855000Y13569250D01*
X64855000Y12528691D01*
X64951673Y12295302D01*
X65130301Y12116673D01*
X65363690Y12020000D01*
X65914395Y12020000D01*
X65651914Y11911545D01*
X65135270Y11395801D01*
X64855319Y10721605D01*
X64854682Y9991597D01*
X60975477Y9991597D01*
X60925000Y10042162D01*
X60925000Y11867581D01*
X60982192Y11924673D01*
X61124838Y12268201D01*
X61125162Y12640167D01*
X60983117Y12983943D01*
X60720327Y13247192D01*
X60376799Y13389838D01*
X60004833Y13390162D01*
X59661057Y13248117D01*
X59397808Y12985327D01*
X59255162Y12641799D01*
X59255160Y12639944D01*
X59004833Y12640162D01*
X58661057Y12498117D01*
X58397808Y12235327D01*
X58255162Y11891799D01*
X58254838Y11519833D01*
X51244770Y11519833D01*
X51244770Y12319250D01*
X51086020Y12478000D01*
X50037000Y12478000D01*
X49783000Y12478000D01*
X48733980Y12478000D01*
X48575230Y12319250D01*
X45980025Y12319250D01*
X46023045Y12362195D01*
X46196203Y12779204D01*
X46196597Y13230735D01*
X46024167Y13648046D01*
X46002275Y13669976D01*
X48575230Y13669976D01*
X48575230Y12890750D01*
X48733980Y12732000D01*
X49783000Y12732000D01*
X49783000Y12752000D01*
X50037000Y12752000D01*
X50037000Y12732000D01*
X51086020Y12732000D01*
X51244770Y12890750D01*
X51244770Y13363688D01*
X51321961Y13176871D01*
X51584751Y12913622D01*
X51928279Y12770976D01*
X52300245Y12770652D01*
X52483405Y12846332D01*
X52727863Y12744824D01*
X53099829Y12744500D01*
X53443605Y12886545D01*
X53706854Y13149335D01*
X53849500Y13492863D01*
X53849824Y13864829D01*
X53806378Y13969976D01*
X54460481Y13969976D01*
X54741753Y14025925D01*
X54980204Y14185253D01*
X55064839Y14269887D01*
X55145651Y14269817D01*
X55489427Y14411862D01*
X55752676Y14674652D01*
X55895322Y15018180D01*
X55895646Y15390146D01*
X55753601Y15733922D01*
X55490811Y15997171D01*
X55147283Y16139817D01*
X54775317Y16140141D01*
X54650252Y16088465D01*
X54641563Y16097169D01*
X54466570Y16169833D01*
X59154838Y16169833D01*
X59264359Y15904772D01*
X59155162Y15641799D01*
X59154838Y15269833D01*
X59296883Y14926057D01*
X59559673Y14662808D01*
X59903201Y14520162D01*
X60275167Y14519838D01*
X60618943Y14661883D01*
X60677162Y14720000D01*
X61802593Y14720000D01*
X61859685Y14662808D01*
X62203213Y14520162D01*
X62575179Y14519838D01*
X62918955Y14661883D01*
X63182204Y14924673D01*
X63288769Y15181309D01*
X64855000Y15181309D01*
X64855000Y14140750D01*
X65013750Y13982000D01*
X66563000Y13982000D01*
X66563000Y15531250D01*
X66817000Y15531250D01*
X66817000Y13982000D01*
X68366250Y13982000D01*
X68525000Y14140750D01*
X68525000Y15181309D01*
X68428327Y15414698D01*
X68249699Y15593327D01*
X68016310Y15690000D01*
X66975750Y15690000D01*
X66817000Y15531250D01*
X66563000Y15531250D01*
X66404250Y15690000D01*
X65363690Y15690000D01*
X65130301Y15593327D01*
X64951673Y15414698D01*
X64855000Y15181309D01*
X63288769Y15181309D01*
X63324850Y15268201D01*
X63324985Y15423060D01*
X63418943Y15461883D01*
X63682192Y15724673D01*
X63824838Y16068201D01*
X63825162Y16440167D01*
X63683117Y16783943D01*
X63420327Y17047192D01*
X63076799Y17189838D01*
X62704833Y17190162D01*
X62462422Y17090000D01*
X60677419Y17090000D01*
X60620327Y17147192D01*
X60276799Y17289838D01*
X59904833Y17290162D01*
X59561057Y17148117D01*
X59297808Y16885327D01*
X59155162Y16541799D01*
X59154838Y16169833D01*
X54466570Y16169833D01*
X54298035Y16239815D01*
X54158495Y16239937D01*
X54092509Y16284027D01*
X54046338Y16293211D01*
X53811237Y16339976D01*
X52844470Y16339976D01*
X52709723Y16474723D01*
X52471272Y16634051D01*
X52440525Y16640167D01*
X52190000Y16690000D01*
X44494447Y16690000D01*
X44375092Y16809355D01*
X44375162Y16890167D01*
X44233117Y17233943D01*
X43970327Y17497192D01*
X43626799Y17639838D01*
X43254833Y17640162D01*
X42911057Y17498117D01*
X42647808Y17235327D01*
X42505162Y16891799D01*
X42504838Y16519833D01*
X42508750Y16510365D01*
X42423696Y16425459D01*
X42281050Y16081931D01*
X42281020Y16047685D01*
X42161057Y15998117D01*
X41897808Y15735327D01*
X41755162Y15391799D01*
X41754838Y15019833D01*
X21482086Y15019833D01*
X21574838Y15243203D01*
X21575162Y15615169D01*
X21542177Y15695000D01*
X24152526Y15695000D01*
X24159695Y15687818D01*
X24503223Y15545172D01*
X24875189Y15544848D01*
X25218965Y15686893D01*
X25482214Y15949683D01*
X25624860Y16293211D01*
X25625184Y16665177D01*
X25592201Y16745002D01*
X25919130Y16745002D01*
X26154959Y16509173D01*
X26154803Y16330225D01*
X26327233Y15912914D01*
X26646235Y15593355D01*
X27063244Y15420197D01*
X27514775Y15419803D01*
X27932086Y15592233D01*
X28251645Y15911235D01*
X28424803Y16328244D01*
X28425197Y16779775D01*
X28252767Y17197086D01*
X27933765Y17516645D01*
X27516756Y17689803D01*
X27335907Y17689961D01*
X26855432Y18170436D01*
X26778129Y18222088D01*
X26584539Y18351441D01*
X26264998Y18415002D01*
X13060189Y18415002D01*
X12933765Y18541647D01*
X12516756Y18714805D01*
X12065225Y18715199D01*
X11647914Y18542769D01*
X11328355Y18223767D01*
X11155197Y17806758D01*
X11154803Y17355227D01*
X5444870Y17355227D01*
X5445197Y17729775D01*
X5272767Y18147086D01*
X4953765Y18466645D01*
X4536756Y18639803D01*
X4085225Y18640197D01*
X3667914Y18467767D01*
X3539924Y18340000D01*
X2350470Y18340000D01*
X2373345Y18455000D01*
X2259271Y19028489D01*
X1934415Y19514670D01*
X1619634Y19725000D01*
X1934415Y19935330D01*
X2259271Y20421511D01*
X2360108Y20928458D01*
X34546880Y20928458D01*
X34688925Y20584682D01*
X34951715Y20321433D01*
X35295243Y20178787D01*
X35403589Y20178693D01*
X35403277Y19820696D01*
X35545322Y19476920D01*
X35808112Y19213671D01*
X36151640Y19071025D01*
X36523606Y19070701D01*
X36783469Y19178074D01*
X36846883Y19024601D01*
X36883487Y18987933D01*
X36372256Y18476702D01*
X36061055Y18348117D01*
X35797806Y18085327D01*
X35655160Y17741799D01*
X35654836Y17369833D01*
X35796881Y17026057D01*
X36059671Y16762808D01*
X36403199Y16620162D01*
X36775165Y16619838D01*
X37118941Y16761883D01*
X37382190Y17024673D01*
X37524836Y17368201D01*
X37524995Y17550549D01*
X39770083Y19795636D01*
X39850895Y19795566D01*
X40194671Y19937611D01*
X40355566Y20098226D01*
X68796835Y20098226D01*
X68831801Y19725989D01*
X68906980Y19544490D01*
X68961360Y19540918D01*
X68955001Y19508948D01*
X69010949Y19227676D01*
X69015000Y19221613D01*
X69015000Y18715000D01*
X69070949Y18433728D01*
X69230277Y18195277D01*
X69468728Y18035949D01*
X69750000Y17980000D01*
X70031272Y18035949D01*
X70269723Y18195277D01*
X70429051Y18433728D01*
X70485000Y18715000D01*
X70485000Y19353823D01*
X70783428Y19353823D01*
X70795942Y19158978D01*
X71152351Y19049236D01*
X71523625Y19084240D01*
X71704058Y19158978D01*
X71716572Y19353823D01*
X71250000Y19820395D01*
X70783428Y19353823D01*
X70485000Y19353823D01*
X70485000Y19383402D01*
X70515603Y19414005D01*
X70485000Y19444608D01*
X70485000Y19537395D01*
X70513208Y19539248D01*
X70603823Y19533428D01*
X71070395Y20000000D01*
X71429605Y20000000D01*
X71896177Y19533428D01*
X72091022Y19545942D01*
X72200764Y19902351D01*
X72165760Y20273625D01*
X72091022Y20454058D01*
X71896177Y20466572D01*
X71429605Y20000000D01*
X71070395Y20000000D01*
X70603823Y20466572D01*
X70513208Y20460752D01*
X70397929Y20468324D01*
X70118992Y20189387D01*
X70031272Y20247999D01*
X69853713Y20283318D01*
X70216572Y20646177D01*
X70783428Y20646177D01*
X71250000Y20179605D01*
X71716572Y20646177D01*
X71704058Y20841022D01*
X71347649Y20950764D01*
X70976375Y20915760D01*
X70795942Y20841022D01*
X70783428Y20646177D01*
X70216572Y20646177D01*
X70218324Y20647929D01*
X70205510Y20843020D01*
X69848226Y20953165D01*
X69475989Y20918199D01*
X69294490Y20843020D01*
X69281676Y20647929D01*
X69646287Y20283318D01*
X69468728Y20247999D01*
X69381008Y20189387D01*
X69102071Y20468324D01*
X68906980Y20455510D01*
X68796835Y20098226D01*
X40355566Y20098226D01*
X40457920Y20200401D01*
X40600566Y20543929D01*
X40600890Y20915895D01*
X40458845Y21259671D01*
X40196055Y21522920D01*
X40114154Y21556928D01*
X40282192Y21724673D01*
X40424838Y22068201D01*
X40424910Y22150464D01*
X43409723Y25135276D01*
X43569050Y25373727D01*
X43624999Y25654999D01*
X43624999Y27469844D01*
X46020512Y27469844D01*
X46162557Y27126068D01*
X46220674Y27067849D01*
X46220674Y23908159D01*
X46197808Y23885333D01*
X46055162Y23541805D01*
X46054838Y23169839D01*
X46196883Y22826063D01*
X46459673Y22562814D01*
X46803201Y22420168D01*
X47175167Y22419844D01*
X47518943Y22561889D01*
X47782192Y22824679D01*
X47883989Y23069833D01*
X60754838Y23069833D01*
X60896883Y22726057D01*
X61159673Y22462808D01*
X61503201Y22320162D01*
X61875167Y22319838D01*
X62117583Y22420002D01*
X63402581Y22420002D01*
X63459673Y22362810D01*
X63803201Y22220164D01*
X64175167Y22219840D01*
X64417169Y22319833D01*
X65274838Y22319833D01*
X65416883Y21976057D01*
X65679673Y21712808D01*
X66023201Y21570162D01*
X66105463Y21570090D01*
X66140276Y21535277D01*
X66378727Y21375949D01*
X66425394Y21366667D01*
X66660000Y21320000D01*
X69502581Y21320000D01*
X69559673Y21262808D01*
X69903201Y21120162D01*
X70275167Y21119838D01*
X70618943Y21261883D01*
X70882192Y21524673D01*
X71024838Y21868201D01*
X71025162Y22240167D01*
X70883117Y22583943D01*
X70620327Y22847192D01*
X70276799Y22989838D01*
X69904833Y22990162D01*
X69561057Y22848117D01*
X69502838Y22790000D01*
X69170000Y22790000D01*
X69170000Y23219250D01*
X74300000Y23219250D01*
X74300000Y22728690D01*
X74396673Y22495301D01*
X74575302Y22316673D01*
X74808691Y22220000D01*
X75424250Y22220000D01*
X75583000Y22378750D01*
X75583000Y23378000D01*
X74458750Y23378000D01*
X74300000Y23219250D01*
X69170000Y23219250D01*
X69011250Y23378000D01*
X67887000Y23378000D01*
X67887000Y23358000D01*
X67633000Y23358000D01*
X67633000Y23378000D01*
X66545721Y23378000D01*
X66396799Y23439838D01*
X66024833Y23440162D01*
X65681057Y23298117D01*
X65417808Y23035327D01*
X65275162Y22691799D01*
X65274838Y22319833D01*
X64417169Y22319833D01*
X64518943Y22361885D01*
X64782192Y22624675D01*
X64924838Y22968203D01*
X64925162Y23340169D01*
X64783117Y23683945D01*
X64520327Y23947194D01*
X64368156Y24010381D01*
X64413440Y24234000D01*
X64413440Y24281310D01*
X66350000Y24281310D01*
X66350000Y23790750D01*
X66508750Y23632000D01*
X67633000Y23632000D01*
X67633000Y24631250D01*
X67887000Y24631250D01*
X67887000Y23632000D01*
X69011250Y23632000D01*
X69170000Y23790750D01*
X69170000Y24281310D01*
X74300000Y24281310D01*
X74300000Y23790750D01*
X74458750Y23632000D01*
X75583000Y23632000D01*
X75583000Y24631250D01*
X75424250Y24790000D01*
X74808691Y24790000D01*
X74575302Y24693327D01*
X74396673Y24514699D01*
X74300000Y24281310D01*
X69170000Y24281310D01*
X69073327Y24514699D01*
X68894698Y24693327D01*
X68661309Y24790000D01*
X68045750Y24790000D01*
X67887000Y24631250D01*
X67633000Y24631250D01*
X67474250Y24790000D01*
X66858691Y24790000D01*
X66625302Y24693327D01*
X66446673Y24514699D01*
X66350000Y24281310D01*
X64413440Y24281310D01*
X64413440Y26266000D01*
X64369162Y26501317D01*
X64230090Y26717441D01*
X64081163Y26819198D01*
X64307670Y27158190D01*
X64433345Y27790000D01*
X64307670Y28421810D01*
X63949778Y28957433D01*
X63825000Y29040807D01*
X63825000Y29689833D01*
X64274838Y29689833D01*
X64416883Y29346057D01*
X64679673Y29082808D01*
X65023201Y28940162D01*
X65395167Y28939838D01*
X65583074Y29017480D01*
X66337560Y28262993D01*
X66337560Y27355000D01*
X66381838Y27119683D01*
X66520910Y26903559D01*
X66733110Y26758569D01*
X66985000Y26707560D01*
X68535000Y26707560D01*
X68770317Y26751838D01*
X68986441Y26890910D01*
X69131431Y27103110D01*
X69182440Y27355000D01*
X69182440Y28655000D01*
X69138162Y28890317D01*
X68999090Y29106441D01*
X68786890Y29251431D01*
X68535000Y29302440D01*
X67377007Y29302440D01*
X66284723Y30394723D01*
X66046272Y30554051D01*
X65805452Y30601954D01*
X65740327Y30667192D01*
X65396799Y30809838D01*
X65024833Y30810162D01*
X64681057Y30668117D01*
X64417808Y30405327D01*
X64275162Y30061799D01*
X64274838Y29689833D01*
X63825000Y29689833D01*
X63825000Y31204010D01*
X63825197Y31429775D01*
X63652767Y31847086D01*
X63333765Y32166645D01*
X62916756Y32339803D01*
X62465225Y32340197D01*
X62047914Y32167767D01*
X61728355Y31848765D01*
X61555197Y31431756D01*
X61554803Y30980225D01*
X61555000Y30979748D01*
X61555000Y28960626D01*
X61550222Y28957433D01*
X61192330Y28421810D01*
X61066655Y27790000D01*
X61192330Y27158190D01*
X61419499Y26818208D01*
X61282559Y26730090D01*
X61137569Y26517890D01*
X61086560Y26266000D01*
X61086560Y24234000D01*
X61127786Y24014904D01*
X60897808Y23785327D01*
X60755162Y23441799D01*
X60754838Y23069833D01*
X47883989Y23069833D01*
X47924838Y23168207D01*
X47925162Y23540173D01*
X47783117Y23883949D01*
X47690674Y23976553D01*
X47690674Y27067592D01*
X47747866Y27124684D01*
X47890512Y27468212D01*
X47890836Y27840178D01*
X47748791Y28183954D01*
X47486001Y28447203D01*
X47142473Y28589849D01*
X46770507Y28590173D01*
X46426731Y28448128D01*
X46163482Y28185338D01*
X46020836Y27841810D01*
X46020512Y27469844D01*
X43624999Y27469844D01*
X43624999Y28255001D01*
X43569050Y28536273D01*
X43502232Y28636273D01*
X43425085Y28751733D01*
X43425162Y28840167D01*
X43283117Y29183943D01*
X43020327Y29447192D01*
X42676799Y29589838D01*
X42304833Y29590162D01*
X41961057Y29448117D01*
X41697808Y29185327D01*
X41555162Y28841799D01*
X41554838Y28469833D01*
X41587834Y28389976D01*
X41285256Y28390240D01*
X40941480Y28248195D01*
X40678231Y27985405D01*
X40670889Y27967724D01*
X40376799Y28089842D01*
X40004833Y28090166D01*
X39810313Y28009792D01*
X39739560Y28080669D01*
X39396032Y28223315D01*
X39024066Y28223639D01*
X38784005Y28124448D01*
X38596294Y28202393D01*
X38224328Y28202717D01*
X37880552Y28060672D01*
X37617303Y27797882D01*
X37474657Y27454354D01*
X37474585Y27372092D01*
X34962319Y24859825D01*
X34802991Y24621374D01*
X34747042Y24340102D01*
X34747042Y21701044D01*
X34689850Y21643952D01*
X34547204Y21300424D01*
X34546880Y20928458D01*
X2360108Y20928458D01*
X2373345Y20995000D01*
X2259271Y21568489D01*
X1934415Y22054670D01*
X1448234Y22379526D01*
X874745Y22493600D01*
X505255Y22493600D01*
X-68234Y22379526D01*
X-554415Y22054670D01*
X-879271Y21568489D01*
X-993345Y20995000D01*
X-3397007Y20995000D01*
X-3516871Y21285093D01*
X-3779661Y21548342D01*
X-4123189Y21690988D01*
X-4205451Y21691060D01*
X-5075000Y22560608D01*
X-5075000Y23367571D01*
X-5017808Y23424663D01*
X-4875162Y23768191D01*
X-4874838Y24140157D01*
X-5016883Y24483933D01*
X-5279673Y24747182D01*
X-5623201Y24889828D01*
X-5995167Y24890152D01*
X-6338943Y24748107D01*
X-6602192Y24485317D01*
X-6744838Y24141789D01*
X-6745162Y23769823D01*
X-6765000Y23769823D01*
X-6765000Y27139646D01*
X-949619Y27139646D01*
X-752987Y26664916D01*
X-319726Y26196932D01*
X259645Y25930373D01*
X513000Y26049193D01*
X513000Y27393000D01*
X-830265Y27393000D01*
X-949619Y27139646D01*
X-6765000Y27139646D01*
X-6765000Y27900354D01*
X-949619Y27900354D01*
X-830265Y27647000D01*
X513000Y27647000D01*
X513000Y28990807D01*
X767000Y28990807D01*
X767000Y27647000D01*
X787000Y27647000D01*
X787000Y27393000D01*
X767000Y27393000D01*
X767000Y26049193D01*
X1020355Y25930373D01*
X1599726Y26196932D01*
X1892621Y26513300D01*
X1992219Y26364241D01*
X2522486Y26009928D01*
X3147978Y25885510D01*
X3212022Y25885510D01*
X3837514Y26009928D01*
X4367781Y26364241D01*
X4450000Y26487290D01*
X4532219Y26364241D01*
X5062486Y26009928D01*
X5687978Y25885510D01*
X5752022Y25885510D01*
X6377514Y26009928D01*
X6697077Y26223453D01*
X6796420Y26069069D01*
X7008620Y25924079D01*
X7260510Y25873070D01*
X9259490Y25873070D01*
X9494807Y25917348D01*
X9710931Y26056420D01*
X9855921Y26268620D01*
X9906930Y26520510D01*
X9906930Y27520000D01*
X14213488Y27520000D01*
X14337906Y26894508D01*
X14692219Y26364241D01*
X15222486Y26009928D01*
X15847978Y25885510D01*
X15912022Y25885510D01*
X16537514Y26009928D01*
X17067781Y26364241D01*
X17150000Y26487290D01*
X17232219Y26364241D01*
X17762486Y26009928D01*
X18387978Y25885510D01*
X18452022Y25885510D01*
X19077514Y26009928D01*
X19607781Y26364241D01*
X19690000Y26487290D01*
X19772219Y26364241D01*
X20302486Y26009928D01*
X20927978Y25885510D01*
X20992022Y25885510D01*
X21617514Y26009928D01*
X21937077Y26223453D01*
X22036420Y26069069D01*
X22248620Y25924079D01*
X22500510Y25873070D01*
X24499490Y25873070D01*
X24734807Y25917348D01*
X24950931Y26056420D01*
X25095921Y26268620D01*
X25146930Y26520510D01*
X25146930Y28519490D01*
X25102652Y28754807D01*
X24963580Y28970931D01*
X24751380Y29115921D01*
X24499490Y29166930D01*
X22976732Y29166930D01*
X22977401Y29167599D01*
X23142148Y29414161D01*
X23200000Y29705000D01*
X23200000Y29892545D01*
X23232192Y29924681D01*
X23374838Y30268209D01*
X23375162Y30640175D01*
X23358707Y30680000D01*
X35287560Y30680000D01*
X35287560Y29330000D01*
X35331838Y29094683D01*
X35470910Y28878559D01*
X35683110Y28733569D01*
X35935000Y28682560D01*
X37285000Y28682560D01*
X37520317Y28726838D01*
X37736441Y28865910D01*
X37881431Y29078110D01*
X37932440Y29330000D01*
X37932440Y30680000D01*
X37888162Y30915317D01*
X37749090Y31131441D01*
X37536890Y31276431D01*
X37285000Y31327440D01*
X35935000Y31327440D01*
X35699683Y31283162D01*
X35483559Y31144090D01*
X35338569Y30931890D01*
X35287560Y30680000D01*
X23358707Y30680000D01*
X23233117Y30983951D01*
X22970327Y31247200D01*
X22626799Y31389846D01*
X22254833Y31390170D01*
X21911057Y31248125D01*
X21647808Y30985335D01*
X21505162Y30641807D01*
X21504838Y30269841D01*
X21629159Y29968961D01*
X20786558Y29126360D01*
X20302486Y29030072D01*
X19772219Y28675759D01*
X19690000Y28552710D01*
X19607781Y28675759D01*
X19077514Y29030072D01*
X18452022Y29154490D01*
X18387978Y29154490D01*
X17947857Y29066945D01*
X17700000Y29314802D01*
X17700000Y29892537D01*
X17732192Y29924673D01*
X17874838Y30268201D01*
X17875162Y30640167D01*
X17733117Y30983943D01*
X17470327Y31247192D01*
X17126799Y31389838D01*
X16754833Y31390162D01*
X16411057Y31248117D01*
X16147808Y30985327D01*
X16005162Y30641799D01*
X16004838Y30269833D01*
X16146883Y29926057D01*
X16180000Y29892882D01*
X16180000Y29101186D01*
X15912022Y29154490D01*
X15847978Y29154490D01*
X15222486Y29030072D01*
X14692219Y28675759D01*
X14337906Y28145492D01*
X14213488Y27520000D01*
X9906930Y27520000D01*
X9906930Y28519490D01*
X9862652Y28754807D01*
X9723580Y28970931D01*
X9511380Y29115921D01*
X9259490Y29166930D01*
X7260510Y29166930D01*
X7025193Y29122652D01*
X6809069Y28983580D01*
X6695610Y28817527D01*
X6377514Y29030072D01*
X5752022Y29154490D01*
X5687978Y29154490D01*
X5062486Y29030072D01*
X4532219Y28675759D01*
X4450000Y28552710D01*
X4367781Y28675759D01*
X3837514Y29030072D01*
X3212022Y29154490D01*
X3147978Y29154490D01*
X2522486Y29030072D01*
X1992219Y28675759D01*
X1892621Y28526700D01*
X1599726Y28843068D01*
X1020355Y29109627D01*
X767000Y28990807D01*
X513000Y28990807D01*
X259645Y29109627D01*
X-319726Y28843068D01*
X-752987Y28375084D01*
X-949619Y27900354D01*
X-6765000Y27900354D01*
X-6765000Y32269833D01*
X38754838Y32269833D01*
X38896883Y31926057D01*
X39159673Y31662808D01*
X39503201Y31520162D01*
X39875167Y31519838D01*
X40218943Y31661883D01*
X40277162Y31720000D01*
X40602581Y31720000D01*
X40659673Y31662808D01*
X41003201Y31520162D01*
X41375167Y31519838D01*
X41718943Y31661883D01*
X41982192Y31924673D01*
X42124838Y32268201D01*
X42125162Y32640167D01*
X41983117Y32983943D01*
X41720327Y33247192D01*
X41376799Y33389838D01*
X41004833Y33390162D01*
X40661057Y33248117D01*
X40602838Y33190000D01*
X40277419Y33190000D01*
X40220327Y33247192D01*
X39876799Y33389838D01*
X39504833Y33390162D01*
X39161057Y33248117D01*
X38897808Y32985327D01*
X38755162Y32641799D01*
X38754838Y32269833D01*
X-6765000Y32269833D01*
X-6765000Y34538777D01*
X8172868Y34538777D01*
X8314913Y34195001D01*
X8577703Y33931752D01*
X8921231Y33789106D01*
X9293197Y33788782D01*
X9459785Y33857615D01*
X9467699Y33849687D01*
X9811227Y33707041D01*
X10183193Y33706717D01*
X10526969Y33848762D01*
X10790218Y34111552D01*
X10889420Y34350456D01*
X11203201Y34220162D01*
X11575167Y34219838D01*
X11696164Y34269833D01*
X21504838Y34269833D01*
X21646883Y33926057D01*
X21909673Y33662808D01*
X22253201Y33520162D01*
X22625167Y33519838D01*
X22968943Y33661883D01*
X23002118Y33695000D01*
X24990000Y33695000D01*
X25280839Y33752852D01*
X25527401Y33917599D01*
X27882790Y36272988D01*
X28218943Y36411883D01*
X28482192Y36674673D01*
X28624838Y37018201D01*
X28625162Y37390167D01*
X28483117Y37733943D01*
X28220327Y37997192D01*
X27876799Y38139838D01*
X27504833Y38140162D01*
X27161057Y37998117D01*
X26897808Y37735327D01*
X26755162Y37391799D01*
X26755078Y37294880D01*
X24675198Y35215000D01*
X23002463Y35215000D01*
X22970327Y35247192D01*
X22626799Y35389838D01*
X22254833Y35390162D01*
X21911057Y35248117D01*
X21647808Y34985327D01*
X21505162Y34641799D01*
X21504838Y34269833D01*
X11696164Y34269833D01*
X11918943Y34361883D01*
X12182192Y34624673D01*
X12324838Y34968201D01*
X12324910Y35050463D01*
X14094374Y36819927D01*
X14175166Y36819857D01*
X14518942Y36961902D01*
X14782191Y37224692D01*
X14924837Y37568220D01*
X14925161Y37940186D01*
X14783116Y38283962D01*
X14520326Y38547211D01*
X14176798Y38689857D01*
X13804832Y38690181D01*
X13461056Y38548136D01*
X13197807Y38285346D01*
X13163859Y38203590D01*
X13120327Y38247198D01*
X12776799Y38389844D01*
X12404833Y38390168D01*
X12061057Y38248123D01*
X11797808Y37985333D01*
X11655162Y37641805D01*
X11655090Y37559543D01*
X10478181Y36382634D01*
X10353688Y36683931D01*
X10090898Y36947180D01*
X9747370Y37089826D01*
X9375404Y37090150D01*
X9031628Y36948105D01*
X8768379Y36685315D01*
X8625733Y36341787D01*
X8625409Y35969821D01*
X8767454Y35626045D01*
X8789471Y35603990D01*
X8579087Y35517061D01*
X8315838Y35254271D01*
X8173192Y34910743D01*
X8172868Y34538777D01*
X-6765000Y34538777D01*
X-6765000Y42379646D01*
X-949619Y42379646D01*
X-752987Y41904916D01*
X-319726Y41436932D01*
X259645Y41170373D01*
X513000Y41289193D01*
X513000Y42633000D01*
X-830265Y42633000D01*
X-949619Y42379646D01*
X-6765000Y42379646D01*
X-6765000Y43140354D01*
X-949619Y43140354D01*
X-830265Y42887000D01*
X513000Y42887000D01*
X513000Y44230807D01*
X767000Y44230807D01*
X767000Y42887000D01*
X787000Y42887000D01*
X787000Y42633000D01*
X767000Y42633000D01*
X767000Y41289193D01*
X1020355Y41170373D01*
X1599726Y41436932D01*
X1892621Y41753300D01*
X1992219Y41604241D01*
X2522486Y41249928D01*
X3147978Y41125510D01*
X3212022Y41125510D01*
X3837514Y41249928D01*
X4367781Y41604241D01*
X4450000Y41727290D01*
X4532219Y41604241D01*
X5062486Y41249928D01*
X5687978Y41125510D01*
X5752022Y41125510D01*
X6377514Y41249928D01*
X6907781Y41604241D01*
X6990000Y41727290D01*
X7072219Y41604241D01*
X7602486Y41249928D01*
X8227978Y41125510D01*
X8292022Y41125510D01*
X8917514Y41249928D01*
X9237077Y41463453D01*
X9336420Y41309069D01*
X9548620Y41164079D01*
X9800510Y41113070D01*
X11799490Y41113070D01*
X12034807Y41157348D01*
X12250931Y41296420D01*
X12395921Y41508620D01*
X12446930Y41760510D01*
X12446930Y42379646D01*
X16830381Y42379646D01*
X17027013Y41904916D01*
X17460274Y41436932D01*
X18039645Y41170373D01*
X18293000Y41289193D01*
X18293000Y42633000D01*
X16949735Y42633000D01*
X16830381Y42379646D01*
X12446930Y42379646D01*
X12446930Y43140354D01*
X16830381Y43140354D01*
X16949735Y42887000D01*
X18293000Y42887000D01*
X18293000Y44230807D01*
X18039645Y44349627D01*
X17460274Y44083068D01*
X17027013Y43615084D01*
X16830381Y43140354D01*
X12446930Y43140354D01*
X12446930Y43759490D01*
X12402652Y43994807D01*
X12265339Y44208198D01*
X12482192Y44424673D01*
X12624838Y44768201D01*
X12625162Y45140167D01*
X12483117Y45483943D01*
X12220327Y45747192D01*
X11876799Y45889838D01*
X11504833Y45890162D01*
X11161057Y45748117D01*
X11102838Y45690000D01*
X9777419Y45690000D01*
X9720327Y45747192D01*
X9376799Y45889838D01*
X9004833Y45890162D01*
X8661057Y45748117D01*
X8397808Y45485327D01*
X8255162Y45141799D01*
X8254838Y44769833D01*
X8396883Y44426057D01*
X8462183Y44360643D01*
X8292022Y44394490D01*
X8227978Y44394490D01*
X7602486Y44270072D01*
X7072219Y43915759D01*
X6990000Y43792710D01*
X6907781Y43915759D01*
X6377514Y44270072D01*
X5752022Y44394490D01*
X5687978Y44394490D01*
X5062486Y44270072D01*
X4532219Y43915759D01*
X4450000Y43792710D01*
X4367781Y43915759D01*
X3837514Y44270072D01*
X3212022Y44394490D01*
X3147978Y44394490D01*
X2522486Y44270072D01*
X1992219Y43915759D01*
X1892621Y43766700D01*
X1599726Y44083068D01*
X1020355Y44349627D01*
X767000Y44230807D01*
X513000Y44230807D01*
X259645Y44349627D01*
X-319726Y44083068D01*
X-752987Y43615084D01*
X-949619Y43140354D01*
X-6765000Y43140354D01*
X-6765000Y47195554D01*
X-4833859Y49126695D01*
X8364674Y49126695D01*
X8651043Y48433628D01*
X9180839Y47902907D01*
X9873405Y47615328D01*
X10623305Y47614674D01*
X11316372Y47901043D01*
X11847093Y48430839D01*
X12134672Y49123405D01*
X12135326Y49873305D01*
X11848957Y50566372D01*
X11319161Y51097093D01*
X10626595Y51384672D01*
X9876695Y51385326D01*
X9183628Y51098957D01*
X8652907Y50569161D01*
X8365328Y49876595D01*
X8364674Y49126695D01*
X-4833859Y49126695D01*
X-4480276Y49480277D01*
X-4320949Y49718728D01*
X-4265001Y50000000D01*
X-4290000Y50125680D01*
X-4290000Y54830350D01*
X-4279123Y54856609D01*
X-4117344Y55669926D01*
X-3737861Y56237862D01*
X-3169926Y56617344D01*
X-2356609Y56779123D01*
X-2330350Y56790000D01*
X482858Y56790000D01*
X99946Y56534147D01*
X99946Y56534147D01*
G37*
X99946Y56534147D02*
X-221961Y56052378D01*
X-335000Y55484093D01*
X-335000Y55425907D01*
X-221961Y54857622D01*
X99946Y54375853D01*
X581715Y54053946D01*
X1150000Y53940907D01*
X1309981Y53972729D01*
X2488855Y52793855D01*
X2792191Y52591173D01*
X3150000Y52520000D01*
X7519636Y52520000D01*
X7546235Y52493355D01*
X7963244Y52320197D01*
X8414775Y52319803D01*
X8832086Y52492233D01*
X9151645Y52811235D01*
X9324803Y53228244D01*
X9325197Y53679775D01*
X9152767Y54097086D01*
X8833765Y54416645D01*
X8416756Y54589803D01*
X7965225Y54590197D01*
X7702455Y54481622D01*
X7727440Y54605000D01*
X7727440Y56305000D01*
X7683162Y56540317D01*
X7544090Y56756441D01*
X7494975Y56790000D01*
X16292099Y56790000D01*
X16163569Y56601890D01*
X16112560Y56350000D01*
X16112560Y54650000D01*
X16156838Y54414683D01*
X16295910Y54198559D01*
X16508110Y54053569D01*
X16760000Y54002560D01*
X17041979Y54002560D01*
X17090277Y53930277D01*
X17485276Y53535277D01*
X17723728Y53375949D01*
X18005000Y53320000D01*
X27875429Y53320000D01*
X27996883Y53026057D01*
X28259673Y52762808D01*
X28603201Y52620162D01*
X28975167Y52619838D01*
X29318943Y52761883D01*
X29582192Y53024673D01*
X29724838Y53368201D01*
X29725162Y53740167D01*
X29583117Y54083943D01*
X29320327Y54347192D01*
X28976799Y54489838D01*
X28894537Y54489910D01*
X28877548Y54506899D01*
X29047702Y54761553D01*
X29114817Y54618642D01*
X29543076Y54228355D01*
X29953110Y54058524D01*
X30183000Y54179845D01*
X30183000Y55373000D01*
X30437000Y55373000D01*
X30437000Y54179845D01*
X30666890Y54058524D01*
X31076924Y54228355D01*
X31505183Y54618642D01*
X31751486Y55143108D01*
X31630819Y55373000D01*
X30437000Y55373000D01*
X30183000Y55373000D01*
X30163000Y55373000D01*
X30163000Y55627000D01*
X30183000Y55627000D01*
X30183000Y55647000D01*
X30437000Y55647000D01*
X30437000Y55627000D01*
X31630819Y55627000D01*
X31751486Y55856892D01*
X31505183Y56381358D01*
X31076924Y56771645D01*
X31032608Y56790000D01*
X32563000Y56790000D01*
X32563000Y48239979D01*
X29918151Y48239979D01*
X29560342Y48168806D01*
X29257006Y47966124D01*
X28340912Y47050030D01*
X28303263Y47050063D01*
X27885952Y46877633D01*
X27566393Y46558631D01*
X27393235Y46141622D01*
X27392841Y45690091D01*
X27565271Y45272780D01*
X27884273Y44953221D01*
X28284685Y44786955D01*
X28441708Y44406930D01*
X27580510Y44406930D01*
X27345193Y44362652D01*
X27129069Y44223580D01*
X27015610Y44057527D01*
X26697514Y44270072D01*
X26072022Y44394490D01*
X26007978Y44394490D01*
X25382486Y44270072D01*
X24852219Y43915759D01*
X24770000Y43792710D01*
X24687781Y43915759D01*
X24157514Y44270072D01*
X23532022Y44394490D01*
X23467978Y44394490D01*
X22842486Y44270072D01*
X22312219Y43915759D01*
X22230000Y43792710D01*
X22147781Y43915759D01*
X21617514Y44270072D01*
X20992022Y44394490D01*
X20927978Y44394490D01*
X20302486Y44270072D01*
X19772219Y43915759D01*
X19672621Y43766700D01*
X19379726Y44083068D01*
X18800355Y44349627D01*
X18547000Y44230807D01*
X18547000Y42887000D01*
X18567000Y42887000D01*
X18567000Y42633000D01*
X18547000Y42633000D01*
X18547000Y41289193D01*
X18800355Y41170373D01*
X19379726Y41436932D01*
X19672621Y41753300D01*
X19772219Y41604241D01*
X20225000Y41301702D01*
X20225000Y40435000D01*
X20280949Y40153728D01*
X20440277Y39915277D01*
X21754908Y38600645D01*
X21754838Y38519833D01*
X21896883Y38176057D01*
X22159673Y37912808D01*
X22503201Y37770162D01*
X22875167Y37769838D01*
X23190351Y37900069D01*
X23503201Y37770162D01*
X23875167Y37769838D01*
X24218943Y37911883D01*
X24482192Y38174673D01*
X24624838Y38518201D01*
X24625162Y38890167D01*
X24483117Y39233943D01*
X24220327Y39497192D01*
X23925000Y39619823D01*
X23925000Y41203678D01*
X24157514Y41249928D01*
X24687781Y41604241D01*
X24770000Y41727290D01*
X24852219Y41604241D01*
X25382486Y41249928D01*
X26007978Y41125510D01*
X26072022Y41125510D01*
X26697514Y41249928D01*
X27017077Y41463453D01*
X27116420Y41309069D01*
X27328620Y41164079D01*
X27580510Y41113070D01*
X29579490Y41113070D01*
X29814807Y41157348D01*
X30030931Y41296420D01*
X30175921Y41508620D01*
X30199489Y41625000D01*
X30579490Y41625000D01*
X31013836Y41711397D01*
X31382056Y41957434D01*
X32494622Y43070000D01*
X43255099Y43070000D01*
X43254838Y42769833D01*
X43396883Y42426057D01*
X43659673Y42162808D01*
X44003201Y42020162D01*
X44085463Y42020090D01*
X44270276Y41835277D01*
X44451941Y41713893D01*
X44508728Y41675949D01*
X44790000Y41620000D01*
X53454969Y41620000D01*
X53454838Y41469825D01*
X53596883Y41126049D01*
X53859673Y40862800D01*
X54203201Y40720154D01*
X54575167Y40719830D01*
X54918943Y40861875D01*
X55182192Y41124665D01*
X55324838Y41468193D01*
X55324973Y41622905D01*
X55646545Y41755776D01*
X55909794Y42018566D01*
X56052440Y42362094D01*
X56052723Y42687030D01*
X56146235Y42593355D01*
X56563244Y42420197D01*
X57014775Y42419803D01*
X57432086Y42592233D01*
X57751645Y42911235D01*
X57924803Y43328244D01*
X57925197Y43779775D01*
X57752767Y44197086D01*
X57433765Y44516645D01*
X57433290Y44516842D01*
X57092569Y44857563D01*
X57092567Y44857566D01*
X57009468Y44940665D01*
X57386846Y45096595D01*
X57588602Y45298000D01*
X69898060Y45298000D01*
X69898060Y44536000D01*
X69942338Y44300683D01*
X70036666Y44154093D01*
X69949069Y44025890D01*
X69898060Y43774000D01*
X69898060Y43012000D01*
X69942338Y42776683D01*
X70081410Y42560559D01*
X70293610Y42415569D01*
X70545500Y42364560D01*
X71434500Y42364560D01*
X71593563Y42394490D01*
X71852777Y42135276D01*
X72027447Y42018566D01*
X72091228Y41975949D01*
X72372500Y41920000D01*
X74002581Y41920000D01*
X74059673Y41862808D01*
X74403201Y41720162D01*
X74775167Y41719838D01*
X75118943Y41861883D01*
X75382192Y42124673D01*
X75524838Y42468201D01*
X75525162Y42840167D01*
X75383117Y43183943D01*
X75124990Y43442521D01*
X75125162Y43640167D01*
X74983117Y43983943D01*
X74720327Y44247192D01*
X74376799Y44389838D01*
X74052399Y44390121D01*
X74081940Y44536000D01*
X74081940Y45298000D01*
X74037662Y45533317D01*
X73898590Y45749441D01*
X73824866Y45799815D01*
X73825162Y46140167D01*
X73683117Y46483943D01*
X73420327Y46747192D01*
X73076799Y46889838D01*
X72704833Y46890162D01*
X72361057Y46748117D01*
X72097808Y46485327D01*
X71955162Y46141799D01*
X71954838Y45769833D01*
X72009296Y45638035D01*
X71989202Y45608626D01*
X71924873Y45708596D01*
X71925162Y46040167D01*
X71783117Y46383943D01*
X71520327Y46647192D01*
X71176799Y46789838D01*
X70804833Y46790162D01*
X70461057Y46648117D01*
X70197808Y46385327D01*
X70055162Y46041799D01*
X70054868Y45704733D01*
X69949069Y45549890D01*
X69898060Y45298000D01*
X57588602Y45298000D01*
X57706405Y45415597D01*
X57879563Y45832606D01*
X57879957Y46284137D01*
X57707527Y46701448D01*
X57644571Y46764514D01*
X57774835Y47078223D01*
X57775229Y47529754D01*
X57651996Y47828000D01*
X60690000Y47828000D01*
X60736159Y47836685D01*
X60778553Y47863965D01*
X60806994Y47905590D01*
X60817000Y47955000D01*
X60817000Y56790000D01*
X64830350Y56790000D01*
X64856609Y56779123D01*
X65669926Y56617344D01*
X66237862Y56237861D01*
X66617344Y55669926D01*
X66779123Y54856609D01*
X66828161Y54738221D01*
X67374546Y51991360D01*
X67449510Y51810383D01*
X67480561Y51735419D01*
X69106355Y49302245D01*
X69302244Y49106356D01*
X71735419Y47480561D01*
X71991360Y47374546D01*
X74738216Y46828163D01*
X74856609Y46779123D01*
X75669926Y46617344D01*
X76237862Y46237861D01*
X76617344Y45669926D01*
X76779123Y44856609D01*
X76790000Y44830350D01*
X76790000Y29215143D01*
X76736890Y29251431D01*
X76485000Y29302440D01*
X76378276Y29302440D01*
X76229724Y29524765D01*
X75645092Y30109397D01*
X75645162Y30190209D01*
X75503117Y30533985D01*
X75240327Y30797234D01*
X74896799Y30939880D01*
X74524833Y30940204D01*
X74181057Y30798159D01*
X73917808Y30535369D01*
X73775162Y30191841D01*
X73774838Y29819875D01*
X73916883Y29476099D01*
X74179673Y29212850D01*
X74466300Y29093831D01*
X74338569Y28906890D01*
X74287560Y28655000D01*
X74287560Y27355000D01*
X74331838Y27119683D01*
X74470910Y26903559D01*
X74683110Y26758569D01*
X74935000Y26707560D01*
X76485000Y26707560D01*
X76720317Y26751838D01*
X76790000Y26796678D01*
X76790000Y24715984D01*
X76611309Y24790000D01*
X75995750Y24790000D01*
X75837000Y24631250D01*
X75837000Y23632000D01*
X75857000Y23632000D01*
X75857000Y23378000D01*
X75837000Y23378000D01*
X75837000Y22378750D01*
X75995750Y22220000D01*
X76611309Y22220000D01*
X76790000Y22294016D01*
X76790000Y10169650D01*
X76779123Y10143391D01*
X76617344Y9330074D01*
X76237862Y8762139D01*
X75669926Y8382656D01*
X74856609Y8220877D01*
X74738216Y8171837D01*
X71991360Y7625454D01*
X71735419Y7519439D01*
X69302244Y5893644D01*
X69106355Y5697755D01*
X67480561Y3264581D01*
X67480561Y3264580D01*
X67374546Y3008640D01*
X66828161Y261779D01*
X66779123Y143391D01*
X66617344Y-669926D01*
X66237862Y-1237861D01*
X65669926Y-1617344D01*
X64856609Y-1779123D01*
X64830350Y-1790000D01*
X48124962Y-1790000D01*
X48125162Y-1559833D01*
X47983117Y-1216057D01*
X47905342Y-1138146D01*
X48050000Y-1167440D01*
X49750000Y-1167440D01*
X49985317Y-1123162D01*
X50201441Y-984090D01*
X50346431Y-771890D01*
X50360086Y-704459D01*
X50389946Y-749147D01*
X50871715Y-1071054D01*
X51440000Y-1184093D01*
X52008285Y-1071054D01*
X52490054Y-749147D01*
X52517850Y-707548D01*
X52526838Y-755317D01*
X52665910Y-971441D01*
X52878110Y-1116431D01*
X53130000Y-1167440D01*
X54830000Y-1167440D01*
X55065317Y-1123162D01*
X55281441Y-984090D01*
X55426431Y-771890D01*
X55448301Y-663893D01*
X55753076Y-941645D01*
X56163110Y-1111476D01*
X56393000Y-990155D01*
X56393000Y203000D01*
X56373000Y203000D01*
X56373000Y457000D01*
X56393000Y457000D01*
X56393000Y1650155D01*
X56647000Y1650155D01*
X56647000Y457000D01*
X56667000Y457000D01*
X56667000Y203000D01*
X56647000Y203000D01*
X56647000Y-990155D01*
X56876890Y-1111476D01*
X57286924Y-941645D01*
X57715183Y-551358D01*
X57782298Y-408447D01*
X58009946Y-749147D01*
X58491715Y-1071054D01*
X59060000Y-1184093D01*
X59628285Y-1071054D01*
X60110054Y-749147D01*
X60137850Y-707548D01*
X60146838Y-755317D01*
X60285910Y-971441D01*
X60498110Y-1116431D01*
X60750000Y-1167440D01*
X62450000Y-1167440D01*
X62685317Y-1123162D01*
X62872077Y-1002985D01*
X63038110Y-1116431D01*
X63290000Y-1167440D01*
X64990000Y-1167440D01*
X65225317Y-1123162D01*
X65441441Y-984090D01*
X65586431Y-771890D01*
X65637440Y-520000D01*
X65637440Y1180000D01*
X65593162Y1415317D01*
X65454090Y1631441D01*
X65241890Y1776431D01*
X64990000Y1827440D01*
X63290000Y1827440D01*
X63054683Y1783162D01*
X62867923Y1662985D01*
X62701890Y1776431D01*
X62450000Y1827440D01*
X60750000Y1827440D01*
X60514683Y1783162D01*
X60298559Y1644090D01*
X60153569Y1431890D01*
X60139914Y1364459D01*
X60110054Y1409147D01*
X59628285Y1731054D01*
X59060000Y1844093D01*
X58491715Y1731054D01*
X58009946Y1409147D01*
X57782298Y1068447D01*
X57715183Y1211358D01*
X57286924Y1601645D01*
X56876890Y1771476D01*
X56647000Y1650155D01*
X56393000Y1650155D01*
X56163110Y1771476D01*
X55753076Y1601645D01*
X55450063Y1325499D01*
X55433162Y1415317D01*
X55294090Y1631441D01*
X55081890Y1776431D01*
X54830000Y1827440D01*
X53130000Y1827440D01*
X52894683Y1783162D01*
X52678559Y1644090D01*
X52533569Y1431890D01*
X52519914Y1364459D01*
X52490054Y1409147D01*
X52008285Y1731054D01*
X51440000Y1844093D01*
X50871715Y1731054D01*
X50389946Y1409147D01*
X50362150Y1367548D01*
X50353162Y1415317D01*
X50214090Y1631441D01*
X50112742Y1700689D01*
X50269699Y1765703D01*
X50448327Y1944332D01*
X50545000Y2177721D01*
X50545000Y2718050D01*
X50386250Y2876800D01*
X49137840Y2876800D01*
X49137840Y2856800D01*
X48883840Y2856800D01*
X48883840Y2876800D01*
X47635430Y2876800D01*
X47476680Y2718050D01*
X47476680Y2177721D01*
X47573353Y1944332D01*
X47751981Y1765703D01*
X47773621Y1756739D01*
X47598559Y1644090D01*
X47453569Y1431890D01*
X47402560Y1180000D01*
X47402560Y-418113D01*
X47225092Y-240645D01*
X47225162Y-159833D01*
X47083117Y183943D01*
X46820327Y447192D01*
X46476799Y589838D01*
X46104833Y590162D01*
X45761057Y448117D01*
X45740194Y427290D01*
X45720327Y447192D01*
X45376799Y589838D01*
X45004833Y590162D01*
X44689649Y459931D01*
X44376799Y589838D01*
X44004833Y590162D01*
X43661057Y448117D01*
X43397808Y185327D01*
X43255162Y-158201D01*
X43255121Y-205077D01*
X42925198Y-535000D01*
X35824802Y-535000D01*
X35145122Y144680D01*
X35145162Y190167D01*
X35003117Y533943D01*
X34740327Y797192D01*
X34396799Y939838D01*
X34024833Y940162D01*
X33681057Y798117D01*
X33417808Y535327D01*
X33275162Y191799D01*
X33274838Y-180167D01*
X33405069Y-495351D01*
X33275162Y-808201D01*
X33274838Y-1180167D01*
X33416883Y-1523943D01*
X33679673Y-1787192D01*
X33686435Y-1790000D01*
X26345005Y-1790000D01*
X26345162Y-1609839D01*
X26245000Y-1367428D01*
X26245000Y-122211D01*
X26344838Y118224D01*
X26345162Y490190D01*
X26203117Y833966D01*
X25940327Y1097215D01*
X25596799Y1239861D01*
X25224833Y1240185D01*
X24881057Y1098140D01*
X24617808Y835350D01*
X24475162Y491822D01*
X24474838Y119856D01*
X24575000Y-122555D01*
X24575000Y-1367772D01*
X24475162Y-1608207D01*
X24475004Y-1790000D01*
X-2330350Y-1790000D01*
X-2356609Y-1779123D01*
X-3169926Y-1617344D01*
X-3737861Y-1237862D01*
X-4117344Y-669926D01*
X-4265000Y72390D01*
X-4265000Y219085D01*
X12315620Y219085D01*
X12457665Y-124691D01*
X12720455Y-387940D01*
X13063983Y-530586D01*
X13435949Y-530910D01*
X13779725Y-388865D01*
X14010637Y-158356D01*
X14303201Y-279840D01*
X14675167Y-280164D01*
X15018943Y-138119D01*
X15052118Y-105002D01*
X17543897Y-105002D01*
X17722541Y-283958D01*
X18066069Y-426604D01*
X18438035Y-426928D01*
X18781811Y-284883D01*
X19045060Y-22093D01*
X19187706Y321435D01*
X19188030Y693401D01*
X19045985Y1037177D01*
X19033925Y1049258D01*
X19124838Y1268201D01*
X19125162Y1640167D01*
X19009605Y1919837D01*
X31874838Y1919837D01*
X32016883Y1576061D01*
X32279673Y1312812D01*
X32623201Y1170166D01*
X32995167Y1169842D01*
X33338943Y1311887D01*
X33602192Y1574677D01*
X33642426Y1671570D01*
X33927050Y1671570D01*
X34085800Y1830320D01*
X34085800Y2978400D01*
X34065800Y2978400D01*
X34065800Y3232400D01*
X34085800Y3232400D01*
X34085800Y4319833D01*
X34274838Y4319833D01*
X34339800Y4162613D01*
X34339800Y3232400D01*
X34529030Y3232400D01*
X34529030Y2978400D01*
X34339800Y2978400D01*
X34339800Y1830320D01*
X34498550Y1671570D01*
X34529030Y1671570D01*
X34529030Y1580821D01*
X34625703Y1347432D01*
X34804331Y1168803D01*
X35037720Y1072130D01*
X35227530Y1072130D01*
X35386280Y1230880D01*
X35386280Y1882255D01*
X35450897Y1946872D01*
X35547570Y2180261D01*
X35547570Y2652960D01*
X35616410Y2652960D01*
X35616410Y1707130D01*
X35640280Y1580272D01*
X35640280Y1230880D01*
X35799030Y1072130D01*
X35988840Y1072130D01*
X36058971Y1101179D01*
X36263850Y1059690D01*
X36962350Y1059690D01*
X37170376Y1098833D01*
X37329431Y1066624D01*
X37383151Y1012810D01*
X37726679Y870164D01*
X38098645Y869840D01*
X38442421Y1011885D01*
X38502771Y1072130D01*
X38526990Y1072130D01*
X38685740Y1230880D01*
X38685740Y1254780D01*
X38705670Y1274675D01*
X38848316Y1618203D01*
X38848640Y1990169D01*
X38709610Y2326648D01*
X38709610Y2652960D01*
X38915870Y2652960D01*
X38915870Y1707130D01*
X38939740Y1580272D01*
X38939740Y1230880D01*
X39098490Y1072130D01*
X39288300Y1072130D01*
X39358431Y1101179D01*
X39563310Y1059690D01*
X39667182Y1059690D01*
X40003201Y920162D01*
X40375167Y919838D01*
X40713636Y1059690D01*
X40767182Y1059690D01*
X41103201Y920162D01*
X41475167Y919838D01*
X41790351Y1050069D01*
X42103201Y920162D01*
X42475167Y919838D01*
X42818943Y1061883D01*
X42824080Y1067011D01*
X42860230Y1059690D01*
X43558730Y1059690D01*
X43766756Y1098833D01*
X43960050Y1059690D01*
X44658550Y1059690D01*
X44893867Y1103968D01*
X45109991Y1243040D01*
X45254981Y1455240D01*
X45305990Y1707130D01*
X45305990Y2718833D01*
X45423201Y2670162D01*
X45795167Y2669838D01*
X46138943Y2811883D01*
X46402192Y3074673D01*
X46544838Y3418201D01*
X46545162Y3790167D01*
X46528754Y3829879D01*
X47476680Y3829879D01*
X47476680Y3289550D01*
X47635430Y3130800D01*
X48883840Y3130800D01*
X48883840Y4179820D01*
X49137840Y4179820D01*
X49137840Y3130800D01*
X50386250Y3130800D01*
X50545000Y3289550D01*
X50545000Y3829879D01*
X50448327Y4063268D01*
X50269699Y4241897D01*
X50036310Y4338570D01*
X49296590Y4338570D01*
X49137840Y4179820D01*
X48883840Y4179820D01*
X48725090Y4338570D01*
X47985370Y4338570D01*
X47751981Y4241897D01*
X47573353Y4063268D01*
X47476680Y3829879D01*
X46528754Y3829879D01*
X46403117Y4133943D01*
X46151615Y4385884D01*
X46147401Y4392191D01*
X45912897Y4626695D01*
X51864674Y4626695D01*
X52151043Y3933628D01*
X52680839Y3402907D01*
X53373405Y3115328D01*
X54123305Y3114674D01*
X54816372Y3401043D01*
X55347093Y3930839D01*
X55634672Y4623405D01*
X55635326Y5373305D01*
X55348957Y6066372D01*
X54819161Y6597093D01*
X54126595Y6884672D01*
X53376695Y6885326D01*
X52683628Y6598957D01*
X52152907Y6069161D01*
X51865328Y5376595D01*
X51864674Y4626695D01*
X45912897Y4626695D01*
X44476455Y6063137D01*
X44476495Y6108624D01*
X44334450Y6452400D01*
X44071660Y6715649D01*
X43728132Y6858295D01*
X43356166Y6858619D01*
X43012390Y6716574D01*
X42806358Y6510901D01*
X42736756Y6539803D01*
X42285225Y6540197D01*
X41867914Y6367767D01*
X41860266Y6360132D01*
X41853765Y6366645D01*
X41436756Y6539803D01*
X40985225Y6540197D01*
X40567914Y6367767D01*
X40248355Y6048765D01*
X40075197Y5631756D01*
X40074803Y5180225D01*
X40247233Y4762914D01*
X40375000Y4634924D01*
X40375000Y3929308D01*
X40261810Y3952230D01*
X39563310Y3952230D01*
X39540118Y3947866D01*
X39574850Y4031509D01*
X39575174Y4403475D01*
X39433129Y4747251D01*
X39170339Y5010500D01*
X38826811Y5153146D01*
X38454845Y5153470D01*
X38111069Y5011425D01*
X37847820Y4748635D01*
X37802711Y4640000D01*
X36145118Y4640000D01*
X36145162Y4690167D01*
X36003117Y5033943D01*
X35740327Y5297192D01*
X35396799Y5439838D01*
X35024833Y5440162D01*
X34681057Y5298117D01*
X34417808Y5035327D01*
X34275162Y4691799D01*
X34274838Y4319833D01*
X34085800Y4319833D01*
X34085800Y4380480D01*
X33927050Y4539230D01*
X33812046Y4539230D01*
X33844838Y4618201D01*
X33845162Y4990167D01*
X33703117Y5333943D01*
X33440327Y5597192D01*
X33096799Y5739838D01*
X32724833Y5740162D01*
X32381057Y5598117D01*
X32117808Y5335327D01*
X31975162Y4991799D01*
X31974838Y4619833D01*
X32116883Y4276057D01*
X32175000Y4217838D01*
X32175000Y2792249D01*
X32017808Y2635331D01*
X31875162Y2291803D01*
X31874838Y1919837D01*
X19009605Y1919837D01*
X18983117Y1983943D01*
X18720327Y2247192D01*
X18376799Y2389838D01*
X18004833Y2390162D01*
X17661057Y2248117D01*
X17627882Y2215000D01*
X14301530Y2215000D01*
X14058944Y2166746D01*
X14010690Y2157148D01*
X13764129Y1992401D01*
X13111102Y1339374D01*
X13065615Y1339414D01*
X12721839Y1197369D01*
X12458590Y934579D01*
X12315944Y591051D01*
X12315620Y219085D01*
X-4265000Y219085D01*
X-4265000Y4626695D01*
X8304674Y4626695D01*
X8591043Y3933628D01*
X9120839Y3402907D01*
X9813405Y3115328D01*
X10563305Y3114674D01*
X11256372Y3401043D01*
X11787093Y3930839D01*
X12074672Y4623405D01*
X12075326Y5373305D01*
X11788957Y6066372D01*
X11259161Y6597093D01*
X10566595Y6884672D01*
X9816695Y6885326D01*
X9123628Y6598957D01*
X8592907Y6069161D01*
X8305328Y5376595D01*
X8304674Y4626695D01*
X-4265000Y4626695D01*
X-4265000Y5000000D01*
X-4320949Y5281272D01*
X-4349982Y5324723D01*
X-4480276Y5519723D01*
X-6765000Y7804446D01*
X-6765000Y9769833D01*
X2254838Y9769833D01*
X2396883Y9426057D01*
X2430000Y9392882D01*
X2430000Y8517463D01*
X2397808Y8485327D01*
X2255162Y8141799D01*
X2254838Y7769833D01*
X2396883Y7426057D01*
X2659673Y7162808D01*
X3003201Y7020162D01*
X3375167Y7019838D01*
X3690351Y7150069D01*
X4003201Y7020162D01*
X4375167Y7019838D01*
X4718943Y7161883D01*
X4982192Y7424673D01*
X5124838Y7768201D01*
X5125162Y8140167D01*
X4983117Y8483943D01*
X4950000Y8517118D01*
X4950000Y9392537D01*
X4982192Y9424673D01*
X5124838Y9768201D01*
X5125162Y10140167D01*
X4983117Y10483943D01*
X4720327Y10747192D01*
X4376799Y10889838D01*
X4004833Y10890162D01*
X3689649Y10759931D01*
X3376799Y10889838D01*
X3004833Y10890162D01*
X2661057Y10748117D01*
X2397808Y10485327D01*
X2255162Y10141799D01*
X2254838Y9769833D01*
X-6765000Y9769833D01*
X-6765000Y12319250D01*
X32878030Y12319250D01*
X32878030Y11378871D01*
X32974703Y11145482D01*
X33153331Y10966853D01*
X33386720Y10870180D01*
X33927050Y10870180D01*
X34085800Y11028930D01*
X34085800Y12478000D01*
X34339800Y12478000D01*
X34339800Y11028930D01*
X34498550Y10870180D01*
X35038880Y10870180D01*
X35272269Y10966853D01*
X35450897Y11145482D01*
X35547570Y11378871D01*
X35547570Y12319250D01*
X35388820Y12478000D01*
X34339800Y12478000D01*
X34085800Y12478000D01*
X33036780Y12478000D01*
X32878030Y12319250D01*
X-6765000Y12319250D01*
X-6765000Y13831129D01*
X32878030Y13831129D01*
X32878030Y12890750D01*
X33036780Y12732000D01*
X34085800Y12732000D01*
X34085800Y14181070D01*
X34339800Y14181070D01*
X34339800Y12732000D01*
X35388820Y12732000D01*
X35438005Y12781185D01*
X35926203Y12781185D01*
X36098633Y12363874D01*
X36417635Y12044315D01*
X36834644Y11871157D01*
X37286175Y11870763D01*
X37607050Y12003346D01*
X37521781Y11797997D01*
X37521658Y11657063D01*
X37295736Y11431535D01*
X37163385Y11112800D01*
X37022400Y11054546D01*
X36759151Y10791756D01*
X36616505Y10448228D01*
X36616181Y10076262D01*
X36758226Y9732486D01*
X37021016Y9469237D01*
X37364544Y9326591D01*
X37736510Y9326267D01*
X38080286Y9468312D01*
X38138505Y9526429D01*
X39496070Y9526429D01*
X39516883Y9476057D01*
X39779673Y9212808D01*
X40123201Y9070162D01*
X40495167Y9069838D01*
X40684873Y9148223D01*
X41006514Y9014665D01*
X41378480Y9014341D01*
X41722256Y9156386D01*
X41874915Y9308779D01*
X41874838Y9219833D01*
X42016883Y8876057D01*
X42279673Y8612808D01*
X42623201Y8470162D01*
X42995167Y8469838D01*
X43338943Y8611883D01*
X43602192Y8874673D01*
X43744838Y9218201D01*
X43745162Y9590167D01*
X43603117Y9933943D01*
X43340327Y10197192D01*
X43087713Y10302087D01*
X42845120Y10544680D01*
X42845160Y10590167D01*
X42703115Y10933943D01*
X42440325Y11197192D01*
X42096797Y11339838D01*
X42014535Y11339910D01*
X41223523Y12130921D01*
X40985072Y12290249D01*
X40959669Y12295302D01*
X40703800Y12346198D01*
X39044038Y12346198D01*
X38986946Y12403390D01*
X38643418Y12546036D01*
X38271452Y12546360D01*
X38063909Y12460605D01*
X38196203Y12779204D01*
X38196597Y13230735D01*
X38024167Y13648046D01*
X37705165Y13967605D01*
X37288156Y14140763D01*
X36836625Y14141157D01*
X36419314Y13968727D01*
X36099755Y13649725D01*
X35926597Y13232716D01*
X35926203Y12781185D01*
X35438005Y12781185D01*
X35547570Y12890750D01*
X35547570Y13831129D01*
X35450897Y14064518D01*
X35272269Y14243147D01*
X35038880Y14339820D01*
X34498550Y14339820D01*
X34339800Y14181070D01*
X34085800Y14181070D01*
X33927050Y14339820D01*
X33386720Y14339820D01*
X33153331Y14243147D01*
X32974703Y14064518D01*
X32878030Y13831129D01*
X-6765000Y13831129D01*
X-6765000Y23769823D01*
X-6745162Y23769823D01*
X-6603117Y23426047D01*
X-6545000Y23367828D01*
X-6545000Y22256162D01*
X-6491117Y21985277D01*
X-6489051Y21974890D01*
X-6329723Y21736439D01*
X-5245080Y20651795D01*
X-5245150Y20570983D01*
X-5103105Y20227207D01*
X-4840315Y19963958D01*
X-4496787Y19821312D01*
X-4124821Y19820988D01*
X-3781045Y19963033D01*
X-3517796Y20225823D01*
X-3375150Y20569351D01*
X-3374826Y20941317D01*
X-3397007Y20995000D01*
X-993345Y20995000D01*
X-879271Y20421511D01*
X-554415Y19935330D01*
X-239634Y19725000D01*
X-554415Y19514670D01*
X-879271Y19028489D01*
X-993345Y18455000D01*
X-879271Y17881511D01*
X-554415Y17395330D01*
X-540087Y17385757D01*
X-561317Y17381762D01*
X-777441Y17242690D01*
X-922431Y17030490D01*
X-973440Y16778600D01*
X-973440Y15051400D01*
X-929162Y14816083D01*
X-790090Y14599959D01*
X-577890Y14454969D01*
X-326000Y14403960D01*
X1706000Y14403960D01*
X1941317Y14448238D01*
X2157441Y14587310D01*
X2302431Y14799510D01*
X2353440Y15051400D01*
X2353440Y16670000D01*
X3539811Y16670000D01*
X3666235Y16543355D01*
X4083244Y16370197D01*
X4534775Y16369803D01*
X4952086Y16542233D01*
X5271645Y16861235D01*
X5444803Y17278244D01*
X5444870Y17355227D01*
X11154803Y17355227D01*
X11327233Y16937916D01*
X11646235Y16618357D01*
X12063244Y16445199D01*
X12514775Y16444805D01*
X12932086Y16617235D01*
X13060076Y16745002D01*
X14005034Y16745002D01*
X14004838Y16519833D01*
X14146883Y16176057D01*
X14409673Y15912808D01*
X14753201Y15770162D01*
X15125167Y15769838D01*
X15468943Y15911883D01*
X15502118Y15945000D01*
X17375198Y15945000D01*
X18427597Y14892601D01*
X18674158Y14727854D01*
X18713643Y14720000D01*
X18964998Y14670002D01*
X20077537Y14670002D01*
X20109673Y14637810D01*
X20453201Y14495164D01*
X20825167Y14494840D01*
X21168943Y14636885D01*
X21432192Y14899675D01*
X21482086Y15019833D01*
X41754838Y15019833D01*
X41896883Y14676057D01*
X42159673Y14412808D01*
X42254928Y14373254D01*
X42254838Y14269833D01*
X42396883Y13926057D01*
X42659673Y13662808D01*
X43003201Y13520162D01*
X43375167Y13519838D01*
X43718943Y13661883D01*
X43727050Y13669976D01*
X44120041Y13669976D01*
X44099755Y13649725D01*
X43926597Y13232716D01*
X43926203Y12781185D01*
X44098633Y12363874D01*
X44417635Y12044315D01*
X44834644Y11871157D01*
X45286175Y11870763D01*
X45703486Y12043193D01*
X45980025Y12319250D01*
X48575230Y12319250D01*
X48575230Y11378871D01*
X48671903Y11145482D01*
X48850531Y10966853D01*
X49083920Y10870180D01*
X49624250Y10870180D01*
X49783000Y11028930D01*
X49783000Y12478000D01*
X50037000Y12478000D01*
X50037000Y11028930D01*
X50195750Y10870180D01*
X50736080Y10870180D01*
X50969469Y10966853D01*
X51148097Y11145482D01*
X51244770Y11378871D01*
X51244770Y11519833D01*
X58254838Y11519833D01*
X58396883Y11176057D01*
X58455000Y11117838D01*
X58455000Y9792419D01*
X58397808Y9735327D01*
X58255162Y9391799D01*
X58254838Y9019833D01*
X58396883Y8676057D01*
X58659673Y8412808D01*
X59003201Y8270162D01*
X59375167Y8269838D01*
X59718943Y8411883D01*
X59879052Y8571713D01*
X60003201Y8520162D01*
X60375167Y8519838D01*
X60718943Y8661883D01*
X60982192Y8924673D01*
X61124838Y9268201D01*
X61125162Y9640167D01*
X60983117Y9983943D01*
X60975477Y9991597D01*
X64854682Y9991597D01*
X65133455Y9316914D01*
X65649199Y8800270D01*
X66323395Y8520319D01*
X67053403Y8519682D01*
X67728086Y8798455D01*
X68244730Y9314199D01*
X68524681Y9988395D01*
X68525318Y10718403D01*
X68246545Y11393086D01*
X67730801Y11909730D01*
X67465242Y12020000D01*
X68016310Y12020000D01*
X68249699Y12116673D01*
X68428327Y12295302D01*
X68525000Y12528691D01*
X68525000Y13569250D01*
X68366250Y13728000D01*
X66817000Y13728000D01*
X66817000Y13708000D01*
X66563000Y13708000D01*
X66563000Y13728000D01*
X65013750Y13728000D01*
X64855000Y13569250D01*
X64855000Y12528691D01*
X64951673Y12295302D01*
X65130301Y12116673D01*
X65363690Y12020000D01*
X65914395Y12020000D01*
X65651914Y11911545D01*
X65135270Y11395801D01*
X64855319Y10721605D01*
X64854682Y9991597D01*
X60975477Y9991597D01*
X60925000Y10042162D01*
X60925000Y11867581D01*
X60982192Y11924673D01*
X61124838Y12268201D01*
X61125162Y12640167D01*
X60983117Y12983943D01*
X60720327Y13247192D01*
X60376799Y13389838D01*
X60004833Y13390162D01*
X59661057Y13248117D01*
X59397808Y12985327D01*
X59255162Y12641799D01*
X59255160Y12639944D01*
X59004833Y12640162D01*
X58661057Y12498117D01*
X58397808Y12235327D01*
X58255162Y11891799D01*
X58254838Y11519833D01*
X51244770Y11519833D01*
X51244770Y12319250D01*
X51086020Y12478000D01*
X50037000Y12478000D01*
X49783000Y12478000D01*
X48733980Y12478000D01*
X48575230Y12319250D01*
X45980025Y12319250D01*
X46023045Y12362195D01*
X46196203Y12779204D01*
X46196597Y13230735D01*
X46024167Y13648046D01*
X46002275Y13669976D01*
X48575230Y13669976D01*
X48575230Y12890750D01*
X48733980Y12732000D01*
X49783000Y12732000D01*
X49783000Y12752000D01*
X50037000Y12752000D01*
X50037000Y12732000D01*
X51086020Y12732000D01*
X51244770Y12890750D01*
X51244770Y13363688D01*
X51321961Y13176871D01*
X51584751Y12913622D01*
X51928279Y12770976D01*
X52300245Y12770652D01*
X52483405Y12846332D01*
X52727863Y12744824D01*
X53099829Y12744500D01*
X53443605Y12886545D01*
X53706854Y13149335D01*
X53849500Y13492863D01*
X53849824Y13864829D01*
X53806378Y13969976D01*
X54460481Y13969976D01*
X54741753Y14025925D01*
X54980204Y14185253D01*
X55064839Y14269887D01*
X55145651Y14269817D01*
X55489427Y14411862D01*
X55752676Y14674652D01*
X55895322Y15018180D01*
X55895646Y15390146D01*
X55753601Y15733922D01*
X55490811Y15997171D01*
X55147283Y16139817D01*
X54775317Y16140141D01*
X54650252Y16088465D01*
X54641563Y16097169D01*
X54466570Y16169833D01*
X59154838Y16169833D01*
X59264359Y15904772D01*
X59155162Y15641799D01*
X59154838Y15269833D01*
X59296883Y14926057D01*
X59559673Y14662808D01*
X59903201Y14520162D01*
X60275167Y14519838D01*
X60618943Y14661883D01*
X60677162Y14720000D01*
X61802593Y14720000D01*
X61859685Y14662808D01*
X62203213Y14520162D01*
X62575179Y14519838D01*
X62918955Y14661883D01*
X63182204Y14924673D01*
X63288769Y15181309D01*
X64855000Y15181309D01*
X64855000Y14140750D01*
X65013750Y13982000D01*
X66563000Y13982000D01*
X66563000Y15531250D01*
X66817000Y15531250D01*
X66817000Y13982000D01*
X68366250Y13982000D01*
X68525000Y14140750D01*
X68525000Y15181309D01*
X68428327Y15414698D01*
X68249699Y15593327D01*
X68016310Y15690000D01*
X66975750Y15690000D01*
X66817000Y15531250D01*
X66563000Y15531250D01*
X66404250Y15690000D01*
X65363690Y15690000D01*
X65130301Y15593327D01*
X64951673Y15414698D01*
X64855000Y15181309D01*
X63288769Y15181309D01*
X63324850Y15268201D01*
X63324985Y15423060D01*
X63418943Y15461883D01*
X63682192Y15724673D01*
X63824838Y16068201D01*
X63825162Y16440167D01*
X63683117Y16783943D01*
X63420327Y17047192D01*
X63076799Y17189838D01*
X62704833Y17190162D01*
X62462422Y17090000D01*
X60677419Y17090000D01*
X60620327Y17147192D01*
X60276799Y17289838D01*
X59904833Y17290162D01*
X59561057Y17148117D01*
X59297808Y16885327D01*
X59155162Y16541799D01*
X59154838Y16169833D01*
X54466570Y16169833D01*
X54298035Y16239815D01*
X54158495Y16239937D01*
X54092509Y16284027D01*
X54046338Y16293211D01*
X53811237Y16339976D01*
X52844470Y16339976D01*
X52709723Y16474723D01*
X52471272Y16634051D01*
X52440525Y16640167D01*
X52190000Y16690000D01*
X44494447Y16690000D01*
X44375092Y16809355D01*
X44375162Y16890167D01*
X44233117Y17233943D01*
X43970327Y17497192D01*
X43626799Y17639838D01*
X43254833Y17640162D01*
X42911057Y17498117D01*
X42647808Y17235327D01*
X42505162Y16891799D01*
X42504838Y16519833D01*
X42508750Y16510365D01*
X42423696Y16425459D01*
X42281050Y16081931D01*
X42281020Y16047685D01*
X42161057Y15998117D01*
X41897808Y15735327D01*
X41755162Y15391799D01*
X41754838Y15019833D01*
X21482086Y15019833D01*
X21574838Y15243203D01*
X21575162Y15615169D01*
X21542177Y15695000D01*
X24152526Y15695000D01*
X24159695Y15687818D01*
X24503223Y15545172D01*
X24875189Y15544848D01*
X25218965Y15686893D01*
X25482214Y15949683D01*
X25624860Y16293211D01*
X25625184Y16665177D01*
X25592201Y16745002D01*
X25919130Y16745002D01*
X26154959Y16509173D01*
X26154803Y16330225D01*
X26327233Y15912914D01*
X26646235Y15593355D01*
X27063244Y15420197D01*
X27514775Y15419803D01*
X27932086Y15592233D01*
X28251645Y15911235D01*
X28424803Y16328244D01*
X28425197Y16779775D01*
X28252767Y17197086D01*
X27933765Y17516645D01*
X27516756Y17689803D01*
X27335907Y17689961D01*
X26855432Y18170436D01*
X26778129Y18222088D01*
X26584539Y18351441D01*
X26264998Y18415002D01*
X13060189Y18415002D01*
X12933765Y18541647D01*
X12516756Y18714805D01*
X12065225Y18715199D01*
X11647914Y18542769D01*
X11328355Y18223767D01*
X11155197Y17806758D01*
X11154803Y17355227D01*
X5444870Y17355227D01*
X5445197Y17729775D01*
X5272767Y18147086D01*
X4953765Y18466645D01*
X4536756Y18639803D01*
X4085225Y18640197D01*
X3667914Y18467767D01*
X3539924Y18340000D01*
X2350470Y18340000D01*
X2373345Y18455000D01*
X2259271Y19028489D01*
X1934415Y19514670D01*
X1619634Y19725000D01*
X1934415Y19935330D01*
X2259271Y20421511D01*
X2360108Y20928458D01*
X34546880Y20928458D01*
X34688925Y20584682D01*
X34951715Y20321433D01*
X35295243Y20178787D01*
X35403589Y20178693D01*
X35403277Y19820696D01*
X35545322Y19476920D01*
X35808112Y19213671D01*
X36151640Y19071025D01*
X36523606Y19070701D01*
X36783469Y19178074D01*
X36846883Y19024601D01*
X36883487Y18987933D01*
X36372256Y18476702D01*
X36061055Y18348117D01*
X35797806Y18085327D01*
X35655160Y17741799D01*
X35654836Y17369833D01*
X35796881Y17026057D01*
X36059671Y16762808D01*
X36403199Y16620162D01*
X36775165Y16619838D01*
X37118941Y16761883D01*
X37382190Y17024673D01*
X37524836Y17368201D01*
X37524995Y17550549D01*
X39770083Y19795636D01*
X39850895Y19795566D01*
X40194671Y19937611D01*
X40355566Y20098226D01*
X68796835Y20098226D01*
X68831801Y19725989D01*
X68906980Y19544490D01*
X68961360Y19540918D01*
X68955001Y19508948D01*
X69010949Y19227676D01*
X69015000Y19221613D01*
X69015000Y18715000D01*
X69070949Y18433728D01*
X69230277Y18195277D01*
X69468728Y18035949D01*
X69750000Y17980000D01*
X70031272Y18035949D01*
X70269723Y18195277D01*
X70429051Y18433728D01*
X70485000Y18715000D01*
X70485000Y19353823D01*
X70783428Y19353823D01*
X70795942Y19158978D01*
X71152351Y19049236D01*
X71523625Y19084240D01*
X71704058Y19158978D01*
X71716572Y19353823D01*
X71250000Y19820395D01*
X70783428Y19353823D01*
X70485000Y19353823D01*
X70485000Y19383402D01*
X70515603Y19414005D01*
X70485000Y19444608D01*
X70485000Y19537395D01*
X70513208Y19539248D01*
X70603823Y19533428D01*
X71070395Y20000000D01*
X71429605Y20000000D01*
X71896177Y19533428D01*
X72091022Y19545942D01*
X72200764Y19902351D01*
X72165760Y20273625D01*
X72091022Y20454058D01*
X71896177Y20466572D01*
X71429605Y20000000D01*
X71070395Y20000000D01*
X70603823Y20466572D01*
X70513208Y20460752D01*
X70397929Y20468324D01*
X70118992Y20189387D01*
X70031272Y20247999D01*
X69853713Y20283318D01*
X70216572Y20646177D01*
X70783428Y20646177D01*
X71250000Y20179605D01*
X71716572Y20646177D01*
X71704058Y20841022D01*
X71347649Y20950764D01*
X70976375Y20915760D01*
X70795942Y20841022D01*
X70783428Y20646177D01*
X70216572Y20646177D01*
X70218324Y20647929D01*
X70205510Y20843020D01*
X69848226Y20953165D01*
X69475989Y20918199D01*
X69294490Y20843020D01*
X69281676Y20647929D01*
X69646287Y20283318D01*
X69468728Y20247999D01*
X69381008Y20189387D01*
X69102071Y20468324D01*
X68906980Y20455510D01*
X68796835Y20098226D01*
X40355566Y20098226D01*
X40457920Y20200401D01*
X40600566Y20543929D01*
X40600890Y20915895D01*
X40458845Y21259671D01*
X40196055Y21522920D01*
X40114154Y21556928D01*
X40282192Y21724673D01*
X40424838Y22068201D01*
X40424910Y22150464D01*
X43409723Y25135276D01*
X43569050Y25373727D01*
X43624999Y25654999D01*
X43624999Y27469844D01*
X46020512Y27469844D01*
X46162557Y27126068D01*
X46220674Y27067849D01*
X46220674Y23908159D01*
X46197808Y23885333D01*
X46055162Y23541805D01*
X46054838Y23169839D01*
X46196883Y22826063D01*
X46459673Y22562814D01*
X46803201Y22420168D01*
X47175167Y22419844D01*
X47518943Y22561889D01*
X47782192Y22824679D01*
X47883989Y23069833D01*
X60754838Y23069833D01*
X60896883Y22726057D01*
X61159673Y22462808D01*
X61503201Y22320162D01*
X61875167Y22319838D01*
X62117583Y22420002D01*
X63402581Y22420002D01*
X63459673Y22362810D01*
X63803201Y22220164D01*
X64175167Y22219840D01*
X64417169Y22319833D01*
X65274838Y22319833D01*
X65416883Y21976057D01*
X65679673Y21712808D01*
X66023201Y21570162D01*
X66105463Y21570090D01*
X66140276Y21535277D01*
X66378727Y21375949D01*
X66425394Y21366667D01*
X66660000Y21320000D01*
X69502581Y21320000D01*
X69559673Y21262808D01*
X69903201Y21120162D01*
X70275167Y21119838D01*
X70618943Y21261883D01*
X70882192Y21524673D01*
X71024838Y21868201D01*
X71025162Y22240167D01*
X70883117Y22583943D01*
X70620327Y22847192D01*
X70276799Y22989838D01*
X69904833Y22990162D01*
X69561057Y22848117D01*
X69502838Y22790000D01*
X69170000Y22790000D01*
X69170000Y23219250D01*
X74300000Y23219250D01*
X74300000Y22728690D01*
X74396673Y22495301D01*
X74575302Y22316673D01*
X74808691Y22220000D01*
X75424250Y22220000D01*
X75583000Y22378750D01*
X75583000Y23378000D01*
X74458750Y23378000D01*
X74300000Y23219250D01*
X69170000Y23219250D01*
X69011250Y23378000D01*
X67887000Y23378000D01*
X67887000Y23358000D01*
X67633000Y23358000D01*
X67633000Y23378000D01*
X66545721Y23378000D01*
X66396799Y23439838D01*
X66024833Y23440162D01*
X65681057Y23298117D01*
X65417808Y23035327D01*
X65275162Y22691799D01*
X65274838Y22319833D01*
X64417169Y22319833D01*
X64518943Y22361885D01*
X64782192Y22624675D01*
X64924838Y22968203D01*
X64925162Y23340169D01*
X64783117Y23683945D01*
X64520327Y23947194D01*
X64368156Y24010381D01*
X64413440Y24234000D01*
X64413440Y24281310D01*
X66350000Y24281310D01*
X66350000Y23790750D01*
X66508750Y23632000D01*
X67633000Y23632000D01*
X67633000Y24631250D01*
X67887000Y24631250D01*
X67887000Y23632000D01*
X69011250Y23632000D01*
X69170000Y23790750D01*
X69170000Y24281310D01*
X74300000Y24281310D01*
X74300000Y23790750D01*
X74458750Y23632000D01*
X75583000Y23632000D01*
X75583000Y24631250D01*
X75424250Y24790000D01*
X74808691Y24790000D01*
X74575302Y24693327D01*
X74396673Y24514699D01*
X74300000Y24281310D01*
X69170000Y24281310D01*
X69073327Y24514699D01*
X68894698Y24693327D01*
X68661309Y24790000D01*
X68045750Y24790000D01*
X67887000Y24631250D01*
X67633000Y24631250D01*
X67474250Y24790000D01*
X66858691Y24790000D01*
X66625302Y24693327D01*
X66446673Y24514699D01*
X66350000Y24281310D01*
X64413440Y24281310D01*
X64413440Y26266000D01*
X64369162Y26501317D01*
X64230090Y26717441D01*
X64081163Y26819198D01*
X64307670Y27158190D01*
X64433345Y27790000D01*
X64307670Y28421810D01*
X63949778Y28957433D01*
X63825000Y29040807D01*
X63825000Y29689833D01*
X64274838Y29689833D01*
X64416883Y29346057D01*
X64679673Y29082808D01*
X65023201Y28940162D01*
X65395167Y28939838D01*
X65583074Y29017480D01*
X66337560Y28262993D01*
X66337560Y27355000D01*
X66381838Y27119683D01*
X66520910Y26903559D01*
X66733110Y26758569D01*
X66985000Y26707560D01*
X68535000Y26707560D01*
X68770317Y26751838D01*
X68986441Y26890910D01*
X69131431Y27103110D01*
X69182440Y27355000D01*
X69182440Y28655000D01*
X69138162Y28890317D01*
X68999090Y29106441D01*
X68786890Y29251431D01*
X68535000Y29302440D01*
X67377007Y29302440D01*
X66284723Y30394723D01*
X66046272Y30554051D01*
X65805452Y30601954D01*
X65740327Y30667192D01*
X65396799Y30809838D01*
X65024833Y30810162D01*
X64681057Y30668117D01*
X64417808Y30405327D01*
X64275162Y30061799D01*
X64274838Y29689833D01*
X63825000Y29689833D01*
X63825000Y31204010D01*
X63825197Y31429775D01*
X63652767Y31847086D01*
X63333765Y32166645D01*
X62916756Y32339803D01*
X62465225Y32340197D01*
X62047914Y32167767D01*
X61728355Y31848765D01*
X61555197Y31431756D01*
X61554803Y30980225D01*
X61555000Y30979748D01*
X61555000Y28960626D01*
X61550222Y28957433D01*
X61192330Y28421810D01*
X61066655Y27790000D01*
X61192330Y27158190D01*
X61419499Y26818208D01*
X61282559Y26730090D01*
X61137569Y26517890D01*
X61086560Y26266000D01*
X61086560Y24234000D01*
X61127786Y24014904D01*
X60897808Y23785327D01*
X60755162Y23441799D01*
X60754838Y23069833D01*
X47883989Y23069833D01*
X47924838Y23168207D01*
X47925162Y23540173D01*
X47783117Y23883949D01*
X47690674Y23976553D01*
X47690674Y27067592D01*
X47747866Y27124684D01*
X47890512Y27468212D01*
X47890836Y27840178D01*
X47748791Y28183954D01*
X47486001Y28447203D01*
X47142473Y28589849D01*
X46770507Y28590173D01*
X46426731Y28448128D01*
X46163482Y28185338D01*
X46020836Y27841810D01*
X46020512Y27469844D01*
X43624999Y27469844D01*
X43624999Y28255001D01*
X43569050Y28536273D01*
X43502232Y28636273D01*
X43425085Y28751733D01*
X43425162Y28840167D01*
X43283117Y29183943D01*
X43020327Y29447192D01*
X42676799Y29589838D01*
X42304833Y29590162D01*
X41961057Y29448117D01*
X41697808Y29185327D01*
X41555162Y28841799D01*
X41554838Y28469833D01*
X41587834Y28389976D01*
X41285256Y28390240D01*
X40941480Y28248195D01*
X40678231Y27985405D01*
X40670889Y27967724D01*
X40376799Y28089842D01*
X40004833Y28090166D01*
X39810313Y28009792D01*
X39739560Y28080669D01*
X39396032Y28223315D01*
X39024066Y28223639D01*
X38784005Y28124448D01*
X38596294Y28202393D01*
X38224328Y28202717D01*
X37880552Y28060672D01*
X37617303Y27797882D01*
X37474657Y27454354D01*
X37474585Y27372092D01*
X34962319Y24859825D01*
X34802991Y24621374D01*
X34747042Y24340102D01*
X34747042Y21701044D01*
X34689850Y21643952D01*
X34547204Y21300424D01*
X34546880Y20928458D01*
X2360108Y20928458D01*
X2373345Y20995000D01*
X2259271Y21568489D01*
X1934415Y22054670D01*
X1448234Y22379526D01*
X874745Y22493600D01*
X505255Y22493600D01*
X-68234Y22379526D01*
X-554415Y22054670D01*
X-879271Y21568489D01*
X-993345Y20995000D01*
X-3397007Y20995000D01*
X-3516871Y21285093D01*
X-3779661Y21548342D01*
X-4123189Y21690988D01*
X-4205451Y21691060D01*
X-5075000Y22560608D01*
X-5075000Y23367571D01*
X-5017808Y23424663D01*
X-4875162Y23768191D01*
X-4874838Y24140157D01*
X-5016883Y24483933D01*
X-5279673Y24747182D01*
X-5623201Y24889828D01*
X-5995167Y24890152D01*
X-6338943Y24748107D01*
X-6602192Y24485317D01*
X-6744838Y24141789D01*
X-6745162Y23769823D01*
X-6765000Y23769823D01*
X-6765000Y27139646D01*
X-949619Y27139646D01*
X-752987Y26664916D01*
X-319726Y26196932D01*
X259645Y25930373D01*
X513000Y26049193D01*
X513000Y27393000D01*
X-830265Y27393000D01*
X-949619Y27139646D01*
X-6765000Y27139646D01*
X-6765000Y27900354D01*
X-949619Y27900354D01*
X-830265Y27647000D01*
X513000Y27647000D01*
X513000Y28990807D01*
X767000Y28990807D01*
X767000Y27647000D01*
X787000Y27647000D01*
X787000Y27393000D01*
X767000Y27393000D01*
X767000Y26049193D01*
X1020355Y25930373D01*
X1599726Y26196932D01*
X1892621Y26513300D01*
X1992219Y26364241D01*
X2522486Y26009928D01*
X3147978Y25885510D01*
X3212022Y25885510D01*
X3837514Y26009928D01*
X4367781Y26364241D01*
X4450000Y26487290D01*
X4532219Y26364241D01*
X5062486Y26009928D01*
X5687978Y25885510D01*
X5752022Y25885510D01*
X6377514Y26009928D01*
X6697077Y26223453D01*
X6796420Y26069069D01*
X7008620Y25924079D01*
X7260510Y25873070D01*
X9259490Y25873070D01*
X9494807Y25917348D01*
X9710931Y26056420D01*
X9855921Y26268620D01*
X9906930Y26520510D01*
X9906930Y27520000D01*
X14213488Y27520000D01*
X14337906Y26894508D01*
X14692219Y26364241D01*
X15222486Y26009928D01*
X15847978Y25885510D01*
X15912022Y25885510D01*
X16537514Y26009928D01*
X17067781Y26364241D01*
X17150000Y26487290D01*
X17232219Y26364241D01*
X17762486Y26009928D01*
X18387978Y25885510D01*
X18452022Y25885510D01*
X19077514Y26009928D01*
X19607781Y26364241D01*
X19690000Y26487290D01*
X19772219Y26364241D01*
X20302486Y26009928D01*
X20927978Y25885510D01*
X20992022Y25885510D01*
X21617514Y26009928D01*
X21937077Y26223453D01*
X22036420Y26069069D01*
X22248620Y25924079D01*
X22500510Y25873070D01*
X24499490Y25873070D01*
X24734807Y25917348D01*
X24950931Y26056420D01*
X25095921Y26268620D01*
X25146930Y26520510D01*
X25146930Y28519490D01*
X25102652Y28754807D01*
X24963580Y28970931D01*
X24751380Y29115921D01*
X24499490Y29166930D01*
X22976732Y29166930D01*
X22977401Y29167599D01*
X23142148Y29414161D01*
X23200000Y29705000D01*
X23200000Y29892545D01*
X23232192Y29924681D01*
X23374838Y30268209D01*
X23375162Y30640175D01*
X23358707Y30680000D01*
X35287560Y30680000D01*
X35287560Y29330000D01*
X35331838Y29094683D01*
X35470910Y28878559D01*
X35683110Y28733569D01*
X35935000Y28682560D01*
X37285000Y28682560D01*
X37520317Y28726838D01*
X37736441Y28865910D01*
X37881431Y29078110D01*
X37932440Y29330000D01*
X37932440Y30680000D01*
X37888162Y30915317D01*
X37749090Y31131441D01*
X37536890Y31276431D01*
X37285000Y31327440D01*
X35935000Y31327440D01*
X35699683Y31283162D01*
X35483559Y31144090D01*
X35338569Y30931890D01*
X35287560Y30680000D01*
X23358707Y30680000D01*
X23233117Y30983951D01*
X22970327Y31247200D01*
X22626799Y31389846D01*
X22254833Y31390170D01*
X21911057Y31248125D01*
X21647808Y30985335D01*
X21505162Y30641807D01*
X21504838Y30269841D01*
X21629159Y29968961D01*
X20786558Y29126360D01*
X20302486Y29030072D01*
X19772219Y28675759D01*
X19690000Y28552710D01*
X19607781Y28675759D01*
X19077514Y29030072D01*
X18452022Y29154490D01*
X18387978Y29154490D01*
X17947857Y29066945D01*
X17700000Y29314802D01*
X17700000Y29892537D01*
X17732192Y29924673D01*
X17874838Y30268201D01*
X17875162Y30640167D01*
X17733117Y30983943D01*
X17470327Y31247192D01*
X17126799Y31389838D01*
X16754833Y31390162D01*
X16411057Y31248117D01*
X16147808Y30985327D01*
X16005162Y30641799D01*
X16004838Y30269833D01*
X16146883Y29926057D01*
X16180000Y29892882D01*
X16180000Y29101186D01*
X15912022Y29154490D01*
X15847978Y29154490D01*
X15222486Y29030072D01*
X14692219Y28675759D01*
X14337906Y28145492D01*
X14213488Y27520000D01*
X9906930Y27520000D01*
X9906930Y28519490D01*
X9862652Y28754807D01*
X9723580Y28970931D01*
X9511380Y29115921D01*
X9259490Y29166930D01*
X7260510Y29166930D01*
X7025193Y29122652D01*
X6809069Y28983580D01*
X6695610Y28817527D01*
X6377514Y29030072D01*
X5752022Y29154490D01*
X5687978Y29154490D01*
X5062486Y29030072D01*
X4532219Y28675759D01*
X4450000Y28552710D01*
X4367781Y28675759D01*
X3837514Y29030072D01*
X3212022Y29154490D01*
X3147978Y29154490D01*
X2522486Y29030072D01*
X1992219Y28675759D01*
X1892621Y28526700D01*
X1599726Y28843068D01*
X1020355Y29109627D01*
X767000Y28990807D01*
X513000Y28990807D01*
X259645Y29109627D01*
X-319726Y28843068D01*
X-752987Y28375084D01*
X-949619Y27900354D01*
X-6765000Y27900354D01*
X-6765000Y32269833D01*
X38754838Y32269833D01*
X38896883Y31926057D01*
X39159673Y31662808D01*
X39503201Y31520162D01*
X39875167Y31519838D01*
X40218943Y31661883D01*
X40277162Y31720000D01*
X40602581Y31720000D01*
X40659673Y31662808D01*
X41003201Y31520162D01*
X41375167Y31519838D01*
X41718943Y31661883D01*
X41982192Y31924673D01*
X42124838Y32268201D01*
X42125162Y32640167D01*
X41983117Y32983943D01*
X41720327Y33247192D01*
X41376799Y33389838D01*
X41004833Y33390162D01*
X40661057Y33248117D01*
X40602838Y33190000D01*
X40277419Y33190000D01*
X40220327Y33247192D01*
X39876799Y33389838D01*
X39504833Y33390162D01*
X39161057Y33248117D01*
X38897808Y32985327D01*
X38755162Y32641799D01*
X38754838Y32269833D01*
X-6765000Y32269833D01*
X-6765000Y34538777D01*
X8172868Y34538777D01*
X8314913Y34195001D01*
X8577703Y33931752D01*
X8921231Y33789106D01*
X9293197Y33788782D01*
X9459785Y33857615D01*
X9467699Y33849687D01*
X9811227Y33707041D01*
X10183193Y33706717D01*
X10526969Y33848762D01*
X10790218Y34111552D01*
X10889420Y34350456D01*
X11203201Y34220162D01*
X11575167Y34219838D01*
X11696164Y34269833D01*
X21504838Y34269833D01*
X21646883Y33926057D01*
X21909673Y33662808D01*
X22253201Y33520162D01*
X22625167Y33519838D01*
X22968943Y33661883D01*
X23002118Y33695000D01*
X24990000Y33695000D01*
X25280839Y33752852D01*
X25527401Y33917599D01*
X27882790Y36272988D01*
X28218943Y36411883D01*
X28482192Y36674673D01*
X28624838Y37018201D01*
X28625162Y37390167D01*
X28483117Y37733943D01*
X28220327Y37997192D01*
X27876799Y38139838D01*
X27504833Y38140162D01*
X27161057Y37998117D01*
X26897808Y37735327D01*
X26755162Y37391799D01*
X26755078Y37294880D01*
X24675198Y35215000D01*
X23002463Y35215000D01*
X22970327Y35247192D01*
X22626799Y35389838D01*
X22254833Y35390162D01*
X21911057Y35248117D01*
X21647808Y34985327D01*
X21505162Y34641799D01*
X21504838Y34269833D01*
X11696164Y34269833D01*
X11918943Y34361883D01*
X12182192Y34624673D01*
X12324838Y34968201D01*
X12324910Y35050463D01*
X14094374Y36819927D01*
X14175166Y36819857D01*
X14518942Y36961902D01*
X14782191Y37224692D01*
X14924837Y37568220D01*
X14925161Y37940186D01*
X14783116Y38283962D01*
X14520326Y38547211D01*
X14176798Y38689857D01*
X13804832Y38690181D01*
X13461056Y38548136D01*
X13197807Y38285346D01*
X13163859Y38203590D01*
X13120327Y38247198D01*
X12776799Y38389844D01*
X12404833Y38390168D01*
X12061057Y38248123D01*
X11797808Y37985333D01*
X11655162Y37641805D01*
X11655090Y37559543D01*
X10478181Y36382634D01*
X10353688Y36683931D01*
X10090898Y36947180D01*
X9747370Y37089826D01*
X9375404Y37090150D01*
X9031628Y36948105D01*
X8768379Y36685315D01*
X8625733Y36341787D01*
X8625409Y35969821D01*
X8767454Y35626045D01*
X8789471Y35603990D01*
X8579087Y35517061D01*
X8315838Y35254271D01*
X8173192Y34910743D01*
X8172868Y34538777D01*
X-6765000Y34538777D01*
X-6765000Y42379646D01*
X-949619Y42379646D01*
X-752987Y41904916D01*
X-319726Y41436932D01*
X259645Y41170373D01*
X513000Y41289193D01*
X513000Y42633000D01*
X-830265Y42633000D01*
X-949619Y42379646D01*
X-6765000Y42379646D01*
X-6765000Y43140354D01*
X-949619Y43140354D01*
X-830265Y42887000D01*
X513000Y42887000D01*
X513000Y44230807D01*
X767000Y44230807D01*
X767000Y42887000D01*
X787000Y42887000D01*
X787000Y42633000D01*
X767000Y42633000D01*
X767000Y41289193D01*
X1020355Y41170373D01*
X1599726Y41436932D01*
X1892621Y41753300D01*
X1992219Y41604241D01*
X2522486Y41249928D01*
X3147978Y41125510D01*
X3212022Y41125510D01*
X3837514Y41249928D01*
X4367781Y41604241D01*
X4450000Y41727290D01*
X4532219Y41604241D01*
X5062486Y41249928D01*
X5687978Y41125510D01*
X5752022Y41125510D01*
X6377514Y41249928D01*
X6907781Y41604241D01*
X6990000Y41727290D01*
X7072219Y41604241D01*
X7602486Y41249928D01*
X8227978Y41125510D01*
X8292022Y41125510D01*
X8917514Y41249928D01*
X9237077Y41463453D01*
X9336420Y41309069D01*
X9548620Y41164079D01*
X9800510Y41113070D01*
X11799490Y41113070D01*
X12034807Y41157348D01*
X12250931Y41296420D01*
X12395921Y41508620D01*
X12446930Y41760510D01*
X12446930Y42379646D01*
X16830381Y42379646D01*
X17027013Y41904916D01*
X17460274Y41436932D01*
X18039645Y41170373D01*
X18293000Y41289193D01*
X18293000Y42633000D01*
X16949735Y42633000D01*
X16830381Y42379646D01*
X12446930Y42379646D01*
X12446930Y43140354D01*
X16830381Y43140354D01*
X16949735Y42887000D01*
X18293000Y42887000D01*
X18293000Y44230807D01*
X18039645Y44349627D01*
X17460274Y44083068D01*
X17027013Y43615084D01*
X16830381Y43140354D01*
X12446930Y43140354D01*
X12446930Y43759490D01*
X12402652Y43994807D01*
X12265339Y44208198D01*
X12482192Y44424673D01*
X12624838Y44768201D01*
X12625162Y45140167D01*
X12483117Y45483943D01*
X12220327Y45747192D01*
X11876799Y45889838D01*
X11504833Y45890162D01*
X11161057Y45748117D01*
X11102838Y45690000D01*
X9777419Y45690000D01*
X9720327Y45747192D01*
X9376799Y45889838D01*
X9004833Y45890162D01*
X8661057Y45748117D01*
X8397808Y45485327D01*
X8255162Y45141799D01*
X8254838Y44769833D01*
X8396883Y44426057D01*
X8462183Y44360643D01*
X8292022Y44394490D01*
X8227978Y44394490D01*
X7602486Y44270072D01*
X7072219Y43915759D01*
X6990000Y43792710D01*
X6907781Y43915759D01*
X6377514Y44270072D01*
X5752022Y44394490D01*
X5687978Y44394490D01*
X5062486Y44270072D01*
X4532219Y43915759D01*
X4450000Y43792710D01*
X4367781Y43915759D01*
X3837514Y44270072D01*
X3212022Y44394490D01*
X3147978Y44394490D01*
X2522486Y44270072D01*
X1992219Y43915759D01*
X1892621Y43766700D01*
X1599726Y44083068D01*
X1020355Y44349627D01*
X767000Y44230807D01*
X513000Y44230807D01*
X259645Y44349627D01*
X-319726Y44083068D01*
X-752987Y43615084D01*
X-949619Y43140354D01*
X-6765000Y43140354D01*
X-6765000Y47195554D01*
X-4833859Y49126695D01*
X8364674Y49126695D01*
X8651043Y48433628D01*
X9180839Y47902907D01*
X9873405Y47615328D01*
X10623305Y47614674D01*
X11316372Y47901043D01*
X11847093Y48430839D01*
X12134672Y49123405D01*
X12135326Y49873305D01*
X11848957Y50566372D01*
X11319161Y51097093D01*
X10626595Y51384672D01*
X9876695Y51385326D01*
X9183628Y51098957D01*
X8652907Y50569161D01*
X8365328Y49876595D01*
X8364674Y49126695D01*
X-4833859Y49126695D01*
X-4480276Y49480277D01*
X-4320949Y49718728D01*
X-4265001Y50000000D01*
X-4290000Y50125680D01*
X-4290000Y54830350D01*
X-4279123Y54856609D01*
X-4117344Y55669926D01*
X-3737861Y56237862D01*
X-3169926Y56617344D01*
X-2356609Y56779123D01*
X-2330350Y56790000D01*
X482858Y56790000D01*
X99946Y56534147D01*
M02*
