M48
;DRILL file {KiCad 4.0.7} date 2018 June 13, Wednesday 14:09:18
;FORMAT={-:-/ absolute / metric / decimal}
FMAT,2
METRIC,TZ
T1C0.300
T2C0.600
T3C1.000
T4C1.016
T5C1.097
T6C1.200
T7C2.500
%
G90
G05
M71
T1
X-5.81Y23.955
X-4.31Y15.955
X-4.31Y12.955
X-4.31Y20.756
X-3.81Y21.455
X-3.31Y18.455
X3.19Y9.955
X3.19Y7.955
X4.19Y9.955
X4.19Y7.955
X9.108Y34.724
X9.19Y44.955
X9.561Y36.155
X9.69Y11.955
X9.69Y10.955
X9.96Y15.955
X9.96Y14.955
X9.998Y34.642
X11.39Y35.155
X11.69Y44.955
X12.59Y37.455
X13.251Y0.404
X13.99Y37.755
X14.49Y0.655
X14.94Y16.705
X15.94Y22.455
X16.94Y30.455
X18.19Y1.455
X18.253Y0.508
X19.44Y16.455
X19.69Y22.955
X19.69Y20.705
X19.69Y11.955
X19.69Y9.455
X20.64Y15.43
X22.19Y33.455
X22.44Y34.455
X22.44Y30.455
X22.69Y38.705
X23.19Y22.455
X23.69Y38.705
X24.19Y14.455
X24.69Y14.955
X24.69Y16.48
X25.19Y15.455
X27.69Y37.205
X28.79Y53.555
X33.69Y1.955
X34.21Y0.005
X34.21Y-0.995
X34.39Y4.955
X35.482Y21.114
X35.69Y4.955
X36.338Y20.006
X36.59Y17.555
X36.79Y21.288
X37.59Y20.355
X37.64Y19.554
X38.09Y1.805
X38.09Y21.541
X38.409Y27.268
X38.69Y4.555
X38.964Y9.93
X39.209Y27.288
X39.49Y22.255
X39.666Y20.731
X39.69Y32.455
X39.79Y10.555
X40.19Y27.155
X40.19Y1.855
X40.49Y11.055
X41.113Y26.329
X41.19Y32.455
X41.29Y1.855
X41.47Y27.455
X42.038Y9.449
X42.19Y26.255
X42.29Y1.855
X42.49Y28.655
X42.69Y15.205
X42.867Y9.638
X42.89Y0.455
X43.19Y14.455
X43.216Y15.895
X43.44Y16.705
X43.466Y10.241
X44.19Y42.955
X44.19Y-0.345
X45.19Y-0.345
X45.94Y43.005
X46.29Y-0.345
X46.956Y27.655
X46.99Y23.355
X47.19Y-1.745
X48.5Y17.5
X48.5Y17.5
X51.69Y12.455
X52.115Y13.706
X52.915Y13.68
X53.69Y19.955
X53.69Y17.955
X53.69Y16.955
X54.111Y15.305
X54.39Y41.655
X54.69Y27.955
X54.69Y24.955
X54.96Y15.205
X55.118Y42.549
X57.69Y13.455
X57.69Y12.455
X59.19Y11.705
X59.19Y9.205
X60.09Y16.355
X60.09Y15.455
X60.19Y39.155
X60.19Y19.455
X60.19Y18.455
X60.19Y12.455
X60.19Y9.455
X60.69Y44.555
X60.69Y43.455
X60.89Y38.455
X61.19Y51.455
X61.19Y50.455
X61.69Y49.455
X61.69Y23.255
X61.79Y44.555
X61.79Y43.455
X61.79Y39.155
X61.79Y38.255
X62.19Y51.455
X62.19Y50.455
X62.39Y15.455
X62.89Y38.255
X62.89Y16.255
X63.19Y47.955
X63.79Y38.255
X63.99Y23.155
X64.19Y47.955
X65.19Y47.955
X65.19Y17.955
X65.19Y16.955
X65.19Y15.955
X65.21Y29.875
X66.19Y17.955
X66.19Y16.955
X66.19Y15.955
X66.21Y22.505
X67.19Y51.155
X67.19Y17.955
X67.19Y16.955
X67.19Y15.955
X67.69Y42.955
X68.19Y43.955
X68.19Y19.955
X68.19Y18.955
X68.19Y17.955
X68.19Y16.955
X68.19Y15.955
X68.49Y49.655
X68.49Y48.755
X68.49Y48.055
X68.69Y42.955
X68.69Y41.955
X69.19Y16.955
X69.19Y15.955
X69.19Y14.955
X69.19Y13.955
X69.19Y12.955
X69.49Y48.755
X69.49Y48.055
X69.69Y42.955
X69.69Y41.955
X69.69Y25.955
X69.69Y24.955
X69.69Y23.955
X69.69Y22.955
X69.75Y20.
X70.09Y22.055
X70.19Y16.955
X70.19Y15.955
X70.19Y14.955
X70.19Y13.955
X70.19Y12.955
X70.39Y48.055
X70.69Y25.955
X70.69Y24.955
X70.69Y23.955
X70.69Y22.955
X70.99Y45.855
X71.25Y20.
X72.69Y20.755
X72.69Y19.955
X72.69Y18.955
X72.89Y45.955
X72.99Y30.755
X74.19Y43.455
X74.59Y42.655
X74.69Y19.955
X74.71Y30.005
X75.39Y46.055
X75.39Y39.055
X75.59Y9.555
T2
X3.71Y49.505
X5.19Y33.955
X6.71Y14.005
X7.19Y33.955
X8.19Y53.455
X12.29Y17.58
X27.29Y16.555
X27.71Y13.005
X28.528Y45.915
X29.412Y45.031
X55.19Y34.455
X55.19Y32.455
X56.64Y47.305
X56.745Y46.059
X56.79Y43.555
X62.69Y31.205
T3
X1.15Y55.455
X3.69Y55.455
X6.23Y55.455
X17.61Y55.5
X20.15Y55.5
X22.69Y55.5
X25.23Y55.5
X27.77Y55.5
X30.31Y55.5
X48.9Y0.33
X51.44Y0.33
X53.98Y0.33
X56.52Y0.33
X59.06Y0.33
X61.6Y0.33
X64.14Y0.33
T4
X0.69Y20.995
X0.69Y18.455
X0.69Y15.915
X62.75Y27.79
X62.75Y25.25
T5
X0.64Y42.76
X0.64Y27.52
X3.18Y42.76
X3.18Y27.52
X5.72Y42.76
X5.72Y27.52
X8.26Y42.76
X8.26Y27.52
X10.8Y42.76
X15.88Y27.52
X18.42Y42.76
X18.42Y27.52
X20.96Y42.76
X20.96Y27.52
X23.5Y42.76
X23.5Y27.52
X26.04Y42.76
X28.58Y42.76
T6
X66.69Y13.855
X66.69Y10.355
T7
X10.19Y5.
X10.25Y49.5
X53.75Y5.
T0
M30
