G04 #@! TF.FileFunction,Copper,L1,Top,Signal*
%FSLAX46Y46*%
G04 Gerber Fmt 4.6, Leading zero omitted, Abs format (unit mm)*
G04 Created by KiCad (PCBNEW 4.0.7) date 2018 June 13, Wednesday 14:09:15*
%MOMM*%
%LPD*%
G01*
G04 APERTURE LIST*
%ADD10C,0.050000*%
%ADD11C,1.000000*%
%ADD12R,0.900000X0.500000*%
%ADD13R,0.750000X0.800000*%
%ADD14R,0.800000X0.750000*%
%ADD15C,2.400000*%
%ADD16R,2.400000X2.400000*%
%ADD17R,2.032000X2.032000*%
%ADD18O,2.032000X2.032000*%
%ADD19R,1.700000X1.700000*%
%ADD20O,1.700000X1.700000*%
%ADD21R,0.889000X0.889000*%
%ADD22R,0.500000X0.900000*%
%ADD23R,0.550000X1.000000*%
%ADD24O,0.280000X0.850000*%
%ADD25O,0.850000X0.280000*%
%ADD26R,5.100000X5.100000*%
%ADD27R,1.500000X0.450000*%
%ADD28R,1.249680X0.998220*%
%ADD29R,2.032000X1.727200*%
%ADD30O,2.032000X1.727200*%
%ADD31R,2.450000X5.900000*%
%ADD32R,0.800000X2.900000*%
%ADD33R,0.381000X1.397000*%
%ADD34O,1.998980X1.998980*%
%ADD35R,1.998980X1.998980*%
%ADD36R,0.650000X1.220000*%
%ADD37R,2.500000X1.100000*%
%ADD38R,1.270000X0.965200*%
%ADD39R,0.500000X0.750000*%
%ADD40R,0.800000X1.000000*%
%ADD41R,0.700000X1.200000*%
%ADD42R,4.500000X4.290000*%
%ADD43R,1.550000X1.600000*%
%ADD44R,1.550000X1.200000*%
%ADD45R,2.000000X0.900000*%
%ADD46R,0.250000X0.600000*%
%ADD47C,0.604800*%
%ADD48C,0.609600*%
%ADD49R,1.220000X0.650000*%
%ADD50C,0.600000*%
%ADD51C,0.400000*%
%ADD52C,0.200000*%
%ADD53C,0.800000*%
%ADD54C,0.300000*%
%ADD55C,1.000000*%
%ADD56C,0.250000*%
%ADD57C,1.500000*%
%ADD58C,0.600000*%
%ADD59C,0.280000*%
%ADD60C,0.350000*%
%ADD61C,0.500000*%
%ADD62C,2.000000*%
%ADD63C,0.254000*%
G04 APERTURE END LIST*
D10*
D11*
X66210000Y5005000D03*
X-1290000Y50005000D03*
D12*
X39690000Y2705000D03*
X39690000Y4205000D03*
D13*
X73690000Y21205000D03*
X73690000Y19705000D03*
D14*
X-2560000Y22455000D03*
X-4060000Y22455000D03*
D13*
X63500000Y41205000D03*
X63500000Y39705000D03*
D14*
X-2560000Y14455000D03*
X-4060000Y14455000D03*
D13*
X66690000Y21205000D03*
X66690000Y19705000D03*
X59500000Y41750000D03*
X59500000Y40250000D03*
X61500000Y41750000D03*
X61500000Y40250000D03*
X55000000Y22250000D03*
X55000000Y23750000D03*
D14*
X57500000Y20000000D03*
X59000000Y20000000D03*
X57500000Y18000000D03*
X59000000Y18000000D03*
X56250000Y11955000D03*
X54750000Y11955000D03*
X56250000Y13705000D03*
X54750000Y13705000D03*
D13*
X41690000Y705000D03*
X41690000Y-795000D03*
X39690000Y705000D03*
X39690000Y-795000D03*
D14*
X71500000Y31750000D03*
X73000000Y31750000D03*
X20440000Y30060000D03*
X18940000Y30060000D03*
D13*
X23500000Y25095000D03*
X23500000Y23595000D03*
X15880000Y25095000D03*
X15880000Y23595000D03*
D14*
X18940000Y19900000D03*
X20440000Y19900000D03*
X18940000Y8455000D03*
X20440000Y8455000D03*
X12440000Y10455000D03*
X10940000Y10455000D03*
X10940000Y12455000D03*
X12440000Y12455000D03*
X10940000Y14455000D03*
X12440000Y14455000D03*
X10940000Y16455000D03*
X12440000Y16455000D03*
D15*
X66690000Y10355000D03*
D16*
X66690000Y13855000D03*
D17*
X62750000Y25250000D03*
D18*
X62750000Y27790000D03*
D19*
X6230000Y55455000D03*
D20*
X3690000Y55455000D03*
X1150000Y55455000D03*
D21*
X57500000Y22000000D03*
X59024000Y22000000D03*
D19*
X61600000Y330000D03*
D20*
X59060000Y330000D03*
D19*
X48900000Y330000D03*
D20*
X51440000Y330000D03*
D12*
X63890000Y16305000D03*
X63890000Y17805000D03*
X63890000Y13205000D03*
X63890000Y14705000D03*
X73000000Y38750000D03*
X73000000Y37250000D03*
X71000000Y41750000D03*
X71000000Y40250000D03*
X71000000Y37250000D03*
X71000000Y38750000D03*
X48690000Y2705000D03*
X48690000Y4205000D03*
X41690000Y2705000D03*
X41690000Y4205000D03*
X37690000Y2705000D03*
X37690000Y4205000D03*
X75490000Y43405000D03*
X75490000Y44905000D03*
X75490000Y41705000D03*
X75490000Y40205000D03*
D22*
X65000000Y31750000D03*
X66500000Y31750000D03*
X68250000Y31750000D03*
X69750000Y31750000D03*
X31940000Y47455000D03*
X33440000Y47455000D03*
D12*
X62210000Y5255000D03*
X62210000Y3755000D03*
X28580000Y25095000D03*
X28580000Y23595000D03*
X10800000Y25095000D03*
X10800000Y23595000D03*
X18420000Y23595000D03*
X18420000Y25095000D03*
X20960000Y23595000D03*
X20960000Y25095000D03*
X26040000Y23595000D03*
X26040000Y25095000D03*
X13340000Y23595000D03*
X13340000Y25095000D03*
X13340000Y19785000D03*
X13340000Y21285000D03*
X26040000Y19785000D03*
X26040000Y21285000D03*
D22*
X7190000Y12455000D03*
X8690000Y12455000D03*
D12*
X24690000Y4705000D03*
X24690000Y6205000D03*
X16690000Y4705000D03*
X16690000Y6205000D03*
X14408571Y4705000D03*
X14408571Y6205000D03*
X500000Y45750000D03*
X500000Y47250000D03*
X8000000Y38750000D03*
X8000000Y40250000D03*
X5500000Y40250000D03*
X5500000Y38750000D03*
X8000000Y35250000D03*
X8000000Y36750000D03*
X5500000Y36750000D03*
X5500000Y35250000D03*
D23*
X-2360000Y19755000D03*
X-3310000Y19755000D03*
X-4260000Y19755000D03*
X-4260000Y17155000D03*
X-2360000Y17155000D03*
D24*
X51250000Y20975000D03*
X50750000Y20975000D03*
X50250000Y20975000D03*
X49750000Y20975000D03*
X49250000Y20975000D03*
X48750000Y20975000D03*
X48250000Y20975000D03*
X47750000Y20975000D03*
X47250000Y20975000D03*
X46750000Y20975000D03*
X46250000Y20975000D03*
X45750000Y20975000D03*
D25*
X45025000Y20250000D03*
X45025000Y19750000D03*
X45025000Y19250000D03*
X45025000Y18750000D03*
X45025000Y18250000D03*
X45025000Y17750000D03*
X45025000Y17250000D03*
X45025000Y16750000D03*
X45025000Y16250000D03*
X45025000Y15750000D03*
X45025000Y15250000D03*
X45025000Y14750000D03*
D24*
X45750000Y14025000D03*
X46250000Y14025000D03*
X46750000Y14025000D03*
X47250000Y14025000D03*
X47750000Y14025000D03*
X48250000Y14025000D03*
X48750000Y14025000D03*
X49250000Y14025000D03*
X49750000Y14025000D03*
X50250000Y14025000D03*
X50750000Y14025000D03*
X51250000Y14025000D03*
D25*
X51975000Y14750000D03*
X51975000Y15250000D03*
X51975000Y15750000D03*
X51975000Y16250000D03*
X51975000Y16750000D03*
X51975000Y17250000D03*
X51975000Y17750000D03*
X51975000Y18250000D03*
X51975000Y18750000D03*
X51975000Y19250000D03*
X51975000Y19750000D03*
X51975000Y20250000D03*
D26*
X48500000Y17500000D03*
D27*
X22640000Y13180000D03*
X22640000Y13830000D03*
X22640000Y14480000D03*
X22640000Y15130000D03*
X22640000Y15780000D03*
X22640000Y16430000D03*
X22640000Y17080000D03*
X22640000Y17730000D03*
X16740000Y17730000D03*
X16740000Y17080000D03*
X16740000Y16430000D03*
X16740000Y15780000D03*
X16740000Y15130000D03*
X16740000Y14480000D03*
X16740000Y13830000D03*
X16740000Y13180000D03*
D28*
X55000000Y19749300D03*
X55000000Y18250700D03*
D29*
X690000Y15915000D03*
D30*
X690000Y18455000D03*
X690000Y20995000D03*
D19*
X53980000Y330000D03*
D20*
X56520000Y330000D03*
D13*
X67000000Y37250000D03*
X67000000Y38750000D03*
D14*
X68750000Y41000000D03*
X67250000Y41000000D03*
D13*
X73000000Y40250000D03*
X73000000Y41750000D03*
D31*
X73065000Y26455000D03*
X67515000Y26455000D03*
D32*
X65600000Y53750000D03*
X63400000Y53750000D03*
D12*
X69000000Y37250000D03*
X69000000Y38750000D03*
D33*
X67222500Y49667000D03*
X66587500Y49667000D03*
X65952500Y49667000D03*
X65317500Y49667000D03*
X64682500Y49667000D03*
X64047500Y49667000D03*
X63412500Y49667000D03*
X62777500Y49667000D03*
X62777500Y44333000D03*
X63412500Y44333000D03*
X64047500Y44333000D03*
X64682500Y44333000D03*
X65317500Y44333000D03*
X65952500Y44333000D03*
X66587500Y44333000D03*
X67222500Y44333000D03*
D19*
X64140000Y330000D03*
D12*
X16000000Y33350000D03*
X16000000Y31850000D03*
X18500000Y33350000D03*
X18500000Y31850000D03*
X21000000Y33350000D03*
X21000000Y31850000D03*
X23500000Y33350000D03*
X23500000Y31850000D03*
D34*
X640000Y27520000D03*
D35*
X8260000Y27520000D03*
D34*
X5720000Y27520000D03*
X3180000Y27520000D03*
X20960000Y42760000D03*
D35*
X28580000Y42760000D03*
D34*
X26040000Y42760000D03*
X23500000Y42760000D03*
X18420000Y42760000D03*
X15880000Y27520000D03*
D35*
X23500000Y27520000D03*
D34*
X20960000Y27520000D03*
X18420000Y27520000D03*
X3180000Y42760000D03*
D35*
X10800000Y42760000D03*
D34*
X8260000Y42760000D03*
X5720000Y42760000D03*
X640000Y42760000D03*
D19*
X17610000Y55500000D03*
D20*
X20150000Y55500000D03*
X22690000Y55500000D03*
X25230000Y55500000D03*
X27770000Y55500000D03*
X30310000Y55500000D03*
D22*
X31940000Y43455000D03*
X33440000Y43455000D03*
D12*
X53090000Y28405000D03*
X53090000Y29905000D03*
X48990000Y28395000D03*
X48990000Y29895000D03*
X51085000Y28395000D03*
X51085000Y29895000D03*
D36*
X30340000Y16615000D03*
X28440000Y16615000D03*
X29390000Y13995000D03*
X6040000Y20495000D03*
X7940000Y20495000D03*
X6990000Y23115000D03*
D37*
X36990000Y47455000D03*
X36990000Y43455000D03*
X36990000Y33455000D03*
X52390000Y33455000D03*
X52390000Y35455000D03*
X52390000Y37455000D03*
X52390000Y39455000D03*
X52390000Y45455000D03*
X52390000Y47455000D03*
D36*
X30340000Y11535000D03*
X28440000Y11535000D03*
X29390000Y8915000D03*
X6040000Y15415000D03*
X7940000Y15415000D03*
X6990000Y18035000D03*
D38*
X40940000Y28935000D03*
X40940000Y30205000D03*
D39*
X18740000Y21805000D03*
X20640000Y21805000D03*
D40*
X19690000Y21805000D03*
D39*
X18740000Y10455000D03*
X20640000Y10455000D03*
D40*
X19690000Y10455000D03*
D41*
X71780000Y11155000D03*
X73050000Y11155000D03*
X74330000Y11155000D03*
X75600000Y11155000D03*
X75600000Y16955000D03*
X74330000Y16955000D03*
X73050000Y16955000D03*
X71780000Y16955000D03*
D42*
X73690000Y14555000D03*
D43*
X72600000Y15305000D03*
X74780000Y15305000D03*
D44*
X72600000Y13305000D03*
X74780000Y13305000D03*
D45*
X70500000Y20000000D03*
D46*
X70750000Y21000000D03*
D47*
X71250000Y20000000D03*
D48*
X69750000Y20000000D03*
D46*
X71750000Y21000000D03*
X71250000Y21000000D03*
X70250000Y21000000D03*
X69750000Y21000000D03*
X69250000Y21000000D03*
X69250000Y19000000D03*
X69750000Y19000000D03*
X70250000Y19000000D03*
X70750000Y19000000D03*
X71250000Y19000000D03*
X71750000Y19000000D03*
D11*
X-1290000Y5000D03*
D49*
X35710000Y905000D03*
X35710000Y-995000D03*
X38330000Y-45000D03*
D36*
X58160000Y31315000D03*
X56260000Y31315000D03*
X57210000Y28695000D03*
X4660000Y48315000D03*
X2760000Y48315000D03*
X3710000Y45695000D03*
D11*
X6710000Y14005000D03*
X3710000Y49505000D03*
X27710000Y13005000D03*
D50*
X9960010Y14955000D03*
X9960010Y15955000D03*
D11*
X7190000Y33955000D03*
X5190000Y33955000D03*
D50*
X63190000Y47955000D03*
X68690000Y41955000D03*
X69690000Y41955000D03*
X69690000Y42955000D03*
X68190000Y43955000D03*
X68690000Y42955000D03*
X67690000Y42955000D03*
X62190000Y50455000D03*
X61690000Y49455000D03*
X62190000Y51455000D03*
X61190000Y50455000D03*
X61190000Y51455000D03*
X65190000Y47955000D03*
X64190000Y47955000D03*
X70190000Y12955000D03*
X69190000Y12955000D03*
X69190000Y13955000D03*
X70190000Y13955000D03*
X70190000Y14955000D03*
X69190000Y14955000D03*
X65190000Y15955000D03*
X66190000Y15955000D03*
X67190000Y15955000D03*
X68190000Y15955000D03*
X69190000Y15955000D03*
X70190000Y15955000D03*
X70190000Y16955000D03*
X69190000Y16955000D03*
X68190000Y16955000D03*
X67190000Y16955000D03*
X66190000Y16955000D03*
X65190000Y16955000D03*
X65190000Y17955000D03*
X66190000Y17955000D03*
X67190000Y17955000D03*
X68190000Y17955000D03*
X68190000Y18955000D03*
X68190000Y19955000D03*
X48500000Y17500000D03*
X53690000Y16955000D03*
X53690000Y17955000D03*
X53690000Y19955000D03*
X48500000Y17500000D03*
X51690000Y12455000D03*
X57690000Y12455000D03*
X57690000Y13455000D03*
X60190000Y18455000D03*
X60190000Y19455000D03*
X54690000Y24955000D03*
X54690000Y27955000D03*
D11*
X55190000Y32455000D03*
X55190000Y34455000D03*
D50*
X22190000Y33455000D03*
X19690000Y22955000D03*
X19690000Y9455000D03*
X19690000Y11955000D03*
X25190000Y15455000D03*
X24190000Y14455000D03*
X24690000Y14955000D03*
X-3310000Y18455000D03*
X-3810000Y21455000D03*
X-4310000Y15955000D03*
X-4310000Y12955000D03*
X9690000Y11955000D03*
X9690000Y10955000D03*
X42890000Y455000D03*
X69690000Y22955000D03*
X70690000Y25955000D03*
X69690000Y25955000D03*
X69690000Y24955000D03*
X70690000Y24955000D03*
X70690000Y23955000D03*
X69690000Y23955000D03*
X72690000Y20755000D03*
X74690000Y19955000D03*
X72690000Y18955000D03*
X72690000Y19955000D03*
X61790000Y39155000D03*
X63790000Y38255000D03*
X62890000Y38255000D03*
X61790000Y38255000D03*
X60890000Y38455000D03*
X60190000Y39155000D03*
X60690000Y43455000D03*
X60690000Y44555000D03*
X61790000Y44555000D03*
X61790000Y43455000D03*
X70390000Y48055000D03*
X69490000Y48755000D03*
X69490000Y48055000D03*
X68490000Y48055000D03*
X68490000Y48755000D03*
X68490000Y49655000D03*
X67190000Y51155000D03*
X75390000Y46055000D03*
X75390000Y39055000D03*
X75590000Y9555000D03*
X72990000Y30755000D03*
X23190000Y22455000D03*
X15940000Y22455000D03*
X19690000Y20705000D03*
X70690000Y22955000D03*
D11*
X56790000Y43555000D03*
X62690000Y31205000D03*
X27290000Y16555000D03*
X12290000Y17580002D03*
D50*
X41290000Y1855000D03*
X24690022Y16480010D03*
X19440000Y16455000D03*
X20640000Y15430002D03*
X14940000Y16705000D03*
X42290000Y1855000D03*
X40190000Y1855000D03*
X38090000Y1805002D03*
X72890000Y45955000D03*
X40190000Y27155004D03*
X36789990Y21288198D03*
X74190000Y43455000D03*
X70990000Y45855000D03*
X41470423Y27455078D03*
X37590000Y20355000D03*
X74590000Y42655000D03*
D11*
X56744760Y46059362D03*
X29411930Y45030974D03*
X8190000Y53455000D03*
D50*
X13989999Y37755019D03*
X11390000Y35155000D03*
X9998026Y34641879D03*
X12590000Y37455006D03*
X22440000Y34455000D03*
X27690000Y37205000D03*
D11*
X56640032Y47304979D03*
X28528038Y45914866D03*
D50*
X52115078Y13705814D03*
X43190000Y14455000D03*
X52914662Y13679662D03*
X42690000Y15205000D03*
X9190000Y44955000D03*
X11690000Y44955000D03*
X60090000Y16355000D03*
X62890000Y16255000D03*
X65210000Y29875000D03*
X74710000Y30005042D03*
X42190000Y26255000D03*
X37640000Y19553544D03*
X47190000Y-1745000D03*
X46290000Y-345000D03*
X35690000Y4955000D03*
X38690000Y4555000D03*
X66210000Y22505000D03*
X60090000Y15455000D03*
X61690000Y23255000D03*
X63990000Y23155002D03*
X62390012Y15455000D03*
X70090000Y22055000D03*
X42490000Y28655000D03*
X39490000Y22255000D03*
X-4309988Y20756150D03*
X-5810000Y23954990D03*
X9560571Y36154988D03*
X9108030Y34723944D03*
X38964215Y9929990D03*
X42038193Y9449111D03*
X46990000Y23355006D03*
X46955674Y27655011D03*
X38090010Y21541216D03*
X41112665Y26329121D03*
X39209233Y27288477D03*
X36338439Y20005863D03*
X38409495Y27267555D03*
X35482042Y21113625D03*
X60190000Y12455000D03*
X60190000Y9455000D03*
X43215888Y15895132D03*
X54960484Y15204979D03*
X43440000Y16705000D03*
X54111236Y15304977D03*
X59190000Y9205000D03*
X59190000Y11705000D03*
X16940000Y30455000D03*
X22440000Y30455008D03*
X23690000Y38705000D03*
X22690000Y38705000D03*
X28790000Y53555000D03*
X54390000Y41654992D03*
X44190000Y42955000D03*
X55117602Y42548893D03*
X45940000Y43005010D03*
X43466116Y10240625D03*
X40489998Y11055002D03*
X39790000Y10555000D03*
X42867041Y9637609D03*
X34210000Y5000D03*
X18190000Y1455000D03*
X44190000Y-345000D03*
X13250782Y404252D03*
X3190000Y7955000D03*
X3190000Y9955000D03*
X18252868Y508234D03*
X34210000Y-995000D03*
X14490000Y654998D03*
X4190000Y7955000D03*
X4190000Y9955000D03*
X45190000Y-345000D03*
X41190000Y32455000D03*
X39690000Y32455000D03*
X34389996Y4955000D03*
X33690000Y1954994D03*
X36589998Y17555000D03*
X39665728Y20730728D03*
D51*
X7940000Y15415000D02*
X7940000Y15235000D01*
X7940000Y15235000D02*
X6710000Y14005000D01*
X2760000Y48315000D02*
X2760000Y48555000D01*
X2760000Y48555000D02*
X3710000Y49505000D01*
X28440000Y11535000D02*
X28440000Y12275000D01*
X28440000Y12275000D02*
X27710000Y13005000D01*
X9960010Y14634990D02*
X9960010Y14955000D01*
X10940000Y14455000D02*
X10140000Y14455000D01*
X10940000Y16455000D02*
X10140000Y16455000D01*
X9960010Y16275010D02*
X9960010Y15955000D01*
X10140000Y16455000D02*
X9960010Y16275010D01*
X10140000Y14455000D02*
X9960010Y14634990D01*
X71000000Y41750000D02*
X69895000Y41750000D01*
X69895000Y41750000D02*
X69690000Y41955000D01*
X8000000Y35250000D02*
X8000000Y34765000D01*
X8000000Y34765000D02*
X7190000Y33955000D01*
X5500000Y35250000D02*
X5500000Y34265000D01*
X5500000Y34265000D02*
X5190000Y33955000D01*
D52*
X62777500Y48367500D02*
X63190000Y47955000D01*
X68690000Y41955000D02*
X68690000Y42955000D01*
X69690000Y42955000D02*
X69690000Y41955000D01*
X67222500Y44333000D02*
X67812000Y44333000D01*
X67812000Y44333000D02*
X68190000Y43955000D01*
X68690000Y42955000D02*
X68690000Y43455000D01*
X67222500Y44333000D02*
X67222500Y43422500D01*
X67222500Y43422500D02*
X67690000Y42955000D01*
X61690000Y49455000D02*
X61690000Y49955000D01*
X61690000Y49955000D02*
X62190000Y50455000D01*
X61190000Y50455000D02*
X62190000Y51455000D01*
X61790000Y51655000D02*
X61390000Y51655000D01*
X61390000Y51655000D02*
X61190000Y51455000D01*
D51*
X62890001Y48254999D02*
X63190000Y47955000D01*
X62777500Y48367500D02*
X62890001Y48254999D01*
X62777500Y49667000D02*
X62777500Y48367500D01*
X63090000Y47955000D02*
X63190000Y47955000D01*
X65490000Y47955000D02*
X65190000Y47955000D01*
X65190000Y47955000D02*
X64190000Y47955000D01*
D52*
X64090000Y48055000D02*
X64190000Y47955000D01*
D51*
X64190000Y47955000D02*
X63690000Y47955000D01*
D52*
X63390000Y48055000D02*
X64090000Y48055000D01*
X65190000Y18955000D02*
X65190000Y17955000D01*
X65940000Y19705000D02*
X65190000Y18955000D01*
D51*
X66690000Y19705000D02*
X65940000Y19705000D01*
D52*
X69190000Y13955000D02*
X69190000Y12955000D01*
X70190000Y14955000D02*
X70190000Y13955000D01*
X65190000Y15955000D02*
X68190000Y15955000D01*
X68190000Y15955000D02*
X69190000Y14955000D01*
X67190000Y15955000D02*
X66190000Y15955000D01*
X69190000Y15955000D02*
X68190000Y15955000D01*
X69190000Y16955000D02*
X70190000Y16955000D01*
X67190000Y16955000D02*
X68190000Y16955000D01*
X65190000Y16955000D02*
X66190000Y16955000D01*
X66190000Y17955000D02*
X65190000Y17955000D01*
X67190000Y17955000D02*
X66190000Y17955000D01*
X68190000Y18955000D02*
X68190000Y17955000D01*
X68614264Y19955000D02*
X68190000Y19955000D01*
X68690000Y19955000D02*
X68614264Y19955000D01*
X68735000Y20000000D02*
X68690000Y19955000D01*
D51*
X70500000Y20000000D02*
X68735000Y20000000D01*
D52*
X50696011Y19461011D02*
X49190000Y17955000D01*
X48500000Y17500000D02*
X48500000Y16265000D01*
X48196011Y19461011D02*
X46690000Y17955000D01*
X51975000Y16750000D02*
X53485000Y16750000D01*
X53485000Y16750000D02*
X53690000Y16955000D01*
X51975000Y18250000D02*
X53395000Y18250000D01*
X53395000Y18250000D02*
X53690000Y17955000D01*
X51975000Y19750000D02*
X53485000Y19750000D01*
X53485000Y19750000D02*
X53690000Y19955000D01*
X51250000Y12895000D02*
X51690000Y12455000D01*
X51250000Y14025000D02*
X51250000Y12895000D01*
D51*
X56250000Y11955000D02*
X57190000Y11955000D01*
X57190000Y11955000D02*
X57690000Y12455000D01*
X56250000Y13705000D02*
X57440000Y13705000D01*
X57440000Y13705000D02*
X57690000Y13455000D01*
X59000000Y18000000D02*
X59735000Y18000000D01*
X59735000Y18000000D02*
X60190000Y18455000D01*
X59000000Y20000000D02*
X59645000Y20000000D01*
X59645000Y20000000D02*
X60190000Y19455000D01*
X55000000Y23750000D02*
X55000000Y24645000D01*
X55000000Y24645000D02*
X54690000Y24955000D01*
X53090000Y28405000D02*
X54240000Y28405000D01*
X54240000Y28405000D02*
X54690000Y27955000D01*
D53*
X55190000Y32455000D02*
X54190000Y33455000D01*
X51690000Y33455000D02*
X54190000Y33455000D01*
X54190000Y33455000D02*
X55190000Y34455000D01*
D51*
X23500000Y33350000D02*
X22295000Y33350000D01*
X22295000Y33350000D02*
X22190000Y33455000D01*
X19690000Y21805000D02*
X19690000Y22955000D01*
D54*
X19690000Y10455000D02*
X19690000Y9455000D01*
X19690000Y10455000D02*
X19690000Y11955000D01*
X22640000Y15780000D02*
X24865000Y15780000D01*
X24865000Y15780000D02*
X25190000Y15455000D01*
X22640000Y14480000D02*
X24165000Y14480000D01*
X24165000Y14480000D02*
X24190000Y14455000D01*
D51*
X22640000Y15130000D02*
X24515000Y15130000D01*
X24515000Y15130000D02*
X24690000Y14955000D01*
X-3310000Y19755000D02*
X-3310000Y18455000D01*
X-3310000Y20955000D02*
X-3810000Y21455000D01*
X-3310000Y19755000D02*
X-3310000Y20955000D01*
X-4060000Y22455000D02*
X-4060000Y21705000D01*
X-4060000Y21705000D02*
X-3810000Y21455000D01*
X-4310000Y15955000D02*
X-4310000Y14705000D01*
X-4310000Y14705000D02*
X-4060000Y14455000D01*
X-4060000Y14455000D02*
X-4060000Y13205000D01*
X-4060000Y13205000D02*
X-4310000Y12955000D01*
X10940000Y12455000D02*
X10190000Y12455000D01*
X10190000Y12455000D02*
X9690000Y11955000D01*
X10940000Y10455000D02*
X10190000Y10455000D01*
X10190000Y10455000D02*
X9690000Y10955000D01*
X41690000Y-795000D02*
X42140000Y-795000D01*
X42140000Y-795000D02*
X42890000Y-45000D01*
X42890000Y-45000D02*
X42890000Y455000D01*
X39690000Y-795000D02*
X41690000Y-795000D01*
X70690000Y25955000D02*
X70690000Y23955000D01*
X70690000Y23955000D02*
X69690000Y22955000D01*
X69690000Y24955000D02*
X69690000Y25955000D01*
X70690000Y23955000D02*
X70690000Y24955000D01*
X70690000Y22955000D02*
X69690000Y23955000D01*
X72690000Y18955000D02*
X72690000Y20755000D01*
X72690000Y20755000D02*
X72690000Y20955000D01*
X72690000Y19955000D02*
X72690000Y20755000D01*
X73690000Y19705000D02*
X74440000Y19705000D01*
X74440000Y19705000D02*
X74690000Y19955000D01*
X71250000Y20000000D02*
X72645000Y20000000D01*
X72645000Y20000000D02*
X72690000Y19955000D01*
X73690000Y19705000D02*
X72940000Y19705000D01*
X72940000Y19705000D02*
X72690000Y19955000D01*
X63890000Y13205000D02*
X66040000Y13205000D01*
X66040000Y13205000D02*
X66690000Y13855000D01*
D54*
X60490000Y39915000D02*
X60489999Y39454999D01*
X60489999Y39454999D02*
X60190000Y39155000D01*
X61500000Y40250000D02*
X60825000Y40250000D01*
X60825000Y40250000D02*
X60490000Y39915000D01*
X62890000Y38255000D02*
X63790000Y38255000D01*
X60890000Y38455000D02*
X61590000Y38455000D01*
X61590000Y38455000D02*
X61790000Y38255000D01*
X59500000Y40250000D02*
X59500000Y39845000D01*
X59500000Y39845000D02*
X60190000Y39155000D01*
X61790000Y44555000D02*
X60690000Y44555000D01*
X62777500Y44333000D02*
X62668000Y44333000D01*
X62668000Y44333000D02*
X61790000Y43455000D01*
D51*
X69490000Y48055000D02*
X69490000Y48755000D01*
X68490000Y48755000D02*
X68490000Y48055000D01*
X67190000Y51155000D02*
X67190000Y50955000D01*
X67190000Y50955000D02*
X68490000Y49655000D01*
X62777500Y49667000D02*
X62278000Y49667000D01*
X62278000Y49667000D02*
X61690000Y50255000D01*
D54*
X63412500Y49667000D02*
X63412500Y48855000D01*
X63412500Y48855000D02*
X63412500Y48377500D01*
D51*
X63690000Y47955000D02*
X63090000Y47955000D01*
X65861379Y48383629D02*
X65861379Y48326379D01*
X65861379Y48326379D02*
X65490000Y47955000D01*
X63689999Y48055001D02*
X63390000Y48355000D01*
X63690000Y47955000D02*
X63689999Y48055001D01*
X65090000Y48355000D02*
X65790000Y48355000D01*
X65790000Y48355000D02*
X65890000Y48455000D01*
X63390000Y48355000D02*
X65190000Y48355000D01*
X65190000Y48355000D02*
X65290000Y48455000D01*
X61590000Y51255000D02*
X61590000Y50355000D01*
X61590000Y50355000D02*
X61690000Y50255000D01*
X61490000Y50255000D02*
X61490000Y51655000D01*
X62190000Y50955000D02*
X61490000Y50955000D01*
D54*
X63412500Y48377500D02*
X63390000Y48355000D01*
X65317500Y49667000D02*
X65317500Y48482500D01*
X65317500Y48482500D02*
X65290000Y48455000D01*
X65952500Y49667000D02*
X65952500Y48517500D01*
X65952500Y48517500D02*
X65890000Y48455000D01*
X67222500Y49667000D02*
X67222500Y51122500D01*
X67222500Y51122500D02*
X67190000Y51155000D01*
D51*
X62777500Y49667000D02*
X62777500Y50367500D01*
X62777500Y50367500D02*
X62190000Y50955000D01*
X75490000Y44905000D02*
X75490000Y45955000D01*
X75490000Y45955000D02*
X75390000Y46055000D01*
X75490000Y40205000D02*
X75490000Y39155000D01*
X75490000Y39155000D02*
X75390000Y39055000D01*
X75600000Y11155000D02*
X75600000Y9565000D01*
X75600000Y9565000D02*
X75590000Y9555000D01*
X73000000Y31750000D02*
X73000000Y30765000D01*
X73000000Y30765000D02*
X72990000Y30755000D01*
X23500000Y23595000D02*
X23500000Y22765000D01*
X23500000Y22765000D02*
X23190000Y22455000D01*
X15880000Y23595000D02*
X15880000Y22515000D01*
X15880000Y22515000D02*
X15940000Y22455000D01*
X19690000Y21805000D02*
X19690000Y20705000D01*
D52*
X70750000Y22895000D02*
X70690000Y22955000D01*
X70750000Y21000000D02*
X70750000Y22895000D01*
X70750000Y21000000D02*
X70750000Y20750001D01*
X70750000Y20750001D02*
X70690000Y20750001D01*
D51*
X37090000Y-1784169D02*
X37920831Y-1784169D01*
X37920831Y-1784169D02*
X38210000Y-1495000D01*
X38210000Y-1495000D02*
X38210000Y-1235000D01*
X38210000Y-1235000D02*
X38330000Y-1115000D01*
X38330000Y-1115000D02*
X38330000Y-45000D01*
X57590000Y28605000D02*
X57300000Y28605000D01*
X57300000Y28605000D02*
X57210000Y28695000D01*
X62210000Y5255000D02*
X62210000Y10981000D01*
X62210000Y10981000D02*
X61240002Y11950998D01*
D55*
X54750000Y11955000D02*
X54750000Y13705000D01*
X56250000Y10455000D02*
X54875000Y10455000D01*
X54875000Y10455000D02*
X54750000Y10580000D01*
X54750000Y10580000D02*
X54750000Y11955000D01*
D51*
X53980000Y-920000D02*
X53980000Y330000D01*
X46900002Y-845000D02*
X47025003Y-970001D01*
X47025003Y-970001D02*
X53929999Y-970001D01*
X53929999Y-970001D02*
X53980000Y-920000D01*
D55*
X53980000Y330000D02*
X57690000Y4040000D01*
X57690000Y4040000D02*
X57690000Y10455000D01*
X57690000Y10455000D02*
X56250000Y10455000D01*
D51*
X46900002Y-845000D02*
X46690000Y-1055002D01*
X47290000Y-455002D02*
X46900002Y-845000D01*
X46690000Y-1055002D02*
X46865001Y-880001D01*
X46865001Y-880001D02*
X47025001Y-880001D01*
X47025001Y-880001D02*
X47115001Y-970001D01*
X12440000Y7500000D02*
X10985000Y8955000D01*
X10985000Y8955000D02*
X-3310000Y8955000D01*
X-5310000Y22955000D02*
X-4560000Y23705000D01*
X-4560000Y23705000D02*
X-3835000Y23705000D01*
X-3310000Y8955000D02*
X-5310000Y10955000D01*
X-5310000Y10955000D02*
X-5310000Y22955000D01*
X-2585000Y22455000D02*
X-2560000Y22455000D01*
X-3835000Y23705000D02*
X-2585000Y22455000D01*
D55*
X60468500Y22000000D02*
X61240002Y21228498D01*
X61240002Y21228498D02*
X61240002Y11950998D01*
X59024000Y22000000D02*
X60468500Y22000000D01*
X-2560000Y22455000D02*
X-2535000Y22455000D01*
X-2535000Y22455000D02*
X-2310000Y22230000D01*
X-2310000Y22230000D02*
X-2310000Y20880002D01*
X-2310000Y20880002D02*
X-2284999Y20855001D01*
X-2284999Y20855001D02*
X-2284999Y19830001D01*
D51*
X12440000Y7500000D02*
X12440000Y4905000D01*
X12440000Y4905000D02*
X19129169Y-1784169D01*
X19129169Y-1784169D02*
X37090000Y-1784169D01*
X46690000Y-1055002D02*
X46000002Y-1745000D01*
X47290000Y2955000D02*
X47290000Y-455002D01*
X46000002Y-1745000D02*
X37129169Y-1745000D01*
X37129169Y-1745000D02*
X37090000Y-1784169D01*
X65000000Y31750000D02*
X63235000Y31750000D01*
X63235000Y31750000D02*
X62690000Y31205000D01*
X48690000Y4205000D02*
X48490000Y4205000D01*
X48490000Y4205000D02*
X47290000Y3005000D01*
D55*
X56790000Y42847894D02*
X56790000Y43555000D01*
X56790000Y39260002D02*
X56790000Y42847894D01*
X62750000Y33300002D02*
X56790000Y39260002D01*
X62750000Y32055000D02*
X62750000Y33300002D01*
D51*
X8260000Y27520000D02*
X8260000Y28919490D01*
X8260000Y28919490D02*
X12690510Y33350000D01*
X12690510Y33350000D02*
X15150000Y33350000D01*
X15150000Y33350000D02*
X16000000Y33350000D01*
D55*
X62240000Y30755000D02*
X62690000Y31205000D01*
X62750000Y32055000D02*
X62750000Y31265000D01*
D51*
X63055000Y31750000D02*
X62750000Y32055000D01*
X54750000Y13705000D02*
X54440000Y13705000D01*
X54440000Y13705000D02*
X53690000Y14455000D01*
X53690000Y14455000D02*
X52270000Y14455000D01*
X52270000Y14455000D02*
X52065010Y14659990D01*
D55*
X62750000Y31265000D02*
X62690000Y31205000D01*
X59744004Y10455000D02*
X56250000Y10455000D01*
X61240002Y11950998D02*
X59744004Y10455000D01*
X842400Y20995000D02*
X4552400Y24705000D01*
X4552400Y24705000D02*
X7444490Y24705000D01*
D51*
X12440000Y10455000D02*
X12440000Y7500000D01*
D52*
X12440000Y12455000D02*
X12465000Y12455000D01*
X15790000Y15130000D02*
X16740000Y15130000D01*
X12465000Y12455000D02*
X15140000Y15130000D01*
X15140000Y15130000D02*
X15790000Y15130000D01*
X12440000Y10455000D02*
X12440000Y12455000D01*
X-2560000Y22455000D02*
X-2560000Y23030000D01*
X12440000Y9455000D02*
X12440000Y10455000D01*
D55*
X28580000Y43315000D02*
X28580000Y42760000D01*
X7444490Y24705000D02*
X8260000Y25520510D01*
X8260000Y25520510D02*
X8260000Y27520000D01*
X690000Y20995000D02*
X842400Y20995000D01*
X690000Y20995000D02*
X690000Y21705000D01*
X690000Y21705000D02*
X-60000Y22455000D01*
X-60000Y22455000D02*
X-2560000Y22455000D01*
X62750000Y27790000D02*
X61313160Y27790000D01*
X61313160Y27790000D02*
X59024000Y25500840D01*
X59024000Y25500840D02*
X59024000Y22000000D01*
X57590000Y28605000D02*
X58940000Y28605000D01*
X58940000Y28605000D02*
X61090000Y30755000D01*
X61090000Y30755000D02*
X62240000Y30755000D01*
D51*
X29390000Y13995000D02*
X27290000Y16095000D01*
X27290000Y16095000D02*
X27290000Y16555000D01*
X9210000Y16975000D02*
X8740000Y16505000D01*
X8740000Y16505000D02*
X6210000Y16505000D01*
X6210000Y16505000D02*
X5710000Y17005000D01*
X5710000Y17005000D02*
X5710000Y18500002D01*
X5710000Y18500002D02*
X6990000Y19780002D01*
X6990000Y19780002D02*
X6990000Y22105000D01*
X6990000Y22105000D02*
X6990000Y23115000D01*
X9210000Y16975000D02*
X8710000Y16475000D01*
X9815002Y17580002D02*
X9210000Y16975000D01*
X12290000Y17580002D02*
X9815002Y17580002D01*
X6990000Y23115000D02*
X6320000Y23115000D01*
X6320000Y23115000D02*
X1660000Y18455000D01*
X1660000Y18455000D02*
X690000Y18455000D01*
X8710000Y16475000D02*
X8710000Y16390002D01*
X8715001Y16385001D02*
X8715001Y14444999D01*
X8190000Y13655000D02*
X7190000Y12655000D01*
X8710000Y14225000D02*
X8190000Y13705000D01*
X8190000Y13705000D02*
X8190000Y13655000D01*
X8710000Y14439998D02*
X8710000Y14225000D01*
X8710000Y16390002D02*
X8715001Y16385001D01*
X8715001Y14444999D02*
X8710000Y14439998D01*
X7190000Y12655000D02*
X7190000Y12455000D01*
X690000Y18455000D02*
X1690000Y18455000D01*
D55*
X68140012Y21405012D02*
X68140012Y22405012D01*
X68140012Y22405012D02*
X68440000Y22705000D01*
X67515000Y26455000D02*
X67515000Y22030024D01*
X67515000Y22030024D02*
X68140012Y21405012D01*
X68140012Y21405012D02*
X68940000Y22205000D01*
X66740011Y21255011D02*
X66890012Y21405012D01*
X66890012Y21405012D02*
X68140012Y21405012D01*
X64409996Y21255000D02*
X62750000Y22914996D01*
X66640000Y21255000D02*
X64409996Y21255000D01*
X62750000Y23234000D02*
X62750000Y25250000D01*
X62750000Y22914996D02*
X62750000Y23234000D01*
D56*
X69750000Y21479986D02*
X69024986Y22205000D01*
X69024986Y22205000D02*
X68940000Y22205000D01*
X69750000Y21000000D02*
X69750000Y21479986D01*
D55*
X67915000Y26455000D02*
X67915000Y23230000D01*
X67915000Y23230000D02*
X68440000Y22705000D01*
X68440000Y22705000D02*
X68940000Y22205000D01*
D52*
X67795000Y24350000D02*
X67795000Y26335000D01*
X67795000Y26335000D02*
X67915000Y26455000D01*
D51*
X55000000Y22250000D02*
X54225000Y22250000D01*
X54225000Y22250000D02*
X52315010Y20340010D01*
X57500000Y22000000D02*
X55250000Y22000000D01*
X55250000Y22000000D02*
X55000000Y22250000D01*
D52*
X55000000Y19749300D02*
X57249300Y19749300D01*
X57249300Y19749300D02*
X57500000Y20000000D01*
X51975000Y19250000D02*
X54500700Y19250000D01*
X54500700Y19250000D02*
X55000000Y19749300D01*
X55000000Y18250700D02*
X57249300Y18250700D01*
X57249300Y18250700D02*
X57500000Y18000000D01*
X51975000Y18750000D02*
X54500700Y18750000D01*
X54500700Y18750000D02*
X55000000Y18250700D01*
D51*
X35710000Y-995000D02*
X37710000Y1005000D01*
X37710000Y1005000D02*
X39390000Y1005000D01*
X39390000Y1005000D02*
X39690000Y705000D01*
X41690000Y705000D02*
X41690000Y1455000D01*
X41690000Y1455000D02*
X41290000Y1855000D01*
X39690000Y705000D02*
X41690000Y705000D01*
D52*
X69750000Y31750000D02*
X71500000Y31750000D01*
D51*
X23500000Y28145000D02*
X23500000Y27520000D01*
X20440000Y30060000D02*
X21585000Y30060000D01*
X21585000Y30060000D02*
X23500000Y28145000D01*
X23500000Y31850000D02*
X23500000Y27520000D01*
X23500000Y27520000D02*
X23500000Y25095000D01*
X26040000Y25095000D02*
X28580000Y25095000D01*
X26040000Y25095000D02*
X23500000Y25095000D01*
X15880000Y27520000D02*
X15880000Y28145000D01*
X15880000Y28145000D02*
X17795000Y30060000D01*
X17795000Y30060000D02*
X18940000Y30060000D01*
X16000000Y31850000D02*
X16000000Y27640000D01*
X16000000Y27640000D02*
X15880000Y27520000D01*
X15880000Y27520000D02*
X15880000Y25095000D01*
X13340000Y25095000D02*
X10800000Y25095000D01*
X15880000Y25095000D02*
X13340000Y25095000D01*
D56*
X18740000Y21805000D02*
X18740000Y23275000D01*
X18740000Y23275000D02*
X18420000Y23595000D01*
X18940000Y19900000D02*
X18740000Y20100000D01*
X18740000Y20100000D02*
X18740000Y21805000D01*
X18940000Y17705000D02*
X18315000Y17080000D01*
X18315000Y17080000D02*
X16740000Y17080000D01*
X18940000Y19900000D02*
X18940000Y17705000D01*
X20640000Y21805000D02*
X20640000Y23275000D01*
X20640000Y23275000D02*
X20960000Y23595000D01*
X20440000Y19900000D02*
X20640000Y20100000D01*
X20640000Y20100000D02*
X20640000Y21805000D01*
X20440000Y17705000D02*
X21065000Y17080000D01*
X21065000Y17080000D02*
X22640000Y17080000D01*
X20440000Y19900000D02*
X20440000Y17705000D01*
X26040000Y21285000D02*
X26240000Y21285000D01*
X26240000Y21285000D02*
X27090000Y20435000D01*
X27090000Y20435000D02*
X27090000Y19304252D01*
X27090000Y19304252D02*
X24690022Y16904274D01*
X24690022Y16904274D02*
X24690022Y16480010D01*
X19015736Y16455000D02*
X19440000Y16455000D01*
X17525000Y16455000D02*
X19015736Y16455000D01*
X17500000Y16430000D02*
X17525000Y16455000D01*
X17965000Y16430000D02*
X17500000Y16430000D01*
X17500000Y16430000D02*
X16740000Y16430000D01*
X26040000Y21285000D02*
X26040000Y23595000D01*
X18940000Y8455000D02*
X18740000Y8655000D01*
X18740000Y8655000D02*
X18740000Y10455000D01*
X18740000Y15655000D02*
X17965000Y16430000D01*
X18740000Y10455000D02*
X18740000Y15655000D01*
X12514999Y18630001D02*
X14440000Y16705000D01*
X14440000Y16705000D02*
X14940000Y16705000D01*
X13340000Y21285000D02*
X13140000Y21285000D01*
X13140000Y21285000D02*
X12514999Y20659999D01*
X12514999Y20659999D02*
X12514999Y18630001D01*
X13340000Y21285000D02*
X13340000Y23595000D01*
X20440000Y8455000D02*
X20640000Y8655000D01*
X20640000Y8655000D02*
X20640000Y10455000D01*
X20640000Y10455000D02*
X20640000Y15430002D01*
X20640000Y15430002D02*
X21640000Y16430000D01*
X21640000Y16430000D02*
X22640000Y16430000D01*
X16740000Y15780000D02*
X15604998Y15780000D01*
D51*
X13915000Y15780000D02*
X15604998Y15780000D01*
X13240000Y16455000D02*
X13915000Y15780000D01*
X12440000Y16455000D02*
X13240000Y16455000D01*
X12440000Y14455000D02*
X12440000Y16455000D01*
X9490000Y13455000D02*
X11415000Y13455000D01*
X11415000Y13455000D02*
X12415000Y14455000D01*
X12415000Y14455000D02*
X12440000Y14455000D01*
X8690000Y12455000D02*
X8690000Y12655000D01*
X8690000Y12655000D02*
X9490000Y13455000D01*
D52*
X41690000Y2705000D02*
X41890000Y2705000D01*
X41690000Y2555000D02*
X41690000Y2455000D01*
X41690000Y2455000D02*
X41990001Y2154999D01*
X41990001Y2154999D02*
X42290000Y1855000D01*
X39690000Y2705000D02*
X39690000Y2355000D01*
X39690000Y2355000D02*
X40190000Y1855000D01*
X37690000Y2705000D02*
X37690000Y2205002D01*
X37690000Y2205002D02*
X38090000Y1805002D01*
X71940013Y46904987D02*
X72590001Y46254999D01*
X72590001Y46254999D02*
X72890000Y45955000D01*
X54455689Y43954989D02*
X54790011Y44289311D01*
X43490001Y28466999D02*
X43490001Y34486401D01*
X59689989Y48955011D02*
X61740013Y46904987D01*
X54790011Y47889312D02*
X55855711Y48955011D01*
X52958589Y43954989D02*
X54455689Y43954989D01*
X43490001Y34486401D02*
X52958589Y43954989D01*
X55855711Y48955011D02*
X59689989Y48955011D01*
X41758425Y28055080D02*
X41858506Y27954999D01*
X41090076Y28055080D02*
X41758425Y28055080D01*
X40190000Y27155004D02*
X41090076Y28055080D01*
X41858506Y27954999D02*
X42978001Y27954999D01*
X61740013Y46904987D02*
X71940013Y46904987D01*
X42978001Y27954999D02*
X43490001Y28466999D01*
X54790011Y44289311D02*
X54790011Y47889312D01*
X37878003Y20955001D02*
X37123187Y20955001D01*
X37089989Y20988199D02*
X36789990Y21288198D01*
X37123187Y20955001D02*
X37089989Y20988199D01*
X38889988Y19801310D02*
X38889988Y19943016D01*
X45025000Y18750000D02*
X39941298Y18750000D01*
X38889988Y19943016D02*
X37878003Y20955001D01*
X39941298Y18750000D02*
X38889988Y19801310D01*
X74190000Y43455000D02*
X75440000Y43455000D01*
X75440000Y43455000D02*
X75490000Y43405000D01*
X41894687Y27455078D02*
X41470423Y27455078D01*
X43043780Y27455078D02*
X41894687Y27455078D01*
X55190022Y47723623D02*
X55190022Y44123622D01*
X44090012Y34520712D02*
X44090012Y28501310D01*
X53124278Y43554978D02*
X44090012Y34520712D01*
X55190022Y44123622D02*
X54621378Y43554978D01*
X56021400Y48555000D02*
X55190022Y47723623D01*
X70990000Y45855000D02*
X70340024Y46504976D01*
X44090012Y28501310D02*
X43043780Y27455078D01*
X61140024Y46504976D02*
X59090000Y48555000D01*
X54621378Y43554978D02*
X53124278Y43554978D01*
X70340024Y46504976D02*
X61140024Y46504976D01*
X59090000Y48555000D02*
X56021400Y48555000D01*
X39875598Y18250000D02*
X37770598Y20355000D01*
X37770598Y20355000D02*
X37590000Y20355000D01*
X45025000Y18250000D02*
X39875598Y18250000D01*
X74590000Y42655000D02*
X74590000Y42605000D01*
X74590000Y42605000D02*
X75490000Y41705000D01*
X71750000Y21000000D02*
X71750000Y21515000D01*
X71750000Y21515000D02*
X71875001Y21640001D01*
X71750000Y21000000D02*
X71875001Y21000000D01*
X71250000Y17895000D02*
X71690000Y17895000D01*
X71690000Y17895000D02*
X71750000Y17895000D01*
D51*
X71250000Y17955000D02*
X71630000Y17955000D01*
X71630000Y17955000D02*
X71690000Y17895000D01*
D52*
X71250000Y18500000D02*
X71250000Y17955000D01*
X71250000Y17955000D02*
X71250000Y17895000D01*
D51*
X70750000Y17895000D02*
X71190000Y17895000D01*
X71190000Y17895000D02*
X71250000Y17955000D01*
X70250000Y17895000D02*
X70750000Y17895000D01*
X69750000Y17895000D02*
X70250000Y17895000D01*
D52*
X75890000Y19955000D02*
X76190000Y19955000D01*
X75890000Y19055000D02*
X76090000Y19255000D01*
X75890000Y19955000D02*
X75890000Y19055000D01*
D57*
X76190000Y19955000D02*
X76190000Y32455000D01*
D52*
X76090000Y19255000D02*
X76190000Y19355000D01*
D57*
X76190000Y32455000D02*
X73990002Y34654998D01*
X73990002Y34654998D02*
X66490002Y34654998D01*
X66490002Y34654998D02*
X65190000Y35955000D01*
X65190000Y35955000D02*
X65190000Y37000000D01*
D55*
X73690000Y21205000D02*
X75340000Y21205000D01*
X75340000Y21205000D02*
X75890000Y20655000D01*
X75890000Y20655000D02*
X75890000Y19955000D01*
D58*
X73590000Y17815000D02*
X73590000Y18355000D01*
X72730000Y16955000D02*
X73590000Y17815000D01*
X71780000Y16955000D02*
X72730000Y16955000D01*
X72990000Y17755000D02*
X73190000Y17955000D01*
X73190000Y17955000D02*
X73590000Y18355000D01*
X73790000Y18555000D02*
X73190000Y17955000D01*
X75390000Y18555000D02*
X73790000Y18555000D01*
X73590000Y18355000D02*
X74690000Y18355000D01*
X74330000Y18155000D02*
X74530000Y18355000D01*
X74690000Y18355000D02*
X75190000Y18355000D01*
X74330000Y16955000D02*
X74330000Y18155000D01*
X74530000Y18355000D02*
X74690000Y18355000D01*
X74330000Y16955000D02*
X74330000Y15755000D01*
X74330000Y15755000D02*
X74780000Y15305000D01*
D52*
X71750000Y18155000D02*
X71750000Y17895000D01*
X71750000Y18500000D02*
X71750000Y18155000D01*
D58*
X71750000Y18155000D02*
X71750000Y16985000D01*
X71750000Y16985000D02*
X71780000Y16955000D01*
X75600000Y16955000D02*
X75600000Y18345000D01*
X75600000Y18345000D02*
X75390000Y18555000D01*
D57*
X75390000Y18555000D02*
X75890000Y19055000D01*
D58*
X75190000Y18355000D02*
X75390000Y18555000D01*
X72990000Y17265000D02*
X72990000Y17755000D01*
X73050000Y16955000D02*
X73050000Y17205000D01*
X73050000Y17205000D02*
X72990000Y17265000D01*
D52*
X71750000Y17895000D02*
X71790000Y17855000D01*
D58*
X8190000Y53455000D02*
X13490000Y53455000D01*
X28911931Y44530975D02*
X29411930Y45030974D01*
X13490000Y53455000D02*
X22414025Y44530975D01*
X22414025Y44530975D02*
X28911931Y44530975D01*
X57244759Y45559363D02*
X56744760Y46059362D01*
X58190000Y44614122D02*
X57244759Y45559363D01*
X58190000Y39705000D02*
X58190000Y44614122D01*
X60895000Y37000000D02*
X58190000Y39705000D01*
X65190000Y37000000D02*
X60895000Y37000000D01*
D52*
X69750000Y17895000D02*
X70750000Y17895000D01*
X70750000Y17895000D02*
X71250000Y17895000D01*
X70750000Y19000000D02*
X70750000Y18500000D01*
X70750000Y18500000D02*
X70750000Y17895000D01*
X71250000Y19000000D02*
X71250000Y18500000D01*
X71750000Y19000000D02*
X71750000Y18500000D01*
X70250000Y19000000D02*
X70250000Y17895000D01*
X69750000Y19000000D02*
X69750000Y17895000D01*
D51*
X73690000Y21205000D02*
X73690000Y21455000D01*
X73690000Y21455000D02*
X73190000Y21955000D01*
X71875001Y21640001D02*
X71875001Y21000000D01*
X72190000Y21955000D02*
X71875001Y21640001D01*
X73190000Y21955000D02*
X72190000Y21955000D01*
D57*
X65190000Y37000000D02*
X65190000Y41225002D01*
X65190000Y41225002D02*
X64665002Y41750000D01*
D51*
X64682500Y42947500D02*
X64682500Y42447500D01*
X64682500Y42447500D02*
X64665002Y42430002D01*
D59*
X65190000Y41955000D02*
X64395000Y41955000D01*
X64395000Y41955000D02*
X64190000Y41750000D01*
D51*
X64665002Y42930002D02*
X65190000Y42405004D01*
X65190000Y42405004D02*
X65190000Y41955000D01*
X65190000Y41955000D02*
X64690000Y41455000D01*
X64690000Y41455000D02*
X64190000Y41455000D01*
D59*
X65190000Y43455000D02*
X65190000Y41955000D01*
D57*
X63989999Y41155001D02*
X63690000Y41455000D01*
X64715001Y41155001D02*
X63989999Y41155001D01*
X64915002Y40955000D02*
X64715001Y41155001D01*
X65190000Y40955000D02*
X64915002Y40955000D01*
D51*
X65190000Y42955000D02*
X64665002Y42430002D01*
X64665002Y42430002D02*
X64665002Y41750000D01*
X65190000Y42455000D02*
X65190000Y43455000D01*
X65190000Y43455000D02*
X64738001Y43906999D01*
D59*
X64682500Y43354500D02*
X64682500Y42455000D01*
D57*
X64690000Y41955000D02*
X64485000Y41750000D01*
D51*
X64665002Y42930002D02*
X65190000Y43455000D01*
X64682500Y43354500D02*
X64847000Y43354500D01*
X64847000Y43354500D02*
X65190000Y43697500D01*
X64682500Y43354500D02*
X64682500Y42947500D01*
X64682500Y42947500D02*
X64665002Y42930002D01*
D59*
X65190000Y43697500D02*
X65190000Y43455000D01*
X65317500Y44333000D02*
X65317500Y43825000D01*
X65317500Y43825000D02*
X65190000Y43697500D01*
X64682500Y44333000D02*
X64682500Y43354500D01*
D52*
X23121381Y37755019D02*
X14414263Y37755019D01*
X45761429Y23580671D02*
X40975467Y23580671D01*
X40901114Y23655024D02*
X37221376Y23655024D01*
X40975467Y23580671D02*
X40901114Y23655024D01*
X47250000Y20975000D02*
X47250000Y22092100D01*
X47250000Y22092100D02*
X45761429Y23580671D01*
X14414263Y37755019D02*
X13989999Y37755019D01*
X37221376Y23655024D02*
X23121381Y37755019D01*
X11090001Y34855001D02*
X11390000Y35155000D01*
X5720000Y29485000D02*
X11090001Y34855001D01*
X5720000Y27520000D02*
X5720000Y29485000D01*
X40809778Y23180660D02*
X40735425Y23255013D01*
X23055693Y37155007D02*
X12889999Y37155007D01*
X40735425Y23255013D02*
X36955687Y23255013D01*
X45595740Y23180660D02*
X40809778Y23180660D01*
X46750000Y20975000D02*
X46750000Y22026400D01*
X46750000Y22026400D02*
X45595740Y23180660D01*
X12889999Y37155007D02*
X12590000Y37455006D01*
X36955687Y23255013D02*
X23055693Y37155007D01*
X9998026Y34338026D02*
X9998026Y34641879D01*
X3180000Y27520000D02*
X9998026Y34338026D01*
X26040000Y37966996D02*
X26040000Y41346508D01*
X26040000Y41346508D02*
X26040000Y42760000D01*
X41638222Y25180714D02*
X41563868Y25255068D01*
X50750000Y23043940D02*
X48613226Y25180714D01*
X50750000Y20975000D02*
X50750000Y23043940D01*
X48613226Y25180714D02*
X41638222Y25180714D01*
X41563868Y25255068D02*
X38751928Y25255068D01*
X38751928Y25255068D02*
X26040000Y37966996D01*
D56*
X51250000Y20975000D02*
X51250000Y23144996D01*
X27989999Y36905001D02*
X27690000Y37205000D01*
X39071967Y25680079D02*
X27989999Y36762047D01*
X27989999Y36762047D02*
X27989999Y36905001D01*
X51250000Y23144996D02*
X48789272Y25605724D01*
X48789272Y25605724D02*
X41814268Y25605724D01*
X41814268Y25605724D02*
X41739913Y25680079D01*
X41739913Y25680079D02*
X39071967Y25680079D01*
X21000000Y33350000D02*
X20300000Y33350000D01*
X20300000Y33350000D02*
X18500000Y33350000D01*
X22440000Y34455000D02*
X22105000Y34455000D01*
X22105000Y34455000D02*
X21000000Y33350000D01*
D58*
X10800000Y44359490D02*
X10800000Y42760000D01*
X3690000Y51713002D02*
X10800000Y44603002D01*
X3690000Y55455000D02*
X3690000Y51713002D01*
X10800000Y44603002D02*
X10800000Y44359490D01*
X3690000Y55455000D02*
X3690000Y51455000D01*
X3690000Y51455000D02*
X500000Y48265000D01*
X500000Y48265000D02*
X500000Y47250000D01*
D52*
X22890004Y36754996D02*
X8654996Y36754996D01*
X40644089Y22780649D02*
X40569736Y22855002D01*
X45430051Y22780649D02*
X40644089Y22780649D01*
X46250000Y20975000D02*
X46250000Y21960700D01*
X8654996Y36754996D02*
X8650000Y36750000D01*
X40569736Y22855002D02*
X36789998Y22855002D01*
X46250000Y21960700D02*
X45430051Y22780649D01*
X36789998Y22855002D02*
X22890004Y36754996D01*
X8650000Y36750000D02*
X8000000Y36750000D01*
X8000000Y38750000D02*
X8000000Y36750000D01*
X36501988Y20688196D02*
X36593869Y20688196D01*
X36189988Y21000196D02*
X36501988Y20688196D01*
X39039998Y17305002D02*
X44344998Y17305002D01*
X44344998Y17305002D02*
X44400000Y17250000D01*
X44400000Y17250000D02*
X45025000Y17250000D01*
X36593869Y20688196D02*
X36989998Y20292067D01*
X36989998Y20292067D02*
X36989998Y19355002D01*
X36989998Y19355002D02*
X39039998Y17305002D01*
X7033013Y35866987D02*
X8960570Y35866987D01*
X36189988Y21908690D02*
X36189988Y21000196D01*
X22175909Y35922769D02*
X36189988Y21908690D01*
X8960570Y35866987D02*
X9272570Y35554987D01*
X10216354Y35922769D02*
X22175909Y35922769D01*
X5500000Y36750000D02*
X6150000Y36750000D01*
X6150000Y36750000D02*
X7033013Y35866987D01*
X9272570Y35554987D02*
X9848572Y35554987D01*
X9848572Y35554987D02*
X10216354Y35922769D01*
X5500000Y38750000D02*
X5500000Y38300000D01*
X5500000Y38300000D02*
X5500000Y36750000D01*
X500000Y45750000D02*
X2860000Y45750000D01*
X2860000Y45750000D02*
X3050000Y45560000D01*
X3050000Y45505000D02*
X3050000Y42890000D01*
X3710000Y45695000D02*
X3185000Y45695000D01*
X3185000Y45695000D02*
X3050000Y45560000D01*
X3050000Y45560000D02*
X3050000Y45505000D01*
X3050000Y42890000D02*
X3180000Y42760000D01*
X67490000Y45855000D02*
X64671000Y45855000D01*
X69239999Y44105001D02*
X67490000Y45855000D01*
X72050001Y44105001D02*
X69239999Y44105001D01*
X74190000Y41965002D02*
X72050001Y44105001D01*
X74190000Y38240000D02*
X74190000Y41965002D01*
X73200000Y37250000D02*
X74190000Y38240000D01*
X73000000Y37250000D02*
X73200000Y37250000D01*
X64047500Y45231500D02*
X64047500Y44333000D01*
X64671000Y45855000D02*
X64047500Y45231500D01*
D58*
X57347138Y47304979D02*
X56640032Y47304979D01*
X59500000Y45152117D02*
X57347138Y47304979D01*
X59500000Y41750000D02*
X59500000Y45152117D01*
X13190000Y55455000D02*
X22730134Y45914866D01*
X22730134Y45914866D02*
X27820932Y45914866D01*
X27820932Y45914866D02*
X28528038Y45914866D01*
X6230000Y55455000D02*
X13190000Y55455000D01*
D52*
X59500000Y41725000D02*
X59500000Y41750000D01*
D58*
X61500000Y41750000D02*
X61985000Y41750000D01*
X61985000Y41750000D02*
X63190000Y42955000D01*
X63190000Y42955000D02*
X63690000Y42955000D01*
X59500000Y41750000D02*
X61500000Y41750000D01*
D54*
X71000000Y37250000D02*
X73000000Y37250000D01*
X64047500Y43312500D02*
X63690000Y42955000D01*
X64047500Y44333000D02*
X64047500Y43312500D01*
D52*
X48690000Y2705000D02*
X48890000Y2705000D01*
X48890000Y2705000D02*
X50290000Y4105000D01*
X52115078Y13281550D02*
X52115078Y13705814D01*
X52340002Y13056626D02*
X52115078Y13281550D01*
X52340002Y8355002D02*
X52340002Y13056626D01*
X50290000Y6305000D02*
X52340002Y8355002D01*
X50290000Y4105000D02*
X50290000Y6305000D01*
X43985000Y15250000D02*
X43190000Y14455000D01*
X45025000Y15250000D02*
X43985000Y15250000D01*
X52189994Y13704994D02*
X52115898Y13704994D01*
X52115898Y13704994D02*
X52115078Y13705814D01*
X48900000Y-420000D02*
X48900000Y2495000D01*
X48900000Y2495000D02*
X48690000Y2705000D01*
X51440000Y-420000D02*
X50690000Y330000D01*
X50690000Y330000D02*
X50690000Y6139300D01*
X50690000Y6139300D02*
X52914662Y8363962D01*
X52914662Y8363962D02*
X52914662Y13255398D01*
X52914662Y13255398D02*
X52914662Y13679662D01*
X43374300Y15205000D02*
X43114264Y15205000D01*
X43919300Y15750000D02*
X43374300Y15205000D01*
X45025000Y15750000D02*
X43919300Y15750000D01*
X43114264Y15205000D02*
X42690000Y15205000D01*
X4660000Y48315000D02*
X4660000Y46290000D01*
X4660000Y46290000D02*
X4950000Y46000000D01*
X17190000Y39455000D02*
X23986296Y39455000D01*
X11690000Y44955000D02*
X17190000Y39455000D01*
X23986296Y39455000D02*
X38586239Y24855057D01*
X9190000Y44955000D02*
X5945000Y44955000D01*
X5945000Y44955000D02*
X4950000Y45950000D01*
X4950000Y46000000D02*
X4950000Y45950000D01*
X41472534Y24780704D02*
X48447536Y24780704D01*
X50250000Y22978240D02*
X50250000Y21600000D01*
X38586239Y24855057D02*
X41398179Y24855057D01*
X48447536Y24780704D02*
X50250000Y22978240D01*
X41398179Y24855057D02*
X41472534Y24780704D01*
X50250000Y21600000D02*
X50250000Y20975000D01*
X59665736Y16355000D02*
X60090000Y16355000D01*
X59615734Y16304998D02*
X59665736Y16355000D01*
X53676409Y16304998D02*
X59615734Y16304998D01*
X53121411Y15750000D02*
X53676409Y16304998D01*
X51975000Y15750000D02*
X53121411Y15750000D01*
X63890000Y16305000D02*
X62940000Y16305000D01*
X63890000Y16305000D02*
X63890000Y14705000D01*
X62940000Y16305000D02*
X62890000Y16255000D01*
X67690000Y20455000D02*
X65690000Y20455000D01*
X65690000Y20455000D02*
X63890000Y18655000D01*
X69250000Y21000000D02*
X68925000Y21000000D01*
X68530001Y20605001D02*
X67840001Y20605001D01*
X68925000Y21000000D02*
X68530001Y20605001D01*
X67840001Y20605001D02*
X67690000Y20455000D01*
X63890000Y17805000D02*
X63890000Y18655000D01*
X41690000Y4205000D02*
X41040000Y4205000D01*
X41040000Y4205000D02*
X39990000Y5255000D01*
X39990000Y5255000D02*
X37561238Y5255000D01*
X35361253Y3055015D02*
X17589985Y3055015D01*
X37561238Y5255000D02*
X35361253Y3055015D01*
X17589985Y3055015D02*
X16690000Y3955000D01*
X16690000Y3955000D02*
X16690000Y4705000D01*
X45914989Y5979989D02*
X44140000Y4205000D01*
X44140000Y4205000D02*
X41690000Y4205000D01*
X45914989Y5979989D02*
X48790013Y8855013D01*
X48790013Y13359987D02*
X48750000Y13400000D01*
X48750000Y13400000D02*
X48750000Y14025000D01*
X48790013Y8855013D02*
X48790013Y13359987D01*
X14408571Y4705000D02*
X14408571Y4636429D01*
X35590004Y2655004D02*
X36390000Y3455000D01*
X14408571Y4636429D02*
X16389996Y2655004D01*
X16389996Y2655004D02*
X35590004Y2655004D01*
X36390000Y3455000D02*
X38690000Y3455000D01*
X38690000Y3455000D02*
X44190000Y3455000D01*
X37690000Y4205000D02*
X37890000Y4205000D01*
X37890000Y4205000D02*
X38640000Y3455000D01*
X38640000Y3455000D02*
X38690000Y3455000D01*
X49250000Y13400000D02*
X49250000Y14025000D01*
X44190000Y3455000D02*
X49250000Y8515000D01*
X49250000Y8515000D02*
X49250000Y13400000D01*
X65290000Y29955000D02*
X65210000Y29875000D01*
X65210000Y29875000D02*
X64990001Y29655001D01*
X74710000Y30429306D02*
X74710000Y30005042D01*
X74710000Y31735000D02*
X74710000Y30429306D01*
X73590000Y32855000D02*
X74710000Y31735000D01*
X69155000Y32855000D02*
X73590000Y32855000D01*
X68250000Y31750000D02*
X68250000Y31950000D01*
X68250000Y31950000D02*
X69155000Y32855000D01*
X64990001Y29655001D02*
X61890001Y29655001D01*
X61890001Y29655001D02*
X58490000Y26255000D01*
X58490000Y26255000D02*
X42614264Y26255000D01*
X42614264Y26255000D02*
X42190000Y26255000D01*
X37939999Y19253545D02*
X37640000Y19553544D01*
X39443544Y17750000D02*
X37939999Y19253545D01*
X45025000Y17750000D02*
X39443544Y17750000D01*
X68250000Y31750000D02*
X66500000Y31750000D01*
X66500000Y31750000D02*
X66500000Y31165000D01*
X66500000Y31165000D02*
X65589999Y30254999D01*
X65589999Y30254999D02*
X65290000Y29955000D01*
X64140000Y330000D02*
X64140000Y1505000D01*
X64010000Y1505000D02*
X64140000Y1505000D01*
X62210000Y3755000D02*
X62210000Y3305000D01*
X62210000Y3305000D02*
X64010000Y1505000D01*
X47190000Y-1745000D02*
X63865000Y-1745000D01*
X63865000Y-1745000D02*
X64140000Y-1470000D01*
X64140000Y-1470000D02*
X64140000Y330000D01*
X45990001Y-644999D02*
X46290000Y-345000D01*
X43539998Y-657002D02*
X43877998Y-995002D01*
X43877998Y-995002D02*
X45639998Y-995002D01*
X43539998Y142994D02*
X43539998Y-657002D01*
X43540002Y142998D02*
X43539998Y142994D01*
X43540002Y2005001D02*
X43540002Y142998D01*
X49750000Y8214999D02*
X43540002Y2005001D01*
X49750000Y14025000D02*
X49750000Y8214999D01*
X45639998Y-995002D02*
X45990001Y-644999D01*
D56*
X16740000Y17730000D02*
X14895000Y17730000D01*
X14895000Y17730000D02*
X13340000Y19285000D01*
X13340000Y19285000D02*
X13340000Y19785000D01*
X22640000Y17730000D02*
X24485000Y17730000D01*
X24485000Y17730000D02*
X26040000Y19285000D01*
X26040000Y19285000D02*
X26040000Y19785000D01*
D52*
X34967743Y4005037D02*
X36090000Y5127294D01*
X36090000Y5127294D02*
X42917695Y11954989D01*
X35690000Y4955000D02*
X35862294Y5127294D01*
X35862294Y5127294D02*
X36090000Y5127294D01*
X24690000Y4705000D02*
X25340000Y4705000D01*
X46250000Y13400000D02*
X46250000Y14025000D01*
X25340000Y4705000D02*
X26039963Y4005037D01*
X26039963Y4005037D02*
X34967743Y4005037D01*
X42917695Y11954989D02*
X45589989Y11954989D01*
X45589989Y11954989D02*
X46250000Y12615000D01*
X46250000Y12615000D02*
X46250000Y13400000D01*
X39040000Y4205000D02*
X38690000Y4555000D01*
X39690000Y4205000D02*
X39040000Y4205000D01*
D56*
X22640000Y13180000D02*
X23165000Y13180000D01*
X23165000Y13180000D02*
X24690000Y11655000D01*
X24690000Y11655000D02*
X24690000Y6705000D01*
X24690000Y6705000D02*
X24690000Y6205000D01*
X16690000Y6205000D02*
X16690000Y13130000D01*
X16690000Y13130000D02*
X16740000Y13180000D01*
X14408571Y12923571D02*
X15315000Y13830000D01*
X15315000Y13830000D02*
X16740000Y13830000D01*
X14408571Y6205000D02*
X14408571Y12923571D01*
D52*
X63990000Y23155002D02*
X64640002Y22505000D01*
X65785736Y22505000D02*
X66210000Y22505000D01*
X64640002Y22505000D02*
X65785736Y22505000D01*
X59790001Y15754999D02*
X60090000Y15455000D01*
X59640013Y15904987D02*
X59790001Y15754999D01*
X51975000Y15250000D02*
X53187111Y15250000D01*
X53187111Y15250000D02*
X53842098Y15904987D01*
X53842098Y15904987D02*
X59640013Y15904987D01*
X61690000Y22830736D02*
X61690000Y23255000D01*
X61690000Y22755000D02*
X61690000Y22830736D01*
X62090013Y22354987D02*
X61690000Y22755000D01*
X62090013Y15754999D02*
X62090013Y22354987D01*
X62390012Y15455000D02*
X62090013Y15754999D01*
X70250000Y21000000D02*
X70250000Y21895000D01*
X70250000Y21895000D02*
X70090000Y22055000D01*
X52792900Y44355000D02*
X42490000Y34052100D01*
X42490000Y29079264D02*
X42490000Y28655000D01*
X42490000Y34052100D02*
X42490000Y29079264D01*
X54390000Y44455000D02*
X54290000Y44355000D01*
X54390000Y48055001D02*
X54390000Y44455000D01*
X55690022Y49355022D02*
X54390000Y48055001D01*
X60327974Y49355022D02*
X55690022Y49355022D01*
X62377998Y47304998D02*
X60327974Y49355022D01*
X66587500Y49667000D02*
X66587500Y48190496D01*
X65702002Y47304998D02*
X62377998Y47304998D01*
X66587500Y48190496D02*
X65702002Y47304998D01*
X54290000Y44355000D02*
X52792900Y44355000D01*
X45750000Y20975000D02*
X45750000Y21895000D01*
X45750000Y21895000D02*
X45290000Y22355000D01*
X45290000Y22355000D02*
X39590000Y22355000D01*
X39590000Y22355000D02*
X39490000Y22255000D01*
X9108030Y34723944D02*
X9108030Y34299680D01*
X9108030Y34299680D02*
X4263350Y29455000D01*
X4263350Y29455000D02*
X-309990Y29455000D01*
X-309990Y29455000D02*
X-5510001Y24254989D01*
X-5510001Y24254989D02*
X-5810000Y23954990D01*
X-4260000Y19755000D02*
X-4260000Y20706162D01*
X-4260000Y20706162D02*
X-4309988Y20756150D01*
X39189999Y21355001D02*
X38403783Y22141217D01*
X45025000Y20250000D02*
X40995000Y20250000D01*
X40995000Y20250000D02*
X39889999Y21355001D01*
X39889999Y21355001D02*
X39189999Y21355001D01*
X38403783Y22141217D02*
X36603783Y22141217D01*
X9760570Y36354987D02*
X9560571Y36154988D01*
X36603783Y22141217D02*
X22390013Y36354987D01*
X22390013Y36354987D02*
X9760570Y36354987D01*
X46750000Y14025000D02*
X46750000Y12265000D01*
D56*
X46750000Y12265000D02*
X45883564Y11398564D01*
X45883564Y11398564D02*
X43033036Y11398564D01*
X15740000Y14480000D02*
X16740000Y14480000D01*
X13440000Y5705000D02*
X13440000Y12705000D01*
X13440000Y12705000D02*
X15215000Y14480000D01*
X13690000Y5455000D02*
X13440000Y5705000D01*
X19239976Y3530026D02*
X17315002Y5455000D01*
X35164498Y3530026D02*
X19239976Y3530026D01*
X43033036Y11398564D02*
X35164498Y3530026D01*
X17315002Y5455000D02*
X13690000Y5455000D01*
X15215000Y14480000D02*
X15740000Y14480000D01*
D52*
X22640000Y13830000D02*
X23852996Y13830000D01*
X23852996Y13830000D02*
X25710000Y11972996D01*
X28710000Y7505000D02*
X36710000Y7505000D01*
X25710000Y11972996D02*
X25710000Y10505000D01*
X25710000Y10505000D02*
X28710000Y7505000D01*
X36710000Y7505000D02*
X38964215Y9759215D01*
X38710000Y9505000D02*
X38964215Y9759215D01*
X38964215Y9759215D02*
X38964215Y9929990D01*
X42038193Y9731955D02*
X42038193Y9449111D01*
X43229791Y10923553D02*
X42038193Y9731955D01*
X46080319Y10923553D02*
X43229791Y10923553D01*
X47250000Y14025000D02*
X47250000Y12093234D01*
X47250000Y12093234D02*
X46080319Y10923553D01*
D51*
X-2560000Y14455000D02*
X493600Y14455000D01*
X493600Y14455000D02*
X690000Y14651400D01*
X690000Y14651400D02*
X690000Y15915000D01*
X-2360000Y17155000D02*
X-2360000Y14655000D01*
X-2360000Y14655000D02*
X-2560000Y14455000D01*
D54*
X69000000Y37250000D02*
X67000000Y37250000D01*
X67250000Y41000000D02*
X67250000Y39000000D01*
X67250000Y39000000D02*
X67000000Y38750000D01*
X65952500Y44333000D02*
X65952500Y42272500D01*
X65952500Y42272500D02*
X67225000Y41000000D01*
X67225000Y41000000D02*
X67250000Y41000000D01*
X68608998Y41000000D02*
X68750000Y41000000D01*
X66587500Y43021498D02*
X68608998Y41000000D01*
X66587500Y44333000D02*
X66587500Y43021498D01*
D52*
X71000000Y40250000D02*
X71200000Y40250000D01*
X71200000Y40250000D02*
X72700000Y41750000D01*
X72700000Y41750000D02*
X73000000Y41750000D01*
D54*
X71000000Y38750000D02*
X71000000Y40250000D01*
X69000000Y38750000D02*
X71000000Y38750000D01*
X68750000Y41000000D02*
X68750000Y39000000D01*
X68750000Y39000000D02*
X69000000Y38750000D01*
D52*
X73000000Y40250000D02*
X73000000Y38750000D01*
D55*
X65600000Y53750000D02*
X65600000Y51300000D01*
X65600000Y51300000D02*
X65505000Y51205000D01*
X65505000Y51205000D02*
X65172000Y51205000D01*
D60*
X64682500Y49667000D02*
X64682500Y50715500D01*
X64682500Y50715500D02*
X65172000Y51205000D01*
D55*
X63400000Y53750000D02*
X63400000Y51300000D01*
X63400000Y51300000D02*
X63495000Y51205000D01*
X63495000Y51205000D02*
X63558000Y51205000D01*
D60*
X64047500Y49667000D02*
X64047500Y50715500D01*
X64047500Y50715500D02*
X63558000Y51205000D01*
D52*
X37690000Y47455000D02*
X33440000Y47455000D01*
X47289999Y23055007D02*
X46990000Y23355006D01*
X47750000Y22595006D02*
X47289999Y23055007D01*
X47750000Y20975000D02*
X47750000Y22595006D01*
X60190000Y45955000D02*
X57990011Y48154989D01*
X57990011Y48154989D02*
X56187089Y48154989D01*
X56187089Y48154989D02*
X55590033Y47557934D01*
X55590033Y43957933D02*
X54787067Y43154967D01*
X54787067Y43154967D02*
X53289967Y43154967D01*
X53289967Y43154967D02*
X46955674Y36820674D01*
X55590033Y47557934D02*
X55590033Y43957933D01*
X46955674Y36820674D02*
X46955674Y28079275D01*
X46955674Y28079275D02*
X46955674Y27655011D01*
D54*
X62789000Y45955000D02*
X60190000Y45955000D01*
X63412500Y44333000D02*
X63412500Y45331500D01*
X63412500Y45331500D02*
X62789000Y45955000D01*
D52*
X41112665Y26329121D02*
X41638546Y26855002D01*
X41638546Y26855002D02*
X54890001Y26855002D01*
X54890001Y26855002D02*
X56210000Y28175001D01*
X56210000Y28175001D02*
X56210000Y29505000D01*
X56210000Y29505000D02*
X58020000Y31315000D01*
X58020000Y31315000D02*
X58160000Y31315000D01*
X38390009Y21118443D02*
X38390009Y21241217D01*
X40258452Y19250000D02*
X38390009Y21118443D01*
X38390009Y21241217D02*
X38090010Y21541216D01*
X45025000Y19250000D02*
X40258452Y19250000D01*
X41843706Y13854998D02*
X36338439Y19360265D01*
X43504998Y13854998D02*
X41843706Y13854998D01*
X44400000Y14750000D02*
X43504998Y13854998D01*
X45025000Y14750000D02*
X44400000Y14750000D01*
X36338439Y19360265D02*
X36338439Y19581599D01*
X36338439Y19581599D02*
X36338439Y20005863D01*
X40787600Y28935000D02*
X39209233Y27356633D01*
X39209233Y27356633D02*
X39209233Y27288477D01*
X40940000Y28935000D02*
X40787600Y28935000D01*
X45750000Y14025000D02*
X45410000Y14025000D01*
X35710000Y20905000D02*
X35501375Y21113625D01*
X45410000Y14025000D02*
X44785000Y13400000D01*
X35501375Y21113625D02*
X35482042Y21113625D01*
X44785000Y13400000D02*
X41733004Y13400000D01*
X41733004Y13400000D02*
X35710000Y19423004D01*
X35710000Y19423004D02*
X35710000Y20905000D01*
X40440000Y31750000D02*
X38409495Y29719495D01*
X38409495Y27691819D02*
X38409495Y27267555D01*
X38409495Y29719495D02*
X38409495Y27691819D01*
X20150000Y55500000D02*
X30539989Y45110011D01*
X30539989Y45110011D02*
X30539989Y35855011D01*
X30539989Y35855011D02*
X34645000Y31750000D01*
X34645000Y31750000D02*
X40440000Y31750000D01*
X40440000Y31750000D02*
X40440000Y36205000D01*
X40440000Y36205000D02*
X51690000Y47455000D01*
X60190000Y9455000D02*
X60190000Y2705000D01*
X61600000Y1295000D02*
X61600000Y-420000D01*
X60190000Y2705000D02*
X61600000Y1295000D01*
X43484107Y15895132D02*
X43215888Y15895132D01*
X45025000Y16250000D02*
X43838975Y16250000D01*
X43838975Y16250000D02*
X43484107Y15895132D01*
X58440021Y15204979D02*
X55384748Y15204979D01*
X60190000Y12455000D02*
X60190000Y13455000D01*
X60190000Y13455000D02*
X58440021Y15204979D01*
X55384748Y15204979D02*
X54960484Y15204979D01*
X43485000Y16750000D02*
X43440000Y16705000D01*
X45025000Y16750000D02*
X43485000Y16750000D01*
X54111236Y14880713D02*
X54111236Y15304977D01*
X59190000Y13705000D02*
X58290022Y14604978D01*
X58290022Y14604978D02*
X54386971Y14604978D01*
X54386971Y14604978D02*
X54111236Y14880713D01*
X59190000Y12129264D02*
X59190000Y11705000D01*
X59190000Y13705000D02*
X59190000Y12129264D01*
X59190000Y-290000D02*
X59190000Y9205000D01*
X59190000Y13705000D02*
X59190000Y11705000D01*
X59060000Y-420000D02*
X59190000Y-290000D01*
D54*
X71350010Y22115010D02*
X71350010Y21943244D01*
X71350010Y21943244D02*
X71250000Y21843234D01*
D61*
X71750000Y22705000D02*
X71750000Y22515000D01*
X71750000Y22515000D02*
X71350010Y22115010D01*
D56*
X71250000Y21000000D02*
X71250000Y21843234D01*
D55*
X73775000Y24730000D02*
X71750000Y22705000D01*
X73465000Y26455000D02*
X73465000Y24730000D01*
D52*
X73465000Y25230000D02*
X73465000Y26455000D01*
D56*
X18500000Y31850000D02*
X18335000Y31850000D01*
X18335000Y31850000D02*
X16940000Y30455000D01*
X18420000Y27520000D02*
X18420000Y25095000D01*
X21000000Y31850000D02*
X21200000Y31850000D01*
X21295000Y31850000D02*
X21295000Y31600008D01*
X21295000Y31600008D02*
X22140001Y30755007D01*
X22140001Y30755007D02*
X22440000Y30455008D01*
X21200000Y31850000D02*
X22440000Y30610000D01*
X22440000Y30610000D02*
X22440000Y30455008D01*
X20960000Y27520000D02*
X20960000Y25095000D01*
D52*
X49750000Y20975000D02*
X49750000Y22710700D01*
X37939954Y24455046D02*
X23989999Y38405001D01*
X23989999Y38405001D02*
X23690000Y38705000D01*
X49750000Y22710700D02*
X48080007Y24380693D01*
X41232492Y24455046D02*
X37939954Y24455046D01*
X41306845Y24380693D02*
X41232492Y24455046D01*
X48080007Y24380693D02*
X41306845Y24380693D01*
X49250000Y22083002D02*
X47352320Y23980682D01*
X47352320Y23980682D02*
X41141156Y23980682D01*
X49250000Y20975000D02*
X49250000Y22083002D01*
X41066803Y24055035D02*
X37387065Y24055035D01*
X41141156Y23980682D02*
X41066803Y24055035D01*
X37387065Y24055035D02*
X23037099Y38405001D01*
X22989999Y38405001D02*
X22690000Y38705000D01*
X23037099Y38405001D02*
X22989999Y38405001D01*
X28790000Y53555000D02*
X28890000Y53455000D01*
X28890000Y53455000D02*
X29190000Y53455000D01*
X38490000Y48655000D02*
X43940000Y43205000D01*
X29190000Y53455000D02*
X33990000Y48655000D01*
X33990000Y48655000D02*
X38490000Y48655000D01*
X43940000Y43205000D02*
X44190000Y42955000D01*
X48990000Y37755000D02*
X50690000Y39455000D01*
X50690000Y39455000D02*
X51690000Y39455000D01*
X48990000Y29895000D02*
X48990000Y37755000D01*
X54090001Y41354993D02*
X54390000Y41654992D01*
X51690000Y39455000D02*
X52190008Y39455000D01*
X52190008Y39455000D02*
X54090001Y41354993D01*
D51*
X55117602Y42548893D02*
X55240002Y42426493D01*
X55240002Y42426493D02*
X55240002Y38959998D01*
X56345000Y31640000D02*
X56210000Y31505000D01*
X54090000Y29155000D02*
X52045000Y29155000D01*
X52045000Y29155000D02*
X51285000Y28395000D01*
X55240002Y38959998D02*
X56345000Y37855000D01*
X56345000Y37855000D02*
X56345000Y31640000D01*
X56210000Y31505000D02*
X56210000Y31275000D01*
X56210000Y31275000D02*
X54090000Y29155000D01*
X51285000Y28395000D02*
X51085000Y28395000D01*
X51085000Y28395000D02*
X48990000Y28395000D01*
X45640001Y42705011D02*
X45940000Y43005010D01*
X37690000Y33455000D02*
X37690000Y34755010D01*
X37690000Y34755010D02*
X45640001Y42705011D01*
X25230000Y55500000D02*
X25230000Y54665000D01*
X25230000Y54665000D02*
X31940000Y47955000D01*
X31940000Y47955000D02*
X31940000Y47455000D01*
X31940000Y47455000D02*
X31940000Y43455000D01*
X37690000Y33455000D02*
X31940000Y39205000D01*
X31940000Y39205000D02*
X31940000Y43455000D01*
D52*
X27770000Y55500000D02*
X27770000Y53375000D01*
X27770000Y53375000D02*
X32690000Y48455000D01*
X32690000Y48455000D02*
X32690000Y44855000D01*
X32690000Y44855000D02*
X33440000Y44105000D01*
X33440000Y44105000D02*
X33440000Y43455000D01*
X37690000Y43455000D02*
X33440000Y43455000D01*
X53090000Y29905000D02*
X52890000Y29905000D01*
X52890000Y29905000D02*
X50090000Y32705000D01*
X50090000Y32705000D02*
X50090000Y34955000D01*
X50090000Y34955000D02*
X50590000Y35455000D01*
X50590000Y35455000D02*
X51690000Y35455000D01*
X51085000Y29895000D02*
X51085000Y30345000D01*
X51085000Y30345000D02*
X49590000Y31840000D01*
X49590000Y31840000D02*
X49590000Y36655000D01*
X49590000Y36655000D02*
X50390000Y37455000D01*
X50390000Y37455000D02*
X51690000Y37455000D01*
D56*
X40189999Y11355001D02*
X35859999Y11355001D01*
X35859999Y11355001D02*
X30600000Y16615000D01*
X30600000Y16615000D02*
X30340000Y16615000D01*
D52*
X43890380Y10240625D02*
X43466116Y10240625D01*
X47750000Y11890736D02*
X46099889Y10240625D01*
X47750000Y14025000D02*
X47750000Y11890736D01*
X46099889Y10240625D02*
X43890380Y10240625D01*
X40189999Y11355001D02*
X40489998Y11055002D01*
D56*
X39090000Y10555000D02*
X31895000Y10555000D01*
X31895000Y10555000D02*
X30915000Y11535000D01*
X30915000Y11535000D02*
X30340000Y11535000D01*
D52*
X39090000Y10555000D02*
X39790000Y10555000D01*
X43167040Y9337610D02*
X42867041Y9637609D01*
X45872610Y9337610D02*
X43167040Y9337610D01*
X48250000Y11715000D02*
X45872610Y9337610D01*
X48250000Y14025000D02*
X48250000Y11715000D01*
D56*
X18190000Y1455000D02*
X19640000Y5000D01*
X19640000Y5000D02*
X34210000Y5000D01*
X3190000Y17790000D02*
X3190000Y17505000D01*
X3190000Y17505000D02*
X3190000Y9955000D01*
X3190000Y18220000D02*
X3190000Y17505000D01*
X6040000Y20495000D02*
X5465000Y20495000D01*
X5465000Y20495000D02*
X3190000Y18220000D01*
X44190000Y79264D02*
X44190000Y-345000D01*
X44190000Y1755996D02*
X44190000Y79264D01*
X46714002Y4279998D02*
X44190000Y1755996D01*
X46714002Y4279998D02*
X46714002Y4279002D01*
X50250000Y7815996D02*
X50250000Y13511666D01*
X46714002Y4279998D02*
X50250000Y7815996D01*
D52*
X50250000Y14025000D02*
X50250000Y13511666D01*
D56*
X12826518Y404252D02*
X13250782Y404252D01*
X3190000Y4547878D02*
X7333626Y404252D01*
X3190000Y7955000D02*
X3190000Y4547878D01*
X7333626Y404252D02*
X12826518Y404252D01*
X4190000Y7955000D02*
X4190000Y4255000D01*
X4190000Y4255000D02*
X7365738Y1079262D01*
X7365738Y1079262D02*
X14135738Y1079262D01*
X14135738Y1079262D02*
X14490000Y725000D01*
X14490000Y725000D02*
X14490000Y654998D01*
X18552867Y208235D02*
X18252868Y508234D01*
X19756102Y-995000D02*
X18552867Y208235D01*
X34210000Y-995000D02*
X19756102Y-995000D01*
X4190000Y12505000D02*
X4190000Y9955000D01*
X6040000Y15415000D02*
X6040000Y15130000D01*
X6040000Y15130000D02*
X4190000Y13280000D01*
X4190000Y13280000D02*
X4190000Y12505000D01*
X45190000Y79264D02*
X45190000Y-345000D01*
X45190000Y2020763D02*
X45190000Y79264D01*
X50750010Y7580773D02*
X45190000Y2020763D01*
X50750010Y13511656D02*
X50750010Y7580773D01*
D52*
X50750000Y13511666D02*
X50750010Y13511656D01*
X50750000Y14025000D02*
X50750000Y13511666D01*
X40940000Y30205000D02*
X40940000Y32205000D01*
X40940000Y32205000D02*
X41190000Y32455000D01*
X22690000Y55500000D02*
X30940000Y47250000D01*
X30940000Y47250000D02*
X30940000Y36205000D01*
X30940000Y36205000D02*
X34940000Y32205000D01*
X34940000Y32205000D02*
X39440000Y32205000D01*
X39440000Y32205000D02*
X39690000Y32455000D01*
X41489999Y32754999D02*
X41489999Y33000000D01*
X41489999Y33000000D02*
X41489999Y35254999D01*
X51690000Y45455000D02*
X42235000Y36000000D01*
X42235000Y36000000D02*
X42000000Y35765000D01*
X41190000Y32455000D02*
X41489999Y32754999D01*
X41489999Y35254999D02*
X42235000Y36000000D01*
X8260000Y42760000D02*
X8260000Y40510000D01*
X8260000Y40510000D02*
X8000000Y40250000D01*
X5720000Y42760000D02*
X5720000Y40470000D01*
X5720000Y40470000D02*
X5500000Y40250000D01*
X33690000Y1954994D02*
X34739994Y905000D01*
X34739994Y905000D02*
X35710000Y905000D01*
X41140003Y10742997D02*
X35952006Y5555000D01*
X41140003Y13004995D02*
X41140003Y10742997D01*
X36589998Y17555000D02*
X41140003Y13004995D01*
X34989996Y5555000D02*
X34689995Y5254999D01*
X34689995Y5254999D02*
X34389996Y4955000D01*
X35952006Y5555000D02*
X34989996Y5555000D01*
X45025000Y19750000D02*
X40646456Y19750000D01*
X40646456Y19750000D02*
X39965727Y20430729D01*
X39965727Y20430729D02*
X39665728Y20730728D01*
D62*
X66690000Y10355000D02*
X71890000Y10355000D01*
X71890000Y10355000D02*
X73790000Y10355000D01*
D52*
X71780000Y11155000D02*
X71780000Y10465000D01*
X71780000Y10465000D02*
X71890000Y10355000D01*
X73050000Y11155000D02*
X73050000Y10905000D01*
X73050000Y10905000D02*
X73600000Y10355000D01*
X73600000Y10355000D02*
X73790000Y10355000D01*
X74330000Y11155000D02*
X74330000Y10895000D01*
X74330000Y10895000D02*
X73790000Y10355000D01*
D62*
X73689999Y9155001D02*
X73790000Y9255002D01*
X73790000Y9255002D02*
X73790000Y10355000D01*
X66690000Y10355000D02*
X67889999Y9155001D01*
X67889999Y9155001D02*
X73689999Y9155001D01*
D51*
X29390000Y8915000D02*
X29390000Y12240002D01*
X29390000Y12240002D02*
X30710000Y13560002D01*
X30710000Y13560002D02*
X30710000Y14420002D01*
X30710000Y14420002D02*
X29525002Y15605000D01*
X28440000Y16330000D02*
X28440000Y16615000D01*
X29525002Y15605000D02*
X29165000Y15605000D01*
X29165000Y15605000D02*
X28440000Y16330000D01*
X28580000Y23595000D02*
X28580000Y16755000D01*
X28580000Y16755000D02*
X28440000Y16615000D01*
X6990000Y18035000D02*
X7240000Y18035000D01*
X7240000Y18035000D02*
X8210000Y19005000D01*
X8210000Y19005000D02*
X8210000Y20225000D01*
X8210000Y20225000D02*
X7940000Y20495000D01*
X7940000Y20495000D02*
X7940000Y20935000D01*
X7940000Y20935000D02*
X10600000Y23595000D01*
X10600000Y23595000D02*
X10800000Y23595000D01*
D63*
G36*
X60648750Y40377000D02*
X61373000Y40377000D01*
X61373000Y40397000D01*
X61627000Y40397000D01*
X61627000Y40377000D01*
X61647000Y40377000D01*
X61647000Y40123000D01*
X61627000Y40123000D01*
X61627000Y39373750D01*
X61785750Y39215000D01*
X62001310Y39215000D01*
X62234699Y39311673D01*
X62413327Y39490302D01*
X62490000Y39675407D01*
X62490000Y39577998D01*
X62648748Y39577998D01*
X62490000Y39419250D01*
X62490000Y39178691D01*
X62586673Y38945302D01*
X62765301Y38766673D01*
X62998690Y38670000D01*
X63214250Y38670000D01*
X63373000Y38828750D01*
X63373000Y39578000D01*
X63353000Y39578000D01*
X63353000Y39832000D01*
X63373000Y39832000D01*
X63373000Y39852000D01*
X63577758Y39852000D01*
X63627000Y39842205D01*
X63627000Y39832000D01*
X63647000Y39832000D01*
X63647000Y39578000D01*
X63627000Y39578000D01*
X63627000Y38828750D01*
X63785750Y38670000D01*
X63805000Y38670000D01*
X63805000Y38082000D01*
X61135290Y38082000D01*
X60002003Y39215287D01*
X60234699Y39311673D01*
X60413327Y39490302D01*
X60500000Y39699549D01*
X60586673Y39490302D01*
X60765301Y39311673D01*
X60998690Y39215000D01*
X61214250Y39215000D01*
X61373000Y39373750D01*
X61373000Y40123000D01*
X60648750Y40123000D01*
X60500000Y39974250D01*
X60351250Y40123000D01*
X59627000Y40123000D01*
X59627000Y40103000D01*
X59373000Y40103000D01*
X59373000Y40123000D01*
X59353000Y40123000D01*
X59353000Y40377000D01*
X59373000Y40377000D01*
X59373000Y40397000D01*
X59627000Y40397000D01*
X59627000Y40377000D01*
X60351250Y40377000D01*
X60500000Y40525750D01*
X60648750Y40377000D01*
X60648750Y40377000D01*
G37*
X60648750Y40377000D02*
X61373000Y40377000D01*
X61373000Y40397000D01*
X61627000Y40397000D01*
X61627000Y40377000D01*
X61647000Y40377000D01*
X61647000Y40123000D01*
X61627000Y40123000D01*
X61627000Y39373750D01*
X61785750Y39215000D01*
X62001310Y39215000D01*
X62234699Y39311673D01*
X62413327Y39490302D01*
X62490000Y39675407D01*
X62490000Y39577998D01*
X62648748Y39577998D01*
X62490000Y39419250D01*
X62490000Y39178691D01*
X62586673Y38945302D01*
X62765301Y38766673D01*
X62998690Y38670000D01*
X63214250Y38670000D01*
X63373000Y38828750D01*
X63373000Y39578000D01*
X63353000Y39578000D01*
X63353000Y39832000D01*
X63373000Y39832000D01*
X63373000Y39852000D01*
X63577758Y39852000D01*
X63627000Y39842205D01*
X63627000Y39832000D01*
X63647000Y39832000D01*
X63647000Y39578000D01*
X63627000Y39578000D01*
X63627000Y38828750D01*
X63785750Y38670000D01*
X63805000Y38670000D01*
X63805000Y38082000D01*
X61135290Y38082000D01*
X60002003Y39215287D01*
X60234699Y39311673D01*
X60413327Y39490302D01*
X60500000Y39699549D01*
X60586673Y39490302D01*
X60765301Y39311673D01*
X60998690Y39215000D01*
X61214250Y39215000D01*
X61373000Y39373750D01*
X61373000Y40123000D01*
X60648750Y40123000D01*
X60500000Y39974250D01*
X60351250Y40123000D01*
X59627000Y40123000D01*
X59627000Y40103000D01*
X59373000Y40103000D01*
X59373000Y40123000D01*
X59353000Y40123000D01*
X59353000Y40377000D01*
X59373000Y40377000D01*
X59373000Y40397000D01*
X59627000Y40397000D01*
X59627000Y40377000D01*
X60351250Y40377000D01*
X60500000Y40525750D01*
X60648750Y40377000D01*
G36*
X68720275Y43585278D02*
X68958727Y43425950D01*
X69239999Y43370001D01*
X70563000Y43370001D01*
X70563000Y42635000D01*
X70423690Y42635000D01*
X70190301Y42538327D01*
X70011673Y42359698D01*
X69915000Y42126309D01*
X69915000Y42033750D01*
X70073750Y41875000D01*
X70563000Y41875000D01*
X70563000Y41625000D01*
X70073750Y41625000D01*
X69915000Y41466250D01*
X69915000Y41373691D01*
X70011673Y41140302D01*
X70069975Y41082000D01*
X69797440Y41082000D01*
X69797440Y41375000D01*
X69753162Y41610317D01*
X69614090Y41826441D01*
X69401890Y41971431D01*
X69150000Y42022440D01*
X68696716Y42022440D01*
X67666834Y43052322D01*
X67772699Y43096173D01*
X67951327Y43274802D01*
X68048000Y43508191D01*
X68048000Y44047250D01*
X67889252Y44205998D01*
X68048000Y44205998D01*
X68048000Y44257553D01*
X68720275Y43585278D01*
X68720275Y43585278D01*
G37*
X68720275Y43585278D02*
X68958727Y43425950D01*
X69239999Y43370001D01*
X70563000Y43370001D01*
X70563000Y42635000D01*
X70423690Y42635000D01*
X70190301Y42538327D01*
X70011673Y42359698D01*
X69915000Y42126309D01*
X69915000Y42033750D01*
X70073750Y41875000D01*
X70563000Y41875000D01*
X70563000Y41625000D01*
X70073750Y41625000D01*
X69915000Y41466250D01*
X69915000Y41373691D01*
X70011673Y41140302D01*
X70069975Y41082000D01*
X69797440Y41082000D01*
X69797440Y41375000D01*
X69753162Y41610317D01*
X69614090Y41826441D01*
X69401890Y41971431D01*
X69150000Y42022440D01*
X68696716Y42022440D01*
X67666834Y43052322D01*
X67772699Y43096173D01*
X67951327Y43274802D01*
X68048000Y43508191D01*
X68048000Y44047250D01*
X67889252Y44205998D01*
X68048000Y44205998D01*
X68048000Y44257553D01*
X68720275Y43585278D01*
G36*
X61952000Y45157809D02*
X61952000Y44618750D01*
X62110750Y44460000D01*
X62574560Y44460000D01*
X62574560Y44206000D01*
X62110750Y44206000D01*
X61952000Y44047250D01*
X61952000Y43508191D01*
X62048673Y43274802D01*
X62118092Y43205382D01*
X61710150Y42797440D01*
X61125000Y42797440D01*
X60889683Y42753162D01*
X60783756Y42685000D01*
X60435000Y42685000D01*
X60435000Y45152117D01*
X60431443Y45170000D01*
X61957050Y45170000D01*
X61952000Y45157809D01*
X61952000Y45157809D01*
G37*
X61952000Y45157809D02*
X61952000Y44618750D01*
X62110750Y44460000D01*
X62574560Y44460000D01*
X62574560Y44206000D01*
X62110750Y44206000D01*
X61952000Y44047250D01*
X61952000Y43508191D01*
X62048673Y43274802D01*
X62118092Y43205382D01*
X61710150Y42797440D01*
X61125000Y42797440D01*
X60889683Y42753162D01*
X60783756Y42685000D01*
X60435000Y42685000D01*
X60435000Y45152117D01*
X60431443Y45170000D01*
X61957050Y45170000D01*
X61952000Y45157809D01*
G36*
X67480561Y51735419D02*
X69106355Y49302245D01*
X69302244Y49106356D01*
X70563000Y48263946D01*
X70563000Y47639987D01*
X67076438Y47639987D01*
X67107223Y47670772D01*
X67266551Y47909224D01*
X67277869Y47966124D01*
X67322500Y48190496D01*
X67322500Y48333500D01*
X67349502Y48333500D01*
X67349502Y48460498D01*
X67476500Y48333500D01*
X67539310Y48333500D01*
X67772699Y48430173D01*
X67951327Y48608802D01*
X68048000Y48842191D01*
X68048000Y49381250D01*
X67889250Y49540000D01*
X67425440Y49540000D01*
X67425440Y49794000D01*
X67889250Y49794000D01*
X68048000Y49952750D01*
X68048000Y50491809D01*
X67951327Y50725198D01*
X67772699Y50903827D01*
X67539310Y51000500D01*
X67476500Y51000500D01*
X67317750Y50841750D01*
X67317750Y50699362D01*
X67242090Y50816941D01*
X67029890Y50961931D01*
X67001274Y50967726D01*
X66968500Y51000500D01*
X66905690Y51000500D01*
X66883933Y50991488D01*
X66778000Y51012940D01*
X66677900Y51012940D01*
X66735000Y51300000D01*
X66735000Y51828000D01*
X67442213Y51828000D01*
X67480561Y51735419D01*
X67480561Y51735419D01*
G37*
X67480561Y51735419D02*
X69106355Y49302245D01*
X69302244Y49106356D01*
X70563000Y48263946D01*
X70563000Y47639987D01*
X67076438Y47639987D01*
X67107223Y47670772D01*
X67266551Y47909224D01*
X67277869Y47966124D01*
X67322500Y48190496D01*
X67322500Y48333500D01*
X67349502Y48333500D01*
X67349502Y48460498D01*
X67476500Y48333500D01*
X67539310Y48333500D01*
X67772699Y48430173D01*
X67951327Y48608802D01*
X68048000Y48842191D01*
X68048000Y49381250D01*
X67889250Y49540000D01*
X67425440Y49540000D01*
X67425440Y49794000D01*
X67889250Y49794000D01*
X68048000Y49952750D01*
X68048000Y50491809D01*
X67951327Y50725198D01*
X67772699Y50903827D01*
X67539310Y51000500D01*
X67476500Y51000500D01*
X67317750Y50841750D01*
X67317750Y50699362D01*
X67242090Y50816941D01*
X67029890Y50961931D01*
X67001274Y50967726D01*
X66968500Y51000500D01*
X66905690Y51000500D01*
X66883933Y50991488D01*
X66778000Y51012940D01*
X66677900Y51012940D01*
X66735000Y51300000D01*
X66735000Y51828000D01*
X67442213Y51828000D01*
X67480561Y51735419D01*
G36*
X62683673Y48608802D02*
X62862301Y48430173D01*
X62986111Y48378889D01*
X63031500Y48333500D01*
X63094310Y48333500D01*
X63095000Y48333786D01*
X63095690Y48333500D01*
X63158500Y48333500D01*
X63203889Y48378889D01*
X63327699Y48430173D01*
X63405786Y48508261D01*
X63605110Y48372069D01*
X63633726Y48366274D01*
X63666500Y48333500D01*
X63729310Y48333500D01*
X63751067Y48342512D01*
X63857000Y48321060D01*
X64238000Y48321060D01*
X64369662Y48345834D01*
X64492000Y48321060D01*
X64873000Y48321060D01*
X64981455Y48341467D01*
X65000690Y48333500D01*
X65063500Y48333500D01*
X65092330Y48362330D01*
X65108317Y48365338D01*
X65324441Y48504410D01*
X65325912Y48506563D01*
X65402301Y48430173D01*
X65526111Y48378889D01*
X65571500Y48333500D01*
X65634310Y48333500D01*
X65635000Y48333786D01*
X65635690Y48333500D01*
X65691057Y48333500D01*
X65397556Y48039998D01*
X62682445Y48039998D01*
X62338210Y48384233D01*
X62460690Y48333500D01*
X62523500Y48333500D01*
X62682250Y48492250D01*
X62682250Y48612237D01*
X62683673Y48608802D01*
X62683673Y48608802D01*
G37*
X62683673Y48608802D02*
X62862301Y48430173D01*
X62986111Y48378889D01*
X63031500Y48333500D01*
X63094310Y48333500D01*
X63095000Y48333786D01*
X63095690Y48333500D01*
X63158500Y48333500D01*
X63203889Y48378889D01*
X63327699Y48430173D01*
X63405786Y48508261D01*
X63605110Y48372069D01*
X63633726Y48366274D01*
X63666500Y48333500D01*
X63729310Y48333500D01*
X63751067Y48342512D01*
X63857000Y48321060D01*
X64238000Y48321060D01*
X64369662Y48345834D01*
X64492000Y48321060D01*
X64873000Y48321060D01*
X64981455Y48341467D01*
X65000690Y48333500D01*
X65063500Y48333500D01*
X65092330Y48362330D01*
X65108317Y48365338D01*
X65324441Y48504410D01*
X65325912Y48506563D01*
X65402301Y48430173D01*
X65526111Y48378889D01*
X65571500Y48333500D01*
X65634310Y48333500D01*
X65635000Y48333786D01*
X65635690Y48333500D01*
X65691057Y48333500D01*
X65397556Y48039998D01*
X62682445Y48039998D01*
X62338210Y48384233D01*
X62460690Y48333500D01*
X62523500Y48333500D01*
X62682250Y48492250D01*
X62682250Y48612237D01*
X62683673Y48608802D01*
G36*
X62265000Y51300000D02*
X62334936Y50948411D01*
X62227301Y50903827D01*
X62048673Y50725198D01*
X61952000Y50491809D01*
X61952000Y49952750D01*
X62110750Y49794000D01*
X62682250Y49794000D01*
X62682250Y49814000D01*
X62725750Y49814000D01*
X62745750Y49794000D01*
X62924500Y49794000D01*
X62924500Y49540000D01*
X62745750Y49540000D01*
X62682250Y49476500D01*
X62682250Y49540000D01*
X62110750Y49540000D01*
X61952000Y49381250D01*
X61952000Y48842191D01*
X62002734Y48719709D01*
X60847697Y49874745D01*
X60817000Y49895256D01*
X60817000Y51828000D01*
X62265000Y51828000D01*
X62265000Y51300000D01*
X62265000Y51300000D01*
G37*
X62265000Y51300000D02*
X62334936Y50948411D01*
X62227301Y50903827D01*
X62048673Y50725198D01*
X61952000Y50491809D01*
X61952000Y49952750D01*
X62110750Y49794000D01*
X62682250Y49794000D01*
X62682250Y49814000D01*
X62725750Y49814000D01*
X62745750Y49794000D01*
X62924500Y49794000D01*
X62924500Y49540000D01*
X62745750Y49540000D01*
X62682250Y49476500D01*
X62682250Y49540000D01*
X62110750Y49540000D01*
X61952000Y49381250D01*
X61952000Y48842191D01*
X62002734Y48719709D01*
X60847697Y49874745D01*
X60817000Y49895256D01*
X60817000Y51828000D01*
X62265000Y51828000D01*
X62265000Y51300000D01*
G36*
X68830775Y19736916D02*
X68750340Y19685158D01*
X68630010Y19509049D01*
X68587676Y19300000D01*
X68587676Y18700000D01*
X68624423Y18504706D01*
X68739842Y18325340D01*
X68915951Y18205010D01*
X69078132Y18172167D01*
X69023000Y17895000D01*
X69078340Y17616789D01*
X69235933Y17380933D01*
X69471789Y17223340D01*
X69750000Y17168000D01*
X70892676Y17168000D01*
X70892676Y16355000D01*
X70902676Y16301854D01*
X70902676Y13082000D01*
X68525000Y13082000D01*
X68525000Y13569250D01*
X68366250Y13728000D01*
X66817000Y13728000D01*
X66817000Y13708000D01*
X66563000Y13708000D01*
X66563000Y13728000D01*
X65013750Y13728000D01*
X64943385Y13657635D01*
X64878327Y13814698D01*
X64699699Y13993327D01*
X64636460Y14019522D01*
X64714660Y14069842D01*
X64834990Y14245951D01*
X64855000Y14344762D01*
X64855000Y14140750D01*
X65013750Y13982000D01*
X66563000Y13982000D01*
X66563000Y15531250D01*
X66817000Y15531250D01*
X66817000Y13982000D01*
X68366250Y13982000D01*
X68525000Y14140750D01*
X68525000Y15181309D01*
X68428327Y15414698D01*
X68249699Y15593327D01*
X68016310Y15690000D01*
X66975750Y15690000D01*
X66817000Y15531250D01*
X66563000Y15531250D01*
X66404250Y15690000D01*
X65363690Y15690000D01*
X65130301Y15593327D01*
X64951673Y15414698D01*
X64855000Y15181309D01*
X64855000Y15073642D01*
X64840577Y15150294D01*
X64725158Y15329660D01*
X64549049Y15449990D01*
X64517000Y15456480D01*
X64517000Y15550981D01*
X64535294Y15554423D01*
X64714660Y15669842D01*
X64834990Y15845951D01*
X64877324Y16055000D01*
X64877324Y16555000D01*
X64840577Y16750294D01*
X64725158Y16929660D01*
X64549049Y17049990D01*
X64531077Y17053629D01*
X64535294Y17054423D01*
X64714660Y17169842D01*
X64834990Y17345951D01*
X64877324Y17555000D01*
X64877324Y18055000D01*
X64840577Y18250294D01*
X64725158Y18429660D01*
X64621915Y18500203D01*
X65699710Y19577998D01*
X65838748Y19577998D01*
X65680000Y19419250D01*
X65680000Y19178691D01*
X65776673Y18945302D01*
X65955301Y18766673D01*
X66188690Y18670000D01*
X66404250Y18670000D01*
X66563000Y18828750D01*
X66563000Y19578000D01*
X66817000Y19578000D01*
X66817000Y18828750D01*
X66975750Y18670000D01*
X67191310Y18670000D01*
X67424699Y18766673D01*
X67603327Y18945302D01*
X67700000Y19178691D01*
X67700000Y19419250D01*
X67541250Y19578000D01*
X66817000Y19578000D01*
X66563000Y19578000D01*
X66543000Y19578000D01*
X66543000Y19828000D01*
X67690000Y19828000D01*
X67929943Y19875728D01*
X68083006Y19978001D01*
X68530001Y19978001D01*
X68769944Y20025729D01*
X68801655Y20046917D01*
X68830775Y19736916D01*
X68830775Y19736916D01*
G37*
X68830775Y19736916D02*
X68750340Y19685158D01*
X68630010Y19509049D01*
X68587676Y19300000D01*
X68587676Y18700000D01*
X68624423Y18504706D01*
X68739842Y18325340D01*
X68915951Y18205010D01*
X69078132Y18172167D01*
X69023000Y17895000D01*
X69078340Y17616789D01*
X69235933Y17380933D01*
X69471789Y17223340D01*
X69750000Y17168000D01*
X70892676Y17168000D01*
X70892676Y16355000D01*
X70902676Y16301854D01*
X70902676Y13082000D01*
X68525000Y13082000D01*
X68525000Y13569250D01*
X68366250Y13728000D01*
X66817000Y13728000D01*
X66817000Y13708000D01*
X66563000Y13708000D01*
X66563000Y13728000D01*
X65013750Y13728000D01*
X64943385Y13657635D01*
X64878327Y13814698D01*
X64699699Y13993327D01*
X64636460Y14019522D01*
X64714660Y14069842D01*
X64834990Y14245951D01*
X64855000Y14344762D01*
X64855000Y14140750D01*
X65013750Y13982000D01*
X66563000Y13982000D01*
X66563000Y15531250D01*
X66817000Y15531250D01*
X66817000Y13982000D01*
X68366250Y13982000D01*
X68525000Y14140750D01*
X68525000Y15181309D01*
X68428327Y15414698D01*
X68249699Y15593327D01*
X68016310Y15690000D01*
X66975750Y15690000D01*
X66817000Y15531250D01*
X66563000Y15531250D01*
X66404250Y15690000D01*
X65363690Y15690000D01*
X65130301Y15593327D01*
X64951673Y15414698D01*
X64855000Y15181309D01*
X64855000Y15073642D01*
X64840577Y15150294D01*
X64725158Y15329660D01*
X64549049Y15449990D01*
X64517000Y15456480D01*
X64517000Y15550981D01*
X64535294Y15554423D01*
X64714660Y15669842D01*
X64834990Y15845951D01*
X64877324Y16055000D01*
X64877324Y16555000D01*
X64840577Y16750294D01*
X64725158Y16929660D01*
X64549049Y17049990D01*
X64531077Y17053629D01*
X64535294Y17054423D01*
X64714660Y17169842D01*
X64834990Y17345951D01*
X64877324Y17555000D01*
X64877324Y18055000D01*
X64840577Y18250294D01*
X64725158Y18429660D01*
X64621915Y18500203D01*
X65699710Y19577998D01*
X65838748Y19577998D01*
X65680000Y19419250D01*
X65680000Y19178691D01*
X65776673Y18945302D01*
X65955301Y18766673D01*
X66188690Y18670000D01*
X66404250Y18670000D01*
X66563000Y18828750D01*
X66563000Y19578000D01*
X66817000Y19578000D01*
X66817000Y18828750D01*
X66975750Y18670000D01*
X67191310Y18670000D01*
X67424699Y18766673D01*
X67603327Y18945302D01*
X67700000Y19178691D01*
X67700000Y19419250D01*
X67541250Y19578000D01*
X66817000Y19578000D01*
X66563000Y19578000D01*
X66543000Y19578000D01*
X66543000Y19828000D01*
X67690000Y19828000D01*
X67929943Y19875728D01*
X68083006Y19978001D01*
X68530001Y19978001D01*
X68769944Y20025729D01*
X68801655Y20046917D01*
X68830775Y19736916D01*
G36*
X64017000Y13330000D02*
X64037000Y13330000D01*
X64037000Y13082000D01*
X63817000Y13082000D01*
X63817000Y13352000D01*
X64017000Y13352000D01*
X64017000Y13330000D01*
X64017000Y13330000D01*
G37*
X64017000Y13330000D02*
X64037000Y13330000D01*
X64037000Y13082000D01*
X63817000Y13082000D01*
X63817000Y13352000D01*
X64017000Y13352000D01*
X64017000Y13330000D01*
G36*
X72663000Y21205000D02*
X72741176Y20811984D01*
X72790155Y20738682D01*
X72814423Y20609706D01*
X72856418Y20544444D01*
X72776673Y20464698D01*
X72680000Y20231309D01*
X72680000Y19990750D01*
X72838750Y19832000D01*
X73563000Y19832000D01*
X73563000Y19852000D01*
X73817000Y19852000D01*
X73817000Y19832000D01*
X74541250Y19832000D01*
X74700000Y19990750D01*
X74700000Y20178000D01*
X74863000Y20178000D01*
X74863000Y19955000D01*
X74883083Y19854034D01*
X74574150Y19545100D01*
X74541250Y19578000D01*
X73817000Y19578000D01*
X73817000Y19558000D01*
X73563000Y19558000D01*
X73563000Y19578000D01*
X72838750Y19578000D01*
X72680000Y19419250D01*
X72680000Y19178691D01*
X72776673Y18945302D01*
X72893710Y18828265D01*
X72805223Y18739777D01*
X72605226Y18539780D01*
X72605223Y18539778D01*
X72517843Y18452398D01*
X72514048Y18471479D01*
X72400469Y18641461D01*
X72412324Y18700000D01*
X72412324Y19300000D01*
X72375577Y19495294D01*
X72260158Y19674660D01*
X72153165Y19747765D01*
X72200764Y19902351D01*
X72166895Y20261584D01*
X72249660Y20314842D01*
X72347654Y20458261D01*
X72389068Y20485933D01*
X72546661Y20721789D01*
X72602001Y21000000D01*
X72602001Y21228000D01*
X72667575Y21228000D01*
X72663000Y21205000D01*
X72663000Y21205000D01*
G37*
X72663000Y21205000D02*
X72741176Y20811984D01*
X72790155Y20738682D01*
X72814423Y20609706D01*
X72856418Y20544444D01*
X72776673Y20464698D01*
X72680000Y20231309D01*
X72680000Y19990750D01*
X72838750Y19832000D01*
X73563000Y19832000D01*
X73563000Y19852000D01*
X73817000Y19852000D01*
X73817000Y19832000D01*
X74541250Y19832000D01*
X74700000Y19990750D01*
X74700000Y20178000D01*
X74863000Y20178000D01*
X74863000Y19955000D01*
X74883083Y19854034D01*
X74574150Y19545100D01*
X74541250Y19578000D01*
X73817000Y19578000D01*
X73817000Y19558000D01*
X73563000Y19558000D01*
X73563000Y19578000D01*
X72838750Y19578000D01*
X72680000Y19419250D01*
X72680000Y19178691D01*
X72776673Y18945302D01*
X72893710Y18828265D01*
X72805223Y18739777D01*
X72605226Y18539780D01*
X72605223Y18539778D01*
X72517843Y18452398D01*
X72514048Y18471479D01*
X72400469Y18641461D01*
X72412324Y18700000D01*
X72412324Y19300000D01*
X72375577Y19495294D01*
X72260158Y19674660D01*
X72153165Y19747765D01*
X72200764Y19902351D01*
X72166895Y20261584D01*
X72249660Y20314842D01*
X72347654Y20458261D01*
X72389068Y20485933D01*
X72546661Y20721789D01*
X72602001Y21000000D01*
X72602001Y21228000D01*
X72667575Y21228000D01*
X72663000Y21205000D01*
G36*
X71302676Y23710074D02*
X71023801Y23431199D01*
X70801176Y23098016D01*
X70723000Y22705000D01*
X70747017Y22584257D01*
X70740274Y22574166D01*
X70559070Y22755688D01*
X70255222Y22881856D01*
X69926221Y22882143D01*
X69748142Y22808562D01*
X69666199Y22931199D01*
X69246182Y23351216D01*
X69277324Y23505000D01*
X69277324Y26828000D01*
X71302676Y26828000D01*
X71302676Y23710074D01*
X71302676Y23710074D01*
G37*
X71302676Y23710074D02*
X71023801Y23431199D01*
X70801176Y23098016D01*
X70723000Y22705000D01*
X70747017Y22584257D01*
X70740274Y22574166D01*
X70559070Y22755688D01*
X70255222Y22881856D01*
X69926221Y22882143D01*
X69748142Y22808562D01*
X69666199Y22931199D01*
X69246182Y23351216D01*
X69277324Y23505000D01*
X69277324Y26828000D01*
X71302676Y26828000D01*
X71302676Y23710074D01*
M02*
