G04 #@! TF.FileFunction,Legend,Top*
%FSLAX46Y46*%
G04 Gerber Fmt 4.6, Leading zero omitted, Abs format (unit mm)*
G04 Created by KiCad (PCBNEW 4.0.7) date 2018 June 13, Wednesday 14:09:15*
%MOMM*%
%LPD*%
G01*
G04 APERTURE LIST*
%ADD10C,0.050000*%
%ADD11C,0.250000*%
%ADD12C,0.300000*%
%ADD13C,0.150000*%
%ADD14C,0.120000*%
%ADD15C,0.127000*%
%ADD16C,0.200000*%
%ADD17C,0.066040*%
%ADD18C,0.152400*%
%ADD19C,0.101600*%
%ADD20C,0.121920*%
%ADD21C,0.182880*%
G04 APERTURE END LIST*
D10*
D11*
X4007619Y22302620D02*
X4007619Y21683572D01*
X3626667Y22016906D01*
X3626667Y21874048D01*
X3579048Y21778810D01*
X3531429Y21731191D01*
X3436190Y21683572D01*
X3198095Y21683572D01*
X3102857Y21731191D01*
X3055238Y21778810D01*
X3007619Y21874048D01*
X3007619Y22159763D01*
X3055238Y22255001D01*
X3102857Y22302620D01*
X4007619Y21397858D02*
X3007619Y21064525D01*
X4007619Y20731191D01*
X4007619Y20493096D02*
X4007619Y19874048D01*
X3626667Y20207382D01*
X3626667Y20064524D01*
X3579048Y19969286D01*
X3531429Y19921667D01*
X3436190Y19874048D01*
X3198095Y19874048D01*
X3102857Y19921667D01*
X3055238Y19969286D01*
X3007619Y20064524D01*
X3007619Y20350239D01*
X3055238Y20445477D01*
X3102857Y20493096D01*
X4007619Y18826429D02*
X3007619Y18493096D01*
X4007619Y18159762D01*
X3293333Y17874048D02*
X3293333Y17397857D01*
X3007619Y17969286D02*
X4007619Y17635953D01*
X3007619Y17302619D01*
X3007619Y16207381D02*
X3674286Y16207381D01*
X3483810Y16207381D02*
X3579048Y16159762D01*
X3626667Y16112143D01*
X3674286Y16016905D01*
X3674286Y15921666D01*
X3055238Y15207380D02*
X3007619Y15302618D01*
X3007619Y15493095D01*
X3055238Y15588333D01*
X3150476Y15635952D01*
X3531429Y15635952D01*
X3626667Y15588333D01*
X3674286Y15493095D01*
X3674286Y15302618D01*
X3626667Y15207380D01*
X3531429Y15159761D01*
X3436190Y15159761D01*
X3340952Y15635952D01*
X3674286Y14302618D02*
X2864762Y14302618D01*
X2769524Y14350237D01*
X2721905Y14397856D01*
X2674286Y14493095D01*
X2674286Y14635952D01*
X2721905Y14731190D01*
X3055238Y14302618D02*
X3007619Y14397856D01*
X3007619Y14588333D01*
X3055238Y14683571D01*
X3102857Y14731190D01*
X3198095Y14778809D01*
X3483810Y14778809D01*
X3579048Y14731190D01*
X3626667Y14683571D01*
X3674286Y14588333D01*
X3674286Y14397856D01*
X3626667Y14302618D01*
X60757619Y29350238D02*
X59757619Y29016905D01*
X60757619Y28683571D01*
X59852857Y27778809D02*
X59805238Y27826428D01*
X59757619Y27969285D01*
X59757619Y28064523D01*
X59805238Y28207381D01*
X59900476Y28302619D01*
X59995714Y28350238D01*
X60186190Y28397857D01*
X60329048Y28397857D01*
X60519524Y28350238D01*
X60614762Y28302619D01*
X60710000Y28207381D01*
X60757619Y28064523D01*
X60757619Y27969285D01*
X60710000Y27826428D01*
X60662381Y27778809D01*
X59852857Y26778809D02*
X59805238Y26826428D01*
X59757619Y26969285D01*
X59757619Y27064523D01*
X59805238Y27207381D01*
X59900476Y27302619D01*
X59995714Y27350238D01*
X60186190Y27397857D01*
X60329048Y27397857D01*
X60519524Y27350238D01*
X60614762Y27302619D01*
X60710000Y27207381D01*
X60757619Y27064523D01*
X60757619Y26969285D01*
X60710000Y26826428D01*
X60662381Y26778809D01*
X60757619Y25683571D02*
X60757619Y25064523D01*
X60376667Y25397857D01*
X60376667Y25254999D01*
X60329048Y25159761D01*
X60281429Y25112142D01*
X60186190Y25064523D01*
X59948095Y25064523D01*
X59852857Y25112142D01*
X59805238Y25159761D01*
X59757619Y25254999D01*
X59757619Y25540714D01*
X59805238Y25635952D01*
X59852857Y25683571D01*
X60757619Y24778809D02*
X59757619Y24445476D01*
X60757619Y24112142D01*
X60757619Y23874047D02*
X60757619Y23254999D01*
X60376667Y23588333D01*
X60376667Y23445475D01*
X60329048Y23350237D01*
X60281429Y23302618D01*
X60186190Y23254999D01*
X59948095Y23254999D01*
X59852857Y23302618D01*
X59805238Y23350237D01*
X59757619Y23445475D01*
X59757619Y23731190D01*
X59805238Y23826428D01*
X59852857Y23874047D01*
X-87620Y52802619D02*
X-87620Y53802619D01*
X-87620Y53421667D02*
X7618Y53469286D01*
X198095Y53469286D01*
X293333Y53421667D01*
X340952Y53374048D01*
X388571Y53278810D01*
X388571Y52993095D01*
X340952Y52897857D01*
X293333Y52850238D01*
X198095Y52802619D01*
X7618Y52802619D01*
X-87620Y52850238D01*
X1245714Y52802619D02*
X1245714Y53326429D01*
X1198095Y53421667D01*
X1102857Y53469286D01*
X912380Y53469286D01*
X817142Y53421667D01*
X1245714Y52850238D02*
X1150476Y52802619D01*
X912380Y52802619D01*
X817142Y52850238D01*
X769523Y52945476D01*
X769523Y53040714D01*
X817142Y53135952D01*
X912380Y53183571D01*
X1150476Y53183571D01*
X1245714Y53231190D01*
X1579047Y53469286D02*
X1959999Y53469286D01*
X1721904Y53802619D02*
X1721904Y52945476D01*
X1769523Y52850238D01*
X1864761Y52802619D01*
X1959999Y52802619D01*
X2912381Y53802619D02*
X3245714Y52802619D01*
X3579048Y53802619D01*
X4483810Y52802619D02*
X4150476Y53278810D01*
X3912381Y52802619D02*
X3912381Y53802619D01*
X4293334Y53802619D01*
X4388572Y53755000D01*
X4436191Y53707381D01*
X4483810Y53612143D01*
X4483810Y53469286D01*
X4436191Y53374048D01*
X4388572Y53326429D01*
X4293334Y53278810D01*
X3912381Y53278810D01*
X6150477Y53802619D02*
X5674286Y53802619D01*
X5626667Y53326429D01*
X5674286Y53374048D01*
X5769524Y53421667D01*
X6007620Y53421667D01*
X6102858Y53374048D01*
X6150477Y53326429D01*
X6198096Y53231190D01*
X6198096Y52993095D01*
X6150477Y52897857D01*
X6102858Y52850238D01*
X6007620Y52802619D01*
X5769524Y52802619D01*
X5674286Y52850238D01*
X5626667Y52897857D01*
X6483810Y53802619D02*
X6817143Y52802619D01*
X7150477Y53802619D01*
X16805236Y52552619D02*
X16805236Y53552619D01*
X16805236Y52600238D02*
X16709998Y52552619D01*
X16519521Y52552619D01*
X16424283Y52600238D01*
X16376664Y52647857D01*
X16329045Y52743095D01*
X16329045Y53028810D01*
X16376664Y53124048D01*
X16424283Y53171667D01*
X16519521Y53219286D01*
X16709998Y53219286D01*
X16805236Y53171667D01*
X17138569Y53219286D02*
X17519521Y53219286D01*
X17281426Y53552619D02*
X17281426Y52695476D01*
X17329045Y52600238D01*
X17424283Y52552619D01*
X17519521Y52552619D01*
X17852855Y52552619D02*
X17852855Y53219286D01*
X17852855Y53028810D02*
X17900474Y53124048D01*
X17948093Y53171667D01*
X18043331Y53219286D01*
X18138570Y53219286D01*
X19090951Y53219286D02*
X19471903Y53219286D01*
X19233808Y53552619D02*
X19233808Y52695476D01*
X19281427Y52600238D01*
X19376665Y52552619D01*
X19471903Y52552619D01*
X19709999Y52552619D02*
X20233809Y53219286D01*
X19709999Y53219286D02*
X20233809Y52552619D01*
X21376666Y52552619D02*
X21376666Y53219286D01*
X21376666Y53028810D02*
X21424285Y53124048D01*
X21471904Y53171667D01*
X21567142Y53219286D01*
X21662381Y53219286D01*
X21900476Y52552619D02*
X22424286Y53219286D01*
X21900476Y53219286D02*
X22424286Y52552619D01*
X23471905Y53219286D02*
X23710000Y52552619D01*
X23948096Y53219286D01*
X24757620Y52600238D02*
X24662382Y52552619D01*
X24471905Y52552619D01*
X24376667Y52600238D01*
X24329048Y52647857D01*
X24281429Y52743095D01*
X24281429Y53028810D01*
X24329048Y53124048D01*
X24376667Y53171667D01*
X24471905Y53219286D01*
X24662382Y53219286D01*
X24757620Y53171667D01*
X25614763Y52600238D02*
X25519525Y52552619D01*
X25329048Y52552619D01*
X25233810Y52600238D01*
X25186191Y52647857D01*
X25138572Y52743095D01*
X25138572Y53028810D01*
X25186191Y53124048D01*
X25233810Y53171667D01*
X25329048Y53219286D01*
X25519525Y53219286D01*
X25614763Y53171667D01*
X27233811Y52600238D02*
X27138573Y52552619D01*
X26948096Y52552619D01*
X26852858Y52600238D01*
X26805239Y52647857D01*
X26757620Y52743095D01*
X26757620Y53028810D01*
X26805239Y53124048D01*
X26852858Y53171667D01*
X26948096Y53219286D01*
X27138573Y53219286D01*
X27233811Y53171667D01*
X27519525Y53219286D02*
X27900477Y53219286D01*
X27662382Y53552619D02*
X27662382Y52695476D01*
X27710001Y52600238D01*
X27805239Y52552619D01*
X27900477Y52552619D01*
X28186192Y52600238D02*
X28281430Y52552619D01*
X28471906Y52552619D01*
X28567145Y52600238D01*
X28614764Y52695476D01*
X28614764Y52743095D01*
X28567145Y52838333D01*
X28471906Y52885952D01*
X28329049Y52885952D01*
X28233811Y52933571D01*
X28186192Y53028810D01*
X28186192Y53076429D01*
X28233811Y53171667D01*
X28329049Y53219286D01*
X28471906Y53219286D01*
X28567145Y53171667D01*
X30233812Y53219286D02*
X30233812Y52409762D01*
X30186193Y52314524D01*
X30138574Y52266905D01*
X30043335Y52219286D01*
X29900478Y52219286D01*
X29805240Y52266905D01*
X30233812Y52600238D02*
X30138574Y52552619D01*
X29948097Y52552619D01*
X29852859Y52600238D01*
X29805240Y52647857D01*
X29757621Y52743095D01*
X29757621Y53028810D01*
X29805240Y53124048D01*
X29852859Y53171667D01*
X29948097Y53219286D01*
X30138574Y53219286D01*
X30233812Y53171667D01*
X30710002Y53219286D02*
X30710002Y52552619D01*
X30710002Y53124048D02*
X30757621Y53171667D01*
X30852859Y53219286D01*
X30995717Y53219286D01*
X31090955Y53171667D01*
X31138574Y53076429D01*
X31138574Y52552619D01*
X32043336Y52552619D02*
X32043336Y53552619D01*
X32043336Y52600238D02*
X31948098Y52552619D01*
X31757621Y52552619D01*
X31662383Y52600238D01*
X31614764Y52647857D01*
X31567145Y52743095D01*
X31567145Y53028810D01*
X31614764Y53124048D01*
X31662383Y53171667D01*
X31757621Y53219286D01*
X31948098Y53219286D01*
X32043336Y53171667D01*
X48019521Y-1947381D02*
X48019521Y-1280714D01*
X48019521Y-1471190D02*
X48067140Y-1375952D01*
X48114759Y-1328333D01*
X48209997Y-1280714D01*
X48305236Y-1280714D01*
X48590950Y-1899762D02*
X48686188Y-1947381D01*
X48876664Y-1947381D01*
X48971903Y-1899762D01*
X49019522Y-1804524D01*
X49019522Y-1756905D01*
X48971903Y-1661667D01*
X48876664Y-1614048D01*
X48733807Y-1614048D01*
X48638569Y-1566429D01*
X48590950Y-1471190D01*
X48590950Y-1423571D01*
X48638569Y-1328333D01*
X48733807Y-1280714D01*
X48876664Y-1280714D01*
X48971903Y-1328333D01*
X49305236Y-1280714D02*
X49686188Y-1280714D01*
X49448093Y-947381D02*
X49448093Y-1804524D01*
X49495712Y-1899762D01*
X49590950Y-1947381D01*
X49686188Y-1947381D01*
X50638570Y-1280714D02*
X51019522Y-1280714D01*
X50781427Y-947381D02*
X50781427Y-1804524D01*
X50829046Y-1899762D01*
X50924284Y-1947381D01*
X51019522Y-1947381D01*
X51305237Y-1899762D02*
X51400475Y-1947381D01*
X51590951Y-1947381D01*
X51686190Y-1899762D01*
X51733809Y-1804524D01*
X51733809Y-1756905D01*
X51686190Y-1661667D01*
X51590951Y-1614048D01*
X51448094Y-1614048D01*
X51352856Y-1566429D01*
X51305237Y-1471190D01*
X51305237Y-1423571D01*
X51352856Y-1328333D01*
X51448094Y-1280714D01*
X51590951Y-1280714D01*
X51686190Y-1328333D01*
X52019523Y-1280714D02*
X52400475Y-1280714D01*
X52162380Y-947381D02*
X52162380Y-1804524D01*
X52209999Y-1899762D01*
X52305237Y-1947381D01*
X52400475Y-1947381D01*
X53400476Y-947381D02*
X54019524Y-947381D01*
X53686190Y-1328333D01*
X53829048Y-1328333D01*
X53924286Y-1375952D01*
X53971905Y-1423571D01*
X54019524Y-1518810D01*
X54019524Y-1756905D01*
X53971905Y-1852143D01*
X53924286Y-1899762D01*
X53829048Y-1947381D01*
X53543333Y-1947381D01*
X53448095Y-1899762D01*
X53400476Y-1852143D01*
X54305238Y-947381D02*
X54638571Y-1947381D01*
X54971905Y-947381D01*
X56590953Y-995000D02*
X56495715Y-947381D01*
X56352858Y-947381D01*
X56210000Y-995000D01*
X56114762Y-1090238D01*
X56067143Y-1185476D01*
X56019524Y-1375952D01*
X56019524Y-1518810D01*
X56067143Y-1709286D01*
X56114762Y-1804524D01*
X56210000Y-1899762D01*
X56352858Y-1947381D01*
X56448096Y-1947381D01*
X56590953Y-1899762D01*
X56638572Y-1852143D01*
X56638572Y-1518810D01*
X56448096Y-1518810D01*
X58448096Y-1280714D02*
X58829048Y-1280714D01*
X58590953Y-947381D02*
X58590953Y-1804524D01*
X58638572Y-1899762D01*
X58733810Y-1947381D01*
X58829048Y-1947381D01*
X59067144Y-1947381D02*
X59590954Y-1280714D01*
X59067144Y-1280714D02*
X59590954Y-1947381D01*
X60733811Y-1947381D02*
X60733811Y-1280714D01*
X60733811Y-1471190D02*
X60781430Y-1375952D01*
X60829049Y-1328333D01*
X60924287Y-1280714D01*
X61019526Y-1280714D01*
X61257621Y-1947381D02*
X61781431Y-1280714D01*
X61257621Y-1280714D02*
X61781431Y-1947381D01*
X63067145Y-1947381D02*
X62971907Y-1899762D01*
X62924288Y-1804524D01*
X62924288Y-947381D01*
X63590955Y-1947381D02*
X63495717Y-1899762D01*
X63448098Y-1852143D01*
X63400479Y-1756905D01*
X63400479Y-1471190D01*
X63448098Y-1375952D01*
X63495717Y-1328333D01*
X63590955Y-1280714D01*
X63733813Y-1280714D01*
X63829051Y-1328333D01*
X63876670Y-1375952D01*
X63924289Y-1471190D01*
X63924289Y-1756905D01*
X63876670Y-1852143D01*
X63829051Y-1899762D01*
X63733813Y-1947381D01*
X63590955Y-1947381D01*
X64352860Y-1947381D02*
X64352860Y-1280714D01*
X64352860Y-1471190D02*
X64400479Y-1375952D01*
X64448098Y-1328333D01*
X64543336Y-1280714D01*
X64638575Y-1280714D01*
X65400480Y-1947381D02*
X65400480Y-1423571D01*
X65352861Y-1328333D01*
X65257623Y-1280714D01*
X65067146Y-1280714D01*
X64971908Y-1328333D01*
X65400480Y-1899762D02*
X65305242Y-1947381D01*
X65067146Y-1947381D01*
X64971908Y-1899762D01*
X64924289Y-1804524D01*
X64924289Y-1709286D01*
X64971908Y-1614048D01*
X65067146Y-1566429D01*
X65305242Y-1566429D01*
X65400480Y-1518810D01*
D12*
X36210000Y48969286D02*
X36281428Y48897857D01*
X36210000Y48826429D01*
X36138571Y48897857D01*
X36210000Y48969286D01*
X36210000Y48826429D01*
X70890000Y9919286D02*
X70961428Y9847857D01*
X70890000Y9776429D01*
X70818571Y9847857D01*
X70890000Y9919286D01*
X70890000Y9776429D01*
X23210000Y11969286D02*
X23281428Y11897857D01*
X23210000Y11826429D01*
X23138571Y11897857D01*
X23210000Y11969286D01*
X23210000Y11826429D01*
X68210000Y48969286D02*
X68281428Y48897857D01*
X68210000Y48826429D01*
X68138571Y48897857D01*
X68210000Y48969286D01*
X68210000Y48826429D01*
X72710000Y21469286D02*
X72781428Y21397857D01*
X72710000Y21326429D01*
X72638571Y21397857D01*
X72710000Y21469286D01*
X72710000Y21326429D01*
D13*
X40365000Y3955000D02*
X40365000Y2955000D01*
X39015000Y2955000D02*
X39015000Y3955000D01*
X74290000Y20805000D02*
X74290000Y20105000D01*
X73090000Y20105000D02*
X73090000Y20805000D01*
X-2960000Y21855000D02*
X-3660000Y21855000D01*
X-3660000Y23055000D02*
X-2960000Y23055000D01*
X64100000Y40805000D02*
X64100000Y40105000D01*
X62900000Y40105000D02*
X62900000Y40805000D01*
X-2960000Y13855000D02*
X-3660000Y13855000D01*
X-3660000Y15055000D02*
X-2960000Y15055000D01*
X67290000Y20805000D02*
X67290000Y20105000D01*
X66090000Y20105000D02*
X66090000Y20805000D01*
X60100000Y41350000D02*
X60100000Y40650000D01*
X58900000Y40650000D02*
X58900000Y41350000D01*
X62100000Y41350000D02*
X62100000Y40650000D01*
X60900000Y40650000D02*
X60900000Y41350000D01*
X54400000Y22650000D02*
X54400000Y23350000D01*
X55600000Y23350000D02*
X55600000Y22650000D01*
X57900000Y20600000D02*
X58600000Y20600000D01*
X58600000Y19400000D02*
X57900000Y19400000D01*
X57900000Y18600000D02*
X58600000Y18600000D01*
X58600000Y17400000D02*
X57900000Y17400000D01*
X55850000Y11355000D02*
X55150000Y11355000D01*
X55150000Y12555000D02*
X55850000Y12555000D01*
X55850000Y13105000D02*
X55150000Y13105000D01*
X55150000Y14305000D02*
X55850000Y14305000D01*
X42290000Y305000D02*
X42290000Y-395000D01*
X41090000Y-395000D02*
X41090000Y305000D01*
X40290000Y305000D02*
X40290000Y-395000D01*
X39090000Y-395000D02*
X39090000Y305000D01*
X71900000Y32350000D02*
X72600000Y32350000D01*
X72600000Y31150000D02*
X71900000Y31150000D01*
X20040000Y29460000D02*
X19340000Y29460000D01*
X19340000Y30660000D02*
X20040000Y30660000D01*
X24100000Y24695000D02*
X24100000Y23995000D01*
X22900000Y23995000D02*
X22900000Y24695000D01*
X16480000Y24695000D02*
X16480000Y23995000D01*
X15280000Y23995000D02*
X15280000Y24695000D01*
X19340000Y20500000D02*
X20040000Y20500000D01*
X20040000Y19300000D02*
X19340000Y19300000D01*
X19340000Y9055000D02*
X20040000Y9055000D01*
X20040000Y7855000D02*
X19340000Y7855000D01*
X12040000Y9855000D02*
X11340000Y9855000D01*
X11340000Y11055000D02*
X12040000Y11055000D01*
X11340000Y13055000D02*
X12040000Y13055000D01*
X12040000Y11855000D02*
X11340000Y11855000D01*
X11340000Y15055000D02*
X12040000Y15055000D01*
X12040000Y13855000D02*
X11340000Y13855000D01*
X11340000Y17055000D02*
X12040000Y17055000D01*
X12040000Y15855000D02*
X11340000Y15855000D01*
X61480000Y26520000D02*
X61480000Y29060000D01*
X61200000Y23700000D02*
X61200000Y25250000D01*
X61480000Y26520000D02*
X64020000Y26520000D01*
X64300000Y25250000D02*
X64300000Y23700000D01*
X64300000Y23700000D02*
X61200000Y23700000D01*
X64020000Y26520000D02*
X64020000Y29060000D01*
X64020000Y29060000D02*
X61480000Y29060000D01*
D14*
X-180000Y56785000D02*
X-180000Y54125000D01*
X4960000Y56785000D02*
X-180000Y56785000D01*
X4960000Y54125000D02*
X-180000Y54125000D01*
X4960000Y56785000D02*
X4960000Y54125000D01*
X6230000Y56785000D02*
X7560000Y56785000D01*
X7560000Y56785000D02*
X7560000Y55455000D01*
D15*
X56865000Y22635000D02*
X59659000Y22635000D01*
X59659000Y22635000D02*
X59659000Y21365000D01*
X59659000Y21365000D02*
X56865000Y21365000D01*
X56865000Y21365000D02*
X56865000Y22635000D01*
D14*
X60330000Y1660000D02*
X57730000Y1660000D01*
X57730000Y1660000D02*
X57730000Y-1000000D01*
X57730000Y-1000000D02*
X60330000Y-1000000D01*
X60330000Y-1000000D02*
X60330000Y1660000D01*
X61600000Y1660000D02*
X62930000Y1660000D01*
X62930000Y1660000D02*
X62930000Y330000D01*
X50170000Y-1000000D02*
X52770000Y-1000000D01*
X52770000Y-1000000D02*
X52770000Y1660000D01*
X52770000Y1660000D02*
X50170000Y1660000D01*
X50170000Y1660000D02*
X50170000Y-1000000D01*
X48900000Y-1000000D02*
X47570000Y-1000000D01*
X47570000Y-1000000D02*
X47570000Y330000D01*
D13*
X64565000Y17555000D02*
X64565000Y16555000D01*
X63215000Y16555000D02*
X63215000Y17555000D01*
X64565000Y14455000D02*
X64565000Y13455000D01*
X63215000Y13455000D02*
X63215000Y14455000D01*
X72325000Y37500000D02*
X72325000Y38500000D01*
X73675000Y38500000D02*
X73675000Y37500000D01*
X70325000Y40500000D02*
X70325000Y41500000D01*
X71675000Y41500000D02*
X71675000Y40500000D01*
X71675000Y38500000D02*
X71675000Y37500000D01*
X70325000Y37500000D02*
X70325000Y38500000D01*
X49365000Y3955000D02*
X49365000Y2955000D01*
X48015000Y2955000D02*
X48015000Y3955000D01*
X42365000Y3955000D02*
X42365000Y2955000D01*
X41015000Y2955000D02*
X41015000Y3955000D01*
X38365000Y3955000D02*
X38365000Y2955000D01*
X37015000Y2955000D02*
X37015000Y3955000D01*
X76165000Y44655000D02*
X76165000Y43655000D01*
X74815000Y43655000D02*
X74815000Y44655000D01*
X74815000Y40455000D02*
X74815000Y41455000D01*
X76165000Y41455000D02*
X76165000Y40455000D01*
X66250000Y31075000D02*
X65250000Y31075000D01*
X65250000Y32425000D02*
X66250000Y32425000D01*
X69500000Y31075000D02*
X68500000Y31075000D01*
X68500000Y32425000D02*
X69500000Y32425000D01*
X33190000Y46780000D02*
X32190000Y46780000D01*
X32190000Y48130000D02*
X33190000Y48130000D01*
X61535000Y4005000D02*
X61535000Y5005000D01*
X62885000Y5005000D02*
X62885000Y4005000D01*
X27905000Y23845000D02*
X27905000Y24845000D01*
X29255000Y24845000D02*
X29255000Y23845000D01*
X10125000Y23845000D02*
X10125000Y24845000D01*
X11475000Y24845000D02*
X11475000Y23845000D01*
X19095000Y24845000D02*
X19095000Y23845000D01*
X17745000Y23845000D02*
X17745000Y24845000D01*
X21635000Y24845000D02*
X21635000Y23845000D01*
X20285000Y23845000D02*
X20285000Y24845000D01*
X26715000Y24845000D02*
X26715000Y23845000D01*
X25365000Y23845000D02*
X25365000Y24845000D01*
X14015000Y24845000D02*
X14015000Y23845000D01*
X12665000Y23845000D02*
X12665000Y24845000D01*
X14015000Y21035000D02*
X14015000Y20035000D01*
X12665000Y20035000D02*
X12665000Y21035000D01*
X26715000Y21035000D02*
X26715000Y20035000D01*
X25365000Y20035000D02*
X25365000Y21035000D01*
X8440000Y11780000D02*
X7440000Y11780000D01*
X7440000Y13130000D02*
X8440000Y13130000D01*
X25365000Y5955000D02*
X25365000Y4955000D01*
X24015000Y4955000D02*
X24015000Y5955000D01*
X17365000Y5955000D02*
X17365000Y4955000D01*
X16015000Y4955000D02*
X16015000Y5955000D01*
X15083571Y5955000D02*
X15083571Y4955000D01*
X13733571Y4955000D02*
X13733571Y5955000D01*
X1175000Y47000000D02*
X1175000Y46000000D01*
X-175000Y46000000D02*
X-175000Y47000000D01*
X8675000Y40000000D02*
X8675000Y39000000D01*
X7325000Y39000000D02*
X7325000Y40000000D01*
X4825000Y39000000D02*
X4825000Y40000000D01*
X6175000Y40000000D02*
X6175000Y39000000D01*
X8675000Y36500000D02*
X8675000Y35500000D01*
X7325000Y35500000D02*
X7325000Y36500000D01*
X4825000Y35500000D02*
X4825000Y36500000D01*
X6175000Y36500000D02*
X6175000Y35500000D01*
D15*
X-1860000Y17655000D02*
X-1860000Y19255000D01*
X-1860000Y19255000D02*
X-4760000Y19255000D01*
X-4760000Y19255000D02*
X-4760000Y17655000D01*
X-4760000Y17655000D02*
X-1860000Y17655000D01*
X-2040000Y18836000D02*
G75*
G03X-2040000Y18836000I-254000J0D01*
G01*
X44925000Y21075000D02*
X52075000Y21075000D01*
X52075000Y21075000D02*
X52075000Y13925000D01*
X52075000Y13925000D02*
X44925000Y13925000D01*
X44925000Y13925000D02*
X44925000Y21075000D01*
D16*
X52350000Y21250000D02*
G75*
G03X52350000Y21250000I-100000J0D01*
G01*
D13*
X21890000Y18180000D02*
X17490000Y18180000D01*
X23465000Y12655000D02*
X17490000Y12655000D01*
D17*
X54400560Y19998220D02*
X54400560Y18001780D01*
X54400560Y18001780D02*
X55599440Y18001780D01*
X55599440Y19998220D02*
X55599440Y18001780D01*
X54400560Y19998220D02*
X55599440Y19998220D01*
D15*
X55599440Y19198120D02*
X55599440Y18801880D01*
X55599440Y19198120D02*
X55599440Y18801880D01*
X54400560Y19198120D02*
X54400560Y18801880D01*
D13*
X1960000Y17185000D02*
X1960000Y22265000D01*
X1960000Y22265000D02*
X-580000Y22265000D01*
X-580000Y22265000D02*
X-580000Y17185000D01*
X-860000Y14365000D02*
X-860000Y15915000D01*
X-580000Y17185000D02*
X1960000Y17185000D01*
X2240000Y15915000D02*
X2240000Y14365000D01*
X2240000Y14365000D02*
X-860000Y14365000D01*
D14*
X55250000Y-1000000D02*
X57850000Y-1000000D01*
X57850000Y-1000000D02*
X57850000Y1660000D01*
X57850000Y1660000D02*
X55250000Y1660000D01*
X55250000Y1660000D02*
X55250000Y-1000000D01*
X53980000Y-1000000D02*
X52650000Y-1000000D01*
X52650000Y-1000000D02*
X52650000Y330000D01*
D13*
X66400000Y37650000D02*
X66400000Y38350000D01*
X67600000Y38350000D02*
X67600000Y37650000D01*
X68350000Y40400000D02*
X67650000Y40400000D01*
X67650000Y41600000D02*
X68350000Y41600000D01*
X72400000Y40650000D02*
X72400000Y41350000D01*
X73600000Y41350000D02*
X73600000Y40650000D01*
X74290000Y23355000D02*
X66290000Y23355000D01*
X74290000Y29555000D02*
X66290000Y29555000D01*
X66000000Y52150000D02*
X63000000Y52150000D01*
X66000000Y55350000D02*
X63000000Y55350000D01*
X69675000Y38500000D02*
X69675000Y37500000D01*
X68325000Y37500000D02*
X68325000Y38500000D01*
D17*
X67463800Y48955800D02*
X62536200Y48955800D01*
X62536200Y48955800D02*
X62536200Y45044200D01*
X67463800Y45044200D02*
X62536200Y45044200D01*
X67463800Y48955800D02*
X67463800Y45044200D01*
D15*
X62536200Y45044200D02*
X62536200Y48955800D01*
X66826260Y48955800D02*
X67463800Y48318260D01*
X67463800Y48318260D02*
X67463800Y45044200D01*
D10*
X68136526Y48778000D02*
G75*
G03X68136526Y48778000I-215526J0D01*
G01*
D14*
X62810000Y-1000000D02*
X65470000Y-1000000D01*
X62810000Y-940000D02*
X62810000Y-1000000D01*
X65470000Y-940000D02*
X65470000Y-1000000D01*
X62810000Y-940000D02*
X65470000Y-940000D01*
X62810000Y330000D02*
X62810000Y1660000D01*
X62810000Y1660000D02*
X64140000Y1660000D01*
D13*
X15325000Y32100000D02*
X15325000Y33100000D01*
X16675000Y33100000D02*
X16675000Y32100000D01*
X17825000Y32100000D02*
X17825000Y33100000D01*
X19175000Y33100000D02*
X19175000Y32100000D01*
X20325000Y32100000D02*
X20325000Y33100000D01*
X21675000Y33100000D02*
X21675000Y32100000D01*
X22825000Y32100000D02*
X22825000Y33100000D01*
X24175000Y33100000D02*
X24175000Y32100000D01*
D14*
X31640000Y54170000D02*
X31640000Y56830000D01*
X18880000Y54170000D02*
X31640000Y54170000D01*
X18880000Y56830000D02*
X31640000Y56830000D01*
X18880000Y54170000D02*
X18880000Y56830000D01*
X17610000Y54170000D02*
X16280000Y54170000D01*
X16280000Y54170000D02*
X16280000Y55500000D01*
D13*
X33190000Y42780000D02*
X32190000Y42780000D01*
X32190000Y44130000D02*
X33190000Y44130000D01*
X53765000Y29655000D02*
X53765000Y28655000D01*
X52415000Y28655000D02*
X52415000Y29655000D01*
X49665000Y29645000D02*
X49665000Y28645000D01*
X48315000Y28645000D02*
X48315000Y29645000D01*
X51760000Y29645000D02*
X51760000Y28645000D01*
X50410000Y28645000D02*
X50410000Y29645000D01*
D14*
X28890000Y14355000D02*
X27840000Y14355000D01*
X27840000Y14355000D02*
X27840000Y16205000D01*
X30890000Y14355000D02*
X29890000Y14355000D01*
X30900000Y14375000D02*
X30900000Y16805000D01*
X7490000Y22755000D02*
X8540000Y22755000D01*
X8540000Y22755000D02*
X8540000Y20905000D01*
X5490000Y22755000D02*
X6490000Y22755000D01*
X5480000Y22735000D02*
X5480000Y20305000D01*
D18*
X36674000Y32596000D02*
X36674000Y31834000D01*
X36674000Y31834000D02*
X52676000Y31834000D01*
X52676000Y31834000D02*
X52676000Y32596000D01*
D14*
X28890000Y9275000D02*
X27840000Y9275000D01*
X27840000Y9275000D02*
X27840000Y11125000D01*
X30890000Y9275000D02*
X29890000Y9275000D01*
X30900000Y9295000D02*
X30900000Y11725000D01*
X7490000Y17675000D02*
X8540000Y17675000D01*
X8540000Y17675000D02*
X8540000Y15825000D01*
X5490000Y17675000D02*
X6490000Y17675000D01*
X5480000Y17655000D02*
X5480000Y15225000D01*
D13*
X41829000Y28300000D02*
X41829000Y30840000D01*
X40051000Y30840000D02*
X40051000Y28300000D01*
X40051000Y30840000D02*
X41829000Y30840000D01*
X41829000Y28300000D02*
X40051000Y28300000D01*
D14*
X70890000Y10455000D02*
X71290000Y10455000D01*
X70890000Y17055000D02*
X70890000Y10455000D01*
X76490000Y16655000D02*
X76490000Y11455000D01*
D15*
X72250000Y18750000D02*
X72250000Y21000000D01*
X72250000Y21000000D02*
X72250000Y21250000D01*
X72250000Y21250000D02*
X72020000Y21250000D01*
X68980000Y21250000D02*
X68750000Y21250000D01*
X68730000Y21250000D02*
X68730000Y18750000D01*
X68730000Y18750000D02*
X68960000Y18750000D01*
X72020000Y18750000D02*
X72250000Y18750000D01*
X72250000Y21000000D02*
X72000000Y21000000D01*
X72000000Y21250000D02*
X72000000Y21000000D01*
X72250000Y21100000D02*
X72000000Y21100000D01*
X72250000Y21200000D02*
X72000000Y21200000D01*
D14*
X37970000Y-545000D02*
X37970000Y-1595000D01*
X37970000Y-1595000D02*
X36120000Y-1595000D01*
X37970000Y1455000D02*
X37970000Y455000D01*
X37950000Y1465000D02*
X35520000Y1465000D01*
X56710000Y29055000D02*
X55660000Y29055000D01*
X55660000Y29055000D02*
X55660000Y30905000D01*
X58710000Y29055000D02*
X57710000Y29055000D01*
X58720000Y29075000D02*
X58720000Y31505000D01*
X3210000Y46055000D02*
X2160000Y46055000D01*
X2160000Y46055000D02*
X2160000Y47905000D01*
X5210000Y46055000D02*
X4210000Y46055000D01*
X5220000Y46075000D02*
X5220000Y48505000D01*
D13*
X65138572Y7576429D02*
X64805238Y7576429D01*
X64805238Y7052619D02*
X64805238Y8052619D01*
X65281429Y8052619D01*
X65662381Y7052619D02*
X65662381Y8052619D01*
X66138571Y7052619D02*
X66138571Y8052619D01*
X66376666Y8052619D01*
X66519524Y8005000D01*
X66614762Y7909762D01*
X66662381Y7814524D01*
X66710000Y7624048D01*
X66710000Y7481190D01*
X66662381Y7290714D01*
X66614762Y7195476D01*
X66519524Y7100238D01*
X66376666Y7052619D01*
X66138571Y7052619D01*
X67043333Y8052619D02*
X67662381Y8052619D01*
X67329047Y7671667D01*
X67471905Y7671667D01*
X67567143Y7624048D01*
X67614762Y7576429D01*
X67662381Y7481190D01*
X67662381Y7243095D01*
X67614762Y7147857D01*
X67567143Y7100238D01*
X67471905Y7052619D01*
X67186190Y7052619D01*
X67090952Y7100238D01*
X67043333Y7147857D01*
X-3761429Y48933572D02*
X-3761429Y48600238D01*
X-3237619Y48600238D02*
X-4237619Y48600238D01*
X-4237619Y49076429D01*
X-3237619Y49457381D02*
X-4237619Y49457381D01*
X-3237619Y49933571D02*
X-4237619Y49933571D01*
X-4237619Y50171666D01*
X-4190000Y50314524D01*
X-4094762Y50409762D01*
X-3999524Y50457381D01*
X-3809048Y50505000D01*
X-3666190Y50505000D01*
X-3475714Y50457381D01*
X-3380476Y50409762D01*
X-3285238Y50314524D01*
X-3237619Y50171666D01*
X-3237619Y49933571D01*
X-4142381Y50885952D02*
X-4190000Y50933571D01*
X-4237619Y51028809D01*
X-4237619Y51266905D01*
X-4190000Y51362143D01*
X-4142381Y51409762D01*
X-4047143Y51457381D01*
X-3951905Y51457381D01*
X-3809048Y51409762D01*
X-3237619Y50838333D01*
X-3237619Y51457381D01*
X40142381Y6335953D02*
X39666190Y6002619D01*
X40142381Y5764524D02*
X39142381Y5764524D01*
X39142381Y6145477D01*
X39190000Y6240715D01*
X39237619Y6288334D01*
X39332857Y6335953D01*
X39475714Y6335953D01*
X39570952Y6288334D01*
X39618571Y6240715D01*
X39666190Y6145477D01*
X39666190Y5764524D01*
X39142381Y6669286D02*
X39142381Y7288334D01*
X39523333Y6955000D01*
X39523333Y7097858D01*
X39570952Y7193096D01*
X39618571Y7240715D01*
X39713810Y7288334D01*
X39951905Y7288334D01*
X40047143Y7240715D01*
X40094762Y7193096D01*
X40142381Y7097858D01*
X40142381Y6812143D01*
X40094762Y6716905D01*
X40047143Y6669286D01*
X39142381Y7907381D02*
X39142381Y8002620D01*
X39190000Y8097858D01*
X39237619Y8145477D01*
X39332857Y8193096D01*
X39523333Y8240715D01*
X39761429Y8240715D01*
X39951905Y8193096D01*
X40047143Y8145477D01*
X40094762Y8097858D01*
X40142381Y8002620D01*
X40142381Y7907381D01*
X40094762Y7812143D01*
X40047143Y7764524D01*
X39951905Y7716905D01*
X39761429Y7669286D01*
X39523333Y7669286D01*
X39332857Y7716905D01*
X39237619Y7764524D01*
X39190000Y7812143D01*
X39142381Y7907381D01*
X39475714Y9097858D02*
X40142381Y9097858D01*
X39094762Y8859762D02*
X39809048Y8621667D01*
X39809048Y9240715D01*
X75947143Y19335953D02*
X75994762Y19288334D01*
X76042381Y19145477D01*
X76042381Y19050239D01*
X75994762Y18907381D01*
X75899524Y18812143D01*
X75804286Y18764524D01*
X75613810Y18716905D01*
X75470952Y18716905D01*
X75280476Y18764524D01*
X75185238Y18812143D01*
X75090000Y18907381D01*
X75042381Y19050239D01*
X75042381Y19145477D01*
X75090000Y19288334D01*
X75137619Y19335953D01*
X75137619Y19716905D02*
X75090000Y19764524D01*
X75042381Y19859762D01*
X75042381Y20097858D01*
X75090000Y20193096D01*
X75137619Y20240715D01*
X75232857Y20288334D01*
X75328095Y20288334D01*
X75470952Y20240715D01*
X76042381Y19669286D01*
X76042381Y20288334D01*
X75042381Y20907381D02*
X75042381Y21002620D01*
X75090000Y21097858D01*
X75137619Y21145477D01*
X75232857Y21193096D01*
X75423333Y21240715D01*
X75661429Y21240715D01*
X75851905Y21193096D01*
X75947143Y21145477D01*
X75994762Y21097858D01*
X76042381Y21002620D01*
X76042381Y20907381D01*
X75994762Y20812143D01*
X75947143Y20764524D01*
X75851905Y20716905D01*
X75661429Y20669286D01*
X75423333Y20669286D01*
X75232857Y20716905D01*
X75137619Y20764524D01*
X75090000Y20812143D01*
X75042381Y20907381D01*
X76042381Y22193096D02*
X76042381Y21621667D01*
X76042381Y21907381D02*
X75042381Y21907381D01*
X75185238Y21812143D01*
X75280476Y21716905D01*
X75328095Y21621667D01*
X-4429047Y23597857D02*
X-4476666Y23550238D01*
X-4619523Y23502619D01*
X-4714761Y23502619D01*
X-4857619Y23550238D01*
X-4952857Y23645476D01*
X-5000476Y23740714D01*
X-5048095Y23931190D01*
X-5048095Y24074048D01*
X-5000476Y24264524D01*
X-4952857Y24359762D01*
X-4857619Y24455000D01*
X-4714761Y24502619D01*
X-4619523Y24502619D01*
X-4476666Y24455000D01*
X-4429047Y24407381D01*
X-4048095Y24407381D02*
X-4000476Y24455000D01*
X-3905238Y24502619D01*
X-3667142Y24502619D01*
X-3571904Y24455000D01*
X-3524285Y24407381D01*
X-3476666Y24312143D01*
X-3476666Y24216905D01*
X-3524285Y24074048D01*
X-4095714Y23502619D01*
X-3476666Y23502619D01*
X-2857619Y24502619D02*
X-2762380Y24502619D01*
X-2667142Y24455000D01*
X-2619523Y24407381D01*
X-2571904Y24312143D01*
X-2524285Y24121667D01*
X-2524285Y23883571D01*
X-2571904Y23693095D01*
X-2619523Y23597857D01*
X-2667142Y23550238D01*
X-2762380Y23502619D01*
X-2857619Y23502619D01*
X-2952857Y23550238D01*
X-3000476Y23597857D01*
X-3048095Y23693095D01*
X-3095714Y23883571D01*
X-3095714Y24121667D01*
X-3048095Y24312143D01*
X-3000476Y24407381D01*
X-2952857Y24455000D01*
X-2857619Y24502619D01*
X-2143333Y24407381D02*
X-2095714Y24455000D01*
X-2000476Y24502619D01*
X-1762380Y24502619D01*
X-1667142Y24455000D01*
X-1619523Y24407381D01*
X-1571904Y24312143D01*
X-1571904Y24216905D01*
X-1619523Y24074048D01*
X-2190952Y23502619D01*
X-1571904Y23502619D01*
X64047143Y35835953D02*
X64094762Y35788334D01*
X64142381Y35645477D01*
X64142381Y35550239D01*
X64094762Y35407381D01*
X63999524Y35312143D01*
X63904286Y35264524D01*
X63713810Y35216905D01*
X63570952Y35216905D01*
X63380476Y35264524D01*
X63285238Y35312143D01*
X63190000Y35407381D01*
X63142381Y35550239D01*
X63142381Y35645477D01*
X63190000Y35788334D01*
X63237619Y35835953D01*
X63237619Y36216905D02*
X63190000Y36264524D01*
X63142381Y36359762D01*
X63142381Y36597858D01*
X63190000Y36693096D01*
X63237619Y36740715D01*
X63332857Y36788334D01*
X63428095Y36788334D01*
X63570952Y36740715D01*
X64142381Y36169286D01*
X64142381Y36788334D01*
X63142381Y37407381D02*
X63142381Y37502620D01*
X63190000Y37597858D01*
X63237619Y37645477D01*
X63332857Y37693096D01*
X63523333Y37740715D01*
X63761429Y37740715D01*
X63951905Y37693096D01*
X64047143Y37645477D01*
X64094762Y37597858D01*
X64142381Y37502620D01*
X64142381Y37407381D01*
X64094762Y37312143D01*
X64047143Y37264524D01*
X63951905Y37216905D01*
X63761429Y37169286D01*
X63523333Y37169286D01*
X63332857Y37216905D01*
X63237619Y37264524D01*
X63190000Y37312143D01*
X63142381Y37407381D01*
X63142381Y38074048D02*
X63142381Y38693096D01*
X63523333Y38359762D01*
X63523333Y38502620D01*
X63570952Y38597858D01*
X63618571Y38645477D01*
X63713810Y38693096D01*
X63951905Y38693096D01*
X64047143Y38645477D01*
X64094762Y38597858D01*
X64142381Y38502620D01*
X64142381Y38216905D01*
X64094762Y38121667D01*
X64047143Y38074048D01*
X-4429047Y12597857D02*
X-4476666Y12550238D01*
X-4619523Y12502619D01*
X-4714761Y12502619D01*
X-4857619Y12550238D01*
X-4952857Y12645476D01*
X-5000476Y12740714D01*
X-5048095Y12931190D01*
X-5048095Y13074048D01*
X-5000476Y13264524D01*
X-4952857Y13359762D01*
X-4857619Y13455000D01*
X-4714761Y13502619D01*
X-4619523Y13502619D01*
X-4476666Y13455000D01*
X-4429047Y13407381D01*
X-4048095Y13407381D02*
X-4000476Y13455000D01*
X-3905238Y13502619D01*
X-3667142Y13502619D01*
X-3571904Y13455000D01*
X-3524285Y13407381D01*
X-3476666Y13312143D01*
X-3476666Y13216905D01*
X-3524285Y13074048D01*
X-4095714Y12502619D01*
X-3476666Y12502619D01*
X-2857619Y13502619D02*
X-2762380Y13502619D01*
X-2667142Y13455000D01*
X-2619523Y13407381D01*
X-2571904Y13312143D01*
X-2524285Y13121667D01*
X-2524285Y12883571D01*
X-2571904Y12693095D01*
X-2619523Y12597857D01*
X-2667142Y12550238D01*
X-2762380Y12502619D01*
X-2857619Y12502619D01*
X-2952857Y12550238D01*
X-3000476Y12597857D01*
X-3048095Y12693095D01*
X-3095714Y12883571D01*
X-3095714Y13121667D01*
X-3048095Y13312143D01*
X-3000476Y13407381D01*
X-2952857Y13455000D01*
X-2857619Y13502619D01*
X-1667142Y13169286D02*
X-1667142Y12502619D01*
X-1905238Y13550238D02*
X-2143333Y12835952D01*
X-1524285Y12835952D01*
X65547143Y19335953D02*
X65594762Y19288334D01*
X65642381Y19145477D01*
X65642381Y19050239D01*
X65594762Y18907381D01*
X65499524Y18812143D01*
X65404286Y18764524D01*
X65213810Y18716905D01*
X65070952Y18716905D01*
X64880476Y18764524D01*
X64785238Y18812143D01*
X64690000Y18907381D01*
X64642381Y19050239D01*
X64642381Y19145477D01*
X64690000Y19288334D01*
X64737619Y19335953D01*
X64737619Y19716905D02*
X64690000Y19764524D01*
X64642381Y19859762D01*
X64642381Y20097858D01*
X64690000Y20193096D01*
X64737619Y20240715D01*
X64832857Y20288334D01*
X64928095Y20288334D01*
X65070952Y20240715D01*
X65642381Y19669286D01*
X65642381Y20288334D01*
X64642381Y20907381D02*
X64642381Y21002620D01*
X64690000Y21097858D01*
X64737619Y21145477D01*
X64832857Y21193096D01*
X65023333Y21240715D01*
X65261429Y21240715D01*
X65451905Y21193096D01*
X65547143Y21145477D01*
X65594762Y21097858D01*
X65642381Y21002620D01*
X65642381Y20907381D01*
X65594762Y20812143D01*
X65547143Y20764524D01*
X65451905Y20716905D01*
X65261429Y20669286D01*
X65023333Y20669286D01*
X64832857Y20716905D01*
X64737619Y20764524D01*
X64690000Y20812143D01*
X64642381Y20907381D01*
X64642381Y22145477D02*
X64642381Y21669286D01*
X65118571Y21621667D01*
X65070952Y21669286D01*
X65023333Y21764524D01*
X65023333Y22002620D01*
X65070952Y22097858D01*
X65118571Y22145477D01*
X65213810Y22193096D01*
X65451905Y22193096D01*
X65547143Y22145477D01*
X65594762Y22097858D01*
X65642381Y22002620D01*
X65642381Y21764524D01*
X65594762Y21669286D01*
X65547143Y21621667D01*
X59547143Y36335953D02*
X59594762Y36288334D01*
X59642381Y36145477D01*
X59642381Y36050239D01*
X59594762Y35907381D01*
X59499524Y35812143D01*
X59404286Y35764524D01*
X59213810Y35716905D01*
X59070952Y35716905D01*
X58880476Y35764524D01*
X58785238Y35812143D01*
X58690000Y35907381D01*
X58642381Y36050239D01*
X58642381Y36145477D01*
X58690000Y36288334D01*
X58737619Y36335953D01*
X58737619Y36716905D02*
X58690000Y36764524D01*
X58642381Y36859762D01*
X58642381Y37097858D01*
X58690000Y37193096D01*
X58737619Y37240715D01*
X58832857Y37288334D01*
X58928095Y37288334D01*
X59070952Y37240715D01*
X59642381Y36669286D01*
X59642381Y37288334D01*
X58642381Y37907381D02*
X58642381Y38002620D01*
X58690000Y38097858D01*
X58737619Y38145477D01*
X58832857Y38193096D01*
X59023333Y38240715D01*
X59261429Y38240715D01*
X59451905Y38193096D01*
X59547143Y38145477D01*
X59594762Y38097858D01*
X59642381Y38002620D01*
X59642381Y37907381D01*
X59594762Y37812143D01*
X59547143Y37764524D01*
X59451905Y37716905D01*
X59261429Y37669286D01*
X59023333Y37669286D01*
X58832857Y37716905D01*
X58737619Y37764524D01*
X58690000Y37812143D01*
X58642381Y37907381D01*
X58642381Y39097858D02*
X58642381Y38907381D01*
X58690000Y38812143D01*
X58737619Y38764524D01*
X58880476Y38669286D01*
X59070952Y38621667D01*
X59451905Y38621667D01*
X59547143Y38669286D01*
X59594762Y38716905D01*
X59642381Y38812143D01*
X59642381Y39002620D01*
X59594762Y39097858D01*
X59547143Y39145477D01*
X59451905Y39193096D01*
X59213810Y39193096D01*
X59118571Y39145477D01*
X59070952Y39097858D01*
X59023333Y39002620D01*
X59023333Y38812143D01*
X59070952Y38716905D01*
X59118571Y38669286D01*
X59213810Y38621667D01*
X62047143Y36335953D02*
X62094762Y36288334D01*
X62142381Y36145477D01*
X62142381Y36050239D01*
X62094762Y35907381D01*
X61999524Y35812143D01*
X61904286Y35764524D01*
X61713810Y35716905D01*
X61570952Y35716905D01*
X61380476Y35764524D01*
X61285238Y35812143D01*
X61190000Y35907381D01*
X61142381Y36050239D01*
X61142381Y36145477D01*
X61190000Y36288334D01*
X61237619Y36335953D01*
X61237619Y36716905D02*
X61190000Y36764524D01*
X61142381Y36859762D01*
X61142381Y37097858D01*
X61190000Y37193096D01*
X61237619Y37240715D01*
X61332857Y37288334D01*
X61428095Y37288334D01*
X61570952Y37240715D01*
X62142381Y36669286D01*
X62142381Y37288334D01*
X61142381Y37907381D02*
X61142381Y38002620D01*
X61190000Y38097858D01*
X61237619Y38145477D01*
X61332857Y38193096D01*
X61523333Y38240715D01*
X61761429Y38240715D01*
X61951905Y38193096D01*
X62047143Y38145477D01*
X62094762Y38097858D01*
X62142381Y38002620D01*
X62142381Y37907381D01*
X62094762Y37812143D01*
X62047143Y37764524D01*
X61951905Y37716905D01*
X61761429Y37669286D01*
X61523333Y37669286D01*
X61332857Y37716905D01*
X61237619Y37764524D01*
X61190000Y37812143D01*
X61142381Y37907381D01*
X61142381Y38574048D02*
X61142381Y39240715D01*
X62142381Y38812143D01*
X55090953Y24647857D02*
X55043334Y24600238D01*
X54900477Y24552619D01*
X54805239Y24552619D01*
X54662381Y24600238D01*
X54567143Y24695476D01*
X54519524Y24790714D01*
X54471905Y24981190D01*
X54471905Y25124048D01*
X54519524Y25314524D01*
X54567143Y25409762D01*
X54662381Y25505000D01*
X54805239Y25552619D01*
X54900477Y25552619D01*
X55043334Y25505000D01*
X55090953Y25457381D01*
X55424286Y25552619D02*
X56043334Y25552619D01*
X55710000Y25171667D01*
X55852858Y25171667D01*
X55948096Y25124048D01*
X55995715Y25076429D01*
X56043334Y24981190D01*
X56043334Y24743095D01*
X55995715Y24647857D01*
X55948096Y24600238D01*
X55852858Y24552619D01*
X55567143Y24552619D01*
X55471905Y24600238D01*
X55424286Y24647857D01*
X56662381Y25552619D02*
X56757620Y25552619D01*
X56852858Y25505000D01*
X56900477Y25457381D01*
X56948096Y25362143D01*
X56995715Y25171667D01*
X56995715Y24933571D01*
X56948096Y24743095D01*
X56900477Y24647857D01*
X56852858Y24600238D01*
X56757620Y24552619D01*
X56662381Y24552619D01*
X56567143Y24600238D01*
X56519524Y24647857D01*
X56471905Y24743095D01*
X56424286Y24933571D01*
X56424286Y25171667D01*
X56471905Y25362143D01*
X56519524Y25457381D01*
X56567143Y25505000D01*
X56662381Y25552619D01*
X57948096Y24552619D02*
X57376667Y24552619D01*
X57662381Y24552619D02*
X57662381Y25552619D01*
X57567143Y25409762D01*
X57471905Y25314524D01*
X57376667Y25266905D01*
X60570953Y19597857D02*
X60523334Y19550238D01*
X60380477Y19502619D01*
X60285239Y19502619D01*
X60142381Y19550238D01*
X60047143Y19645476D01*
X59999524Y19740714D01*
X59951905Y19931190D01*
X59951905Y20074048D01*
X59999524Y20264524D01*
X60047143Y20359762D01*
X60142381Y20455000D01*
X60285239Y20502619D01*
X60380477Y20502619D01*
X60523334Y20455000D01*
X60570953Y20407381D01*
X60904286Y20502619D02*
X61523334Y20502619D01*
X61190000Y20121667D01*
X61332858Y20121667D01*
X61428096Y20074048D01*
X61475715Y20026429D01*
X61523334Y19931190D01*
X61523334Y19693095D01*
X61475715Y19597857D01*
X61428096Y19550238D01*
X61332858Y19502619D01*
X61047143Y19502619D01*
X60951905Y19550238D01*
X60904286Y19597857D01*
X62142381Y20502619D02*
X62237620Y20502619D01*
X62332858Y20455000D01*
X62380477Y20407381D01*
X62428096Y20312143D01*
X62475715Y20121667D01*
X62475715Y19883571D01*
X62428096Y19693095D01*
X62380477Y19597857D01*
X62332858Y19550238D01*
X62237620Y19502619D01*
X62142381Y19502619D01*
X62047143Y19550238D01*
X61999524Y19597857D01*
X61951905Y19693095D01*
X61904286Y19883571D01*
X61904286Y20121667D01*
X61951905Y20312143D01*
X61999524Y20407381D01*
X62047143Y20455000D01*
X62142381Y20502619D01*
X62856667Y20407381D02*
X62904286Y20455000D01*
X62999524Y20502619D01*
X63237620Y20502619D01*
X63332858Y20455000D01*
X63380477Y20407381D01*
X63428096Y20312143D01*
X63428096Y20216905D01*
X63380477Y20074048D01*
X62809048Y19502619D01*
X63428096Y19502619D01*
X57130953Y16097857D02*
X57083334Y16050238D01*
X56940477Y16002619D01*
X56845239Y16002619D01*
X56702381Y16050238D01*
X56607143Y16145476D01*
X56559524Y16240714D01*
X56511905Y16431190D01*
X56511905Y16574048D01*
X56559524Y16764524D01*
X56607143Y16859762D01*
X56702381Y16955000D01*
X56845239Y17002619D01*
X56940477Y17002619D01*
X57083334Y16955000D01*
X57130953Y16907381D01*
X57464286Y17002619D02*
X58083334Y17002619D01*
X57750000Y16621667D01*
X57892858Y16621667D01*
X57988096Y16574048D01*
X58035715Y16526429D01*
X58083334Y16431190D01*
X58083334Y16193095D01*
X58035715Y16097857D01*
X57988096Y16050238D01*
X57892858Y16002619D01*
X57607143Y16002619D01*
X57511905Y16050238D01*
X57464286Y16097857D01*
X58702381Y17002619D02*
X58797620Y17002619D01*
X58892858Y16955000D01*
X58940477Y16907381D01*
X58988096Y16812143D01*
X59035715Y16621667D01*
X59035715Y16383571D01*
X58988096Y16193095D01*
X58940477Y16097857D01*
X58892858Y16050238D01*
X58797620Y16002619D01*
X58702381Y16002619D01*
X58607143Y16050238D01*
X58559524Y16097857D01*
X58511905Y16193095D01*
X58464286Y16383571D01*
X58464286Y16621667D01*
X58511905Y16812143D01*
X58559524Y16907381D01*
X58607143Y16955000D01*
X58702381Y17002619D01*
X59369048Y17002619D02*
X59988096Y17002619D01*
X59654762Y16621667D01*
X59797620Y16621667D01*
X59892858Y16574048D01*
X59940477Y16526429D01*
X59988096Y16431190D01*
X59988096Y16193095D01*
X59940477Y16097857D01*
X59892858Y16050238D01*
X59797620Y16002619D01*
X59511905Y16002619D01*
X59416667Y16050238D01*
X59369048Y16097857D01*
X58070953Y11597857D02*
X58023334Y11550238D01*
X57880477Y11502619D01*
X57785239Y11502619D01*
X57642381Y11550238D01*
X57547143Y11645476D01*
X57499524Y11740714D01*
X57451905Y11931190D01*
X57451905Y12074048D01*
X57499524Y12264524D01*
X57547143Y12359762D01*
X57642381Y12455000D01*
X57785239Y12502619D01*
X57880477Y12502619D01*
X58023334Y12455000D01*
X58070953Y12407381D01*
X58404286Y12502619D02*
X59023334Y12502619D01*
X58690000Y12121667D01*
X58832858Y12121667D01*
X58928096Y12074048D01*
X58975715Y12026429D01*
X59023334Y11931190D01*
X59023334Y11693095D01*
X58975715Y11597857D01*
X58928096Y11550238D01*
X58832858Y11502619D01*
X58547143Y11502619D01*
X58451905Y11550238D01*
X58404286Y11597857D01*
X59642381Y12502619D02*
X59737620Y12502619D01*
X59832858Y12455000D01*
X59880477Y12407381D01*
X59928096Y12312143D01*
X59975715Y12121667D01*
X59975715Y11883571D01*
X59928096Y11693095D01*
X59880477Y11597857D01*
X59832858Y11550238D01*
X59737620Y11502619D01*
X59642381Y11502619D01*
X59547143Y11550238D01*
X59499524Y11597857D01*
X59451905Y11693095D01*
X59404286Y11883571D01*
X59404286Y12121667D01*
X59451905Y12312143D01*
X59499524Y12407381D01*
X59547143Y12455000D01*
X59642381Y12502619D01*
X60832858Y12169286D02*
X60832858Y11502619D01*
X60594762Y12550238D02*
X60356667Y11835952D01*
X60975715Y11835952D01*
X58070953Y13097857D02*
X58023334Y13050238D01*
X57880477Y13002619D01*
X57785239Y13002619D01*
X57642381Y13050238D01*
X57547143Y13145476D01*
X57499524Y13240714D01*
X57451905Y13431190D01*
X57451905Y13574048D01*
X57499524Y13764524D01*
X57547143Y13859762D01*
X57642381Y13955000D01*
X57785239Y14002619D01*
X57880477Y14002619D01*
X58023334Y13955000D01*
X58070953Y13907381D01*
X58404286Y14002619D02*
X59023334Y14002619D01*
X58690000Y13621667D01*
X58832858Y13621667D01*
X58928096Y13574048D01*
X58975715Y13526429D01*
X59023334Y13431190D01*
X59023334Y13193095D01*
X58975715Y13097857D01*
X58928096Y13050238D01*
X58832858Y13002619D01*
X58547143Y13002619D01*
X58451905Y13050238D01*
X58404286Y13097857D01*
X59642381Y14002619D02*
X59737620Y14002619D01*
X59832858Y13955000D01*
X59880477Y13907381D01*
X59928096Y13812143D01*
X59975715Y13621667D01*
X59975715Y13383571D01*
X59928096Y13193095D01*
X59880477Y13097857D01*
X59832858Y13050238D01*
X59737620Y13002619D01*
X59642381Y13002619D01*
X59547143Y13050238D01*
X59499524Y13097857D01*
X59451905Y13193095D01*
X59404286Y13383571D01*
X59404286Y13621667D01*
X59451905Y13812143D01*
X59499524Y13907381D01*
X59547143Y13955000D01*
X59642381Y14002619D01*
X60880477Y14002619D02*
X60404286Y14002619D01*
X60356667Y13526429D01*
X60404286Y13574048D01*
X60499524Y13621667D01*
X60737620Y13621667D01*
X60832858Y13574048D01*
X60880477Y13526429D01*
X60928096Y13431190D01*
X60928096Y13193095D01*
X60880477Y13097857D01*
X60832858Y13050238D01*
X60737620Y13002619D01*
X60499524Y13002619D01*
X60404286Y13050238D01*
X60356667Y13097857D01*
X46047143Y-1164047D02*
X46094762Y-1211666D01*
X46142381Y-1354523D01*
X46142381Y-1449761D01*
X46094762Y-1592619D01*
X45999524Y-1687857D01*
X45904286Y-1735476D01*
X45713810Y-1783095D01*
X45570952Y-1783095D01*
X45380476Y-1735476D01*
X45285238Y-1687857D01*
X45190000Y-1592619D01*
X45142381Y-1449761D01*
X45142381Y-1354523D01*
X45190000Y-1211666D01*
X45237619Y-1164047D01*
X45142381Y-830714D02*
X45142381Y-211666D01*
X45523333Y-545000D01*
X45523333Y-402142D01*
X45570952Y-306904D01*
X45618571Y-259285D01*
X45713810Y-211666D01*
X45951905Y-211666D01*
X46047143Y-259285D01*
X46094762Y-306904D01*
X46142381Y-402142D01*
X46142381Y-687857D01*
X46094762Y-783095D01*
X46047143Y-830714D01*
X45142381Y407381D02*
X45142381Y502620D01*
X45190000Y597858D01*
X45237619Y645477D01*
X45332857Y693096D01*
X45523333Y740715D01*
X45761429Y740715D01*
X45951905Y693096D01*
X46047143Y645477D01*
X46094762Y597858D01*
X46142381Y502620D01*
X46142381Y407381D01*
X46094762Y312143D01*
X46047143Y264524D01*
X45951905Y216905D01*
X45761429Y169286D01*
X45523333Y169286D01*
X45332857Y216905D01*
X45237619Y264524D01*
X45190000Y312143D01*
X45142381Y407381D01*
X45142381Y1597858D02*
X45142381Y1407381D01*
X45190000Y1312143D01*
X45237619Y1264524D01*
X45380476Y1169286D01*
X45570952Y1121667D01*
X45951905Y1121667D01*
X46047143Y1169286D01*
X46094762Y1216905D01*
X46142381Y1312143D01*
X46142381Y1502620D01*
X46094762Y1597858D01*
X46047143Y1645477D01*
X45951905Y1693096D01*
X45713810Y1693096D01*
X45618571Y1645477D01*
X45570952Y1597858D01*
X45523333Y1502620D01*
X45523333Y1312143D01*
X45570952Y1216905D01*
X45618571Y1169286D01*
X45713810Y1121667D01*
X44547143Y-1164047D02*
X44594762Y-1211666D01*
X44642381Y-1354523D01*
X44642381Y-1449761D01*
X44594762Y-1592619D01*
X44499524Y-1687857D01*
X44404286Y-1735476D01*
X44213810Y-1783095D01*
X44070952Y-1783095D01*
X43880476Y-1735476D01*
X43785238Y-1687857D01*
X43690000Y-1592619D01*
X43642381Y-1449761D01*
X43642381Y-1354523D01*
X43690000Y-1211666D01*
X43737619Y-1164047D01*
X43642381Y-830714D02*
X43642381Y-211666D01*
X44023333Y-545000D01*
X44023333Y-402142D01*
X44070952Y-306904D01*
X44118571Y-259285D01*
X44213810Y-211666D01*
X44451905Y-211666D01*
X44547143Y-259285D01*
X44594762Y-306904D01*
X44642381Y-402142D01*
X44642381Y-687857D01*
X44594762Y-783095D01*
X44547143Y-830714D01*
X43642381Y407381D02*
X43642381Y502620D01*
X43690000Y597858D01*
X43737619Y645477D01*
X43832857Y693096D01*
X44023333Y740715D01*
X44261429Y740715D01*
X44451905Y693096D01*
X44547143Y645477D01*
X44594762Y597858D01*
X44642381Y502620D01*
X44642381Y407381D01*
X44594762Y312143D01*
X44547143Y264524D01*
X44451905Y216905D01*
X44261429Y169286D01*
X44023333Y169286D01*
X43832857Y216905D01*
X43737619Y264524D01*
X43690000Y312143D01*
X43642381Y407381D01*
X43642381Y1074048D02*
X43642381Y1740715D01*
X44642381Y1312143D01*
X74070953Y31097857D02*
X74023334Y31050238D01*
X73880477Y31002619D01*
X73785239Y31002619D01*
X73642381Y31050238D01*
X73547143Y31145476D01*
X73499524Y31240714D01*
X73451905Y31431190D01*
X73451905Y31574048D01*
X73499524Y31764524D01*
X73547143Y31859762D01*
X73642381Y31955000D01*
X73785239Y32002619D01*
X73880477Y32002619D01*
X74023334Y31955000D01*
X74070953Y31907381D01*
X74404286Y32002619D02*
X75023334Y32002619D01*
X74690000Y31621667D01*
X74832858Y31621667D01*
X74928096Y31574048D01*
X74975715Y31526429D01*
X75023334Y31431190D01*
X75023334Y31193095D01*
X74975715Y31097857D01*
X74928096Y31050238D01*
X74832858Y31002619D01*
X74547143Y31002619D01*
X74451905Y31050238D01*
X74404286Y31097857D01*
X75642381Y32002619D02*
X75737620Y32002619D01*
X75832858Y31955000D01*
X75880477Y31907381D01*
X75928096Y31812143D01*
X75975715Y31621667D01*
X75975715Y31383571D01*
X75928096Y31193095D01*
X75880477Y31097857D01*
X75832858Y31050238D01*
X75737620Y31002619D01*
X75642381Y31002619D01*
X75547143Y31050238D01*
X75499524Y31097857D01*
X75451905Y31193095D01*
X75404286Y31383571D01*
X75404286Y31621667D01*
X75451905Y31812143D01*
X75499524Y31907381D01*
X75547143Y31955000D01*
X75642381Y32002619D01*
X76547143Y31574048D02*
X76451905Y31621667D01*
X76404286Y31669286D01*
X76356667Y31764524D01*
X76356667Y31812143D01*
X76404286Y31907381D01*
X76451905Y31955000D01*
X76547143Y32002619D01*
X76737620Y32002619D01*
X76832858Y31955000D01*
X76880477Y31907381D01*
X76928096Y31812143D01*
X76928096Y31764524D01*
X76880477Y31669286D01*
X76832858Y31621667D01*
X76737620Y31574048D01*
X76547143Y31574048D01*
X76451905Y31526429D01*
X76404286Y31478810D01*
X76356667Y31383571D01*
X76356667Y31193095D01*
X76404286Y31097857D01*
X76451905Y31050238D01*
X76547143Y31002619D01*
X76737620Y31002619D01*
X76832858Y31050238D01*
X76880477Y31097857D01*
X76928096Y31193095D01*
X76928096Y31383571D01*
X76880477Y31478810D01*
X76832858Y31526429D01*
X76737620Y31574048D01*
X22070953Y29597857D02*
X22023334Y29550238D01*
X21880477Y29502619D01*
X21785239Y29502619D01*
X21642381Y29550238D01*
X21547143Y29645476D01*
X21499524Y29740714D01*
X21451905Y29931190D01*
X21451905Y30074048D01*
X21499524Y30264524D01*
X21547143Y30359762D01*
X21642381Y30455000D01*
X21785239Y30502619D01*
X21880477Y30502619D01*
X22023334Y30455000D01*
X22070953Y30407381D01*
X22928096Y30502619D02*
X22737619Y30502619D01*
X22642381Y30455000D01*
X22594762Y30407381D01*
X22499524Y30264524D01*
X22451905Y30074048D01*
X22451905Y29693095D01*
X22499524Y29597857D01*
X22547143Y29550238D01*
X22642381Y29502619D01*
X22832858Y29502619D01*
X22928096Y29550238D01*
X22975715Y29597857D01*
X23023334Y29693095D01*
X23023334Y29931190D01*
X22975715Y30026429D01*
X22928096Y30074048D01*
X22832858Y30121667D01*
X22642381Y30121667D01*
X22547143Y30074048D01*
X22499524Y30026429D01*
X22451905Y29931190D01*
X23642381Y30502619D02*
X23737620Y30502619D01*
X23832858Y30455000D01*
X23880477Y30407381D01*
X23928096Y30312143D01*
X23975715Y30121667D01*
X23975715Y29883571D01*
X23928096Y29693095D01*
X23880477Y29597857D01*
X23832858Y29550238D01*
X23737620Y29502619D01*
X23642381Y29502619D01*
X23547143Y29550238D01*
X23499524Y29597857D01*
X23451905Y29693095D01*
X23404286Y29883571D01*
X23404286Y30121667D01*
X23451905Y30312143D01*
X23499524Y30407381D01*
X23547143Y30455000D01*
X23642381Y30502619D01*
X24928096Y29502619D02*
X24356667Y29502619D01*
X24642381Y29502619D02*
X24642381Y30502619D01*
X24547143Y30359762D01*
X24451905Y30264524D01*
X24356667Y30216905D01*
X24047143Y19335953D02*
X24094762Y19288334D01*
X24142381Y19145477D01*
X24142381Y19050239D01*
X24094762Y18907381D01*
X23999524Y18812143D01*
X23904286Y18764524D01*
X23713810Y18716905D01*
X23570952Y18716905D01*
X23380476Y18764524D01*
X23285238Y18812143D01*
X23190000Y18907381D01*
X23142381Y19050239D01*
X23142381Y19145477D01*
X23190000Y19288334D01*
X23237619Y19335953D01*
X23142381Y20193096D02*
X23142381Y20002619D01*
X23190000Y19907381D01*
X23237619Y19859762D01*
X23380476Y19764524D01*
X23570952Y19716905D01*
X23951905Y19716905D01*
X24047143Y19764524D01*
X24094762Y19812143D01*
X24142381Y19907381D01*
X24142381Y20097858D01*
X24094762Y20193096D01*
X24047143Y20240715D01*
X23951905Y20288334D01*
X23713810Y20288334D01*
X23618571Y20240715D01*
X23570952Y20193096D01*
X23523333Y20097858D01*
X23523333Y19907381D01*
X23570952Y19812143D01*
X23618571Y19764524D01*
X23713810Y19716905D01*
X23142381Y20907381D02*
X23142381Y21002620D01*
X23190000Y21097858D01*
X23237619Y21145477D01*
X23332857Y21193096D01*
X23523333Y21240715D01*
X23761429Y21240715D01*
X23951905Y21193096D01*
X24047143Y21145477D01*
X24094762Y21097858D01*
X24142381Y21002620D01*
X24142381Y20907381D01*
X24094762Y20812143D01*
X24047143Y20764524D01*
X23951905Y20716905D01*
X23761429Y20669286D01*
X23523333Y20669286D01*
X23332857Y20716905D01*
X23237619Y20764524D01*
X23190000Y20812143D01*
X23142381Y20907381D01*
X23237619Y21621667D02*
X23190000Y21669286D01*
X23142381Y21764524D01*
X23142381Y22002620D01*
X23190000Y22097858D01*
X23237619Y22145477D01*
X23332857Y22193096D01*
X23428095Y22193096D01*
X23570952Y22145477D01*
X24142381Y21574048D01*
X24142381Y22193096D01*
X15047143Y28835953D02*
X15094762Y28788334D01*
X15142381Y28645477D01*
X15142381Y28550239D01*
X15094762Y28407381D01*
X14999524Y28312143D01*
X14904286Y28264524D01*
X14713810Y28216905D01*
X14570952Y28216905D01*
X14380476Y28264524D01*
X14285238Y28312143D01*
X14190000Y28407381D01*
X14142381Y28550239D01*
X14142381Y28645477D01*
X14190000Y28788334D01*
X14237619Y28835953D01*
X14142381Y29693096D02*
X14142381Y29502619D01*
X14190000Y29407381D01*
X14237619Y29359762D01*
X14380476Y29264524D01*
X14570952Y29216905D01*
X14951905Y29216905D01*
X15047143Y29264524D01*
X15094762Y29312143D01*
X15142381Y29407381D01*
X15142381Y29597858D01*
X15094762Y29693096D01*
X15047143Y29740715D01*
X14951905Y29788334D01*
X14713810Y29788334D01*
X14618571Y29740715D01*
X14570952Y29693096D01*
X14523333Y29597858D01*
X14523333Y29407381D01*
X14570952Y29312143D01*
X14618571Y29264524D01*
X14713810Y29216905D01*
X14142381Y30407381D02*
X14142381Y30502620D01*
X14190000Y30597858D01*
X14237619Y30645477D01*
X14332857Y30693096D01*
X14523333Y30740715D01*
X14761429Y30740715D01*
X14951905Y30693096D01*
X15047143Y30645477D01*
X15094762Y30597858D01*
X15142381Y30502620D01*
X15142381Y30407381D01*
X15094762Y30312143D01*
X15047143Y30264524D01*
X14951905Y30216905D01*
X14761429Y30169286D01*
X14523333Y30169286D01*
X14332857Y30216905D01*
X14237619Y30264524D01*
X14190000Y30312143D01*
X14142381Y30407381D01*
X14142381Y31074048D02*
X14142381Y31693096D01*
X14523333Y31359762D01*
X14523333Y31502620D01*
X14570952Y31597858D01*
X14618571Y31645477D01*
X14713810Y31693096D01*
X14951905Y31693096D01*
X15047143Y31645477D01*
X15094762Y31597858D01*
X15142381Y31502620D01*
X15142381Y31216905D01*
X15094762Y31121667D01*
X15047143Y31074048D01*
X15070953Y19597857D02*
X15023334Y19550238D01*
X14880477Y19502619D01*
X14785239Y19502619D01*
X14642381Y19550238D01*
X14547143Y19645476D01*
X14499524Y19740714D01*
X14451905Y19931190D01*
X14451905Y20074048D01*
X14499524Y20264524D01*
X14547143Y20359762D01*
X14642381Y20455000D01*
X14785239Y20502619D01*
X14880477Y20502619D01*
X15023334Y20455000D01*
X15070953Y20407381D01*
X15928096Y20502619D02*
X15737619Y20502619D01*
X15642381Y20455000D01*
X15594762Y20407381D01*
X15499524Y20264524D01*
X15451905Y20074048D01*
X15451905Y19693095D01*
X15499524Y19597857D01*
X15547143Y19550238D01*
X15642381Y19502619D01*
X15832858Y19502619D01*
X15928096Y19550238D01*
X15975715Y19597857D01*
X16023334Y19693095D01*
X16023334Y19931190D01*
X15975715Y20026429D01*
X15928096Y20074048D01*
X15832858Y20121667D01*
X15642381Y20121667D01*
X15547143Y20074048D01*
X15499524Y20026429D01*
X15451905Y19931190D01*
X16642381Y20502619D02*
X16737620Y20502619D01*
X16832858Y20455000D01*
X16880477Y20407381D01*
X16928096Y20312143D01*
X16975715Y20121667D01*
X16975715Y19883571D01*
X16928096Y19693095D01*
X16880477Y19597857D01*
X16832858Y19550238D01*
X16737620Y19502619D01*
X16642381Y19502619D01*
X16547143Y19550238D01*
X16499524Y19597857D01*
X16451905Y19693095D01*
X16404286Y19883571D01*
X16404286Y20121667D01*
X16451905Y20312143D01*
X16499524Y20407381D01*
X16547143Y20455000D01*
X16642381Y20502619D01*
X17880477Y20502619D02*
X17404286Y20502619D01*
X17356667Y20026429D01*
X17404286Y20074048D01*
X17499524Y20121667D01*
X17737620Y20121667D01*
X17832858Y20074048D01*
X17880477Y20026429D01*
X17928096Y19931190D01*
X17928096Y19693095D01*
X17880477Y19597857D01*
X17832858Y19550238D01*
X17737620Y19502619D01*
X17499524Y19502619D01*
X17404286Y19550238D01*
X17356667Y19597857D01*
X22070953Y8097857D02*
X22023334Y8050238D01*
X21880477Y8002619D01*
X21785239Y8002619D01*
X21642381Y8050238D01*
X21547143Y8145476D01*
X21499524Y8240714D01*
X21451905Y8431190D01*
X21451905Y8574048D01*
X21499524Y8764524D01*
X21547143Y8859762D01*
X21642381Y8955000D01*
X21785239Y9002619D01*
X21880477Y9002619D01*
X22023334Y8955000D01*
X22070953Y8907381D01*
X22928096Y9002619D02*
X22737619Y9002619D01*
X22642381Y8955000D01*
X22594762Y8907381D01*
X22499524Y8764524D01*
X22451905Y8574048D01*
X22451905Y8193095D01*
X22499524Y8097857D01*
X22547143Y8050238D01*
X22642381Y8002619D01*
X22832858Y8002619D01*
X22928096Y8050238D01*
X22975715Y8097857D01*
X23023334Y8193095D01*
X23023334Y8431190D01*
X22975715Y8526429D01*
X22928096Y8574048D01*
X22832858Y8621667D01*
X22642381Y8621667D01*
X22547143Y8574048D01*
X22499524Y8526429D01*
X22451905Y8431190D01*
X23642381Y9002619D02*
X23737620Y9002619D01*
X23832858Y8955000D01*
X23880477Y8907381D01*
X23928096Y8812143D01*
X23975715Y8621667D01*
X23975715Y8383571D01*
X23928096Y8193095D01*
X23880477Y8097857D01*
X23832858Y8050238D01*
X23737620Y8002619D01*
X23642381Y8002619D01*
X23547143Y8050238D01*
X23499524Y8097857D01*
X23451905Y8193095D01*
X23404286Y8383571D01*
X23404286Y8621667D01*
X23451905Y8812143D01*
X23499524Y8907381D01*
X23547143Y8955000D01*
X23642381Y9002619D01*
X24309048Y9002619D02*
X24975715Y9002619D01*
X24547143Y8002619D01*
X14070953Y10097857D02*
X14023334Y10050238D01*
X13880477Y10002619D01*
X13785239Y10002619D01*
X13642381Y10050238D01*
X13547143Y10145476D01*
X13499524Y10240714D01*
X13451905Y10431190D01*
X13451905Y10574048D01*
X13499524Y10764524D01*
X13547143Y10859762D01*
X13642381Y10955000D01*
X13785239Y11002619D01*
X13880477Y11002619D01*
X14023334Y10955000D01*
X14070953Y10907381D01*
X14928096Y11002619D02*
X14737619Y11002619D01*
X14642381Y10955000D01*
X14594762Y10907381D01*
X14499524Y10764524D01*
X14451905Y10574048D01*
X14451905Y10193095D01*
X14499524Y10097857D01*
X14547143Y10050238D01*
X14642381Y10002619D01*
X14832858Y10002619D01*
X14928096Y10050238D01*
X14975715Y10097857D01*
X15023334Y10193095D01*
X15023334Y10431190D01*
X14975715Y10526429D01*
X14928096Y10574048D01*
X14832858Y10621667D01*
X14642381Y10621667D01*
X14547143Y10574048D01*
X14499524Y10526429D01*
X14451905Y10431190D01*
X15642381Y11002619D02*
X15737620Y11002619D01*
X15832858Y10955000D01*
X15880477Y10907381D01*
X15928096Y10812143D01*
X15975715Y10621667D01*
X15975715Y10383571D01*
X15928096Y10193095D01*
X15880477Y10097857D01*
X15832858Y10050238D01*
X15737620Y10002619D01*
X15642381Y10002619D01*
X15547143Y10050238D01*
X15499524Y10097857D01*
X15451905Y10193095D01*
X15404286Y10383571D01*
X15404286Y10621667D01*
X15451905Y10812143D01*
X15499524Y10907381D01*
X15547143Y10955000D01*
X15642381Y11002619D01*
X16547143Y10574048D02*
X16451905Y10621667D01*
X16404286Y10669286D01*
X16356667Y10764524D01*
X16356667Y10812143D01*
X16404286Y10907381D01*
X16451905Y10955000D01*
X16547143Y11002619D01*
X16737620Y11002619D01*
X16832858Y10955000D01*
X16880477Y10907381D01*
X16928096Y10812143D01*
X16928096Y10764524D01*
X16880477Y10669286D01*
X16832858Y10621667D01*
X16737620Y10574048D01*
X16547143Y10574048D01*
X16451905Y10526429D01*
X16404286Y10478810D01*
X16356667Y10383571D01*
X16356667Y10193095D01*
X16404286Y10097857D01*
X16451905Y10050238D01*
X16547143Y10002619D01*
X16737620Y10002619D01*
X16832858Y10050238D01*
X16880477Y10097857D01*
X16928096Y10193095D01*
X16928096Y10383571D01*
X16880477Y10478810D01*
X16832858Y10526429D01*
X16737620Y10574048D01*
X14070953Y11597857D02*
X14023334Y11550238D01*
X13880477Y11502619D01*
X13785239Y11502619D01*
X13642381Y11550238D01*
X13547143Y11645476D01*
X13499524Y11740714D01*
X13451905Y11931190D01*
X13451905Y12074048D01*
X13499524Y12264524D01*
X13547143Y12359762D01*
X13642381Y12455000D01*
X13785239Y12502619D01*
X13880477Y12502619D01*
X14023334Y12455000D01*
X14070953Y12407381D01*
X14928096Y12502619D02*
X14737619Y12502619D01*
X14642381Y12455000D01*
X14594762Y12407381D01*
X14499524Y12264524D01*
X14451905Y12074048D01*
X14451905Y11693095D01*
X14499524Y11597857D01*
X14547143Y11550238D01*
X14642381Y11502619D01*
X14832858Y11502619D01*
X14928096Y11550238D01*
X14975715Y11597857D01*
X15023334Y11693095D01*
X15023334Y11931190D01*
X14975715Y12026429D01*
X14928096Y12074048D01*
X14832858Y12121667D01*
X14642381Y12121667D01*
X14547143Y12074048D01*
X14499524Y12026429D01*
X14451905Y11931190D01*
X15642381Y12502619D02*
X15737620Y12502619D01*
X15832858Y12455000D01*
X15880477Y12407381D01*
X15928096Y12312143D01*
X15975715Y12121667D01*
X15975715Y11883571D01*
X15928096Y11693095D01*
X15880477Y11597857D01*
X15832858Y11550238D01*
X15737620Y11502619D01*
X15642381Y11502619D01*
X15547143Y11550238D01*
X15499524Y11597857D01*
X15451905Y11693095D01*
X15404286Y11883571D01*
X15404286Y12121667D01*
X15451905Y12312143D01*
X15499524Y12407381D01*
X15547143Y12455000D01*
X15642381Y12502619D01*
X16451905Y11502619D02*
X16642381Y11502619D01*
X16737620Y11550238D01*
X16785239Y11597857D01*
X16880477Y11740714D01*
X16928096Y11931190D01*
X16928096Y12312143D01*
X16880477Y12407381D01*
X16832858Y12455000D01*
X16737620Y12502619D01*
X16547143Y12502619D01*
X16451905Y12455000D01*
X16404286Y12407381D01*
X16356667Y12312143D01*
X16356667Y12074048D01*
X16404286Y11978810D01*
X16451905Y11931190D01*
X16547143Y11883571D01*
X16737620Y11883571D01*
X16832858Y11931190D01*
X16880477Y11978810D01*
X16928096Y12074048D01*
X12590953Y15147857D02*
X12543334Y15100238D01*
X12400477Y15052619D01*
X12305239Y15052619D01*
X12162381Y15100238D01*
X12067143Y15195476D01*
X12019524Y15290714D01*
X11971905Y15481190D01*
X11971905Y15624048D01*
X12019524Y15814524D01*
X12067143Y15909762D01*
X12162381Y16005000D01*
X12305239Y16052619D01*
X12400477Y16052619D01*
X12543334Y16005000D01*
X12590953Y15957381D01*
X13448096Y16052619D02*
X13257619Y16052619D01*
X13162381Y16005000D01*
X13114762Y15957381D01*
X13019524Y15814524D01*
X12971905Y15624048D01*
X12971905Y15243095D01*
X13019524Y15147857D01*
X13067143Y15100238D01*
X13162381Y15052619D01*
X13352858Y15052619D01*
X13448096Y15100238D01*
X13495715Y15147857D01*
X13543334Y15243095D01*
X13543334Y15481190D01*
X13495715Y15576429D01*
X13448096Y15624048D01*
X13352858Y15671667D01*
X13162381Y15671667D01*
X13067143Y15624048D01*
X13019524Y15576429D01*
X12971905Y15481190D01*
X14495715Y15052619D02*
X13924286Y15052619D01*
X14210000Y15052619D02*
X14210000Y16052619D01*
X14114762Y15909762D01*
X14019524Y15814524D01*
X13924286Y15766905D01*
X15114762Y16052619D02*
X15210001Y16052619D01*
X15305239Y16005000D01*
X15352858Y15957381D01*
X15400477Y15862143D01*
X15448096Y15671667D01*
X15448096Y15433571D01*
X15400477Y15243095D01*
X15352858Y15147857D01*
X15305239Y15100238D01*
X15210001Y15052619D01*
X15114762Y15052619D01*
X15019524Y15100238D01*
X14971905Y15147857D01*
X14924286Y15243095D01*
X14876667Y15433571D01*
X14876667Y15671667D01*
X14924286Y15862143D01*
X14971905Y15957381D01*
X15019524Y16005000D01*
X15114762Y16052619D01*
X10590953Y17147857D02*
X10543334Y17100238D01*
X10400477Y17052619D01*
X10305239Y17052619D01*
X10162381Y17100238D01*
X10067143Y17195476D01*
X10019524Y17290714D01*
X9971905Y17481190D01*
X9971905Y17624048D01*
X10019524Y17814524D01*
X10067143Y17909762D01*
X10162381Y18005000D01*
X10305239Y18052619D01*
X10400477Y18052619D01*
X10543334Y18005000D01*
X10590953Y17957381D01*
X11448096Y18052619D02*
X11257619Y18052619D01*
X11162381Y18005000D01*
X11114762Y17957381D01*
X11019524Y17814524D01*
X10971905Y17624048D01*
X10971905Y17243095D01*
X11019524Y17147857D01*
X11067143Y17100238D01*
X11162381Y17052619D01*
X11352858Y17052619D01*
X11448096Y17100238D01*
X11495715Y17147857D01*
X11543334Y17243095D01*
X11543334Y17481190D01*
X11495715Y17576429D01*
X11448096Y17624048D01*
X11352858Y17671667D01*
X11162381Y17671667D01*
X11067143Y17624048D01*
X11019524Y17576429D01*
X10971905Y17481190D01*
X12495715Y17052619D02*
X11924286Y17052619D01*
X12210000Y17052619D02*
X12210000Y18052619D01*
X12114762Y17909762D01*
X12019524Y17814524D01*
X11924286Y17766905D01*
X13448096Y17052619D02*
X12876667Y17052619D01*
X13162381Y17052619D02*
X13162381Y18052619D01*
X13067143Y17909762D01*
X12971905Y17814524D01*
X12876667Y17766905D01*
X64662381Y24469286D02*
X65376667Y24469286D01*
X65519524Y24421666D01*
X65614762Y24326428D01*
X65662381Y24183571D01*
X65662381Y24088333D01*
X65662381Y24945476D02*
X64662381Y24945476D01*
X64662381Y25326429D01*
X64710000Y25421667D01*
X64757619Y25469286D01*
X64852857Y25516905D01*
X64995714Y25516905D01*
X65090952Y25469286D01*
X65138571Y25421667D01*
X65186190Y25326429D01*
X65186190Y24945476D01*
X64757619Y25897857D02*
X64710000Y25945476D01*
X64662381Y26040714D01*
X64662381Y26278810D01*
X64710000Y26374048D01*
X64757619Y26421667D01*
X64852857Y26469286D01*
X64948095Y26469286D01*
X65090952Y26421667D01*
X65662381Y25850238D01*
X65662381Y26469286D01*
X64662381Y27088333D02*
X64662381Y27183572D01*
X64710000Y27278810D01*
X64757619Y27326429D01*
X64852857Y27374048D01*
X65043333Y27421667D01*
X65281429Y27421667D01*
X65471905Y27374048D01*
X65567143Y27326429D01*
X65614762Y27278810D01*
X65662381Y27183572D01*
X65662381Y27088333D01*
X65614762Y26993095D01*
X65567143Y26945476D01*
X65471905Y26897857D01*
X65281429Y26850238D01*
X65043333Y26850238D01*
X64852857Y26897857D01*
X64757619Y26945476D01*
X64710000Y26993095D01*
X64662381Y27088333D01*
X64662381Y27755000D02*
X64662381Y28374048D01*
X65043333Y28040714D01*
X65043333Y28183572D01*
X65090952Y28278810D01*
X65138571Y28326429D01*
X65233810Y28374048D01*
X65471905Y28374048D01*
X65567143Y28326429D01*
X65614762Y28278810D01*
X65662381Y28183572D01*
X65662381Y27897857D01*
X65614762Y27802619D01*
X65567143Y27755000D01*
X-1857619Y53169286D02*
X-1143333Y53169286D01*
X-1000476Y53121666D01*
X-905238Y53026428D01*
X-857619Y52883571D01*
X-857619Y52788333D01*
X-857619Y53645476D02*
X-1857619Y53645476D01*
X-1857619Y54026429D01*
X-1810000Y54121667D01*
X-1762381Y54169286D01*
X-1667143Y54216905D01*
X-1524286Y54216905D01*
X-1429048Y54169286D01*
X-1381429Y54121667D01*
X-1333810Y54026429D01*
X-1333810Y53645476D01*
X-1857619Y54550238D02*
X-1857619Y55216905D01*
X-857619Y54788333D01*
X-1857619Y55788333D02*
X-1857619Y55883572D01*
X-1810000Y55978810D01*
X-1762381Y56026429D01*
X-1667143Y56074048D01*
X-1476667Y56121667D01*
X-1238571Y56121667D01*
X-1048095Y56074048D01*
X-952857Y56026429D01*
X-905238Y55978810D01*
X-857619Y55883572D01*
X-857619Y55788333D01*
X-905238Y55693095D01*
X-952857Y55645476D01*
X-1048095Y55597857D01*
X-1238571Y55550238D01*
X-1476667Y55550238D01*
X-1667143Y55597857D01*
X-1762381Y55645476D01*
X-1810000Y55693095D01*
X-1857619Y55788333D01*
X-857619Y57074048D02*
X-857619Y56502619D01*
X-857619Y56788333D02*
X-1857619Y56788333D01*
X-1714762Y56693095D01*
X-1619524Y56597857D01*
X-1571905Y56502619D01*
D19*
X60695166Y21552833D02*
X60271833Y21552833D01*
X60271833Y22441833D01*
X60906833Y22441833D02*
X61457166Y22441833D01*
X61160833Y22103167D01*
X61287833Y22103167D01*
X61372500Y22060833D01*
X61414833Y22018500D01*
X61457166Y21933833D01*
X61457166Y21722167D01*
X61414833Y21637500D01*
X61372500Y21595167D01*
X61287833Y21552833D01*
X61033833Y21552833D01*
X60949166Y21595167D01*
X60906833Y21637500D01*
X62007500Y22441833D02*
X62092167Y22441833D01*
X62176833Y22399500D01*
X62219167Y22357167D01*
X62261500Y22272500D01*
X62303833Y22103167D01*
X62303833Y21891500D01*
X62261500Y21722167D01*
X62219167Y21637500D01*
X62176833Y21595167D01*
X62092167Y21552833D01*
X62007500Y21552833D01*
X61922833Y21595167D01*
X61880500Y21637500D01*
X61838167Y21722167D01*
X61795833Y21891500D01*
X61795833Y22103167D01*
X61838167Y22272500D01*
X61880500Y22357167D01*
X61922833Y22399500D01*
X62007500Y22441833D01*
X63150500Y21552833D02*
X62642500Y21552833D01*
X62896500Y21552833D02*
X62896500Y22441833D01*
X62811834Y22314833D01*
X62727167Y22230167D01*
X62642500Y22187833D01*
D13*
X62642381Y16335953D02*
X62166190Y16002619D01*
X62642381Y15764524D02*
X61642381Y15764524D01*
X61642381Y16145477D01*
X61690000Y16240715D01*
X61737619Y16288334D01*
X61832857Y16335953D01*
X61975714Y16335953D01*
X62070952Y16288334D01*
X62118571Y16240715D01*
X62166190Y16145477D01*
X62166190Y15764524D01*
X61737619Y16716905D02*
X61690000Y16764524D01*
X61642381Y16859762D01*
X61642381Y17097858D01*
X61690000Y17193096D01*
X61737619Y17240715D01*
X61832857Y17288334D01*
X61928095Y17288334D01*
X62070952Y17240715D01*
X62642381Y16669286D01*
X62642381Y17288334D01*
X61642381Y17907381D02*
X61642381Y18002620D01*
X61690000Y18097858D01*
X61737619Y18145477D01*
X61832857Y18193096D01*
X62023333Y18240715D01*
X62261429Y18240715D01*
X62451905Y18193096D01*
X62547143Y18145477D01*
X62594762Y18097858D01*
X62642381Y18002620D01*
X62642381Y17907381D01*
X62594762Y17812143D01*
X62547143Y17764524D01*
X62451905Y17716905D01*
X62261429Y17669286D01*
X62023333Y17669286D01*
X61832857Y17716905D01*
X61737619Y17764524D01*
X61690000Y17812143D01*
X61642381Y17907381D01*
X62642381Y19193096D02*
X62642381Y18621667D01*
X62642381Y18907381D02*
X61642381Y18907381D01*
X61785238Y18812143D01*
X61880476Y18716905D01*
X61928095Y18621667D01*
X62642381Y12335953D02*
X62166190Y12002619D01*
X62642381Y11764524D02*
X61642381Y11764524D01*
X61642381Y12145477D01*
X61690000Y12240715D01*
X61737619Y12288334D01*
X61832857Y12335953D01*
X61975714Y12335953D01*
X62070952Y12288334D01*
X62118571Y12240715D01*
X62166190Y12145477D01*
X62166190Y11764524D01*
X61737619Y12716905D02*
X61690000Y12764524D01*
X61642381Y12859762D01*
X61642381Y13097858D01*
X61690000Y13193096D01*
X61737619Y13240715D01*
X61832857Y13288334D01*
X61928095Y13288334D01*
X62070952Y13240715D01*
X62642381Y12669286D01*
X62642381Y13288334D01*
X61642381Y13907381D02*
X61642381Y14002620D01*
X61690000Y14097858D01*
X61737619Y14145477D01*
X61832857Y14193096D01*
X62023333Y14240715D01*
X62261429Y14240715D01*
X62451905Y14193096D01*
X62547143Y14145477D01*
X62594762Y14097858D01*
X62642381Y14002620D01*
X62642381Y13907381D01*
X62594762Y13812143D01*
X62547143Y13764524D01*
X62451905Y13716905D01*
X62261429Y13669286D01*
X62023333Y13669286D01*
X61832857Y13716905D01*
X61737619Y13764524D01*
X61690000Y13812143D01*
X61642381Y13907381D01*
X61737619Y14621667D02*
X61690000Y14669286D01*
X61642381Y14764524D01*
X61642381Y15002620D01*
X61690000Y15097858D01*
X61737619Y15145477D01*
X61832857Y15193096D01*
X61928095Y15193096D01*
X62070952Y15145477D01*
X62642381Y14574048D01*
X62642381Y15193096D01*
X73642381Y33835953D02*
X73166190Y33502619D01*
X73642381Y33264524D02*
X72642381Y33264524D01*
X72642381Y33645477D01*
X72690000Y33740715D01*
X72737619Y33788334D01*
X72832857Y33835953D01*
X72975714Y33835953D01*
X73070952Y33788334D01*
X73118571Y33740715D01*
X73166190Y33645477D01*
X73166190Y33264524D01*
X72737619Y34216905D02*
X72690000Y34264524D01*
X72642381Y34359762D01*
X72642381Y34597858D01*
X72690000Y34693096D01*
X72737619Y34740715D01*
X72832857Y34788334D01*
X72928095Y34788334D01*
X73070952Y34740715D01*
X73642381Y34169286D01*
X73642381Y34788334D01*
X72642381Y35407381D02*
X72642381Y35502620D01*
X72690000Y35597858D01*
X72737619Y35645477D01*
X72832857Y35693096D01*
X73023333Y35740715D01*
X73261429Y35740715D01*
X73451905Y35693096D01*
X73547143Y35645477D01*
X73594762Y35597858D01*
X73642381Y35502620D01*
X73642381Y35407381D01*
X73594762Y35312143D01*
X73547143Y35264524D01*
X73451905Y35216905D01*
X73261429Y35169286D01*
X73023333Y35169286D01*
X72832857Y35216905D01*
X72737619Y35264524D01*
X72690000Y35312143D01*
X72642381Y35407381D01*
X72642381Y36074048D02*
X72642381Y36693096D01*
X73023333Y36359762D01*
X73023333Y36502620D01*
X73070952Y36597858D01*
X73118571Y36645477D01*
X73213810Y36693096D01*
X73451905Y36693096D01*
X73547143Y36645477D01*
X73594762Y36597858D01*
X73642381Y36502620D01*
X73642381Y36216905D01*
X73594762Y36121667D01*
X73547143Y36074048D01*
X71642381Y43335953D02*
X71166190Y43002619D01*
X71642381Y42764524D02*
X70642381Y42764524D01*
X70642381Y43145477D01*
X70690000Y43240715D01*
X70737619Y43288334D01*
X70832857Y43335953D01*
X70975714Y43335953D01*
X71070952Y43288334D01*
X71118571Y43240715D01*
X71166190Y43145477D01*
X71166190Y42764524D01*
X70737619Y43716905D02*
X70690000Y43764524D01*
X70642381Y43859762D01*
X70642381Y44097858D01*
X70690000Y44193096D01*
X70737619Y44240715D01*
X70832857Y44288334D01*
X70928095Y44288334D01*
X71070952Y44240715D01*
X71642381Y43669286D01*
X71642381Y44288334D01*
X70642381Y44907381D02*
X70642381Y45002620D01*
X70690000Y45097858D01*
X70737619Y45145477D01*
X70832857Y45193096D01*
X71023333Y45240715D01*
X71261429Y45240715D01*
X71451905Y45193096D01*
X71547143Y45145477D01*
X71594762Y45097858D01*
X71642381Y45002620D01*
X71642381Y44907381D01*
X71594762Y44812143D01*
X71547143Y44764524D01*
X71451905Y44716905D01*
X71261429Y44669286D01*
X71023333Y44669286D01*
X70832857Y44716905D01*
X70737619Y44764524D01*
X70690000Y44812143D01*
X70642381Y44907381D01*
X70975714Y46097858D02*
X71642381Y46097858D01*
X70594762Y45859762D02*
X71309048Y45621667D01*
X71309048Y46240715D01*
X71642381Y33835953D02*
X71166190Y33502619D01*
X71642381Y33264524D02*
X70642381Y33264524D01*
X70642381Y33645477D01*
X70690000Y33740715D01*
X70737619Y33788334D01*
X70832857Y33835953D01*
X70975714Y33835953D01*
X71070952Y33788334D01*
X71118571Y33740715D01*
X71166190Y33645477D01*
X71166190Y33264524D01*
X70737619Y34216905D02*
X70690000Y34264524D01*
X70642381Y34359762D01*
X70642381Y34597858D01*
X70690000Y34693096D01*
X70737619Y34740715D01*
X70832857Y34788334D01*
X70928095Y34788334D01*
X71070952Y34740715D01*
X71642381Y34169286D01*
X71642381Y34788334D01*
X70642381Y35407381D02*
X70642381Y35502620D01*
X70690000Y35597858D01*
X70737619Y35645477D01*
X70832857Y35693096D01*
X71023333Y35740715D01*
X71261429Y35740715D01*
X71451905Y35693096D01*
X71547143Y35645477D01*
X71594762Y35597858D01*
X71642381Y35502620D01*
X71642381Y35407381D01*
X71594762Y35312143D01*
X71547143Y35264524D01*
X71451905Y35216905D01*
X71261429Y35169286D01*
X71023333Y35169286D01*
X70832857Y35216905D01*
X70737619Y35264524D01*
X70690000Y35312143D01*
X70642381Y35407381D01*
X70642381Y36645477D02*
X70642381Y36169286D01*
X71118571Y36121667D01*
X71070952Y36169286D01*
X71023333Y36264524D01*
X71023333Y36502620D01*
X71070952Y36597858D01*
X71118571Y36645477D01*
X71213810Y36693096D01*
X71451905Y36693096D01*
X71547143Y36645477D01*
X71594762Y36597858D01*
X71642381Y36502620D01*
X71642381Y36264524D01*
X71594762Y36169286D01*
X71547143Y36121667D01*
X49142381Y5835953D02*
X48666190Y5502619D01*
X49142381Y5264524D02*
X48142381Y5264524D01*
X48142381Y5645477D01*
X48190000Y5740715D01*
X48237619Y5788334D01*
X48332857Y5835953D01*
X48475714Y5835953D01*
X48570952Y5788334D01*
X48618571Y5740715D01*
X48666190Y5645477D01*
X48666190Y5264524D01*
X48142381Y6169286D02*
X48142381Y6788334D01*
X48523333Y6455000D01*
X48523333Y6597858D01*
X48570952Y6693096D01*
X48618571Y6740715D01*
X48713810Y6788334D01*
X48951905Y6788334D01*
X49047143Y6740715D01*
X49094762Y6693096D01*
X49142381Y6597858D01*
X49142381Y6312143D01*
X49094762Y6216905D01*
X49047143Y6169286D01*
X48142381Y7407381D02*
X48142381Y7502620D01*
X48190000Y7597858D01*
X48237619Y7645477D01*
X48332857Y7693096D01*
X48523333Y7740715D01*
X48761429Y7740715D01*
X48951905Y7693096D01*
X49047143Y7645477D01*
X49094762Y7597858D01*
X49142381Y7502620D01*
X49142381Y7407381D01*
X49094762Y7312143D01*
X49047143Y7264524D01*
X48951905Y7216905D01*
X48761429Y7169286D01*
X48523333Y7169286D01*
X48332857Y7216905D01*
X48237619Y7264524D01*
X48190000Y7312143D01*
X48142381Y7407381D01*
X49142381Y8693096D02*
X49142381Y8121667D01*
X49142381Y8407381D02*
X48142381Y8407381D01*
X48285238Y8312143D01*
X48380476Y8216905D01*
X48428095Y8121667D01*
X42142381Y6335953D02*
X41666190Y6002619D01*
X42142381Y5764524D02*
X41142381Y5764524D01*
X41142381Y6145477D01*
X41190000Y6240715D01*
X41237619Y6288334D01*
X41332857Y6335953D01*
X41475714Y6335953D01*
X41570952Y6288334D01*
X41618571Y6240715D01*
X41666190Y6145477D01*
X41666190Y5764524D01*
X41142381Y6669286D02*
X41142381Y7288334D01*
X41523333Y6955000D01*
X41523333Y7097858D01*
X41570952Y7193096D01*
X41618571Y7240715D01*
X41713810Y7288334D01*
X41951905Y7288334D01*
X42047143Y7240715D01*
X42094762Y7193096D01*
X42142381Y7097858D01*
X42142381Y6812143D01*
X42094762Y6716905D01*
X42047143Y6669286D01*
X41142381Y7907381D02*
X41142381Y8002620D01*
X41190000Y8097858D01*
X41237619Y8145477D01*
X41332857Y8193096D01*
X41523333Y8240715D01*
X41761429Y8240715D01*
X41951905Y8193096D01*
X42047143Y8145477D01*
X42094762Y8097858D01*
X42142381Y8002620D01*
X42142381Y7907381D01*
X42094762Y7812143D01*
X42047143Y7764524D01*
X41951905Y7716905D01*
X41761429Y7669286D01*
X41523333Y7669286D01*
X41332857Y7716905D01*
X41237619Y7764524D01*
X41190000Y7812143D01*
X41142381Y7907381D01*
X41142381Y8574048D02*
X41142381Y9193096D01*
X41523333Y8859762D01*
X41523333Y9002620D01*
X41570952Y9097858D01*
X41618571Y9145477D01*
X41713810Y9193096D01*
X41951905Y9193096D01*
X42047143Y9145477D01*
X42094762Y9097858D01*
X42142381Y9002620D01*
X42142381Y8716905D01*
X42094762Y8621667D01*
X42047143Y8574048D01*
X38142381Y6335953D02*
X37666190Y6002619D01*
X38142381Y5764524D02*
X37142381Y5764524D01*
X37142381Y6145477D01*
X37190000Y6240715D01*
X37237619Y6288334D01*
X37332857Y6335953D01*
X37475714Y6335953D01*
X37570952Y6288334D01*
X37618571Y6240715D01*
X37666190Y6145477D01*
X37666190Y5764524D01*
X37142381Y6669286D02*
X37142381Y7288334D01*
X37523333Y6955000D01*
X37523333Y7097858D01*
X37570952Y7193096D01*
X37618571Y7240715D01*
X37713810Y7288334D01*
X37951905Y7288334D01*
X38047143Y7240715D01*
X38094762Y7193096D01*
X38142381Y7097858D01*
X38142381Y6812143D01*
X38094762Y6716905D01*
X38047143Y6669286D01*
X37142381Y7907381D02*
X37142381Y8002620D01*
X37190000Y8097858D01*
X37237619Y8145477D01*
X37332857Y8193096D01*
X37523333Y8240715D01*
X37761429Y8240715D01*
X37951905Y8193096D01*
X38047143Y8145477D01*
X38094762Y8097858D01*
X38142381Y8002620D01*
X38142381Y7907381D01*
X38094762Y7812143D01*
X38047143Y7764524D01*
X37951905Y7716905D01*
X37761429Y7669286D01*
X37523333Y7669286D01*
X37332857Y7716905D01*
X37237619Y7764524D01*
X37190000Y7812143D01*
X37142381Y7907381D01*
X37142381Y9145477D02*
X37142381Y8669286D01*
X37618571Y8621667D01*
X37570952Y8669286D01*
X37523333Y8764524D01*
X37523333Y9002620D01*
X37570952Y9097858D01*
X37618571Y9145477D01*
X37713810Y9193096D01*
X37951905Y9193096D01*
X38047143Y9145477D01*
X38094762Y9097858D01*
X38142381Y9002620D01*
X38142381Y8764524D01*
X38094762Y8669286D01*
X38047143Y8621667D01*
X77142381Y42835953D02*
X76666190Y42502619D01*
X77142381Y42264524D02*
X76142381Y42264524D01*
X76142381Y42645477D01*
X76190000Y42740715D01*
X76237619Y42788334D01*
X76332857Y42835953D01*
X76475714Y42835953D01*
X76570952Y42788334D01*
X76618571Y42740715D01*
X76666190Y42645477D01*
X76666190Y42264524D01*
X76142381Y43169286D02*
X76142381Y43788334D01*
X76523333Y43455000D01*
X76523333Y43597858D01*
X76570952Y43693096D01*
X76618571Y43740715D01*
X76713810Y43788334D01*
X76951905Y43788334D01*
X77047143Y43740715D01*
X77094762Y43693096D01*
X77142381Y43597858D01*
X77142381Y43312143D01*
X77094762Y43216905D01*
X77047143Y43169286D01*
X76142381Y44407381D02*
X76142381Y44502620D01*
X76190000Y44597858D01*
X76237619Y44645477D01*
X76332857Y44693096D01*
X76523333Y44740715D01*
X76761429Y44740715D01*
X76951905Y44693096D01*
X77047143Y44645477D01*
X77094762Y44597858D01*
X77142381Y44502620D01*
X77142381Y44407381D01*
X77094762Y44312143D01*
X77047143Y44264524D01*
X76951905Y44216905D01*
X76761429Y44169286D01*
X76523333Y44169286D01*
X76332857Y44216905D01*
X76237619Y44264524D01*
X76190000Y44312143D01*
X76142381Y44407381D01*
X76142381Y45597858D02*
X76142381Y45407381D01*
X76190000Y45312143D01*
X76237619Y45264524D01*
X76380476Y45169286D01*
X76570952Y45121667D01*
X76951905Y45121667D01*
X77047143Y45169286D01*
X77094762Y45216905D01*
X77142381Y45312143D01*
X77142381Y45502620D01*
X77094762Y45597858D01*
X77047143Y45645477D01*
X76951905Y45693096D01*
X76713810Y45693096D01*
X76618571Y45645477D01*
X76570952Y45597858D01*
X76523333Y45502620D01*
X76523333Y45312143D01*
X76570952Y45216905D01*
X76618571Y45169286D01*
X76713810Y45121667D01*
X76142381Y36335953D02*
X75666190Y36002619D01*
X76142381Y35764524D02*
X75142381Y35764524D01*
X75142381Y36145477D01*
X75190000Y36240715D01*
X75237619Y36288334D01*
X75332857Y36335953D01*
X75475714Y36335953D01*
X75570952Y36288334D01*
X75618571Y36240715D01*
X75666190Y36145477D01*
X75666190Y35764524D01*
X75142381Y36669286D02*
X75142381Y37288334D01*
X75523333Y36955000D01*
X75523333Y37097858D01*
X75570952Y37193096D01*
X75618571Y37240715D01*
X75713810Y37288334D01*
X75951905Y37288334D01*
X76047143Y37240715D01*
X76094762Y37193096D01*
X76142381Y37097858D01*
X76142381Y36812143D01*
X76094762Y36716905D01*
X76047143Y36669286D01*
X75142381Y37907381D02*
X75142381Y38002620D01*
X75190000Y38097858D01*
X75237619Y38145477D01*
X75332857Y38193096D01*
X75523333Y38240715D01*
X75761429Y38240715D01*
X75951905Y38193096D01*
X76047143Y38145477D01*
X76094762Y38097858D01*
X76142381Y38002620D01*
X76142381Y37907381D01*
X76094762Y37812143D01*
X76047143Y37764524D01*
X75951905Y37716905D01*
X75761429Y37669286D01*
X75523333Y37669286D01*
X75332857Y37716905D01*
X75237619Y37764524D01*
X75190000Y37812143D01*
X75142381Y37907381D01*
X75142381Y38574048D02*
X75142381Y39240715D01*
X76142381Y38812143D01*
X61070953Y31002619D02*
X60737619Y31478810D01*
X60499524Y31002619D02*
X60499524Y32002619D01*
X60880477Y32002619D01*
X60975715Y31955000D01*
X61023334Y31907381D01*
X61070953Y31812143D01*
X61070953Y31669286D01*
X61023334Y31574048D01*
X60975715Y31526429D01*
X60880477Y31478810D01*
X60499524Y31478810D01*
X61404286Y32002619D02*
X62023334Y32002619D01*
X61690000Y31621667D01*
X61832858Y31621667D01*
X61928096Y31574048D01*
X61975715Y31526429D01*
X62023334Y31431190D01*
X62023334Y31193095D01*
X61975715Y31097857D01*
X61928096Y31050238D01*
X61832858Y31002619D01*
X61547143Y31002619D01*
X61451905Y31050238D01*
X61404286Y31097857D01*
X62642381Y32002619D02*
X62737620Y32002619D01*
X62832858Y31955000D01*
X62880477Y31907381D01*
X62928096Y31812143D01*
X62975715Y31621667D01*
X62975715Y31383571D01*
X62928096Y31193095D01*
X62880477Y31097857D01*
X62832858Y31050238D01*
X62737620Y31002619D01*
X62642381Y31002619D01*
X62547143Y31050238D01*
X62499524Y31097857D01*
X62451905Y31193095D01*
X62404286Y31383571D01*
X62404286Y31621667D01*
X62451905Y31812143D01*
X62499524Y31907381D01*
X62547143Y31955000D01*
X62642381Y32002619D01*
X63547143Y31574048D02*
X63451905Y31621667D01*
X63404286Y31669286D01*
X63356667Y31764524D01*
X63356667Y31812143D01*
X63404286Y31907381D01*
X63451905Y31955000D01*
X63547143Y32002619D01*
X63737620Y32002619D01*
X63832858Y31955000D01*
X63880477Y31907381D01*
X63928096Y31812143D01*
X63928096Y31764524D01*
X63880477Y31669286D01*
X63832858Y31621667D01*
X63737620Y31574048D01*
X63547143Y31574048D01*
X63451905Y31526429D01*
X63404286Y31478810D01*
X63356667Y31383571D01*
X63356667Y31193095D01*
X63404286Y31097857D01*
X63451905Y31050238D01*
X63547143Y31002619D01*
X63737620Y31002619D01*
X63832858Y31050238D01*
X63880477Y31097857D01*
X63928096Y31193095D01*
X63928096Y31383571D01*
X63880477Y31478810D01*
X63832858Y31526429D01*
X63737620Y31574048D01*
X68070953Y30002619D02*
X67737619Y30478810D01*
X67499524Y30002619D02*
X67499524Y31002619D01*
X67880477Y31002619D01*
X67975715Y30955000D01*
X68023334Y30907381D01*
X68070953Y30812143D01*
X68070953Y30669286D01*
X68023334Y30574048D01*
X67975715Y30526429D01*
X67880477Y30478810D01*
X67499524Y30478810D01*
X68404286Y31002619D02*
X69023334Y31002619D01*
X68690000Y30621667D01*
X68832858Y30621667D01*
X68928096Y30574048D01*
X68975715Y30526429D01*
X69023334Y30431190D01*
X69023334Y30193095D01*
X68975715Y30097857D01*
X68928096Y30050238D01*
X68832858Y30002619D01*
X68547143Y30002619D01*
X68451905Y30050238D01*
X68404286Y30097857D01*
X69642381Y31002619D02*
X69737620Y31002619D01*
X69832858Y30955000D01*
X69880477Y30907381D01*
X69928096Y30812143D01*
X69975715Y30621667D01*
X69975715Y30383571D01*
X69928096Y30193095D01*
X69880477Y30097857D01*
X69832858Y30050238D01*
X69737620Y30002619D01*
X69642381Y30002619D01*
X69547143Y30050238D01*
X69499524Y30097857D01*
X69451905Y30193095D01*
X69404286Y30383571D01*
X69404286Y30621667D01*
X69451905Y30812143D01*
X69499524Y30907381D01*
X69547143Y30955000D01*
X69642381Y31002619D01*
X70451905Y30002619D02*
X70642381Y30002619D01*
X70737620Y30050238D01*
X70785239Y30097857D01*
X70880477Y30240714D01*
X70928096Y30431190D01*
X70928096Y30812143D01*
X70880477Y30907381D01*
X70832858Y30955000D01*
X70737620Y31002619D01*
X70547143Y31002619D01*
X70451905Y30955000D01*
X70404286Y30907381D01*
X70356667Y30812143D01*
X70356667Y30574048D01*
X70404286Y30478810D01*
X70451905Y30431190D01*
X70547143Y30383571D01*
X70737620Y30383571D01*
X70832858Y30431190D01*
X70880477Y30478810D01*
X70928096Y30574048D01*
X31670953Y48602619D02*
X31337619Y49078810D01*
X31099524Y48602619D02*
X31099524Y49602619D01*
X31480477Y49602619D01*
X31575715Y49555000D01*
X31623334Y49507381D01*
X31670953Y49412143D01*
X31670953Y49269286D01*
X31623334Y49174048D01*
X31575715Y49126429D01*
X31480477Y49078810D01*
X31099524Y49078810D01*
X32575715Y49602619D02*
X32099524Y49602619D01*
X32051905Y49126429D01*
X32099524Y49174048D01*
X32194762Y49221667D01*
X32432858Y49221667D01*
X32528096Y49174048D01*
X32575715Y49126429D01*
X32623334Y49031190D01*
X32623334Y48793095D01*
X32575715Y48697857D01*
X32528096Y48650238D01*
X32432858Y48602619D01*
X32194762Y48602619D01*
X32099524Y48650238D01*
X32051905Y48697857D01*
X33242381Y49602619D02*
X33337620Y49602619D01*
X33432858Y49555000D01*
X33480477Y49507381D01*
X33528096Y49412143D01*
X33575715Y49221667D01*
X33575715Y48983571D01*
X33528096Y48793095D01*
X33480477Y48697857D01*
X33432858Y48650238D01*
X33337620Y48602619D01*
X33242381Y48602619D01*
X33147143Y48650238D01*
X33099524Y48697857D01*
X33051905Y48793095D01*
X33004286Y48983571D01*
X33004286Y49221667D01*
X33051905Y49412143D01*
X33099524Y49507381D01*
X33147143Y49555000D01*
X33242381Y49602619D01*
X34528096Y48602619D02*
X33956667Y48602619D01*
X34242381Y48602619D02*
X34242381Y49602619D01*
X34147143Y49459762D01*
X34051905Y49364524D01*
X33956667Y49316905D01*
X61162381Y3385953D02*
X60686190Y3052619D01*
X61162381Y2814524D02*
X60162381Y2814524D01*
X60162381Y3195477D01*
X60210000Y3290715D01*
X60257619Y3338334D01*
X60352857Y3385953D01*
X60495714Y3385953D01*
X60590952Y3338334D01*
X60638571Y3290715D01*
X60686190Y3195477D01*
X60686190Y2814524D01*
X60162381Y4290715D02*
X60162381Y3814524D01*
X60638571Y3766905D01*
X60590952Y3814524D01*
X60543333Y3909762D01*
X60543333Y4147858D01*
X60590952Y4243096D01*
X60638571Y4290715D01*
X60733810Y4338334D01*
X60971905Y4338334D01*
X61067143Y4290715D01*
X61114762Y4243096D01*
X61162381Y4147858D01*
X61162381Y3909762D01*
X61114762Y3814524D01*
X61067143Y3766905D01*
X60162381Y4957381D02*
X60162381Y5052620D01*
X60210000Y5147858D01*
X60257619Y5195477D01*
X60352857Y5243096D01*
X60543333Y5290715D01*
X60781429Y5290715D01*
X60971905Y5243096D01*
X61067143Y5195477D01*
X61114762Y5147858D01*
X61162381Y5052620D01*
X61162381Y4957381D01*
X61114762Y4862143D01*
X61067143Y4814524D01*
X60971905Y4766905D01*
X60781429Y4719286D01*
X60543333Y4719286D01*
X60352857Y4766905D01*
X60257619Y4814524D01*
X60210000Y4862143D01*
X60162381Y4957381D01*
X60257619Y5671667D02*
X60210000Y5719286D01*
X60162381Y5814524D01*
X60162381Y6052620D01*
X60210000Y6147858D01*
X60257619Y6195477D01*
X60352857Y6243096D01*
X60448095Y6243096D01*
X60590952Y6195477D01*
X61162381Y5624048D01*
X61162381Y6243096D01*
X29142381Y26835953D02*
X28666190Y26502619D01*
X29142381Y26264524D02*
X28142381Y26264524D01*
X28142381Y26645477D01*
X28190000Y26740715D01*
X28237619Y26788334D01*
X28332857Y26835953D01*
X28475714Y26835953D01*
X28570952Y26788334D01*
X28618571Y26740715D01*
X28666190Y26645477D01*
X28666190Y26264524D01*
X28142381Y27693096D02*
X28142381Y27502619D01*
X28190000Y27407381D01*
X28237619Y27359762D01*
X28380476Y27264524D01*
X28570952Y27216905D01*
X28951905Y27216905D01*
X29047143Y27264524D01*
X29094762Y27312143D01*
X29142381Y27407381D01*
X29142381Y27597858D01*
X29094762Y27693096D01*
X29047143Y27740715D01*
X28951905Y27788334D01*
X28713810Y27788334D01*
X28618571Y27740715D01*
X28570952Y27693096D01*
X28523333Y27597858D01*
X28523333Y27407381D01*
X28570952Y27312143D01*
X28618571Y27264524D01*
X28713810Y27216905D01*
X28142381Y28407381D02*
X28142381Y28502620D01*
X28190000Y28597858D01*
X28237619Y28645477D01*
X28332857Y28693096D01*
X28523333Y28740715D01*
X28761429Y28740715D01*
X28951905Y28693096D01*
X29047143Y28645477D01*
X29094762Y28597858D01*
X29142381Y28502620D01*
X29142381Y28407381D01*
X29094762Y28312143D01*
X29047143Y28264524D01*
X28951905Y28216905D01*
X28761429Y28169286D01*
X28523333Y28169286D01*
X28332857Y28216905D01*
X28237619Y28264524D01*
X28190000Y28312143D01*
X28142381Y28407381D01*
X29142381Y29693096D02*
X29142381Y29121667D01*
X29142381Y29407381D02*
X28142381Y29407381D01*
X28285238Y29312143D01*
X28380476Y29216905D01*
X28428095Y29121667D01*
X11142381Y26835953D02*
X10666190Y26502619D01*
X11142381Y26264524D02*
X10142381Y26264524D01*
X10142381Y26645477D01*
X10190000Y26740715D01*
X10237619Y26788334D01*
X10332857Y26835953D01*
X10475714Y26835953D01*
X10570952Y26788334D01*
X10618571Y26740715D01*
X10666190Y26645477D01*
X10666190Y26264524D01*
X10142381Y27693096D02*
X10142381Y27502619D01*
X10190000Y27407381D01*
X10237619Y27359762D01*
X10380476Y27264524D01*
X10570952Y27216905D01*
X10951905Y27216905D01*
X11047143Y27264524D01*
X11094762Y27312143D01*
X11142381Y27407381D01*
X11142381Y27597858D01*
X11094762Y27693096D01*
X11047143Y27740715D01*
X10951905Y27788334D01*
X10713810Y27788334D01*
X10618571Y27740715D01*
X10570952Y27693096D01*
X10523333Y27597858D01*
X10523333Y27407381D01*
X10570952Y27312143D01*
X10618571Y27264524D01*
X10713810Y27216905D01*
X10142381Y28407381D02*
X10142381Y28502620D01*
X10190000Y28597858D01*
X10237619Y28645477D01*
X10332857Y28693096D01*
X10523333Y28740715D01*
X10761429Y28740715D01*
X10951905Y28693096D01*
X11047143Y28645477D01*
X11094762Y28597858D01*
X11142381Y28502620D01*
X11142381Y28407381D01*
X11094762Y28312143D01*
X11047143Y28264524D01*
X10951905Y28216905D01*
X10761429Y28169286D01*
X10523333Y28169286D01*
X10332857Y28216905D01*
X10237619Y28264524D01*
X10190000Y28312143D01*
X10142381Y28407381D01*
X10237619Y29121667D02*
X10190000Y29169286D01*
X10142381Y29264524D01*
X10142381Y29502620D01*
X10190000Y29597858D01*
X10237619Y29645477D01*
X10332857Y29693096D01*
X10428095Y29693096D01*
X10570952Y29645477D01*
X11142381Y29074048D01*
X11142381Y29693096D01*
X17642381Y28835953D02*
X17166190Y28502619D01*
X17642381Y28264524D02*
X16642381Y28264524D01*
X16642381Y28645477D01*
X16690000Y28740715D01*
X16737619Y28788334D01*
X16832857Y28835953D01*
X16975714Y28835953D01*
X17070952Y28788334D01*
X17118571Y28740715D01*
X17166190Y28645477D01*
X17166190Y28264524D01*
X16642381Y29693096D02*
X16642381Y29502619D01*
X16690000Y29407381D01*
X16737619Y29359762D01*
X16880476Y29264524D01*
X17070952Y29216905D01*
X17451905Y29216905D01*
X17547143Y29264524D01*
X17594762Y29312143D01*
X17642381Y29407381D01*
X17642381Y29597858D01*
X17594762Y29693096D01*
X17547143Y29740715D01*
X17451905Y29788334D01*
X17213810Y29788334D01*
X17118571Y29740715D01*
X17070952Y29693096D01*
X17023333Y29597858D01*
X17023333Y29407381D01*
X17070952Y29312143D01*
X17118571Y29264524D01*
X17213810Y29216905D01*
X16642381Y30407381D02*
X16642381Y30502620D01*
X16690000Y30597858D01*
X16737619Y30645477D01*
X16832857Y30693096D01*
X17023333Y30740715D01*
X17261429Y30740715D01*
X17451905Y30693096D01*
X17547143Y30645477D01*
X17594762Y30597858D01*
X17642381Y30502620D01*
X17642381Y30407381D01*
X17594762Y30312143D01*
X17547143Y30264524D01*
X17451905Y30216905D01*
X17261429Y30169286D01*
X17023333Y30169286D01*
X16832857Y30216905D01*
X16737619Y30264524D01*
X16690000Y30312143D01*
X16642381Y30407381D01*
X16642381Y31074048D02*
X16642381Y31693096D01*
X17023333Y31359762D01*
X17023333Y31502620D01*
X17070952Y31597858D01*
X17118571Y31645477D01*
X17213810Y31693096D01*
X17451905Y31693096D01*
X17547143Y31645477D01*
X17594762Y31597858D01*
X17642381Y31502620D01*
X17642381Y31216905D01*
X17594762Y31121667D01*
X17547143Y31074048D01*
X22642381Y19835953D02*
X22166190Y19502619D01*
X22642381Y19264524D02*
X21642381Y19264524D01*
X21642381Y19645477D01*
X21690000Y19740715D01*
X21737619Y19788334D01*
X21832857Y19835953D01*
X21975714Y19835953D01*
X22070952Y19788334D01*
X22118571Y19740715D01*
X22166190Y19645477D01*
X22166190Y19264524D01*
X21642381Y20693096D02*
X21642381Y20502619D01*
X21690000Y20407381D01*
X21737619Y20359762D01*
X21880476Y20264524D01*
X22070952Y20216905D01*
X22451905Y20216905D01*
X22547143Y20264524D01*
X22594762Y20312143D01*
X22642381Y20407381D01*
X22642381Y20597858D01*
X22594762Y20693096D01*
X22547143Y20740715D01*
X22451905Y20788334D01*
X22213810Y20788334D01*
X22118571Y20740715D01*
X22070952Y20693096D01*
X22023333Y20597858D01*
X22023333Y20407381D01*
X22070952Y20312143D01*
X22118571Y20264524D01*
X22213810Y20216905D01*
X21642381Y21407381D02*
X21642381Y21502620D01*
X21690000Y21597858D01*
X21737619Y21645477D01*
X21832857Y21693096D01*
X22023333Y21740715D01*
X22261429Y21740715D01*
X22451905Y21693096D01*
X22547143Y21645477D01*
X22594762Y21597858D01*
X22642381Y21502620D01*
X22642381Y21407381D01*
X22594762Y21312143D01*
X22547143Y21264524D01*
X22451905Y21216905D01*
X22261429Y21169286D01*
X22023333Y21169286D01*
X21832857Y21216905D01*
X21737619Y21264524D01*
X21690000Y21312143D01*
X21642381Y21407381D01*
X21975714Y22597858D02*
X22642381Y22597858D01*
X21594762Y22359762D02*
X22309048Y22121667D01*
X22309048Y22740715D01*
X26642381Y26835953D02*
X26166190Y26502619D01*
X26642381Y26264524D02*
X25642381Y26264524D01*
X25642381Y26645477D01*
X25690000Y26740715D01*
X25737619Y26788334D01*
X25832857Y26835953D01*
X25975714Y26835953D01*
X26070952Y26788334D01*
X26118571Y26740715D01*
X26166190Y26645477D01*
X26166190Y26264524D01*
X25642381Y27693096D02*
X25642381Y27502619D01*
X25690000Y27407381D01*
X25737619Y27359762D01*
X25880476Y27264524D01*
X26070952Y27216905D01*
X26451905Y27216905D01*
X26547143Y27264524D01*
X26594762Y27312143D01*
X26642381Y27407381D01*
X26642381Y27597858D01*
X26594762Y27693096D01*
X26547143Y27740715D01*
X26451905Y27788334D01*
X26213810Y27788334D01*
X26118571Y27740715D01*
X26070952Y27693096D01*
X26023333Y27597858D01*
X26023333Y27407381D01*
X26070952Y27312143D01*
X26118571Y27264524D01*
X26213810Y27216905D01*
X25642381Y28407381D02*
X25642381Y28502620D01*
X25690000Y28597858D01*
X25737619Y28645477D01*
X25832857Y28693096D01*
X26023333Y28740715D01*
X26261429Y28740715D01*
X26451905Y28693096D01*
X26547143Y28645477D01*
X26594762Y28597858D01*
X26642381Y28502620D01*
X26642381Y28407381D01*
X26594762Y28312143D01*
X26547143Y28264524D01*
X26451905Y28216905D01*
X26261429Y28169286D01*
X26023333Y28169286D01*
X25832857Y28216905D01*
X25737619Y28264524D01*
X25690000Y28312143D01*
X25642381Y28407381D01*
X25642381Y29645477D02*
X25642381Y29169286D01*
X26118571Y29121667D01*
X26070952Y29169286D01*
X26023333Y29264524D01*
X26023333Y29502620D01*
X26070952Y29597858D01*
X26118571Y29645477D01*
X26213810Y29693096D01*
X26451905Y29693096D01*
X26547143Y29645477D01*
X26594762Y29597858D01*
X26642381Y29502620D01*
X26642381Y29264524D01*
X26594762Y29169286D01*
X26547143Y29121667D01*
X13642381Y26835953D02*
X13166190Y26502619D01*
X13642381Y26264524D02*
X12642381Y26264524D01*
X12642381Y26645477D01*
X12690000Y26740715D01*
X12737619Y26788334D01*
X12832857Y26835953D01*
X12975714Y26835953D01*
X13070952Y26788334D01*
X13118571Y26740715D01*
X13166190Y26645477D01*
X13166190Y26264524D01*
X12642381Y27693096D02*
X12642381Y27502619D01*
X12690000Y27407381D01*
X12737619Y27359762D01*
X12880476Y27264524D01*
X13070952Y27216905D01*
X13451905Y27216905D01*
X13547143Y27264524D01*
X13594762Y27312143D01*
X13642381Y27407381D01*
X13642381Y27597858D01*
X13594762Y27693096D01*
X13547143Y27740715D01*
X13451905Y27788334D01*
X13213810Y27788334D01*
X13118571Y27740715D01*
X13070952Y27693096D01*
X13023333Y27597858D01*
X13023333Y27407381D01*
X13070952Y27312143D01*
X13118571Y27264524D01*
X13213810Y27216905D01*
X12642381Y28407381D02*
X12642381Y28502620D01*
X12690000Y28597858D01*
X12737619Y28645477D01*
X12832857Y28693096D01*
X13023333Y28740715D01*
X13261429Y28740715D01*
X13451905Y28693096D01*
X13547143Y28645477D01*
X13594762Y28597858D01*
X13642381Y28502620D01*
X13642381Y28407381D01*
X13594762Y28312143D01*
X13547143Y28264524D01*
X13451905Y28216905D01*
X13261429Y28169286D01*
X13023333Y28169286D01*
X12832857Y28216905D01*
X12737619Y28264524D01*
X12690000Y28312143D01*
X12642381Y28407381D01*
X12642381Y29597858D02*
X12642381Y29407381D01*
X12690000Y29312143D01*
X12737619Y29264524D01*
X12880476Y29169286D01*
X13070952Y29121667D01*
X13451905Y29121667D01*
X13547143Y29169286D01*
X13594762Y29216905D01*
X13642381Y29312143D01*
X13642381Y29502620D01*
X13594762Y29597858D01*
X13547143Y29645477D01*
X13451905Y29693096D01*
X13213810Y29693096D01*
X13118571Y29645477D01*
X13070952Y29597858D01*
X13023333Y29502620D01*
X13023333Y29312143D01*
X13070952Y29216905D01*
X13118571Y29169286D01*
X13213810Y29121667D01*
X12142381Y19415953D02*
X11666190Y19082619D01*
X12142381Y18844524D02*
X11142381Y18844524D01*
X11142381Y19225477D01*
X11190000Y19320715D01*
X11237619Y19368334D01*
X11332857Y19415953D01*
X11475714Y19415953D01*
X11570952Y19368334D01*
X11618571Y19320715D01*
X11666190Y19225477D01*
X11666190Y18844524D01*
X11142381Y20273096D02*
X11142381Y20082619D01*
X11190000Y19987381D01*
X11237619Y19939762D01*
X11380476Y19844524D01*
X11570952Y19796905D01*
X11951905Y19796905D01*
X12047143Y19844524D01*
X12094762Y19892143D01*
X12142381Y19987381D01*
X12142381Y20177858D01*
X12094762Y20273096D01*
X12047143Y20320715D01*
X11951905Y20368334D01*
X11713810Y20368334D01*
X11618571Y20320715D01*
X11570952Y20273096D01*
X11523333Y20177858D01*
X11523333Y19987381D01*
X11570952Y19892143D01*
X11618571Y19844524D01*
X11713810Y19796905D01*
X11142381Y20987381D02*
X11142381Y21082620D01*
X11190000Y21177858D01*
X11237619Y21225477D01*
X11332857Y21273096D01*
X11523333Y21320715D01*
X11761429Y21320715D01*
X11951905Y21273096D01*
X12047143Y21225477D01*
X12094762Y21177858D01*
X12142381Y21082620D01*
X12142381Y20987381D01*
X12094762Y20892143D01*
X12047143Y20844524D01*
X11951905Y20796905D01*
X11761429Y20749286D01*
X11523333Y20749286D01*
X11332857Y20796905D01*
X11237619Y20844524D01*
X11190000Y20892143D01*
X11142381Y20987381D01*
X11142381Y21654048D02*
X11142381Y22320715D01*
X12142381Y21892143D01*
X26642381Y15835953D02*
X26166190Y15502619D01*
X26642381Y15264524D02*
X25642381Y15264524D01*
X25642381Y15645477D01*
X25690000Y15740715D01*
X25737619Y15788334D01*
X25832857Y15835953D01*
X25975714Y15835953D01*
X26070952Y15788334D01*
X26118571Y15740715D01*
X26166190Y15645477D01*
X26166190Y15264524D01*
X25642381Y16693096D02*
X25642381Y16502619D01*
X25690000Y16407381D01*
X25737619Y16359762D01*
X25880476Y16264524D01*
X26070952Y16216905D01*
X26451905Y16216905D01*
X26547143Y16264524D01*
X26594762Y16312143D01*
X26642381Y16407381D01*
X26642381Y16597858D01*
X26594762Y16693096D01*
X26547143Y16740715D01*
X26451905Y16788334D01*
X26213810Y16788334D01*
X26118571Y16740715D01*
X26070952Y16693096D01*
X26023333Y16597858D01*
X26023333Y16407381D01*
X26070952Y16312143D01*
X26118571Y16264524D01*
X26213810Y16216905D01*
X25642381Y17407381D02*
X25642381Y17502620D01*
X25690000Y17597858D01*
X25737619Y17645477D01*
X25832857Y17693096D01*
X26023333Y17740715D01*
X26261429Y17740715D01*
X26451905Y17693096D01*
X26547143Y17645477D01*
X26594762Y17597858D01*
X26642381Y17502620D01*
X26642381Y17407381D01*
X26594762Y17312143D01*
X26547143Y17264524D01*
X26451905Y17216905D01*
X26261429Y17169286D01*
X26023333Y17169286D01*
X25832857Y17216905D01*
X25737619Y17264524D01*
X25690000Y17312143D01*
X25642381Y17407381D01*
X26070952Y18312143D02*
X26023333Y18216905D01*
X25975714Y18169286D01*
X25880476Y18121667D01*
X25832857Y18121667D01*
X25737619Y18169286D01*
X25690000Y18216905D01*
X25642381Y18312143D01*
X25642381Y18502620D01*
X25690000Y18597858D01*
X25737619Y18645477D01*
X25832857Y18693096D01*
X25880476Y18693096D01*
X25975714Y18645477D01*
X26023333Y18597858D01*
X26070952Y18502620D01*
X26070952Y18312143D01*
X26118571Y18216905D01*
X26166190Y18169286D01*
X26261429Y18121667D01*
X26451905Y18121667D01*
X26547143Y18169286D01*
X26594762Y18216905D01*
X26642381Y18312143D01*
X26642381Y18502620D01*
X26594762Y18597858D01*
X26547143Y18645477D01*
X26451905Y18693096D01*
X26261429Y18693096D01*
X26166190Y18645477D01*
X26118571Y18597858D01*
X26070952Y18502620D01*
X3590953Y12002619D02*
X3257619Y12478810D01*
X3019524Y12002619D02*
X3019524Y13002619D01*
X3400477Y13002619D01*
X3495715Y12955000D01*
X3543334Y12907381D01*
X3590953Y12812143D01*
X3590953Y12669286D01*
X3543334Y12574048D01*
X3495715Y12526429D01*
X3400477Y12478810D01*
X3019524Y12478810D01*
X4448096Y13002619D02*
X4257619Y13002619D01*
X4162381Y12955000D01*
X4114762Y12907381D01*
X4019524Y12764524D01*
X3971905Y12574048D01*
X3971905Y12193095D01*
X4019524Y12097857D01*
X4067143Y12050238D01*
X4162381Y12002619D01*
X4352858Y12002619D01*
X4448096Y12050238D01*
X4495715Y12097857D01*
X4543334Y12193095D01*
X4543334Y12431190D01*
X4495715Y12526429D01*
X4448096Y12574048D01*
X4352858Y12621667D01*
X4162381Y12621667D01*
X4067143Y12574048D01*
X4019524Y12526429D01*
X3971905Y12431190D01*
X5162381Y13002619D02*
X5257620Y13002619D01*
X5352858Y12955000D01*
X5400477Y12907381D01*
X5448096Y12812143D01*
X5495715Y12621667D01*
X5495715Y12383571D01*
X5448096Y12193095D01*
X5400477Y12097857D01*
X5352858Y12050238D01*
X5257620Y12002619D01*
X5162381Y12002619D01*
X5067143Y12050238D01*
X5019524Y12097857D01*
X4971905Y12193095D01*
X4924286Y12383571D01*
X4924286Y12621667D01*
X4971905Y12812143D01*
X5019524Y12907381D01*
X5067143Y12955000D01*
X5162381Y13002619D01*
X5971905Y12002619D02*
X6162381Y12002619D01*
X6257620Y12050238D01*
X6305239Y12097857D01*
X6400477Y12240714D01*
X6448096Y12431190D01*
X6448096Y12812143D01*
X6400477Y12907381D01*
X6352858Y12955000D01*
X6257620Y13002619D01*
X6067143Y13002619D01*
X5971905Y12955000D01*
X5924286Y12907381D01*
X5876667Y12812143D01*
X5876667Y12574048D01*
X5924286Y12478810D01*
X5971905Y12431190D01*
X6067143Y12383571D01*
X6257620Y12383571D01*
X6352858Y12431190D01*
X6400477Y12478810D01*
X6448096Y12574048D01*
X23242381Y4335953D02*
X22766190Y4002619D01*
X23242381Y3764524D02*
X22242381Y3764524D01*
X22242381Y4145477D01*
X22290000Y4240715D01*
X22337619Y4288334D01*
X22432857Y4335953D01*
X22575714Y4335953D01*
X22670952Y4288334D01*
X22718571Y4240715D01*
X22766190Y4145477D01*
X22766190Y3764524D01*
X22242381Y5193096D02*
X22242381Y5002619D01*
X22290000Y4907381D01*
X22337619Y4859762D01*
X22480476Y4764524D01*
X22670952Y4716905D01*
X23051905Y4716905D01*
X23147143Y4764524D01*
X23194762Y4812143D01*
X23242381Y4907381D01*
X23242381Y5097858D01*
X23194762Y5193096D01*
X23147143Y5240715D01*
X23051905Y5288334D01*
X22813810Y5288334D01*
X22718571Y5240715D01*
X22670952Y5193096D01*
X22623333Y5097858D01*
X22623333Y4907381D01*
X22670952Y4812143D01*
X22718571Y4764524D01*
X22813810Y4716905D01*
X23242381Y6240715D02*
X23242381Y5669286D01*
X23242381Y5955000D02*
X22242381Y5955000D01*
X22385238Y5859762D01*
X22480476Y5764524D01*
X22528095Y5669286D01*
X22242381Y6859762D02*
X22242381Y6955001D01*
X22290000Y7050239D01*
X22337619Y7097858D01*
X22432857Y7145477D01*
X22623333Y7193096D01*
X22861429Y7193096D01*
X23051905Y7145477D01*
X23147143Y7097858D01*
X23194762Y7050239D01*
X23242381Y6955001D01*
X23242381Y6859762D01*
X23194762Y6764524D01*
X23147143Y6716905D01*
X23051905Y6669286D01*
X22861429Y6621667D01*
X22623333Y6621667D01*
X22432857Y6669286D01*
X22337619Y6716905D01*
X22290000Y6764524D01*
X22242381Y6859762D01*
X17142381Y835953D02*
X16666190Y502619D01*
X17142381Y264524D02*
X16142381Y264524D01*
X16142381Y645477D01*
X16190000Y740715D01*
X16237619Y788334D01*
X16332857Y835953D01*
X16475714Y835953D01*
X16570952Y788334D01*
X16618571Y740715D01*
X16666190Y645477D01*
X16666190Y264524D01*
X16142381Y1693096D02*
X16142381Y1502619D01*
X16190000Y1407381D01*
X16237619Y1359762D01*
X16380476Y1264524D01*
X16570952Y1216905D01*
X16951905Y1216905D01*
X17047143Y1264524D01*
X17094762Y1312143D01*
X17142381Y1407381D01*
X17142381Y1597858D01*
X17094762Y1693096D01*
X17047143Y1740715D01*
X16951905Y1788334D01*
X16713810Y1788334D01*
X16618571Y1740715D01*
X16570952Y1693096D01*
X16523333Y1597858D01*
X16523333Y1407381D01*
X16570952Y1312143D01*
X16618571Y1264524D01*
X16713810Y1216905D01*
X17142381Y2740715D02*
X17142381Y2169286D01*
X17142381Y2455000D02*
X16142381Y2455000D01*
X16285238Y2359762D01*
X16380476Y2264524D01*
X16428095Y2169286D01*
X17142381Y3693096D02*
X17142381Y3121667D01*
X17142381Y3407381D02*
X16142381Y3407381D01*
X16285238Y3312143D01*
X16380476Y3216905D01*
X16428095Y3121667D01*
X15142381Y835953D02*
X14666190Y502619D01*
X15142381Y264524D02*
X14142381Y264524D01*
X14142381Y645477D01*
X14190000Y740715D01*
X14237619Y788334D01*
X14332857Y835953D01*
X14475714Y835953D01*
X14570952Y788334D01*
X14618571Y740715D01*
X14666190Y645477D01*
X14666190Y264524D01*
X14142381Y1693096D02*
X14142381Y1502619D01*
X14190000Y1407381D01*
X14237619Y1359762D01*
X14380476Y1264524D01*
X14570952Y1216905D01*
X14951905Y1216905D01*
X15047143Y1264524D01*
X15094762Y1312143D01*
X15142381Y1407381D01*
X15142381Y1597858D01*
X15094762Y1693096D01*
X15047143Y1740715D01*
X14951905Y1788334D01*
X14713810Y1788334D01*
X14618571Y1740715D01*
X14570952Y1693096D01*
X14523333Y1597858D01*
X14523333Y1407381D01*
X14570952Y1312143D01*
X14618571Y1264524D01*
X14713810Y1216905D01*
X15142381Y2740715D02*
X15142381Y2169286D01*
X15142381Y2455000D02*
X14142381Y2455000D01*
X14285238Y2359762D01*
X14380476Y2264524D01*
X14428095Y2169286D01*
X14237619Y3121667D02*
X14190000Y3169286D01*
X14142381Y3264524D01*
X14142381Y3502620D01*
X14190000Y3597858D01*
X14237619Y3645477D01*
X14332857Y3693096D01*
X14428095Y3693096D01*
X14570952Y3645477D01*
X15142381Y3074048D01*
X15142381Y3693096D01*
X-857619Y45085953D02*
X-1333810Y44752619D01*
X-857619Y44514524D02*
X-1857619Y44514524D01*
X-1857619Y44895477D01*
X-1810000Y44990715D01*
X-1762381Y45038334D01*
X-1667143Y45085953D01*
X-1524286Y45085953D01*
X-1429048Y45038334D01*
X-1381429Y44990715D01*
X-1333810Y44895477D01*
X-1333810Y44514524D01*
X-1857619Y45419286D02*
X-1857619Y46085953D01*
X-857619Y45657381D01*
X-1857619Y46657381D02*
X-1857619Y46752620D01*
X-1810000Y46847858D01*
X-1762381Y46895477D01*
X-1667143Y46943096D01*
X-1476667Y46990715D01*
X-1238571Y46990715D01*
X-1048095Y46943096D01*
X-952857Y46895477D01*
X-905238Y46847858D01*
X-857619Y46752620D01*
X-857619Y46657381D01*
X-905238Y46562143D01*
X-952857Y46514524D01*
X-1048095Y46466905D01*
X-1238571Y46419286D01*
X-1476667Y46419286D01*
X-1667143Y46466905D01*
X-1762381Y46514524D01*
X-1810000Y46562143D01*
X-1857619Y46657381D01*
X-857619Y47943096D02*
X-857619Y47371667D01*
X-857619Y47657381D02*
X-1857619Y47657381D01*
X-1714762Y47562143D01*
X-1619524Y47466905D01*
X-1571905Y47371667D01*
X10642381Y38335953D02*
X10166190Y38002619D01*
X10642381Y37764524D02*
X9642381Y37764524D01*
X9642381Y38145477D01*
X9690000Y38240715D01*
X9737619Y38288334D01*
X9832857Y38335953D01*
X9975714Y38335953D01*
X10070952Y38288334D01*
X10118571Y38240715D01*
X10166190Y38145477D01*
X10166190Y37764524D01*
X9642381Y38669286D02*
X9642381Y39335953D01*
X10642381Y38907381D01*
X9642381Y39907381D02*
X9642381Y40002620D01*
X9690000Y40097858D01*
X9737619Y40145477D01*
X9832857Y40193096D01*
X10023333Y40240715D01*
X10261429Y40240715D01*
X10451905Y40193096D01*
X10547143Y40145477D01*
X10594762Y40097858D01*
X10642381Y40002620D01*
X10642381Y39907381D01*
X10594762Y39812143D01*
X10547143Y39764524D01*
X10451905Y39716905D01*
X10261429Y39669286D01*
X10023333Y39669286D01*
X9832857Y39716905D01*
X9737619Y39764524D01*
X9690000Y39812143D01*
X9642381Y39907381D01*
X9737619Y40621667D02*
X9690000Y40669286D01*
X9642381Y40764524D01*
X9642381Y41002620D01*
X9690000Y41097858D01*
X9737619Y41145477D01*
X9832857Y41193096D01*
X9928095Y41193096D01*
X10070952Y41145477D01*
X10642381Y40574048D01*
X10642381Y41193096D01*
X4142381Y38335953D02*
X3666190Y38002619D01*
X4142381Y37764524D02*
X3142381Y37764524D01*
X3142381Y38145477D01*
X3190000Y38240715D01*
X3237619Y38288334D01*
X3332857Y38335953D01*
X3475714Y38335953D01*
X3570952Y38288334D01*
X3618571Y38240715D01*
X3666190Y38145477D01*
X3666190Y37764524D01*
X3142381Y38669286D02*
X3142381Y39335953D01*
X4142381Y38907381D01*
X3142381Y39907381D02*
X3142381Y40002620D01*
X3190000Y40097858D01*
X3237619Y40145477D01*
X3332857Y40193096D01*
X3523333Y40240715D01*
X3761429Y40240715D01*
X3951905Y40193096D01*
X4047143Y40145477D01*
X4094762Y40097858D01*
X4142381Y40002620D01*
X4142381Y39907381D01*
X4094762Y39812143D01*
X4047143Y39764524D01*
X3951905Y39716905D01*
X3761429Y39669286D01*
X3523333Y39669286D01*
X3332857Y39716905D01*
X3237619Y39764524D01*
X3190000Y39812143D01*
X3142381Y39907381D01*
X3142381Y40574048D02*
X3142381Y41193096D01*
X3523333Y40859762D01*
X3523333Y41002620D01*
X3570952Y41097858D01*
X3618571Y41145477D01*
X3713810Y41193096D01*
X3951905Y41193096D01*
X4047143Y41145477D01*
X4094762Y41097858D01*
X4142381Y41002620D01*
X4142381Y40716905D01*
X4094762Y40621667D01*
X4047143Y40574048D01*
X10642381Y34335953D02*
X10166190Y34002619D01*
X10642381Y33764524D02*
X9642381Y33764524D01*
X9642381Y34145477D01*
X9690000Y34240715D01*
X9737619Y34288334D01*
X9832857Y34335953D01*
X9975714Y34335953D01*
X10070952Y34288334D01*
X10118571Y34240715D01*
X10166190Y34145477D01*
X10166190Y33764524D01*
X9642381Y34669286D02*
X9642381Y35335953D01*
X10642381Y34907381D01*
X9642381Y35907381D02*
X9642381Y36002620D01*
X9690000Y36097858D01*
X9737619Y36145477D01*
X9832857Y36193096D01*
X10023333Y36240715D01*
X10261429Y36240715D01*
X10451905Y36193096D01*
X10547143Y36145477D01*
X10594762Y36097858D01*
X10642381Y36002620D01*
X10642381Y35907381D01*
X10594762Y35812143D01*
X10547143Y35764524D01*
X10451905Y35716905D01*
X10261429Y35669286D01*
X10023333Y35669286D01*
X9832857Y35716905D01*
X9737619Y35764524D01*
X9690000Y35812143D01*
X9642381Y35907381D01*
X9975714Y37097858D02*
X10642381Y37097858D01*
X9594762Y36859762D02*
X10309048Y36621667D01*
X10309048Y37240715D01*
X4142381Y34335953D02*
X3666190Y34002619D01*
X4142381Y33764524D02*
X3142381Y33764524D01*
X3142381Y34145477D01*
X3190000Y34240715D01*
X3237619Y34288334D01*
X3332857Y34335953D01*
X3475714Y34335953D01*
X3570952Y34288334D01*
X3618571Y34240715D01*
X3666190Y34145477D01*
X3666190Y33764524D01*
X3142381Y34669286D02*
X3142381Y35335953D01*
X4142381Y34907381D01*
X3142381Y35907381D02*
X3142381Y36002620D01*
X3190000Y36097858D01*
X3237619Y36145477D01*
X3332857Y36193096D01*
X3523333Y36240715D01*
X3761429Y36240715D01*
X3951905Y36193096D01*
X4047143Y36145477D01*
X4094762Y36097858D01*
X4142381Y36002620D01*
X4142381Y35907381D01*
X4094762Y35812143D01*
X4047143Y35764524D01*
X3951905Y35716905D01*
X3761429Y35669286D01*
X3523333Y35669286D01*
X3332857Y35716905D01*
X3237619Y35764524D01*
X3190000Y35812143D01*
X3142381Y35907381D01*
X3142381Y37145477D02*
X3142381Y36669286D01*
X3618571Y36621667D01*
X3570952Y36669286D01*
X3523333Y36764524D01*
X3523333Y37002620D01*
X3570952Y37097858D01*
X3618571Y37145477D01*
X3713810Y37193096D01*
X3951905Y37193096D01*
X4047143Y37145477D01*
X4094762Y37097858D01*
X4142381Y37002620D01*
X4142381Y36764524D01*
X4094762Y36669286D01*
X4047143Y36621667D01*
D19*
X-6573952Y16742262D02*
X-5597262Y16742262D01*
X-5482357Y16799714D01*
X-5424905Y16857167D01*
X-5367452Y16972071D01*
X-5367452Y17201881D01*
X-5424905Y17316786D01*
X-5482357Y17374238D01*
X-5597262Y17431690D01*
X-6573952Y17431690D01*
X-6459048Y17948762D02*
X-6516500Y18006214D01*
X-6573952Y18121119D01*
X-6573952Y18408381D01*
X-6516500Y18523285D01*
X-6459048Y18580738D01*
X-6344143Y18638190D01*
X-6229238Y18638190D01*
X-6056881Y18580738D01*
X-5367452Y17891309D01*
X-5367452Y18638190D01*
X-6573952Y19385071D02*
X-6573952Y19499976D01*
X-6516500Y19614881D01*
X-6459048Y19672333D01*
X-6344143Y19729786D01*
X-6114333Y19787238D01*
X-5827071Y19787238D01*
X-5597262Y19729786D01*
X-5482357Y19672333D01*
X-5424905Y19614881D01*
X-5367452Y19499976D01*
X-5367452Y19385071D01*
X-5424905Y19270167D01*
X-5482357Y19212714D01*
X-5597262Y19155262D01*
X-5827071Y19097810D01*
X-6114333Y19097810D01*
X-6344143Y19155262D01*
X-6459048Y19212714D01*
X-6516500Y19270167D01*
X-6573952Y19385071D01*
X-6573952Y20189405D02*
X-6573952Y20936286D01*
X-6114333Y20534119D01*
X-6114333Y20706477D01*
X-6056881Y20821381D01*
X-5999429Y20878834D01*
X-5884524Y20936286D01*
X-5597262Y20936286D01*
X-5482357Y20878834D01*
X-5424905Y20821381D01*
X-5367452Y20706477D01*
X-5367452Y20361762D01*
X-5424905Y20246858D01*
X-5482357Y20189405D01*
D20*
X51508838Y15845372D02*
X52290190Y15845372D01*
X52382114Y15891333D01*
X52428076Y15937295D01*
X52474038Y16029219D01*
X52474038Y16213067D01*
X52428076Y16304991D01*
X52382114Y16350952D01*
X52290190Y16396914D01*
X51508838Y16396914D01*
X51508838Y16764610D02*
X51508838Y17362114D01*
X51876533Y17040381D01*
X51876533Y17178267D01*
X51922495Y17270191D01*
X51968457Y17316153D01*
X52060381Y17362114D01*
X52290190Y17362114D01*
X52382114Y17316153D01*
X52428076Y17270191D01*
X52474038Y17178267D01*
X52474038Y16902495D01*
X52428076Y16810572D01*
X52382114Y16764610D01*
X51508838Y17959619D02*
X51508838Y18051543D01*
X51554800Y18143467D01*
X51600762Y18189429D01*
X51692686Y18235391D01*
X51876533Y18281352D01*
X52106343Y18281352D01*
X52290190Y18235391D01*
X52382114Y18189429D01*
X52428076Y18143467D01*
X52474038Y18051543D01*
X52474038Y17959619D01*
X52428076Y17867695D01*
X52382114Y17821733D01*
X52290190Y17775772D01*
X52106343Y17729810D01*
X51876533Y17729810D01*
X51692686Y17775772D01*
X51600762Y17821733D01*
X51554800Y17867695D01*
X51508838Y17959619D01*
X52474038Y19200590D02*
X52474038Y18649048D01*
X52474038Y18924819D02*
X51508838Y18924819D01*
X51646724Y18832895D01*
X51738648Y18740971D01*
X51784610Y18649048D01*
D13*
X17975714Y12452619D02*
X17975714Y11643095D01*
X18023333Y11547857D01*
X18070952Y11500238D01*
X18166190Y11452619D01*
X18356667Y11452619D01*
X18451905Y11500238D01*
X18499524Y11547857D01*
X18547143Y11643095D01*
X18547143Y12452619D01*
X19451905Y12452619D02*
X19261428Y12452619D01*
X19166190Y12405000D01*
X19118571Y12357381D01*
X19023333Y12214524D01*
X18975714Y12024048D01*
X18975714Y11643095D01*
X19023333Y11547857D01*
X19070952Y11500238D01*
X19166190Y11452619D01*
X19356667Y11452619D01*
X19451905Y11500238D01*
X19499524Y11547857D01*
X19547143Y11643095D01*
X19547143Y11881190D01*
X19499524Y11976429D01*
X19451905Y12024048D01*
X19356667Y12071667D01*
X19166190Y12071667D01*
X19070952Y12024048D01*
X19023333Y11976429D01*
X18975714Y11881190D01*
X20166190Y12452619D02*
X20261429Y12452619D01*
X20356667Y12405000D01*
X20404286Y12357381D01*
X20451905Y12262143D01*
X20499524Y12071667D01*
X20499524Y11833571D01*
X20451905Y11643095D01*
X20404286Y11547857D01*
X20356667Y11500238D01*
X20261429Y11452619D01*
X20166190Y11452619D01*
X20070952Y11500238D01*
X20023333Y11547857D01*
X19975714Y11643095D01*
X19928095Y11833571D01*
X19928095Y12071667D01*
X19975714Y12262143D01*
X20023333Y12357381D01*
X20070952Y12405000D01*
X20166190Y12452619D01*
X21451905Y11452619D02*
X20880476Y11452619D01*
X21166190Y11452619D02*
X21166190Y12452619D01*
X21070952Y12309762D01*
X20975714Y12214524D01*
X20880476Y12166905D01*
D19*
X55168833Y14685000D02*
X55592167Y14685000D01*
X54703167Y14388667D02*
X55168833Y14685000D01*
X54703167Y14981333D01*
X54703167Y15193000D02*
X54703167Y15743333D01*
X55041833Y15447000D01*
X55041833Y15574000D01*
X55084167Y15658667D01*
X55126500Y15701000D01*
X55211167Y15743333D01*
X55422833Y15743333D01*
X55507500Y15701000D01*
X55549833Y15658667D01*
X55592167Y15574000D01*
X55592167Y15320000D01*
X55549833Y15235333D01*
X55507500Y15193000D01*
X54703167Y16293667D02*
X54703167Y16378334D01*
X54745500Y16463000D01*
X54787833Y16505334D01*
X54872500Y16547667D01*
X55041833Y16590000D01*
X55253500Y16590000D01*
X55422833Y16547667D01*
X55507500Y16505334D01*
X55549833Y16463000D01*
X55592167Y16378334D01*
X55592167Y16293667D01*
X55549833Y16209000D01*
X55507500Y16166667D01*
X55422833Y16124334D01*
X55253500Y16082000D01*
X55041833Y16082000D01*
X54872500Y16124334D01*
X54787833Y16166667D01*
X54745500Y16209000D01*
X54703167Y16293667D01*
X55592167Y17436667D02*
X55592167Y16928667D01*
X55592167Y17182667D02*
X54703167Y17182667D01*
X54830167Y17098001D01*
X54914833Y17013334D01*
X54957167Y16928667D01*
D13*
X142381Y10169286D02*
X856667Y10169286D01*
X999524Y10121666D01*
X1094762Y10026428D01*
X1142381Y9883571D01*
X1142381Y9788333D01*
X1142381Y10645476D02*
X142381Y10645476D01*
X142381Y11026429D01*
X190000Y11121667D01*
X237619Y11169286D01*
X332857Y11216905D01*
X475714Y11216905D01*
X570952Y11169286D01*
X618571Y11121667D01*
X666190Y11026429D01*
X666190Y10645476D01*
X237619Y11597857D02*
X190000Y11645476D01*
X142381Y11740714D01*
X142381Y11978810D01*
X190000Y12074048D01*
X237619Y12121667D01*
X332857Y12169286D01*
X428095Y12169286D01*
X570952Y12121667D01*
X1142381Y11550238D01*
X1142381Y12169286D01*
X142381Y12788333D02*
X142381Y12883572D01*
X190000Y12978810D01*
X237619Y13026429D01*
X332857Y13074048D01*
X523333Y13121667D01*
X761429Y13121667D01*
X951905Y13074048D01*
X1047143Y13026429D01*
X1094762Y12978810D01*
X1142381Y12883572D01*
X1142381Y12788333D01*
X1094762Y12693095D01*
X1047143Y12645476D01*
X951905Y12597857D01*
X761429Y12550238D01*
X523333Y12550238D01*
X332857Y12597857D01*
X237619Y12645476D01*
X190000Y12693095D01*
X142381Y12788333D01*
X1142381Y14074048D02*
X1142381Y13502619D01*
X1142381Y13788333D02*
X142381Y13788333D01*
X285238Y13693095D01*
X380476Y13597857D01*
X428095Y13502619D01*
X67547143Y33335953D02*
X67594762Y33288334D01*
X67642381Y33145477D01*
X67642381Y33050239D01*
X67594762Y32907381D01*
X67499524Y32812143D01*
X67404286Y32764524D01*
X67213810Y32716905D01*
X67070952Y32716905D01*
X66880476Y32764524D01*
X66785238Y32812143D01*
X66690000Y32907381D01*
X66642381Y33050239D01*
X66642381Y33145477D01*
X66690000Y33288334D01*
X66737619Y33335953D01*
X66737619Y33716905D02*
X66690000Y33764524D01*
X66642381Y33859762D01*
X66642381Y34097858D01*
X66690000Y34193096D01*
X66737619Y34240715D01*
X66832857Y34288334D01*
X66928095Y34288334D01*
X67070952Y34240715D01*
X67642381Y33669286D01*
X67642381Y34288334D01*
X66642381Y34907381D02*
X66642381Y35002620D01*
X66690000Y35097858D01*
X66737619Y35145477D01*
X66832857Y35193096D01*
X67023333Y35240715D01*
X67261429Y35240715D01*
X67451905Y35193096D01*
X67547143Y35145477D01*
X67594762Y35097858D01*
X67642381Y35002620D01*
X67642381Y34907381D01*
X67594762Y34812143D01*
X67547143Y34764524D01*
X67451905Y34716905D01*
X67261429Y34669286D01*
X67023333Y34669286D01*
X66832857Y34716905D01*
X66737619Y34764524D01*
X66690000Y34812143D01*
X66642381Y34907381D01*
X67070952Y35812143D02*
X67023333Y35716905D01*
X66975714Y35669286D01*
X66880476Y35621667D01*
X66832857Y35621667D01*
X66737619Y35669286D01*
X66690000Y35716905D01*
X66642381Y35812143D01*
X66642381Y36002620D01*
X66690000Y36097858D01*
X66737619Y36145477D01*
X66832857Y36193096D01*
X66880476Y36193096D01*
X66975714Y36145477D01*
X67023333Y36097858D01*
X67070952Y36002620D01*
X67070952Y35812143D01*
X67118571Y35716905D01*
X67166190Y35669286D01*
X67261429Y35621667D01*
X67451905Y35621667D01*
X67547143Y35669286D01*
X67594762Y35716905D01*
X67642381Y35812143D01*
X67642381Y36002620D01*
X67594762Y36097858D01*
X67547143Y36145477D01*
X67451905Y36193096D01*
X67261429Y36193096D01*
X67166190Y36145477D01*
X67118571Y36097858D01*
X67070952Y36002620D01*
X67070953Y42097857D02*
X67023334Y42050238D01*
X66880477Y42002619D01*
X66785239Y42002619D01*
X66642381Y42050238D01*
X66547143Y42145476D01*
X66499524Y42240714D01*
X66451905Y42431190D01*
X66451905Y42574048D01*
X66499524Y42764524D01*
X66547143Y42859762D01*
X66642381Y42955000D01*
X66785239Y43002619D01*
X66880477Y43002619D01*
X67023334Y42955000D01*
X67070953Y42907381D01*
X67451905Y42907381D02*
X67499524Y42955000D01*
X67594762Y43002619D01*
X67832858Y43002619D01*
X67928096Y42955000D01*
X67975715Y42907381D01*
X68023334Y42812143D01*
X68023334Y42716905D01*
X67975715Y42574048D01*
X67404286Y42002619D01*
X68023334Y42002619D01*
X68642381Y43002619D02*
X68737620Y43002619D01*
X68832858Y42955000D01*
X68880477Y42907381D01*
X68928096Y42812143D01*
X68975715Y42621667D01*
X68975715Y42383571D01*
X68928096Y42193095D01*
X68880477Y42097857D01*
X68832858Y42050238D01*
X68737620Y42002619D01*
X68642381Y42002619D01*
X68547143Y42050238D01*
X68499524Y42097857D01*
X68451905Y42193095D01*
X68404286Y42383571D01*
X68404286Y42621667D01*
X68451905Y42812143D01*
X68499524Y42907381D01*
X68547143Y42955000D01*
X68642381Y43002619D01*
X69451905Y42002619D02*
X69642381Y42002619D01*
X69737620Y42050238D01*
X69785239Y42097857D01*
X69880477Y42240714D01*
X69928096Y42431190D01*
X69928096Y42812143D01*
X69880477Y42907381D01*
X69832858Y42955000D01*
X69737620Y43002619D01*
X69547143Y43002619D01*
X69451905Y42955000D01*
X69404286Y42907381D01*
X69356667Y42812143D01*
X69356667Y42574048D01*
X69404286Y42478810D01*
X69451905Y42431190D01*
X69547143Y42383571D01*
X69737620Y42383571D01*
X69832858Y42431190D01*
X69880477Y42478810D01*
X69928096Y42574048D01*
X73047143Y43335953D02*
X73094762Y43288334D01*
X73142381Y43145477D01*
X73142381Y43050239D01*
X73094762Y42907381D01*
X72999524Y42812143D01*
X72904286Y42764524D01*
X72713810Y42716905D01*
X72570952Y42716905D01*
X72380476Y42764524D01*
X72285238Y42812143D01*
X72190000Y42907381D01*
X72142381Y43050239D01*
X72142381Y43145477D01*
X72190000Y43288334D01*
X72237619Y43335953D01*
X72237619Y43716905D02*
X72190000Y43764524D01*
X72142381Y43859762D01*
X72142381Y44097858D01*
X72190000Y44193096D01*
X72237619Y44240715D01*
X72332857Y44288334D01*
X72428095Y44288334D01*
X72570952Y44240715D01*
X73142381Y43669286D01*
X73142381Y44288334D01*
X73142381Y45240715D02*
X73142381Y44669286D01*
X73142381Y44955000D02*
X72142381Y44955000D01*
X72285238Y44859762D01*
X72380476Y44764524D01*
X72428095Y44669286D01*
X72142381Y45859762D02*
X72142381Y45955001D01*
X72190000Y46050239D01*
X72237619Y46097858D01*
X72332857Y46145477D01*
X72523333Y46193096D01*
X72761429Y46193096D01*
X72951905Y46145477D01*
X73047143Y46097858D01*
X73094762Y46050239D01*
X73142381Y45955001D01*
X73142381Y45859762D01*
X73094762Y45764524D01*
X73047143Y45716905D01*
X72951905Y45669286D01*
X72761429Y45621667D01*
X72523333Y45621667D01*
X72332857Y45669286D01*
X72237619Y45716905D01*
X72190000Y45764524D01*
X72142381Y45859762D01*
X76642381Y25335953D02*
X76642381Y24859762D01*
X75642381Y24859762D01*
X75737619Y25621667D02*
X75690000Y25669286D01*
X75642381Y25764524D01*
X75642381Y26002620D01*
X75690000Y26097858D01*
X75737619Y26145477D01*
X75832857Y26193096D01*
X75928095Y26193096D01*
X76070952Y26145477D01*
X76642381Y25574048D01*
X76642381Y26193096D01*
X75642381Y26812143D02*
X75642381Y26907382D01*
X75690000Y27002620D01*
X75737619Y27050239D01*
X75832857Y27097858D01*
X76023333Y27145477D01*
X76261429Y27145477D01*
X76451905Y27097858D01*
X76547143Y27050239D01*
X76594762Y27002620D01*
X76642381Y26907382D01*
X76642381Y26812143D01*
X76594762Y26716905D01*
X76547143Y26669286D01*
X76451905Y26621667D01*
X76261429Y26574048D01*
X76023333Y26574048D01*
X75832857Y26621667D01*
X75737619Y26669286D01*
X75690000Y26716905D01*
X75642381Y26812143D01*
X76642381Y28097858D02*
X76642381Y27526429D01*
X76642381Y27812143D02*
X75642381Y27812143D01*
X75785238Y27716905D01*
X75880476Y27621667D01*
X75928095Y27526429D01*
X63070953Y56002619D02*
X62594762Y56002619D01*
X62594762Y57002619D01*
X63356667Y56907381D02*
X63404286Y56955000D01*
X63499524Y57002619D01*
X63737620Y57002619D01*
X63832858Y56955000D01*
X63880477Y56907381D01*
X63928096Y56812143D01*
X63928096Y56716905D01*
X63880477Y56574048D01*
X63309048Y56002619D01*
X63928096Y56002619D01*
X64547143Y57002619D02*
X64642382Y57002619D01*
X64737620Y56955000D01*
X64785239Y56907381D01*
X64832858Y56812143D01*
X64880477Y56621667D01*
X64880477Y56383571D01*
X64832858Y56193095D01*
X64785239Y56097857D01*
X64737620Y56050238D01*
X64642382Y56002619D01*
X64547143Y56002619D01*
X64451905Y56050238D01*
X64404286Y56097857D01*
X64356667Y56193095D01*
X64309048Y56383571D01*
X64309048Y56621667D01*
X64356667Y56812143D01*
X64404286Y56907381D01*
X64451905Y56955000D01*
X64547143Y57002619D01*
X65261429Y56907381D02*
X65309048Y56955000D01*
X65404286Y57002619D01*
X65642382Y57002619D01*
X65737620Y56955000D01*
X65785239Y56907381D01*
X65832858Y56812143D01*
X65832858Y56716905D01*
X65785239Y56574048D01*
X65213810Y56002619D01*
X65832858Y56002619D01*
X69642381Y33835953D02*
X69166190Y33502619D01*
X69642381Y33264524D02*
X68642381Y33264524D01*
X68642381Y33645477D01*
X68690000Y33740715D01*
X68737619Y33788334D01*
X68832857Y33835953D01*
X68975714Y33835953D01*
X69070952Y33788334D01*
X69118571Y33740715D01*
X69166190Y33645477D01*
X69166190Y33264524D01*
X68737619Y34216905D02*
X68690000Y34264524D01*
X68642381Y34359762D01*
X68642381Y34597858D01*
X68690000Y34693096D01*
X68737619Y34740715D01*
X68832857Y34788334D01*
X68928095Y34788334D01*
X69070952Y34740715D01*
X69642381Y34169286D01*
X69642381Y34788334D01*
X68642381Y35407381D02*
X68642381Y35502620D01*
X68690000Y35597858D01*
X68737619Y35645477D01*
X68832857Y35693096D01*
X69023333Y35740715D01*
X69261429Y35740715D01*
X69451905Y35693096D01*
X69547143Y35645477D01*
X69594762Y35597858D01*
X69642381Y35502620D01*
X69642381Y35407381D01*
X69594762Y35312143D01*
X69547143Y35264524D01*
X69451905Y35216905D01*
X69261429Y35169286D01*
X69023333Y35169286D01*
X68832857Y35216905D01*
X68737619Y35264524D01*
X68690000Y35312143D01*
X68642381Y35407381D01*
X68642381Y36597858D02*
X68642381Y36407381D01*
X68690000Y36312143D01*
X68737619Y36264524D01*
X68880476Y36169286D01*
X69070952Y36121667D01*
X69451905Y36121667D01*
X69547143Y36169286D01*
X69594762Y36216905D01*
X69642381Y36312143D01*
X69642381Y36502620D01*
X69594762Y36597858D01*
X69547143Y36645477D01*
X69451905Y36693096D01*
X69213810Y36693096D01*
X69118571Y36645477D01*
X69070952Y36597858D01*
X69023333Y36502620D01*
X69023333Y36312143D01*
X69070952Y36216905D01*
X69118571Y36169286D01*
X69213810Y36121667D01*
D19*
X61203167Y45431000D02*
X61922833Y45431000D01*
X62007500Y45473333D01*
X62049833Y45515666D01*
X62092167Y45600333D01*
X62092167Y45769666D01*
X62049833Y45854333D01*
X62007500Y45896666D01*
X61922833Y45939000D01*
X61203167Y45939000D01*
X61287833Y46319999D02*
X61245500Y46362333D01*
X61203167Y46446999D01*
X61203167Y46658666D01*
X61245500Y46743333D01*
X61287833Y46785666D01*
X61372500Y46827999D01*
X61457167Y46827999D01*
X61584167Y46785666D01*
X62092167Y46277666D01*
X62092167Y46827999D01*
X61203167Y47378333D02*
X61203167Y47463000D01*
X61245500Y47547666D01*
X61287833Y47590000D01*
X61372500Y47632333D01*
X61541833Y47674666D01*
X61753500Y47674666D01*
X61922833Y47632333D01*
X62007500Y47590000D01*
X62049833Y47547666D01*
X62092167Y47463000D01*
X62092167Y47378333D01*
X62049833Y47293666D01*
X62007500Y47251333D01*
X61922833Y47209000D01*
X61753500Y47166666D01*
X61541833Y47166666D01*
X61372500Y47209000D01*
X61287833Y47251333D01*
X61245500Y47293666D01*
X61203167Y47378333D01*
X61287833Y48013333D02*
X61245500Y48055667D01*
X61203167Y48140333D01*
X61203167Y48352000D01*
X61245500Y48436667D01*
X61287833Y48479000D01*
X61372500Y48521333D01*
X61457167Y48521333D01*
X61584167Y48479000D01*
X62092167Y47971000D01*
X62092167Y48521333D01*
D13*
X16642381Y34835953D02*
X16166190Y34502619D01*
X16642381Y34264524D02*
X15642381Y34264524D01*
X15642381Y34645477D01*
X15690000Y34740715D01*
X15737619Y34788334D01*
X15832857Y34835953D01*
X15975714Y34835953D01*
X16070952Y34788334D01*
X16118571Y34740715D01*
X16166190Y34645477D01*
X16166190Y34264524D01*
X15975714Y35693096D02*
X16642381Y35693096D01*
X15594762Y35455000D02*
X16309048Y35216905D01*
X16309048Y35835953D01*
X15642381Y36407381D02*
X15642381Y36502620D01*
X15690000Y36597858D01*
X15737619Y36645477D01*
X15832857Y36693096D01*
X16023333Y36740715D01*
X16261429Y36740715D01*
X16451905Y36693096D01*
X16547143Y36645477D01*
X16594762Y36597858D01*
X16642381Y36502620D01*
X16642381Y36407381D01*
X16594762Y36312143D01*
X16547143Y36264524D01*
X16451905Y36216905D01*
X16261429Y36169286D01*
X16023333Y36169286D01*
X15832857Y36216905D01*
X15737619Y36264524D01*
X15690000Y36312143D01*
X15642381Y36407381D01*
X16642381Y37693096D02*
X16642381Y37121667D01*
X16642381Y37407381D02*
X15642381Y37407381D01*
X15785238Y37312143D01*
X15880476Y37216905D01*
X15928095Y37121667D01*
X19042381Y34835953D02*
X18566190Y34502619D01*
X19042381Y34264524D02*
X18042381Y34264524D01*
X18042381Y34645477D01*
X18090000Y34740715D01*
X18137619Y34788334D01*
X18232857Y34835953D01*
X18375714Y34835953D01*
X18470952Y34788334D01*
X18518571Y34740715D01*
X18566190Y34645477D01*
X18566190Y34264524D01*
X18375714Y35693096D02*
X19042381Y35693096D01*
X17994762Y35455000D02*
X18709048Y35216905D01*
X18709048Y35835953D01*
X18042381Y36407381D02*
X18042381Y36502620D01*
X18090000Y36597858D01*
X18137619Y36645477D01*
X18232857Y36693096D01*
X18423333Y36740715D01*
X18661429Y36740715D01*
X18851905Y36693096D01*
X18947143Y36645477D01*
X18994762Y36597858D01*
X19042381Y36502620D01*
X19042381Y36407381D01*
X18994762Y36312143D01*
X18947143Y36264524D01*
X18851905Y36216905D01*
X18661429Y36169286D01*
X18423333Y36169286D01*
X18232857Y36216905D01*
X18137619Y36264524D01*
X18090000Y36312143D01*
X18042381Y36407381D01*
X18137619Y37121667D02*
X18090000Y37169286D01*
X18042381Y37264524D01*
X18042381Y37502620D01*
X18090000Y37597858D01*
X18137619Y37645477D01*
X18232857Y37693096D01*
X18328095Y37693096D01*
X18470952Y37645477D01*
X19042381Y37074048D01*
X19042381Y37693096D01*
X21542381Y34835953D02*
X21066190Y34502619D01*
X21542381Y34264524D02*
X20542381Y34264524D01*
X20542381Y34645477D01*
X20590000Y34740715D01*
X20637619Y34788334D01*
X20732857Y34835953D01*
X20875714Y34835953D01*
X20970952Y34788334D01*
X21018571Y34740715D01*
X21066190Y34645477D01*
X21066190Y34264524D01*
X20875714Y35693096D02*
X21542381Y35693096D01*
X20494762Y35455000D02*
X21209048Y35216905D01*
X21209048Y35835953D01*
X20542381Y36407381D02*
X20542381Y36502620D01*
X20590000Y36597858D01*
X20637619Y36645477D01*
X20732857Y36693096D01*
X20923333Y36740715D01*
X21161429Y36740715D01*
X21351905Y36693096D01*
X21447143Y36645477D01*
X21494762Y36597858D01*
X21542381Y36502620D01*
X21542381Y36407381D01*
X21494762Y36312143D01*
X21447143Y36264524D01*
X21351905Y36216905D01*
X21161429Y36169286D01*
X20923333Y36169286D01*
X20732857Y36216905D01*
X20637619Y36264524D01*
X20590000Y36312143D01*
X20542381Y36407381D01*
X20542381Y37074048D02*
X20542381Y37693096D01*
X20923333Y37359762D01*
X20923333Y37502620D01*
X20970952Y37597858D01*
X21018571Y37645477D01*
X21113810Y37693096D01*
X21351905Y37693096D01*
X21447143Y37645477D01*
X21494762Y37597858D01*
X21542381Y37502620D01*
X21542381Y37216905D01*
X21494762Y37121667D01*
X21447143Y37074048D01*
X23942381Y34835953D02*
X23466190Y34502619D01*
X23942381Y34264524D02*
X22942381Y34264524D01*
X22942381Y34645477D01*
X22990000Y34740715D01*
X23037619Y34788334D01*
X23132857Y34835953D01*
X23275714Y34835953D01*
X23370952Y34788334D01*
X23418571Y34740715D01*
X23466190Y34645477D01*
X23466190Y34264524D01*
X23275714Y35693096D02*
X23942381Y35693096D01*
X22894762Y35455000D02*
X23609048Y35216905D01*
X23609048Y35835953D01*
X22942381Y36407381D02*
X22942381Y36502620D01*
X22990000Y36597858D01*
X23037619Y36645477D01*
X23132857Y36693096D01*
X23323333Y36740715D01*
X23561429Y36740715D01*
X23751905Y36693096D01*
X23847143Y36645477D01*
X23894762Y36597858D01*
X23942381Y36502620D01*
X23942381Y36407381D01*
X23894762Y36312143D01*
X23847143Y36264524D01*
X23751905Y36216905D01*
X23561429Y36169286D01*
X23323333Y36169286D01*
X23132857Y36216905D01*
X23037619Y36264524D01*
X22990000Y36312143D01*
X22942381Y36407381D01*
X23275714Y37597858D02*
X23942381Y37597858D01*
X22894762Y37359762D02*
X23609048Y37121667D01*
X23609048Y37740715D01*
X14142381Y54169286D02*
X14856667Y54169286D01*
X14999524Y54121666D01*
X15094762Y54026428D01*
X15142381Y53883571D01*
X15142381Y53788333D01*
X14142381Y55121667D02*
X14142381Y54645476D01*
X14618571Y54597857D01*
X14570952Y54645476D01*
X14523333Y54740714D01*
X14523333Y54978810D01*
X14570952Y55074048D01*
X14618571Y55121667D01*
X14713810Y55169286D01*
X14951905Y55169286D01*
X15047143Y55121667D01*
X15094762Y55074048D01*
X15142381Y54978810D01*
X15142381Y54740714D01*
X15094762Y54645476D01*
X15047143Y54597857D01*
X14142381Y55788333D02*
X14142381Y55883572D01*
X14190000Y55978810D01*
X14237619Y56026429D01*
X14332857Y56074048D01*
X14523333Y56121667D01*
X14761429Y56121667D01*
X14951905Y56074048D01*
X15047143Y56026429D01*
X15094762Y55978810D01*
X15142381Y55883572D01*
X15142381Y55788333D01*
X15094762Y55693095D01*
X15047143Y55645476D01*
X14951905Y55597857D01*
X14761429Y55550238D01*
X14523333Y55550238D01*
X14332857Y55597857D01*
X14237619Y55645476D01*
X14190000Y55693095D01*
X14142381Y55788333D01*
X14237619Y56502619D02*
X14190000Y56550238D01*
X14142381Y56645476D01*
X14142381Y56883572D01*
X14190000Y56978810D01*
X14237619Y57026429D01*
X14332857Y57074048D01*
X14428095Y57074048D01*
X14570952Y57026429D01*
X15142381Y56455000D01*
X15142381Y57074048D01*
X31470953Y44702619D02*
X31137619Y45178810D01*
X30899524Y44702619D02*
X30899524Y45702619D01*
X31280477Y45702619D01*
X31375715Y45655000D01*
X31423334Y45607381D01*
X31470953Y45512143D01*
X31470953Y45369286D01*
X31423334Y45274048D01*
X31375715Y45226429D01*
X31280477Y45178810D01*
X30899524Y45178810D01*
X32375715Y45702619D02*
X31899524Y45702619D01*
X31851905Y45226429D01*
X31899524Y45274048D01*
X31994762Y45321667D01*
X32232858Y45321667D01*
X32328096Y45274048D01*
X32375715Y45226429D01*
X32423334Y45131190D01*
X32423334Y44893095D01*
X32375715Y44797857D01*
X32328096Y44750238D01*
X32232858Y44702619D01*
X31994762Y44702619D01*
X31899524Y44750238D01*
X31851905Y44797857D01*
X33042381Y45702619D02*
X33137620Y45702619D01*
X33232858Y45655000D01*
X33280477Y45607381D01*
X33328096Y45512143D01*
X33375715Y45321667D01*
X33375715Y45083571D01*
X33328096Y44893095D01*
X33280477Y44797857D01*
X33232858Y44750238D01*
X33137620Y44702619D01*
X33042381Y44702619D01*
X32947143Y44750238D01*
X32899524Y44797857D01*
X32851905Y44893095D01*
X32804286Y45083571D01*
X32804286Y45321667D01*
X32851905Y45512143D01*
X32899524Y45607381D01*
X32947143Y45655000D01*
X33042381Y45702619D01*
X33709048Y45702619D02*
X34328096Y45702619D01*
X33994762Y45321667D01*
X34137620Y45321667D01*
X34232858Y45274048D01*
X34280477Y45226429D01*
X34328096Y45131190D01*
X34328096Y44893095D01*
X34280477Y44797857D01*
X34232858Y44750238D01*
X34137620Y44702619D01*
X33851905Y44702619D01*
X33756667Y44750238D01*
X33709048Y44797857D01*
X53662381Y24385953D02*
X53186190Y24052619D01*
X53662381Y23814524D02*
X52662381Y23814524D01*
X52662381Y24195477D01*
X52710000Y24290715D01*
X52757619Y24338334D01*
X52852857Y24385953D01*
X52995714Y24385953D01*
X53090952Y24338334D01*
X53138571Y24290715D01*
X53186190Y24195477D01*
X53186190Y23814524D01*
X52662381Y25290715D02*
X52662381Y24814524D01*
X53138571Y24766905D01*
X53090952Y24814524D01*
X53043333Y24909762D01*
X53043333Y25147858D01*
X53090952Y25243096D01*
X53138571Y25290715D01*
X53233810Y25338334D01*
X53471905Y25338334D01*
X53567143Y25290715D01*
X53614762Y25243096D01*
X53662381Y25147858D01*
X53662381Y24909762D01*
X53614762Y24814524D01*
X53567143Y24766905D01*
X52662381Y25957381D02*
X52662381Y26052620D01*
X52710000Y26147858D01*
X52757619Y26195477D01*
X52852857Y26243096D01*
X53043333Y26290715D01*
X53281429Y26290715D01*
X53471905Y26243096D01*
X53567143Y26195477D01*
X53614762Y26147858D01*
X53662381Y26052620D01*
X53662381Y25957381D01*
X53614762Y25862143D01*
X53567143Y25814524D01*
X53471905Y25766905D01*
X53281429Y25719286D01*
X53043333Y25719286D01*
X52852857Y25766905D01*
X52757619Y25814524D01*
X52710000Y25862143D01*
X52662381Y25957381D01*
X52995714Y27147858D02*
X53662381Y27147858D01*
X52614762Y26909762D02*
X53329048Y26671667D01*
X53329048Y27290715D01*
X49562381Y24385953D02*
X49086190Y24052619D01*
X49562381Y23814524D02*
X48562381Y23814524D01*
X48562381Y24195477D01*
X48610000Y24290715D01*
X48657619Y24338334D01*
X48752857Y24385953D01*
X48895714Y24385953D01*
X48990952Y24338334D01*
X49038571Y24290715D01*
X49086190Y24195477D01*
X49086190Y23814524D01*
X48562381Y25290715D02*
X48562381Y24814524D01*
X49038571Y24766905D01*
X48990952Y24814524D01*
X48943333Y24909762D01*
X48943333Y25147858D01*
X48990952Y25243096D01*
X49038571Y25290715D01*
X49133810Y25338334D01*
X49371905Y25338334D01*
X49467143Y25290715D01*
X49514762Y25243096D01*
X49562381Y25147858D01*
X49562381Y24909762D01*
X49514762Y24814524D01*
X49467143Y24766905D01*
X48562381Y25957381D02*
X48562381Y26052620D01*
X48610000Y26147858D01*
X48657619Y26195477D01*
X48752857Y26243096D01*
X48943333Y26290715D01*
X49181429Y26290715D01*
X49371905Y26243096D01*
X49467143Y26195477D01*
X49514762Y26147858D01*
X49562381Y26052620D01*
X49562381Y25957381D01*
X49514762Y25862143D01*
X49467143Y25814524D01*
X49371905Y25766905D01*
X49181429Y25719286D01*
X48943333Y25719286D01*
X48752857Y25766905D01*
X48657619Y25814524D01*
X48610000Y25862143D01*
X48562381Y25957381D01*
X48562381Y27195477D02*
X48562381Y26719286D01*
X49038571Y26671667D01*
X48990952Y26719286D01*
X48943333Y26814524D01*
X48943333Y27052620D01*
X48990952Y27147858D01*
X49038571Y27195477D01*
X49133810Y27243096D01*
X49371905Y27243096D01*
X49467143Y27195477D01*
X49514762Y27147858D01*
X49562381Y27052620D01*
X49562381Y26814524D01*
X49514762Y26719286D01*
X49467143Y26671667D01*
X51762381Y24385953D02*
X51286190Y24052619D01*
X51762381Y23814524D02*
X50762381Y23814524D01*
X50762381Y24195477D01*
X50810000Y24290715D01*
X50857619Y24338334D01*
X50952857Y24385953D01*
X51095714Y24385953D01*
X51190952Y24338334D01*
X51238571Y24290715D01*
X51286190Y24195477D01*
X51286190Y23814524D01*
X50762381Y25290715D02*
X50762381Y24814524D01*
X51238571Y24766905D01*
X51190952Y24814524D01*
X51143333Y24909762D01*
X51143333Y25147858D01*
X51190952Y25243096D01*
X51238571Y25290715D01*
X51333810Y25338334D01*
X51571905Y25338334D01*
X51667143Y25290715D01*
X51714762Y25243096D01*
X51762381Y25147858D01*
X51762381Y24909762D01*
X51714762Y24814524D01*
X51667143Y24766905D01*
X50762381Y25957381D02*
X50762381Y26052620D01*
X50810000Y26147858D01*
X50857619Y26195477D01*
X50952857Y26243096D01*
X51143333Y26290715D01*
X51381429Y26290715D01*
X51571905Y26243096D01*
X51667143Y26195477D01*
X51714762Y26147858D01*
X51762381Y26052620D01*
X51762381Y25957381D01*
X51714762Y25862143D01*
X51667143Y25814524D01*
X51571905Y25766905D01*
X51381429Y25719286D01*
X51143333Y25719286D01*
X50952857Y25766905D01*
X50857619Y25814524D01*
X50810000Y25862143D01*
X50762381Y25957381D01*
X50762381Y27147858D02*
X50762381Y26957381D01*
X50810000Y26862143D01*
X50857619Y26814524D01*
X51000476Y26719286D01*
X51190952Y26671667D01*
X51571905Y26671667D01*
X51667143Y26719286D01*
X51714762Y26766905D01*
X51762381Y26862143D01*
X51762381Y27052620D01*
X51714762Y27147858D01*
X51667143Y27195477D01*
X51571905Y27243096D01*
X51333810Y27243096D01*
X51238571Y27195477D01*
X51190952Y27147858D01*
X51143333Y27052620D01*
X51143333Y26862143D01*
X51190952Y26766905D01*
X51238571Y26719286D01*
X51333810Y26671667D01*
X28162381Y17457381D02*
X28067143Y17505000D01*
X27971905Y17600238D01*
X27829048Y17743095D01*
X27733809Y17790714D01*
X27638571Y17790714D01*
X27686190Y17552619D02*
X27590952Y17600238D01*
X27495714Y17695476D01*
X27448095Y17885952D01*
X27448095Y18219286D01*
X27495714Y18409762D01*
X27590952Y18505000D01*
X27686190Y18552619D01*
X27876667Y18552619D01*
X27971905Y18505000D01*
X28067143Y18409762D01*
X28114762Y18219286D01*
X28114762Y17885952D01*
X28067143Y17695476D01*
X27971905Y17600238D01*
X27876667Y17552619D01*
X27686190Y17552619D01*
X28971905Y18552619D02*
X28781428Y18552619D01*
X28686190Y18505000D01*
X28638571Y18457381D01*
X28543333Y18314524D01*
X28495714Y18124048D01*
X28495714Y17743095D01*
X28543333Y17647857D01*
X28590952Y17600238D01*
X28686190Y17552619D01*
X28876667Y17552619D01*
X28971905Y17600238D01*
X29019524Y17647857D01*
X29067143Y17743095D01*
X29067143Y17981190D01*
X29019524Y18076429D01*
X28971905Y18124048D01*
X28876667Y18171667D01*
X28686190Y18171667D01*
X28590952Y18124048D01*
X28543333Y18076429D01*
X28495714Y17981190D01*
X29686190Y18552619D02*
X29781429Y18552619D01*
X29876667Y18505000D01*
X29924286Y18457381D01*
X29971905Y18362143D01*
X30019524Y18171667D01*
X30019524Y17933571D01*
X29971905Y17743095D01*
X29924286Y17647857D01*
X29876667Y17600238D01*
X29781429Y17552619D01*
X29686190Y17552619D01*
X29590952Y17600238D01*
X29543333Y17647857D01*
X29495714Y17743095D01*
X29448095Y17933571D01*
X29448095Y18171667D01*
X29495714Y18362143D01*
X29543333Y18457381D01*
X29590952Y18505000D01*
X29686190Y18552619D01*
X30971905Y17552619D02*
X30400476Y17552619D01*
X30686190Y17552619D02*
X30686190Y18552619D01*
X30590952Y18409762D01*
X30495714Y18314524D01*
X30400476Y18266905D01*
X5662381Y23957381D02*
X5567143Y24005000D01*
X5471905Y24100238D01*
X5329048Y24243095D01*
X5233809Y24290714D01*
X5138571Y24290714D01*
X5186190Y24052619D02*
X5090952Y24100238D01*
X4995714Y24195476D01*
X4948095Y24385952D01*
X4948095Y24719286D01*
X4995714Y24909762D01*
X5090952Y25005000D01*
X5186190Y25052619D01*
X5376667Y25052619D01*
X5471905Y25005000D01*
X5567143Y24909762D01*
X5614762Y24719286D01*
X5614762Y24385952D01*
X5567143Y24195476D01*
X5471905Y24100238D01*
X5376667Y24052619D01*
X5186190Y24052619D01*
X6471905Y25052619D02*
X6281428Y25052619D01*
X6186190Y25005000D01*
X6138571Y24957381D01*
X6043333Y24814524D01*
X5995714Y24624048D01*
X5995714Y24243095D01*
X6043333Y24147857D01*
X6090952Y24100238D01*
X6186190Y24052619D01*
X6376667Y24052619D01*
X6471905Y24100238D01*
X6519524Y24147857D01*
X6567143Y24243095D01*
X6567143Y24481190D01*
X6519524Y24576429D01*
X6471905Y24624048D01*
X6376667Y24671667D01*
X6186190Y24671667D01*
X6090952Y24624048D01*
X6043333Y24576429D01*
X5995714Y24481190D01*
X7186190Y25052619D02*
X7281429Y25052619D01*
X7376667Y25005000D01*
X7424286Y24957381D01*
X7471905Y24862143D01*
X7519524Y24671667D01*
X7519524Y24433571D01*
X7471905Y24243095D01*
X7424286Y24147857D01*
X7376667Y24100238D01*
X7281429Y24052619D01*
X7186190Y24052619D01*
X7090952Y24100238D01*
X7043333Y24147857D01*
X6995714Y24243095D01*
X6948095Y24433571D01*
X6948095Y24671667D01*
X6995714Y24862143D01*
X7043333Y24957381D01*
X7090952Y25005000D01*
X7186190Y25052619D01*
X7852857Y25052619D02*
X8471905Y25052619D01*
X8138571Y24671667D01*
X8281429Y24671667D01*
X8376667Y24624048D01*
X8424286Y24576429D01*
X8471905Y24481190D01*
X8471905Y24243095D01*
X8424286Y24147857D01*
X8376667Y24100238D01*
X8281429Y24052619D01*
X7995714Y24052619D01*
X7900476Y24100238D01*
X7852857Y24147857D01*
X42975714Y47502619D02*
X42975714Y46693095D01*
X43023333Y46597857D01*
X43070952Y46550238D01*
X43166190Y46502619D01*
X43356667Y46502619D01*
X43451905Y46550238D01*
X43499524Y46597857D01*
X43547143Y46693095D01*
X43547143Y47502619D01*
X44499524Y47502619D02*
X44023333Y47502619D01*
X43975714Y47026429D01*
X44023333Y47074048D01*
X44118571Y47121667D01*
X44356667Y47121667D01*
X44451905Y47074048D01*
X44499524Y47026429D01*
X44547143Y46931190D01*
X44547143Y46693095D01*
X44499524Y46597857D01*
X44451905Y46550238D01*
X44356667Y46502619D01*
X44118571Y46502619D01*
X44023333Y46550238D01*
X43975714Y46597857D01*
X45166190Y47502619D02*
X45261429Y47502619D01*
X45356667Y47455000D01*
X45404286Y47407381D01*
X45451905Y47312143D01*
X45499524Y47121667D01*
X45499524Y46883571D01*
X45451905Y46693095D01*
X45404286Y46597857D01*
X45356667Y46550238D01*
X45261429Y46502619D01*
X45166190Y46502619D01*
X45070952Y46550238D01*
X45023333Y46597857D01*
X44975714Y46693095D01*
X44928095Y46883571D01*
X44928095Y47121667D01*
X44975714Y47312143D01*
X45023333Y47407381D01*
X45070952Y47455000D01*
X45166190Y47502619D01*
X46451905Y46502619D02*
X45880476Y46502619D01*
X46166190Y46502619D02*
X46166190Y47502619D01*
X46070952Y47359762D01*
X45975714Y47264524D01*
X45880476Y47216905D01*
X28162381Y6457381D02*
X28067143Y6505000D01*
X27971905Y6600238D01*
X27829048Y6743095D01*
X27733809Y6790714D01*
X27638571Y6790714D01*
X27686190Y6552619D02*
X27590952Y6600238D01*
X27495714Y6695476D01*
X27448095Y6885952D01*
X27448095Y7219286D01*
X27495714Y7409762D01*
X27590952Y7505000D01*
X27686190Y7552619D01*
X27876667Y7552619D01*
X27971905Y7505000D01*
X28067143Y7409762D01*
X28114762Y7219286D01*
X28114762Y6885952D01*
X28067143Y6695476D01*
X27971905Y6600238D01*
X27876667Y6552619D01*
X27686190Y6552619D01*
X28971905Y7552619D02*
X28781428Y7552619D01*
X28686190Y7505000D01*
X28638571Y7457381D01*
X28543333Y7314524D01*
X28495714Y7124048D01*
X28495714Y6743095D01*
X28543333Y6647857D01*
X28590952Y6600238D01*
X28686190Y6552619D01*
X28876667Y6552619D01*
X28971905Y6600238D01*
X29019524Y6647857D01*
X29067143Y6743095D01*
X29067143Y6981190D01*
X29019524Y7076429D01*
X28971905Y7124048D01*
X28876667Y7171667D01*
X28686190Y7171667D01*
X28590952Y7124048D01*
X28543333Y7076429D01*
X28495714Y6981190D01*
X29686190Y7552619D02*
X29781429Y7552619D01*
X29876667Y7505000D01*
X29924286Y7457381D01*
X29971905Y7362143D01*
X30019524Y7171667D01*
X30019524Y6933571D01*
X29971905Y6743095D01*
X29924286Y6647857D01*
X29876667Y6600238D01*
X29781429Y6552619D01*
X29686190Y6552619D01*
X29590952Y6600238D01*
X29543333Y6647857D01*
X29495714Y6743095D01*
X29448095Y6933571D01*
X29448095Y7171667D01*
X29495714Y7362143D01*
X29543333Y7457381D01*
X29590952Y7505000D01*
X29686190Y7552619D01*
X30400476Y7457381D02*
X30448095Y7505000D01*
X30543333Y7552619D01*
X30781429Y7552619D01*
X30876667Y7505000D01*
X30924286Y7457381D01*
X30971905Y7362143D01*
X30971905Y7266905D01*
X30924286Y7124048D01*
X30352857Y6552619D01*
X30971905Y6552619D01*
X6162381Y18457381D02*
X6067143Y18505000D01*
X5971905Y18600238D01*
X5829048Y18743095D01*
X5733809Y18790714D01*
X5638571Y18790714D01*
X5686190Y18552619D02*
X5590952Y18600238D01*
X5495714Y18695476D01*
X5448095Y18885952D01*
X5448095Y19219286D01*
X5495714Y19409762D01*
X5590952Y19505000D01*
X5686190Y19552619D01*
X5876667Y19552619D01*
X5971905Y19505000D01*
X6067143Y19409762D01*
X6114762Y19219286D01*
X6114762Y18885952D01*
X6067143Y18695476D01*
X5971905Y18600238D01*
X5876667Y18552619D01*
X5686190Y18552619D01*
X6971905Y19552619D02*
X6781428Y19552619D01*
X6686190Y19505000D01*
X6638571Y19457381D01*
X6543333Y19314524D01*
X6495714Y19124048D01*
X6495714Y18743095D01*
X6543333Y18647857D01*
X6590952Y18600238D01*
X6686190Y18552619D01*
X6876667Y18552619D01*
X6971905Y18600238D01*
X7019524Y18647857D01*
X7067143Y18743095D01*
X7067143Y18981190D01*
X7019524Y19076429D01*
X6971905Y19124048D01*
X6876667Y19171667D01*
X6686190Y19171667D01*
X6590952Y19124048D01*
X6543333Y19076429D01*
X6495714Y18981190D01*
X7686190Y19552619D02*
X7781429Y19552619D01*
X7876667Y19505000D01*
X7924286Y19457381D01*
X7971905Y19362143D01*
X8019524Y19171667D01*
X8019524Y18933571D01*
X7971905Y18743095D01*
X7924286Y18647857D01*
X7876667Y18600238D01*
X7781429Y18552619D01*
X7686190Y18552619D01*
X7590952Y18600238D01*
X7543333Y18647857D01*
X7495714Y18743095D01*
X7448095Y18933571D01*
X7448095Y19171667D01*
X7495714Y19362143D01*
X7543333Y19457381D01*
X7590952Y19505000D01*
X7686190Y19552619D01*
X8876667Y19219286D02*
X8876667Y18552619D01*
X8638571Y19600238D02*
X8400476Y18885952D01*
X9019524Y18885952D01*
X40662381Y23719286D02*
X41376667Y23719286D01*
X41519524Y23671666D01*
X41614762Y23576428D01*
X41662381Y23433571D01*
X41662381Y23338333D01*
X41662381Y24195476D02*
X40662381Y24195476D01*
X40662381Y24576429D01*
X40710000Y24671667D01*
X40757619Y24719286D01*
X40852857Y24766905D01*
X40995714Y24766905D01*
X41090952Y24719286D01*
X41138571Y24671667D01*
X41186190Y24576429D01*
X41186190Y24195476D01*
X40662381Y25671667D02*
X40662381Y25195476D01*
X41138571Y25147857D01*
X41090952Y25195476D01*
X41043333Y25290714D01*
X41043333Y25528810D01*
X41090952Y25624048D01*
X41138571Y25671667D01*
X41233810Y25719286D01*
X41471905Y25719286D01*
X41567143Y25671667D01*
X41614762Y25624048D01*
X41662381Y25528810D01*
X41662381Y25290714D01*
X41614762Y25195476D01*
X41567143Y25147857D01*
X40662381Y26338333D02*
X40662381Y26433572D01*
X40710000Y26528810D01*
X40757619Y26576429D01*
X40852857Y26624048D01*
X41043333Y26671667D01*
X41281429Y26671667D01*
X41471905Y26624048D01*
X41567143Y26576429D01*
X41614762Y26528810D01*
X41662381Y26433572D01*
X41662381Y26338333D01*
X41614762Y26243095D01*
X41567143Y26195476D01*
X41471905Y26147857D01*
X41281429Y26100238D01*
X41043333Y26100238D01*
X40852857Y26147857D01*
X40757619Y26195476D01*
X40710000Y26243095D01*
X40662381Y26338333D01*
X41662381Y27624048D02*
X41662381Y27052619D01*
X41662381Y27338333D02*
X40662381Y27338333D01*
X40805238Y27243095D01*
X40900476Y27147857D01*
X40948095Y27052619D01*
D21*
X14971352Y21092886D02*
X14925390Y21046924D01*
X14787505Y21000962D01*
X14695581Y21000962D01*
X14557695Y21046924D01*
X14465771Y21138848D01*
X14419810Y21230771D01*
X14373848Y21414619D01*
X14373848Y21552505D01*
X14419810Y21736352D01*
X14465771Y21828276D01*
X14557695Y21920200D01*
X14695581Y21966162D01*
X14787505Y21966162D01*
X14925390Y21920200D01*
X14971352Y21874238D01*
X15798667Y21966162D02*
X15614819Y21966162D01*
X15522895Y21920200D01*
X15476933Y21874238D01*
X15385010Y21736352D01*
X15339048Y21552505D01*
X15339048Y21184810D01*
X15385010Y21092886D01*
X15430971Y21046924D01*
X15522895Y21000962D01*
X15706743Y21000962D01*
X15798667Y21046924D01*
X15844629Y21092886D01*
X15890590Y21184810D01*
X15890590Y21414619D01*
X15844629Y21506543D01*
X15798667Y21552505D01*
X15706743Y21598467D01*
X15522895Y21598467D01*
X15430971Y21552505D01*
X15385010Y21506543D01*
X15339048Y21414619D01*
X16488095Y21966162D02*
X16580019Y21966162D01*
X16671943Y21920200D01*
X16717905Y21874238D01*
X16763867Y21782314D01*
X16809828Y21598467D01*
X16809828Y21368657D01*
X16763867Y21184810D01*
X16717905Y21092886D01*
X16671943Y21046924D01*
X16580019Y21000962D01*
X16488095Y21000962D01*
X16396171Y21046924D01*
X16350209Y21092886D01*
X16304248Y21184810D01*
X16258286Y21368657D01*
X16258286Y21598467D01*
X16304248Y21782314D01*
X16350209Y21874238D01*
X16396171Y21920200D01*
X16488095Y21966162D01*
X17637143Y21644429D02*
X17637143Y21000962D01*
X17407333Y22012124D02*
X17177524Y21322695D01*
X17775028Y21322695D01*
X21971352Y10092886D02*
X21925390Y10046924D01*
X21787505Y10000962D01*
X21695581Y10000962D01*
X21557695Y10046924D01*
X21465771Y10138848D01*
X21419810Y10230771D01*
X21373848Y10414619D01*
X21373848Y10552505D01*
X21419810Y10736352D01*
X21465771Y10828276D01*
X21557695Y10920200D01*
X21695581Y10966162D01*
X21787505Y10966162D01*
X21925390Y10920200D01*
X21971352Y10874238D01*
X22798667Y10966162D02*
X22614819Y10966162D01*
X22522895Y10920200D01*
X22476933Y10874238D01*
X22385010Y10736352D01*
X22339048Y10552505D01*
X22339048Y10184810D01*
X22385010Y10092886D01*
X22430971Y10046924D01*
X22522895Y10000962D01*
X22706743Y10000962D01*
X22798667Y10046924D01*
X22844629Y10092886D01*
X22890590Y10184810D01*
X22890590Y10414619D01*
X22844629Y10506543D01*
X22798667Y10552505D01*
X22706743Y10598467D01*
X22522895Y10598467D01*
X22430971Y10552505D01*
X22385010Y10506543D01*
X22339048Y10414619D01*
X23488095Y10966162D02*
X23580019Y10966162D01*
X23671943Y10920200D01*
X23717905Y10874238D01*
X23763867Y10782314D01*
X23809828Y10598467D01*
X23809828Y10368657D01*
X23763867Y10184810D01*
X23717905Y10092886D01*
X23671943Y10046924D01*
X23580019Y10000962D01*
X23488095Y10000962D01*
X23396171Y10046924D01*
X23350209Y10092886D01*
X23304248Y10184810D01*
X23258286Y10368657D01*
X23258286Y10598467D01*
X23304248Y10782314D01*
X23350209Y10874238D01*
X23396171Y10920200D01*
X23488095Y10966162D01*
X24637143Y10966162D02*
X24453295Y10966162D01*
X24361371Y10920200D01*
X24315409Y10874238D01*
X24223486Y10736352D01*
X24177524Y10552505D01*
X24177524Y10184810D01*
X24223486Y10092886D01*
X24269447Y10046924D01*
X24361371Y10000962D01*
X24545219Y10000962D01*
X24637143Y10046924D01*
X24683105Y10092886D01*
X24729066Y10184810D01*
X24729066Y10414619D01*
X24683105Y10506543D01*
X24637143Y10552505D01*
X24545219Y10598467D01*
X24361371Y10598467D01*
X24269447Y10552505D01*
X24223486Y10506543D01*
X24177524Y10414619D01*
D13*
X70557619Y12987381D02*
X70510000Y12892143D01*
X70414762Y12796905D01*
X70271905Y12654048D01*
X70224286Y12558809D01*
X70224286Y12463571D01*
X70462381Y12511190D02*
X70414762Y12415952D01*
X70319524Y12320714D01*
X70129048Y12273095D01*
X69795714Y12273095D01*
X69605238Y12320714D01*
X69510000Y12415952D01*
X69462381Y12511190D01*
X69462381Y12701667D01*
X69510000Y12796905D01*
X69605238Y12892143D01*
X69795714Y12939762D01*
X70129048Y12939762D01*
X70319524Y12892143D01*
X70414762Y12796905D01*
X70462381Y12701667D01*
X70462381Y12511190D01*
X69557619Y13320714D02*
X69510000Y13368333D01*
X69462381Y13463571D01*
X69462381Y13701667D01*
X69510000Y13796905D01*
X69557619Y13844524D01*
X69652857Y13892143D01*
X69748095Y13892143D01*
X69890952Y13844524D01*
X70462381Y13273095D01*
X70462381Y13892143D01*
X69462381Y14511190D02*
X69462381Y14606429D01*
X69510000Y14701667D01*
X69557619Y14749286D01*
X69652857Y14796905D01*
X69843333Y14844524D01*
X70081429Y14844524D01*
X70271905Y14796905D01*
X70367143Y14749286D01*
X70414762Y14701667D01*
X70462381Y14606429D01*
X70462381Y14511190D01*
X70414762Y14415952D01*
X70367143Y14368333D01*
X70271905Y14320714D01*
X70081429Y14273095D01*
X69843333Y14273095D01*
X69652857Y14320714D01*
X69557619Y14368333D01*
X69510000Y14415952D01*
X69462381Y14511190D01*
X70462381Y15796905D02*
X70462381Y15225476D01*
X70462381Y15511190D02*
X69462381Y15511190D01*
X69605238Y15415952D01*
X69700476Y15320714D01*
X69748095Y15225476D01*
D19*
X68477262Y23218952D02*
X68477262Y22242262D01*
X68534714Y22127357D01*
X68592167Y22069905D01*
X68707071Y22012452D01*
X68936881Y22012452D01*
X69051786Y22069905D01*
X69109238Y22127357D01*
X69166690Y22242262D01*
X69166690Y23218952D01*
X69683762Y23104048D02*
X69741214Y23161500D01*
X69856119Y23218952D01*
X70143381Y23218952D01*
X70258285Y23161500D01*
X70315738Y23104048D01*
X70373190Y22989143D01*
X70373190Y22874238D01*
X70315738Y22701881D01*
X69626309Y22012452D01*
X70373190Y22012452D01*
X71120071Y23218952D02*
X71234976Y23218952D01*
X71349881Y23161500D01*
X71407333Y23104048D01*
X71464786Y22989143D01*
X71522238Y22759333D01*
X71522238Y22472071D01*
X71464786Y22242262D01*
X71407333Y22127357D01*
X71349881Y22069905D01*
X71234976Y22012452D01*
X71120071Y22012452D01*
X71005167Y22069905D01*
X70947714Y22127357D01*
X70890262Y22242262D01*
X70832810Y22472071D01*
X70832810Y22759333D01*
X70890262Y22989143D01*
X70947714Y23104048D01*
X71005167Y23161500D01*
X71120071Y23218952D01*
X72671286Y22012452D02*
X71981858Y22012452D01*
X72326572Y22012452D02*
X72326572Y23218952D01*
X72211667Y23046595D01*
X72096762Y22931690D01*
X71981858Y22874238D01*
D13*
X-2361428Y2676429D02*
X-2694762Y2676429D01*
X-2694762Y2152619D02*
X-2694762Y3152619D01*
X-2218571Y3152619D01*
X-1837619Y2152619D02*
X-1837619Y3152619D01*
X-1361429Y2152619D02*
X-1361429Y3152619D01*
X-1123334Y3152619D01*
X-980476Y3105000D01*
X-885238Y3009762D01*
X-837619Y2914524D01*
X-790000Y2724048D01*
X-790000Y2581190D01*
X-837619Y2390714D01*
X-885238Y2295476D01*
X-980476Y2200238D01*
X-1123334Y2152619D01*
X-1361429Y2152619D01*
X162381Y2152619D02*
X-409048Y2152619D01*
X-123334Y2152619D02*
X-123334Y3152619D01*
X-218572Y3009762D01*
X-313810Y2914524D01*
X-409048Y2866905D01*
X34757619Y-1042619D02*
X34710000Y-1137857D01*
X34614762Y-1233095D01*
X34471905Y-1375952D01*
X34424286Y-1471191D01*
X34424286Y-1566429D01*
X34662381Y-1518810D02*
X34614762Y-1614048D01*
X34519524Y-1709286D01*
X34329048Y-1756905D01*
X33995714Y-1756905D01*
X33805238Y-1709286D01*
X33710000Y-1614048D01*
X33662381Y-1518810D01*
X33662381Y-1328333D01*
X33710000Y-1233095D01*
X33805238Y-1137857D01*
X33995714Y-1090238D01*
X34329048Y-1090238D01*
X34519524Y-1137857D01*
X34614762Y-1233095D01*
X34662381Y-1328333D01*
X34662381Y-1518810D01*
X33662381Y-756905D02*
X33662381Y-137857D01*
X34043333Y-471191D01*
X34043333Y-328333D01*
X34090952Y-233095D01*
X34138571Y-185476D01*
X34233810Y-137857D01*
X34471905Y-137857D01*
X34567143Y-185476D01*
X34614762Y-233095D01*
X34662381Y-328333D01*
X34662381Y-614048D01*
X34614762Y-709286D01*
X34567143Y-756905D01*
X33662381Y481190D02*
X33662381Y576429D01*
X33710000Y671667D01*
X33757619Y719286D01*
X33852857Y766905D01*
X34043333Y814524D01*
X34281429Y814524D01*
X34471905Y766905D01*
X34567143Y719286D01*
X34614762Y671667D01*
X34662381Y576429D01*
X34662381Y481190D01*
X34614762Y385952D01*
X34567143Y338333D01*
X34471905Y290714D01*
X34281429Y243095D01*
X34043333Y243095D01*
X33852857Y290714D01*
X33757619Y338333D01*
X33710000Y385952D01*
X33662381Y481190D01*
X34662381Y1766905D02*
X34662381Y1195476D01*
X34662381Y1481190D02*
X33662381Y1481190D01*
X33805238Y1385952D01*
X33900476Y1290714D01*
X33948095Y1195476D01*
X56162381Y32457381D02*
X56067143Y32505000D01*
X55971905Y32600238D01*
X55829048Y32743095D01*
X55733809Y32790714D01*
X55638571Y32790714D01*
X55686190Y32552619D02*
X55590952Y32600238D01*
X55495714Y32695476D01*
X55448095Y32885952D01*
X55448095Y33219286D01*
X55495714Y33409762D01*
X55590952Y33505000D01*
X55686190Y33552619D01*
X55876667Y33552619D01*
X55971905Y33505000D01*
X56067143Y33409762D01*
X56114762Y33219286D01*
X56114762Y32885952D01*
X56067143Y32695476D01*
X55971905Y32600238D01*
X55876667Y32552619D01*
X55686190Y32552619D01*
X57019524Y33552619D02*
X56543333Y33552619D01*
X56495714Y33076429D01*
X56543333Y33124048D01*
X56638571Y33171667D01*
X56876667Y33171667D01*
X56971905Y33124048D01*
X57019524Y33076429D01*
X57067143Y32981190D01*
X57067143Y32743095D01*
X57019524Y32647857D01*
X56971905Y32600238D01*
X56876667Y32552619D01*
X56638571Y32552619D01*
X56543333Y32600238D01*
X56495714Y32647857D01*
X57686190Y33552619D02*
X57781429Y33552619D01*
X57876667Y33505000D01*
X57924286Y33457381D01*
X57971905Y33362143D01*
X58019524Y33171667D01*
X58019524Y32933571D01*
X57971905Y32743095D01*
X57924286Y32647857D01*
X57876667Y32600238D01*
X57781429Y32552619D01*
X57686190Y32552619D01*
X57590952Y32600238D01*
X57543333Y32647857D01*
X57495714Y32743095D01*
X57448095Y32933571D01*
X57448095Y33171667D01*
X57495714Y33362143D01*
X57543333Y33457381D01*
X57590952Y33505000D01*
X57686190Y33552619D01*
X58971905Y32552619D02*
X58400476Y32552619D01*
X58686190Y32552619D02*
X58686190Y33552619D01*
X58590952Y33409762D01*
X58495714Y33314524D01*
X58400476Y33266905D01*
X2662381Y49457381D02*
X2567143Y49505000D01*
X2471905Y49600238D01*
X2329048Y49743095D01*
X2233809Y49790714D01*
X2138571Y49790714D01*
X2186190Y49552619D02*
X2090952Y49600238D01*
X1995714Y49695476D01*
X1948095Y49885952D01*
X1948095Y50219286D01*
X1995714Y50409762D01*
X2090952Y50505000D01*
X2186190Y50552619D01*
X2376667Y50552619D01*
X2471905Y50505000D01*
X2567143Y50409762D01*
X2614762Y50219286D01*
X2614762Y49885952D01*
X2567143Y49695476D01*
X2471905Y49600238D01*
X2376667Y49552619D01*
X2186190Y49552619D01*
X2948095Y50552619D02*
X3614762Y50552619D01*
X3186190Y49552619D01*
X4186190Y50552619D02*
X4281429Y50552619D01*
X4376667Y50505000D01*
X4424286Y50457381D01*
X4471905Y50362143D01*
X4519524Y50171667D01*
X4519524Y49933571D01*
X4471905Y49743095D01*
X4424286Y49647857D01*
X4376667Y49600238D01*
X4281429Y49552619D01*
X4186190Y49552619D01*
X4090952Y49600238D01*
X4043333Y49647857D01*
X3995714Y49743095D01*
X3948095Y49933571D01*
X3948095Y50171667D01*
X3995714Y50362143D01*
X4043333Y50457381D01*
X4090952Y50505000D01*
X4186190Y50552619D01*
X5471905Y49552619D02*
X4900476Y49552619D01*
X5186190Y49552619D02*
X5186190Y50552619D01*
X5090952Y50409762D01*
X4995714Y50314524D01*
X4900476Y50266905D01*
M02*
