G04 #@! TF.FileFunction,Soldermask,Bot*
%FSLAX46Y46*%
G04 Gerber Fmt 4.6, Leading zero omitted, Abs format (unit mm)*
G04 Created by KiCad (PCBNEW 4.0.7) date 2018 June 20, Wednesday 04:28:19*
%MOMM*%
%LPD*%
G01*
G04 APERTURE LIST*
%ADD10C,0.050000*%
%ADD11C,2.900000*%
%ADD12R,1.289000X1.162000*%
%ADD13C,2.800000*%
%ADD14R,2.800000X2.800000*%
%ADD15R,2.432000X2.432000*%
%ADD16O,2.432000X2.432000*%
%ADD17R,2.100000X2.100000*%
%ADD18O,2.100000X2.100000*%
%ADD19R,1.950000X1.700000*%
%ADD20R,2.432000X2.127200*%
%ADD21O,2.432000X2.127200*%
%ADD22O,2.398980X2.398980*%
%ADD23R,2.398980X2.398980*%
%ADD24C,1.004800*%
%ADD25C,1.009600*%
%ADD26R,1.098500X1.997660*%
%ADD27R,1.799540X1.997660*%
%ADD28R,1.799540X2.599640*%
%ADD29R,2.198320X1.799540*%
%ADD30C,1.400000*%
%ADD31R,1.750000X1.750000*%
G04 APERTURE END LIST*
D10*
D11*
X10190000Y5000000D03*
X53750000Y5000000D03*
D12*
X72990000Y44917000D03*
X72990000Y43393000D03*
X70990000Y44917000D03*
X70990000Y43393000D03*
D13*
X66690000Y10355000D03*
D14*
X66690000Y13855000D03*
D15*
X62750000Y25250000D03*
D16*
X62750000Y27790000D03*
D17*
X6230000Y55455000D03*
D18*
X3690000Y55455000D03*
X1150000Y55455000D03*
D17*
X61600000Y330000D03*
D18*
X59060000Y330000D03*
D17*
X48900000Y330000D03*
D18*
X51440000Y330000D03*
D19*
X67760000Y23505000D03*
X75710000Y23505000D03*
X67760000Y28005000D03*
X75710000Y28005000D03*
D20*
X690000Y15915000D03*
D21*
X690000Y18455000D03*
X690000Y20995000D03*
D17*
X53980000Y330000D03*
D18*
X56520000Y330000D03*
D11*
X10250000Y49500000D03*
D17*
X64140000Y330000D03*
D22*
X640000Y27520000D03*
D23*
X8260000Y27520000D03*
D22*
X5720000Y27520000D03*
X3180000Y27520000D03*
X20960000Y42760000D03*
D23*
X28580000Y42760000D03*
D22*
X26040000Y42760000D03*
X23500000Y42760000D03*
X18420000Y42760000D03*
X15880000Y27520000D03*
D23*
X23500000Y27520000D03*
D22*
X20960000Y27520000D03*
X18420000Y27520000D03*
X3180000Y42760000D03*
D23*
X10800000Y42760000D03*
D22*
X8260000Y42760000D03*
X5720000Y42760000D03*
X640000Y42760000D03*
D17*
X17610000Y55500000D03*
D18*
X20150000Y55500000D03*
X22690000Y55500000D03*
X25230000Y55500000D03*
X27770000Y55500000D03*
X30310000Y55500000D03*
D24*
X71250000Y20000000D03*
D25*
X69750000Y20000000D03*
D26*
X44309300Y2505960D03*
X43209480Y2505960D03*
X42109660Y2505960D03*
X41012380Y2505960D03*
X39912560Y2505960D03*
X38812740Y2505960D03*
X37712920Y2505960D03*
X36613100Y2505960D03*
X35513280Y2505960D03*
D27*
X34212800Y3105400D03*
D28*
X34212800Y12605000D03*
X49910000Y12605000D03*
D29*
X49010840Y3003800D03*
D30*
X45061400Y13005960D03*
X37061400Y13005960D03*
D31*
X36610000Y30005000D03*
M02*
