M48
INCH,TZ
T1C0.012
T2C0.024
T3C0.030
T4C0.040
T5C0.047
%
G90
G05
T1
X38504Y-51772
X38806Y-23611
X38937Y-50079
X39724Y-51339
X40394Y-51299
X40460Y-45417
X40551Y-44094
X40775Y-44591
X40945Y-55709
X41339Y-44094
X41339Y-55709
X41535Y-50984
X41535Y-51575
X41535Y-52165
X41732Y-55118
X41732Y-55709
X42126Y-44094
X42126Y-55118
X42126Y-55709
X42520Y-50984
X42520Y-51575
X42520Y-52165
X42587Y-52702
X42625Y-54866
X42625Y-55417
X42913Y-44094
X43504Y-52953
X43701Y-44094
X43701Y-50984
X43701Y-51575
X43701Y-52165
X44213Y-48622
X44488Y-44094
X44882Y-54724
X44882Y-55512
X45066Y-49197
X45276Y-44094
X45276Y-44094
X45276Y-44882
X45276Y-51181
X45276Y-51969
X45276Y-55709
X45302Y-55142
X45337Y-46100
X45337Y-47065
X45669Y-48031
X45700Y-46365
X45787Y-50315
X45814Y-49472
X46063Y-44094
X46063Y-44094
X46063Y-44882
X46063Y-53543
X46063Y-54331
X46457Y-53150
X46457Y-53937
X46725Y-50275
X46850Y-44094
X46850Y-44094
X46850Y-44882
X47037Y-47865
X47638Y-44094
X47638Y-44094
X47638Y-44882
X47901Y-52858
X47980Y-51638
X48019Y-50787
X48089Y-46339
X48425Y-44094
X48425Y-44094
X48425Y-44882
X48491Y-49039
X48688Y-52976
X48819Y-49039
X49213Y-44094
X49213Y-44094
X49213Y-44882
X49397Y-51677
X49409Y-50787
X49606Y-46850
X49606Y-48031
X49724Y-45472
X50000Y-44094
X50000Y-44094
X50000Y-44882
X50000Y-47294
X50394Y-46850
X50394Y-49213
X50702Y-49783
X50785Y-47294
X50787Y-44094
X50787Y-44094
X50787Y-44882
X51181Y-46850
X51181Y-49213
X51479Y-51228
X51575Y-44094
X51575Y-44882
X52074Y-49157
X52362Y-44094
X52362Y-44882
X52600Y-49800
X53150Y-44094
X53150Y-44882
X53150Y-45669
X53937Y-44094
X53937Y-44882
X53937Y-45669
X53937Y-46457
X54370Y-50715
X54724Y-44094
X54724Y-44882
X54751Y-47268
X55460Y-47268
X55512Y-44094
X55512Y-44882
X55551Y-49055
X55866Y-55118
X55916Y-50772
X56063Y-47795
X56139Y-55360
X56162Y-50413
X56270Y-51972
X56409Y-51107
X56566Y-51776
X56614Y-49488
X56654Y-55315
X56732Y-48307
X56732Y-48819
X56929Y-52165
X57113Y-47898
X57638Y-49567
X57638Y-50236
X58189Y-48661
X58334Y-48055
X58346Y-49567
X58346Y-50236
X58661Y-44094
X58661Y-44882
X58728Y-52264
X58858Y-51378
X58964Y-55339
X59252Y-51181
X59449Y-44094
X59449Y-44882
X59646Y-51378
X59672Y-48173
X59764Y-50337
X59764Y-49449
X59987Y-47268
X60236Y-44094
X60236Y-44882
X60236Y-45669
X60394Y-53465
X60433Y-48543
X60735Y-47228
X61024Y-44094
X61024Y-44882
X61024Y-45669
X61024Y-49606
X61405Y-51441
X61405Y-51441
X61811Y-44094
X61811Y-44882
X61811Y-45669
X61811Y-48031
X61811Y-48819
X61811Y-50787
X61811Y-51575
X61811Y-52362
X62169Y-49962
X62598Y-44094
X62598Y-44882
X62598Y-45669
X62598Y-49606
X62598Y-50787
X62598Y-51575
X62822Y-47819
X63386Y-44094
X63386Y-44882
X63386Y-45669
X63386Y-47638
X63386Y-48425
X63386Y-49213
X63386Y-50000
X63386Y-50787
X63491Y-55535
X64173Y-44094
X64173Y-44882
X64173Y-45669
X64173Y-47638
X64173Y-48425
X64173Y-49213
X64173Y-50000
X64173Y-53150
X64279Y-55181
X64961Y-44094
X64961Y-44882
X64961Y-45669
X64961Y-47638
X64961Y-48425
X64961Y-49213
X64961Y-52362
X64961Y-53150
X65748Y-44094
X65748Y-44882
X65748Y-45669
X65748Y-51575
X65748Y-51575
X65748Y-51575
X65748Y-52362
X65748Y-52362
X65748Y-52362
X65748Y-52362
X65748Y-53150
X65814Y-47780
X66535Y-44094
X66535Y-44882
X66535Y-45669
X66535Y-46457
X66535Y-50787
X66535Y-51575
X66535Y-51575
X66535Y-51575
X66535Y-52362
X66535Y-53150
X67323Y-44094
X67323Y-44882
X67323Y-45669
X67323Y-45669
X67323Y-46457
X67323Y-46457
X67323Y-50000
X67323Y-50787
X67323Y-51575
X67323Y-51575
X67323Y-51575
X67323Y-52362
X67323Y-53150
X68110Y-44094
X68110Y-44882
X68110Y-45669
X68110Y-46457
X68110Y-49213
X68110Y-50000
X68110Y-50787
X68110Y-51575
X68110Y-51575
X68110Y-51575
X68110Y-52362
X68110Y-52362
X68110Y-53150
X68110Y-53150
X68898Y-44094
X68898Y-44882
X68898Y-45669
X68898Y-49213
X68898Y-50000
X68898Y-50000
X68898Y-50787
X68898Y-50787
X68898Y-50787
X68898Y-50787
X68898Y-51575
X68898Y-51575
X68898Y-51575
X68898Y-52362
X68898Y-52362
X68898Y-52362
X68898Y-53150
X68898Y-53150
X68898Y-53937
X68898Y-53937
X68898Y-53937
X68898Y-54724
X68898Y-55512
X69685Y-44094
X69685Y-44882
X69685Y-45669
X69685Y-49213
X69685Y-50000
X69685Y-50000
X69685Y-50787
X69685Y-50787
X69685Y-50787
X69685Y-50787
X69685Y-51575
X69685Y-51575
X69685Y-51575
X69685Y-52362
X69685Y-52362
X69685Y-52362
X69685Y-53150
X69685Y-53150
X69685Y-53937
X69685Y-53937
X69685Y-53937
X69685Y-54724
X69685Y-55512
X69830Y-47780
X70472Y-44094
X70472Y-44882
X70472Y-45669
X70472Y-49213
X70472Y-50000
X70472Y-50787
X70472Y-50787
X70472Y-50787
X70472Y-51575
X70472Y-51575
X70472Y-52362
X70472Y-52362
X70472Y-52362
X70472Y-53150
X70472Y-53937
X70472Y-53937
X70472Y-53937
X70472Y-54724
X70472Y-54724
X70472Y-55512
X70472Y-55512
X71260Y-44094
X71260Y-44882
X71260Y-45669
X71260Y-47638
X71260Y-48425
X71260Y-49213
X71260Y-50000
X71260Y-50787
X71260Y-50787
X71260Y-51575
X71260Y-52362
X71260Y-52362
X71260Y-53150
X71260Y-53937
X71260Y-53937
X71260Y-54724
X71260Y-55512
X72047Y-44094
X72047Y-44882
X72047Y-45669
X72047Y-46457
X72047Y-49213
X72047Y-50000
X72047Y-50787
X72047Y-50787
X72047Y-51575
X72047Y-52362
X72047Y-52362
X72047Y-53150
X72047Y-53937
X72047Y-53937
X72047Y-54724
X72350Y-47819
X72835Y-44094
X72835Y-44882
X72835Y-45669
X72835Y-46457
X73228Y-48031
X73228Y-48819
X73228Y-49606
X73228Y-49606
X73228Y-50472
X73228Y-50945
X73228Y-51969
X73228Y-52953
X73228Y-53465
X73228Y-54331
X73228Y-55118
X73622Y-44094
X73622Y-44882
X73622Y-45669
X73622Y-46457
X74016Y-48031
X74016Y-48819
X74016Y-49606
X74016Y-49606
X74016Y-49606
X74016Y-50394
X74016Y-51181
X74016Y-54331
X74016Y-55118
X74409Y-44094
X74409Y-44882
X74409Y-45669
X74409Y-46457
X74803Y-48031
X74803Y-48819
X74803Y-49606
X74803Y-49606
X74803Y-49606
X74803Y-50394
X74803Y-51181
X74803Y-54331
X74803Y-55118
X75197Y-44094
X75197Y-44882
X75197Y-45669
X75197Y-46457
X75591Y-48031
X75591Y-48819
X75591Y-49606
X75591Y-49606
X75591Y-49606
X75591Y-50394
X75591Y-50394
X75591Y-51181
X75591Y-51181
X75591Y-51969
X75591Y-52756
X75591Y-53543
X75591Y-54331
X75591Y-55118
X75984Y-44094
X75984Y-44882
X75984Y-45669
X75984Y-46457
X76378Y-48031
X76378Y-48819
X76378Y-49606
X76378Y-49606
X76378Y-50394
X76378Y-51181
X76378Y-51969
X76378Y-52756
X76378Y-53543
X76378Y-54331
X76378Y-55118
X76772Y-44094
X76772Y-44882
X76772Y-45669
X77237Y-22065
T2
X41090Y-55220
X43637Y-46565
X45617Y-52898
X45617Y-53646
X47098Y-45500
X49237Y-46265
X52441Y-52835
X52502Y-50795
X56142Y-49685
X60591Y-52992
X62310Y-46205
X63074Y-54771
X66523Y-54748
X67546Y-54748
T3
X56949Y-34043
X58524Y-33256
T4
X38837Y-52865
X38937Y-45365
X38937Y-46365
X38937Y-47425
X38937Y-48425
X39837Y-52865
X40937Y-50165
X41937Y-50165
X42937Y-50165
X44437Y-50565
X44437Y-51565
X49598Y-55272
X50598Y-55272
X51598Y-55272
X52598Y-55272
X53598Y-55276
X54598Y-55276
T5
X38837Y-54765
X39837Y-54765
T0
M30
