G04 #@! TF.FileFunction,Soldermask,Top*
%FSLAX46Y46*%
G04 Gerber Fmt 4.6, Leading zero omitted, Abs format (unit mm)*
G04 Created by KiCad (PCBNEW 4.0.4-stable) date 2017 March 07, Tuesday 22:42:02*
%MOMM*%
%LPD*%
G01*
G04 APERTURE LIST*
%ADD10C,0.100000*%
%ADD11C,0.350000*%
%ADD12R,1.416000X1.924000*%
%ADD13R,1.924000X1.416000*%
%ADD14R,1.300000X2.400000*%
%ADD15R,1.700000X2.400000*%
%ADD16R,1.365200X3.752800*%
%ADD17R,2.200860X1.997660*%
%ADD18R,2.432000X2.432000*%
%ADD19O,2.432000X2.432000*%
%ADD20O,1.250000X0.680000*%
%ADD21O,0.680000X1.250000*%
%ADD22R,5.500000X5.500000*%
%ADD23R,1.398220X1.649680*%
%ADD24R,2.400000X3.000000*%
%ADD25O,2.400000X3.000000*%
%ADD26C,0.897840*%
%ADD27R,1.200000X1.150000*%
%ADD28R,0.900000X1.150000*%
%ADD29R,1.200000X1.400000*%
%ADD30R,1.289000X1.289000*%
%ADD31R,1.700000X1.100000*%
%ADD32R,1.100000X1.700000*%
%ADD33R,2.127200X2.432000*%
%ADD34O,2.127200X2.432000*%
%ADD35R,1.300000X0.900000*%
%ADD36R,0.900000X1.300000*%
%ADD37R,2.099260X1.398220*%
%ADD38R,1.300000X1.200000*%
%ADD39O,0.700000X1.100000*%
%ADD40O,1.100000X0.700000*%
%ADD41R,3.850000X3.850000*%
%ADD42R,0.628600X2.178000*%
%ADD43R,1.009600X0.628600*%
%ADD44R,0.628600X1.009600*%
%ADD45R,1.416000X1.797000*%
%ADD46R,1.797000X1.416000*%
%ADD47O,1.449020X1.398220*%
%ADD48O,2.599640X1.449020*%
%ADD49R,1.162000X1.289000*%
%ADD50R,1.924000X1.924000*%
%ADD51C,1.924000*%
G04 APERTURE END LIST*
D10*
D11*
X149037000Y-124235000D02*
X149037000Y-124635000D01*
X148537000Y-124235000D02*
X148537000Y-124635000D01*
X148037000Y-124235000D02*
X148037000Y-124635000D01*
X147537000Y-124235000D02*
X147537000Y-124635000D01*
X147037000Y-124235000D02*
X147037000Y-124635000D01*
X146537000Y-124235000D02*
X146537000Y-124635000D01*
X146037000Y-124235000D02*
X146037000Y-124635000D01*
X145537000Y-124235000D02*
X145537000Y-124635000D01*
X144737000Y-125035000D02*
X145137000Y-125035000D01*
X144737000Y-125535000D02*
X145137000Y-125535000D01*
X144737000Y-126035000D02*
X145137000Y-126035000D01*
X144737000Y-126535000D02*
X145137000Y-126535000D01*
X144737000Y-127035000D02*
X145137000Y-127035000D01*
X144737000Y-127535000D02*
X145137000Y-127535000D01*
X144737000Y-128035000D02*
X145137000Y-128035000D01*
X144737000Y-128535000D02*
X145137000Y-128535000D01*
X145537000Y-129335000D02*
X145537000Y-128935000D01*
X146037000Y-129335000D02*
X146037000Y-128935000D01*
X146537000Y-129335000D02*
X146537000Y-128935000D01*
X147037000Y-129335000D02*
X147037000Y-128935000D01*
X147537000Y-129335000D02*
X147537000Y-128935000D01*
X148037000Y-129335000D02*
X148037000Y-128935000D01*
X148537000Y-129335000D02*
X148537000Y-128935000D01*
X149037000Y-129335000D02*
X149037000Y-128935000D01*
X149837000Y-128535000D02*
X149437000Y-128535000D01*
X149837000Y-128035000D02*
X149437000Y-128035000D01*
X149837000Y-127535000D02*
X149437000Y-127535000D01*
X149837000Y-127035000D02*
X149437000Y-127035000D01*
X149837000Y-126535000D02*
X149437000Y-126535000D01*
X149837000Y-126035000D02*
X149437000Y-126035000D01*
X149837000Y-125535000D02*
X149437000Y-125535000D01*
X149837000Y-125035000D02*
X149437000Y-125035000D01*
D10*
G36*
X148687000Y-125085000D02*
X148987000Y-125385000D01*
X148987000Y-128485000D01*
X145587000Y-128485000D01*
X145587000Y-125085000D01*
X148687000Y-125085000D01*
G37*
D12*
X159606000Y-140780000D03*
X165956000Y-140780000D03*
X167226000Y-140780000D03*
X168496000Y-140780000D03*
X172306000Y-140780000D03*
X173576000Y-140780000D03*
X183736000Y-140780000D03*
D13*
X185006000Y-135700000D03*
X185006000Y-134430000D03*
X185006000Y-133160000D03*
X185006000Y-131890000D03*
X185006000Y-130620000D03*
X185006000Y-129350000D03*
X185006000Y-128080000D03*
D12*
X183736000Y-123000000D03*
X178656000Y-123000000D03*
X177386000Y-123000000D03*
X176116000Y-123000000D03*
X167226000Y-123000000D03*
X159606000Y-123000000D03*
D14*
X106390000Y-120222000D03*
D15*
X107790000Y-115822000D03*
D14*
X109190000Y-120222000D03*
X113756000Y-120222000D03*
D15*
X115156000Y-115822000D03*
D14*
X116556000Y-120222000D03*
D16*
X106862900Y-131738000D03*
X109225100Y-131738000D03*
D17*
X194368000Y-57579860D03*
X194368000Y-54740140D03*
D18*
X133598000Y-140390000D03*
D19*
X131058000Y-140390000D03*
D20*
X120190000Y-126575000D03*
X120190000Y-127075000D03*
X120190000Y-127575000D03*
X120190000Y-128075000D03*
X120190000Y-128575000D03*
X120190000Y-129075000D03*
X120190000Y-129575000D03*
X120190000Y-130075000D03*
X120190000Y-130575000D03*
X120190000Y-131075000D03*
X120190000Y-131575000D03*
X120190000Y-132075000D03*
D21*
X120915000Y-132800000D03*
X121415000Y-132800000D03*
X121915000Y-132800000D03*
X122415000Y-132800000D03*
X122915000Y-132800000D03*
X123415000Y-132800000D03*
X123915000Y-132800000D03*
X124415000Y-132800000D03*
X124915000Y-132800000D03*
X125415000Y-132800000D03*
X125915000Y-132800000D03*
X126415000Y-132800000D03*
D20*
X127140000Y-132075000D03*
X127140000Y-131575000D03*
X127140000Y-131075000D03*
X127140000Y-130575000D03*
X127140000Y-130075000D03*
X127140000Y-129575000D03*
X127140000Y-129075000D03*
X127140000Y-128575000D03*
X127140000Y-128075000D03*
X127140000Y-127575000D03*
X127140000Y-127075000D03*
X127140000Y-126575000D03*
D21*
X126415000Y-125850000D03*
X125915000Y-125850000D03*
X125415000Y-125850000D03*
X124915000Y-125850000D03*
X124415000Y-125850000D03*
X123915000Y-125850000D03*
X123415000Y-125850000D03*
X122915000Y-125850000D03*
X122415000Y-125850000D03*
X121915000Y-125850000D03*
X121415000Y-125850000D03*
X120915000Y-125850000D03*
D22*
X123665000Y-129325000D03*
D23*
X121396700Y-123160000D03*
X122895300Y-123160000D03*
D24*
X98646000Y-139104000D03*
D25*
X101186000Y-139104000D03*
D26*
X150289280Y-114847000D03*
X149364720Y-114847000D03*
D27*
X149077000Y-116625000D03*
X150577000Y-116625000D03*
X144227000Y-116625000D03*
X142727000Y-116625000D03*
D26*
X143014720Y-114847000D03*
X143939280Y-114847000D03*
D27*
X145902000Y-116625000D03*
X147402000Y-116625000D03*
X145902000Y-114847000D03*
X147402000Y-114847000D03*
X145902000Y-113069000D03*
X147402000Y-113069000D03*
D28*
X152687000Y-124245000D03*
X154587000Y-124245000D03*
D29*
X153637000Y-124245000D03*
D30*
X119380000Y-120142000D03*
X119380000Y-118618000D03*
D31*
X135222000Y-129005000D03*
X135222000Y-127105000D03*
D32*
X148877000Y-119165000D03*
X150777000Y-119165000D03*
X144427000Y-119165000D03*
X142527000Y-119165000D03*
X167795000Y-119292000D03*
X165895000Y-119292000D03*
X163350000Y-119292000D03*
X161450000Y-119292000D03*
D18*
X128518000Y-140390000D03*
D19*
X125978000Y-140390000D03*
D18*
X136140000Y-140400000D03*
D19*
X138680000Y-140400000D03*
D33*
X109060000Y-127420000D03*
D34*
X106520000Y-127420000D03*
X103980000Y-127420000D03*
D35*
X118204000Y-116740000D03*
X118204000Y-115240000D03*
X112108000Y-120804000D03*
X112108000Y-119304000D03*
X117442000Y-132488000D03*
X117442000Y-130988000D03*
X153478000Y-138100000D03*
X153478000Y-139600000D03*
X143863430Y-139607490D03*
X143863430Y-138107490D03*
X149668000Y-138100000D03*
X149668000Y-139600000D03*
D36*
X133202000Y-124880000D03*
X134702000Y-124880000D03*
X147414000Y-111164000D03*
X145914000Y-111164000D03*
X110826000Y-140755000D03*
X109326000Y-140755000D03*
D37*
X98900000Y-129899920D03*
X98900000Y-126100080D03*
D38*
X152937000Y-129875000D03*
X154337000Y-129875000D03*
X154337000Y-128775000D03*
X152937000Y-128775000D03*
D39*
X149037000Y-124435000D03*
X148537000Y-124435000D03*
X148037000Y-124435000D03*
X147537000Y-124435000D03*
X147037000Y-124435000D03*
X146537000Y-124435000D03*
X146037000Y-124435000D03*
X145537000Y-124435000D03*
D40*
X144937000Y-125035000D03*
X144937000Y-125535000D03*
X144937000Y-126035000D03*
X144937000Y-126535000D03*
X144937000Y-127035000D03*
X144937000Y-127535000D03*
X144937000Y-128035000D03*
X144937000Y-128535000D03*
D39*
X145537000Y-129135000D03*
X146037000Y-129135000D03*
X146537000Y-129135000D03*
X147037000Y-129135000D03*
X147537000Y-129135000D03*
X148037000Y-129135000D03*
X148537000Y-129135000D03*
X149037000Y-129135000D03*
D40*
X149637000Y-128535000D03*
X149637000Y-128035000D03*
X149637000Y-127535000D03*
X149637000Y-127035000D03*
X149637000Y-126535000D03*
X149637000Y-126035000D03*
X149637000Y-125535000D03*
X149637000Y-125035000D03*
D41*
X147287000Y-126785000D03*
D42*
X108660991Y-136390009D03*
X108171000Y-136390009D03*
X107681009Y-136390009D03*
D43*
X106771003Y-136194987D03*
X106771003Y-136695012D03*
X106771003Y-137194988D03*
X106771003Y-137695013D03*
D44*
X107671000Y-138095009D03*
X108171000Y-138095009D03*
X108671000Y-138095009D03*
D43*
X109570997Y-137695013D03*
X109570997Y-137194988D03*
X109570997Y-136695012D03*
X109570997Y-136194987D03*
D45*
X112362000Y-136945000D03*
X114140000Y-136945000D03*
X112362000Y-134405000D03*
X114140000Y-134405000D03*
D46*
X104361000Y-136691000D03*
X104361000Y-138469000D03*
D30*
X112616000Y-140882000D03*
X112616000Y-139358000D03*
X146017000Y-120562000D03*
X146017000Y-119038000D03*
X147287000Y-120562000D03*
X147287000Y-119038000D03*
X151478000Y-134278000D03*
X151478000Y-135802000D03*
X138524000Y-124880000D03*
X137000000Y-124880000D03*
X134714000Y-122975000D03*
X133190000Y-122975000D03*
X147668000Y-134278000D03*
X147668000Y-135802000D03*
X147763000Y-138088000D03*
X147763000Y-139612000D03*
X145768430Y-138095490D03*
X145768430Y-139619490D03*
X145800000Y-134238000D03*
X145800000Y-135762000D03*
X151573000Y-139612000D03*
X151573000Y-138088000D03*
X149573000Y-134278000D03*
X149573000Y-135802000D03*
X101300000Y-126038000D03*
X101300000Y-127562000D03*
X182880000Y-120142000D03*
X184404000Y-120142000D03*
X117856000Y-122936000D03*
X119380000Y-122936000D03*
X121146000Y-120922000D03*
X121146000Y-119398000D03*
X123146000Y-120922000D03*
X123146000Y-119398000D03*
X127310000Y-123467000D03*
X127310000Y-121943000D03*
X152875000Y-131600000D03*
X154399000Y-131600000D03*
X142400000Y-123862000D03*
X142400000Y-122338000D03*
X154438000Y-127200000D03*
X155962000Y-127200000D03*
X137127000Y-127293000D03*
X137127000Y-128817000D03*
X139032000Y-127293000D03*
X139032000Y-128817000D03*
X140937000Y-127293000D03*
X140937000Y-128817000D03*
X154272000Y-117133000D03*
X154272000Y-118657000D03*
X139032000Y-118657000D03*
X139032000Y-117133000D03*
X157320000Y-118530000D03*
X157320000Y-120054000D03*
X152367000Y-117133000D03*
X152367000Y-118657000D03*
X140937000Y-118657000D03*
X140937000Y-117133000D03*
X159225000Y-118530000D03*
X159225000Y-120054000D03*
X152875000Y-122340000D03*
X154399000Y-122340000D03*
D46*
X129215000Y-123594000D03*
X129215000Y-121816000D03*
D47*
X189324000Y-133260000D03*
D48*
X190848000Y-131761400D03*
X190848000Y-134758600D03*
D30*
X178148000Y-120054000D03*
X176624000Y-120054000D03*
D18*
X98900000Y-120460000D03*
D19*
X98900000Y-123000000D03*
D17*
X99368000Y-55134140D03*
X99368000Y-57973860D03*
D18*
X98646000Y-134278000D03*
D19*
X101186000Y-134278000D03*
D18*
X112870000Y-130976000D03*
D19*
X112870000Y-128436000D03*
D18*
X98900000Y-115228000D03*
D19*
X98900000Y-117768000D03*
D30*
X133488000Y-135850000D03*
X135012000Y-135850000D03*
D49*
X121560000Y-139234000D03*
X120036000Y-139234000D03*
X121560000Y-141012000D03*
X120036000Y-141012000D03*
D30*
X118004000Y-139234000D03*
X116480000Y-139234000D03*
X118004000Y-141012000D03*
X116480000Y-141012000D03*
D35*
X110838000Y-116740000D03*
X110838000Y-115240000D03*
D36*
X109750000Y-123444000D03*
X111250000Y-123444000D03*
D30*
X121230000Y-137360000D03*
X119706000Y-137360000D03*
X119706000Y-135660000D03*
X121230000Y-135660000D03*
D50*
X147650000Y-105470000D03*
D51*
X148650000Y-84470000D03*
X144650000Y-86470000D03*
D50*
X145650000Y-105470000D03*
M02*
