%TF.GenerationSoftware,KiCad,Pcbnew,4.0.7*%
%TF.CreationDate,2018-10-01T17:52:14+02:00*%
%TF.ProjectId,RFID_BOARD_V3_EM4095,524649445F424F4152445F56335F454D,rev?*%
%TF.FileFunction,Paste,Top*%
%FSLAX46Y46*%
G04 Gerber Fmt 4.6, Leading zero omitted, Abs format (unit mm)*
G04 Created by KiCad (PCBNEW 4.0.7) date 2018 October 01, Monday 17:52:14*
%MOMM*%
%LPD*%
G01*
G04 APERTURE LIST*
%ADD10C,0.100000*%
%ADD11R,0.750000X0.800000*%
%ADD12R,0.600000X1.500000*%
%ADD13R,0.800000X0.750000*%
%ADD14R,1.250000X1.000000*%
%ADD15R,1.000000X1.250000*%
%ADD16R,0.900000X0.500000*%
G04 APERTURE END LIST*
D10*
D11*
X166000000Y-119250000D03*
X166000000Y-117750000D03*
X164000000Y-117750000D03*
X164000000Y-119250000D03*
X158000000Y-119250000D03*
X158000000Y-117750000D03*
D12*
X164445000Y-109700000D03*
X163175000Y-109700000D03*
X161905000Y-109700000D03*
X160635000Y-109700000D03*
X159365000Y-109700000D03*
X158095000Y-109700000D03*
X156825000Y-109700000D03*
X155555000Y-109700000D03*
X155555000Y-115100000D03*
X156825000Y-115100000D03*
X158095000Y-115100000D03*
X159365000Y-115100000D03*
X160635000Y-115100000D03*
X161905000Y-115100000D03*
X163175000Y-115100000D03*
X164445000Y-115100000D03*
D13*
X151250000Y-114500000D03*
X152750000Y-114500000D03*
X154750000Y-117500000D03*
X156250000Y-117500000D03*
D14*
X153000000Y-105500000D03*
X153000000Y-103500000D03*
D11*
X153000000Y-109250000D03*
X153000000Y-107750000D03*
D15*
X155500000Y-103500000D03*
X157500000Y-103500000D03*
X157500000Y-105500000D03*
X155500000Y-105500000D03*
D16*
X160000000Y-119250000D03*
X160000000Y-117750000D03*
D13*
X157250000Y-101500000D03*
X155750000Y-101500000D03*
X161250000Y-107000000D03*
X159750000Y-107000000D03*
D15*
X161500000Y-105300000D03*
X159500000Y-105300000D03*
X151000000Y-112500000D03*
X153000000Y-112500000D03*
M02*
