%TF.GenerationSoftware,KiCad,Pcbnew,4.0.7*%
%TF.CreationDate,2018-10-01T17:52:14+02:00*%
%TF.ProjectId,RFID_BOARD_V3_EM4095,524649445F424F4152445F56335F454D,rev?*%
%TF.FileFunction,Legend,Bot*%
%FSLAX46Y46*%
G04 Gerber Fmt 4.6, Leading zero omitted, Abs format (unit mm)*
G04 Created by KiCad (PCBNEW 4.0.7) date 2018 October 01, Monday 17:52:14*
%MOMM*%
%LPD*%
G01*
G04 APERTURE LIST*
%ADD10C,0.100000*%
%ADD11C,0.250000*%
%ADD12C,0.300000*%
%ADD13C,0.010000*%
G04 APERTURE END LIST*
D10*
D11*
X163528570Y-100017857D02*
X163928570Y-99446429D01*
X164214285Y-100017857D02*
X164214285Y-98817857D01*
X163757142Y-98817857D01*
X163642856Y-98875000D01*
X163585713Y-98932143D01*
X163528570Y-99046429D01*
X163528570Y-99217857D01*
X163585713Y-99332143D01*
X163642856Y-99389286D01*
X163757142Y-99446429D01*
X164214285Y-99446429D01*
X162614285Y-99389286D02*
X163014285Y-99389286D01*
X163014285Y-100017857D02*
X163014285Y-98817857D01*
X162442856Y-98817857D01*
X161985714Y-100017857D02*
X161985714Y-98817857D01*
X161414285Y-100017857D02*
X161414285Y-98817857D01*
X161128570Y-98817857D01*
X160957142Y-98875000D01*
X160842856Y-98989286D01*
X160785713Y-99103571D01*
X160728570Y-99332143D01*
X160728570Y-99503571D01*
X160785713Y-99732143D01*
X160842856Y-99846429D01*
X160957142Y-99960714D01*
X161128570Y-100017857D01*
X161414285Y-100017857D01*
X158614284Y-100017857D02*
X159014284Y-99446429D01*
X159299999Y-100017857D02*
X159299999Y-98817857D01*
X158842856Y-98817857D01*
X158728570Y-98875000D01*
X158671427Y-98932143D01*
X158614284Y-99046429D01*
X158614284Y-99217857D01*
X158671427Y-99332143D01*
X158728570Y-99389286D01*
X158842856Y-99446429D01*
X159299999Y-99446429D01*
X157642856Y-99960714D02*
X157757142Y-100017857D01*
X157985713Y-100017857D01*
X158099999Y-99960714D01*
X158157142Y-99846429D01*
X158157142Y-99389286D01*
X158099999Y-99275000D01*
X157985713Y-99217857D01*
X157757142Y-99217857D01*
X157642856Y-99275000D01*
X157585713Y-99389286D01*
X157585713Y-99503571D01*
X158157142Y-99617857D01*
X156557142Y-100017857D02*
X156557142Y-99389286D01*
X156614285Y-99275000D01*
X156728571Y-99217857D01*
X156957142Y-99217857D01*
X157071428Y-99275000D01*
X156557142Y-99960714D02*
X156671428Y-100017857D01*
X156957142Y-100017857D01*
X157071428Y-99960714D01*
X157128571Y-99846429D01*
X157128571Y-99732143D01*
X157071428Y-99617857D01*
X156957142Y-99560714D01*
X156671428Y-99560714D01*
X156557142Y-99503571D01*
X155471428Y-100017857D02*
X155471428Y-98817857D01*
X155471428Y-99960714D02*
X155585714Y-100017857D01*
X155814285Y-100017857D01*
X155928571Y-99960714D01*
X155985714Y-99903571D01*
X156042857Y-99789286D01*
X156042857Y-99446429D01*
X155985714Y-99332143D01*
X155928571Y-99275000D01*
X155814285Y-99217857D01*
X155585714Y-99217857D01*
X155471428Y-99275000D01*
X154442857Y-99960714D02*
X154557143Y-100017857D01*
X154785714Y-100017857D01*
X154900000Y-99960714D01*
X154957143Y-99846429D01*
X154957143Y-99389286D01*
X154900000Y-99275000D01*
X154785714Y-99217857D01*
X154557143Y-99217857D01*
X154442857Y-99275000D01*
X154385714Y-99389286D01*
X154385714Y-99503571D01*
X154957143Y-99617857D01*
X153871429Y-100017857D02*
X153871429Y-99217857D01*
X153871429Y-99446429D02*
X153814286Y-99332143D01*
X153757143Y-99275000D01*
X153642857Y-99217857D01*
X153528572Y-99217857D01*
X162185714Y-102525000D02*
X162242856Y-102467857D01*
X162357142Y-102296429D01*
X162414285Y-102182143D01*
X162471428Y-102010714D01*
X162528571Y-101725000D01*
X162528571Y-101496429D01*
X162471428Y-101210714D01*
X162414285Y-101039286D01*
X162357142Y-100925000D01*
X162242856Y-100753571D01*
X162185714Y-100696429D01*
X161728571Y-101439286D02*
X161328571Y-101439286D01*
X161157142Y-102067857D02*
X161728571Y-102067857D01*
X161728571Y-100867857D01*
X161157142Y-100867857D01*
X160642857Y-102067857D02*
X160642857Y-100867857D01*
X160242857Y-101725000D01*
X159842857Y-100867857D01*
X159842857Y-102067857D01*
X158757142Y-101267857D02*
X158757142Y-102067857D01*
X159042856Y-100810714D02*
X159328571Y-101667857D01*
X158585713Y-101667857D01*
X157899999Y-100867857D02*
X157785714Y-100867857D01*
X157671428Y-100925000D01*
X157614285Y-100982143D01*
X157557142Y-101096429D01*
X157499999Y-101325000D01*
X157499999Y-101610714D01*
X157557142Y-101839286D01*
X157614285Y-101953571D01*
X157671428Y-102010714D01*
X157785714Y-102067857D01*
X157899999Y-102067857D01*
X158014285Y-102010714D01*
X158071428Y-101953571D01*
X158128571Y-101839286D01*
X158185714Y-101610714D01*
X158185714Y-101325000D01*
X158128571Y-101096429D01*
X158071428Y-100982143D01*
X158014285Y-100925000D01*
X157899999Y-100867857D01*
X156928571Y-102067857D02*
X156699999Y-102067857D01*
X156585714Y-102010714D01*
X156528571Y-101953571D01*
X156414285Y-101782143D01*
X156357142Y-101553571D01*
X156357142Y-101096429D01*
X156414285Y-100982143D01*
X156471428Y-100925000D01*
X156585714Y-100867857D01*
X156814285Y-100867857D01*
X156928571Y-100925000D01*
X156985714Y-100982143D01*
X157042857Y-101096429D01*
X157042857Y-101382143D01*
X156985714Y-101496429D01*
X156928571Y-101553571D01*
X156814285Y-101610714D01*
X156585714Y-101610714D01*
X156471428Y-101553571D01*
X156414285Y-101496429D01*
X156357142Y-101382143D01*
X155271428Y-100867857D02*
X155842857Y-100867857D01*
X155900000Y-101439286D01*
X155842857Y-101382143D01*
X155728571Y-101325000D01*
X155442857Y-101325000D01*
X155328571Y-101382143D01*
X155271428Y-101439286D01*
X155214285Y-101553571D01*
X155214285Y-101839286D01*
X155271428Y-101953571D01*
X155328571Y-102010714D01*
X155442857Y-102067857D01*
X155728571Y-102067857D01*
X155842857Y-102010714D01*
X155900000Y-101953571D01*
X154814285Y-102525000D02*
X154757143Y-102467857D01*
X154642857Y-102296429D01*
X154585714Y-102182143D01*
X154528571Y-102010714D01*
X154471428Y-101725000D01*
X154471428Y-101496429D01*
X154528571Y-101210714D01*
X154585714Y-101039286D01*
X154642857Y-100925000D01*
X154757143Y-100753571D01*
X154814285Y-100696429D01*
X167114285Y-111317857D02*
X166885714Y-111317857D01*
X166771428Y-111375000D01*
X166657142Y-111489286D01*
X166600000Y-111717857D01*
X166600000Y-112117857D01*
X166657142Y-112346429D01*
X166771428Y-112460714D01*
X166885714Y-112517857D01*
X167114285Y-112517857D01*
X167228571Y-112460714D01*
X167342857Y-112346429D01*
X167400000Y-112117857D01*
X167400000Y-111717857D01*
X167342857Y-111489286D01*
X167228571Y-111375000D01*
X167114285Y-111317857D01*
X165571428Y-112460714D02*
X165685714Y-112517857D01*
X165914285Y-112517857D01*
X166028571Y-112460714D01*
X166085714Y-112403571D01*
X166142857Y-112289286D01*
X166142857Y-111946429D01*
X166085714Y-111832143D01*
X166028571Y-111775000D01*
X165914285Y-111717857D01*
X165685714Y-111717857D01*
X165571428Y-111775000D01*
X165228571Y-111717857D02*
X164771428Y-111717857D01*
X165057143Y-111317857D02*
X165057143Y-112346429D01*
X165000000Y-112460714D01*
X164885714Y-112517857D01*
X164771428Y-112517857D01*
X163857143Y-112517857D02*
X163857143Y-111889286D01*
X163914286Y-111775000D01*
X164028572Y-111717857D01*
X164257143Y-111717857D01*
X164371429Y-111775000D01*
X163857143Y-112460714D02*
X163971429Y-112517857D01*
X164257143Y-112517857D01*
X164371429Y-112460714D01*
X164428572Y-112346429D01*
X164428572Y-112232143D01*
X164371429Y-112117857D01*
X164257143Y-112060714D01*
X163971429Y-112060714D01*
X163857143Y-112003571D01*
X163285715Y-111717857D02*
X163285715Y-112517857D01*
X163285715Y-111832143D02*
X163228572Y-111775000D01*
X163114286Y-111717857D01*
X162942858Y-111717857D01*
X162828572Y-111775000D01*
X162771429Y-111889286D01*
X162771429Y-112517857D01*
X162200001Y-112517857D02*
X162200001Y-111717857D01*
X162200001Y-111317857D02*
X162257144Y-111375000D01*
X162200001Y-111432143D01*
X162142858Y-111375000D01*
X162200001Y-111317857D01*
X162200001Y-111432143D01*
X161685715Y-112460714D02*
X161571429Y-112517857D01*
X161342857Y-112517857D01*
X161228572Y-112460714D01*
X161171429Y-112346429D01*
X161171429Y-112289286D01*
X161228572Y-112175000D01*
X161342857Y-112117857D01*
X161514286Y-112117857D01*
X161628572Y-112060714D01*
X161685715Y-111946429D01*
X161685715Y-111889286D01*
X161628572Y-111775000D01*
X161514286Y-111717857D01*
X161342857Y-111717857D01*
X161228572Y-111775000D01*
X159742857Y-112517857D02*
X159742857Y-111317857D01*
X159057142Y-112517857D01*
X159057142Y-111317857D01*
X158028571Y-112460714D02*
X158142857Y-112517857D01*
X158371428Y-112517857D01*
X158485714Y-112460714D01*
X158542857Y-112346429D01*
X158542857Y-111889286D01*
X158485714Y-111775000D01*
X158371428Y-111717857D01*
X158142857Y-111717857D01*
X158028571Y-111775000D01*
X157971428Y-111889286D01*
X157971428Y-112003571D01*
X158542857Y-112117857D01*
X157514286Y-112460714D02*
X157400000Y-112517857D01*
X157171428Y-112517857D01*
X157057143Y-112460714D01*
X157000000Y-112346429D01*
X157000000Y-112289286D01*
X157057143Y-112175000D01*
X157171428Y-112117857D01*
X157342857Y-112117857D01*
X157457143Y-112060714D01*
X157514286Y-111946429D01*
X157514286Y-111889286D01*
X157457143Y-111775000D01*
X157342857Y-111717857D01*
X157171428Y-111717857D01*
X157057143Y-111775000D01*
X156657142Y-111717857D02*
X156199999Y-111717857D01*
X156485714Y-111317857D02*
X156485714Y-112346429D01*
X156428571Y-112460714D01*
X156314285Y-112517857D01*
X156199999Y-112517857D01*
X155800000Y-112517857D02*
X155800000Y-111317857D01*
X155800000Y-111775000D02*
X155685714Y-111717857D01*
X155457143Y-111717857D01*
X155342857Y-111775000D01*
X155285714Y-111832143D01*
X155228571Y-111946429D01*
X155228571Y-112289286D01*
X155285714Y-112403571D01*
X155342857Y-112460714D01*
X155457143Y-112517857D01*
X155685714Y-112517857D01*
X155800000Y-112460714D01*
X154542857Y-112517857D02*
X154657143Y-112460714D01*
X154714286Y-112403571D01*
X154771429Y-112289286D01*
X154771429Y-111946429D01*
X154714286Y-111832143D01*
X154657143Y-111775000D01*
X154542857Y-111717857D01*
X154371429Y-111717857D01*
X154257143Y-111775000D01*
X154200000Y-111832143D01*
X154142857Y-111946429D01*
X154142857Y-112289286D01*
X154200000Y-112403571D01*
X154257143Y-112460714D01*
X154371429Y-112517857D01*
X154542857Y-112517857D01*
X153742857Y-112517857D02*
X153114286Y-111717857D01*
X153742857Y-111717857D02*
X153114286Y-112517857D01*
X151742857Y-112517857D02*
X151742857Y-111717857D01*
X151742857Y-111317857D02*
X151800000Y-111375000D01*
X151742857Y-111432143D01*
X151685714Y-111375000D01*
X151742857Y-111317857D01*
X151742857Y-111432143D01*
X151171428Y-111717857D02*
X151171428Y-112517857D01*
X151171428Y-111832143D02*
X151114285Y-111775000D01*
X150999999Y-111717857D01*
X150828571Y-111717857D01*
X150714285Y-111775000D01*
X150657142Y-111889286D01*
X150657142Y-112517857D01*
X166685713Y-114510714D02*
X166799999Y-114567857D01*
X167028570Y-114567857D01*
X167142856Y-114510714D01*
X167199999Y-114453571D01*
X167257142Y-114339286D01*
X167257142Y-113996429D01*
X167199999Y-113882143D01*
X167142856Y-113825000D01*
X167028570Y-113767857D01*
X166799999Y-113767857D01*
X166685713Y-113825000D01*
X165999999Y-114567857D02*
X166114285Y-114510714D01*
X166171428Y-114453571D01*
X166228571Y-114339286D01*
X166228571Y-113996429D01*
X166171428Y-113882143D01*
X166114285Y-113825000D01*
X165999999Y-113767857D01*
X165828571Y-113767857D01*
X165714285Y-113825000D01*
X165657142Y-113882143D01*
X165599999Y-113996429D01*
X165599999Y-114339286D01*
X165657142Y-114453571D01*
X165714285Y-114510714D01*
X165828571Y-114567857D01*
X165999999Y-114567857D01*
X164914285Y-114567857D02*
X165028571Y-114510714D01*
X165085714Y-114396429D01*
X165085714Y-113367857D01*
X164285714Y-114567857D02*
X164400000Y-114510714D01*
X164457143Y-114396429D01*
X164457143Y-113367857D01*
X163314286Y-114567857D02*
X163314286Y-113939286D01*
X163371429Y-113825000D01*
X163485715Y-113767857D01*
X163714286Y-113767857D01*
X163828572Y-113825000D01*
X163314286Y-114510714D02*
X163428572Y-114567857D01*
X163714286Y-114567857D01*
X163828572Y-114510714D01*
X163885715Y-114396429D01*
X163885715Y-114282143D01*
X163828572Y-114167857D01*
X163714286Y-114110714D01*
X163428572Y-114110714D01*
X163314286Y-114053571D01*
X162742858Y-114567857D02*
X162742858Y-113367857D01*
X162742858Y-113825000D02*
X162628572Y-113767857D01*
X162400001Y-113767857D01*
X162285715Y-113825000D01*
X162228572Y-113882143D01*
X162171429Y-113996429D01*
X162171429Y-114339286D01*
X162228572Y-114453571D01*
X162285715Y-114510714D01*
X162400001Y-114567857D01*
X162628572Y-114567857D01*
X162742858Y-114510714D01*
X161485715Y-114567857D02*
X161600001Y-114510714D01*
X161657144Y-114453571D01*
X161714287Y-114339286D01*
X161714287Y-113996429D01*
X161657144Y-113882143D01*
X161600001Y-113825000D01*
X161485715Y-113767857D01*
X161314287Y-113767857D01*
X161200001Y-113825000D01*
X161142858Y-113882143D01*
X161085715Y-113996429D01*
X161085715Y-114339286D01*
X161142858Y-114453571D01*
X161200001Y-114510714D01*
X161314287Y-114567857D01*
X161485715Y-114567857D01*
X160571430Y-114567857D02*
X160571430Y-113767857D01*
X160571430Y-113996429D02*
X160514287Y-113882143D01*
X160457144Y-113825000D01*
X160342858Y-113767857D01*
X160228573Y-113767857D01*
X159314287Y-114567857D02*
X159314287Y-113939286D01*
X159371430Y-113825000D01*
X159485716Y-113767857D01*
X159714287Y-113767857D01*
X159828573Y-113825000D01*
X159314287Y-114510714D02*
X159428573Y-114567857D01*
X159714287Y-114567857D01*
X159828573Y-114510714D01*
X159885716Y-114396429D01*
X159885716Y-114282143D01*
X159828573Y-114167857D01*
X159714287Y-114110714D01*
X159428573Y-114110714D01*
X159314287Y-114053571D01*
X158914287Y-113767857D02*
X158457144Y-113767857D01*
X158742859Y-113367857D02*
X158742859Y-114396429D01*
X158685716Y-114510714D01*
X158571430Y-114567857D01*
X158457144Y-114567857D01*
X158057145Y-114567857D02*
X158057145Y-113767857D01*
X158057145Y-113367857D02*
X158114288Y-113425000D01*
X158057145Y-113482143D01*
X158000002Y-113425000D01*
X158057145Y-113367857D01*
X158057145Y-113482143D01*
X157314287Y-114567857D02*
X157428573Y-114510714D01*
X157485716Y-114453571D01*
X157542859Y-114339286D01*
X157542859Y-113996429D01*
X157485716Y-113882143D01*
X157428573Y-113825000D01*
X157314287Y-113767857D01*
X157142859Y-113767857D01*
X157028573Y-113825000D01*
X156971430Y-113882143D01*
X156914287Y-113996429D01*
X156914287Y-114339286D01*
X156971430Y-114453571D01*
X157028573Y-114510714D01*
X157142859Y-114567857D01*
X157314287Y-114567857D01*
X156400002Y-113767857D02*
X156400002Y-114567857D01*
X156400002Y-113882143D02*
X156342859Y-113825000D01*
X156228573Y-113767857D01*
X156057145Y-113767857D01*
X155942859Y-113825000D01*
X155885716Y-113939286D01*
X155885716Y-114567857D01*
X154514287Y-113767857D02*
X154285716Y-114567857D01*
X154057145Y-113996429D01*
X153828573Y-114567857D01*
X153600002Y-113767857D01*
X153142859Y-114567857D02*
X153142859Y-113767857D01*
X153142859Y-113367857D02*
X153200002Y-113425000D01*
X153142859Y-113482143D01*
X153085716Y-113425000D01*
X153142859Y-113367857D01*
X153142859Y-113482143D01*
X152742858Y-113767857D02*
X152285715Y-113767857D01*
X152571430Y-113367857D02*
X152571430Y-114396429D01*
X152514287Y-114510714D01*
X152400001Y-114567857D01*
X152285715Y-114567857D01*
X151885716Y-114567857D02*
X151885716Y-113367857D01*
X151371430Y-114567857D02*
X151371430Y-113939286D01*
X151428573Y-113825000D01*
X151542859Y-113767857D01*
X151714287Y-113767857D01*
X151828573Y-113825000D01*
X151885716Y-113882143D01*
X150800002Y-114453571D02*
X150742859Y-114510714D01*
X150800002Y-114567857D01*
X150857145Y-114510714D01*
X150800002Y-114453571D01*
X150800002Y-114567857D01*
X150800002Y-113825000D02*
X150742859Y-113882143D01*
X150800002Y-113939286D01*
X150857145Y-113882143D01*
X150800002Y-113825000D01*
X150800002Y-113939286D01*
D12*
X164611904Y-124850000D02*
X164735713Y-124788095D01*
X164921428Y-124788095D01*
X165107142Y-124850000D01*
X165230951Y-124973810D01*
X165292856Y-125097619D01*
X165354761Y-125345238D01*
X165354761Y-125530952D01*
X165292856Y-125778571D01*
X165230951Y-125902381D01*
X165107142Y-126026190D01*
X164921428Y-126088095D01*
X164797618Y-126088095D01*
X164611904Y-126026190D01*
X164549999Y-125964286D01*
X164549999Y-125530952D01*
X164797618Y-125530952D01*
X163064285Y-126026190D02*
X162878571Y-126088095D01*
X162569047Y-126088095D01*
X162445237Y-126026190D01*
X162383333Y-125964286D01*
X162321428Y-125840476D01*
X162321428Y-125716667D01*
X162383333Y-125592857D01*
X162445237Y-125530952D01*
X162569047Y-125469048D01*
X162816666Y-125407143D01*
X162940475Y-125345238D01*
X163002380Y-125283333D01*
X163064285Y-125159524D01*
X163064285Y-125035714D01*
X163002380Y-124911905D01*
X162940475Y-124850000D01*
X162816666Y-124788095D01*
X162507142Y-124788095D01*
X162321428Y-124850000D01*
X160030952Y-125964286D02*
X160092857Y-126026190D01*
X160278571Y-126088095D01*
X160402381Y-126088095D01*
X160588095Y-126026190D01*
X160711904Y-125902381D01*
X160773809Y-125778571D01*
X160835714Y-125530952D01*
X160835714Y-125345238D01*
X160773809Y-125097619D01*
X160711904Y-124973810D01*
X160588095Y-124850000D01*
X160402381Y-124788095D01*
X160278571Y-124788095D01*
X160092857Y-124850000D01*
X160030952Y-124911905D01*
X157492857Y-126088095D02*
X157492857Y-124788095D01*
X157183333Y-124788095D01*
X156997619Y-124850000D01*
X156873810Y-124973810D01*
X156811905Y-125097619D01*
X156750000Y-125345238D01*
X156750000Y-125530952D01*
X156811905Y-125778571D01*
X156873810Y-125902381D01*
X156997619Y-126026190D01*
X157183333Y-126088095D01*
X157492857Y-126088095D01*
X155388095Y-124788095D02*
X154954762Y-126088095D01*
X154521429Y-124788095D01*
D13*
G36*
X165451600Y-116008216D02*
X165159078Y-116032339D01*
X164884474Y-116080653D01*
X164620627Y-116154592D01*
X164496028Y-116199479D01*
X164207417Y-116328560D01*
X163936251Y-116485458D01*
X163684338Y-116668287D01*
X163453489Y-116875159D01*
X163245513Y-117104190D01*
X163062218Y-117353491D01*
X162905415Y-117621176D01*
X162776912Y-117905359D01*
X162726717Y-118044356D01*
X162682236Y-118182772D01*
X162647767Y-118303644D01*
X162622082Y-118415030D01*
X162603953Y-118524987D01*
X162592150Y-118641573D01*
X162585445Y-118772845D01*
X162582609Y-118926861D01*
X162582294Y-118991533D01*
X162582369Y-119123859D01*
X162583565Y-119228975D01*
X162586315Y-119313532D01*
X162591054Y-119384179D01*
X162598217Y-119447568D01*
X162608239Y-119510347D01*
X162620283Y-119572918D01*
X162700315Y-119885777D01*
X162809733Y-120183200D01*
X162947068Y-120463715D01*
X163110854Y-120725850D01*
X163299623Y-120968134D01*
X163511906Y-121189094D01*
X163746235Y-121387259D01*
X164001144Y-121561156D01*
X164275164Y-121709315D01*
X164566826Y-121830263D01*
X164874665Y-121922528D01*
X164989358Y-121948478D01*
X165072002Y-121961491D01*
X165180500Y-121972555D01*
X165306884Y-121981412D01*
X165443183Y-121987804D01*
X165581428Y-121991472D01*
X165713650Y-121992157D01*
X165831877Y-121989601D01*
X165928142Y-121983544D01*
X165959600Y-121979964D01*
X166269802Y-121921057D01*
X166568977Y-121831083D01*
X166855136Y-121711614D01*
X167126292Y-121564222D01*
X167380456Y-121390478D01*
X167615639Y-121191954D01*
X167829855Y-120970222D01*
X168021113Y-120726854D01*
X168187427Y-120463420D01*
X168326808Y-120181494D01*
X168370654Y-120074105D01*
X168463906Y-119786566D01*
X168479837Y-119711199D01*
X167771467Y-119711199D01*
X167754708Y-119897124D01*
X167704936Y-120078749D01*
X167622910Y-120254315D01*
X167509388Y-120422068D01*
X167420210Y-120524882D01*
X167354946Y-120590759D01*
X167287204Y-120654196D01*
X167226016Y-120706979D01*
X167188850Y-120735328D01*
X167097081Y-120798532D01*
X166964374Y-120665233D01*
X166842560Y-120555904D01*
X166721789Y-120475506D01*
X166595321Y-120420010D01*
X166516824Y-120397673D01*
X166383435Y-120377038D01*
X166254531Y-120377392D01*
X166137345Y-120397918D01*
X166039110Y-120437799D01*
X166012700Y-120454628D01*
X165962951Y-120506015D01*
X165921877Y-120577062D01*
X165896555Y-120653601D01*
X165891867Y-120696550D01*
X165905154Y-120788074D01*
X165940854Y-120879428D01*
X165992721Y-120954945D01*
X165996418Y-120958844D01*
X166075160Y-121018418D01*
X166179870Y-121064388D01*
X166304928Y-121095363D01*
X166444714Y-121109956D01*
X166593608Y-121106777D01*
X166594600Y-121106695D01*
X166655950Y-121102594D01*
X166700443Y-121101593D01*
X166720811Y-121103781D01*
X166721054Y-121105162D01*
X166698517Y-121118804D01*
X166650786Y-121141214D01*
X166584542Y-121169714D01*
X166506464Y-121201626D01*
X166423234Y-121234272D01*
X166341531Y-121264974D01*
X166268034Y-121291052D01*
X166213600Y-121308604D01*
X166031943Y-121357430D01*
X165866442Y-121389695D01*
X165706397Y-121406279D01*
X165541104Y-121408067D01*
X165359863Y-121395939D01*
X165271155Y-121386284D01*
X165053857Y-121349104D01*
X164839356Y-121290894D01*
X164631551Y-121213932D01*
X164434338Y-121120501D01*
X164251612Y-121012880D01*
X164087272Y-120893351D01*
X163945213Y-120764194D01*
X163829333Y-120627689D01*
X163747709Y-120494619D01*
X163717492Y-120432274D01*
X163698332Y-120384123D01*
X163687719Y-120338653D01*
X163683138Y-120284350D01*
X163682078Y-120209699D01*
X163682067Y-120193799D01*
X163683079Y-120111748D01*
X163687391Y-120052853D01*
X163696913Y-120006433D01*
X163713554Y-119961805D01*
X163729710Y-119927445D01*
X163799726Y-119821486D01*
X163893106Y-119739144D01*
X164007645Y-119681827D01*
X164141142Y-119650939D01*
X164166993Y-119648297D01*
X164224719Y-119642546D01*
X164266316Y-119636664D01*
X164283162Y-119631882D01*
X164283200Y-119631703D01*
X164274768Y-119608421D01*
X164253528Y-119567728D01*
X164225567Y-119520322D01*
X164196970Y-119476899D01*
X164188735Y-119465666D01*
X164116649Y-119396512D01*
X164017270Y-119339704D01*
X163895572Y-119297297D01*
X163756529Y-119271348D01*
X163707467Y-119266731D01*
X163685411Y-119263675D01*
X163681565Y-119257536D01*
X163699213Y-119246369D01*
X163741639Y-119228229D01*
X163812126Y-119201170D01*
X163828501Y-119195032D01*
X163909321Y-119163834D01*
X163964459Y-119139373D01*
X164000415Y-119117827D01*
X164023685Y-119095377D01*
X164039201Y-119071152D01*
X164097260Y-118993360D01*
X164174704Y-118931739D01*
X164253345Y-118897224D01*
X164293697Y-118888996D01*
X164341365Y-118885394D01*
X164402449Y-118886601D01*
X164483049Y-118892798D01*
X164589262Y-118904168D01*
X164624650Y-118908331D01*
X164681147Y-118913500D01*
X164716615Y-118910131D01*
X164743411Y-118895363D01*
X164764350Y-118875989D01*
X164796838Y-118830820D01*
X164807909Y-118774730D01*
X164808134Y-118762281D01*
X164806675Y-118732189D01*
X164799688Y-118705782D01*
X164783255Y-118677478D01*
X164753458Y-118641699D01*
X164706380Y-118592862D01*
X164650081Y-118537144D01*
X164584169Y-118471538D01*
X164537868Y-118421975D01*
X164506116Y-118381299D01*
X164483851Y-118342354D01*
X164466010Y-118297985D01*
X164453046Y-118258612D01*
X164425688Y-118131254D01*
X164427272Y-118009756D01*
X164458744Y-117891004D01*
X164521051Y-117771887D01*
X164615140Y-117649294D01*
X164650199Y-117610850D01*
X164805445Y-117469743D01*
X164988098Y-117345517D01*
X165195454Y-117239546D01*
X165424812Y-117153208D01*
X165673468Y-117087877D01*
X165680200Y-117086464D01*
X165931558Y-117043987D01*
X166182202Y-117022490D01*
X166438515Y-117022026D01*
X166706878Y-117042649D01*
X166993674Y-117084412D01*
X167068733Y-117098111D01*
X167305800Y-117142978D01*
X167162097Y-117173991D01*
X166957303Y-117227496D01*
X166784185Y-117292828D01*
X166642652Y-117370072D01*
X166532615Y-117459313D01*
X166453982Y-117560640D01*
X166406664Y-117674138D01*
X166390569Y-117799892D01*
X166398774Y-117901313D01*
X166433764Y-118030457D01*
X166498296Y-118169821D01*
X166590787Y-118316273D01*
X166645397Y-118389118D01*
X166712804Y-118477325D01*
X166762066Y-118549489D01*
X166798099Y-118614371D01*
X166825821Y-118680730D01*
X166848148Y-118750406D01*
X166876597Y-118907748D01*
X166873876Y-119073040D01*
X166840399Y-119242004D01*
X166786353Y-119389166D01*
X166761267Y-119446868D01*
X166749521Y-119481979D01*
X166749904Y-119502490D01*
X166761204Y-119516391D01*
X166766449Y-119520399D01*
X166800141Y-119532154D01*
X166858365Y-119539711D01*
X166918935Y-119541866D01*
X167063181Y-119526334D01*
X167194601Y-119481439D01*
X167309724Y-119409735D01*
X167405080Y-119313774D01*
X167477200Y-119196109D01*
X167510790Y-119106417D01*
X167537684Y-119013904D01*
X167579986Y-119076157D01*
X167652204Y-119205152D01*
X167710375Y-119354524D01*
X167750934Y-119512449D01*
X167770315Y-119667099D01*
X167771467Y-119711199D01*
X168479837Y-119711199D01*
X168527200Y-119487141D01*
X168560197Y-119180369D01*
X168562559Y-118870787D01*
X168533945Y-118562932D01*
X168498381Y-118365000D01*
X168416540Y-118062893D01*
X168305448Y-117775553D01*
X168166995Y-117504444D01*
X168003074Y-117251030D01*
X167815577Y-117016773D01*
X167606396Y-116803138D01*
X167377423Y-116611587D01*
X167130550Y-116443586D01*
X166867670Y-116300596D01*
X166590674Y-116184082D01*
X166301454Y-116095508D01*
X166001902Y-116036336D01*
X165693911Y-116008031D01*
X165451600Y-116008216D01*
X165451600Y-116008216D01*
G37*
X165451600Y-116008216D02*
X165159078Y-116032339D01*
X164884474Y-116080653D01*
X164620627Y-116154592D01*
X164496028Y-116199479D01*
X164207417Y-116328560D01*
X163936251Y-116485458D01*
X163684338Y-116668287D01*
X163453489Y-116875159D01*
X163245513Y-117104190D01*
X163062218Y-117353491D01*
X162905415Y-117621176D01*
X162776912Y-117905359D01*
X162726717Y-118044356D01*
X162682236Y-118182772D01*
X162647767Y-118303644D01*
X162622082Y-118415030D01*
X162603953Y-118524987D01*
X162592150Y-118641573D01*
X162585445Y-118772845D01*
X162582609Y-118926861D01*
X162582294Y-118991533D01*
X162582369Y-119123859D01*
X162583565Y-119228975D01*
X162586315Y-119313532D01*
X162591054Y-119384179D01*
X162598217Y-119447568D01*
X162608239Y-119510347D01*
X162620283Y-119572918D01*
X162700315Y-119885777D01*
X162809733Y-120183200D01*
X162947068Y-120463715D01*
X163110854Y-120725850D01*
X163299623Y-120968134D01*
X163511906Y-121189094D01*
X163746235Y-121387259D01*
X164001144Y-121561156D01*
X164275164Y-121709315D01*
X164566826Y-121830263D01*
X164874665Y-121922528D01*
X164989358Y-121948478D01*
X165072002Y-121961491D01*
X165180500Y-121972555D01*
X165306884Y-121981412D01*
X165443183Y-121987804D01*
X165581428Y-121991472D01*
X165713650Y-121992157D01*
X165831877Y-121989601D01*
X165928142Y-121983544D01*
X165959600Y-121979964D01*
X166269802Y-121921057D01*
X166568977Y-121831083D01*
X166855136Y-121711614D01*
X167126292Y-121564222D01*
X167380456Y-121390478D01*
X167615639Y-121191954D01*
X167829855Y-120970222D01*
X168021113Y-120726854D01*
X168187427Y-120463420D01*
X168326808Y-120181494D01*
X168370654Y-120074105D01*
X168463906Y-119786566D01*
X168479837Y-119711199D01*
X167771467Y-119711199D01*
X167754708Y-119897124D01*
X167704936Y-120078749D01*
X167622910Y-120254315D01*
X167509388Y-120422068D01*
X167420210Y-120524882D01*
X167354946Y-120590759D01*
X167287204Y-120654196D01*
X167226016Y-120706979D01*
X167188850Y-120735328D01*
X167097081Y-120798532D01*
X166964374Y-120665233D01*
X166842560Y-120555904D01*
X166721789Y-120475506D01*
X166595321Y-120420010D01*
X166516824Y-120397673D01*
X166383435Y-120377038D01*
X166254531Y-120377392D01*
X166137345Y-120397918D01*
X166039110Y-120437799D01*
X166012700Y-120454628D01*
X165962951Y-120506015D01*
X165921877Y-120577062D01*
X165896555Y-120653601D01*
X165891867Y-120696550D01*
X165905154Y-120788074D01*
X165940854Y-120879428D01*
X165992721Y-120954945D01*
X165996418Y-120958844D01*
X166075160Y-121018418D01*
X166179870Y-121064388D01*
X166304928Y-121095363D01*
X166444714Y-121109956D01*
X166593608Y-121106777D01*
X166594600Y-121106695D01*
X166655950Y-121102594D01*
X166700443Y-121101593D01*
X166720811Y-121103781D01*
X166721054Y-121105162D01*
X166698517Y-121118804D01*
X166650786Y-121141214D01*
X166584542Y-121169714D01*
X166506464Y-121201626D01*
X166423234Y-121234272D01*
X166341531Y-121264974D01*
X166268034Y-121291052D01*
X166213600Y-121308604D01*
X166031943Y-121357430D01*
X165866442Y-121389695D01*
X165706397Y-121406279D01*
X165541104Y-121408067D01*
X165359863Y-121395939D01*
X165271155Y-121386284D01*
X165053857Y-121349104D01*
X164839356Y-121290894D01*
X164631551Y-121213932D01*
X164434338Y-121120501D01*
X164251612Y-121012880D01*
X164087272Y-120893351D01*
X163945213Y-120764194D01*
X163829333Y-120627689D01*
X163747709Y-120494619D01*
X163717492Y-120432274D01*
X163698332Y-120384123D01*
X163687719Y-120338653D01*
X163683138Y-120284350D01*
X163682078Y-120209699D01*
X163682067Y-120193799D01*
X163683079Y-120111748D01*
X163687391Y-120052853D01*
X163696913Y-120006433D01*
X163713554Y-119961805D01*
X163729710Y-119927445D01*
X163799726Y-119821486D01*
X163893106Y-119739144D01*
X164007645Y-119681827D01*
X164141142Y-119650939D01*
X164166993Y-119648297D01*
X164224719Y-119642546D01*
X164266316Y-119636664D01*
X164283162Y-119631882D01*
X164283200Y-119631703D01*
X164274768Y-119608421D01*
X164253528Y-119567728D01*
X164225567Y-119520322D01*
X164196970Y-119476899D01*
X164188735Y-119465666D01*
X164116649Y-119396512D01*
X164017270Y-119339704D01*
X163895572Y-119297297D01*
X163756529Y-119271348D01*
X163707467Y-119266731D01*
X163685411Y-119263675D01*
X163681565Y-119257536D01*
X163699213Y-119246369D01*
X163741639Y-119228229D01*
X163812126Y-119201170D01*
X163828501Y-119195032D01*
X163909321Y-119163834D01*
X163964459Y-119139373D01*
X164000415Y-119117827D01*
X164023685Y-119095377D01*
X164039201Y-119071152D01*
X164097260Y-118993360D01*
X164174704Y-118931739D01*
X164253345Y-118897224D01*
X164293697Y-118888996D01*
X164341365Y-118885394D01*
X164402449Y-118886601D01*
X164483049Y-118892798D01*
X164589262Y-118904168D01*
X164624650Y-118908331D01*
X164681147Y-118913500D01*
X164716615Y-118910131D01*
X164743411Y-118895363D01*
X164764350Y-118875989D01*
X164796838Y-118830820D01*
X164807909Y-118774730D01*
X164808134Y-118762281D01*
X164806675Y-118732189D01*
X164799688Y-118705782D01*
X164783255Y-118677478D01*
X164753458Y-118641699D01*
X164706380Y-118592862D01*
X164650081Y-118537144D01*
X164584169Y-118471538D01*
X164537868Y-118421975D01*
X164506116Y-118381299D01*
X164483851Y-118342354D01*
X164466010Y-118297985D01*
X164453046Y-118258612D01*
X164425688Y-118131254D01*
X164427272Y-118009756D01*
X164458744Y-117891004D01*
X164521051Y-117771887D01*
X164615140Y-117649294D01*
X164650199Y-117610850D01*
X164805445Y-117469743D01*
X164988098Y-117345517D01*
X165195454Y-117239546D01*
X165424812Y-117153208D01*
X165673468Y-117087877D01*
X165680200Y-117086464D01*
X165931558Y-117043987D01*
X166182202Y-117022490D01*
X166438515Y-117022026D01*
X166706878Y-117042649D01*
X166993674Y-117084412D01*
X167068733Y-117098111D01*
X167305800Y-117142978D01*
X167162097Y-117173991D01*
X166957303Y-117227496D01*
X166784185Y-117292828D01*
X166642652Y-117370072D01*
X166532615Y-117459313D01*
X166453982Y-117560640D01*
X166406664Y-117674138D01*
X166390569Y-117799892D01*
X166398774Y-117901313D01*
X166433764Y-118030457D01*
X166498296Y-118169821D01*
X166590787Y-118316273D01*
X166645397Y-118389118D01*
X166712804Y-118477325D01*
X166762066Y-118549489D01*
X166798099Y-118614371D01*
X166825821Y-118680730D01*
X166848148Y-118750406D01*
X166876597Y-118907748D01*
X166873876Y-119073040D01*
X166840399Y-119242004D01*
X166786353Y-119389166D01*
X166761267Y-119446868D01*
X166749521Y-119481979D01*
X166749904Y-119502490D01*
X166761204Y-119516391D01*
X166766449Y-119520399D01*
X166800141Y-119532154D01*
X166858365Y-119539711D01*
X166918935Y-119541866D01*
X167063181Y-119526334D01*
X167194601Y-119481439D01*
X167309724Y-119409735D01*
X167405080Y-119313774D01*
X167477200Y-119196109D01*
X167510790Y-119106417D01*
X167537684Y-119013904D01*
X167579986Y-119076157D01*
X167652204Y-119205152D01*
X167710375Y-119354524D01*
X167750934Y-119512449D01*
X167770315Y-119667099D01*
X167771467Y-119711199D01*
X168479837Y-119711199D01*
X168527200Y-119487141D01*
X168560197Y-119180369D01*
X168562559Y-118870787D01*
X168533945Y-118562932D01*
X168498381Y-118365000D01*
X168416540Y-118062893D01*
X168305448Y-117775553D01*
X168166995Y-117504444D01*
X168003074Y-117251030D01*
X167815577Y-117016773D01*
X167606396Y-116803138D01*
X167377423Y-116611587D01*
X167130550Y-116443586D01*
X166867670Y-116300596D01*
X166590674Y-116184082D01*
X166301454Y-116095508D01*
X166001902Y-116036336D01*
X165693911Y-116008031D01*
X165451600Y-116008216D01*
G36*
X158820986Y-119431690D02*
X158743189Y-119462397D01*
X158687361Y-119518530D01*
X158677205Y-119535772D01*
X158652867Y-119581635D01*
X158635933Y-119431799D01*
X158432733Y-119431799D01*
X158433487Y-119931333D01*
X158434197Y-120094288D01*
X158436188Y-120227378D01*
X158440066Y-120334598D01*
X158446433Y-120419943D01*
X158455896Y-120487406D01*
X158469057Y-120540983D01*
X158486521Y-120584668D01*
X158508893Y-120622457D01*
X158536777Y-120658344D01*
X158544890Y-120667726D01*
X158615775Y-120724551D01*
X158710366Y-120764468D01*
X158822227Y-120786012D01*
X158944923Y-120787717D01*
X159027270Y-120777523D01*
X159109119Y-120761201D01*
X159162265Y-120743570D01*
X159191608Y-120719077D01*
X159202044Y-120682163D01*
X159198471Y-120627273D01*
X159192709Y-120589825D01*
X159182590Y-120528650D01*
X159095529Y-120562375D01*
X159006239Y-120587181D01*
X158913617Y-120596469D01*
X158829046Y-120589959D01*
X158769266Y-120570383D01*
X158719100Y-120525669D01*
X158682880Y-120455872D01*
X158663644Y-120367971D01*
X158661333Y-120322449D01*
X158661333Y-120240117D01*
X158724833Y-120303329D01*
X158800127Y-120357213D01*
X158883272Y-120381110D01*
X158968967Y-120376241D01*
X159051910Y-120343827D01*
X159126800Y-120285089D01*
X159188335Y-120201248D01*
X159191243Y-120195903D01*
X159207246Y-120162141D01*
X159217960Y-120126717D01*
X159224407Y-120081936D01*
X159227607Y-120020101D01*
X159228582Y-119933519D01*
X159228600Y-119914399D01*
X159228397Y-119883641D01*
X158999104Y-119883641D01*
X158996449Y-119974551D01*
X158986483Y-120052726D01*
X158981873Y-120072132D01*
X158961556Y-120123520D01*
X158935146Y-120165197D01*
X158931167Y-120169499D01*
X158882971Y-120196001D01*
X158822440Y-120200252D01*
X158762731Y-120182296D01*
X158741938Y-120168839D01*
X158706188Y-120122315D01*
X158680018Y-120051675D01*
X158664663Y-119965626D01*
X158661363Y-119872875D01*
X158671354Y-119782130D01*
X158681248Y-119741794D01*
X158710464Y-119681724D01*
X158754879Y-119631433D01*
X158805459Y-119599507D01*
X158838149Y-119592666D01*
X158891476Y-119608003D01*
X158940430Y-119648344D01*
X158975721Y-119705187D01*
X158982389Y-119724670D01*
X158994425Y-119795260D01*
X158999104Y-119883641D01*
X159228397Y-119883641D01*
X159227997Y-119823168D01*
X159225370Y-119757321D01*
X159219490Y-119708388D01*
X159209131Y-119667895D01*
X159193063Y-119627371D01*
X159184207Y-119608067D01*
X159134406Y-119523651D01*
X159074654Y-119468197D01*
X158998056Y-119436941D01*
X158921155Y-119426228D01*
X158820986Y-119431690D01*
X158820986Y-119431690D01*
G37*
X158820986Y-119431690D02*
X158743189Y-119462397D01*
X158687361Y-119518530D01*
X158677205Y-119535772D01*
X158652867Y-119581635D01*
X158635933Y-119431799D01*
X158432733Y-119431799D01*
X158433487Y-119931333D01*
X158434197Y-120094288D01*
X158436188Y-120227378D01*
X158440066Y-120334598D01*
X158446433Y-120419943D01*
X158455896Y-120487406D01*
X158469057Y-120540983D01*
X158486521Y-120584668D01*
X158508893Y-120622457D01*
X158536777Y-120658344D01*
X158544890Y-120667726D01*
X158615775Y-120724551D01*
X158710366Y-120764468D01*
X158822227Y-120786012D01*
X158944923Y-120787717D01*
X159027270Y-120777523D01*
X159109119Y-120761201D01*
X159162265Y-120743570D01*
X159191608Y-120719077D01*
X159202044Y-120682163D01*
X159198471Y-120627273D01*
X159192709Y-120589825D01*
X159182590Y-120528650D01*
X159095529Y-120562375D01*
X159006239Y-120587181D01*
X158913617Y-120596469D01*
X158829046Y-120589959D01*
X158769266Y-120570383D01*
X158719100Y-120525669D01*
X158682880Y-120455872D01*
X158663644Y-120367971D01*
X158661333Y-120322449D01*
X158661333Y-120240117D01*
X158724833Y-120303329D01*
X158800127Y-120357213D01*
X158883272Y-120381110D01*
X158968967Y-120376241D01*
X159051910Y-120343827D01*
X159126800Y-120285089D01*
X159188335Y-120201248D01*
X159191243Y-120195903D01*
X159207246Y-120162141D01*
X159217960Y-120126717D01*
X159224407Y-120081936D01*
X159227607Y-120020101D01*
X159228582Y-119933519D01*
X159228600Y-119914399D01*
X159228397Y-119883641D01*
X158999104Y-119883641D01*
X158996449Y-119974551D01*
X158986483Y-120052726D01*
X158981873Y-120072132D01*
X158961556Y-120123520D01*
X158935146Y-120165197D01*
X158931167Y-120169499D01*
X158882971Y-120196001D01*
X158822440Y-120200252D01*
X158762731Y-120182296D01*
X158741938Y-120168839D01*
X158706188Y-120122315D01*
X158680018Y-120051675D01*
X158664663Y-119965626D01*
X158661363Y-119872875D01*
X158671354Y-119782130D01*
X158681248Y-119741794D01*
X158710464Y-119681724D01*
X158754879Y-119631433D01*
X158805459Y-119599507D01*
X158838149Y-119592666D01*
X158891476Y-119608003D01*
X158940430Y-119648344D01*
X158975721Y-119705187D01*
X158982389Y-119724670D01*
X158994425Y-119795260D01*
X158999104Y-119883641D01*
X159228397Y-119883641D01*
X159227997Y-119823168D01*
X159225370Y-119757321D01*
X159219490Y-119708388D01*
X159209131Y-119667895D01*
X159193063Y-119627371D01*
X159184207Y-119608067D01*
X159134406Y-119523651D01*
X159074654Y-119468197D01*
X158998056Y-119436941D01*
X158921155Y-119426228D01*
X158820986Y-119431690D01*
G36*
X159835828Y-119426859D02*
X159754385Y-119441677D01*
X159731823Y-119449631D01*
X159640595Y-119505376D01*
X159569063Y-119586455D01*
X159518564Y-119689745D01*
X159490439Y-119812118D01*
X159486026Y-119950451D01*
X159491357Y-120010850D01*
X159517957Y-120129185D01*
X159565165Y-120229500D01*
X159629994Y-120307923D01*
X159709459Y-120360583D01*
X159776699Y-120380815D01*
X159849298Y-120391879D01*
X159899971Y-120396917D01*
X159940050Y-120396301D01*
X159980866Y-120390404D01*
X159993540Y-120387943D01*
X160102614Y-120352770D01*
X160188459Y-120294844D01*
X160251992Y-120212953D01*
X160294131Y-120105883D01*
X160315796Y-119972420D01*
X160316643Y-119960990D01*
X160315988Y-119914399D01*
X160073290Y-119914399D01*
X160068872Y-120018915D01*
X160054921Y-120096328D01*
X160028187Y-120152813D01*
X159985416Y-120194549D01*
X159923356Y-120227710D01*
X159904227Y-120235470D01*
X159888996Y-120231033D01*
X159854477Y-120219384D01*
X159852559Y-120218716D01*
X159798734Y-120184276D01*
X159760839Y-120123127D01*
X159738072Y-120033629D01*
X159731728Y-119972075D01*
X159730505Y-119838234D01*
X159745765Y-119733102D01*
X159777387Y-119656959D01*
X159825251Y-119610088D01*
X159889234Y-119592767D01*
X159895204Y-119592666D01*
X159961620Y-119602945D01*
X160011335Y-119635341D01*
X160045645Y-119692195D01*
X160065846Y-119775848D01*
X160073233Y-119888639D01*
X160073290Y-119914399D01*
X160315988Y-119914399D01*
X160314681Y-119821544D01*
X160289766Y-119697799D01*
X160243405Y-119593170D01*
X160177108Y-119511073D01*
X160093398Y-119455384D01*
X160019875Y-119433944D01*
X159929171Y-119424358D01*
X159835828Y-119426859D01*
X159835828Y-119426859D01*
G37*
X159835828Y-119426859D02*
X159754385Y-119441677D01*
X159731823Y-119449631D01*
X159640595Y-119505376D01*
X159569063Y-119586455D01*
X159518564Y-119689745D01*
X159490439Y-119812118D01*
X159486026Y-119950451D01*
X159491357Y-120010850D01*
X159517957Y-120129185D01*
X159565165Y-120229500D01*
X159629994Y-120307923D01*
X159709459Y-120360583D01*
X159776699Y-120380815D01*
X159849298Y-120391879D01*
X159899971Y-120396917D01*
X159940050Y-120396301D01*
X159980866Y-120390404D01*
X159993540Y-120387943D01*
X160102614Y-120352770D01*
X160188459Y-120294844D01*
X160251992Y-120212953D01*
X160294131Y-120105883D01*
X160315796Y-119972420D01*
X160316643Y-119960990D01*
X160315988Y-119914399D01*
X160073290Y-119914399D01*
X160068872Y-120018915D01*
X160054921Y-120096328D01*
X160028187Y-120152813D01*
X159985416Y-120194549D01*
X159923356Y-120227710D01*
X159904227Y-120235470D01*
X159888996Y-120231033D01*
X159854477Y-120219384D01*
X159852559Y-120218716D01*
X159798734Y-120184276D01*
X159760839Y-120123127D01*
X159738072Y-120033629D01*
X159731728Y-119972075D01*
X159730505Y-119838234D01*
X159745765Y-119733102D01*
X159777387Y-119656959D01*
X159825251Y-119610088D01*
X159889234Y-119592767D01*
X159895204Y-119592666D01*
X159961620Y-119602945D01*
X160011335Y-119635341D01*
X160045645Y-119692195D01*
X160065846Y-119775848D01*
X160073233Y-119888639D01*
X160073290Y-119914399D01*
X160315988Y-119914399D01*
X160314681Y-119821544D01*
X160289766Y-119697799D01*
X160243405Y-119593170D01*
X160177108Y-119511073D01*
X160093398Y-119455384D01*
X160019875Y-119433944D01*
X159929171Y-119424358D01*
X159835828Y-119426859D01*
G36*
X157663330Y-119436569D02*
X157572324Y-119474206D01*
X157501717Y-119533137D01*
X157484094Y-119556618D01*
X157448966Y-119626506D01*
X157419154Y-119715866D01*
X157398625Y-119810332D01*
X157391333Y-119892557D01*
X157391333Y-119965199D01*
X157933200Y-119965199D01*
X157933200Y-120016840D01*
X157918936Y-120090881D01*
X157880541Y-120154822D01*
X157832154Y-120193513D01*
X157769041Y-120212719D01*
X157689020Y-120218901D01*
X157606326Y-120212335D01*
X157535197Y-120193298D01*
X157522574Y-120187495D01*
X157481904Y-120169769D01*
X157455153Y-120163662D01*
X157451260Y-120164917D01*
X157445862Y-120185877D01*
X157442587Y-120228601D01*
X157442133Y-120253834D01*
X157444447Y-120303997D01*
X157454958Y-120331805D01*
X157479024Y-120348647D01*
X157488700Y-120352858D01*
X157523493Y-120363608D01*
X157576467Y-120376223D01*
X157636562Y-120388534D01*
X157692714Y-120398371D01*
X157733863Y-120403565D01*
X157746933Y-120403513D01*
X157767359Y-120399423D01*
X157808436Y-120391271D01*
X157826073Y-120387781D01*
X157918984Y-120360036D01*
X157995693Y-120313394D01*
X158056328Y-120255122D01*
X158107668Y-120184665D01*
X158140498Y-120104037D01*
X158157077Y-120005643D01*
X158160124Y-119905933D01*
X158146937Y-119768792D01*
X157933200Y-119768792D01*
X157933200Y-119812799D01*
X157623996Y-119812799D01*
X157632999Y-119732925D01*
X157651926Y-119665150D01*
X157688159Y-119611895D01*
X157735391Y-119580723D01*
X157764014Y-119575733D01*
X157827903Y-119591345D01*
X157881668Y-119633306D01*
X157918901Y-119694303D01*
X157933192Y-119767021D01*
X157933200Y-119768792D01*
X158146937Y-119768792D01*
X158146385Y-119763062D01*
X158108685Y-119643905D01*
X158046896Y-119548112D01*
X158016257Y-119517027D01*
X157953749Y-119466820D01*
X157895669Y-119438023D01*
X157828101Y-119425382D01*
X157768111Y-119423333D01*
X157663330Y-119436569D01*
X157663330Y-119436569D01*
G37*
X157663330Y-119436569D02*
X157572324Y-119474206D01*
X157501717Y-119533137D01*
X157484094Y-119556618D01*
X157448966Y-119626506D01*
X157419154Y-119715866D01*
X157398625Y-119810332D01*
X157391333Y-119892557D01*
X157391333Y-119965199D01*
X157933200Y-119965199D01*
X157933200Y-120016840D01*
X157918936Y-120090881D01*
X157880541Y-120154822D01*
X157832154Y-120193513D01*
X157769041Y-120212719D01*
X157689020Y-120218901D01*
X157606326Y-120212335D01*
X157535197Y-120193298D01*
X157522574Y-120187495D01*
X157481904Y-120169769D01*
X157455153Y-120163662D01*
X157451260Y-120164917D01*
X157445862Y-120185877D01*
X157442587Y-120228601D01*
X157442133Y-120253834D01*
X157444447Y-120303997D01*
X157454958Y-120331805D01*
X157479024Y-120348647D01*
X157488700Y-120352858D01*
X157523493Y-120363608D01*
X157576467Y-120376223D01*
X157636562Y-120388534D01*
X157692714Y-120398371D01*
X157733863Y-120403565D01*
X157746933Y-120403513D01*
X157767359Y-120399423D01*
X157808436Y-120391271D01*
X157826073Y-120387781D01*
X157918984Y-120360036D01*
X157995693Y-120313394D01*
X158056328Y-120255122D01*
X158107668Y-120184665D01*
X158140498Y-120104037D01*
X158157077Y-120005643D01*
X158160124Y-119905933D01*
X158146937Y-119768792D01*
X157933200Y-119768792D01*
X157933200Y-119812799D01*
X157623996Y-119812799D01*
X157632999Y-119732925D01*
X157651926Y-119665150D01*
X157688159Y-119611895D01*
X157735391Y-119580723D01*
X157764014Y-119575733D01*
X157827903Y-119591345D01*
X157881668Y-119633306D01*
X157918901Y-119694303D01*
X157933192Y-119767021D01*
X157933200Y-119768792D01*
X158146937Y-119768792D01*
X158146385Y-119763062D01*
X158108685Y-119643905D01*
X158046896Y-119548112D01*
X158016257Y-119517027D01*
X157953749Y-119466820D01*
X157895669Y-119438023D01*
X157828101Y-119425382D01*
X157768111Y-119423333D01*
X157663330Y-119436569D01*
G36*
X154659615Y-119428647D02*
X154581175Y-119446276D01*
X154520417Y-119478751D01*
X154475285Y-119522136D01*
X154449207Y-119559891D01*
X154429058Y-119606547D01*
X154414181Y-119666515D01*
X154403920Y-119744209D01*
X154397619Y-119844038D01*
X154394621Y-119970416D01*
X154394134Y-120067633D01*
X154394134Y-120388533D01*
X154493922Y-120388533D01*
X154557034Y-120385485D01*
X154593502Y-120372913D01*
X154610267Y-120345671D01*
X154614267Y-120299313D01*
X154615943Y-120277671D01*
X154625766Y-120276799D01*
X154650931Y-120297901D01*
X154660834Y-120307096D01*
X154747400Y-120367230D01*
X154842397Y-120395170D01*
X154943165Y-120390171D01*
X154950854Y-120388454D01*
X155038479Y-120352987D01*
X155101926Y-120294251D01*
X155140322Y-120213548D01*
X155152794Y-120112182D01*
X155152210Y-120093922D01*
X154936000Y-120093922D01*
X154930905Y-120147247D01*
X154911412Y-120182835D01*
X154891383Y-120201037D01*
X154830357Y-120230101D01*
X154762164Y-120233738D01*
X154714929Y-120218698D01*
X154673010Y-120178134D01*
X154641234Y-120108788D01*
X154621417Y-120014706D01*
X154620721Y-120008991D01*
X154615813Y-119959435D01*
X154619070Y-119929308D01*
X154636210Y-119915596D01*
X154672954Y-119915286D01*
X154735021Y-119925363D01*
X154767708Y-119931530D01*
X154850382Y-119955819D01*
X154903805Y-119993334D01*
X154930981Y-120046973D01*
X154936000Y-120093922D01*
X155152210Y-120093922D01*
X155152025Y-120088149D01*
X155135630Y-119993986D01*
X155096929Y-119920029D01*
X155033978Y-119864828D01*
X154944835Y-119826934D01*
X154827557Y-119804897D01*
X154765591Y-119799797D01*
X154611410Y-119791006D01*
X154622676Y-119729936D01*
X154640429Y-119676931D01*
X154667961Y-119632341D01*
X154669390Y-119630766D01*
X154716348Y-119602738D01*
X154783480Y-119591147D01*
X154861364Y-119595964D01*
X154940579Y-119617159D01*
X154973496Y-119631700D01*
X155050598Y-119670734D01*
X155060523Y-119586927D01*
X155064788Y-119535987D01*
X155064590Y-119499615D01*
X155062472Y-119490211D01*
X155034929Y-119470681D01*
X154982076Y-119452321D01*
X154912463Y-119437041D01*
X154834637Y-119426751D01*
X154763106Y-119423333D01*
X154659615Y-119428647D01*
X154659615Y-119428647D01*
G37*
X154659615Y-119428647D02*
X154581175Y-119446276D01*
X154520417Y-119478751D01*
X154475285Y-119522136D01*
X154449207Y-119559891D01*
X154429058Y-119606547D01*
X154414181Y-119666515D01*
X154403920Y-119744209D01*
X154397619Y-119844038D01*
X154394621Y-119970416D01*
X154394134Y-120067633D01*
X154394134Y-120388533D01*
X154493922Y-120388533D01*
X154557034Y-120385485D01*
X154593502Y-120372913D01*
X154610267Y-120345671D01*
X154614267Y-120299313D01*
X154615943Y-120277671D01*
X154625766Y-120276799D01*
X154650931Y-120297901D01*
X154660834Y-120307096D01*
X154747400Y-120367230D01*
X154842397Y-120395170D01*
X154943165Y-120390171D01*
X154950854Y-120388454D01*
X155038479Y-120352987D01*
X155101926Y-120294251D01*
X155140322Y-120213548D01*
X155152794Y-120112182D01*
X155152210Y-120093922D01*
X154936000Y-120093922D01*
X154930905Y-120147247D01*
X154911412Y-120182835D01*
X154891383Y-120201037D01*
X154830357Y-120230101D01*
X154762164Y-120233738D01*
X154714929Y-120218698D01*
X154673010Y-120178134D01*
X154641234Y-120108788D01*
X154621417Y-120014706D01*
X154620721Y-120008991D01*
X154615813Y-119959435D01*
X154619070Y-119929308D01*
X154636210Y-119915596D01*
X154672954Y-119915286D01*
X154735021Y-119925363D01*
X154767708Y-119931530D01*
X154850382Y-119955819D01*
X154903805Y-119993334D01*
X154930981Y-120046973D01*
X154936000Y-120093922D01*
X155152210Y-120093922D01*
X155152025Y-120088149D01*
X155135630Y-119993986D01*
X155096929Y-119920029D01*
X155033978Y-119864828D01*
X154944835Y-119826934D01*
X154827557Y-119804897D01*
X154765591Y-119799797D01*
X154611410Y-119791006D01*
X154622676Y-119729936D01*
X154640429Y-119676931D01*
X154667961Y-119632341D01*
X154669390Y-119630766D01*
X154716348Y-119602738D01*
X154783480Y-119591147D01*
X154861364Y-119595964D01*
X154940579Y-119617159D01*
X154973496Y-119631700D01*
X155050598Y-119670734D01*
X155060523Y-119586927D01*
X155064788Y-119535987D01*
X155064590Y-119499615D01*
X155062472Y-119490211D01*
X155034929Y-119470681D01*
X154982076Y-119452321D01*
X154912463Y-119437041D01*
X154834637Y-119426751D01*
X154763106Y-119423333D01*
X154659615Y-119428647D01*
G36*
X153046078Y-119185001D02*
X153041583Y-119225996D01*
X153039517Y-119284286D01*
X153039467Y-119295448D01*
X153039467Y-119421563D01*
X152861667Y-119431799D01*
X152861667Y-119601133D01*
X153039467Y-119611369D01*
X153039467Y-119897755D01*
X153039275Y-120002559D01*
X153038300Y-120078582D01*
X153035939Y-120130907D01*
X153031590Y-120164619D01*
X153024652Y-120184803D01*
X153014523Y-120196543D01*
X153003278Y-120203509D01*
X152961277Y-120214442D01*
X152910675Y-120213721D01*
X152910144Y-120213636D01*
X152853200Y-120204395D01*
X152853200Y-120278935D01*
X152858226Y-120333851D01*
X152874922Y-120363547D01*
X152882834Y-120368775D01*
X152947879Y-120388908D01*
X153027997Y-120394617D01*
X153100236Y-120386217D01*
X153166526Y-120359083D01*
X153218769Y-120319273D01*
X153268067Y-120267859D01*
X153273306Y-119938729D01*
X153278546Y-119609599D01*
X153428934Y-119609599D01*
X153428934Y-119423333D01*
X153278224Y-119423333D01*
X153273145Y-119328218D01*
X153268067Y-119233103D01*
X153166467Y-119201467D01*
X153111460Y-119184890D01*
X153069776Y-119173344D01*
X153052167Y-119169582D01*
X153046078Y-119185001D01*
X153046078Y-119185001D01*
G37*
X153046078Y-119185001D02*
X153041583Y-119225996D01*
X153039517Y-119284286D01*
X153039467Y-119295448D01*
X153039467Y-119421563D01*
X152861667Y-119431799D01*
X152861667Y-119601133D01*
X153039467Y-119611369D01*
X153039467Y-119897755D01*
X153039275Y-120002559D01*
X153038300Y-120078582D01*
X153035939Y-120130907D01*
X153031590Y-120164619D01*
X153024652Y-120184803D01*
X153014523Y-120196543D01*
X153003278Y-120203509D01*
X152961277Y-120214442D01*
X152910675Y-120213721D01*
X152910144Y-120213636D01*
X152853200Y-120204395D01*
X152853200Y-120278935D01*
X152858226Y-120333851D01*
X152874922Y-120363547D01*
X152882834Y-120368775D01*
X152947879Y-120388908D01*
X153027997Y-120394617D01*
X153100236Y-120386217D01*
X153166526Y-120359083D01*
X153218769Y-120319273D01*
X153268067Y-120267859D01*
X153273306Y-119938729D01*
X153278546Y-119609599D01*
X153428934Y-119609599D01*
X153428934Y-119423333D01*
X153278224Y-119423333D01*
X153273145Y-119328218D01*
X153268067Y-119233103D01*
X153166467Y-119201467D01*
X153111460Y-119184890D01*
X153069776Y-119173344D01*
X153052167Y-119169582D01*
X153046078Y-119185001D01*
G36*
X152154967Y-119431633D02*
X152119392Y-119439345D01*
X152043672Y-119481399D01*
X151979742Y-119550727D01*
X151930532Y-119641915D01*
X151898975Y-119749549D01*
X151888000Y-119866673D01*
X151888000Y-119965199D01*
X152158934Y-119965199D01*
X152260260Y-119965404D01*
X152332590Y-119966418D01*
X152380796Y-119968846D01*
X152409749Y-119973289D01*
X152424317Y-119980350D01*
X152429373Y-119990632D01*
X152429867Y-119998723D01*
X152418663Y-120058934D01*
X152390064Y-120121748D01*
X152351589Y-120172820D01*
X152329393Y-120190441D01*
X152268537Y-120211531D01*
X152189420Y-120218759D01*
X152104595Y-120212307D01*
X152026619Y-120192360D01*
X152010767Y-120185789D01*
X151938800Y-120153122D01*
X151938800Y-120218642D01*
X151936409Y-120268004D01*
X151930522Y-120305102D01*
X151929190Y-120309207D01*
X151936734Y-120330651D01*
X151971165Y-120351148D01*
X152025505Y-120369248D01*
X152092779Y-120383497D01*
X152166010Y-120392445D01*
X152238221Y-120394639D01*
X152302435Y-120388628D01*
X152306809Y-120387791D01*
X152423622Y-120350543D01*
X152515896Y-120290278D01*
X152583770Y-120206784D01*
X152627381Y-120099850D01*
X152646870Y-119969266D01*
X152646592Y-119870153D01*
X152633077Y-119773620D01*
X152430671Y-119773620D01*
X152421388Y-119796776D01*
X152388079Y-119808368D01*
X152327091Y-119812376D01*
X152266836Y-119812799D01*
X152103805Y-119812799D01*
X152115292Y-119740833D01*
X152138647Y-119657459D01*
X152177485Y-119603916D01*
X152220792Y-119582036D01*
X152287101Y-119579677D01*
X152342744Y-119609017D01*
X152388572Y-119670526D01*
X152391767Y-119676706D01*
X152419580Y-119734923D01*
X152430671Y-119773620D01*
X152633077Y-119773620D01*
X152627492Y-119733733D01*
X152586410Y-119620509D01*
X152524438Y-119531829D01*
X152442668Y-119469042D01*
X152342193Y-119433495D01*
X152287260Y-119426481D01*
X152219068Y-119425925D01*
X152154967Y-119431633D01*
X152154967Y-119431633D01*
G37*
X152154967Y-119431633D02*
X152119392Y-119439345D01*
X152043672Y-119481399D01*
X151979742Y-119550727D01*
X151930532Y-119641915D01*
X151898975Y-119749549D01*
X151888000Y-119866673D01*
X151888000Y-119965199D01*
X152158934Y-119965199D01*
X152260260Y-119965404D01*
X152332590Y-119966418D01*
X152380796Y-119968846D01*
X152409749Y-119973289D01*
X152424317Y-119980350D01*
X152429373Y-119990632D01*
X152429867Y-119998723D01*
X152418663Y-120058934D01*
X152390064Y-120121748D01*
X152351589Y-120172820D01*
X152329393Y-120190441D01*
X152268537Y-120211531D01*
X152189420Y-120218759D01*
X152104595Y-120212307D01*
X152026619Y-120192360D01*
X152010767Y-120185789D01*
X151938800Y-120153122D01*
X151938800Y-120218642D01*
X151936409Y-120268004D01*
X151930522Y-120305102D01*
X151929190Y-120309207D01*
X151936734Y-120330651D01*
X151971165Y-120351148D01*
X152025505Y-120369248D01*
X152092779Y-120383497D01*
X152166010Y-120392445D01*
X152238221Y-120394639D01*
X152302435Y-120388628D01*
X152306809Y-120387791D01*
X152423622Y-120350543D01*
X152515896Y-120290278D01*
X152583770Y-120206784D01*
X152627381Y-120099850D01*
X152646870Y-119969266D01*
X152646592Y-119870153D01*
X152633077Y-119773620D01*
X152430671Y-119773620D01*
X152421388Y-119796776D01*
X152388079Y-119808368D01*
X152327091Y-119812376D01*
X152266836Y-119812799D01*
X152103805Y-119812799D01*
X152115292Y-119740833D01*
X152138647Y-119657459D01*
X152177485Y-119603916D01*
X152220792Y-119582036D01*
X152287101Y-119579677D01*
X152342744Y-119609017D01*
X152388572Y-119670526D01*
X152391767Y-119676706D01*
X152419580Y-119734923D01*
X152430671Y-119773620D01*
X152633077Y-119773620D01*
X152627492Y-119733733D01*
X152586410Y-119620509D01*
X152524438Y-119531829D01*
X152442668Y-119469042D01*
X152342193Y-119433495D01*
X152287260Y-119426481D01*
X152219068Y-119425925D01*
X152154967Y-119431633D01*
G36*
X150573206Y-119424409D02*
X150504266Y-119431805D01*
X150451155Y-119445292D01*
X150421986Y-119464344D01*
X150419920Y-119468282D01*
X150416799Y-119498557D01*
X150419656Y-119546605D01*
X150422080Y-119565251D01*
X150433142Y-119639020D01*
X150504404Y-119614388D01*
X150595870Y-119597440D01*
X150679049Y-119610402D01*
X150748956Y-119651559D01*
X150798736Y-119715592D01*
X150819654Y-119779023D01*
X150829435Y-119860557D01*
X150828214Y-119947446D01*
X150816123Y-120026942D01*
X150794885Y-120083675D01*
X150734572Y-120157676D01*
X150659968Y-120202717D01*
X150575572Y-120217222D01*
X150485879Y-120199614D01*
X150475673Y-120195562D01*
X150419100Y-120171924D01*
X150408992Y-120257269D01*
X150404655Y-120308691D01*
X150404755Y-120345627D01*
X150406931Y-120355633D01*
X150420911Y-120364233D01*
X150455096Y-120373236D01*
X150514005Y-120383585D01*
X150601067Y-120396072D01*
X150644009Y-120396741D01*
X150700919Y-120391557D01*
X150721243Y-120388473D01*
X150816407Y-120362887D01*
X150894330Y-120318293D01*
X150961217Y-120255171D01*
X151018843Y-120168158D01*
X151057012Y-120060716D01*
X151074459Y-119940983D01*
X151069922Y-119817095D01*
X151046043Y-119708911D01*
X151006093Y-119624980D01*
X150945828Y-119547143D01*
X150873740Y-119484317D01*
X150798321Y-119445421D01*
X150793836Y-119444031D01*
X150726105Y-119429996D01*
X150649857Y-119423631D01*
X150573206Y-119424409D01*
X150573206Y-119424409D01*
G37*
X150573206Y-119424409D02*
X150504266Y-119431805D01*
X150451155Y-119445292D01*
X150421986Y-119464344D01*
X150419920Y-119468282D01*
X150416799Y-119498557D01*
X150419656Y-119546605D01*
X150422080Y-119565251D01*
X150433142Y-119639020D01*
X150504404Y-119614388D01*
X150595870Y-119597440D01*
X150679049Y-119610402D01*
X150748956Y-119651559D01*
X150798736Y-119715592D01*
X150819654Y-119779023D01*
X150829435Y-119860557D01*
X150828214Y-119947446D01*
X150816123Y-120026942D01*
X150794885Y-120083675D01*
X150734572Y-120157676D01*
X150659968Y-120202717D01*
X150575572Y-120217222D01*
X150485879Y-120199614D01*
X150475673Y-120195562D01*
X150419100Y-120171924D01*
X150408992Y-120257269D01*
X150404655Y-120308691D01*
X150404755Y-120345627D01*
X150406931Y-120355633D01*
X150420911Y-120364233D01*
X150455096Y-120373236D01*
X150514005Y-120383585D01*
X150601067Y-120396072D01*
X150644009Y-120396741D01*
X150700919Y-120391557D01*
X150721243Y-120388473D01*
X150816407Y-120362887D01*
X150894330Y-120318293D01*
X150961217Y-120255171D01*
X151018843Y-120168158D01*
X151057012Y-120060716D01*
X151074459Y-119940983D01*
X151069922Y-119817095D01*
X151046043Y-119708911D01*
X151006093Y-119624980D01*
X150945828Y-119547143D01*
X150873740Y-119484317D01*
X150798321Y-119445421D01*
X150793836Y-119444031D01*
X150726105Y-119429996D01*
X150649857Y-119423631D01*
X150573206Y-119424409D01*
G36*
X161092444Y-119512233D02*
X161079218Y-119560084D01*
X161059622Y-119632425D01*
X161035877Y-119720987D01*
X161010207Y-119817500D01*
X160998231Y-119862796D01*
X160974429Y-119951877D01*
X160953316Y-120028799D01*
X160936495Y-120087881D01*
X160925570Y-120123440D01*
X160922439Y-120131205D01*
X160914671Y-120120741D01*
X160902716Y-120086509D01*
X160896520Y-120064275D01*
X160884639Y-120019199D01*
X160866396Y-119950680D01*
X160844262Y-119867970D01*
X160820707Y-119780320D01*
X160820334Y-119778933D01*
X160796834Y-119691497D01*
X160774774Y-119609065D01*
X160756600Y-119540807D01*
X160744761Y-119495892D01*
X160744607Y-119495299D01*
X160725895Y-119423333D01*
X160616481Y-119423333D01*
X160560616Y-119425456D01*
X160521186Y-119431009D01*
X160507067Y-119438379D01*
X160511634Y-119457805D01*
X160525420Y-119506759D01*
X160548553Y-119585671D01*
X160581161Y-119694968D01*
X160623372Y-119835079D01*
X160675316Y-120006430D01*
X160737118Y-120209452D01*
X160776265Y-120337733D01*
X160784869Y-120358800D01*
X160799896Y-120371794D01*
X160828893Y-120379091D01*
X160879405Y-120383071D01*
X160926178Y-120384962D01*
X160995179Y-120386523D01*
X161037533Y-120384322D01*
X161060366Y-120377121D01*
X161070805Y-120363679D01*
X161072205Y-120359562D01*
X161079440Y-120335566D01*
X161094890Y-120284481D01*
X161116943Y-120211629D01*
X161143987Y-120122330D01*
X161174408Y-120021905D01*
X161206595Y-119915676D01*
X161238935Y-119808962D01*
X161269815Y-119707086D01*
X161297625Y-119615367D01*
X161320750Y-119539128D01*
X161337579Y-119483688D01*
X161346499Y-119454369D01*
X161346929Y-119452966D01*
X161348066Y-119437445D01*
X161335257Y-119428497D01*
X161302012Y-119424376D01*
X161241837Y-119423336D01*
X161236814Y-119423333D01*
X161117613Y-119423333D01*
X161092444Y-119512233D01*
X161092444Y-119512233D01*
G37*
X161092444Y-119512233D02*
X161079218Y-119560084D01*
X161059622Y-119632425D01*
X161035877Y-119720987D01*
X161010207Y-119817500D01*
X160998231Y-119862796D01*
X160974429Y-119951877D01*
X160953316Y-120028799D01*
X160936495Y-120087881D01*
X160925570Y-120123440D01*
X160922439Y-120131205D01*
X160914671Y-120120741D01*
X160902716Y-120086509D01*
X160896520Y-120064275D01*
X160884639Y-120019199D01*
X160866396Y-119950680D01*
X160844262Y-119867970D01*
X160820707Y-119780320D01*
X160820334Y-119778933D01*
X160796834Y-119691497D01*
X160774774Y-119609065D01*
X160756600Y-119540807D01*
X160744761Y-119495892D01*
X160744607Y-119495299D01*
X160725895Y-119423333D01*
X160616481Y-119423333D01*
X160560616Y-119425456D01*
X160521186Y-119431009D01*
X160507067Y-119438379D01*
X160511634Y-119457805D01*
X160525420Y-119506759D01*
X160548553Y-119585671D01*
X160581161Y-119694968D01*
X160623372Y-119835079D01*
X160675316Y-120006430D01*
X160737118Y-120209452D01*
X160776265Y-120337733D01*
X160784869Y-120358800D01*
X160799896Y-120371794D01*
X160828893Y-120379091D01*
X160879405Y-120383071D01*
X160926178Y-120384962D01*
X160995179Y-120386523D01*
X161037533Y-120384322D01*
X161060366Y-120377121D01*
X161070805Y-120363679D01*
X161072205Y-120359562D01*
X161079440Y-120335566D01*
X161094890Y-120284481D01*
X161116943Y-120211629D01*
X161143987Y-120122330D01*
X161174408Y-120021905D01*
X161206595Y-119915676D01*
X161238935Y-119808962D01*
X161269815Y-119707086D01*
X161297625Y-119615367D01*
X161320750Y-119539128D01*
X161337579Y-119483688D01*
X161346499Y-119454369D01*
X161346929Y-119452966D01*
X161348066Y-119437445D01*
X161335257Y-119428497D01*
X161302012Y-119424376D01*
X161241837Y-119423336D01*
X161236814Y-119423333D01*
X161117613Y-119423333D01*
X161092444Y-119512233D01*
G36*
X156883333Y-120388533D02*
X157103467Y-120388533D01*
X157103467Y-119000000D01*
X156883333Y-119000000D01*
X156883333Y-120388533D01*
X156883333Y-120388533D01*
G37*
X156883333Y-120388533D02*
X157103467Y-120388533D01*
X157103467Y-119000000D01*
X156883333Y-119000000D01*
X156883333Y-120388533D01*
G36*
X155350823Y-119426607D02*
X155330502Y-119440059D01*
X155325405Y-119469275D01*
X155333421Y-119519353D01*
X155352439Y-119595390D01*
X155361478Y-119629740D01*
X155386287Y-119723823D01*
X155413818Y-119827804D01*
X155442574Y-119936071D01*
X155471058Y-120043015D01*
X155497771Y-120143023D01*
X155521215Y-120230486D01*
X155539894Y-120299791D01*
X155552308Y-120345329D01*
X155556124Y-120358900D01*
X155566083Y-120374544D01*
X155589389Y-120383612D01*
X155633317Y-120387723D01*
X155689158Y-120388533D01*
X155813499Y-120388533D01*
X155847230Y-120240366D01*
X155865201Y-120161393D01*
X155887517Y-120063273D01*
X155911023Y-119959885D01*
X155928035Y-119885031D01*
X155946471Y-119807647D01*
X155963054Y-119744923D01*
X155976102Y-119702753D01*
X155983932Y-119687029D01*
X155984483Y-119687237D01*
X155990836Y-119705875D01*
X156003197Y-119752543D01*
X156020331Y-119822190D01*
X156041003Y-119909764D01*
X156063979Y-120010212D01*
X156070295Y-120038339D01*
X156146733Y-120380066D01*
X156268060Y-120385012D01*
X156328871Y-120385463D01*
X156375377Y-120382018D01*
X156398245Y-120375413D01*
X156398809Y-120374713D01*
X156406260Y-120353589D01*
X156420759Y-120304908D01*
X156440905Y-120233912D01*
X156465297Y-120145840D01*
X156492537Y-120045932D01*
X156521224Y-119939429D01*
X156549958Y-119831571D01*
X156577338Y-119727599D01*
X156601965Y-119632751D01*
X156622438Y-119552269D01*
X156637357Y-119491393D01*
X156645323Y-119455363D01*
X156646267Y-119448550D01*
X156640835Y-119434287D01*
X156619979Y-119426991D01*
X156576862Y-119425361D01*
X156532058Y-119426792D01*
X156417850Y-119431799D01*
X156364277Y-119685799D01*
X156343688Y-119783689D01*
X156323826Y-119878606D01*
X156306569Y-119961544D01*
X156293795Y-120023498D01*
X156290740Y-120038509D01*
X156279131Y-120089401D01*
X156269052Y-120122317D01*
X156263524Y-120129968D01*
X156257846Y-120111899D01*
X156246395Y-120065970D01*
X156230401Y-119997456D01*
X156211095Y-119911629D01*
X156189706Y-119813766D01*
X156189137Y-119811125D01*
X156167375Y-119710349D01*
X156147534Y-119618893D01*
X156130922Y-119542748D01*
X156118846Y-119487907D01*
X156112701Y-119460730D01*
X156105894Y-119441248D01*
X156092077Y-119430093D01*
X156063718Y-119425444D01*
X156013284Y-119425479D01*
X155972668Y-119426863D01*
X155841933Y-119431799D01*
X155766009Y-119792460D01*
X155743692Y-119896562D01*
X155723455Y-119987349D01*
X155706358Y-120060352D01*
X155693463Y-120111105D01*
X155685830Y-120135141D01*
X155684402Y-120136070D01*
X155679388Y-120115004D01*
X155668655Y-120065972D01*
X155653313Y-119994183D01*
X155634471Y-119904842D01*
X155613240Y-119803155D01*
X155607481Y-119775410D01*
X155536245Y-119431799D01*
X155445574Y-119426604D01*
X155388477Y-119423821D01*
X155350823Y-119426607D01*
X155350823Y-119426607D01*
G37*
X155350823Y-119426607D02*
X155330502Y-119440059D01*
X155325405Y-119469275D01*
X155333421Y-119519353D01*
X155352439Y-119595390D01*
X155361478Y-119629740D01*
X155386287Y-119723823D01*
X155413818Y-119827804D01*
X155442574Y-119936071D01*
X155471058Y-120043015D01*
X155497771Y-120143023D01*
X155521215Y-120230486D01*
X155539894Y-120299791D01*
X155552308Y-120345329D01*
X155556124Y-120358900D01*
X155566083Y-120374544D01*
X155589389Y-120383612D01*
X155633317Y-120387723D01*
X155689158Y-120388533D01*
X155813499Y-120388533D01*
X155847230Y-120240366D01*
X155865201Y-120161393D01*
X155887517Y-120063273D01*
X155911023Y-119959885D01*
X155928035Y-119885031D01*
X155946471Y-119807647D01*
X155963054Y-119744923D01*
X155976102Y-119702753D01*
X155983932Y-119687029D01*
X155984483Y-119687237D01*
X155990836Y-119705875D01*
X156003197Y-119752543D01*
X156020331Y-119822190D01*
X156041003Y-119909764D01*
X156063979Y-120010212D01*
X156070295Y-120038339D01*
X156146733Y-120380066D01*
X156268060Y-120385012D01*
X156328871Y-120385463D01*
X156375377Y-120382018D01*
X156398245Y-120375413D01*
X156398809Y-120374713D01*
X156406260Y-120353589D01*
X156420759Y-120304908D01*
X156440905Y-120233912D01*
X156465297Y-120145840D01*
X156492537Y-120045932D01*
X156521224Y-119939429D01*
X156549958Y-119831571D01*
X156577338Y-119727599D01*
X156601965Y-119632751D01*
X156622438Y-119552269D01*
X156637357Y-119491393D01*
X156645323Y-119455363D01*
X156646267Y-119448550D01*
X156640835Y-119434287D01*
X156619979Y-119426991D01*
X156576862Y-119425361D01*
X156532058Y-119426792D01*
X156417850Y-119431799D01*
X156364277Y-119685799D01*
X156343688Y-119783689D01*
X156323826Y-119878606D01*
X156306569Y-119961544D01*
X156293795Y-120023498D01*
X156290740Y-120038509D01*
X156279131Y-120089401D01*
X156269052Y-120122317D01*
X156263524Y-120129968D01*
X156257846Y-120111899D01*
X156246395Y-120065970D01*
X156230401Y-119997456D01*
X156211095Y-119911629D01*
X156189706Y-119813766D01*
X156189137Y-119811125D01*
X156167375Y-119710349D01*
X156147534Y-119618893D01*
X156130922Y-119542748D01*
X156118846Y-119487907D01*
X156112701Y-119460730D01*
X156105894Y-119441248D01*
X156092077Y-119430093D01*
X156063718Y-119425444D01*
X156013284Y-119425479D01*
X155972668Y-119426863D01*
X155841933Y-119431799D01*
X155766009Y-119792460D01*
X155743692Y-119896562D01*
X155723455Y-119987349D01*
X155706358Y-120060352D01*
X155693463Y-120111105D01*
X155685830Y-120135141D01*
X155684402Y-120136070D01*
X155679388Y-120115004D01*
X155668655Y-120065972D01*
X155653313Y-119994183D01*
X155634471Y-119904842D01*
X155613240Y-119803155D01*
X155607481Y-119775410D01*
X155536245Y-119431799D01*
X155445574Y-119426604D01*
X155388477Y-119423821D01*
X155350823Y-119426607D01*
G36*
X153598267Y-119533722D02*
X153598894Y-119592761D01*
X153602612Y-119624864D01*
X153612178Y-119636960D01*
X153630349Y-119635976D01*
X153638195Y-119634090D01*
X153692257Y-119635106D01*
X153752824Y-119657292D01*
X153806410Y-119694480D01*
X153829783Y-119721706D01*
X153841109Y-119743145D01*
X153849615Y-119771550D01*
X153855840Y-119812141D01*
X153860321Y-119870136D01*
X153863597Y-119950756D01*
X153866205Y-120059219D01*
X153866582Y-120078720D01*
X153872430Y-120388533D01*
X154089334Y-120388533D01*
X154092626Y-119965199D01*
X154093576Y-119845692D01*
X154094495Y-119734753D01*
X154095337Y-119637739D01*
X154096054Y-119560001D01*
X154096599Y-119506893D01*
X154096859Y-119486833D01*
X154097800Y-119431799D01*
X153894600Y-119431799D01*
X153889542Y-119500714D01*
X153884485Y-119569628D01*
X153811337Y-119496480D01*
X153765434Y-119454092D01*
X153728852Y-119431951D01*
X153689643Y-119423948D01*
X153668228Y-119423333D01*
X153598267Y-119423333D01*
X153598267Y-119533722D01*
X153598267Y-119533722D01*
G37*
X153598267Y-119533722D02*
X153598894Y-119592761D01*
X153602612Y-119624864D01*
X153612178Y-119636960D01*
X153630349Y-119635976D01*
X153638195Y-119634090D01*
X153692257Y-119635106D01*
X153752824Y-119657292D01*
X153806410Y-119694480D01*
X153829783Y-119721706D01*
X153841109Y-119743145D01*
X153849615Y-119771550D01*
X153855840Y-119812141D01*
X153860321Y-119870136D01*
X153863597Y-119950756D01*
X153866205Y-120059219D01*
X153866582Y-120078720D01*
X153872430Y-120388533D01*
X154089334Y-120388533D01*
X154092626Y-119965199D01*
X154093576Y-119845692D01*
X154094495Y-119734753D01*
X154095337Y-119637739D01*
X154096054Y-119560001D01*
X154096599Y-119506893D01*
X154096859Y-119486833D01*
X154097800Y-119431799D01*
X153894600Y-119431799D01*
X153889542Y-119500714D01*
X153884485Y-119569628D01*
X153811337Y-119496480D01*
X153765434Y-119454092D01*
X153728852Y-119431951D01*
X153689643Y-119423948D01*
X153668228Y-119423333D01*
X153598267Y-119423333D01*
X153598267Y-119533722D01*
G36*
X151366542Y-120256509D02*
X151371533Y-120380066D01*
X151477586Y-120385113D01*
X151541180Y-120385864D01*
X151577543Y-120379900D01*
X151592801Y-120366284D01*
X151596951Y-120337145D01*
X151598124Y-120286753D01*
X151596815Y-120242703D01*
X151591667Y-120142999D01*
X151361551Y-120132951D01*
X151366542Y-120256509D01*
X151366542Y-120256509D01*
G37*
X151366542Y-120256509D02*
X151371533Y-120380066D01*
X151477586Y-120385113D01*
X151541180Y-120385864D01*
X151577543Y-120379900D01*
X151592801Y-120366284D01*
X151596951Y-120337145D01*
X151598124Y-120286753D01*
X151596815Y-120242703D01*
X151591667Y-120142999D01*
X151361551Y-120132951D01*
X151366542Y-120256509D01*
G36*
X149940667Y-119274701D02*
X149940447Y-119376252D01*
X149939483Y-119448003D01*
X149937324Y-119494015D01*
X149933516Y-119518355D01*
X149927605Y-119525084D01*
X149919139Y-119518268D01*
X149914239Y-119511671D01*
X149862254Y-119464527D01*
X149790072Y-119434149D01*
X149707728Y-119422044D01*
X149625261Y-119429721D01*
X149554449Y-119457613D01*
X149518555Y-119482653D01*
X149490442Y-119511717D01*
X149469179Y-119549052D01*
X149453835Y-119598905D01*
X149443480Y-119665523D01*
X149437183Y-119753155D01*
X149434014Y-119866046D01*
X149433042Y-120008445D01*
X149433039Y-120011766D01*
X149432667Y-120388533D01*
X149649790Y-120388533D01*
X149655616Y-120045633D01*
X149658892Y-119907705D01*
X149663550Y-119801903D01*
X149669714Y-119726505D01*
X149677507Y-119679795D01*
X149683010Y-119664833D01*
X149721950Y-119626516D01*
X149775017Y-119611347D01*
X149831959Y-119618964D01*
X149882523Y-119649009D01*
X149902353Y-119672545D01*
X149913070Y-119693514D01*
X149921341Y-119722799D01*
X149927665Y-119765300D01*
X149932539Y-119825917D01*
X149936463Y-119909552D01*
X149939935Y-120021105D01*
X149940667Y-120049043D01*
X149949133Y-120380066D01*
X150177733Y-120390080D01*
X150177733Y-119000000D01*
X149940667Y-119000000D01*
X149940667Y-119274701D01*
X149940667Y-119274701D01*
G37*
X149940667Y-119274701D02*
X149940447Y-119376252D01*
X149939483Y-119448003D01*
X149937324Y-119494015D01*
X149933516Y-119518355D01*
X149927605Y-119525084D01*
X149919139Y-119518268D01*
X149914239Y-119511671D01*
X149862254Y-119464527D01*
X149790072Y-119434149D01*
X149707728Y-119422044D01*
X149625261Y-119429721D01*
X149554449Y-119457613D01*
X149518555Y-119482653D01*
X149490442Y-119511717D01*
X149469179Y-119549052D01*
X149453835Y-119598905D01*
X149443480Y-119665523D01*
X149437183Y-119753155D01*
X149434014Y-119866046D01*
X149433042Y-120008445D01*
X149433039Y-120011766D01*
X149432667Y-120388533D01*
X149649790Y-120388533D01*
X149655616Y-120045633D01*
X149658892Y-119907705D01*
X149663550Y-119801903D01*
X149669714Y-119726505D01*
X149677507Y-119679795D01*
X149683010Y-119664833D01*
X149721950Y-119626516D01*
X149775017Y-119611347D01*
X149831959Y-119618964D01*
X149882523Y-119649009D01*
X149902353Y-119672545D01*
X149913070Y-119693514D01*
X149921341Y-119722799D01*
X149927665Y-119765300D01*
X149932539Y-119825917D01*
X149936463Y-119909552D01*
X149939935Y-120021105D01*
X149940667Y-120049043D01*
X149949133Y-120380066D01*
X150177733Y-120390080D01*
X150177733Y-119000000D01*
X149940667Y-119000000D01*
X149940667Y-119274701D01*
G36*
X164203641Y-119014986D02*
X164173141Y-119044713D01*
X164164667Y-119078522D01*
X164177962Y-119129042D01*
X164211370Y-119160626D01*
X164255175Y-119170376D01*
X164299659Y-119155392D01*
X164327091Y-119127000D01*
X164345007Y-119093858D01*
X164342109Y-119067799D01*
X164327091Y-119042333D01*
X164291121Y-119011455D01*
X164246469Y-119003120D01*
X164203641Y-119014986D01*
X164203641Y-119014986D01*
G37*
X164203641Y-119014986D02*
X164173141Y-119044713D01*
X164164667Y-119078522D01*
X164177962Y-119129042D01*
X164211370Y-119160626D01*
X164255175Y-119170376D01*
X164299659Y-119155392D01*
X164327091Y-119127000D01*
X164345007Y-119093858D01*
X164342109Y-119067799D01*
X164327091Y-119042333D01*
X164291121Y-119011455D01*
X164246469Y-119003120D01*
X164203641Y-119014986D01*
G36*
X161721779Y-109103541D02*
X161710846Y-109121643D01*
X161686616Y-109148804D01*
X161646136Y-109121643D01*
X161553790Y-109079601D01*
X161439166Y-109087480D01*
X161329192Y-109141856D01*
X161302494Y-109165351D01*
X161230019Y-109282177D01*
X161211085Y-109417557D01*
X161245977Y-109546294D01*
X161297411Y-109614247D01*
X161392895Y-109669358D01*
X161510299Y-109692891D01*
X161619475Y-109682045D01*
X161677886Y-109649601D01*
X161704589Y-109638237D01*
X161717963Y-109679790D01*
X161721429Y-109776601D01*
X161727980Y-109886838D01*
X161750432Y-109938611D01*
X161775858Y-109947143D01*
X161799324Y-109936226D01*
X161815111Y-109896073D01*
X161824607Y-109815581D01*
X161829199Y-109683649D01*
X161830286Y-109511715D01*
X161829264Y-109386750D01*
X161707293Y-109386750D01*
X161691142Y-109484518D01*
X161628183Y-109560669D01*
X161604289Y-109573868D01*
X161496992Y-109589345D01*
X161404748Y-109537205D01*
X161351627Y-109456534D01*
X161339353Y-109354648D01*
X161380978Y-109260056D01*
X161461107Y-109197303D01*
X161521858Y-109185143D01*
X161617957Y-109214924D01*
X161681334Y-109289506D01*
X161707293Y-109386750D01*
X161829264Y-109386750D01*
X161828735Y-109322085D01*
X161823247Y-109194400D01*
X161812576Y-109118081D01*
X161795471Y-109082552D01*
X161778881Y-109076286D01*
X161721779Y-109103541D01*
X161721779Y-109103541D01*
G37*
X161721779Y-109103541D02*
X161710846Y-109121643D01*
X161686616Y-109148804D01*
X161646136Y-109121643D01*
X161553790Y-109079601D01*
X161439166Y-109087480D01*
X161329192Y-109141856D01*
X161302494Y-109165351D01*
X161230019Y-109282177D01*
X161211085Y-109417557D01*
X161245977Y-109546294D01*
X161297411Y-109614247D01*
X161392895Y-109669358D01*
X161510299Y-109692891D01*
X161619475Y-109682045D01*
X161677886Y-109649601D01*
X161704589Y-109638237D01*
X161717963Y-109679790D01*
X161721429Y-109776601D01*
X161727980Y-109886838D01*
X161750432Y-109938611D01*
X161775858Y-109947143D01*
X161799324Y-109936226D01*
X161815111Y-109896073D01*
X161824607Y-109815581D01*
X161829199Y-109683649D01*
X161830286Y-109511715D01*
X161829264Y-109386750D01*
X161707293Y-109386750D01*
X161691142Y-109484518D01*
X161628183Y-109560669D01*
X161604289Y-109573868D01*
X161496992Y-109589345D01*
X161404748Y-109537205D01*
X161351627Y-109456534D01*
X161339353Y-109354648D01*
X161380978Y-109260056D01*
X161461107Y-109197303D01*
X161521858Y-109185143D01*
X161617957Y-109214924D01*
X161681334Y-109289506D01*
X161707293Y-109386750D01*
X161829264Y-109386750D01*
X161828735Y-109322085D01*
X161823247Y-109194400D01*
X161812576Y-109118081D01*
X161795471Y-109082552D01*
X161778881Y-109076286D01*
X161721779Y-109103541D01*
G36*
X162150819Y-109106792D02*
X162049208Y-109186627D01*
X161986336Y-109298266D01*
X161969515Y-109424184D01*
X162006056Y-109546855D01*
X162059411Y-109614247D01*
X162174750Y-109679195D01*
X162311279Y-109694881D01*
X162441151Y-109661617D01*
X162513390Y-109609162D01*
X162583558Y-109489227D01*
X162593084Y-109375363D01*
X162477928Y-109375363D01*
X162460092Y-109468872D01*
X162390242Y-109543462D01*
X162312327Y-109591489D01*
X162244178Y-109590423D01*
X162207944Y-109576161D01*
X162132292Y-109514937D01*
X162097559Y-109450801D01*
X162098243Y-109342693D01*
X162146687Y-109257107D01*
X162225107Y-109204031D01*
X162315719Y-109193456D01*
X162400738Y-109235369D01*
X162426943Y-109265789D01*
X162477928Y-109375363D01*
X162593084Y-109375363D01*
X162594452Y-109359012D01*
X162553653Y-109236117D01*
X162468742Y-109138140D01*
X162347298Y-109082683D01*
X162283858Y-109076286D01*
X162150819Y-109106792D01*
X162150819Y-109106792D01*
G37*
X162150819Y-109106792D02*
X162049208Y-109186627D01*
X161986336Y-109298266D01*
X161969515Y-109424184D01*
X162006056Y-109546855D01*
X162059411Y-109614247D01*
X162174750Y-109679195D01*
X162311279Y-109694881D01*
X162441151Y-109661617D01*
X162513390Y-109609162D01*
X162583558Y-109489227D01*
X162593084Y-109375363D01*
X162477928Y-109375363D01*
X162460092Y-109468872D01*
X162390242Y-109543462D01*
X162312327Y-109591489D01*
X162244178Y-109590423D01*
X162207944Y-109576161D01*
X162132292Y-109514937D01*
X162097559Y-109450801D01*
X162098243Y-109342693D01*
X162146687Y-109257107D01*
X162225107Y-109204031D01*
X162315719Y-109193456D01*
X162400738Y-109235369D01*
X162426943Y-109265789D01*
X162477928Y-109375363D01*
X162593084Y-109375363D01*
X162594452Y-109359012D01*
X162553653Y-109236117D01*
X162468742Y-109138140D01*
X162347298Y-109082683D01*
X162283858Y-109076286D01*
X162150819Y-109106792D01*
G36*
X160696431Y-109106793D02*
X160596815Y-109184109D01*
X160534345Y-109286923D01*
X160524001Y-109346780D01*
X160527939Y-109396420D01*
X160550693Y-109424068D01*
X160608668Y-109436148D01*
X160718268Y-109439085D01*
X160759858Y-109439143D01*
X160903239Y-109445323D01*
X160977286Y-109465258D01*
X160984291Y-109501047D01*
X160926549Y-109554785D01*
X160903514Y-109570454D01*
X160820337Y-109609619D01*
X160742530Y-109598780D01*
X160719366Y-109588972D01*
X160633510Y-109564288D01*
X160583765Y-109576610D01*
X160584046Y-109619803D01*
X160599253Y-109641945D01*
X160666298Y-109676291D01*
X160784571Y-109692481D01*
X160817893Y-109693143D01*
X160931948Y-109686939D01*
X161000912Y-109661145D01*
X161051727Y-109604990D01*
X161056564Y-109597722D01*
X161100850Y-109492566D01*
X161119086Y-109375306D01*
X161100013Y-109301258D01*
X160995715Y-109301258D01*
X160963270Y-109318573D01*
X160881184Y-109328957D01*
X160832429Y-109330286D01*
X160735031Y-109324518D01*
X160676622Y-109309925D01*
X160669143Y-109301258D01*
X160700269Y-109241019D01*
X160773530Y-109196051D01*
X160832429Y-109185143D01*
X160917140Y-109207277D01*
X160980376Y-109259374D01*
X160995715Y-109301258D01*
X161100013Y-109301258D01*
X161086072Y-109247140D01*
X160999401Y-109144167D01*
X160877629Y-109084373D01*
X160810613Y-109076286D01*
X160696431Y-109106793D01*
X160696431Y-109106793D01*
G37*
X160696431Y-109106793D02*
X160596815Y-109184109D01*
X160534345Y-109286923D01*
X160524001Y-109346780D01*
X160527939Y-109396420D01*
X160550693Y-109424068D01*
X160608668Y-109436148D01*
X160718268Y-109439085D01*
X160759858Y-109439143D01*
X160903239Y-109445323D01*
X160977286Y-109465258D01*
X160984291Y-109501047D01*
X160926549Y-109554785D01*
X160903514Y-109570454D01*
X160820337Y-109609619D01*
X160742530Y-109598780D01*
X160719366Y-109588972D01*
X160633510Y-109564288D01*
X160583765Y-109576610D01*
X160584046Y-109619803D01*
X160599253Y-109641945D01*
X160666298Y-109676291D01*
X160784571Y-109692481D01*
X160817893Y-109693143D01*
X160931948Y-109686939D01*
X161000912Y-109661145D01*
X161051727Y-109604990D01*
X161056564Y-109597722D01*
X161100850Y-109492566D01*
X161119086Y-109375306D01*
X161100013Y-109301258D01*
X160995715Y-109301258D01*
X160963270Y-109318573D01*
X160881184Y-109328957D01*
X160832429Y-109330286D01*
X160735031Y-109324518D01*
X160676622Y-109309925D01*
X160669143Y-109301258D01*
X160700269Y-109241019D01*
X160773530Y-109196051D01*
X160832429Y-109185143D01*
X160917140Y-109207277D01*
X160980376Y-109259374D01*
X160995715Y-109301258D01*
X161100013Y-109301258D01*
X161086072Y-109247140D01*
X160999401Y-109144167D01*
X160877629Y-109084373D01*
X160810613Y-109076286D01*
X160696431Y-109106793D01*
G36*
X160308548Y-109100862D02*
X160298591Y-109117516D01*
X160267831Y-109137639D01*
X160206618Y-109109890D01*
X160102928Y-109081763D01*
X159998737Y-109108472D01*
X159921396Y-109179930D01*
X159903248Y-109221755D01*
X159887815Y-109311109D01*
X159877006Y-109436085D01*
X159874475Y-109502643D01*
X159875657Y-109614551D01*
X159888956Y-109671687D01*
X159920732Y-109691625D01*
X159943429Y-109693143D01*
X159985614Y-109684349D01*
X160007446Y-109646431D01*
X160015310Y-109562091D01*
X160016001Y-109496540D01*
X160021965Y-109338313D01*
X160042298Y-109241068D01*
X160080655Y-109194010D01*
X160121483Y-109185143D01*
X160199726Y-109207552D01*
X160247301Y-109280122D01*
X160268208Y-109410866D01*
X160270001Y-109482686D01*
X160272833Y-109601806D01*
X160285200Y-109665282D01*
X160312905Y-109689948D01*
X160342572Y-109693143D01*
X160377858Y-109687404D01*
X160399412Y-109660725D01*
X160410572Y-109598916D01*
X160414677Y-109487788D01*
X160415143Y-109384715D01*
X160412526Y-109228571D01*
X160403365Y-109133059D01*
X160385694Y-109086387D01*
X160363739Y-109076286D01*
X160308548Y-109100862D01*
X160308548Y-109100862D01*
G37*
X160308548Y-109100862D02*
X160298591Y-109117516D01*
X160267831Y-109137639D01*
X160206618Y-109109890D01*
X160102928Y-109081763D01*
X159998737Y-109108472D01*
X159921396Y-109179930D01*
X159903248Y-109221755D01*
X159887815Y-109311109D01*
X159877006Y-109436085D01*
X159874475Y-109502643D01*
X159875657Y-109614551D01*
X159888956Y-109671687D01*
X159920732Y-109691625D01*
X159943429Y-109693143D01*
X159985614Y-109684349D01*
X160007446Y-109646431D01*
X160015310Y-109562091D01*
X160016001Y-109496540D01*
X160021965Y-109338313D01*
X160042298Y-109241068D01*
X160080655Y-109194010D01*
X160121483Y-109185143D01*
X160199726Y-109207552D01*
X160247301Y-109280122D01*
X160268208Y-109410866D01*
X160270001Y-109482686D01*
X160272833Y-109601806D01*
X160285200Y-109665282D01*
X160312905Y-109689948D01*
X160342572Y-109693143D01*
X160377858Y-109687404D01*
X160399412Y-109660725D01*
X160410572Y-109598916D01*
X160414677Y-109487788D01*
X160415143Y-109384715D01*
X160412526Y-109228571D01*
X160403365Y-109133059D01*
X160385694Y-109086387D01*
X160363739Y-109076286D01*
X160308548Y-109100862D01*
G36*
X159390075Y-109089454D02*
X159373420Y-109137386D01*
X159365092Y-109232726D01*
X159362858Y-109384715D01*
X159365181Y-109538913D01*
X159373640Y-109633287D01*
X159390465Y-109680482D01*
X159417286Y-109693143D01*
X159444498Y-109679976D01*
X159461152Y-109632043D01*
X159469480Y-109536703D01*
X159471715Y-109384715D01*
X159469391Y-109230517D01*
X159460932Y-109136142D01*
X159444108Y-109088948D01*
X159417286Y-109076286D01*
X159390075Y-109089454D01*
X159390075Y-109089454D01*
G37*
X159390075Y-109089454D02*
X159373420Y-109137386D01*
X159365092Y-109232726D01*
X159362858Y-109384715D01*
X159365181Y-109538913D01*
X159373640Y-109633287D01*
X159390465Y-109680482D01*
X159417286Y-109693143D01*
X159444498Y-109679976D01*
X159461152Y-109632043D01*
X159469480Y-109536703D01*
X159471715Y-109384715D01*
X159469391Y-109230517D01*
X159460932Y-109136142D01*
X159444108Y-109088948D01*
X159417286Y-109076286D01*
X159390075Y-109089454D01*
G36*
X159074834Y-109100862D02*
X159064876Y-109117516D01*
X159034977Y-109138477D01*
X158976615Y-109112207D01*
X158870426Y-109082238D01*
X158764078Y-109107528D01*
X158685393Y-109179445D01*
X158672146Y-109206662D01*
X158651956Y-109296125D01*
X158639309Y-109422118D01*
X158637143Y-109495934D01*
X158640370Y-109610433D01*
X158654288Y-109669769D01*
X158685256Y-109691222D01*
X158709715Y-109693143D01*
X158748915Y-109685826D01*
X158770809Y-109653207D01*
X158780299Y-109579283D01*
X158782286Y-109456147D01*
X158786431Y-109319915D01*
X158801231Y-109240367D01*
X158830238Y-109201967D01*
X158841647Y-109196373D01*
X158926376Y-109189158D01*
X158985030Y-109244669D01*
X159019337Y-109365431D01*
X159028946Y-109470130D01*
X159037904Y-109594215D01*
X159053442Y-109661881D01*
X159081472Y-109689276D01*
X159110589Y-109693143D01*
X159145068Y-109686988D01*
X159166132Y-109659092D01*
X159177030Y-109595312D01*
X159181010Y-109481504D01*
X159181429Y-109384715D01*
X159178812Y-109228571D01*
X159169651Y-109133059D01*
X159151979Y-109086387D01*
X159130024Y-109076286D01*
X159074834Y-109100862D01*
X159074834Y-109100862D01*
G37*
X159074834Y-109100862D02*
X159064876Y-109117516D01*
X159034977Y-109138477D01*
X158976615Y-109112207D01*
X158870426Y-109082238D01*
X158764078Y-109107528D01*
X158685393Y-109179445D01*
X158672146Y-109206662D01*
X158651956Y-109296125D01*
X158639309Y-109422118D01*
X158637143Y-109495934D01*
X158640370Y-109610433D01*
X158654288Y-109669769D01*
X158685256Y-109691222D01*
X158709715Y-109693143D01*
X158748915Y-109685826D01*
X158770809Y-109653207D01*
X158780299Y-109579283D01*
X158782286Y-109456147D01*
X158786431Y-109319915D01*
X158801231Y-109240367D01*
X158830238Y-109201967D01*
X158841647Y-109196373D01*
X158926376Y-109189158D01*
X158985030Y-109244669D01*
X159019337Y-109365431D01*
X159028946Y-109470130D01*
X159037904Y-109594215D01*
X159053442Y-109661881D01*
X159081472Y-109689276D01*
X159110589Y-109693143D01*
X159145068Y-109686988D01*
X159166132Y-109659092D01*
X159177030Y-109595312D01*
X159181010Y-109481504D01*
X159181429Y-109384715D01*
X159178812Y-109228571D01*
X159169651Y-109133059D01*
X159151979Y-109086387D01*
X159130024Y-109076286D01*
X159074834Y-109100862D01*
G36*
X158117208Y-109090997D02*
X158034139Y-109129534D01*
X158003284Y-109183500D01*
X158007122Y-109203175D01*
X158041484Y-109237185D01*
X158094099Y-109220765D01*
X158215228Y-109186746D01*
X158317429Y-109220771D01*
X158369311Y-109277344D01*
X158405153Y-109383552D01*
X158384581Y-109481899D01*
X158321417Y-109556316D01*
X158229481Y-109590730D01*
X158122593Y-109569071D01*
X158119707Y-109567599D01*
X158048549Y-109538328D01*
X158014653Y-109550884D01*
X158007528Y-109565196D01*
X158012930Y-109630604D01*
X158081359Y-109674655D01*
X158205269Y-109692899D01*
X158224481Y-109693143D01*
X158338672Y-109682006D01*
X158415105Y-109639500D01*
X158453081Y-109597536D01*
X158515897Y-109470365D01*
X158522309Y-109337732D01*
X158479419Y-109216793D01*
X158394332Y-109124703D01*
X158274149Y-109078617D01*
X158237264Y-109076286D01*
X158117208Y-109090997D01*
X158117208Y-109090997D01*
G37*
X158117208Y-109090997D02*
X158034139Y-109129534D01*
X158003284Y-109183500D01*
X158007122Y-109203175D01*
X158041484Y-109237185D01*
X158094099Y-109220765D01*
X158215228Y-109186746D01*
X158317429Y-109220771D01*
X158369311Y-109277344D01*
X158405153Y-109383552D01*
X158384581Y-109481899D01*
X158321417Y-109556316D01*
X158229481Y-109590730D01*
X158122593Y-109569071D01*
X158119707Y-109567599D01*
X158048549Y-109538328D01*
X158014653Y-109550884D01*
X158007528Y-109565196D01*
X158012930Y-109630604D01*
X158081359Y-109674655D01*
X158205269Y-109692899D01*
X158224481Y-109693143D01*
X158338672Y-109682006D01*
X158415105Y-109639500D01*
X158453081Y-109597536D01*
X158515897Y-109470365D01*
X158522309Y-109337732D01*
X158479419Y-109216793D01*
X158394332Y-109124703D01*
X158274149Y-109078617D01*
X158237264Y-109076286D01*
X158117208Y-109090997D01*
G36*
X157404247Y-109082091D02*
X157382667Y-109109024D01*
X157371573Y-109171358D01*
X157367564Y-109283370D01*
X157367143Y-109380814D01*
X157367143Y-109685343D01*
X157584571Y-109688403D01*
X157710584Y-109686546D01*
X157786350Y-109672034D01*
X157833949Y-109638151D01*
X157858628Y-109605038D01*
X157892836Y-109516328D01*
X157908225Y-109399233D01*
X157906010Y-109275747D01*
X157887407Y-109167864D01*
X157853630Y-109097578D01*
X157829786Y-109083050D01*
X157795395Y-109085419D01*
X157776125Y-109118815D01*
X157767823Y-109197925D01*
X157766286Y-109307680D01*
X157754422Y-109472433D01*
X157717925Y-109570394D01*
X157655442Y-109603509D01*
X157576723Y-109579933D01*
X157540071Y-109545085D01*
X157520118Y-109478592D01*
X157512696Y-109363049D01*
X157512286Y-109310867D01*
X157510000Y-109183643D01*
X157499827Y-109112859D01*
X157476794Y-109082439D01*
X157439715Y-109076286D01*
X157404247Y-109082091D01*
X157404247Y-109082091D01*
G37*
X157404247Y-109082091D02*
X157382667Y-109109024D01*
X157371573Y-109171358D01*
X157367564Y-109283370D01*
X157367143Y-109380814D01*
X157367143Y-109685343D01*
X157584571Y-109688403D01*
X157710584Y-109686546D01*
X157786350Y-109672034D01*
X157833949Y-109638151D01*
X157858628Y-109605038D01*
X157892836Y-109516328D01*
X157908225Y-109399233D01*
X157906010Y-109275747D01*
X157887407Y-109167864D01*
X157853630Y-109097578D01*
X157829786Y-109083050D01*
X157795395Y-109085419D01*
X157776125Y-109118815D01*
X157767823Y-109197925D01*
X157766286Y-109307680D01*
X157754422Y-109472433D01*
X157717925Y-109570394D01*
X157655442Y-109603509D01*
X157576723Y-109579933D01*
X157540071Y-109545085D01*
X157520118Y-109478592D01*
X157512696Y-109363049D01*
X157512286Y-109310867D01*
X157510000Y-109183643D01*
X157499827Y-109112859D01*
X157476794Y-109082439D01*
X157439715Y-109076286D01*
X157404247Y-109082091D01*
G36*
X157103732Y-108833199D02*
X157082350Y-108878318D01*
X157076866Y-108976218D01*
X157076858Y-108982420D01*
X157076858Y-109142554D01*
X156974400Y-109103880D01*
X156831383Y-109081503D01*
X156709144Y-109124119D01*
X156620416Y-109226980D01*
X156581379Y-109372261D01*
X156602143Y-109519518D01*
X156665627Y-109627262D01*
X156745225Y-109673120D01*
X156856099Y-109692510D01*
X156964966Y-109683410D01*
X157033315Y-109649601D01*
X157069270Y-109624356D01*
X157076858Y-109649601D01*
X157107175Y-109684947D01*
X157149429Y-109693143D01*
X157180064Y-109688871D01*
X157200608Y-109668038D01*
X157213066Y-109618616D01*
X157219443Y-109528581D01*
X157221544Y-109398192D01*
X157076858Y-109398192D01*
X157051671Y-109511297D01*
X156975929Y-109572353D01*
X156895429Y-109584286D01*
X156806940Y-109568445D01*
X156757543Y-109540743D01*
X156720071Y-109459483D01*
X156720194Y-109353672D01*
X156756266Y-109259803D01*
X156771021Y-109242164D01*
X156862636Y-109190893D01*
X156956070Y-109199797D01*
X157032751Y-109259402D01*
X157074111Y-109360235D01*
X157076858Y-109398192D01*
X157221544Y-109398192D01*
X157221743Y-109385905D01*
X157222001Y-109257715D01*
X157221288Y-109073908D01*
X157217816Y-108950643D01*
X157209579Y-108875893D01*
X157194573Y-108837632D01*
X157170794Y-108823834D01*
X157149429Y-108822286D01*
X157103732Y-108833199D01*
X157103732Y-108833199D01*
G37*
X157103732Y-108833199D02*
X157082350Y-108878318D01*
X157076866Y-108976218D01*
X157076858Y-108982420D01*
X157076858Y-109142554D01*
X156974400Y-109103880D01*
X156831383Y-109081503D01*
X156709144Y-109124119D01*
X156620416Y-109226980D01*
X156581379Y-109372261D01*
X156602143Y-109519518D01*
X156665627Y-109627262D01*
X156745225Y-109673120D01*
X156856099Y-109692510D01*
X156964966Y-109683410D01*
X157033315Y-109649601D01*
X157069270Y-109624356D01*
X157076858Y-109649601D01*
X157107175Y-109684947D01*
X157149429Y-109693143D01*
X157180064Y-109688871D01*
X157200608Y-109668038D01*
X157213066Y-109618616D01*
X157219443Y-109528581D01*
X157221544Y-109398192D01*
X157076858Y-109398192D01*
X157051671Y-109511297D01*
X156975929Y-109572353D01*
X156895429Y-109584286D01*
X156806940Y-109568445D01*
X156757543Y-109540743D01*
X156720071Y-109459483D01*
X156720194Y-109353672D01*
X156756266Y-109259803D01*
X156771021Y-109242164D01*
X156862636Y-109190893D01*
X156956070Y-109199797D01*
X157032751Y-109259402D01*
X157074111Y-109360235D01*
X157076858Y-109398192D01*
X157221544Y-109398192D01*
X157221743Y-109385905D01*
X157222001Y-109257715D01*
X157221288Y-109073908D01*
X157217816Y-108950643D01*
X157209579Y-108875893D01*
X157194573Y-108837632D01*
X157170794Y-108823834D01*
X157149429Y-108822286D01*
X157103732Y-108833199D01*
G36*
X156147085Y-109097902D02*
X156064027Y-109145775D01*
X156060858Y-109148858D01*
X156017923Y-109209387D01*
X155995501Y-109295610D01*
X155988364Y-109429276D01*
X155988286Y-109450791D01*
X155988286Y-109680153D01*
X156199420Y-109685972D01*
X156328505Y-109682069D01*
X156422548Y-109664920D01*
X156453420Y-109648924D01*
X156485338Y-109582743D01*
X156496286Y-109503560D01*
X156495069Y-109499968D01*
X156380022Y-109499968D01*
X156366705Y-109546505D01*
X156354402Y-109562217D01*
X156294280Y-109612804D01*
X156225408Y-109609756D01*
X156167329Y-109583010D01*
X156110423Y-109522864D01*
X156097143Y-109474152D01*
X156125154Y-109419391D01*
X156194854Y-109402211D01*
X156284745Y-109424500D01*
X156333767Y-109453360D01*
X156380022Y-109499968D01*
X156495069Y-109499968D01*
X156464604Y-109410085D01*
X156370967Y-109351945D01*
X156217494Y-109330393D01*
X156203638Y-109330286D01*
X156119032Y-109317315D01*
X156102120Y-109279735D01*
X156151879Y-109221174D01*
X156233411Y-109192803D01*
X156333308Y-109196307D01*
X156424063Y-109202313D01*
X156458758Y-109178903D01*
X156460001Y-109168601D01*
X156429288Y-109113805D01*
X156352025Y-109083021D01*
X156250521Y-109077352D01*
X156147085Y-109097902D01*
X156147085Y-109097902D01*
G37*
X156147085Y-109097902D02*
X156064027Y-109145775D01*
X156060858Y-109148858D01*
X156017923Y-109209387D01*
X155995501Y-109295610D01*
X155988364Y-109429276D01*
X155988286Y-109450791D01*
X155988286Y-109680153D01*
X156199420Y-109685972D01*
X156328505Y-109682069D01*
X156422548Y-109664920D01*
X156453420Y-109648924D01*
X156485338Y-109582743D01*
X156496286Y-109503560D01*
X156495069Y-109499968D01*
X156380022Y-109499968D01*
X156366705Y-109546505D01*
X156354402Y-109562217D01*
X156294280Y-109612804D01*
X156225408Y-109609756D01*
X156167329Y-109583010D01*
X156110423Y-109522864D01*
X156097143Y-109474152D01*
X156125154Y-109419391D01*
X156194854Y-109402211D01*
X156284745Y-109424500D01*
X156333767Y-109453360D01*
X156380022Y-109499968D01*
X156495069Y-109499968D01*
X156464604Y-109410085D01*
X156370967Y-109351945D01*
X156217494Y-109330393D01*
X156203638Y-109330286D01*
X156119032Y-109317315D01*
X156102120Y-109279735D01*
X156151879Y-109221174D01*
X156233411Y-109192803D01*
X156333308Y-109196307D01*
X156424063Y-109202313D01*
X156458758Y-109178903D01*
X156460001Y-109168601D01*
X156429288Y-109113805D01*
X156352025Y-109083021D01*
X156250521Y-109077352D01*
X156147085Y-109097902D01*
G36*
X155708653Y-108926401D02*
X155698001Y-108985572D01*
X155680992Y-109056707D01*
X155625429Y-109076286D01*
X155566327Y-109098975D01*
X155552858Y-109130715D01*
X155583109Y-109175041D01*
X155625429Y-109185143D01*
X155672607Y-109197093D01*
X155693667Y-109245582D01*
X155698001Y-109332672D01*
X155687067Y-109454526D01*
X155658807Y-109549594D01*
X155620029Y-109601348D01*
X155587323Y-109601304D01*
X155557773Y-109610585D01*
X155552858Y-109636573D01*
X155581767Y-109678374D01*
X155648743Y-109694122D01*
X155724160Y-109683923D01*
X155778392Y-109647883D01*
X155784833Y-109635747D01*
X155797329Y-109568237D01*
X155805310Y-109457982D01*
X155806858Y-109381747D01*
X155811879Y-109262404D01*
X155829466Y-109201436D01*
X155861286Y-109185143D01*
X155909565Y-109164947D01*
X155915715Y-109147719D01*
X155886718Y-109103532D01*
X155861286Y-109089408D01*
X155818992Y-109040845D01*
X155806858Y-108981690D01*
X155787222Y-108911646D01*
X155752429Y-108894858D01*
X155708653Y-108926401D01*
X155708653Y-108926401D01*
G37*
X155708653Y-108926401D02*
X155698001Y-108985572D01*
X155680992Y-109056707D01*
X155625429Y-109076286D01*
X155566327Y-109098975D01*
X155552858Y-109130715D01*
X155583109Y-109175041D01*
X155625429Y-109185143D01*
X155672607Y-109197093D01*
X155693667Y-109245582D01*
X155698001Y-109332672D01*
X155687067Y-109454526D01*
X155658807Y-109549594D01*
X155620029Y-109601348D01*
X155587323Y-109601304D01*
X155557773Y-109610585D01*
X155552858Y-109636573D01*
X155581767Y-109678374D01*
X155648743Y-109694122D01*
X155724160Y-109683923D01*
X155778392Y-109647883D01*
X155784833Y-109635747D01*
X155797329Y-109568237D01*
X155805310Y-109457982D01*
X155806858Y-109381747D01*
X155811879Y-109262404D01*
X155829466Y-109201436D01*
X155861286Y-109185143D01*
X155909565Y-109164947D01*
X155915715Y-109147719D01*
X155886718Y-109103532D01*
X155861286Y-109089408D01*
X155818992Y-109040845D01*
X155806858Y-108981690D01*
X155787222Y-108911646D01*
X155752429Y-108894858D01*
X155708653Y-108926401D01*
G36*
X155038819Y-109106792D02*
X154937208Y-109186627D01*
X154874336Y-109298266D01*
X154857515Y-109424184D01*
X154894056Y-109546855D01*
X154947411Y-109614247D01*
X155062750Y-109679195D01*
X155199279Y-109694881D01*
X155329151Y-109661617D01*
X155401390Y-109609162D01*
X155471558Y-109489227D01*
X155481783Y-109367005D01*
X155357112Y-109367005D01*
X155349704Y-109464398D01*
X155297581Y-109546474D01*
X155254289Y-109574716D01*
X155150301Y-109587137D01*
X155050447Y-109533382D01*
X154992430Y-109462947D01*
X154978207Y-109380907D01*
X155014402Y-109292061D01*
X155085852Y-109220683D01*
X155161659Y-109192024D01*
X155258028Y-109209909D01*
X155324866Y-109275206D01*
X155357112Y-109367005D01*
X155481783Y-109367005D01*
X155482452Y-109359012D01*
X155441653Y-109236117D01*
X155356742Y-109138140D01*
X155235298Y-109082683D01*
X155171858Y-109076286D01*
X155038819Y-109106792D01*
X155038819Y-109106792D01*
G37*
X155038819Y-109106792D02*
X154937208Y-109186627D01*
X154874336Y-109298266D01*
X154857515Y-109424184D01*
X154894056Y-109546855D01*
X154947411Y-109614247D01*
X155062750Y-109679195D01*
X155199279Y-109694881D01*
X155329151Y-109661617D01*
X155401390Y-109609162D01*
X155471558Y-109489227D01*
X155481783Y-109367005D01*
X155357112Y-109367005D01*
X155349704Y-109464398D01*
X155297581Y-109546474D01*
X155254289Y-109574716D01*
X155150301Y-109587137D01*
X155050447Y-109533382D01*
X154992430Y-109462947D01*
X154978207Y-109380907D01*
X155014402Y-109292061D01*
X155085852Y-109220683D01*
X155161659Y-109192024D01*
X155258028Y-109209909D01*
X155324866Y-109275206D01*
X155357112Y-109367005D01*
X155481783Y-109367005D01*
X155482452Y-109359012D01*
X155441653Y-109236117D01*
X155356742Y-109138140D01*
X155235298Y-109082683D01*
X155171858Y-109076286D01*
X155038819Y-109106792D01*
G36*
X154615634Y-109099700D02*
X154609429Y-109119829D01*
X154598719Y-109145074D01*
X154565886Y-109119829D01*
X154494281Y-109079114D01*
X154427914Y-109085350D01*
X154392733Y-109134381D01*
X154391715Y-109147719D01*
X154410005Y-109199897D01*
X154441465Y-109200061D01*
X154513317Y-109204287D01*
X154568738Y-109270420D01*
X154602140Y-109388607D01*
X154609429Y-109496164D01*
X154614433Y-109615635D01*
X154631963Y-109676730D01*
X154663858Y-109693143D01*
X154691069Y-109679976D01*
X154707723Y-109632043D01*
X154716052Y-109536703D01*
X154718286Y-109384715D01*
X154715962Y-109230517D01*
X154707504Y-109136142D01*
X154690679Y-109088948D01*
X154663858Y-109076286D01*
X154615634Y-109099700D01*
X154615634Y-109099700D01*
G37*
X154615634Y-109099700D02*
X154609429Y-109119829D01*
X154598719Y-109145074D01*
X154565886Y-109119829D01*
X154494281Y-109079114D01*
X154427914Y-109085350D01*
X154392733Y-109134381D01*
X154391715Y-109147719D01*
X154410005Y-109199897D01*
X154441465Y-109200061D01*
X154513317Y-109204287D01*
X154568738Y-109270420D01*
X154602140Y-109388607D01*
X154609429Y-109496164D01*
X154614433Y-109615635D01*
X154631963Y-109676730D01*
X154663858Y-109693143D01*
X154691069Y-109679976D01*
X154707723Y-109632043D01*
X154716052Y-109536703D01*
X154718286Y-109384715D01*
X154715962Y-109230517D01*
X154707504Y-109136142D01*
X154690679Y-109088948D01*
X154663858Y-109076286D01*
X154615634Y-109099700D01*
G36*
X159363302Y-108845331D02*
X159333500Y-108886534D01*
X159335633Y-108903948D01*
X159380560Y-108950574D01*
X159446724Y-108958719D01*
X159490570Y-108929991D01*
X159492177Y-108871228D01*
X159478249Y-108850592D01*
X159422242Y-108829351D01*
X159363302Y-108845331D01*
X159363302Y-108845331D01*
G37*
X159363302Y-108845331D02*
X159333500Y-108886534D01*
X159335633Y-108903948D01*
X159380560Y-108950574D01*
X159446724Y-108958719D01*
X159490570Y-108929991D01*
X159492177Y-108871228D01*
X159478249Y-108850592D01*
X159422242Y-108829351D01*
X159363302Y-108845331D01*
G36*
X164953389Y-103162098D02*
X164879970Y-103227020D01*
X164791260Y-103355635D01*
X164769888Y-103486404D01*
X164813483Y-103606223D01*
X164919674Y-103701987D01*
X164970473Y-103727097D01*
X165076886Y-103758244D01*
X165163623Y-103745544D01*
X165182225Y-103737729D01*
X165241294Y-103719939D01*
X165301402Y-103731039D01*
X165384305Y-103777796D01*
X165445128Y-103819490D01*
X165589382Y-103922807D01*
X165700442Y-104007426D01*
X165805773Y-104094484D01*
X165833842Y-104118598D01*
X165903894Y-104175563D01*
X166008508Y-104256686D01*
X166112000Y-104334665D01*
X166307867Y-104483138D01*
X166542058Y-104666374D01*
X166774215Y-104851683D01*
X166820880Y-104924291D01*
X166837715Y-105012423D01*
X166850881Y-105114449D01*
X166878003Y-105186640D01*
X166885047Y-105214883D01*
X166875448Y-105259291D01*
X166845234Y-105326829D01*
X166790434Y-105424463D01*
X166707075Y-105559159D01*
X166591185Y-105737882D01*
X166438792Y-105967600D01*
X166397217Y-106029790D01*
X166255548Y-106240422D01*
X166126426Y-106430372D01*
X166015498Y-106591497D01*
X165928408Y-106715658D01*
X165870801Y-106794712D01*
X165848929Y-106820524D01*
X165824032Y-106862297D01*
X165821715Y-106884024D01*
X165806169Y-106930743D01*
X165794500Y-106935970D01*
X165763947Y-106965230D01*
X165709555Y-107041574D01*
X165642879Y-107148730D01*
X165640286Y-107153143D01*
X165573374Y-107261140D01*
X165518311Y-107338936D01*
X165486653Y-107370261D01*
X165486072Y-107370316D01*
X165461502Y-107400169D01*
X165458858Y-107422262D01*
X165442601Y-107476516D01*
X165431643Y-107485762D01*
X165399420Y-107520218D01*
X165340960Y-107599017D01*
X165268846Y-107705187D01*
X165267987Y-107706501D01*
X165184930Y-107824036D01*
X165120168Y-107888935D01*
X165059937Y-107913668D01*
X165037728Y-107915143D01*
X164938323Y-107933875D01*
X164841419Y-107975688D01*
X164753851Y-108064616D01*
X164710839Y-108185914D01*
X164715343Y-108314259D01*
X164770328Y-108424329D01*
X164786945Y-108441286D01*
X164875430Y-108505816D01*
X164968502Y-108549666D01*
X165047010Y-108566951D01*
X165091803Y-108551790D01*
X165096001Y-108536233D01*
X165126093Y-108501994D01*
X165165463Y-108486014D01*
X165251657Y-108429181D01*
X165305315Y-108324451D01*
X165318801Y-108192096D01*
X165305905Y-108113262D01*
X165289210Y-108037133D01*
X165291057Y-107974715D01*
X165317955Y-107905579D01*
X165376412Y-107809300D01*
X165426841Y-107733715D01*
X165505291Y-107620739D01*
X165569924Y-107533836D01*
X165609039Y-107488587D01*
X165613072Y-107485762D01*
X165637969Y-107443990D01*
X165640286Y-107422262D01*
X165655832Y-107375544D01*
X165667501Y-107370316D01*
X165698054Y-107341056D01*
X165752446Y-107264713D01*
X165819122Y-107157557D01*
X165821715Y-107153143D01*
X165888627Y-107045147D01*
X165943690Y-106967350D01*
X165975348Y-106936026D01*
X165975929Y-106935970D01*
X166000499Y-106906117D01*
X166003143Y-106884024D01*
X166019400Y-106829771D01*
X166030358Y-106820524D01*
X166057585Y-106787978D01*
X166118437Y-106703737D01*
X166206708Y-106576769D01*
X166316192Y-106416043D01*
X166440683Y-106230527D01*
X166490707Y-106155286D01*
X166652867Y-105911445D01*
X166780865Y-105721602D01*
X166880268Y-105579024D01*
X166956640Y-105476980D01*
X167015550Y-105408736D01*
X167062562Y-105367560D01*
X167103245Y-105346719D01*
X167143163Y-105339481D01*
X167165718Y-105338858D01*
X167300588Y-105306437D01*
X167400866Y-105219337D01*
X167451385Y-105092802D01*
X167454572Y-105048530D01*
X167424258Y-104901366D01*
X167339819Y-104796142D01*
X167211005Y-104740357D01*
X167053851Y-104740410D01*
X166994980Y-104747236D01*
X166939648Y-104742143D01*
X166877489Y-104719256D01*
X166798138Y-104672703D01*
X166691227Y-104596612D01*
X166546393Y-104485108D01*
X166402286Y-104371250D01*
X166316583Y-104303956D01*
X166190098Y-104205523D01*
X166039650Y-104088955D01*
X165882057Y-103967258D01*
X165734139Y-103853436D01*
X165612713Y-103760495D01*
X165594914Y-103746945D01*
X165484959Y-103659597D01*
X165422112Y-103595024D01*
X165393519Y-103535124D01*
X165386324Y-103461792D01*
X165386286Y-103453140D01*
X165355618Y-103303724D01*
X165267778Y-103196573D01*
X165129015Y-103139074D01*
X165119128Y-103137352D01*
X165026121Y-103132165D01*
X164953389Y-103162098D01*
X164953389Y-103162098D01*
G37*
X164953389Y-103162098D02*
X164879970Y-103227020D01*
X164791260Y-103355635D01*
X164769888Y-103486404D01*
X164813483Y-103606223D01*
X164919674Y-103701987D01*
X164970473Y-103727097D01*
X165076886Y-103758244D01*
X165163623Y-103745544D01*
X165182225Y-103737729D01*
X165241294Y-103719939D01*
X165301402Y-103731039D01*
X165384305Y-103777796D01*
X165445128Y-103819490D01*
X165589382Y-103922807D01*
X165700442Y-104007426D01*
X165805773Y-104094484D01*
X165833842Y-104118598D01*
X165903894Y-104175563D01*
X166008508Y-104256686D01*
X166112000Y-104334665D01*
X166307867Y-104483138D01*
X166542058Y-104666374D01*
X166774215Y-104851683D01*
X166820880Y-104924291D01*
X166837715Y-105012423D01*
X166850881Y-105114449D01*
X166878003Y-105186640D01*
X166885047Y-105214883D01*
X166875448Y-105259291D01*
X166845234Y-105326829D01*
X166790434Y-105424463D01*
X166707075Y-105559159D01*
X166591185Y-105737882D01*
X166438792Y-105967600D01*
X166397217Y-106029790D01*
X166255548Y-106240422D01*
X166126426Y-106430372D01*
X166015498Y-106591497D01*
X165928408Y-106715658D01*
X165870801Y-106794712D01*
X165848929Y-106820524D01*
X165824032Y-106862297D01*
X165821715Y-106884024D01*
X165806169Y-106930743D01*
X165794500Y-106935970D01*
X165763947Y-106965230D01*
X165709555Y-107041574D01*
X165642879Y-107148730D01*
X165640286Y-107153143D01*
X165573374Y-107261140D01*
X165518311Y-107338936D01*
X165486653Y-107370261D01*
X165486072Y-107370316D01*
X165461502Y-107400169D01*
X165458858Y-107422262D01*
X165442601Y-107476516D01*
X165431643Y-107485762D01*
X165399420Y-107520218D01*
X165340960Y-107599017D01*
X165268846Y-107705187D01*
X165267987Y-107706501D01*
X165184930Y-107824036D01*
X165120168Y-107888935D01*
X165059937Y-107913668D01*
X165037728Y-107915143D01*
X164938323Y-107933875D01*
X164841419Y-107975688D01*
X164753851Y-108064616D01*
X164710839Y-108185914D01*
X164715343Y-108314259D01*
X164770328Y-108424329D01*
X164786945Y-108441286D01*
X164875430Y-108505816D01*
X164968502Y-108549666D01*
X165047010Y-108566951D01*
X165091803Y-108551790D01*
X165096001Y-108536233D01*
X165126093Y-108501994D01*
X165165463Y-108486014D01*
X165251657Y-108429181D01*
X165305315Y-108324451D01*
X165318801Y-108192096D01*
X165305905Y-108113262D01*
X165289210Y-108037133D01*
X165291057Y-107974715D01*
X165317955Y-107905579D01*
X165376412Y-107809300D01*
X165426841Y-107733715D01*
X165505291Y-107620739D01*
X165569924Y-107533836D01*
X165609039Y-107488587D01*
X165613072Y-107485762D01*
X165637969Y-107443990D01*
X165640286Y-107422262D01*
X165655832Y-107375544D01*
X165667501Y-107370316D01*
X165698054Y-107341056D01*
X165752446Y-107264713D01*
X165819122Y-107157557D01*
X165821715Y-107153143D01*
X165888627Y-107045147D01*
X165943690Y-106967350D01*
X165975348Y-106936026D01*
X165975929Y-106935970D01*
X166000499Y-106906117D01*
X166003143Y-106884024D01*
X166019400Y-106829771D01*
X166030358Y-106820524D01*
X166057585Y-106787978D01*
X166118437Y-106703737D01*
X166206708Y-106576769D01*
X166316192Y-106416043D01*
X166440683Y-106230527D01*
X166490707Y-106155286D01*
X166652867Y-105911445D01*
X166780865Y-105721602D01*
X166880268Y-105579024D01*
X166956640Y-105476980D01*
X167015550Y-105408736D01*
X167062562Y-105367560D01*
X167103245Y-105346719D01*
X167143163Y-105339481D01*
X167165718Y-105338858D01*
X167300588Y-105306437D01*
X167400866Y-105219337D01*
X167451385Y-105092802D01*
X167454572Y-105048530D01*
X167424258Y-104901366D01*
X167339819Y-104796142D01*
X167211005Y-104740357D01*
X167053851Y-104740410D01*
X166994980Y-104747236D01*
X166939648Y-104742143D01*
X166877489Y-104719256D01*
X166798138Y-104672703D01*
X166691227Y-104596612D01*
X166546393Y-104485108D01*
X166402286Y-104371250D01*
X166316583Y-104303956D01*
X166190098Y-104205523D01*
X166039650Y-104088955D01*
X165882057Y-103967258D01*
X165734139Y-103853436D01*
X165612713Y-103760495D01*
X165594914Y-103746945D01*
X165484959Y-103659597D01*
X165422112Y-103595024D01*
X165393519Y-103535124D01*
X165386324Y-103461792D01*
X165386286Y-103453140D01*
X165355618Y-103303724D01*
X165267778Y-103196573D01*
X165129015Y-103139074D01*
X165119128Y-103137352D01*
X165026121Y-103132165D01*
X164953389Y-103162098D01*
G36*
X167311291Y-107545325D02*
X167237465Y-107580784D01*
X167178760Y-107643514D01*
X167105332Y-107775350D01*
X167103809Y-107898813D01*
X167174265Y-108015873D01*
X167193486Y-108035355D01*
X167318153Y-108112509D01*
X167457424Y-108132739D01*
X167588380Y-108094572D01*
X167632194Y-108063588D01*
X167713540Y-107950175D01*
X167735132Y-107817048D01*
X167695185Y-107687031D01*
X167664965Y-107644881D01*
X167584095Y-107573553D01*
X167484986Y-107543493D01*
X167421541Y-107539263D01*
X167311291Y-107545325D01*
X167311291Y-107545325D01*
G37*
X167311291Y-107545325D02*
X167237465Y-107580784D01*
X167178760Y-107643514D01*
X167105332Y-107775350D01*
X167103809Y-107898813D01*
X167174265Y-108015873D01*
X167193486Y-108035355D01*
X167318153Y-108112509D01*
X167457424Y-108132739D01*
X167588380Y-108094572D01*
X167632194Y-108063588D01*
X167713540Y-107950175D01*
X167735132Y-107817048D01*
X167695185Y-107687031D01*
X167664965Y-107644881D01*
X167584095Y-107573553D01*
X167484986Y-107543493D01*
X167421541Y-107539263D01*
X167311291Y-107545325D01*
G36*
X162688795Y-104530867D02*
X162564911Y-104542461D01*
X162463525Y-104567745D01*
X162359674Y-104611240D01*
X162333996Y-104623712D01*
X162141782Y-104751288D01*
X162002103Y-104920715D01*
X161912603Y-105136540D01*
X161870926Y-105403310D01*
X161867118Y-105524796D01*
X161888374Y-105811052D01*
X161955461Y-106045147D01*
X162071498Y-106233591D01*
X162239603Y-106382893D01*
X162294802Y-106417618D01*
X162383411Y-106464800D01*
X162468777Y-106495256D01*
X162571921Y-106513311D01*
X162713866Y-106523290D01*
X162827645Y-106527236D01*
X163028918Y-106528649D01*
X163174128Y-106518602D01*
X163279096Y-106495602D01*
X163316394Y-106481091D01*
X163529533Y-106355414D01*
X163686929Y-106191795D01*
X163754676Y-106080290D01*
X163796084Y-105991091D01*
X163822477Y-105904429D01*
X163837101Y-105800072D01*
X163843203Y-105657786D01*
X163844143Y-105522812D01*
X163843463Y-105468156D01*
X163388918Y-105468156D01*
X163382505Y-105667813D01*
X163339044Y-105853279D01*
X163258314Y-106005602D01*
X163200815Y-106066018D01*
X163132935Y-106105901D01*
X163036767Y-106127400D01*
X162892025Y-106134664D01*
X162864429Y-106134782D01*
X162722732Y-106128559D01*
X162610563Y-106111957D01*
X162553274Y-106090632D01*
X162445949Y-105964409D01*
X162376159Y-105788814D01*
X162347238Y-105578484D01*
X162362520Y-105348055D01*
X162372198Y-105295863D01*
X162422004Y-105127887D01*
X162497034Y-105016269D01*
X162609843Y-104951532D01*
X162772982Y-104924196D01*
X162867924Y-104921572D01*
X163048691Y-104930755D01*
X163162367Y-104958044D01*
X163188076Y-104973573D01*
X163291482Y-105102083D01*
X163358503Y-105273261D01*
X163388918Y-105468156D01*
X163843463Y-105468156D01*
X163841850Y-105338666D01*
X163833103Y-105208090D01*
X163815101Y-105112171D01*
X163785042Y-105032001D01*
X163765824Y-104994143D01*
X163640159Y-104806441D01*
X163489134Y-104671541D01*
X163302172Y-104584006D01*
X163068698Y-104538398D01*
X162860139Y-104528444D01*
X162688795Y-104530867D01*
X162688795Y-104530867D01*
G37*
X162688795Y-104530867D02*
X162564911Y-104542461D01*
X162463525Y-104567745D01*
X162359674Y-104611240D01*
X162333996Y-104623712D01*
X162141782Y-104751288D01*
X162002103Y-104920715D01*
X161912603Y-105136540D01*
X161870926Y-105403310D01*
X161867118Y-105524796D01*
X161888374Y-105811052D01*
X161955461Y-106045147D01*
X162071498Y-106233591D01*
X162239603Y-106382893D01*
X162294802Y-106417618D01*
X162383411Y-106464800D01*
X162468777Y-106495256D01*
X162571921Y-106513311D01*
X162713866Y-106523290D01*
X162827645Y-106527236D01*
X163028918Y-106528649D01*
X163174128Y-106518602D01*
X163279096Y-106495602D01*
X163316394Y-106481091D01*
X163529533Y-106355414D01*
X163686929Y-106191795D01*
X163754676Y-106080290D01*
X163796084Y-105991091D01*
X163822477Y-105904429D01*
X163837101Y-105800072D01*
X163843203Y-105657786D01*
X163844143Y-105522812D01*
X163843463Y-105468156D01*
X163388918Y-105468156D01*
X163382505Y-105667813D01*
X163339044Y-105853279D01*
X163258314Y-106005602D01*
X163200815Y-106066018D01*
X163132935Y-106105901D01*
X163036767Y-106127400D01*
X162892025Y-106134664D01*
X162864429Y-106134782D01*
X162722732Y-106128559D01*
X162610563Y-106111957D01*
X162553274Y-106090632D01*
X162445949Y-105964409D01*
X162376159Y-105788814D01*
X162347238Y-105578484D01*
X162362520Y-105348055D01*
X162372198Y-105295863D01*
X162422004Y-105127887D01*
X162497034Y-105016269D01*
X162609843Y-104951532D01*
X162772982Y-104924196D01*
X162867924Y-104921572D01*
X163048691Y-104930755D01*
X163162367Y-104958044D01*
X163188076Y-104973573D01*
X163291482Y-105102083D01*
X163358503Y-105273261D01*
X163388918Y-105468156D01*
X163843463Y-105468156D01*
X163841850Y-105338666D01*
X163833103Y-105208090D01*
X163815101Y-105112171D01*
X163785042Y-105032001D01*
X163765824Y-104994143D01*
X163640159Y-104806441D01*
X163489134Y-104671541D01*
X163302172Y-104584006D01*
X163068698Y-104538398D01*
X162860139Y-104528444D01*
X162688795Y-104530867D01*
G36*
X160310848Y-104520843D02*
X160288143Y-104523283D01*
X160085759Y-104556450D01*
X159945663Y-104602997D01*
X159857777Y-104670880D01*
X159812019Y-104768059D01*
X159798311Y-104902490D01*
X159798286Y-104910021D01*
X159804554Y-104985785D01*
X159837145Y-105007167D01*
X159898072Y-104996713D01*
X160190311Y-104936122D01*
X160425723Y-104910113D01*
X160611410Y-104918928D01*
X160754478Y-104962809D01*
X160849190Y-105029105D01*
X160938693Y-105158320D01*
X160990327Y-105325290D01*
X161005698Y-105512207D01*
X160986409Y-105701262D01*
X160934064Y-105874646D01*
X160850267Y-106014551D01*
X160753172Y-106095099D01*
X160673491Y-106116469D01*
X160544716Y-106130071D01*
X160389563Y-106135837D01*
X160230748Y-106133695D01*
X160090988Y-106123576D01*
X159992999Y-106105411D01*
X159973434Y-106097496D01*
X159897032Y-106078358D01*
X159847637Y-106120299D01*
X159822780Y-106226676D01*
X159818740Y-106307847D01*
X159816429Y-106479545D01*
X159961572Y-106505824D01*
X160120160Y-106524583D01*
X160312342Y-106532617D01*
X160515887Y-106530556D01*
X160708563Y-106519028D01*
X160868140Y-106498663D01*
X160953329Y-106477758D01*
X161155481Y-106373737D01*
X161312037Y-106216541D01*
X161399285Y-106069449D01*
X161437511Y-105978798D01*
X161461480Y-105885566D01*
X161474108Y-105769468D01*
X161478311Y-105610221D01*
X161478238Y-105520286D01*
X161465423Y-105256975D01*
X161426465Y-105050242D01*
X161355720Y-104887049D01*
X161247542Y-104754357D01*
X161096875Y-104639501D01*
X160990944Y-104595111D01*
X160835954Y-104557684D01*
X160655326Y-104530587D01*
X160472484Y-104517185D01*
X160310848Y-104520843D01*
X160310848Y-104520843D01*
G37*
X160310848Y-104520843D02*
X160288143Y-104523283D01*
X160085759Y-104556450D01*
X159945663Y-104602997D01*
X159857777Y-104670880D01*
X159812019Y-104768059D01*
X159798311Y-104902490D01*
X159798286Y-104910021D01*
X159804554Y-104985785D01*
X159837145Y-105007167D01*
X159898072Y-104996713D01*
X160190311Y-104936122D01*
X160425723Y-104910113D01*
X160611410Y-104918928D01*
X160754478Y-104962809D01*
X160849190Y-105029105D01*
X160938693Y-105158320D01*
X160990327Y-105325290D01*
X161005698Y-105512207D01*
X160986409Y-105701262D01*
X160934064Y-105874646D01*
X160850267Y-106014551D01*
X160753172Y-106095099D01*
X160673491Y-106116469D01*
X160544716Y-106130071D01*
X160389563Y-106135837D01*
X160230748Y-106133695D01*
X160090988Y-106123576D01*
X159992999Y-106105411D01*
X159973434Y-106097496D01*
X159897032Y-106078358D01*
X159847637Y-106120299D01*
X159822780Y-106226676D01*
X159818740Y-106307847D01*
X159816429Y-106479545D01*
X159961572Y-106505824D01*
X160120160Y-106524583D01*
X160312342Y-106532617D01*
X160515887Y-106530556D01*
X160708563Y-106519028D01*
X160868140Y-106498663D01*
X160953329Y-106477758D01*
X161155481Y-106373737D01*
X161312037Y-106216541D01*
X161399285Y-106069449D01*
X161437511Y-105978798D01*
X161461480Y-105885566D01*
X161474108Y-105769468D01*
X161478311Y-105610221D01*
X161478238Y-105520286D01*
X161465423Y-105256975D01*
X161426465Y-105050242D01*
X161355720Y-104887049D01*
X161247542Y-104754357D01*
X161096875Y-104639501D01*
X160990944Y-104595111D01*
X160835954Y-104557684D01*
X160655326Y-104530587D01*
X160472484Y-104517185D01*
X160310848Y-104520843D01*
G36*
X158739907Y-103788081D02*
X158679961Y-103809696D01*
X158671547Y-103823929D01*
X158669945Y-103878793D01*
X158667261Y-103986888D01*
X158663968Y-104128891D01*
X158662476Y-104195858D01*
X158655286Y-104522429D01*
X158445039Y-104533359D01*
X158323514Y-104543235D01*
X158254143Y-104562483D01*
X158216512Y-104599617D01*
X158200110Y-104635507D01*
X158173371Y-104744101D01*
X158165429Y-104831562D01*
X158168344Y-104887184D01*
X158187826Y-104919388D01*
X158239981Y-104935774D01*
X158340914Y-104943942D01*
X158410358Y-104947128D01*
X158655286Y-104957858D01*
X158654635Y-105411429D01*
X158649894Y-105638522D01*
X158637101Y-105826239D01*
X158617354Y-105961117D01*
X158606464Y-106001072D01*
X158575331Y-106079997D01*
X158538334Y-106120371D01*
X158472682Y-106135112D01*
X158366419Y-106137143D01*
X158243501Y-106145207D01*
X158172187Y-106179370D01*
X158138812Y-106254589D01*
X158129714Y-106385820D01*
X158129639Y-106396333D01*
X158138835Y-106461376D01*
X158175571Y-106502872D01*
X158252353Y-106525713D01*
X158381684Y-106534790D01*
X158485897Y-106535675D01*
X158650631Y-106527115D01*
X158768918Y-106498987D01*
X158843606Y-106460921D01*
X158929059Y-106383158D01*
X159012446Y-106271456D01*
X159043177Y-106216603D01*
X159076299Y-106142166D01*
X159100062Y-106065224D01*
X159116413Y-105971145D01*
X159127303Y-105845298D01*
X159134678Y-105673052D01*
X159139295Y-105494856D01*
X159151589Y-104943284D01*
X159337666Y-104932428D01*
X159447578Y-104923239D01*
X159506756Y-104902501D01*
X159536965Y-104855513D01*
X159555868Y-104785053D01*
X159576310Y-104660629D01*
X159558191Y-104586659D01*
X159490895Y-104550784D01*
X159363807Y-104540646D01*
X159345854Y-104540572D01*
X159145143Y-104540572D01*
X159145143Y-104181947D01*
X159144192Y-104017714D01*
X159139315Y-103911898D01*
X159127476Y-103850349D01*
X159105639Y-103818918D01*
X159070768Y-103803454D01*
X159063500Y-103801442D01*
X158954011Y-103782673D01*
X158838702Y-103778647D01*
X158739907Y-103788081D01*
X158739907Y-103788081D01*
G37*
X158739907Y-103788081D02*
X158679961Y-103809696D01*
X158671547Y-103823929D01*
X158669945Y-103878793D01*
X158667261Y-103986888D01*
X158663968Y-104128891D01*
X158662476Y-104195858D01*
X158655286Y-104522429D01*
X158445039Y-104533359D01*
X158323514Y-104543235D01*
X158254143Y-104562483D01*
X158216512Y-104599617D01*
X158200110Y-104635507D01*
X158173371Y-104744101D01*
X158165429Y-104831562D01*
X158168344Y-104887184D01*
X158187826Y-104919388D01*
X158239981Y-104935774D01*
X158340914Y-104943942D01*
X158410358Y-104947128D01*
X158655286Y-104957858D01*
X158654635Y-105411429D01*
X158649894Y-105638522D01*
X158637101Y-105826239D01*
X158617354Y-105961117D01*
X158606464Y-106001072D01*
X158575331Y-106079997D01*
X158538334Y-106120371D01*
X158472682Y-106135112D01*
X158366419Y-106137143D01*
X158243501Y-106145207D01*
X158172187Y-106179370D01*
X158138812Y-106254589D01*
X158129714Y-106385820D01*
X158129639Y-106396333D01*
X158138835Y-106461376D01*
X158175571Y-106502872D01*
X158252353Y-106525713D01*
X158381684Y-106534790D01*
X158485897Y-106535675D01*
X158650631Y-106527115D01*
X158768918Y-106498987D01*
X158843606Y-106460921D01*
X158929059Y-106383158D01*
X159012446Y-106271456D01*
X159043177Y-106216603D01*
X159076299Y-106142166D01*
X159100062Y-106065224D01*
X159116413Y-105971145D01*
X159127303Y-105845298D01*
X159134678Y-105673052D01*
X159139295Y-105494856D01*
X159151589Y-104943284D01*
X159337666Y-104932428D01*
X159447578Y-104923239D01*
X159506756Y-104902501D01*
X159536965Y-104855513D01*
X159555868Y-104785053D01*
X159576310Y-104660629D01*
X159558191Y-104586659D01*
X159490895Y-104550784D01*
X159363807Y-104540646D01*
X159345854Y-104540572D01*
X159145143Y-104540572D01*
X159145143Y-104181947D01*
X159144192Y-104017714D01*
X159139315Y-103911898D01*
X159127476Y-103850349D01*
X159105639Y-103818918D01*
X159070768Y-103803454D01*
X159063500Y-103801442D01*
X158954011Y-103782673D01*
X158838702Y-103778647D01*
X158739907Y-103788081D01*
G36*
X156830046Y-104529736D02*
X156621901Y-104555096D01*
X156459101Y-104604436D01*
X156311880Y-104685794D01*
X156209106Y-104782753D01*
X156123423Y-104921457D01*
X156119662Y-104928841D01*
X156098792Y-104981951D01*
X156083324Y-105054208D01*
X156072528Y-105156089D01*
X156065673Y-105298073D01*
X156062029Y-105490637D01*
X156060866Y-105744260D01*
X156060858Y-105772484D01*
X156060858Y-106500000D01*
X156276769Y-106500000D01*
X156413299Y-106493747D01*
X156492595Y-106472750D01*
X156524931Y-106442372D01*
X156552121Y-106410246D01*
X156594225Y-106410916D01*
X156672275Y-106446579D01*
X156698553Y-106460515D01*
X156807589Y-106506061D01*
X156933023Y-106527943D01*
X157094463Y-106531345D01*
X157235684Y-106526600D01*
X157357794Y-106518987D01*
X157431948Y-106510507D01*
X157537264Y-106461787D01*
X157650045Y-106365725D01*
X157751557Y-106242659D01*
X157823070Y-106112926D01*
X157837375Y-106070344D01*
X157856142Y-105970529D01*
X157349996Y-105970529D01*
X157332680Y-106041636D01*
X157308806Y-106091839D01*
X157272909Y-106120448D01*
X157206707Y-106133501D01*
X157091914Y-106137036D01*
X157043493Y-106137143D01*
X156899406Y-106133168D01*
X156805117Y-106117658D01*
X156738112Y-106085235D01*
X156701722Y-106055500D01*
X156639125Y-105978813D01*
X156586931Y-105883019D01*
X156555399Y-105792143D01*
X156554786Y-105730206D01*
X156559725Y-105722942D01*
X156610455Y-105708738D01*
X156712519Y-105701894D01*
X156845134Y-105701658D01*
X156987517Y-105707278D01*
X157118885Y-105718001D01*
X157218456Y-105733076D01*
X157262077Y-105748365D01*
X157334433Y-105845486D01*
X157349996Y-105970529D01*
X157856142Y-105970529D01*
X157860325Y-105948283D01*
X157850584Y-105839584D01*
X157823799Y-105748721D01*
X157742846Y-105583173D01*
X157623169Y-105459148D01*
X157457964Y-105373322D01*
X157240428Y-105322371D01*
X156963757Y-105302971D01*
X156910564Y-105302572D01*
X156725306Y-105300051D01*
X156604961Y-105288481D01*
X156541934Y-105261851D01*
X156528630Y-105214152D01*
X156557456Y-105139373D01*
X156603548Y-105059612D01*
X156681681Y-104975344D01*
X156796366Y-104925627D01*
X156953982Y-104910127D01*
X157160908Y-104928508D01*
X157423524Y-104980436D01*
X157544289Y-105010189D01*
X157641681Y-105032356D01*
X157704300Y-105041170D01*
X157714772Y-105039610D01*
X157716707Y-105000313D01*
X157708927Y-104912771D01*
X157700800Y-104850206D01*
X157683577Y-104749520D01*
X157656124Y-104689372D01*
X157599933Y-104649291D01*
X157496493Y-104608811D01*
X157475889Y-104601485D01*
X157281405Y-104552860D01*
X157058002Y-104528967D01*
X156830046Y-104529736D01*
X156830046Y-104529736D01*
G37*
X156830046Y-104529736D02*
X156621901Y-104555096D01*
X156459101Y-104604436D01*
X156311880Y-104685794D01*
X156209106Y-104782753D01*
X156123423Y-104921457D01*
X156119662Y-104928841D01*
X156098792Y-104981951D01*
X156083324Y-105054208D01*
X156072528Y-105156089D01*
X156065673Y-105298073D01*
X156062029Y-105490637D01*
X156060866Y-105744260D01*
X156060858Y-105772484D01*
X156060858Y-106500000D01*
X156276769Y-106500000D01*
X156413299Y-106493747D01*
X156492595Y-106472750D01*
X156524931Y-106442372D01*
X156552121Y-106410246D01*
X156594225Y-106410916D01*
X156672275Y-106446579D01*
X156698553Y-106460515D01*
X156807589Y-106506061D01*
X156933023Y-106527943D01*
X157094463Y-106531345D01*
X157235684Y-106526600D01*
X157357794Y-106518987D01*
X157431948Y-106510507D01*
X157537264Y-106461787D01*
X157650045Y-106365725D01*
X157751557Y-106242659D01*
X157823070Y-106112926D01*
X157837375Y-106070344D01*
X157856142Y-105970529D01*
X157349996Y-105970529D01*
X157332680Y-106041636D01*
X157308806Y-106091839D01*
X157272909Y-106120448D01*
X157206707Y-106133501D01*
X157091914Y-106137036D01*
X157043493Y-106137143D01*
X156899406Y-106133168D01*
X156805117Y-106117658D01*
X156738112Y-106085235D01*
X156701722Y-106055500D01*
X156639125Y-105978813D01*
X156586931Y-105883019D01*
X156555399Y-105792143D01*
X156554786Y-105730206D01*
X156559725Y-105722942D01*
X156610455Y-105708738D01*
X156712519Y-105701894D01*
X156845134Y-105701658D01*
X156987517Y-105707278D01*
X157118885Y-105718001D01*
X157218456Y-105733076D01*
X157262077Y-105748365D01*
X157334433Y-105845486D01*
X157349996Y-105970529D01*
X157856142Y-105970529D01*
X157860325Y-105948283D01*
X157850584Y-105839584D01*
X157823799Y-105748721D01*
X157742846Y-105583173D01*
X157623169Y-105459148D01*
X157457964Y-105373322D01*
X157240428Y-105322371D01*
X156963757Y-105302971D01*
X156910564Y-105302572D01*
X156725306Y-105300051D01*
X156604961Y-105288481D01*
X156541934Y-105261851D01*
X156528630Y-105214152D01*
X156557456Y-105139373D01*
X156603548Y-105059612D01*
X156681681Y-104975344D01*
X156796366Y-104925627D01*
X156953982Y-104910127D01*
X157160908Y-104928508D01*
X157423524Y-104980436D01*
X157544289Y-105010189D01*
X157641681Y-105032356D01*
X157704300Y-105041170D01*
X157714772Y-105039610D01*
X157716707Y-105000313D01*
X157708927Y-104912771D01*
X157700800Y-104850206D01*
X157683577Y-104749520D01*
X157656124Y-104689372D01*
X157599933Y-104649291D01*
X157496493Y-104608811D01*
X157475889Y-104601485D01*
X157281405Y-104552860D01*
X157058002Y-104528967D01*
X156830046Y-104529736D01*
G36*
X151215539Y-104529836D02*
X151052306Y-104538551D01*
X150924892Y-104550571D01*
X150906138Y-104553259D01*
X150807736Y-104572016D01*
X150754274Y-104602184D01*
X150725062Y-104664779D01*
X150703959Y-104758602D01*
X150688318Y-104865071D01*
X150690177Y-104934099D01*
X150699157Y-104948624D01*
X150747535Y-104949910D01*
X150849618Y-104944279D01*
X150986990Y-104932884D01*
X151051604Y-104926572D01*
X151214536Y-104914264D01*
X151365994Y-104910289D01*
X151479757Y-104915119D01*
X151503055Y-104918438D01*
X151590750Y-104942415D01*
X151627281Y-104983511D01*
X151634001Y-105050688D01*
X151622438Y-105112176D01*
X151581335Y-105165995D01*
X151501065Y-105217985D01*
X151372003Y-105273987D01*
X151184523Y-105339845D01*
X151126000Y-105358986D01*
X151014891Y-105397549D01*
X150934874Y-105430145D01*
X150908286Y-105445569D01*
X150867504Y-105478769D01*
X150793932Y-105528744D01*
X150790824Y-105530726D01*
X150690660Y-105627302D01*
X150606491Y-105765842D01*
X150554486Y-105915738D01*
X150545429Y-105995343D01*
X150576722Y-106139764D01*
X150661130Y-106287719D01*
X150784444Y-106415642D01*
X150810875Y-106435579D01*
X150873075Y-106473563D01*
X150943303Y-106498436D01*
X151039059Y-106513336D01*
X151177844Y-106521403D01*
X151307245Y-106524615D01*
X151473495Y-106526007D01*
X151618308Y-106524170D01*
X151722659Y-106519514D01*
X151761001Y-106514898D01*
X151843793Y-106493318D01*
X151952512Y-106462134D01*
X151969643Y-106456989D01*
X152050650Y-106428554D01*
X152090744Y-106392014D01*
X152104305Y-106324054D01*
X152105715Y-106236381D01*
X152105715Y-106056949D01*
X151951501Y-106080561D01*
X151845662Y-106093172D01*
X151693426Y-106106870D01*
X151520887Y-106119418D01*
X151445033Y-106124010D01*
X151092780Y-106143848D01*
X151067634Y-106043659D01*
X151065018Y-105963030D01*
X151106829Y-105894550D01*
X151200786Y-105832295D01*
X151354608Y-105770339D01*
X151472737Y-105732675D01*
X151600188Y-105690899D01*
X151695245Y-105653086D01*
X151741058Y-105626125D01*
X151742858Y-105622200D01*
X151771729Y-105594107D01*
X151788215Y-105591650D01*
X151848322Y-105569054D01*
X151908889Y-105527456D01*
X152029507Y-105394674D01*
X152093879Y-105237017D01*
X152110751Y-105073897D01*
X152092116Y-104880071D01*
X152027983Y-104732115D01*
X151913819Y-104626614D01*
X151745091Y-104560150D01*
X151517266Y-104529306D01*
X151384050Y-104526156D01*
X151215539Y-104529836D01*
X151215539Y-104529836D01*
G37*
X151215539Y-104529836D02*
X151052306Y-104538551D01*
X150924892Y-104550571D01*
X150906138Y-104553259D01*
X150807736Y-104572016D01*
X150754274Y-104602184D01*
X150725062Y-104664779D01*
X150703959Y-104758602D01*
X150688318Y-104865071D01*
X150690177Y-104934099D01*
X150699157Y-104948624D01*
X150747535Y-104949910D01*
X150849618Y-104944279D01*
X150986990Y-104932884D01*
X151051604Y-104926572D01*
X151214536Y-104914264D01*
X151365994Y-104910289D01*
X151479757Y-104915119D01*
X151503055Y-104918438D01*
X151590750Y-104942415D01*
X151627281Y-104983511D01*
X151634001Y-105050688D01*
X151622438Y-105112176D01*
X151581335Y-105165995D01*
X151501065Y-105217985D01*
X151372003Y-105273987D01*
X151184523Y-105339845D01*
X151126000Y-105358986D01*
X151014891Y-105397549D01*
X150934874Y-105430145D01*
X150908286Y-105445569D01*
X150867504Y-105478769D01*
X150793932Y-105528744D01*
X150790824Y-105530726D01*
X150690660Y-105627302D01*
X150606491Y-105765842D01*
X150554486Y-105915738D01*
X150545429Y-105995343D01*
X150576722Y-106139764D01*
X150661130Y-106287719D01*
X150784444Y-106415642D01*
X150810875Y-106435579D01*
X150873075Y-106473563D01*
X150943303Y-106498436D01*
X151039059Y-106513336D01*
X151177844Y-106521403D01*
X151307245Y-106524615D01*
X151473495Y-106526007D01*
X151618308Y-106524170D01*
X151722659Y-106519514D01*
X151761001Y-106514898D01*
X151843793Y-106493318D01*
X151952512Y-106462134D01*
X151969643Y-106456989D01*
X152050650Y-106428554D01*
X152090744Y-106392014D01*
X152104305Y-106324054D01*
X152105715Y-106236381D01*
X152105715Y-106056949D01*
X151951501Y-106080561D01*
X151845662Y-106093172D01*
X151693426Y-106106870D01*
X151520887Y-106119418D01*
X151445033Y-106124010D01*
X151092780Y-106143848D01*
X151067634Y-106043659D01*
X151065018Y-105963030D01*
X151106829Y-105894550D01*
X151200786Y-105832295D01*
X151354608Y-105770339D01*
X151472737Y-105732675D01*
X151600188Y-105690899D01*
X151695245Y-105653086D01*
X151741058Y-105626125D01*
X151742858Y-105622200D01*
X151771729Y-105594107D01*
X151788215Y-105591650D01*
X151848322Y-105569054D01*
X151908889Y-105527456D01*
X152029507Y-105394674D01*
X152093879Y-105237017D01*
X152110751Y-105073897D01*
X152092116Y-104880071D01*
X152027983Y-104732115D01*
X151913819Y-104626614D01*
X151745091Y-104560150D01*
X151517266Y-104529306D01*
X151384050Y-104526156D01*
X151215539Y-104529836D01*
G36*
X154213208Y-104541928D02*
X154040182Y-104584506D01*
X153911197Y-104661365D01*
X153813827Y-104778233D01*
X153783929Y-104831577D01*
X153756453Y-104889316D01*
X153735932Y-104947576D01*
X153721357Y-105017659D01*
X153711719Y-105110867D01*
X153706009Y-105238500D01*
X153703216Y-105411860D01*
X153702332Y-105642249D01*
X153702286Y-105745689D01*
X153702286Y-106500000D01*
X154174001Y-106500000D01*
X154174001Y-105095455D01*
X154267425Y-104994648D01*
X154325094Y-104938967D01*
X154381516Y-104911345D01*
X154461571Y-104905372D01*
X154581139Y-104913816D01*
X154725020Y-104934427D01*
X154822559Y-104970683D01*
X154895928Y-105028195D01*
X154928998Y-105063155D01*
X154953591Y-105099792D01*
X154971317Y-105149146D01*
X154983781Y-105222261D01*
X154992590Y-105330178D01*
X154999352Y-105483939D01*
X155005674Y-105694587D01*
X155008572Y-105802228D01*
X155026715Y-106481858D01*
X155271643Y-106492587D01*
X155516572Y-106503316D01*
X155516572Y-104540572D01*
X155298858Y-104540572D01*
X155183913Y-104544695D01*
X155104802Y-104555412D01*
X155080588Y-104567786D01*
X155062732Y-104619376D01*
X155047993Y-104645598D01*
X155016810Y-104670887D01*
X154964484Y-104659425D01*
X154878281Y-104611109D01*
X154794419Y-104566712D01*
X154706041Y-104541055D01*
X154589720Y-104529664D01*
X154442696Y-104527905D01*
X154213208Y-104541928D01*
X154213208Y-104541928D01*
G37*
X154213208Y-104541928D02*
X154040182Y-104584506D01*
X153911197Y-104661365D01*
X153813827Y-104778233D01*
X153783929Y-104831577D01*
X153756453Y-104889316D01*
X153735932Y-104947576D01*
X153721357Y-105017659D01*
X153711719Y-105110867D01*
X153706009Y-105238500D01*
X153703216Y-105411860D01*
X153702332Y-105642249D01*
X153702286Y-105745689D01*
X153702286Y-106500000D01*
X154174001Y-106500000D01*
X154174001Y-105095455D01*
X154267425Y-104994648D01*
X154325094Y-104938967D01*
X154381516Y-104911345D01*
X154461571Y-104905372D01*
X154581139Y-104913816D01*
X154725020Y-104934427D01*
X154822559Y-104970683D01*
X154895928Y-105028195D01*
X154928998Y-105063155D01*
X154953591Y-105099792D01*
X154971317Y-105149146D01*
X154983781Y-105222261D01*
X154992590Y-105330178D01*
X154999352Y-105483939D01*
X155005674Y-105694587D01*
X155008572Y-105802228D01*
X155026715Y-106481858D01*
X155271643Y-106492587D01*
X155516572Y-106503316D01*
X155516572Y-104540572D01*
X155298858Y-104540572D01*
X155183913Y-104544695D01*
X155104802Y-104555412D01*
X155080588Y-104567786D01*
X155062732Y-104619376D01*
X155047993Y-104645598D01*
X155016810Y-104670887D01*
X154964484Y-104659425D01*
X154878281Y-104611109D01*
X154794419Y-104566712D01*
X154706041Y-104541055D01*
X154589720Y-104529664D01*
X154442696Y-104527905D01*
X154213208Y-104541928D01*
G36*
X152642587Y-105454460D02*
X152638642Y-105707707D01*
X152633824Y-105938538D01*
X152628449Y-106136520D01*
X152622833Y-106291221D01*
X152617293Y-106392208D01*
X152613091Y-106427429D01*
X152616831Y-106457806D01*
X152660610Y-106476812D01*
X152757240Y-106488195D01*
X152835502Y-106492473D01*
X153075433Y-106503088D01*
X153098174Y-106365473D01*
X153105954Y-106283259D01*
X153112073Y-106149015D01*
X153116558Y-105974897D01*
X153119434Y-105773060D01*
X153120726Y-105555660D01*
X153120459Y-105334852D01*
X153118660Y-105122793D01*
X153115352Y-104931639D01*
X153110562Y-104773544D01*
X153104314Y-104660665D01*
X153096635Y-104605158D01*
X153094501Y-104601673D01*
X153046004Y-104589002D01*
X152949254Y-104572756D01*
X152860926Y-104560920D01*
X152654565Y-104535920D01*
X152642587Y-105454460D01*
X152642587Y-105454460D01*
G37*
X152642587Y-105454460D02*
X152638642Y-105707707D01*
X152633824Y-105938538D01*
X152628449Y-106136520D01*
X152622833Y-106291221D01*
X152617293Y-106392208D01*
X152613091Y-106427429D01*
X152616831Y-106457806D01*
X152660610Y-106476812D01*
X152757240Y-106488195D01*
X152835502Y-106492473D01*
X153075433Y-106503088D01*
X153098174Y-106365473D01*
X153105954Y-106283259D01*
X153112073Y-106149015D01*
X153116558Y-105974897D01*
X153119434Y-105773060D01*
X153120726Y-105555660D01*
X153120459Y-105334852D01*
X153118660Y-105122793D01*
X153115352Y-104931639D01*
X153110562Y-104773544D01*
X153104314Y-104660665D01*
X153096635Y-104605158D01*
X153094501Y-104601673D01*
X153046004Y-104589002D01*
X152949254Y-104572756D01*
X152860926Y-104560920D01*
X152654565Y-104535920D01*
X152642587Y-105454460D01*
G36*
X152748368Y-103750720D02*
X152660479Y-103817120D01*
X152608155Y-103913679D01*
X152605497Y-104031431D01*
X152633718Y-104108742D01*
X152689125Y-104179675D01*
X152767501Y-104243565D01*
X152843052Y-104281961D01*
X152879148Y-104284272D01*
X152913640Y-104270767D01*
X152973280Y-104247017D01*
X153087095Y-104169915D01*
X153147510Y-104061955D01*
X153149711Y-103941531D01*
X153088888Y-103827037D01*
X153084425Y-103822139D01*
X152974441Y-103744263D01*
X152857723Y-103723446D01*
X152748368Y-103750720D01*
X152748368Y-103750720D01*
G37*
X152748368Y-103750720D02*
X152660479Y-103817120D01*
X152608155Y-103913679D01*
X152605497Y-104031431D01*
X152633718Y-104108742D01*
X152689125Y-104179675D01*
X152767501Y-104243565D01*
X152843052Y-104281961D01*
X152879148Y-104284272D01*
X152913640Y-104270767D01*
X152973280Y-104247017D01*
X153087095Y-104169915D01*
X153147510Y-104061955D01*
X153149711Y-103941531D01*
X153088888Y-103827037D01*
X153084425Y-103822139D01*
X152974441Y-103744263D01*
X152857723Y-103723446D01*
X152748368Y-103750720D01*
M02*
