%TF.GenerationSoftware,KiCad,Pcbnew,4.0.7*%
%TF.CreationDate,2018-10-01T17:52:14+02:00*%
%TF.ProjectId,RFID_BOARD_V3_EM4095,524649445F424F4152445F56335F454D,rev?*%
%TF.FileFunction,Copper,L1,Top,Signal*%
%FSLAX46Y46*%
G04 Gerber Fmt 4.6, Leading zero omitted, Abs format (unit mm)*
G04 Created by KiCad (PCBNEW 4.0.7) date 2018 October 01, Monday 17:52:14*
%MOMM*%
%LPD*%
G01*
G04 APERTURE LIST*
%ADD10C,0.100000*%
%ADD11C,1.000000*%
%ADD12R,0.750000X0.800000*%
%ADD13R,0.600000X1.500000*%
%ADD14R,0.800000X0.750000*%
%ADD15R,1.250000X1.000000*%
%ADD16R,1.000000X1.250000*%
%ADD17R,1.700000X1.700000*%
%ADD18O,1.700000X1.700000*%
%ADD19R,0.900000X0.500000*%
%ADD20R,1.500000X1.500000*%
%ADD21C,0.800000*%
%ADD22C,1.000000*%
%ADD23C,0.400000*%
%ADD24C,0.600000*%
%ADD25C,0.250000*%
%ADD26C,0.500000*%
G04 APERTURE END LIST*
D10*
D11*
X151000000Y-100500000D03*
X167000000Y-100500000D03*
D12*
X166000000Y-119250000D03*
X166000000Y-117750000D03*
X164000000Y-117750000D03*
X164000000Y-119250000D03*
X158000000Y-119250000D03*
X158000000Y-117750000D03*
D13*
X164445000Y-109700000D03*
X163175000Y-109700000D03*
X161905000Y-109700000D03*
X160635000Y-109700000D03*
X159365000Y-109700000D03*
X158095000Y-109700000D03*
X156825000Y-109700000D03*
X155555000Y-109700000D03*
X155555000Y-115100000D03*
X156825000Y-115100000D03*
X158095000Y-115100000D03*
X159365000Y-115100000D03*
X160635000Y-115100000D03*
X161905000Y-115100000D03*
X163175000Y-115100000D03*
X164445000Y-115100000D03*
D14*
X151250000Y-114500000D03*
X152750000Y-114500000D03*
X154750000Y-117500000D03*
X156250000Y-117500000D03*
D15*
X153000000Y-105500000D03*
X153000000Y-103500000D03*
D12*
X153000000Y-109250000D03*
X153000000Y-107750000D03*
D16*
X155500000Y-103500000D03*
X157500000Y-103500000D03*
X157500000Y-105500000D03*
X155500000Y-105500000D03*
D17*
X154880000Y-123500000D03*
D18*
X157420000Y-123500000D03*
X159960000Y-123500000D03*
X162500000Y-123500000D03*
X165040000Y-123500000D03*
D19*
X160000000Y-119250000D03*
X160000000Y-117750000D03*
D14*
X157250000Y-101500000D03*
X155750000Y-101500000D03*
X161250000Y-107000000D03*
X159750000Y-107000000D03*
D20*
X162500000Y-99500000D03*
X155400000Y-99500000D03*
D11*
X151000000Y-122500000D03*
D16*
X161500000Y-105300000D03*
X159500000Y-105300000D03*
X151000000Y-112500000D03*
X153000000Y-112500000D03*
D21*
X151200000Y-116300000D03*
X151200000Y-110900000D03*
X160000000Y-104500000D03*
D11*
X162500000Y-112500000D03*
D21*
X166000000Y-120500000D03*
X164000000Y-120500000D03*
X160000000Y-120500000D03*
X158000000Y-120500000D03*
X153000000Y-110500000D03*
X159500000Y-108000000D03*
X161000000Y-104500000D03*
D22*
X151200000Y-110900000D02*
X151200000Y-112300000D01*
X151200000Y-112300000D02*
X151000000Y-112500000D01*
X151200000Y-116134315D02*
X151200000Y-116300000D01*
X151065685Y-116000000D02*
X151200000Y-116134315D01*
X151250000Y-110950000D02*
X151200000Y-110900000D01*
X151250000Y-114500000D02*
X151250000Y-110950000D01*
D23*
X159750000Y-105500000D02*
X159750000Y-107000000D01*
X159750000Y-107000000D02*
X159750000Y-107750000D01*
X159750000Y-107750000D02*
X159500000Y-108000000D01*
X159365000Y-109700000D02*
X159365000Y-108135000D01*
X159750000Y-104750000D02*
X160000000Y-104500000D01*
X159750000Y-105500000D02*
X159750000Y-104750000D01*
D22*
X163207106Y-112500000D02*
X162500000Y-112500000D01*
X163395000Y-112500000D02*
X163207106Y-112500000D01*
X164445000Y-111450000D02*
X163395000Y-112500000D01*
X164445000Y-109700000D02*
X164445000Y-111450000D01*
D23*
X166000000Y-119250000D02*
X166000000Y-120500000D01*
X164000000Y-119250000D02*
X164000000Y-120500000D01*
X160000000Y-119250000D02*
X160000000Y-120500000D01*
X158000000Y-119250000D02*
X158000000Y-120500000D01*
D22*
X151125000Y-116000000D02*
X151065685Y-116000000D01*
X151250000Y-115875000D02*
X151125000Y-116000000D01*
X151250000Y-114500000D02*
X151250000Y-115875000D01*
X151250000Y-115815685D02*
X151065685Y-116000000D01*
X151250000Y-115750000D02*
X151250000Y-115815685D01*
D24*
X153000000Y-109250000D02*
X153000000Y-110500000D01*
D25*
X159365000Y-108135000D02*
X159500000Y-108000000D01*
D22*
X152750000Y-118250000D02*
X154880000Y-120380000D01*
X154880000Y-120380000D02*
X154880000Y-123500000D01*
X152750000Y-114500000D02*
X152750000Y-118250000D01*
D23*
X160635000Y-109700000D02*
X160635000Y-107615000D01*
X160635000Y-107615000D02*
X161250000Y-107000000D01*
X161250000Y-105500000D02*
X161250000Y-107000000D01*
D22*
X156825000Y-109700000D02*
X156825000Y-111450000D01*
X156825000Y-111450000D02*
X155775000Y-112500000D01*
X155775000Y-112500000D02*
X152750000Y-112500000D01*
D23*
X161250000Y-105500000D02*
X161250000Y-104750000D01*
X161250000Y-104750000D02*
X161000000Y-104500000D01*
D22*
X152750000Y-113000000D02*
X152750000Y-114500000D01*
X152750000Y-113000000D02*
X152750000Y-112500000D01*
X152750000Y-113000000D02*
X152750000Y-112750000D01*
D26*
X160635000Y-109700000D02*
X160635000Y-110150000D01*
X160635000Y-110150000D02*
X160700000Y-110215000D01*
D22*
X155750000Y-101500000D02*
X155750000Y-100500000D01*
X155750000Y-100500000D02*
X155750000Y-100000000D01*
D25*
X155400000Y-99500000D02*
X155400000Y-100150000D01*
X155400000Y-100150000D02*
X155750000Y-100500000D01*
D24*
X155750000Y-101500000D02*
X155000000Y-101500000D01*
X155000000Y-101500000D02*
X153000000Y-103500000D01*
D23*
X163175000Y-115100000D02*
X163175000Y-116175000D01*
X163175000Y-116175000D02*
X164000000Y-117000000D01*
X164000000Y-117000000D02*
X164000000Y-117750000D01*
X158000000Y-117750000D02*
X158000000Y-115195000D01*
X158000000Y-115195000D02*
X158095000Y-115100000D01*
X156250000Y-117500000D02*
X156825000Y-116925000D01*
X156825000Y-116925000D02*
X156825000Y-115100000D01*
X162500000Y-125500000D02*
X166000000Y-125500000D01*
X162500000Y-125500000D02*
X161960000Y-125500000D01*
X161960000Y-125500000D02*
X159960000Y-123500000D01*
X166000000Y-125500000D02*
X168000000Y-123500000D01*
X168000000Y-123500000D02*
X168000000Y-110000000D01*
X168000000Y-110000000D02*
X166000000Y-108000000D01*
X164425000Y-108000000D02*
X163175000Y-109250000D01*
X166000000Y-108000000D02*
X164425000Y-108000000D01*
X163175000Y-109250000D02*
X163175000Y-109700000D01*
X160500000Y-121500000D02*
X159420000Y-121500000D01*
X159420000Y-121500000D02*
X157420000Y-123500000D01*
X160635000Y-115100000D02*
X160635000Y-116635000D01*
X160635000Y-116635000D02*
X161500000Y-117500000D01*
X161500000Y-117500000D02*
X161500000Y-120500000D01*
X161500000Y-120500000D02*
X160500000Y-121500000D01*
X162500000Y-121080000D02*
X162500000Y-123500000D01*
X161905000Y-115100000D02*
X161905000Y-116405000D01*
X161905000Y-116405000D02*
X162500000Y-117000000D01*
X162500000Y-117000000D02*
X162500000Y-121080000D01*
D24*
X153000000Y-106500000D02*
X153000000Y-107750000D01*
X153000000Y-106695000D02*
X155555000Y-109250000D01*
X153000000Y-105500000D02*
X153000000Y-106500000D01*
X153000000Y-106500000D02*
X153000000Y-106695000D01*
X155555000Y-109250000D02*
X155555000Y-109700000D01*
D26*
X155505000Y-109750000D02*
X155555000Y-109700000D01*
D23*
X166000000Y-117750000D02*
X166000000Y-117500000D01*
X166000000Y-117500000D02*
X164445000Y-115945000D01*
X164445000Y-115945000D02*
X164445000Y-115100000D01*
X154750000Y-117500000D02*
X154750000Y-115905000D01*
X154750000Y-115905000D02*
X155555000Y-115100000D01*
D24*
X157250000Y-101500000D02*
X157250000Y-103250000D01*
X157250000Y-103250000D02*
X157500000Y-103500000D01*
X157750000Y-103250000D02*
X157500000Y-103500000D01*
X155500000Y-103500000D02*
X155500000Y-105500000D01*
X157500000Y-105500000D02*
X158095000Y-106095000D01*
X158095000Y-106095000D02*
X158095000Y-109700000D01*
D23*
X160000000Y-117750000D02*
X159365000Y-117115000D01*
X159365000Y-117115000D02*
X159365000Y-115100000D01*
D24*
X163000000Y-107010035D02*
X163000000Y-99500000D01*
X161905000Y-109700000D02*
X161905000Y-108105035D01*
X161905000Y-108105035D02*
X163000000Y-107010035D01*
X163000000Y-99500000D02*
X162500000Y-99500000D01*
M02*
