%TF.GenerationSoftware,KiCad,Pcbnew,4.0.7*%
%TF.CreationDate,2018-10-01T17:52:14+02:00*%
%TF.ProjectId,RFID_BOARD_V3_EM4095,524649445F424F4152445F56335F454D,rev?*%
%TF.FileFunction,Copper,L2,Bot,Signal*%
%FSLAX46Y46*%
G04 Gerber Fmt 4.6, Leading zero omitted, Abs format (unit mm)*
G04 Created by KiCad (PCBNEW 4.0.7) date 2018 October 01, Monday 17:52:14*
%MOMM*%
%LPD*%
G01*
G04 APERTURE LIST*
%ADD10C,0.100000*%
%ADD11R,1.700000X1.700000*%
%ADD12O,1.700000X1.700000*%
%ADD13C,0.800000*%
%ADD14C,1.000000*%
%ADD15C,0.400000*%
%ADD16C,0.254000*%
G04 APERTURE END LIST*
D10*
D11*
X154880000Y-123500000D03*
D12*
X157420000Y-123500000D03*
X159960000Y-123500000D03*
X162500000Y-123500000D03*
X165040000Y-123500000D03*
D13*
X151200000Y-116300000D03*
X151200000Y-110900000D03*
X160000000Y-104500000D03*
D14*
X162500000Y-112500000D03*
D13*
X166000000Y-120500000D03*
X164000000Y-120500000D03*
X160000000Y-120500000D03*
X158000000Y-120500000D03*
X153000000Y-110500000D03*
X159500000Y-108000000D03*
X161000000Y-104500000D03*
D15*
X160000000Y-104500000D02*
X160000000Y-107500000D01*
X160000000Y-107500000D02*
X159500000Y-108000000D01*
X159500000Y-108000000D02*
X159500000Y-110000000D01*
X166500000Y-125500000D02*
X155630000Y-125500000D01*
X155630000Y-125500000D02*
X154880000Y-124750000D01*
X154880000Y-124750000D02*
X154880000Y-123500000D01*
X161000000Y-104500000D02*
X161000000Y-110500000D01*
X161000000Y-110500000D02*
X162000000Y-111500000D01*
X162000000Y-111500000D02*
X164500000Y-111500000D01*
X164500000Y-111500000D02*
X168000000Y-115000000D01*
X168000000Y-115000000D02*
X168000000Y-124000000D01*
X168000000Y-124000000D02*
X166500000Y-125500000D01*
D16*
G36*
X160165000Y-110500000D02*
X160228561Y-110819541D01*
X160288714Y-110909566D01*
X160409566Y-111090434D01*
X161409566Y-112090434D01*
X161680460Y-112271440D01*
X162000000Y-112335000D01*
X164154132Y-112335000D01*
X167165000Y-115345868D01*
X167165000Y-123654132D01*
X166154132Y-124665000D01*
X165923945Y-124665000D01*
X166235183Y-124381358D01*
X166481486Y-123856892D01*
X166360819Y-123627000D01*
X165167000Y-123627000D01*
X165167000Y-123647000D01*
X164913000Y-123647000D01*
X164913000Y-123627000D01*
X164893000Y-123627000D01*
X164893000Y-123373000D01*
X164913000Y-123373000D01*
X164913000Y-122179845D01*
X165167000Y-122179845D01*
X165167000Y-123373000D01*
X166360819Y-123373000D01*
X166481486Y-123143108D01*
X166235183Y-122618642D01*
X165806924Y-122228355D01*
X165396890Y-122058524D01*
X165167000Y-122179845D01*
X164913000Y-122179845D01*
X164683110Y-122058524D01*
X164273076Y-122228355D01*
X163844817Y-122618642D01*
X163777702Y-122761553D01*
X163550054Y-122420853D01*
X163068285Y-122098946D01*
X162500000Y-121985907D01*
X161931715Y-122098946D01*
X161449946Y-122420853D01*
X161230000Y-122750026D01*
X161010054Y-122420853D01*
X160528285Y-122098946D01*
X159960000Y-121985907D01*
X159391715Y-122098946D01*
X158909946Y-122420853D01*
X158690000Y-122750026D01*
X158470054Y-122420853D01*
X157988285Y-122098946D01*
X157420000Y-121985907D01*
X156851715Y-122098946D01*
X156369946Y-122420853D01*
X156342150Y-122462452D01*
X156333162Y-122414683D01*
X156194090Y-122198559D01*
X155981890Y-122053569D01*
X155730000Y-122002560D01*
X154030000Y-122002560D01*
X153794683Y-122046838D01*
X153578559Y-122185910D01*
X153433569Y-122398110D01*
X153382560Y-122650000D01*
X153382560Y-124350000D01*
X153426838Y-124585317D01*
X153565910Y-124801441D01*
X153778110Y-124946431D01*
X154030000Y-124997440D01*
X154094219Y-124997440D01*
X154108561Y-125069541D01*
X154182674Y-125180459D01*
X154289566Y-125340434D01*
X154739132Y-125790000D01*
X149710000Y-125790000D01*
X149710000Y-109627000D01*
X160165000Y-109627000D01*
X160165000Y-110500000D01*
X160165000Y-110500000D01*
G37*
X160165000Y-110500000D02*
X160228561Y-110819541D01*
X160288714Y-110909566D01*
X160409566Y-111090434D01*
X161409566Y-112090434D01*
X161680460Y-112271440D01*
X162000000Y-112335000D01*
X164154132Y-112335000D01*
X167165000Y-115345868D01*
X167165000Y-123654132D01*
X166154132Y-124665000D01*
X165923945Y-124665000D01*
X166235183Y-124381358D01*
X166481486Y-123856892D01*
X166360819Y-123627000D01*
X165167000Y-123627000D01*
X165167000Y-123647000D01*
X164913000Y-123647000D01*
X164913000Y-123627000D01*
X164893000Y-123627000D01*
X164893000Y-123373000D01*
X164913000Y-123373000D01*
X164913000Y-122179845D01*
X165167000Y-122179845D01*
X165167000Y-123373000D01*
X166360819Y-123373000D01*
X166481486Y-123143108D01*
X166235183Y-122618642D01*
X165806924Y-122228355D01*
X165396890Y-122058524D01*
X165167000Y-122179845D01*
X164913000Y-122179845D01*
X164683110Y-122058524D01*
X164273076Y-122228355D01*
X163844817Y-122618642D01*
X163777702Y-122761553D01*
X163550054Y-122420853D01*
X163068285Y-122098946D01*
X162500000Y-121985907D01*
X161931715Y-122098946D01*
X161449946Y-122420853D01*
X161230000Y-122750026D01*
X161010054Y-122420853D01*
X160528285Y-122098946D01*
X159960000Y-121985907D01*
X159391715Y-122098946D01*
X158909946Y-122420853D01*
X158690000Y-122750026D01*
X158470054Y-122420853D01*
X157988285Y-122098946D01*
X157420000Y-121985907D01*
X156851715Y-122098946D01*
X156369946Y-122420853D01*
X156342150Y-122462452D01*
X156333162Y-122414683D01*
X156194090Y-122198559D01*
X155981890Y-122053569D01*
X155730000Y-122002560D01*
X154030000Y-122002560D01*
X153794683Y-122046838D01*
X153578559Y-122185910D01*
X153433569Y-122398110D01*
X153382560Y-122650000D01*
X153382560Y-124350000D01*
X153426838Y-124585317D01*
X153565910Y-124801441D01*
X153778110Y-124946431D01*
X154030000Y-124997440D01*
X154094219Y-124997440D01*
X154108561Y-125069541D01*
X154182674Y-125180459D01*
X154289566Y-125340434D01*
X154739132Y-125790000D01*
X149710000Y-125790000D01*
X149710000Y-109627000D01*
X160165000Y-109627000D01*
X160165000Y-110500000D01*
M02*
